<?xml version="1.0" standalone="no"?>
<!DOCTYPE svg PUBLIC "-//W3C//DTD SVG 1.1//EN" "http://www.w3.org/Graphics/SVG/1.1/DTD/svg11.dtd">
<svg width="130mm" height="130mm" viewBox="-65 -65 130 130" xmlns="http://www.w3.org/2000/svg" version="1.1">
<title>OpenSCAD Model</title>
<path d="
M 1.1344,64.9901 L 2.26846,64.9604 L 3.40182,64.9109 L 4.53416,64.8417 L 5.66512,64.7527 L 6.79434,64.6439
 L 7.92149,64.5155 L 9.04625,64.3674 L 10.1682,64.1997 L 11.2871,64.0125 L 12.4026,63.8058 L 13.5143,63.5796
 L 14.6218,63.334 L 15.7249,63.0692 L 16.8232,62.7852 L 17.9164,62.482 L 19.0042,62.1598 L 20.0861,61.8187
 L 21.1619,61.4587 L 22.2313,61.08 L 23.2939,60.6827 L 24.3494,60.2669 L 25.3975,59.8328 L 26.4379,59.3804
 L 27.4702,58.91 L 28.4941,58.4216 L 29.5094,57.9154 L 30.5156,57.3916 L 31.5126,56.8503 L 32.277,56.4178
 L 32.3119,56.3478 L 32.7552,55.4963 L 33.2132,54.6527 L 33.6859,53.8173 L 34.1731,52.9902 L 34.6746,52.1717
 L 35.1904,51.3621 L 35.7202,50.5617 L 36.2639,49.7706 L 36.8213,48.9891 L 37.3923,48.2175 L 37.9767,47.4559
 L 38.5742,46.7047 L 39.1848,45.964 L 39.8082,45.234 L 40.4443,44.5151 L 41.0928,43.8074 L 41.7536,43.1111
 L 42.4264,42.4264 L 43.1111,41.7536 L 43.8074,41.0928 L 44.5151,40.4443 L 45.234,39.8082 L 45.964,39.1848
 L 46.7047,38.5742 L 47.4559,37.9767 L 48.2175,37.3923 L 48.9891,36.8213 L 49.7706,36.2639 L 50.5617,35.7202
 L 51.3621,35.1904 L 52.1717,34.6746 L 52.9902,34.1731 L 53.8173,33.6859 L 54.6527,33.2132 L 55.4963,32.7552
 L 56.3478,32.3119 L 56.4178,32.277 L 56.8503,31.5126 L 57.3916,30.5156 L 57.9154,29.5094 L 58.4216,28.4941
 L 58.91,27.4702 L 59.3804,26.4379 L 59.8328,25.3975 L 60.2669,24.3494 L 60.6827,23.2939 L 61.08,22.2313
 L 61.4587,21.1619 L 61.8187,20.0861 L 62.1598,19.0042 L 62.482,17.9164 L 62.7852,16.8232 L 63.0692,15.7249
 L 63.334,14.6218 L 63.5796,13.5143 L 63.8058,12.4026 L 64.0125,11.2871 L 64.1997,10.1682 L 64.3674,9.04625
 L 64.5155,7.92149 L 64.6439,6.79434 L 64.7527,5.66512 L 64.8417,4.53416 L 64.9109,3.40182 L 64.9604,2.26846
 L 64.9901,1.1344 L 65,-0 L 64.9901,-1.1344 L 64.9604,-2.26846 L 64.9109,-3.40182 L 64.8417,-4.53416
 L 64.7527,-5.66512 L 64.6439,-6.79434 L 64.5155,-7.92149 L 64.3674,-9.04625 L 64.1997,-10.1682 L 64.0125,-11.2871
 L 63.8058,-12.4026 L 63.5796,-13.5143 L 63.334,-14.6218 L 63.0692,-15.7249 L 62.7852,-16.8232 L 62.482,-17.9164
 L 62.1598,-19.0042 L 61.8187,-20.0861 L 61.4587,-21.1619 L 61.08,-22.2313 L 60.6827,-23.2939 L 60.2669,-24.3494
 L 59.8328,-25.3975 L 59.3804,-26.4379 L 58.91,-27.4702 L 58.4216,-28.4941 L 57.9154,-29.5094 L 57.3916,-30.5156
 L 56.8503,-31.5126 L 56.4178,-32.277 L 56.3478,-32.3119 L 55.4963,-32.7552 L 54.6527,-33.2132 L 53.8173,-33.6859
 L 52.9902,-34.1731 L 52.1717,-34.6746 L 51.3621,-35.1904 L 50.5617,-35.7202 L 49.7706,-36.2639 L 48.9891,-36.8213
 L 48.2175,-37.3923 L 47.4559,-37.9767 L 46.7047,-38.5742 L 45.964,-39.1848 L 45.234,-39.8082 L 44.5151,-40.4443
 L 43.8074,-41.0928 L 43.1111,-41.7536 L 42.4264,-42.4264 L 41.7536,-43.1111 L 41.0928,-43.8074 L 40.4443,-44.5151
 L 39.8082,-45.234 L 39.1848,-45.964 L 38.5742,-46.7047 L 37.9767,-47.4559 L 37.3923,-48.2175 L 36.8213,-48.9891
 L 36.2639,-49.7706 L 35.7202,-50.5617 L 35.1904,-51.3621 L 34.6746,-52.1717 L 34.1731,-52.9902 L 33.6859,-53.8173
 L 33.2132,-54.6527 L 32.7552,-55.4963 L 32.3119,-56.3478 L 32.277,-56.4178 L 31.5126,-56.8503 L 30.5156,-57.3916
 L 29.5094,-57.9154 L 28.4941,-58.4216 L 27.4702,-58.91 L 26.4379,-59.3804 L 25.3975,-59.8328 L 24.3494,-60.2669
 L 23.2939,-60.6827 L 22.2313,-61.08 L 21.1619,-61.4587 L 20.0861,-61.8187 L 19.0042,-62.1598 L 17.9164,-62.482
 L 16.8232,-62.7852 L 15.7249,-63.0692 L 14.6218,-63.334 L 13.5143,-63.5796 L 12.4026,-63.8058 L 11.2871,-64.0125
 L 10.1682,-64.1997 L 9.04625,-64.3674 L 7.92149,-64.5155 L 6.79434,-64.6439 L 5.66512,-64.7527 L 4.53416,-64.8417
 L 3.40182,-64.9109 L 2.26846,-64.9604 L 1.1344,-64.9901 L 0,-65 L -1.1344,-64.9901 L -2.26846,-64.9604
 L -3.40182,-64.9109 L -4.53416,-64.8417 L -5.66512,-64.7527 L -6.79434,-64.6439 L -7.92149,-64.5155 L -9.04625,-64.3674
 L -10.1682,-64.1997 L -11.2871,-64.0125 L -12.4026,-63.8058 L -13.5143,-63.5796 L -14.6218,-63.334 L -15.7249,-63.0692
 L -16.8232,-62.7852 L -17.9164,-62.482 L -19.0042,-62.1598 L -20.0861,-61.8187 L -21.1619,-61.4587 L -22.2313,-61.08
 L -23.2939,-60.6827 L -24.3494,-60.2669 L -25.3975,-59.8328 L -26.4379,-59.3804 L -27.4702,-58.91 L -28.4941,-58.4216
 L -29.5094,-57.9154 L -30.5156,-57.3916 L -31.5126,-56.8503 L -32.277,-56.4178 L -32.3119,-56.3478 L -32.7552,-55.4963
 L -33.2132,-54.6527 L -33.6859,-53.8173 L -34.1731,-52.9902 L -34.6746,-52.1717 L -35.1904,-51.3621 L -35.7202,-50.5617
 L -36.2639,-49.7706 L -36.8213,-48.9891 L -37.3923,-48.2175 L -37.9767,-47.4559 L -38.5742,-46.7047 L -39.1848,-45.964
 L -39.8082,-45.234 L -40.4443,-44.5151 L -41.0928,-43.8074 L -41.7536,-43.1111 L -42.4264,-42.4264 L -43.1111,-41.7536
 L -43.8074,-41.0928 L -44.5151,-40.4443 L -45.234,-39.8082 L -45.964,-39.1848 L -46.7047,-38.5742 L -47.4559,-37.9767
 L -48.2175,-37.3923 L -48.9891,-36.8213 L -49.7706,-36.2639 L -50.5617,-35.7202 L -51.3621,-35.1904 L -52.1717,-34.6746
 L -52.9902,-34.1731 L -53.8173,-33.6859 L -54.6527,-33.2132 L -55.4963,-32.7552 L -56.3478,-32.3119 L -56.4178,-32.277
 L -56.8503,-31.5126 L -57.3916,-30.5156 L -57.9154,-29.5094 L -58.4216,-28.4941 L -58.91,-27.4702 L -59.3804,-26.4379
 L -59.8328,-25.3975 L -60.2669,-24.3494 L -60.6827,-23.2939 L -61.08,-22.2313 L -61.4587,-21.1619 L -61.8187,-20.0861
 L -62.1598,-19.0042 L -62.482,-17.9164 L -62.7852,-16.8232 L -63.0692,-15.7249 L -63.334,-14.6218 L -63.5796,-13.5143
 L -63.8058,-12.4026 L -64.0125,-11.2871 L -64.1997,-10.1682 L -64.3674,-9.04625 L -64.5155,-7.92149 L -64.6439,-6.79434
 L -64.7527,-5.66512 L -64.8417,-4.53416 L -64.9109,-3.40182 L -64.9604,-2.26846 L -64.9901,-1.1344 L -65,-0
 L -64.9901,1.1344 L -64.9604,2.26846 L -64.9109,3.40182 L -64.8417,4.53416 L -64.7527,5.66512 L -64.6439,6.79434
 L -64.5155,7.92149 L -64.3674,9.04625 L -64.1997,10.1682 L -64.0125,11.2871 L -63.8058,12.4026 L -63.5796,13.5143
 L -63.334,14.6218 L -63.0692,15.7249 L -62.7852,16.8232 L -62.482,17.9164 L -62.1598,19.0042 L -61.8187,20.0861
 L -61.4587,21.1619 L -61.08,22.2313 L -60.6827,23.2939 L -60.2669,24.3494 L -59.8328,25.3975 L -59.3804,26.4379
 L -58.91,27.4702 L -58.4216,28.4941 L -57.9154,29.5094 L -57.3916,30.5156 L -56.8503,31.5126 L -56.4178,32.277
 L -56.3478,32.3119 L -55.4963,32.7552 L -54.6527,33.2132 L -53.8173,33.6859 L -52.9902,34.1731 L -52.1717,34.6746
 L -51.3621,35.1904 L -50.5617,35.7202 L -49.7706,36.2639 L -48.9891,36.8213 L -48.2175,37.3923 L -47.4559,37.9767
 L -46.7047,38.5742 L -45.964,39.1848 L -45.234,39.8082 L -44.5151,40.4443 L -43.8074,41.0928 L -43.1111,41.7536
 L -42.4264,42.4264 L -41.7536,43.1111 L -41.0928,43.8074 L -40.4443,44.5151 L -39.8082,45.234 L -39.1848,45.964
 L -38.5742,46.7047 L -37.9767,47.4559 L -37.3923,48.2175 L -36.8213,48.9891 L -36.2639,49.7706 L -35.7202,50.5617
 L -35.1904,51.3621 L -34.6746,52.1717 L -34.1731,52.9902 L -33.6859,53.8173 L -33.2132,54.6527 L -32.7552,55.4963
 L -32.3119,56.3478 L -32.277,56.4178 L -31.5126,56.8503 L -30.5156,57.3916 L -29.5094,57.9154 L -28.4941,58.4216
 L -27.4702,58.91 L -26.4379,59.3804 L -25.3975,59.8328 L -24.3494,60.2669 L -23.2939,60.6827 L -22.2313,61.08
 L -21.1619,61.4587 L -20.0861,61.8187 L -19.0042,62.1598 L -17.9164,62.482 L -16.8232,62.7852 L -15.7249,63.0692
 L -14.6218,63.334 L -13.5143,63.5796 L -12.4026,63.8058 L -11.2871,64.0125 L -10.1682,64.1997 L -9.04625,64.3674
 L -7.92149,64.5155 L -6.79434,64.6439 L -5.66512,64.7527 L -4.53416,64.8417 L -3.40182,64.9109 L -2.26846,64.9604
 L -1.1344,64.9901 L 0,65 z
M -0.0610657,-58.2511 L -0.182922,-58.2596 L -0.303879,-58.2766 L -0.423355,-58.302 L -0.540771,-58.3356 L -0.655548,-58.3774
 L -0.767136,-58.4271 L -0.875,-58.4845 L -0.978577,-58.5492 L -1.07739,-58.621 L -1.17097,-58.6995 L -1.25883,-58.7843
 L -1.34058,-58.8751 L -1.41577,-58.9714 L -1.48407,-59.0726 L -1.54515,-59.1784 L -1.59869,-59.2882 L -1.64445,-59.4015
 L -1.68221,-59.5176 L -1.71175,-59.6362 L -1.73296,-59.7564 L -1.74573,-59.8779 L -1.75,-60 L -1.74573,-60.1221
 L -1.73296,-60.2435 L -1.71175,-60.3638 L -1.68221,-60.4824 L -1.64445,-60.5985 L -1.59869,-60.7118 L -1.54515,-60.8216
 L -1.48407,-60.9274 L -1.41577,-61.0286 L -1.34058,-61.1249 L -1.25883,-61.2156 L -1.17097,-61.3005 L -1.07739,-61.379
 L -0.978577,-61.4508 L -0.874985,-61.5155 L -0.767136,-61.5729 L -0.655548,-61.6226 L -0.540771,-61.6643 L -0.423355,-61.698
 L -0.303879,-61.7234 L -0.182922,-61.7404 L -0.0610657,-61.7489 L 0.0610657,-61.7489 L 0.182922,-61.7404 L 0.303879,-61.7234
 L 0.423355,-61.698 L 0.540771,-61.6643 L 0.655548,-61.6226 L 0.767136,-61.5729 L 0.875,-61.5155 L 0.978577,-61.4508
 L 1.07739,-61.379 L 1.17097,-61.3005 L 1.25883,-61.2156 L 1.34058,-61.1249 L 1.41577,-61.0286 L 1.48407,-60.9274
 L 1.54515,-60.8216 L 1.59869,-60.7118 L 1.64445,-60.5985 L 1.68221,-60.4824 L 1.71175,-60.3638 L 1.73296,-60.2435
 L 1.74573,-60.1221 L 1.75,-60 L 1.74573,-59.8779 L 1.73296,-59.7564 L 1.71175,-59.6362 L 1.68221,-59.5176
 L 1.64445,-59.4015 L 1.59869,-59.2882 L 1.54515,-59.1784 L 1.48407,-59.0726 L 1.41577,-58.9714 L 1.34058,-58.8751
 L 1.25883,-58.7843 L 1.17097,-58.6995 L 1.07739,-58.621 L 0.978577,-58.5492 L 0.875,-58.4845 L 0.767136,-58.4271
 L 0.655548,-58.3774 L 0.540771,-58.3356 L 0.423355,-58.302 L 0.303879,-58.2766 L 0.182922,-58.2596 L 0.0610657,-58.2511
 z
M 29.9389,-50.2126 L 29.8171,-50.2211 L 29.6961,-50.2381 L 29.5766,-50.2635 L 29.4592,-50.2972 L 29.3444,-50.3389
 L 29.2328,-50.3886 L 29.125,-50.446 L 29.0214,-50.5107 L 28.9226,-50.5825 L 28.829,-50.661 L 28.7411,-50.7459
 L 28.6594,-50.8366 L 28.5842,-50.9329 L 28.5159,-51.0342 L 28.4548,-51.1399 L 28.4013,-51.2497 L 28.3555,-51.363
 L 28.3178,-51.4792 L 28.2882,-51.5977 L 28.267,-51.718 L 28.2543,-51.8394 L 28.25,-51.9615 L 28.2543,-52.0836
 L 28.267,-52.2051 L 28.2882,-52.3254 L 28.3178,-52.4439 L 28.3555,-52.5601 L 28.4013,-52.6733 L 28.4548,-52.7831
 L 28.5159,-52.8889 L 28.5842,-52.9901 L 28.6594,-53.0864 L 28.7411,-53.1772 L 28.829,-53.262 L 28.9226,-53.3405
 L 29.0214,-53.4123 L 29.125,-53.4771 L 29.2328,-53.5344 L 29.3444,-53.5841 L 29.4592,-53.6259 L 29.5766,-53.6595
 L 29.6961,-53.6849 L 29.8171,-53.7019 L 29.9389,-53.7104 L 30.0611,-53.7104 L 30.1829,-53.7019 L 30.3039,-53.6849
 L 30.4234,-53.6595 L 30.5408,-53.6259 L 30.6555,-53.5841 L 30.7671,-53.5344 L 30.875,-53.4771 L 30.9786,-53.4123
 L 31.0774,-53.3405 L 31.171,-53.262 L 31.2588,-53.1772 L 31.3406,-53.0864 L 31.4158,-52.9901 L 31.4841,-52.8889
 L 31.5452,-52.7831 L 31.5987,-52.6733 L 31.6445,-52.5601 L 31.6822,-52.4439 L 31.7117,-52.3254 L 31.733,-52.2051
 L 31.7457,-52.0836 L 31.75,-51.9615 L 31.7457,-51.8394 L 31.733,-51.718 L 31.7117,-51.5977 L 31.6822,-51.4792
 L 31.6445,-51.363 L 31.5987,-51.2497 L 31.5452,-51.1399 L 31.4841,-51.0342 L 31.4158,-50.9329 L 31.3406,-50.8366
 L 31.2588,-50.7459 L 31.171,-50.661 L 31.0774,-50.5825 L 30.9786,-50.5107 L 30.875,-50.446 L 30.7671,-50.3886
 L 30.6555,-50.3389 L 30.5408,-50.2972 L 30.4234,-50.2635 L 30.3039,-50.2381 L 30.1829,-50.2211 L 30.0611,-50.2126
 z
M -30.0611,-50.2126 L -30.1829,-50.2211 L -30.3039,-50.2381 L -30.4234,-50.2635 L -30.5408,-50.2972 L -30.6555,-50.3389
 L -30.7671,-50.3886 L -30.875,-50.446 L -30.9786,-50.5107 L -31.0774,-50.5825 L -31.171,-50.661 L -31.2588,-50.7459
 L -31.3406,-50.8366 L -31.4158,-50.9329 L -31.4841,-51.0342 L -31.5452,-51.1399 L -31.5987,-51.2497 L -31.6445,-51.363
 L -31.6822,-51.4792 L -31.7117,-51.5977 L -31.733,-51.718 L -31.7457,-51.8394 L -31.75,-51.9615 L -31.7457,-52.0836
 L -31.733,-52.2051 L -31.7117,-52.3254 L -31.6822,-52.4439 L -31.6445,-52.5601 L -31.5987,-52.6733 L -31.5452,-52.7831
 L -31.4841,-52.8889 L -31.4158,-52.9901 L -31.3406,-53.0864 L -31.2588,-53.1772 L -31.171,-53.262 L -31.0774,-53.3405
 L -30.9786,-53.4123 L -30.875,-53.4771 L -30.7671,-53.5344 L -30.6555,-53.5841 L -30.5408,-53.6259 L -30.4234,-53.6595
 L -30.3039,-53.6849 L -30.1829,-53.7019 L -30.0611,-53.7104 L -29.9389,-53.7104 L -29.8171,-53.7019 L -29.6961,-53.6849
 L -29.5766,-53.6595 L -29.4592,-53.6259 L -29.3444,-53.5841 L -29.2328,-53.5344 L -29.125,-53.4771 L -29.0214,-53.4123
 L -28.9226,-53.3405 L -28.829,-53.262 L -28.7411,-53.1772 L -28.6594,-53.0864 L -28.5842,-52.9901 L -28.5159,-52.8889
 L -28.4548,-52.7831 L -28.4013,-52.6733 L -28.3555,-52.5601 L -28.3178,-52.4439 L -28.2882,-52.3254 L -28.267,-52.2051
 L -28.2543,-52.0836 L -28.25,-51.9615 L -28.2543,-51.8394 L -28.267,-51.718 L -28.2882,-51.5977 L -28.3178,-51.4792
 L -28.3555,-51.363 L -28.4013,-51.2497 L -28.4548,-51.1399 L -28.5159,-51.0342 L -28.5842,-50.9329 L -28.6594,-50.8366
 L -28.7411,-50.7459 L -28.829,-50.661 L -28.9226,-50.5825 L -29.0214,-50.5107 L -29.125,-50.446 L -29.2328,-50.3886
 L -29.3444,-50.3389 L -29.4592,-50.2972 L -29.5766,-50.2635 L -29.6961,-50.2381 L -29.8171,-50.2211 L -29.9389,-50.2126
 z
M -0.785355,47.9931 L -1.75883,47.9667 L -2.54349,47.9324 L -3.32741,47.8845 L -4.11037,47.8228 L -5.07976,47.7298
 L -5.86011,47.6409 L -6.63878,47.5384 L -7.41554,47.4223 L -7.60168,47.3928 L -8.3763,47.2632 L -9.14853,47.1201
 L -9.91815,46.9635 L -10.8689,46.7524 L -11.6325,46.569 L -12.3929,46.3724 L -13.1497,46.1625 L -14.0838,45.8869
 L -14.8328,45.6507 L -15.5776,45.4015 L -16.4953,45.0755 L -17.2309,44.8004 L -17.9617,44.5126 L -18.6873,44.212
 L -19.5805,43.824 L -20.2951,43.4983 L -21.004,43.1602 L -21.7069,42.8098 L -21.8748,42.7242 L -22.5715,42.3615
 L -23.2617,41.9868 L -23.9453,41.6 L -24.7842,41.1055 L -25.4538,40.6951 L -26.1162,40.2731 L -26.7711,39.8397
 L -27.5743,39.2889 L -28.2137,38.8328 L -28.845,38.3656 L -29.617,37.772 L -30.1417,37.3547 L -30.2831,37.23
 L -30.4163,37.0968 L -30.541,36.9554 L -30.6565,36.8065 L -30.7624,36.6506 L -30.8583,36.4884 L -30.9439,36.3205
 L -31.0188,36.1475 L -31.0826,35.9702 L -31.1352,35.7892 L -31.1763,35.6053 L -31.2058,35.4191 L -31.2235,35.2315
 L -31.2294,35.0431 L -31.2235,34.8548 L -31.2058,34.6671 L -31.1763,34.481 L -31.1352,34.2971 L -31.0826,34.1161
 L -31.0188,33.9388 L -30.9439,33.7658 L -30.8583,33.5979 L -30.7624,33.4357 L -30.6565,33.2798 L -30.541,33.1309
 L -30.4163,32.9895 L -25.4624,28.0355 L -25.4651,28.0327 L -25.3551,27.9227 L -25.1474,27.6871 L -24.9549,27.4389
 L -24.7784,27.1791 L -24.6185,26.9088 L -24.4759,26.6289 L -24.3511,26.3406 L -24.2447,26.0451 L -24.1571,25.7434
 L -24.0886,25.4369 L -24.0394,25.1267 L -24.0099,24.8139 L -24,24.5 L -24.0099,24.186 L -24.0394,23.8733
 L -24.0886,23.5631 L -24.1571,23.2565 L -24.2447,22.9549 L -24.3511,22.6594 L -24.4759,22.3711 L -24.6185,22.0912
 L -24.7784,21.8209 L -24.9549,21.5611 L -25.1474,21.3129 L -25.3551,21.0773 L -25.5773,20.8551 L -25.8129,20.6474
 L -26.0611,20.4549 L -26.3209,20.2784 L -26.5912,20.1185 L -26.8711,19.9759 L -27.1594,19.8511 L -27.4549,19.7447
 L -27.7565,19.6571 L -28.0631,19.5886 L -28.3733,19.5394 L -28.686,19.5099 L -29,19.5 L -29.3139,19.5099
 L -29.6267,19.5394 L -29.9369,19.5886 L -30.2434,19.6571 L -30.5451,19.7447 L -30.8406,19.8511 L -31.1289,19.9759
 L -31.4088,20.1185 L -31.6791,20.2784 L -31.9389,20.4549 L -32.1871,20.6474 L -32.4227,20.8551 L -32.5327,20.9651
 L -32.5355,20.9624 L -36.6738,25.1006 L -36.8152,25.2253 L -36.9641,25.3408 L -37.12,25.4467 L -37.2822,25.5426
 L -37.4501,25.6282 L -37.6231,25.703 L -37.8004,25.7669 L -37.9814,25.8195 L -38.1653,25.8606 L -38.3514,25.8901
 L -38.5391,25.9078 L -38.7274,25.9137 L -38.9158,25.9078 L -39.1034,25.8901 L -39.2896,25.8606 L -39.4735,25.8195
 L -39.6545,25.7669 L -39.8318,25.703 L -40.0048,25.6282 L -40.1727,25.5426 L -40.3349,25.4467 L -40.4908,25.3408
 L -40.6397,25.2253 L -40.7811,25.1006 L -40.9143,24.9674 L -41.039,24.826 L -41.1545,24.6771 L -41.2604,24.5212
 L -41.6,23.9453 L -41.9868,23.2617 L -42.3615,22.5715 L -42.7242,21.8748 L -42.8098,21.7069 L -43.1602,21.004
 L -43.4983,20.2951 L -43.824,19.5805 L -44.212,18.6873 L -44.5126,17.9617 L -44.8004,17.2309 L -45.0755,16.4953
 L -45.4015,15.5776 L -45.6507,14.8328 L -45.8869,14.0838 L -46.1625,13.1497 L -46.3724,12.3929 L -46.5413,11.7399
 L -46.5824,11.5559 L -46.6119,11.3698 L -46.6296,11.1822 L -46.6355,10.9938 L -46.6296,10.8054 L -46.6119,10.6178
 L -46.5824,10.4317 L -46.5413,10.2477 L -46.4887,10.0667 L -46.4249,9.88942 L -46.35,9.71646 L -46.2645,9.54854
 L -46.1685,9.38632 L -46.0626,9.23044 L -45.9471,9.08153 L -45.8224,8.94016 L -45.6892,8.80688 L -45.5478,8.68225
 L -45.3989,8.56674 L -45.243,8.46082 L -45.0808,8.36488 L -44.9129,8.27931 L -44.7399,8.20447 L -44.5626,8.14062
 L -44.3816,8.08804 L -44.1977,8.04694 L -44.0115,8.01746 L -43.8239,7.99971 L -43.6127,7.99084 L -43.4211,7.97911
 L -43.2479,7.96548 L -43.0354,7.94167 L -42.8451,7.91661 L -42.652,7.88602 L -42.4632,7.85104 L -42.2751,7.81276
 L -42.0849,7.7675 L -41.8991,7.71944 L -41.7684,7.68318 L -41.5279,7.60844 L -41.3458,7.54753 L -41.1623,7.48006
 L -40.9837,7.4097 L -40.8239,7.34351 L -40.6285,7.2549 L -40.4552,7.17226 L -40.2811,7.08351 L -40.1124,6.9919
 L -39.9453,6.89737 L -39.7784,6.79555 L -39.6164,6.6924 L -39.504,6.61798 L -39.2977,6.47214 L -39.1434,6.35794
 L -38.9897,6.23706 L -38.8416,6.11494 L -38.7101,6.00267 L -38.5517,5.85797 L -38.4124,5.72583 L -38.2742,5.5876
 L -38.142,5.44833 L -38.0123,5.30679 L -37.8851,5.1584 L -37.7629,5.01025 L -37.6786,4.90421 L -37.5279,4.70229
 L -37.4164,4.54597 L -37.3076,4.38356 L -37.2045,4.22163 L -37.1137,4.07349 L -37.0081,3.88765 L -36.9165,3.71893
 L -36.8277,3.54475 L -36.7451,3.37146 L -36.6655,3.19676 L -36.5903,3.0163 L -36.5199,2.83768 L -36.4726,2.711
 L -36.3916,2.47214 L -36.3338,2.28903 L -36.2806,2.10094 L -36.2325,1.91507 L -36.1921,1.74663 L -36.149,1.53676
 L -36.114,1.34799 L -36.0834,1.15491 L -36.0583,0.964569 L -36.0366,0.773819 L -36.0209,0.578949 L -36.0092,0.387314
 L -36.0033,0.251846 L -36,-0 L -36.0017,-0.191971 L -36.0092,-0.387314 L -36.0209,-0.578949 L -36.0345,-0.752106
 L -36.0583,-0.964569 L -36.0834,-1.15491 L -36.114,-1.34799 L -36.149,-1.53676 L -36.1872,-1.72488 L -36.2325,-1.91507
 L -36.2806,-2.10094 L -36.3168,-2.23161 L -36.3916,-2.47214 L -36.4525,-2.65419 L -36.5199,-2.83768 L -36.5903,-3.0163
 L -36.6565,-3.17609 L -36.7451,-3.37146 L -36.8277,-3.54475 L -36.9165,-3.71893 L -37.0081,-3.88765 L -37.1026,-4.05473
 L -37.2045,-4.22163 L -37.3076,-4.38356 L -37.382,-4.49599 L -37.5279,-4.70229 L -37.6421,-4.85661 L -37.7629,-5.01025
 L -37.8851,-5.1584 L -37.9973,-5.28986 L -38.142,-5.44833 L -38.2742,-5.5876 L -38.4124,-5.72583 L -38.5517,-5.85797
 L -38.6932,-5.98769 L -38.8416,-6.11494 L -38.9897,-6.23706 L -39.0961,-6.32162 L -39.2977,-6.47214 L -39.454,-6.58362
 L -39.6164,-6.6924 L -39.7784,-6.79555 L -39.9265,-6.88634 L -40.1124,-6.9919 L -40.2811,-7.08351 L -40.4552,-7.17226
 L -40.6285,-7.2549 L -40.8032,-7.33452 L -40.9837,-7.4097 L -41.1623,-7.48006 L -41.289,-7.52742 L -41.5279,-7.60844
 L -41.711,-7.66618 L -41.8991,-7.71944 L -42.0849,-7.7675 L -42.2534,-7.80794 L -42.4632,-7.85104 L -42.652,-7.88602
 L -42.8451,-7.91661 L -43.0354,-7.94167 L -43.2262,-7.96339 L -43.4211,-7.97911 L -43.6127,-7.99084 L -43.8239,-7.99971
 L -44.0115,-8.01746 L -44.1977,-8.04694 L -44.3816,-8.08804 L -44.5626,-8.14062 L -44.7399,-8.20447 L -44.9129,-8.27931
 L -45.0808,-8.36488 L -45.243,-8.46082 L -45.3989,-8.56674 L -45.5478,-8.68225 L -45.6892,-8.80688 L -45.8224,-8.94016
 L -45.9471,-9.08153 L -46.0626,-9.23044 L -46.1685,-9.38632 L -46.2645,-9.54854 L -46.35,-9.71646 L -46.4249,-9.88942
 L -46.4887,-10.0667 L -46.5413,-10.2477 L -46.5824,-10.4317 L -46.6119,-10.6178 L -46.6296,-10.8054 L -46.6355,-10.9938
 L -46.6296,-11.1822 L -46.6119,-11.3698 L -46.5824,-11.5559 L -46.5413,-11.7399 L -46.3724,-12.3929 L -46.1625,-13.1497
 L -45.8869,-14.0838 L -45.6507,-14.8328 L -45.4015,-15.5776 L -45.0755,-16.4953 L -44.8004,-17.2309 L -44.5126,-17.9617
 L -44.212,-18.6873 L -43.824,-19.5805 L -43.4983,-20.2951 L -43.1602,-21.004 L -42.8098,-21.7069 L -42.7242,-21.8748
 L -42.3615,-22.5715 L -41.9868,-23.2617 L -41.6,-23.9452 L -41.2604,-24.5212 L -41.1545,-24.6771 L -41.039,-24.826
 L -40.9143,-24.9674 L -40.7811,-25.1006 L -40.6397,-25.2253 L -40.4908,-25.3408 L -40.3349,-25.4467 L -40.1727,-25.5426
 L -40.0048,-25.6282 L -39.8318,-25.703 L -39.6545,-25.7669 L -39.4735,-25.8195 L -39.2896,-25.8606 L -39.1034,-25.8901
 L -38.9158,-25.9078 L -38.7274,-25.9137 L -38.5391,-25.9078 L -38.3514,-25.8901 L -38.1653,-25.8606 L -37.9814,-25.8195
 L -37.8004,-25.7669 L -37.6231,-25.703 L -37.4501,-25.6282 L -37.2822,-25.5426 L -37.12,-25.4467 L -36.9641,-25.3408
 L -36.8152,-25.2253 L -36.6738,-25.1006 L -32.5355,-20.9624 L -32.5327,-20.9651 L -32.4227,-20.8551 L -32.1871,-20.6474
 L -31.9389,-20.4549 L -31.6791,-20.2784 L -31.4088,-20.1185 L -31.1289,-19.9759 L -30.8406,-19.8511 L -30.5451,-19.7447
 L -30.2434,-19.6571 L -29.9369,-19.5886 L -29.6267,-19.5394 L -29.3139,-19.5099 L -29,-19.5 L -28.686,-19.5099
 L -28.3733,-19.5394 L -28.0631,-19.5886 L -27.7565,-19.6571 L -27.4549,-19.7447 L -27.1594,-19.8511 L -26.8711,-19.9759
 L -26.5912,-20.1185 L -26.3209,-20.2784 L -26.0611,-20.4549 L -25.8129,-20.6474 L -25.5773,-20.8551 L -25.3551,-21.0773
 L -25.1474,-21.3129 L -24.9549,-21.5611 L -24.7784,-21.8209 L -24.6185,-22.0912 L -24.4759,-22.3711 L -24.3511,-22.6594
 L -24.2447,-22.9549 L -24.1571,-23.2565 L -24.0886,-23.5631 L -24.0394,-23.8733 L -24.0099,-24.186 L -24,-24.5
 L -24.0099,-24.8139 L -24.0394,-25.1267 L -24.0886,-25.4369 L -24.1571,-25.7434 L -24.2447,-26.0451 L -24.3511,-26.3406
 L -24.4759,-26.6289 L -24.6185,-26.9088 L -24.7784,-27.1791 L -24.9549,-27.4389 L -25.1474,-27.6871 L -25.3551,-27.9227
 L -25.4651,-28.0327 L -25.4624,-28.0355 L -30.4163,-32.9895 L -30.541,-33.1309 L -30.6565,-33.2798 L -30.7624,-33.4357
 L -30.8583,-33.5979 L -30.9439,-33.7658 L -31.0188,-33.9388 L -31.0826,-34.1161 L -31.1352,-34.2971 L -31.1763,-34.481
 L -31.2058,-34.6671 L -31.2235,-34.8548 L -31.2294,-35.0431 L -31.2235,-35.2315 L -31.2058,-35.4191 L -31.1763,-35.6053
 L -31.1352,-35.7892 L -31.0826,-35.9702 L -31.0188,-36.1475 L -30.9439,-36.3205 L -30.8583,-36.4884 L -30.7624,-36.6506
 L -30.6565,-36.8065 L -30.541,-36.9554 L -30.4163,-37.0968 L -30.2831,-37.23 L -30.1417,-37.3547 L -29.617,-37.772
 L -28.845,-38.3656 L -28.2137,-38.8328 L -27.5743,-39.2889 L -26.7711,-39.8397 L -26.1162,-40.2731 L -25.4538,-40.6951
 L -24.7842,-41.1055 L -23.9452,-41.6 L -23.2617,-41.9868 L -22.5715,-42.3615 L -21.8748,-42.7242 L -21.7069,-42.8098
 L -21.004,-43.1602 L -20.2951,-43.4983 L -19.5805,-43.824 L -18.6873,-44.212 L -17.9617,-44.5126 L -17.2309,-44.8004
 L -16.4953,-45.0755 L -15.5776,-45.4015 L -14.8328,-45.6507 L -14.0838,-45.8869 L -13.1497,-46.1625 L -12.3929,-46.3724
 L -11.6325,-46.569 L -10.8689,-46.7524 L -9.91815,-46.9635 L -9.14853,-47.1201 L -8.3763,-47.2632 L -7.60168,-47.3928
 L -7.41554,-47.4223 L -6.63878,-47.5384 L -5.86011,-47.6409 L -5.07976,-47.7298 L -4.11037,-47.8228 L -3.32741,-47.8845
 L -2.54349,-47.9324 L -1.75883,-47.9667 L -0.785355,-47.9931 L 0,-48 L 0.785355,-47.9931 L 1.75883,-47.9667
 L 2.54349,-47.9324 L 3.32741,-47.8845 L 4.11037,-47.8228 L 5.07976,-47.7298 L 5.86011,-47.6409 L 6.63878,-47.5384
 L 7.41554,-47.4223 L 7.60168,-47.3928 L 8.3763,-47.2632 L 9.14853,-47.1201 L 9.91815,-46.9635 L 10.8689,-46.7524
 L 11.6325,-46.569 L 12.3929,-46.3724 L 13.1497,-46.1625 L 14.0838,-45.8869 L 14.8328,-45.6507 L 15.5776,-45.4015
 L 16.4953,-45.0755 L 17.2309,-44.8004 L 17.9617,-44.5126 L 18.6873,-44.212 L 19.5805,-43.824 L 20.2951,-43.4983
 L 21.004,-43.1602 L 21.7069,-42.8098 L 21.8748,-42.7242 L 22.5715,-42.3615 L 23.2617,-41.9868 L 23.9453,-41.6
 L 24.7842,-41.1055 L 25.4538,-40.6951 L 26.1162,-40.2731 L 26.7711,-39.8397 L 27.5743,-39.2889 L 28.2137,-38.8328
 L 28.845,-38.3656 L 29.617,-37.772 L 30.1417,-37.3547 L 30.2831,-37.23 L 30.4163,-37.0968 L 30.541,-36.9554
 L 30.6565,-36.8065 L 30.7624,-36.6506 L 30.8583,-36.4884 L 30.9439,-36.3205 L 31.0188,-36.1475 L 31.0826,-35.9702
 L 31.1352,-35.7892 L 31.1763,-35.6053 L 31.2058,-35.4191 L 31.2235,-35.2315 L 31.2294,-35.0431 L 31.2235,-34.8548
 L 31.2058,-34.6671 L 31.1763,-34.481 L 31.1352,-34.2971 L 31.0826,-34.1161 L 31.0188,-33.9388 L 30.9439,-33.7658
 L 30.8583,-33.5979 L 30.7624,-33.4357 L 30.6565,-33.2798 L 30.541,-33.1309 L 30.4163,-32.9895 L 25.4624,-28.0355
 L 25.4651,-28.0327 L 25.3551,-27.9227 L 25.1474,-27.6871 L 24.9549,-27.4389 L 24.7784,-27.1791 L 24.6185,-26.9088
 L 24.4759,-26.6289 L 24.3511,-26.3406 L 24.2447,-26.0451 L 24.1571,-25.7434 L 24.0886,-25.4369 L 24.0394,-25.1267
 L 24.0099,-24.8139 L 24,-24.5 L 24.0099,-24.186 L 24.0394,-23.8733 L 24.0886,-23.5631 L 24.1571,-23.2565
 L 24.2447,-22.9549 L 24.3511,-22.6594 L 24.4759,-22.3711 L 24.6185,-22.0912 L 24.7784,-21.8209 L 24.9549,-21.5611
 L 25.1474,-21.3129 L 25.3551,-21.0773 L 25.5773,-20.8551 L 25.8129,-20.6474 L 26.0611,-20.4549 L 26.3209,-20.2784
 L 26.5912,-20.1185 L 26.8711,-19.9759 L 27.1594,-19.8511 L 27.4549,-19.7447 L 27.7565,-19.6571 L 28.0631,-19.5886
 L 28.3733,-19.5394 L 28.686,-19.5099 L 29,-19.5 L 29.3139,-19.5099 L 29.6267,-19.5394 L 29.9369,-19.5886
 L 30.2434,-19.6571 L 30.5451,-19.7447 L 30.8406,-19.8511 L 31.1289,-19.9759 L 31.4088,-20.1185 L 31.6791,-20.2784
 L 31.9389,-20.4549 L 32.1871,-20.6474 L 32.4227,-20.8551 L 32.5327,-20.9651 L 32.5355,-20.9624 L 36.6738,-25.1006
 L 36.8152,-25.2253 L 36.9641,-25.3408 L 37.12,-25.4467 L 37.2822,-25.5426 L 37.4501,-25.6282 L 37.6231,-25.703
 L 37.8004,-25.7669 L 37.9814,-25.8195 L 38.1653,-25.8606 L 38.3514,-25.8901 L 38.5391,-25.9078 L 38.7274,-25.9137
 L 38.9158,-25.9078 L 39.1034,-25.8901 L 39.2896,-25.8606 L 39.4735,-25.8195 L 39.6545,-25.7669 L 39.8318,-25.703
 L 40.0048,-25.6282 L 40.1727,-25.5426 L 40.3349,-25.4467 L 40.4908,-25.3408 L 40.6397,-25.2253 L 40.7811,-25.1006
 L 40.9143,-24.9674 L 41.039,-24.826 L 41.1545,-24.6771 L 41.2604,-24.5212 L 41.6,-23.9452 L 41.9868,-23.2617
 L 42.3615,-22.5715 L 42.7242,-21.8748 L 42.8098,-21.7069 L 43.1602,-21.004 L 43.4983,-20.2951 L 43.824,-19.5805
 L 44.212,-18.6873 L 44.5126,-17.9617 L 44.8004,-17.2309 L 45.0755,-16.4953 L 45.4015,-15.5776 L 45.6507,-14.8328
 L 45.8869,-14.0838 L 46.1625,-13.1497 L 46.3724,-12.3929 L 46.5413,-11.7399 L 46.5824,-11.5559 L 46.6119,-11.3698
 L 46.6296,-11.1822 L 46.6355,-10.9938 L 46.6296,-10.8054 L 46.6119,-10.6178 L 46.5824,-10.4317 L 46.5413,-10.2477
 L 46.4887,-10.0667 L 46.4249,-9.88942 L 46.35,-9.71646 L 46.2645,-9.54854 L 46.1685,-9.38632 L 46.0626,-9.23044
 L 45.9471,-9.08153 L 45.8224,-8.94016 L 45.6892,-8.80688 L 45.5478,-8.68225 L 45.3989,-8.56674 L 45.243,-8.46082
 L 45.0808,-8.36488 L 44.9129,-8.27931 L 44.7399,-8.20447 L 44.5626,-8.14062 L 44.3816,-8.08804 L 44.1977,-8.04694
 L 44.0115,-8.01746 L 43.8239,-7.99971 L 43.6127,-7.99084 L 43.4211,-7.97911 L 43.2479,-7.96548 L 43.0354,-7.94167
 L 42.8451,-7.91661 L 42.652,-7.88602 L 42.4632,-7.85104 L 42.2751,-7.81276 L 42.0849,-7.7675 L 41.8991,-7.71944
 L 41.7684,-7.68318 L 41.5279,-7.60844 L 41.3458,-7.54753 L 41.1623,-7.48006 L 40.9837,-7.4097 L 40.8239,-7.34351
 L 40.6285,-7.2549 L 40.4552,-7.17226 L 40.2811,-7.08351 L 40.1124,-6.9919 L 39.9453,-6.89737 L 39.7784,-6.79555
 L 39.6164,-6.6924 L 39.504,-6.61798 L 39.2977,-6.47214 L 39.1434,-6.35794 L 38.9897,-6.23706 L 38.8416,-6.11494
 L 38.7101,-6.00267 L 38.5517,-5.85797 L 38.4124,-5.72583 L 38.2742,-5.5876 L 38.142,-5.44833 L 38.0123,-5.30679
 L 37.8851,-5.1584 L 37.7629,-5.01025 L 37.6784,-4.90395 L 37.5279,-4.70229 L 37.4164,-4.54597 L 37.3076,-4.38356
 L 37.2045,-4.22163 L 37.1139,-4.07382 L 37.0081,-3.88765 L 36.9165,-3.71893 L 36.8277,-3.54475 L 36.7451,-3.37146
 L 36.6655,-3.19676 L 36.5903,-3.0163 L 36.5199,-2.83768 L 36.4725,-2.71074 L 36.3916,-2.47214 L 36.3338,-2.28903
 L 36.2806,-2.10094 L 36.2325,-1.91507 L 36.1921,-1.74663 L 36.149,-1.53676 L 36.114,-1.34799 L 36.0834,-1.15491
 L 36.0583,-0.964569 L 36.0366,-0.773819 L 36.0209,-0.578949 L 36.0092,-0.387314 L 36.0033,-0.251846 L 36,-0
 L 36.0017,0.191971 L 36.0092,0.387314 L 36.0209,0.578949 L 36.0345,0.752106 L 36.0583,0.964569 L 36.0834,1.15491
 L 36.114,1.34799 L 36.149,1.53676 L 36.1872,1.72488 L 36.2325,1.91507 L 36.2806,2.10094 L 36.3168,2.23161
 L 36.3916,2.47214 L 36.4525,2.65419 L 36.5199,2.83768 L 36.5903,3.0163 L 36.6565,3.17609 L 36.7451,3.37146
 L 36.8277,3.54475 L 36.9165,3.71893 L 37.0081,3.88765 L 37.1026,4.05475 L 37.2045,4.22163 L 37.3076,4.38356
 L 37.382,4.49599 L 37.5279,4.70229 L 37.6421,4.85661 L 37.7629,5.01025 L 37.8851,5.1584 L 37.9973,5.28986
 L 38.142,5.44833 L 38.2742,5.5876 L 38.4124,5.72583 L 38.5517,5.85797 L 38.6932,5.98769 L 38.8416,6.11494
 L 38.9897,6.23706 L 39.0961,6.32162 L 39.2977,6.47214 L 39.454,6.58362 L 39.6164,6.6924 L 39.7784,6.79555
 L 39.9265,6.88634 L 40.1124,6.9919 L 40.2811,7.08351 L 40.4552,7.17226 L 40.6285,7.2549 L 40.8032,7.33452
 L 40.9837,7.4097 L 41.1623,7.48006 L 41.289,7.52742 L 41.5279,7.60844 L 41.711,7.66618 L 41.8991,7.71944
 L 42.0849,7.7675 L 42.2534,7.80794 L 42.4632,7.85104 L 42.652,7.88602 L 42.8451,7.91661 L 43.0354,7.94167
 L 43.2262,7.96339 L 43.4211,7.97911 L 43.6127,7.99084 L 43.8239,7.99971 L 44.0115,8.01746 L 44.1977,8.04694
 L 44.3816,8.08804 L 44.5626,8.14062 L 44.7399,8.20447 L 44.9129,8.27931 L 45.0808,8.36488 L 45.243,8.46082
 L 45.3989,8.56674 L 45.5478,8.68225 L 45.6892,8.80688 L 45.8224,8.94016 L 45.9471,9.08153 L 46.0626,9.23044
 L 46.1685,9.38632 L 46.2645,9.54854 L 46.35,9.71646 L 46.4249,9.88942 L 46.4887,10.0667 L 46.5413,10.2477
 L 46.5824,10.4317 L 46.6119,10.6178 L 46.6296,10.8054 L 46.6355,10.9938 L 46.6296,11.1822 L 46.6119,11.3698
 L 46.5824,11.5559 L 46.5413,11.7399 L 46.3724,12.3929 L 46.1625,13.1497 L 45.8869,14.0838 L 45.6507,14.8328
 L 45.4015,15.5776 L 45.0755,16.4953 L 44.8004,17.2309 L 44.5126,17.9617 L 44.212,18.6873 L 43.824,19.5805
 L 43.4983,20.2951 L 43.1602,21.004 L 42.8098,21.7069 L 42.7242,21.8748 L 42.3615,22.5715 L 41.9868,23.2617
 L 41.6,23.9453 L 41.2604,24.5212 L 41.1545,24.6771 L 41.039,24.826 L 40.9143,24.9674 L 40.7811,25.1006
 L 40.6397,25.2253 L 40.4908,25.3408 L 40.3349,25.4467 L 40.1727,25.5426 L 40.0048,25.6282 L 39.8318,25.703
 L 39.6545,25.7669 L 39.4735,25.8195 L 39.2896,25.8606 L 39.1034,25.8901 L 38.9158,25.9078 L 38.7274,25.9137
 L 38.5391,25.9078 L 38.3514,25.8901 L 38.1653,25.8606 L 37.9814,25.8195 L 37.8004,25.7669 L 37.6231,25.703
 L 37.4501,25.6282 L 37.2822,25.5426 L 37.12,25.4467 L 36.9641,25.3408 L 36.8152,25.2253 L 36.6738,25.1006
 L 32.5355,20.9624 L 32.5327,20.9651 L 32.4227,20.8551 L 32.1871,20.6474 L 31.9389,20.4549 L 31.6791,20.2784
 L 31.4088,20.1185 L 31.1289,19.9759 L 30.8406,19.8511 L 30.5451,19.7447 L 30.2434,19.6571 L 29.9369,19.5886
 L 29.6267,19.5394 L 29.3139,19.5099 L 29,19.5 L 28.686,19.5099 L 28.3733,19.5394 L 28.0631,19.5886
 L 27.7565,19.6571 L 27.4549,19.7447 L 27.1594,19.8511 L 26.8711,19.9759 L 26.5912,20.1185 L 26.3209,20.2784
 L 26.0611,20.4549 L 25.8129,20.6474 L 25.5773,20.8551 L 25.3551,21.0773 L 25.1474,21.3129 L 24.9549,21.5611
 L 24.7784,21.8209 L 24.6185,22.0912 L 24.4759,22.3711 L 24.3511,22.6594 L 24.2447,22.9549 L 24.1571,23.2565
 L 24.0886,23.5631 L 24.0394,23.8733 L 24.0099,24.186 L 24,24.5 L 24.0099,24.8139 L 24.0394,25.1267
 L 24.0886,25.4369 L 24.1571,25.7434 L 24.2447,26.0451 L 24.3511,26.3406 L 24.4759,26.6289 L 24.6185,26.9088
 L 24.7784,27.1791 L 24.9549,27.4389 L 25.1474,27.6871 L 25.3551,27.9227 L 25.4651,28.0327 L 25.4624,28.0355
 L 30.4163,32.9895 L 30.541,33.1309 L 30.6565,33.2798 L 30.7624,33.4357 L 30.8583,33.5979 L 30.9439,33.7658
 L 31.0188,33.9388 L 31.0826,34.1161 L 31.1352,34.2971 L 31.1763,34.481 L 31.2058,34.6671 L 31.2235,34.8548
 L 31.2294,35.0431 L 31.2235,35.2315 L 31.2058,35.4191 L 31.1763,35.6053 L 31.1352,35.7892 L 31.0826,35.9702
 L 31.0188,36.1475 L 30.9439,36.3205 L 30.8583,36.4884 L 30.7624,36.6506 L 30.6565,36.8065 L 30.541,36.9554
 L 30.4163,37.0968 L 30.2831,37.23 L 30.1417,37.3547 L 29.617,37.772 L 28.845,38.3656 L 28.2137,38.8328
 L 27.5743,39.2889 L 26.7711,39.8397 L 26.1162,40.2731 L 25.4538,40.6951 L 24.7842,41.1055 L 23.9453,41.6
 L 23.2617,41.9868 L 22.5715,42.3615 L 21.8748,42.7242 L 21.7069,42.8098 L 21.004,43.1602 L 20.2951,43.4983
 L 19.5805,43.824 L 18.6873,44.212 L 17.9617,44.5126 L 17.2309,44.8004 L 16.4953,45.0755 L 15.5776,45.4015
 L 14.8328,45.6507 L 14.0838,45.8869 L 13.1497,46.1625 L 12.3929,46.3724 L 11.6325,46.569 L 10.8689,46.7524
 L 9.91815,46.9635 L 9.14853,47.1201 L 8.3763,47.2632 L 7.60168,47.3928 L 7.41554,47.4223 L 6.63878,47.5384
 L 5.86011,47.6409 L 5.07976,47.7298 L 4.11037,47.8228 L 3.32741,47.8845 L 2.54349,47.9324 L 1.75883,47.9667
 L 0.785355,47.9931 L 0,48 z
M 51.9004,-28.2511 L 51.7786,-28.2596 L 51.6576,-28.2766 L 51.5381,-28.302 L 51.4207,-28.3356 L 51.306,-28.3774
 L 51.1944,-28.4271 L 51.0865,-28.4845 L 50.9829,-28.5492 L 50.8841,-28.621 L 50.7905,-28.6995 L 50.7027,-28.7843
 L 50.6209,-28.8751 L 50.5457,-28.9714 L 50.4774,-29.0726 L 50.4164,-29.1784 L 50.3628,-29.2882 L 50.317,-29.4015
 L 50.2793,-29.5176 L 50.2498,-29.6362 L 50.2285,-29.7564 L 50.2158,-29.8779 L 50.2115,-30 L 50.2158,-30.1221
 L 50.2285,-30.2435 L 50.2498,-30.3638 L 50.2793,-30.4824 L 50.317,-30.5985 L 50.3628,-30.7118 L 50.4164,-30.8216
 L 50.4774,-30.9274 L 50.5457,-31.0286 L 50.6209,-31.1249 L 50.7027,-31.2156 L 50.7905,-31.3005 L 50.8841,-31.379
 L 50.9829,-31.4508 L 51.0865,-31.5155 L 51.1944,-31.5729 L 51.306,-31.6226 L 51.4207,-31.6643 L 51.5381,-31.698
 L 51.6576,-31.7234 L 51.7786,-31.7404 L 51.9004,-31.7489 L 52.0226,-31.7489 L 52.1444,-31.7404 L 52.2654,-31.7234
 L 52.3849,-31.698 L 52.5023,-31.6643 L 52.6171,-31.6226 L 52.7287,-31.5729 L 52.8365,-31.5155 L 52.9401,-31.4508
 L 53.0389,-31.379 L 53.1325,-31.3005 L 53.2204,-31.2156 L 53.3021,-31.1249 L 53.3773,-31.0286 L 53.4456,-30.9274
 L 53.5067,-30.8216 L 53.5602,-30.7118 L 53.606,-30.5985 L 53.6437,-30.4824 L 53.6733,-30.3638 L 53.6945,-30.2435
 L 53.7073,-30.1221 L 53.7115,-30 L 53.7073,-29.8779 L 53.6945,-29.7564 L 53.6733,-29.6362 L 53.6437,-29.5176
 L 53.606,-29.4015 L 53.5602,-29.2882 L 53.5067,-29.1784 L 53.4456,-29.0726 L 53.3773,-28.9714 L 53.3021,-28.8751
 L 53.2204,-28.7843 L 53.1325,-28.6995 L 53.0389,-28.621 L 52.9401,-28.5492 L 52.8365,-28.4845 L 52.7287,-28.4271
 L 52.6171,-28.3774 L 52.5023,-28.3356 L 52.3849,-28.302 L 52.2654,-28.2766 L 52.1444,-28.2596 L 52.0226,-28.2511
 z
M -52.0226,-28.2511 L -52.1444,-28.2596 L -52.2654,-28.2766 L -52.3849,-28.302 L -52.5023,-28.3356 L -52.6171,-28.3774
 L -52.7287,-28.4271 L -52.8365,-28.4845 L -52.9401,-28.5492 L -53.0389,-28.621 L -53.1325,-28.6995 L -53.2204,-28.7843
 L -53.3021,-28.8751 L -53.3773,-28.9714 L -53.4456,-29.0726 L -53.5067,-29.1784 L -53.5602,-29.2882 L -53.606,-29.4015
 L -53.6437,-29.5176 L -53.6733,-29.6362 L -53.6945,-29.7564 L -53.7073,-29.8779 L -53.7115,-30 L -53.7073,-30.1221
 L -53.6945,-30.2435 L -53.6733,-30.3638 L -53.6437,-30.4824 L -53.606,-30.5985 L -53.5602,-30.7118 L -53.5067,-30.8216
 L -53.4456,-30.9274 L -53.3773,-31.0286 L -53.3021,-31.1249 L -53.2204,-31.2156 L -53.1325,-31.3005 L -53.0389,-31.379
 L -52.9401,-31.4508 L -52.8365,-31.5155 L -52.7287,-31.5729 L -52.6171,-31.6226 L -52.5023,-31.6643 L -52.3849,-31.698
 L -52.2654,-31.7234 L -52.1444,-31.7404 L -52.0226,-31.7489 L -51.9004,-31.7489 L -51.7786,-31.7404 L -51.6576,-31.7234
 L -51.5381,-31.698 L -51.4207,-31.6643 L -51.306,-31.6226 L -51.1944,-31.5729 L -51.0865,-31.5155 L -50.9829,-31.4508
 L -50.8841,-31.379 L -50.7905,-31.3005 L -50.7027,-31.2156 L -50.6209,-31.1249 L -50.5457,-31.0286 L -50.4774,-30.9274
 L -50.4164,-30.8216 L -50.3628,-30.7118 L -50.317,-30.5985 L -50.2793,-30.4824 L -50.2498,-30.3638 L -50.2285,-30.2435
 L -50.2158,-30.1221 L -50.2115,-30 L -50.2158,-29.8779 L -50.2285,-29.7564 L -50.2498,-29.6362 L -50.2793,-29.5176
 L -50.317,-29.4015 L -50.3628,-29.2882 L -50.4164,-29.1784 L -50.4774,-29.0726 L -50.5457,-28.9714 L -50.6209,-28.8751
 L -50.7027,-28.7843 L -50.7905,-28.6995 L -50.8841,-28.621 L -50.9829,-28.5492 L -51.0865,-28.4845 L -51.1944,-28.4271
 L -51.306,-28.3774 L -51.4207,-28.3356 L -51.5381,-28.302 L -51.6576,-28.2766 L -51.7786,-28.2596 L -51.9004,-28.2511
 z
M 28.9389,-22.7511 L 28.8171,-22.7596 L 28.6961,-22.7766 L 28.5766,-22.802 L 28.4592,-22.8356 L 28.3444,-22.8774
 L 28.2328,-22.9271 L 28.125,-22.9845 L 28.0214,-23.0492 L 27.9226,-23.121 L 27.829,-23.1995 L 27.7411,-23.2843
 L 27.6594,-23.3751 L 27.5842,-23.4714 L 27.5159,-23.5726 L 27.4548,-23.6784 L 27.4013,-23.7882 L 27.3555,-23.9015
 L 27.3178,-24.0176 L 27.2882,-24.1362 L 27.267,-24.2564 L 27.2543,-24.3779 L 27.25,-24.5 L 27.2543,-24.6221
 L 27.267,-24.7435 L 27.2882,-24.8638 L 27.3178,-24.9824 L 27.3555,-25.0985 L 27.4013,-25.2118 L 27.4548,-25.3216
 L 27.5159,-25.4274 L 27.5842,-25.5286 L 27.6594,-25.6249 L 27.7411,-25.7156 L 27.829,-25.8005 L 27.9226,-25.879
 L 28.0214,-25.9508 L 28.125,-26.0155 L 28.2328,-26.0729 L 28.3444,-26.1226 L 28.4592,-26.1643 L 28.5766,-26.198
 L 28.6961,-26.2234 L 28.8171,-26.2404 L 28.9389,-26.2489 L 29.0611,-26.2489 L 29.1829,-26.2404 L 29.3039,-26.2234
 L 29.4234,-26.198 L 29.5408,-26.1643 L 29.6555,-26.1226 L 29.7671,-26.0729 L 29.875,-26.0155 L 29.9786,-25.9508
 L 30.0774,-25.879 L 30.171,-25.8005 L 30.2588,-25.7156 L 30.3406,-25.6249 L 30.4158,-25.5286 L 30.4841,-25.4274
 L 30.5452,-25.3216 L 30.5987,-25.2118 L 30.6445,-25.0985 L 30.6822,-24.9824 L 30.7117,-24.8638 L 30.733,-24.7435
 L 30.7457,-24.6221 L 30.75,-24.5 L 30.7457,-24.3779 L 30.733,-24.2564 L 30.7117,-24.1362 L 30.6822,-24.0176
 L 30.6445,-23.9015 L 30.5987,-23.7882 L 30.5452,-23.6784 L 30.4841,-23.5726 L 30.4158,-23.4714 L 30.3406,-23.3751
 L 30.2588,-23.2843 L 30.171,-23.1995 L 30.0774,-23.121 L 29.9786,-23.0492 L 29.875,-22.9845 L 29.7671,-22.9271
 L 29.6555,-22.8774 L 29.5408,-22.8356 L 29.4234,-22.802 L 29.3039,-22.7766 L 29.1829,-22.7596 L 29.0611,-22.7511
 z
M -29.0611,-22.7511 L -29.1829,-22.7596 L -29.3039,-22.7766 L -29.4234,-22.802 L -29.5408,-22.8356 L -29.6555,-22.8774
 L -29.7671,-22.9271 L -29.875,-22.9845 L -29.9786,-23.0492 L -30.0774,-23.121 L -30.171,-23.1995 L -30.2588,-23.2843
 L -30.3406,-23.3751 L -30.4158,-23.4714 L -30.4841,-23.5726 L -30.5452,-23.6784 L -30.5987,-23.7882 L -30.6445,-23.9015
 L -30.6822,-24.0176 L -30.7117,-24.1362 L -30.733,-24.2564 L -30.7457,-24.3779 L -30.75,-24.5 L -30.7457,-24.6221
 L -30.733,-24.7435 L -30.7117,-24.8638 L -30.6822,-24.9824 L -30.6445,-25.0985 L -30.5987,-25.2118 L -30.5452,-25.3216
 L -30.4841,-25.4274 L -30.4158,-25.5286 L -30.3406,-25.6249 L -30.2588,-25.7156 L -30.171,-25.8005 L -30.0774,-25.879
 L -29.9786,-25.9508 L -29.875,-26.0155 L -29.7671,-26.0729 L -29.6555,-26.1226 L -29.5408,-26.1643 L -29.4234,-26.198
 L -29.3039,-26.2234 L -29.1829,-26.2404 L -29.0611,-26.2489 L -28.9389,-26.2489 L -28.8171,-26.2404 L -28.6961,-26.2234
 L -28.5766,-26.198 L -28.4592,-26.1643 L -28.3444,-26.1226 L -28.2328,-26.0729 L -28.125,-26.0155 L -28.0214,-25.9508
 L -27.9226,-25.879 L -27.829,-25.8005 L -27.7411,-25.7156 L -27.6594,-25.6249 L -27.5842,-25.5286 L -27.5159,-25.4274
 L -27.4548,-25.3216 L -27.4013,-25.2118 L -27.3555,-25.0985 L -27.3178,-24.9824 L -27.2882,-24.8638 L -27.267,-24.7435
 L -27.2543,-24.6221 L -27.25,-24.5 L -27.2543,-24.3779 L -27.267,-24.2564 L -27.2882,-24.1362 L -27.3178,-24.0176
 L -27.3555,-23.9015 L -27.4013,-23.7882 L -27.4548,-23.6784 L -27.5159,-23.5726 L -27.5842,-23.4714 L -27.6594,-23.3751
 L -27.7411,-23.2843 L -27.829,-23.1995 L -27.9226,-23.121 L -28.0214,-23.0492 L -28.125,-22.9845 L -28.2328,-22.9271
 L -28.3444,-22.8774 L -28.4592,-22.8356 L -28.5766,-22.802 L -28.6961,-22.7766 L -28.8171,-22.7596 L -28.9389,-22.7511
 z
M -44,4 L -44.1396,3.99756 L -44.279,3.99025 L -44.4181,3.97807 L -44.5567,3.96106 L -44.6946,3.93922
 L -44.8316,3.91258 L -44.9677,3.88118 L -45.1025,3.84503 L -45.2361,3.80421 L -45.3681,3.75876 L -45.4984,3.70872
 L -45.6269,3.65417 L -45.7535,3.59517 L -45.8779,3.53178 L -46,3.4641 L -46.1197,3.39218 L -46.2368,3.31615
 L -46.3511,3.23605 L -46.4626,3.15204 L -46.5711,3.06416 L -46.6765,2.97256 L -46.7786,2.87735 L -46.8773,2.77863
 L -46.9726,2.67651 L -47.0642,2.57114 L -47.152,2.46263 L -47.2361,2.35114 L -47.3161,2.23677 L -47.3922,2.11967
 L -47.4641,2 L -47.5318,1.87788 L -47.5952,1.75348 L -47.6542,1.62694 L -47.7087,1.49841 L -47.7588,1.36807
 L -47.8042,1.23605 L -47.845,1.10254 L -47.8812,0.967682 L -47.9126,0.831635 L -47.9392,0.69458 L -47.9611,0.556686
 L -47.9781,0.418106 L -47.9902,0.279022 L -47.9976,0.139587 L -48,-0 L -47.9976,-0.139587 L -47.9902,-0.279022
 L -47.9781,-0.418106 L -47.9611,-0.556686 L -47.9392,-0.69458 L -47.9126,-0.831635 L -47.8812,-0.967682 L -47.845,-1.10254
 L -47.8042,-1.23605 L -47.7588,-1.36807 L -47.7087,-1.49841 L -47.6542,-1.62694 L -47.5952,-1.75348 L -47.5318,-1.87788
 L -47.4641,-1.99998 L -47.3922,-2.11967 L -47.3161,-2.23677 L -47.2361,-2.35114 L -47.152,-2.46263 L -47.0642,-2.57114
 L -46.9726,-2.67651 L -46.8773,-2.77863 L -46.7786,-2.87735 L -46.6765,-2.97256 L -46.5711,-3.06416 L -46.4626,-3.15204
 L -46.3511,-3.23605 L -46.2368,-3.31615 L -46.1197,-3.39218 L -46,-3.4641 L -45.8779,-3.53178 L -45.7535,-3.59517
 L -45.6269,-3.65417 L -45.4984,-3.70872 L -45.3681,-3.75876 L -45.2361,-3.80421 L -45.1025,-3.84503 L -44.9677,-3.88118
 L -44.8316,-3.91258 L -44.6946,-3.93922 L -44.5567,-3.96106 L -44.4181,-3.97807 L -44.279,-3.99025 L -44.1396,-3.99756
 L -44,-4 L -43.8604,-3.99756 L -43.721,-3.99025 L -43.5819,-3.97807 L -43.4433,-3.96106 L -43.3054,-3.93922
 L -43.1684,-3.91258 L -43.0323,-3.88118 L -42.8974,-3.84503 L -42.7639,-3.80421 L -42.6319,-3.75876 L -42.5016,-3.70872
 L -42.373,-3.65417 L -42.2465,-3.59517 L -42.1221,-3.53178 L -42,-3.4641 L -41.8803,-3.39218 L -41.7632,-3.31615
 L -41.6488,-3.23605 L -41.5374,-3.15204 L -41.4288,-3.06416 L -41.3235,-2.97256 L -41.2214,-2.87735 L -41.1226,-2.77863
 L -41.0274,-2.67651 L -40.9358,-2.57114 L -40.8479,-2.46263 L -40.7639,-2.35114 L -40.6838,-2.23677 L -40.6078,-2.11967
 L -40.5359,-1.99998 L -40.4682,-1.87788 L -40.4048,-1.75348 L -40.3458,-1.62694 L -40.2913,-1.49841 L -40.2412,-1.36807
 L -40.1958,-1.23605 L -40.155,-1.10254 L -40.1188,-0.967682 L -40.0874,-0.831635 L -40.0608,-0.69458 L -40.0389,-0.556686
 L -40.0219,-0.418106 L -40.0097,-0.279022 L -40.0024,-0.139587 L -40,-0 L -40.0024,0.139587 L -40.0097,0.279022
 L -40.0219,0.418106 L -40.0389,0.556686 L -40.0608,0.69458 L -40.0874,0.831635 L -40.1188,0.967682 L -40.155,1.10254
 L -40.1958,1.23605 L -40.2412,1.36807 L -40.2913,1.49841 L -40.3458,1.62694 L -40.4048,1.75348 L -40.4682,1.87788
 L -40.5359,2 L -40.6078,2.11967 L -40.6838,2.23677 L -40.7639,2.35114 L -40.8479,2.46263 L -40.9358,2.57114
 L -41.0274,2.67651 L -41.1226,2.77863 L -41.2214,2.87735 L -41.3235,2.97256 L -41.4288,3.06416 L -41.5374,3.15204
 L -41.6488,3.23605 L -41.7632,3.31615 L -41.8803,3.39218 L -42,3.4641 L -42.1221,3.53178 L -42.2465,3.59517
 L -42.373,3.65417 L -42.5016,3.70872 L -42.6319,3.75876 L -42.7639,3.80421 L -42.8974,3.84503 L -43.0323,3.88118
 L -43.1684,3.91258 L -43.3054,3.93922 L -43.4433,3.96106 L -43.5819,3.97807 L -43.721,3.99025 L -43.8604,3.99756
 z
M 59.9389,1.74893 L 59.8171,1.7404 L 59.6961,1.7234 L 59.5766,1.69801 L 59.4592,1.66434 L 59.3444,1.62256
 L 59.2328,1.57288 L 59.125,1.51553 L 59.0214,1.45081 L 58.9226,1.37901 L 58.829,1.30049 L 58.7411,1.21564
 L 58.6594,1.12488 L 58.5842,1.02861 L 58.5159,0.927353 L 58.4548,0.821564 L 58.4013,0.711777 L 58.3555,0.598526
 L 58.3178,0.482361 L 58.2882,0.363831 L 58.267,0.243546 L 58.2543,0.12207 L 58.25,-0 L 58.2543,-0.12207
 L 58.267,-0.243546 L 58.2882,-0.363831 L 58.3178,-0.482361 L 58.3555,-0.598526 L 58.4013,-0.711777 L 58.4548,-0.821564
 L 58.5159,-0.927353 L 58.5842,-1.02861 L 58.6594,-1.12488 L 58.7411,-1.21564 L 58.829,-1.30049 L 58.9226,-1.37901
 L 59.0214,-1.45081 L 59.125,-1.51553 L 59.2328,-1.57288 L 59.3444,-1.62256 L 59.4592,-1.66434 L 59.5766,-1.69801
 L 59.6961,-1.7234 L 59.8171,-1.7404 L 59.9389,-1.74893 L 60.0611,-1.74893 L 60.1829,-1.7404 L 60.3039,-1.7234
 L 60.4234,-1.69801 L 60.5408,-1.66434 L 60.6555,-1.62256 L 60.7671,-1.57288 L 60.875,-1.51553 L 60.9786,-1.45081
 L 61.0774,-1.37901 L 61.171,-1.30049 L 61.2588,-1.21564 L 61.3406,-1.12488 L 61.4158,-1.02861 L 61.4841,-0.927353
 L 61.5452,-0.821564 L 61.5987,-0.711777 L 61.6445,-0.598526 L 61.6822,-0.482361 L 61.7117,-0.363831 L 61.733,-0.243546
 L 61.7457,-0.12207 L 61.75,-0 L 61.7457,0.12207 L 61.733,0.243546 L 61.7117,0.363831 L 61.6822,0.482361
 L 61.6445,0.598526 L 61.5987,0.711777 L 61.5452,0.821564 L 61.4841,0.927353 L 61.4158,1.02861 L 61.3406,1.12488
 L 61.2588,1.21564 L 61.171,1.30049 L 61.0774,1.37901 L 60.9786,1.45081 L 60.875,1.51553 L 60.7671,1.57288
 L 60.6555,1.62256 L 60.5408,1.66434 L 60.4234,1.69801 L 60.3039,1.7234 L 60.1829,1.7404 L 60.0611,1.74893
 z
M -60.0611,1.74893 L -60.1829,1.7404 L -60.3039,1.7234 L -60.4234,1.69801 L -60.5408,1.66434 L -60.6555,1.62256
 L -60.7671,1.57288 L -60.875,1.51553 L -60.9786,1.45081 L -61.0774,1.37901 L -61.171,1.30049 L -61.2588,1.21564
 L -61.3406,1.12488 L -61.4158,1.02861 L -61.4841,0.927353 L -61.5452,0.821564 L -61.5987,0.711777 L -61.6445,0.598526
 L -61.6822,0.482361 L -61.7117,0.363831 L -61.733,0.243546 L -61.7457,0.12207 L -61.75,-0 L -61.7457,-0.12207
 L -61.733,-0.243546 L -61.7117,-0.363831 L -61.6822,-0.482361 L -61.6445,-0.598526 L -61.5987,-0.711777 L -61.5452,-0.821564
 L -61.4841,-0.927353 L -61.4158,-1.02861 L -61.3406,-1.12488 L -61.2588,-1.21564 L -61.171,-1.30049 L -61.0774,-1.37901
 L -60.9786,-1.45081 L -60.875,-1.51553 L -60.7671,-1.57288 L -60.6555,-1.62256 L -60.5408,-1.66434 L -60.4234,-1.69801
 L -60.3039,-1.7234 L -60.1829,-1.7404 L -60.0611,-1.74893 L -59.9389,-1.74893 L -59.8171,-1.7404 L -59.6961,-1.7234
 L -59.5766,-1.69801 L -59.4592,-1.66434 L -59.3444,-1.62256 L -59.2328,-1.57288 L -59.125,-1.51553 L -59.0214,-1.45081
 L -58.9226,-1.37901 L -58.829,-1.30049 L -58.7411,-1.21564 L -58.6594,-1.12488 L -58.5842,-1.02861 L -58.5159,-0.927353
 L -58.4548,-0.821564 L -58.4013,-0.711777 L -58.3555,-0.598526 L -58.3178,-0.482361 L -58.2882,-0.363831 L -58.267,-0.243546
 L -58.2543,-0.12207 L -58.25,-0 L -58.2543,0.12207 L -58.267,0.243546 L -58.2882,0.363831 L -58.3178,0.482361
 L -58.3555,0.598526 L -58.4013,0.711777 L -58.4548,0.821564 L -58.5159,0.927353 L -58.5842,1.02861 L -58.6594,1.12488
 L -58.7411,1.21564 L -58.829,1.30049 L -58.9226,1.37901 L -59.0214,1.45081 L -59.125,1.51553 L -59.2328,1.57288
 L -59.3444,1.62256 L -59.4592,1.66434 L -59.5766,1.69801 L -59.6961,1.7234 L -59.8171,1.7404 L -59.9389,1.74893
 z
M 28.9389,26.2489 L 28.8171,26.2404 L 28.6961,26.2234 L 28.5766,26.198 L 28.4592,26.1643 L 28.3444,26.1226
 L 28.2328,26.0729 L 28.125,26.0155 L 28.0214,25.9508 L 27.9226,25.879 L 27.829,25.8005 L 27.7411,25.7156
 L 27.6594,25.6249 L 27.5842,25.5286 L 27.5159,25.4274 L 27.4548,25.3216 L 27.4013,25.2118 L 27.3555,25.0985
 L 27.3178,24.9824 L 27.2882,24.8638 L 27.267,24.7435 L 27.2543,24.6221 L 27.25,24.5 L 27.2543,24.3779
 L 27.267,24.2564 L 27.2882,24.1362 L 27.3178,24.0176 L 27.3555,23.9015 L 27.4013,23.7882 L 27.4548,23.6784
 L 27.5159,23.5726 L 27.5842,23.4714 L 27.6594,23.3751 L 27.7411,23.2843 L 27.829,23.1995 L 27.9226,23.121
 L 28.0214,23.0492 L 28.125,22.9845 L 28.2328,22.9271 L 28.3444,22.8774 L 28.4592,22.8356 L 28.5766,22.802
 L 28.6961,22.7766 L 28.8171,22.7596 L 28.9389,22.7511 L 29.0611,22.7511 L 29.1829,22.7596 L 29.3039,22.7766
 L 29.4234,22.802 L 29.5408,22.8356 L 29.6555,22.8774 L 29.7671,22.9271 L 29.875,22.9845 L 29.9786,23.0492
 L 30.0774,23.121 L 30.171,23.1995 L 30.2588,23.2843 L 30.3406,23.3751 L 30.4158,23.4714 L 30.4841,23.5726
 L 30.5452,23.6784 L 30.5987,23.7882 L 30.6445,23.9015 L 30.6822,24.0176 L 30.7117,24.1362 L 30.733,24.2564
 L 30.7457,24.3779 L 30.75,24.5 L 30.7457,24.6221 L 30.733,24.7435 L 30.7117,24.8638 L 30.6822,24.9824
 L 30.6445,25.0985 L 30.5987,25.2118 L 30.5452,25.3216 L 30.4841,25.4274 L 30.4158,25.5286 L 30.3406,25.6249
 L 30.2588,25.7156 L 30.171,25.8005 L 30.0774,25.879 L 29.9786,25.9508 L 29.875,26.0155 L 29.7671,26.0729
 L 29.6555,26.1226 L 29.5408,26.1643 L 29.4234,26.198 L 29.3039,26.2234 L 29.1829,26.2404 L 29.0611,26.2489
 z
M -29.0611,26.2489 L -29.1829,26.2404 L -29.3039,26.2234 L -29.4234,26.198 L -29.5408,26.1643 L -29.6555,26.1226
 L -29.7671,26.0729 L -29.875,26.0155 L -29.9786,25.9508 L -30.0774,25.879 L -30.171,25.8005 L -30.2588,25.7156
 L -30.3406,25.6249 L -30.4158,25.5286 L -30.4841,25.4274 L -30.5452,25.3216 L -30.5987,25.2118 L -30.6445,25.0985
 L -30.6822,24.9824 L -30.7117,24.8638 L -30.733,24.7435 L -30.7457,24.6221 L -30.75,24.5 L -30.7457,24.3779
 L -30.733,24.2564 L -30.7117,24.1362 L -30.6822,24.0176 L -30.6445,23.9015 L -30.5987,23.7882 L -30.5452,23.6784
 L -30.4841,23.5726 L -30.4158,23.4714 L -30.3406,23.3751 L -30.2588,23.2843 L -30.171,23.1995 L -30.0774,23.121
 L -29.9786,23.0492 L -29.875,22.9845 L -29.7671,22.9271 L -29.6555,22.8774 L -29.5408,22.8356 L -29.4234,22.802
 L -29.3039,22.7766 L -29.1829,22.7596 L -29.0611,22.7511 L -28.9389,22.7511 L -28.8171,22.7596 L -28.6961,22.7766
 L -28.5766,22.802 L -28.4592,22.8356 L -28.3444,22.8774 L -28.2328,22.9271 L -28.125,22.9845 L -28.0214,23.0492
 L -27.9226,23.121 L -27.829,23.1995 L -27.7411,23.2843 L -27.6594,23.3751 L -27.5842,23.4714 L -27.5159,23.5726
 L -27.4548,23.6784 L -27.4013,23.7882 L -27.3555,23.9015 L -27.3178,24.0176 L -27.2882,24.1362 L -27.267,24.2564
 L -27.2543,24.3779 L -27.25,24.5 L -27.2543,24.6221 L -27.267,24.7435 L -27.2882,24.8638 L -27.3178,24.9824
 L -27.3555,25.0985 L -27.4013,25.2118 L -27.4548,25.3216 L -27.5159,25.4274 L -27.5842,25.5286 L -27.6594,25.6249
 L -27.7411,25.7156 L -27.829,25.8005 L -27.9226,25.879 L -28.0214,25.9508 L -28.125,26.0155 L -28.2328,26.0729
 L -28.3444,26.1226 L -28.4592,26.1643 L -28.5766,26.198 L -28.6961,26.2234 L -28.8171,26.2404 L -28.9389,26.2489
 z
M -52.0226,31.7489 L -52.1444,31.7404 L -52.2654,31.7234 L -52.3849,31.698 L -52.5023,31.6643 L -52.6171,31.6226
 L -52.7287,31.5729 L -52.8365,31.5155 L -52.9401,31.4508 L -53.0389,31.379 L -53.1325,31.3005 L -53.2204,31.2156
 L -53.3021,31.1249 L -53.3773,31.0286 L -53.4456,30.9274 L -53.5067,30.8216 L -53.5602,30.7118 L -53.606,30.5985
 L -53.6437,30.4824 L -53.6733,30.3638 L -53.6945,30.2435 L -53.7073,30.1221 L -53.7115,30 L -53.7073,29.8779
 L -53.6945,29.7564 L -53.6733,29.6362 L -53.6437,29.5176 L -53.606,29.4015 L -53.5602,29.2882 L -53.5067,29.1784
 L -53.4456,29.0726 L -53.3773,28.9714 L -53.3021,28.8751 L -53.2204,28.7843 L -53.1325,28.6995 L -53.0389,28.621
 L -52.9401,28.5492 L -52.8365,28.4845 L -52.7287,28.4271 L -52.6171,28.3774 L -52.5023,28.3356 L -52.3849,28.302
 L -52.2654,28.2766 L -52.1444,28.2596 L -52.0226,28.2511 L -51.9004,28.2511 L -51.7786,28.2596 L -51.6576,28.2766
 L -51.5381,28.302 L -51.4207,28.3356 L -51.306,28.3774 L -51.1944,28.4271 L -51.0865,28.4845 L -50.9829,28.5492
 L -50.8841,28.621 L -50.7905,28.6995 L -50.7027,28.7843 L -50.6209,28.8751 L -50.5457,28.9714 L -50.4774,29.0726
 L -50.4164,29.1784 L -50.3628,29.2882 L -50.317,29.4015 L -50.2793,29.5176 L -50.2498,29.6362 L -50.2285,29.7564
 L -50.2158,29.8779 L -50.2115,30 L -50.2158,30.1221 L -50.2285,30.2435 L -50.2498,30.3638 L -50.2793,30.4824
 L -50.317,30.5985 L -50.3628,30.7118 L -50.4164,30.8216 L -50.4774,30.9274 L -50.5457,31.0286 L -50.6209,31.1249
 L -50.7027,31.2156 L -50.7905,31.3005 L -50.8841,31.379 L -50.9829,31.4508 L -51.0865,31.5155 L -51.1944,31.5729
 L -51.306,31.6226 L -51.4207,31.6643 L -51.5381,31.698 L -51.6576,31.7234 L -51.7786,31.7404 L -51.9004,31.7489
 z
M 51.9004,31.7489 L 51.7786,31.7404 L 51.6576,31.7234 L 51.5381,31.698 L 51.4207,31.6643 L 51.306,31.6226
 L 51.1944,31.5729 L 51.0865,31.5155 L 50.9829,31.4508 L 50.8841,31.379 L 50.7905,31.3005 L 50.7027,31.2156
 L 50.6209,31.1249 L 50.5457,31.0286 L 50.4774,30.9274 L 50.4164,30.8216 L 50.3628,30.7118 L 50.317,30.5985
 L 50.2793,30.4824 L 50.2498,30.3638 L 50.2285,30.2435 L 50.2158,30.1221 L 50.2115,30 L 50.2158,29.8779
 L 50.2285,29.7564 L 50.2498,29.6362 L 50.2793,29.5176 L 50.317,29.4015 L 50.3628,29.2882 L 50.4164,29.1784
 L 50.4774,29.0726 L 50.5457,28.9714 L 50.6209,28.8751 L 50.7027,28.7843 L 50.7905,28.6995 L 50.8841,28.621
 L 50.9829,28.5492 L 51.0865,28.4845 L 51.1944,28.4271 L 51.306,28.3774 L 51.4207,28.3356 L 51.5381,28.302
 L 51.6576,28.2766 L 51.7786,28.2596 L 51.9004,28.2511 L 52.0226,28.2511 L 52.1444,28.2596 L 52.2654,28.2766
 L 52.3849,28.302 L 52.5023,28.3356 L 52.6171,28.3774 L 52.7287,28.4271 L 52.8365,28.4845 L 52.9401,28.5492
 L 53.0389,28.621 L 53.1325,28.6995 L 53.2204,28.7843 L 53.3021,28.8751 L 53.3773,28.9714 L 53.4456,29.0726
 L 53.5067,29.1784 L 53.5602,29.2882 L 53.606,29.4015 L 53.6437,29.5176 L 53.6733,29.6362 L 53.6945,29.7564
 L 53.7073,29.8779 L 53.7115,30 L 53.7073,30.1221 L 53.6945,30.2435 L 53.6733,30.3638 L 53.6437,30.4824
 L 53.606,30.5985 L 53.5602,30.7118 L 53.5067,30.8216 L 53.4456,30.9274 L 53.3773,31.0286 L 53.3021,31.1249
 L 53.2204,31.2156 L 53.1325,31.3005 L 53.0389,31.379 L 52.9401,31.4508 L 52.8365,31.5155 L 52.7287,31.5729
 L 52.6171,31.6226 L 52.5023,31.6643 L 52.3849,31.698 L 52.2654,31.7234 L 52.1444,31.7404 L 52.0226,31.7489
 z
M -30.0611,53.7104 L -30.1829,53.7019 L -30.3039,53.6849 L -30.4234,53.6595 L -30.5408,53.6259 L -30.6555,53.5841
 L -30.7671,53.5344 L -30.875,53.4771 L -30.9786,53.4123 L -31.0774,53.3405 L -31.171,53.262 L -31.2588,53.1772
 L -31.3406,53.0864 L -31.4158,52.9901 L -31.4841,52.8889 L -31.5452,52.7831 L -31.5987,52.6733 L -31.6445,52.5601
 L -31.6822,52.4439 L -31.7117,52.3254 L -31.733,52.2051 L -31.7457,52.0836 L -31.75,51.9615 L -31.7457,51.8394
 L -31.733,51.718 L -31.7117,51.5977 L -31.6822,51.4792 L -31.6445,51.363 L -31.5987,51.2497 L -31.5452,51.1399
 L -31.4841,51.0342 L -31.4158,50.9329 L -31.3406,50.8366 L -31.2588,50.7459 L -31.171,50.661 L -31.0774,50.5825
 L -30.9786,50.5107 L -30.875,50.446 L -30.7671,50.3886 L -30.6555,50.3389 L -30.5408,50.2972 L -30.4234,50.2635
 L -30.3039,50.2381 L -30.1829,50.2211 L -30.0611,50.2126 L -29.9389,50.2126 L -29.8171,50.2211 L -29.6961,50.2381
 L -29.5766,50.2635 L -29.4592,50.2972 L -29.3444,50.3389 L -29.2328,50.3886 L -29.125,50.446 L -29.0214,50.5107
 L -28.9226,50.5825 L -28.829,50.661 L -28.7411,50.7459 L -28.6594,50.8366 L -28.5842,50.9329 L -28.5159,51.0342
 L -28.4548,51.1399 L -28.4013,51.2497 L -28.3555,51.363 L -28.3178,51.4792 L -28.2882,51.5977 L -28.267,51.718
 L -28.2543,51.8394 L -28.25,51.9615 L -28.2543,52.0836 L -28.267,52.2051 L -28.2882,52.3254 L -28.3178,52.4439
 L -28.3555,52.5601 L -28.4013,52.6733 L -28.4548,52.7831 L -28.5159,52.8889 L -28.5842,52.9901 L -28.6594,53.0864
 L -28.7411,53.1772 L -28.829,53.262 L -28.9226,53.3405 L -29.0214,53.4123 L -29.125,53.4771 L -29.2328,53.5344
 L -29.3444,53.5841 L -29.4592,53.6259 L -29.5766,53.6595 L -29.6961,53.6849 L -29.8171,53.7019 L -29.9389,53.7104
 z
M 29.9389,53.7104 L 29.8171,53.7019 L 29.6961,53.6849 L 29.5766,53.6595 L 29.4592,53.6259 L 29.3444,53.5841
 L 29.2328,53.5344 L 29.125,53.4771 L 29.0214,53.4123 L 28.9226,53.3405 L 28.829,53.262 L 28.7411,53.1772
 L 28.6594,53.0864 L 28.5842,52.9901 L 28.5159,52.8889 L 28.4548,52.7831 L 28.4013,52.6733 L 28.3555,52.5601
 L 28.3178,52.4439 L 28.2882,52.3254 L 28.267,52.2051 L 28.2543,52.0836 L 28.25,51.9615 L 28.2543,51.8394
 L 28.267,51.718 L 28.2882,51.5977 L 28.3178,51.4792 L 28.3555,51.363 L 28.4013,51.2497 L 28.4548,51.1399
 L 28.5159,51.0342 L 28.5842,50.9329 L 28.6594,50.8366 L 28.7411,50.7459 L 28.829,50.661 L 28.9226,50.5825
 L 29.0214,50.5107 L 29.125,50.446 L 29.2328,50.3886 L 29.3444,50.3389 L 29.4592,50.2972 L 29.5766,50.2635
 L 29.6961,50.2381 L 29.8171,50.2211 L 29.9389,50.2126 L 30.0611,50.2126 L 30.1829,50.2211 L 30.3039,50.2381
 L 30.4234,50.2635 L 30.5408,50.2972 L 30.6555,50.3389 L 30.7671,50.3886 L 30.875,50.446 L 30.9786,50.5107
 L 31.0774,50.5825 L 31.171,50.661 L 31.2588,50.7459 L 31.3406,50.8366 L 31.4158,50.9329 L 31.4841,51.0342
 L 31.5452,51.1399 L 31.5987,51.2497 L 31.6445,51.363 L 31.6822,51.4792 L 31.7117,51.5977 L 31.733,51.718
 L 31.7457,51.8394 L 31.75,51.9615 L 31.7457,52.0836 L 31.733,52.2051 L 31.7117,52.3254 L 31.6822,52.4439
 L 31.6445,52.5601 L 31.5987,52.6733 L 31.5452,52.7831 L 31.4841,52.8889 L 31.4158,52.9901 L 31.3406,53.0864
 L 31.2588,53.1772 L 31.171,53.262 L 31.0774,53.3405 L 30.9786,53.4123 L 30.875,53.4771 L 30.7671,53.5344
 L 30.6555,53.5841 L 30.5408,53.6259 L 30.4234,53.6595 L 30.3039,53.6849 L 30.1829,53.7019 L 30.0611,53.7104
 z
M -0.0610657,61.7489 L -0.182922,61.7404 L -0.303879,61.7234 L -0.423355,61.698 L -0.540771,61.6643 L -0.655548,61.6226
 L -0.767136,61.5729 L -0.875,61.5155 L -0.978577,61.4508 L -1.07739,61.379 L -1.17097,61.3005 L -1.25883,61.2156
 L -1.34058,61.1249 L -1.41577,61.0286 L -1.48407,60.9274 L -1.54515,60.8216 L -1.59869,60.7118 L -1.64445,60.5985
 L -1.68221,60.4824 L -1.71175,60.3638 L -1.73296,60.2435 L -1.74573,60.1221 L -1.75,60 L -1.74573,59.8779
 L -1.73296,59.7564 L -1.71175,59.6362 L -1.68221,59.5176 L -1.64445,59.4015 L -1.59869,59.2882 L -1.54515,59.1784
 L -1.48407,59.0726 L -1.41577,58.9714 L -1.34058,58.8751 L -1.25883,58.7843 L -1.17097,58.6995 L -1.07739,58.621
 L -0.978577,58.5492 L -0.874985,58.4845 L -0.767136,58.4271 L -0.655548,58.3774 L -0.540771,58.3356 L -0.423355,58.302
 L -0.303879,58.2766 L -0.182922,58.2596 L -0.0610657,58.2511 L 0.0610657,58.2511 L 0.182922,58.2596 L 0.303879,58.2766
 L 0.423355,58.302 L 0.540771,58.3356 L 0.655548,58.3774 L 0.767136,58.4271 L 0.875,58.4845 L 0.978577,58.5492
 L 1.07739,58.621 L 1.17097,58.6995 L 1.25883,58.7843 L 1.34058,58.8751 L 1.41577,58.9714 L 1.48407,59.0726
 L 1.54515,59.1784 L 1.59869,59.2882 L 1.64445,59.4015 L 1.68221,59.5176 L 1.71175,59.6362 L 1.73296,59.7564
 L 1.74573,59.8779 L 1.75,60 L 1.74573,60.1221 L 1.73296,60.2435 L 1.71175,60.3638 L 1.68221,60.4824
 L 1.64445,60.5985 L 1.59869,60.7118 L 1.54515,60.8216 L 1.48407,60.9274 L 1.41577,61.0286 L 1.34058,61.1249
 L 1.25883,61.2156 L 1.17097,61.3005 L 1.07739,61.379 L 0.978577,61.4508 L 0.875,61.5155 L 0.767136,61.5729
 L 0.655548,61.6226 L 0.540771,61.6643 L 0.423355,61.698 L 0.303879,61.7234 L 0.182922,61.7404 L 0.0610657,61.7489
 z
" stroke="black" fill="lightgray" stroke-width="0.5"/></svg>
