<?xml version="1.0" standalone="no"?>
<!DOCTYPE svg PUBLIC "-//W3C//DTD SVG 1.1//EN" "http://www.w3.org/Graphics/SVG/1.1/DTD/svg11.dtd">
<svg width="116mm" height="116mm" viewBox="-58 -58 116 116" xmlns="http://www.w3.org/2000/svg" version="1.1">
<title>OpenSCAD Model</title>
<path d="
M 1.01224,57.9912 L 2.02417,57.9647 L 3.03548,57.9205 L 4.04587,57.8587 L 5.05502,57.7793 L 6.06264,57.6823
 L 7.06842,57.5677 L 8.07204,57.4355 L 9.0732,57.2859 L 10.0716,57.1188 L 11.0669,56.9344 L 12.0589,56.7326
 L 13.0471,56.5135 L 14.0315,56.2771 L 15.0115,56.0237 L 15.987,55.7532 L 16.9576,55.4657 L 17.923,55.1613
 L 18.8829,54.8401 L 19.8372,54.5022 L 20.7853,54.1477 L 21.7272,53.7767 L 22.6624,53.3893 L 23.5907,52.9856
 L 24.5119,52.5658 L 25.4255,52.1301 L 26.3314,51.6784 L 27.2293,51.211 L 28.119,50.7279 L 29,50.2295
 L 29.8722,49.7157 L 30.7353,49.1868 L 31.5891,48.6429 L 32.4332,48.0842 L 33.2674,47.5108 L 34.0915,46.923
 L 34.9053,46.3208 L 35.7084,45.7046 L 36.5006,45.0745 L 37.2817,44.4306 L 38.0514,43.7731 L 38.8096,43.1024
 L 39.5559,42.4185 L 40.2902,41.7217 L 41.0122,41.0122 L 41.7217,40.2902 L 42.4185,39.5559 L 43.1024,38.8096
 L 43.7731,38.0514 L 44.4306,37.2817 L 45.0745,36.5006 L 45.7046,35.7084 L 46.3208,34.9053 L 46.923,34.0915
 L 47.5108,33.2674 L 48.0842,32.4332 L 48.6429,31.5891 L 49.1868,30.7353 L 49.7157,29.8722 L 50.2295,29
 L 50.7279,28.119 L 51.211,27.2293 L 51.6784,26.3314 L 52.1301,25.4255 L 52.5658,24.5119 L 52.9856,23.5907
 L 53.3893,22.6624 L 53.7767,21.7272 L 54.1477,20.7853 L 54.5022,19.8372 L 54.8401,18.8829 L 55.1613,17.923
 L 55.4657,16.9576 L 55.7532,15.987 L 56.0237,15.0115 L 56.2771,14.0315 L 56.5135,13.0471 L 56.7326,12.0589
 L 56.9344,11.0669 L 57.1188,10.0716 L 57.2859,9.0732 L 57.4355,8.07204 L 57.5677,7.06842 L 57.6823,6.06264
 L 57.7793,5.05502 L 57.8615,3.9996 L 43.9302,3.99939 L 43.7907,3.99451 L 43.6514,3.98477 L 43.5125,3.97018
 L 43.3743,3.95074 L 43.2368,3.9265 L 43.1002,3.89748 L 42.9647,3.86369 L 42.8305,3.82521 L 42.6977,3.78207
 L 42.5665,3.73431 L 42.4371,3.68201 L 42.3095,3.62523 L 42.1841,3.56403 L 42.0608,3.49847 L 41.9398,3.42867
 L 41.8215,3.35468 L 41.7057,3.2766 L 41.5927,3.19453 L 41.4827,3.10858 L 41.3758,3.01883 L 41.272,2.9254
 L 41.1716,2.82841 L 41.0746,2.72798 L 40.9812,2.62422 L 40.8914,2.51727 L 40.8055,2.40726 L 40.7234,2.2943
 L 40.6453,2.17854 L 40.5713,2.06015 L 40.5015,1.93922 L 40.436,1.81595 L 40.3748,1.69046 L 40.318,1.56291
 L 40.2657,1.43347 L 40.2179,1.30226 L 40.1748,1.16948 L 40.1363,1.03526 L 40.1025,0.899796 L 40.0735,0.763229
 L 40.0493,0.625732 L 40.0298,0.487473 L 40.0152,0.348618 L 40.0055,0.209335 L 40.0006,0.069809 L 40.0006,-0.069809
 L 40.0055,-0.209335 L 40.0152,-0.348618 L 40.0298,-0.487473 L 40.0493,-0.625732 L 40.0735,-0.763229 L 40.1025,-0.899796
 L 40.1363,-1.03526 L 40.1748,-1.16948 L 40.2179,-1.30226 L 40.2657,-1.43347 L 40.318,-1.56291 L 40.3748,-1.69046
 L 40.436,-1.81595 L 40.5015,-1.93922 L 40.5713,-2.06015 L 40.6453,-2.17854 L 40.7234,-2.2943 L 40.8055,-2.40726
 L 40.8914,-2.51727 L 40.9812,-2.62422 L 41.0746,-2.72798 L 41.1716,-2.82841 L 41.272,-2.9254 L 41.3758,-3.01883
 L 41.4827,-3.10858 L 41.5927,-3.19453 L 41.7057,-3.2766 L 41.8215,-3.35468 L 41.9398,-3.42867 L 42.0608,-3.49847
 L 42.1841,-3.56403 L 42.3095,-3.62523 L 42.4371,-3.68201 L 42.5665,-3.73431 L 42.6977,-3.78207 L 42.8305,-3.82521
 L 42.9647,-3.86369 L 43.1002,-3.89748 L 43.2368,-3.9265 L 43.3743,-3.95074 L 43.5125,-3.97018 L 43.6514,-3.98477
 L 43.7907,-3.99451 L 43.9302,-3.99939 L 57.8615,-3.9996 L 57.7793,-5.05502 L 57.6823,-6.06264 L 57.5677,-7.06842
 L 57.4355,-8.07204 L 57.2859,-9.0732 L 57.1188,-10.0716 L 56.9344,-11.0669 L 56.7326,-12.0589 L 56.5135,-13.0471
 L 56.2771,-14.0315 L 56.0237,-15.0115 L 55.7532,-15.987 L 55.4657,-16.9576 L 55.1613,-17.923 L 54.8401,-18.8829
 L 54.5022,-19.8372 L 54.1477,-20.7853 L 53.7767,-21.7272 L 53.3893,-22.6624 L 52.9856,-23.5907 L 52.5658,-24.5119
 L 52.1301,-25.4255 L 51.6784,-26.3314 L 51.211,-27.2293 L 50.7279,-28.119 L 50.2295,-29 L 49.7157,-29.8722
 L 49.1868,-30.7353 L 48.6429,-31.5891 L 48.0842,-32.4332 L 47.5108,-33.2674 L 46.923,-34.0915 L 46.3208,-34.9053
 L 45.7046,-35.7084 L 45.0745,-36.5006 L 44.4306,-37.2817 L 43.7731,-38.0514 L 43.1024,-38.8096 L 42.4185,-39.5559
 L 41.7217,-40.2902 L 41.0122,-41.0122 L 40.2902,-41.7217 L 39.5559,-42.4185 L 38.8096,-43.1024 L 38.0514,-43.7731
 L 37.2817,-44.4306 L 36.5006,-45.0745 L 35.7084,-45.7046 L 34.9053,-46.3208 L 34.0915,-46.923 L 33.2674,-47.5108
 L 32.4332,-48.0842 L 31.5891,-48.6429 L 30.7353,-49.1868 L 29.8722,-49.7157 L 29,-50.2295 L 28.119,-50.7279
 L 27.2293,-51.211 L 26.3314,-51.6784 L 25.4255,-52.1301 L 24.5119,-52.5658 L 23.5907,-52.9856 L 22.6624,-53.3893
 L 21.7272,-53.7767 L 20.7853,-54.1477 L 19.8372,-54.5022 L 18.8829,-54.8401 L 17.923,-55.1613 L 16.9576,-55.4657
 L 15.987,-55.7532 L 15.0115,-56.0237 L 14.0315,-56.2771 L 13.0471,-56.5135 L 12.0589,-56.7326 L 11.0669,-56.9344
 L 10.0716,-57.1188 L 9.0732,-57.2859 L 8.07204,-57.4355 L 7.06842,-57.5677 L 6.06264,-57.6823 L 5.05502,-57.7793
 L 4.04587,-57.8587 L 3.03548,-57.9205 L 2.02417,-57.9647 L 1.01224,-57.9912 L 0,-58 L -1.01224,-57.9912
 L -2.02417,-57.9647 L -3.03548,-57.9205 L -4.04587,-57.8587 L -5.05502,-57.7793 L -6.06264,-57.6823 L -7.06842,-57.5677
 L -8.07204,-57.4355 L -9.0732,-57.2859 L -10.0716,-57.1188 L -11.0669,-56.9344 L -12.0589,-56.7326 L -13.0471,-56.5135
 L -14.0315,-56.2771 L -15.0115,-56.0237 L -15.987,-55.7532 L -16.9576,-55.4657 L -17.923,-55.1613 L -18.8829,-54.8401
 L -19.8372,-54.5022 L -20.7853,-54.1477 L -21.7272,-53.7767 L -22.6624,-53.3893 L -23.5907,-52.9856 L -24.5119,-52.5658
 L -25.4255,-52.1301 L -26.3314,-51.6784 L -27.2293,-51.211 L -28.119,-50.7279 L -29,-50.2295 L -29.8722,-49.7157
 L -30.7353,-49.1868 L -31.5891,-48.6429 L -32.4332,-48.0842 L -33.2674,-47.5108 L -34.0915,-46.923 L -34.9053,-46.3208
 L -35.7084,-45.7046 L -36.5006,-45.0745 L -37.2817,-44.4306 L -38.0514,-43.7731 L -38.8096,-43.1024 L -39.5559,-42.4185
 L -40.2902,-41.7217 L -41.0122,-41.0122 L -41.7217,-40.2902 L -42.4185,-39.5559 L -43.1024,-38.8096 L -43.7731,-38.0514
 L -44.4306,-37.2817 L -45.0745,-36.5006 L -45.7046,-35.7084 L -46.3208,-34.9053 L -46.923,-34.0915 L -47.5108,-33.2674
 L -48.0842,-32.4332 L -48.6429,-31.5891 L -49.1868,-30.7353 L -49.7157,-29.8722 L -50.2295,-29 L -50.7279,-28.119
 L -51.211,-27.2293 L -51.6784,-26.3314 L -52.1301,-25.4255 L -52.5658,-24.5119 L -52.9856,-23.5907 L -53.3893,-22.6624
 L -53.7767,-21.7272 L -54.1477,-20.7853 L -54.5022,-19.8372 L -54.8401,-18.8829 L -55.1613,-17.923 L -55.4657,-16.9576
 L -55.7532,-15.987 L -56.0237,-15.0115 L -56.2771,-14.0315 L -56.5135,-13.0471 L -56.7326,-12.0589 L -56.9344,-11.0669
 L -57.1188,-10.0716 L -57.2859,-9.0732 L -57.4355,-8.07204 L -57.5677,-7.06842 L -57.6823,-6.06264 L -57.7793,-5.05502
 L -57.8615,-3.9996 L -43.9302,-3.99939 L -43.7907,-3.99451 L -43.6514,-3.98477 L -43.5125,-3.97018 L -43.3743,-3.95074
 L -43.2368,-3.9265 L -43.1002,-3.89748 L -42.9647,-3.86369 L -42.8305,-3.82521 L -42.6977,-3.78207 L -42.5665,-3.73431
 L -42.4371,-3.68201 L -42.3095,-3.62523 L -42.1841,-3.56403 L -42.0608,-3.49847 L -41.9398,-3.42867 L -41.8215,-3.35468
 L -41.7057,-3.2766 L -41.5927,-3.19453 L -41.4827,-3.10858 L -41.3758,-3.01883 L -41.272,-2.9254 L -41.1716,-2.82841
 L -41.0746,-2.72798 L -40.9812,-2.62422 L -40.8914,-2.51727 L -40.8055,-2.40726 L -40.7234,-2.2943 L -40.6453,-2.17854
 L -40.5713,-2.06015 L -40.5015,-1.93922 L -40.436,-1.81595 L -40.3748,-1.69046 L -40.318,-1.56291 L -40.2657,-1.43347
 L -40.2179,-1.30226 L -40.1748,-1.16948 L -40.1363,-1.03526 L -40.1025,-0.899796 L -40.0735,-0.763229 L -40.0493,-0.625732
 L -40.0298,-0.487473 L -40.0152,-0.348618 L -40.0055,-0.209335 L -40.0006,-0.069809 L -40.0006,0.069809 L -40.0055,0.209335
 L -40.0152,0.348618 L -40.0298,0.487473 L -40.0493,0.625732 L -40.0735,0.763229 L -40.1025,0.899796 L -40.1363,1.03526
 L -40.1748,1.16948 L -40.2179,1.30226 L -40.2657,1.43347 L -40.318,1.56291 L -40.3748,1.69046 L -40.436,1.81595
 L -40.5015,1.93922 L -40.5713,2.06015 L -40.6453,2.17854 L -40.7234,2.2943 L -40.8055,2.40726 L -40.8914,2.51727
 L -40.9812,2.62422 L -41.0746,2.72798 L -41.1716,2.82841 L -41.272,2.9254 L -41.3758,3.01883 L -41.4827,3.10858
 L -41.5927,3.19453 L -41.7057,3.2766 L -41.8215,3.35468 L -41.9398,3.42867 L -42.0608,3.49847 L -42.1841,3.56403
 L -42.3095,3.62523 L -42.4371,3.68201 L -42.5665,3.73431 L -42.6977,3.78207 L -42.8305,3.82521 L -42.9647,3.86369
 L -43.1002,3.89748 L -43.2368,3.9265 L -43.3743,3.95074 L -43.5125,3.97018 L -43.6514,3.98477 L -43.7907,3.99451
 L -43.9302,3.99939 L -57.8615,3.9996 L -57.7793,5.05502 L -57.6823,6.06264 L -57.5677,7.06842 L -57.4355,8.07204
 L -57.2859,9.0732 L -57.1188,10.0716 L -56.9344,11.0669 L -56.7326,12.0589 L -56.5135,13.0471 L -56.2771,14.0315
 L -56.0237,15.0115 L -55.7532,15.987 L -55.4657,16.9576 L -55.1613,17.923 L -54.8401,18.8829 L -54.5022,19.8372
 L -54.1477,20.7853 L -53.7767,21.7272 L -53.3893,22.6624 L -52.9856,23.5907 L -52.5658,24.5119 L -52.1301,25.4255
 L -51.6784,26.3314 L -51.211,27.2293 L -50.7279,28.119 L -50.2295,29 L -49.7157,29.8722 L -49.1868,30.7353
 L -48.6429,31.5891 L -48.0842,32.4332 L -47.5108,33.2674 L -46.923,34.0915 L -46.3208,34.9053 L -45.7046,35.7084
 L -45.0745,36.5006 L -44.4306,37.2817 L -43.7731,38.0514 L -43.1024,38.8096 L -42.4185,39.5559 L -41.7217,40.2902
 L -41.0122,41.0122 L -40.2902,41.7217 L -39.5559,42.4185 L -38.8096,43.1024 L -38.0514,43.7731 L -37.2817,44.4306
 L -36.5006,45.0745 L -35.7084,45.7046 L -34.9053,46.3208 L -34.0915,46.923 L -33.2674,47.5108 L -32.4332,48.0842
 L -31.5891,48.6429 L -30.7353,49.1868 L -29.8722,49.7157 L -29,50.2295 L -28.119,50.7279 L -27.2293,51.211
 L -26.3314,51.6784 L -25.4255,52.1301 L -24.5119,52.5658 L -23.5907,52.9856 L -22.6624,53.3893 L -21.7272,53.7767
 L -20.7853,54.1477 L -19.8372,54.5022 L -18.8829,54.8401 L -17.923,55.1613 L -16.9576,55.4657 L -15.987,55.7532
 L -15.0115,56.0237 L -14.0315,56.2771 L -13.0471,56.5135 L -12.0589,56.7326 L -11.0669,56.9344 L -10.0716,57.1188
 L -9.0732,57.2859 L -8.07204,57.4355 L -7.06842,57.5677 L -6.06264,57.6823 L -5.05502,57.7793 L -4.04587,57.8587
 L -3.03548,57.9205 L -2.02417,57.9647 L -1.01224,57.9912 L 0,58 z
M -3.01393,47.9053 L -6.01598,47.6215 L -8.99428,47.1498 L -11.9371,46.492 L -14.8328,45.6507 L -17.67,44.6293
 L -20.4374,43.4317 L -23.1242,42.0627 L -25.7197,40.5277 L -28.2137,38.8328 L -30.1319,37.3449 L -30.2733,37.2202
 L -30.4065,37.087 L -30.5312,36.9456 L -30.6467,36.7967 L -30.7526,36.6408 L -30.8485,36.4786 L -30.9341,36.3107
 L -31.009,36.1377 L -31.0728,35.9604 L -31.1254,35.7794 L -31.1665,35.5955 L -31.196,35.4093 L -31.2137,35.2217
 L -31.2196,35.0333 L -31.2137,34.845 L -31.196,34.6573 L -31.1665,34.4712 L -31.1254,34.2873 L -31.0728,34.1063
 L -31.009,33.929 L -30.9341,33.756 L -30.8485,33.5881 L -30.7526,33.4259 L -30.6467,33.27 L -30.5312,33.1211
 L -30.4065,32.9797 L -25.4624,28.0355 L -25.4651,28.0327 L -25.3551,27.9227 L -25.1474,27.6871 L -24.9549,27.4389
 L -24.7784,27.1791 L -24.6185,26.9088 L -24.4759,26.6289 L -24.3511,26.3406 L -24.2447,26.0451 L -24.1571,25.7434
 L -24.0886,25.4369 L -24.0394,25.1267 L -24.0099,24.8139 L -24,24.5 L -24.0099,24.186 L -24.0394,23.8733
 L -24.0886,23.5631 L -24.1571,23.2565 L -24.2447,22.9549 L -24.3511,22.6594 L -24.4759,22.3711 L -24.6185,22.0912
 L -24.7784,21.8209 L -24.9549,21.5611 L -25.1474,21.3129 L -25.3551,21.0773 L -25.5773,20.8551 L -25.8129,20.6474
 L -26.0611,20.4549 L -26.3209,20.2784 L -26.5912,20.1185 L -26.8711,19.9759 L -27.1594,19.8511 L -27.4549,19.7447
 L -27.7565,19.6571 L -28.0631,19.5886 L -28.3733,19.5394 L -28.686,19.5099 L -29,19.5 L -29.3139,19.5099
 L -29.6267,19.5394 L -29.9369,19.5886 L -30.2434,19.6571 L -30.5451,19.7447 L -30.8406,19.8511 L -31.1289,19.9759
 L -31.4088,20.1185 L -31.6791,20.2784 L -31.9389,20.4549 L -32.1871,20.6474 L -32.4227,20.8551 L -32.5327,20.9651
 L -32.5355,20.9624 L -36.6588,25.0856 L -36.8001,25.2102 L -36.9491,25.3257 L -37.1049,25.4317 L -37.2672,25.5276
 L -37.4351,25.6132 L -37.608,25.688 L -37.7854,25.7519 L -37.9663,25.8044 L -38.1503,25.8456 L -38.3364,25.875
 L -38.524,25.8928 L -38.7124,25.8987 L -38.9008,25.8928 L -39.0884,25.875 L -39.2745,25.8456 L -39.4585,25.8044
 L -39.6395,25.7519 L -39.8168,25.688 L -39.9897,25.6132 L -40.1577,25.5276 L -40.3199,25.4317 L -40.4758,25.3257
 L -40.6247,25.2102 L -40.766,25.0856 L -40.8993,24.9523 L -41.0239,24.811 L -41.1395,24.662 L -41.2454,24.5062
 L -42.0627,23.1242 L -43.4317,20.4374 L -44.6293,17.67 L -45.6507,14.8328 L -46.492,11.9371 L -46.5784,11.5506
 L -46.6078,11.3644 L -46.6256,11.1768 L -46.6315,10.9884 L -46.6256,10.8 L -46.6078,10.6124 L -46.5784,10.4263
 L -46.5373,10.2424 L -46.4847,10.0614 L -46.4208,9.88405 L -46.346,9.71109 L -46.2604,9.54317 L -46.1645,9.38095
 L -46.0586,9.22507 L -45.9431,9.07616 L -45.8184,8.93478 L -45.6852,8.80151 L -45.5438,8.67688 L -45.3949,8.56137
 L -45.239,8.45544 L -45.0768,8.35951 L -44.9088,8.27394 L -44.7359,8.1991 L -44.5586,8.13525 L -44.3776,8.08267
 L -44.1936,8.04156 L -44.0075,8.01208 L -43.8199,7.99434 L -43.4977,7.98421 L -42.9972,7.9369 L -42.501,7.85831
 L -42.0105,7.74866 L -41.5279,7.60844 L -41.055,7.4382 L -40.5938,7.23862 L -40.1459,7.01041 L -39.7135,6.75468
 L -39.2977,6.47214 L -38.9006,6.16409 L -38.5236,5.83174 L -38.1683,5.47638 L -37.8359,5.0994 L -37.5279,4.70229
 L -37.2453,4.28651 L -36.9937,3.86099 L -36.7614,3.40623 L -36.5618,2.94499 L -36.3916,2.47214 L -36.2513,1.98952
 L -36.1417,1.49905 L -36.0631,1.00284 L -36.0158,0.502319 L -36.0002,0.0075531 L -36.0158,-0.502319 L -36.0631,-1.00278
 L -36.1417,-1.49905 L -36.2513,-1.98952 L -36.3916,-2.47214 L -36.5618,-2.94499 L -36.7614,-3.40623 L -36.9896,-3.85411
 L -37.2453,-4.28651 L -37.5279,-4.70229 L -37.8359,-5.0994 L -38.1683,-5.47638 L -38.5236,-5.83174 L -38.9006,-6.16409
 L -39.2893,-6.46564 L -39.7135,-6.75468 L -40.1459,-7.01039 L -40.5938,-7.23862 L -41.055,-7.4382 L -41.5279,-7.60844
 L -42.0105,-7.74866 L -42.501,-7.85831 L -42.9972,-7.9369 L -43.4977,-7.98421 L -43.8199,-7.99434 L -44.0075,-8.01208
 L -44.1936,-8.04156 L -44.3776,-8.08267 L -44.5586,-8.13525 L -44.7359,-8.1991 L -44.9088,-8.27394 L -45.0768,-8.35951
 L -45.239,-8.45544 L -45.3949,-8.56137 L -45.5438,-8.67688 L -45.6852,-8.80151 L -45.8184,-8.93478 L -45.9431,-9.07616
 L -46.0586,-9.22507 L -46.1645,-9.38095 L -46.2604,-9.54317 L -46.346,-9.71109 L -46.4208,-9.88405 L -46.4847,-10.0614
 L -46.5373,-10.2424 L -46.5784,-10.4263 L -46.6078,-10.6124 L -46.6256,-10.8 L -46.6315,-10.9884 L -46.6256,-11.1768
 L -46.6078,-11.3644 L -46.5784,-11.5506 L -46.492,-11.9371 L -45.6507,-14.8328 L -44.6293,-17.67 L -43.4317,-20.4374
 L -42.0627,-23.1242 L -41.2454,-24.5062 L -41.1395,-24.662 L -41.0239,-24.811 L -40.8993,-24.9523 L -40.766,-25.0856
 L -40.6247,-25.2102 L -40.4758,-25.3257 L -40.3199,-25.4317 L -40.1577,-25.5276 L -39.9897,-25.6132 L -39.8168,-25.688
 L -39.6395,-25.7519 L -39.4585,-25.8044 L -39.2745,-25.8456 L -39.0884,-25.875 L -38.9008,-25.8928 L -38.7124,-25.8987
 L -38.524,-25.8928 L -38.3364,-25.875 L -38.1503,-25.8456 L -37.9663,-25.8044 L -37.7854,-25.7519 L -37.608,-25.688
 L -37.4351,-25.6132 L -37.2672,-25.5276 L -37.1049,-25.4317 L -36.9491,-25.3257 L -36.8001,-25.2102 L -36.6588,-25.0856
 L -32.5355,-20.9624 L -32.5327,-20.9651 L -32.4227,-20.8551 L -32.1871,-20.6474 L -31.9389,-20.4549 L -31.6791,-20.2784
 L -31.4088,-20.1185 L -31.1289,-19.9759 L -30.8406,-19.8511 L -30.5451,-19.7447 L -30.2434,-19.6571 L -29.9369,-19.5886
 L -29.6267,-19.5394 L -29.3139,-19.5099 L -29,-19.5 L -28.686,-19.5099 L -28.3733,-19.5394 L -28.0631,-19.5886
 L -27.7565,-19.6571 L -27.4549,-19.7447 L -27.1594,-19.8511 L -26.8711,-19.9759 L -26.5912,-20.1185 L -26.3209,-20.2784
 L -26.0611,-20.4549 L -25.8129,-20.6474 L -25.5773,-20.8551 L -25.3551,-21.0773 L -25.1474,-21.3129 L -24.9549,-21.5611
 L -24.7784,-21.8209 L -24.6185,-22.0912 L -24.4759,-22.3711 L -24.3511,-22.6594 L -24.2447,-22.9549 L -24.1571,-23.2565
 L -24.0886,-23.5631 L -24.0394,-23.8733 L -24.0099,-24.186 L -24,-24.5 L -24.0099,-24.8139 L -24.0394,-25.1267
 L -24.0886,-25.4369 L -24.1571,-25.7434 L -24.2447,-26.0451 L -24.3511,-26.3406 L -24.4759,-26.6289 L -24.6185,-26.9088
 L -24.7784,-27.1791 L -24.9549,-27.4389 L -25.1474,-27.6871 L -25.3551,-27.9227 L -25.4651,-28.0327 L -25.4624,-28.0355
 L -30.4065,-32.9797 L -30.5312,-33.1211 L -30.6467,-33.27 L -30.7526,-33.4259 L -30.8485,-33.5881 L -30.9341,-33.756
 L -31.009,-33.929 L -31.0728,-34.1063 L -31.1254,-34.2873 L -31.1665,-34.4712 L -31.196,-34.6573 L -31.2137,-34.845
 L -31.2196,-35.0333 L -31.2137,-35.2217 L -31.196,-35.4093 L -31.1665,-35.5955 L -31.1254,-35.7794 L -31.0728,-35.9604
 L -31.009,-36.1377 L -30.9341,-36.3107 L -30.8485,-36.4786 L -30.7526,-36.6408 L -30.6467,-36.7967 L -30.5312,-36.9456
 L -30.4065,-37.087 L -30.2733,-37.2202 L -30.1319,-37.3449 L -28.2137,-38.8328 L -25.7197,-40.5277 L -23.1242,-42.0627
 L -20.4374,-43.4317 L -17.67,-44.6293 L -14.8328,-45.6507 L -11.9371,-46.492 L -8.99428,-47.1498 L -6.01598,-47.6215
 L -3.01393,-47.9053 L 0,-48 L 3.01393,-47.9053 L 6.01598,-47.6215 L 8.99428,-47.1498 L 11.9371,-46.492
 L 14.8328,-45.6507 L 17.67,-44.6293 L 20.4374,-43.4317 L 23.1242,-42.0627 L 25.7197,-40.5277 L 28.2137,-38.8328
 L 30.1319,-37.3449 L 30.2733,-37.2202 L 30.4065,-37.087 L 30.5312,-36.9456 L 30.6467,-36.7967 L 30.7526,-36.6408
 L 30.8485,-36.4786 L 30.9341,-36.3107 L 31.009,-36.1377 L 31.0728,-35.9604 L 31.1254,-35.7794 L 31.1665,-35.5955
 L 31.196,-35.4093 L 31.2137,-35.2217 L 31.2196,-35.0333 L 31.2137,-34.845 L 31.196,-34.6573 L 31.1665,-34.4712
 L 31.1254,-34.2873 L 31.0728,-34.1063 L 31.009,-33.929 L 30.9341,-33.756 L 30.8485,-33.5881 L 30.7526,-33.4259
 L 30.6467,-33.27 L 30.5312,-33.1211 L 30.4065,-32.9797 L 25.4624,-28.0355 L 25.4651,-28.0327 L 25.3551,-27.9227
 L 25.1474,-27.6871 L 24.9549,-27.4389 L 24.7784,-27.1791 L 24.6185,-26.9088 L 24.4759,-26.6289 L 24.3511,-26.3406
 L 24.2447,-26.0451 L 24.1571,-25.7434 L 24.0886,-25.4369 L 24.0394,-25.1267 L 24.0099,-24.8139 L 24,-24.5
 L 24.0099,-24.186 L 24.0394,-23.8733 L 24.0886,-23.5631 L 24.1571,-23.2565 L 24.2447,-22.9549 L 24.3511,-22.6594
 L 24.4759,-22.3711 L 24.6185,-22.0912 L 24.7784,-21.8209 L 24.9549,-21.5611 L 25.1474,-21.3129 L 25.3551,-21.0773
 L 25.5773,-20.8551 L 25.8129,-20.6474 L 26.0611,-20.4549 L 26.3209,-20.2784 L 26.5912,-20.1185 L 26.8711,-19.9759
 L 27.1594,-19.8511 L 27.4549,-19.7447 L 27.7565,-19.6571 L 28.0631,-19.5886 L 28.3733,-19.5394 L 28.686,-19.5099
 L 29,-19.5 L 29.3139,-19.5099 L 29.6267,-19.5394 L 29.9369,-19.5886 L 30.2434,-19.6571 L 30.5451,-19.7447
 L 30.8406,-19.8511 L 31.1289,-19.9759 L 31.4088,-20.1185 L 31.6791,-20.2784 L 31.9389,-20.4549 L 32.1871,-20.6474
 L 32.4227,-20.8551 L 32.5327,-20.9651 L 32.5355,-20.9624 L 36.6588,-25.0856 L 36.8001,-25.2102 L 36.9491,-25.3257
 L 37.1049,-25.4317 L 37.2672,-25.5276 L 37.4351,-25.6132 L 37.608,-25.688 L 37.7854,-25.7519 L 37.9663,-25.8044
 L 38.1503,-25.8456 L 38.3364,-25.875 L 38.524,-25.8928 L 38.7124,-25.8987 L 38.9008,-25.8928 L 39.0884,-25.875
 L 39.2745,-25.8456 L 39.4585,-25.8044 L 39.6395,-25.7519 L 39.8168,-25.688 L 39.9897,-25.6132 L 40.1577,-25.5276
 L 40.3199,-25.4317 L 40.4758,-25.3257 L 40.6247,-25.2102 L 40.766,-25.0856 L 40.8993,-24.9523 L 41.0239,-24.811
 L 41.1395,-24.662 L 41.2454,-24.5062 L 42.0627,-23.1242 L 43.4317,-20.4374 L 44.6293,-17.67 L 45.6507,-14.8328
 L 46.492,-11.9371 L 46.5784,-11.5506 L 46.6078,-11.3644 L 46.6256,-11.1768 L 46.6315,-10.9884 L 46.6256,-10.8
 L 46.6078,-10.6124 L 46.5784,-10.4263 L 46.5373,-10.2424 L 46.4847,-10.0614 L 46.4208,-9.88405 L 46.346,-9.71109
 L 46.2604,-9.54317 L 46.1645,-9.38095 L 46.0586,-9.22507 L 45.9431,-9.07616 L 45.8184,-8.93478 L 45.6852,-8.80151
 L 45.5438,-8.67688 L 45.3949,-8.56137 L 45.239,-8.45544 L 45.0768,-8.35951 L 44.9088,-8.27394 L 44.7359,-8.1991
 L 44.5586,-8.13525 L 44.3776,-8.08267 L 44.1936,-8.04156 L 44.0075,-8.01208 L 43.8199,-7.99434 L 43.4977,-7.98421
 L 42.9972,-7.9369 L 42.501,-7.85831 L 42.0105,-7.74866 L 41.5279,-7.60844 L 41.055,-7.4382 L 40.5938,-7.23862
 L 40.1459,-7.01039 L 39.7135,-6.75468 L 39.2977,-6.47214 L 38.9006,-6.16409 L 38.5236,-5.83174 L 38.1683,-5.47638
 L 37.8359,-5.0994 L 37.5279,-4.70229 L 37.2453,-4.28651 L 36.9896,-3.85411 L 36.7614,-3.40623 L 36.5618,-2.94499
 L 36.3916,-2.47214 L 36.2513,-1.98952 L 36.1417,-1.49905 L 36.0631,-1.00278 L 36.0158,-0.502319 L 36,-0
 L 36.0158,0.502319 L 36.0631,1.00284 L 36.1417,1.49905 L 36.2513,1.98952 L 36.3916,2.47214 L 36.5618,2.94499
 L 36.7614,3.40623 L 36.9896,3.85413 L 37.2453,4.28651 L 37.5279,4.70229 L 37.8359,5.0994 L 38.1683,5.47638
 L 38.5236,5.83174 L 38.9006,6.16409 L 39.2977,6.47214 L 39.7135,6.75468 L 40.1459,7.01041 L 40.5938,7.23862
 L 41.055,7.4382 L 41.5279,7.60844 L 42.0105,7.74866 L 42.501,7.85831 L 42.9972,7.9369 L 43.4977,7.98421
 L 43.8199,7.99434 L 44.0075,8.01208 L 44.1936,8.04156 L 44.3776,8.08267 L 44.5586,8.13525 L 44.7359,8.1991
 L 44.9088,8.27394 L 45.0768,8.35951 L 45.239,8.45544 L 45.3949,8.56137 L 45.5438,8.67688 L 45.6852,8.80151
 L 45.8184,8.93478 L 45.9431,9.07616 L 46.0586,9.22507 L 46.1645,9.38095 L 46.2604,9.54317 L 46.346,9.71109
 L 46.4208,9.88405 L 46.4847,10.0614 L 46.5373,10.2424 L 46.5784,10.4263 L 46.6078,10.6124 L 46.6256,10.8
 L 46.6315,10.9884 L 46.6256,11.1768 L 46.6078,11.3644 L 46.5784,11.5506 L 46.492,11.9371 L 45.6507,14.8328
 L 44.6293,17.67 L 43.4317,20.4374 L 42.0627,23.1242 L 41.2454,24.5062 L 41.1395,24.662 L 41.0239,24.811
 L 40.8993,24.9523 L 40.766,25.0856 L 40.6247,25.2102 L 40.4758,25.3257 L 40.3199,25.4317 L 40.1577,25.5276
 L 39.9897,25.6132 L 39.8168,25.688 L 39.6395,25.7519 L 39.4585,25.8044 L 39.2745,25.8456 L 39.0884,25.875
 L 38.9008,25.8928 L 38.7124,25.8987 L 38.524,25.8928 L 38.3364,25.875 L 38.1503,25.8456 L 37.9663,25.8044
 L 37.7854,25.7519 L 37.608,25.688 L 37.4351,25.6132 L 37.2672,25.5276 L 37.1049,25.4317 L 36.9491,25.3257
 L 36.8001,25.2102 L 36.6588,25.0856 L 32.5355,20.9624 L 32.5327,20.9651 L 32.4227,20.8551 L 32.1871,20.6474
 L 31.9389,20.4549 L 31.6791,20.2784 L 31.4088,20.1185 L 31.1289,19.9759 L 30.8406,19.8511 L 30.5451,19.7447
 L 30.2434,19.6571 L 29.9369,19.5886 L 29.6267,19.5394 L 29.3139,19.5099 L 29,19.5 L 28.686,19.5099
 L 28.3733,19.5394 L 28.0631,19.5886 L 27.7565,19.6571 L 27.4549,19.7447 L 27.1594,19.8511 L 26.8711,19.9759
 L 26.5912,20.1185 L 26.3209,20.2784 L 26.0611,20.4549 L 25.8129,20.6474 L 25.5773,20.8551 L 25.3551,21.0773
 L 25.1474,21.3129 L 24.9549,21.5611 L 24.7784,21.8209 L 24.6185,22.0912 L 24.4759,22.3711 L 24.3511,22.6594
 L 24.2447,22.9549 L 24.1571,23.2565 L 24.0886,23.5631 L 24.0394,23.8733 L 24.0099,24.186 L 24,24.5
 L 24.0099,24.8139 L 24.0394,25.1267 L 24.0886,25.4369 L 24.1571,25.7434 L 24.2447,26.0451 L 24.3511,26.3406
 L 24.4759,26.6289 L 24.6185,26.9088 L 24.7784,27.1791 L 24.9549,27.4389 L 25.1474,27.6871 L 25.3551,27.9227
 L 25.4651,28.0327 L 25.4624,28.0355 L 30.4065,32.9797 L 30.5312,33.1211 L 30.6467,33.27 L 30.7526,33.4259
 L 30.8485,33.5881 L 30.9341,33.756 L 31.009,33.929 L 31.0728,34.1063 L 31.1254,34.2873 L 31.1665,34.4712
 L 31.196,34.6573 L 31.2137,34.845 L 31.2196,35.0333 L 31.2137,35.2217 L 31.196,35.4093 L 31.1665,35.5955
 L 31.1254,35.7794 L 31.0728,35.9604 L 31.009,36.1377 L 30.9341,36.3107 L 30.8485,36.4786 L 30.7526,36.6408
 L 30.6467,36.7967 L 30.5312,36.9456 L 30.4065,37.087 L 30.2733,37.2202 L 30.1319,37.3449 L 28.2137,38.8328
 L 25.7197,40.5277 L 23.1242,42.0627 L 20.4374,43.4317 L 17.67,44.6293 L 14.8328,45.6507 L 11.9371,46.492
 L 8.99428,47.1498 L 6.01598,47.6215 L 3.01393,47.9053 L 0,48 z
M -29.0611,-22.7511 L -29.1829,-22.7596 L -29.3039,-22.7766 L -29.4234,-22.802 L -29.5408,-22.8356 L -29.6555,-22.8774
 L -29.7671,-22.9271 L -29.875,-22.9845 L -29.9786,-23.0492 L -30.0774,-23.121 L -30.171,-23.1995 L -30.2588,-23.2843
 L -30.3406,-23.3751 L -30.4158,-23.4714 L -30.4841,-23.5726 L -30.5452,-23.6784 L -30.5987,-23.7882 L -30.6445,-23.9015
 L -30.6822,-24.0176 L -30.7117,-24.1362 L -30.733,-24.2564 L -30.7457,-24.3779 L -30.75,-24.5 L -30.7457,-24.6221
 L -30.733,-24.7435 L -30.7117,-24.8638 L -30.6822,-24.9824 L -30.6445,-25.0985 L -30.5987,-25.2118 L -30.5452,-25.3216
 L -30.4841,-25.4274 L -30.4158,-25.5286 L -30.3406,-25.6249 L -30.2588,-25.7156 L -30.171,-25.8005 L -30.0774,-25.879
 L -29.9786,-25.9508 L -29.875,-26.0155 L -29.7671,-26.0729 L -29.6555,-26.1226 L -29.5408,-26.1643 L -29.4234,-26.198
 L -29.3039,-26.2234 L -29.1829,-26.2404 L -29.0611,-26.2489 L -28.9389,-26.2489 L -28.8171,-26.2404 L -28.6961,-26.2234
 L -28.5766,-26.198 L -28.4592,-26.1643 L -28.3444,-26.1226 L -28.2328,-26.0729 L -28.125,-26.0155 L -28.0214,-25.9508
 L -27.9226,-25.879 L -27.829,-25.8005 L -27.7411,-25.7156 L -27.6594,-25.6249 L -27.5842,-25.5286 L -27.5159,-25.4274
 L -27.4548,-25.3216 L -27.4013,-25.2118 L -27.3555,-25.0985 L -27.3178,-24.9824 L -27.2882,-24.8638 L -27.267,-24.7435
 L -27.2543,-24.6221 L -27.25,-24.5 L -27.2543,-24.3779 L -27.267,-24.2564 L -27.2882,-24.1362 L -27.3178,-24.0176
 L -27.3555,-23.9015 L -27.4013,-23.7882 L -27.4548,-23.6784 L -27.5159,-23.5726 L -27.5842,-23.4714 L -27.6594,-23.3751
 L -27.7411,-23.2843 L -27.829,-23.1995 L -27.9226,-23.121 L -28.0214,-23.0492 L -28.125,-22.9845 L -28.2328,-22.9271
 L -28.3444,-22.8774 L -28.4592,-22.8356 L -28.5766,-22.802 L -28.6961,-22.7766 L -28.8171,-22.7596 L -28.9389,-22.7511
 z
M 28.9389,-22.7511 L 28.8171,-22.7596 L 28.6961,-22.7766 L 28.5766,-22.802 L 28.4592,-22.8356 L 28.3444,-22.8774
 L 28.2328,-22.9271 L 28.125,-22.9845 L 28.0214,-23.0492 L 27.9226,-23.121 L 27.829,-23.1995 L 27.7411,-23.2843
 L 27.6594,-23.3751 L 27.5842,-23.4714 L 27.5159,-23.5726 L 27.4548,-23.6784 L 27.4013,-23.7882 L 27.3555,-23.9015
 L 27.3178,-24.0176 L 27.2882,-24.1362 L 27.267,-24.2564 L 27.2543,-24.3779 L 27.25,-24.5 L 27.2543,-24.6221
 L 27.267,-24.7435 L 27.2882,-24.8638 L 27.3178,-24.9824 L 27.3555,-25.0985 L 27.4013,-25.2118 L 27.4548,-25.3216
 L 27.5159,-25.4274 L 27.5842,-25.5286 L 27.6594,-25.6249 L 27.7411,-25.7156 L 27.829,-25.8005 L 27.9226,-25.879
 L 28.0214,-25.9508 L 28.125,-26.0155 L 28.2328,-26.0729 L 28.3444,-26.1226 L 28.4592,-26.1643 L 28.5766,-26.198
 L 28.6961,-26.2234 L 28.8171,-26.2404 L 28.9389,-26.2489 L 29.0611,-26.2489 L 29.1829,-26.2404 L 29.3039,-26.2234
 L 29.4234,-26.198 L 29.5408,-26.1643 L 29.6555,-26.1226 L 29.7671,-26.0729 L 29.875,-26.0155 L 29.9786,-25.9508
 L 30.0774,-25.879 L 30.171,-25.8005 L 30.2588,-25.7156 L 30.3406,-25.6249 L 30.4158,-25.5286 L 30.4841,-25.4274
 L 30.5452,-25.3216 L 30.5987,-25.2118 L 30.6445,-25.0985 L 30.6822,-24.9824 L 30.7117,-24.8638 L 30.733,-24.7435
 L 30.7457,-24.6221 L 30.75,-24.5 L 30.7457,-24.3779 L 30.733,-24.2564 L 30.7117,-24.1362 L 30.6822,-24.0176
 L 30.6445,-23.9015 L 30.5987,-23.7882 L 30.5452,-23.6784 L 30.4841,-23.5726 L 30.4158,-23.4714 L 30.3406,-23.3751
 L 30.2588,-23.2843 L 30.171,-23.1995 L 30.0774,-23.121 L 29.9786,-23.0492 L 29.875,-22.9845 L 29.7671,-22.9271
 L 29.6555,-22.8774 L 29.5408,-22.8356 L 29.4234,-22.802 L 29.3039,-22.7766 L 29.1829,-22.7596 L 29.0611,-22.7511
 z
M -29.0611,26.2489 L -29.1829,26.2404 L -29.3039,26.2234 L -29.4234,26.198 L -29.5408,26.1643 L -29.6555,26.1226
 L -29.7671,26.0729 L -29.875,26.0155 L -29.9786,25.9508 L -30.0774,25.879 L -30.171,25.8005 L -30.2588,25.7156
 L -30.3406,25.6249 L -30.4158,25.5286 L -30.4841,25.4274 L -30.5452,25.3216 L -30.5987,25.2118 L -30.6445,25.0985
 L -30.6822,24.9824 L -30.7117,24.8638 L -30.733,24.7435 L -30.7457,24.6221 L -30.75,24.5 L -30.7457,24.3779
 L -30.733,24.2564 L -30.7117,24.1362 L -30.6822,24.0176 L -30.6445,23.9015 L -30.5987,23.7882 L -30.5452,23.6784
 L -30.4841,23.5726 L -30.4158,23.4714 L -30.3406,23.3751 L -30.2588,23.2843 L -30.171,23.1995 L -30.0774,23.121
 L -29.9786,23.0492 L -29.875,22.9845 L -29.7671,22.9271 L -29.6555,22.8774 L -29.5408,22.8356 L -29.4234,22.802
 L -29.3039,22.7766 L -29.1829,22.7596 L -29.0611,22.7511 L -28.9389,22.7511 L -28.8171,22.7596 L -28.6961,22.7766
 L -28.5766,22.802 L -28.4592,22.8356 L -28.3444,22.8774 L -28.2328,22.9271 L -28.125,22.9845 L -28.0214,23.0492
 L -27.9226,23.121 L -27.829,23.1995 L -27.7411,23.2843 L -27.6594,23.3751 L -27.5842,23.4714 L -27.5159,23.5726
 L -27.4548,23.6784 L -27.4013,23.7882 L -27.3555,23.9015 L -27.3178,24.0176 L -27.2882,24.1362 L -27.267,24.2564
 L -27.2543,24.3779 L -27.25,24.5 L -27.2543,24.6221 L -27.267,24.7435 L -27.2882,24.8638 L -27.3178,24.9824
 L -27.3555,25.0985 L -27.4013,25.2118 L -27.4548,25.3216 L -27.5159,25.4274 L -27.5842,25.5286 L -27.6594,25.6249
 L -27.7411,25.7156 L -27.829,25.8005 L -27.9226,25.879 L -28.0214,25.9508 L -28.125,26.0155 L -28.2328,26.0729
 L -28.3444,26.1226 L -28.4592,26.1643 L -28.5766,26.198 L -28.6961,26.2234 L -28.8171,26.2404 L -28.9389,26.2489
 z
M 28.9389,26.2489 L 28.8171,26.2404 L 28.6961,26.2234 L 28.5766,26.198 L 28.4592,26.1643 L 28.3444,26.1226
 L 28.2328,26.0729 L 28.125,26.0155 L 28.0214,25.9508 L 27.9226,25.879 L 27.829,25.8005 L 27.7411,25.7156
 L 27.6594,25.6249 L 27.5842,25.5286 L 27.5159,25.4274 L 27.4548,25.3216 L 27.4013,25.2118 L 27.3555,25.0985
 L 27.3178,24.9824 L 27.2882,24.8638 L 27.267,24.7435 L 27.2543,24.6221 L 27.25,24.5 L 27.2543,24.3779
 L 27.267,24.2564 L 27.2882,24.1362 L 27.3178,24.0176 L 27.3555,23.9015 L 27.4013,23.7882 L 27.4548,23.6784
 L 27.5159,23.5726 L 27.5842,23.4714 L 27.6594,23.3751 L 27.7411,23.2843 L 27.829,23.1995 L 27.9226,23.121
 L 28.0214,23.0492 L 28.125,22.9845 L 28.2328,22.9271 L 28.3444,22.8774 L 28.4592,22.8356 L 28.5766,22.802
 L 28.6961,22.7766 L 28.8171,22.7596 L 28.9389,22.7511 L 29.0611,22.7511 L 29.1829,22.7596 L 29.3039,22.7766
 L 29.4234,22.802 L 29.5408,22.8356 L 29.6555,22.8774 L 29.7671,22.9271 L 29.875,22.9845 L 29.9786,23.0492
 L 30.0774,23.121 L 30.171,23.1995 L 30.2588,23.2843 L 30.3406,23.3751 L 30.4158,23.4714 L 30.4841,23.5726
 L 30.5452,23.6784 L 30.5987,23.7882 L 30.6445,23.9015 L 30.6822,24.0176 L 30.7117,24.1362 L 30.733,24.2564
 L 30.7457,24.3779 L 30.75,24.5 L 30.7457,24.6221 L 30.733,24.7435 L 30.7117,24.8638 L 30.6822,24.9824
 L 30.6445,25.0985 L 30.5987,25.2118 L 30.5452,25.3216 L 30.4841,25.4274 L 30.4158,25.5286 L 30.3406,25.6249
 L 30.2588,25.7156 L 30.171,25.8005 L 30.0774,25.879 L 29.9786,25.9508 L 29.875,26.0155 L 29.7671,26.0729
 L 29.6555,26.1226 L 29.5408,26.1643 L 29.4234,26.198 L 29.3039,26.2234 L 29.1829,26.2404 L 29.0611,26.2489
 z
" stroke="black" fill="lightgray" stroke-width="0.5"/></svg>
