<?xml version="1.0" standalone="no"?>
<!DOCTYPE svg PUBLIC "-//W3C//DTD SVG 1.1//EN" "http://www.w3.org/Graphics/SVG/1.1/DTD/svg11.dtd">
<svg width="130mm" height="130mm" viewBox="0 0 130 130" xmlns="http://www.w3.org/2000/svg" version="1.1">
<title>OpenSCAD Model</title>
<path d="
M 66.1344,129.99 L 67.2685,129.96 L 68.4018,129.911 L 69.5342,129.842 L 70.6651,129.753 L 71.7943,129.644
 L 72.9215,129.515 L 74.0462,129.367 L 75.1682,129.2 L 76.2871,129.012 L 77.4026,128.806 L 78.5143,128.58
 L 79.6218,128.334 L 80.7249,128.069 L 81.8232,127.785 L 82.9164,127.482 L 84.0042,127.16 L 85.0861,126.819
 L 86.1619,126.459 L 87.2313,126.08 L 88.2939,125.683 L 89.3494,125.267 L 90.3975,124.833 L 91.4379,124.38
 L 92.4702,123.91 L 93.4941,123.422 L 94.5094,122.915 L 95.5156,122.392 L 96.5126,121.85 L 97.277,121.418
 L 97.3119,121.348 L 97.7552,120.496 L 98.2132,119.653 L 98.6859,118.817 L 99.1731,117.99 L 99.6746,117.172
 L 100.19,116.362 L 100.72,115.562 L 101.264,114.771 L 101.821,113.989 L 102.392,113.217 L 102.977,112.456
 L 103.574,111.705 L 104.185,110.964 L 104.808,110.234 L 105.444,109.515 L 106.093,108.807 L 106.754,108.111
 L 107.426,107.426 L 108.111,106.754 L 108.807,106.093 L 109.515,105.444 L 110.234,104.808 L 110.964,104.185
 L 111.705,103.574 L 112.456,102.977 L 113.217,102.392 L 113.989,101.821 L 114.771,101.264 L 115.562,100.72
 L 116.362,100.19 L 117.172,99.6746 L 117.99,99.1731 L 118.817,98.6859 L 119.653,98.2132 L 120.496,97.7552
 L 121.348,97.3119 L 121.418,97.277 L 121.85,96.5126 L 122.392,95.5156 L 122.915,94.5094 L 123.422,93.4941
 L 123.91,92.4702 L 124.38,91.4379 L 124.833,90.3975 L 125.267,89.3494 L 125.683,88.2939 L 126.08,87.2313
 L 126.459,86.1619 L 126.819,85.0861 L 127.16,84.0042 L 127.482,82.9164 L 127.785,81.8232 L 128.069,80.7249
 L 128.334,79.6218 L 128.58,78.5143 L 128.806,77.4026 L 129.012,76.2871 L 129.2,75.1682 L 129.367,74.0462
 L 129.515,72.9215 L 129.644,71.7943 L 129.753,70.6651 L 129.842,69.5342 L 129.911,68.4018 L 129.96,67.2685
 L 129.99,66.1344 L 130,65 L 129.99,63.8656 L 129.96,62.7315 L 129.911,61.5982 L 129.842,60.4658
 L 129.753,59.3349 L 129.644,58.2057 L 129.515,57.0785 L 129.367,55.9538 L 129.2,54.8318 L 129.012,53.7129
 L 128.806,52.5974 L 128.58,51.4857 L 128.334,50.3782 L 128.069,49.2751 L 127.785,48.1768 L 127.482,47.0836
 L 127.16,45.9958 L 126.819,44.9139 L 126.459,43.8381 L 126.08,42.7687 L 125.683,41.7061 L 125.267,40.6506
 L 124.833,39.6025 L 124.38,38.5621 L 123.91,37.5298 L 123.422,36.5059 L 122.915,35.4906 L 122.392,34.4844
 L 121.85,33.4874 L 121.418,32.723 L 121.348,32.6881 L 120.496,32.2448 L 119.653,31.7868 L 118.817,31.3141
 L 117.99,30.8269 L 117.172,30.3254 L 116.362,29.8096 L 115.562,29.2798 L 114.771,28.7361 L 113.989,28.1787
 L 113.217,27.6077 L 112.456,27.0233 L 111.705,26.4258 L 110.964,25.8152 L 110.234,25.1918 L 109.515,24.5557
 L 108.807,23.9072 L 108.111,23.2464 L 107.426,22.5736 L 106.754,21.8889 L 106.093,21.1926 L 105.444,20.4849
 L 104.808,19.766 L 104.185,19.036 L 103.574,18.2953 L 102.977,17.5441 L 102.392,16.7825 L 101.821,16.0109
 L 101.264,15.2294 L 100.72,14.4383 L 100.19,13.6379 L 99.6746,12.8283 L 99.1731,12.0098 L 98.6859,11.1827
 L 98.2132,10.3473 L 97.7552,9.50366 L 97.3119,8.65221 L 97.277,8.5822 L 96.5126,8.14972 L 95.5156,7.60841
 L 94.5094,7.08458 L 93.4941,6.5784 L 92.4702,6.09 L 91.4379,5.61955 L 90.3975,5.16719 L 89.3494,4.73306
 L 88.2939,4.31728 L 87.2313,3.91998 L 86.1619,3.54131 L 85.0861,3.18134 L 84.0042,2.84019 L 82.9164,2.51799
 L 81.8232,2.21483 L 80.7249,1.93079 L 79.6218,1.66595 L 78.5143,1.42041 L 77.4026,1.19424 L 76.2871,0.987503
 L 75.1682,0.800262 L 74.0462,0.632584 L 72.9215,0.484512 L 71.7943,0.356079 L 70.6651,0.247345 L 69.5342,0.15834
 L 68.4018,0.0890808 L 67.2685,0.0395966 L 66.1344,0.00990295 L 65,-0 L 63.8656,0.00990295 L 62.7315,0.0395966
 L 61.5982,0.0890808 L 60.4658,0.15834 L 59.3349,0.247345 L 58.2057,0.356079 L 57.0785,0.484512 L 55.9538,0.632584
 L 54.8318,0.800262 L 53.7129,0.987503 L 52.5974,1.19424 L 51.4857,1.42041 L 50.3782,1.66595 L 49.2751,1.93079
 L 48.1768,2.21483 L 47.0836,2.51799 L 45.9958,2.84019 L 44.9139,3.18134 L 43.8381,3.54131 L 42.7687,3.91998
 L 41.7061,4.31728 L 40.6506,4.73306 L 39.6025,5.16719 L 38.5621,5.61955 L 37.5298,6.09 L 36.5059,6.5784
 L 35.4906,7.08458 L 34.4844,7.60841 L 33.4874,8.14972 L 32.723,8.58221 L 32.6881,8.65221 L 32.2448,9.50366
 L 31.7868,10.3473 L 31.3141,11.1827 L 30.8269,12.0098 L 30.3254,12.8283 L 29.8096,13.6379 L 29.2798,14.4383
 L 28.7361,15.2294 L 28.1787,16.0109 L 27.6077,16.7825 L 27.0233,17.5441 L 26.4258,18.2953 L 25.8152,19.036
 L 25.1918,19.766 L 24.5557,20.4849 L 23.9072,21.1926 L 23.2464,21.8889 L 22.5736,22.5736 L 21.8889,23.2464
 L 21.1926,23.9072 L 20.4849,24.5557 L 19.766,25.1918 L 19.036,25.8152 L 18.2953,26.4258 L 17.5441,27.0233
 L 16.7825,27.6077 L 16.0109,28.1787 L 15.2294,28.7361 L 14.4383,29.2798 L 13.6379,29.8096 L 12.8283,30.3254
 L 12.0098,30.8269 L 11.1827,31.3141 L 10.3473,31.7868 L 9.50366,32.2448 L 8.65221,32.6881 L 8.58221,32.723
 L 8.14972,33.4874 L 7.60841,34.4844 L 7.08458,35.4906 L 6.5784,36.5059 L 6.09,37.5298 L 5.61955,38.5621
 L 5.16719,39.6025 L 4.73306,40.6506 L 4.31728,41.7061 L 3.91998,42.7687 L 3.54131,43.8381 L 3.18134,44.9139
 L 2.84019,45.9958 L 2.51799,47.0836 L 2.21483,48.1768 L 1.93079,49.2751 L 1.66595,50.3782 L 1.42041,51.4857
 L 1.19424,52.5974 L 0.987503,53.7129 L 0.800262,54.8318 L 0.632584,55.9538 L 0.484512,57.0785 L 0.356079,58.2057
 L 0.247345,59.3349 L 0.15834,60.4658 L 0.0890808,61.5982 L 0.0395966,62.7315 L 0.00990295,63.8656 L 0,65
 L 0.00990295,66.1344 L 0.0395966,67.2685 L 0.0890808,68.4018 L 0.15834,69.5342 L 0.247345,70.6651 L 0.356079,71.7943
 L 0.484512,72.9215 L 0.632584,74.0462 L 0.800262,75.1682 L 0.987503,76.2871 L 1.19424,77.4026 L 1.42041,78.5143
 L 1.66595,79.6218 L 1.93079,80.7249 L 2.21483,81.8232 L 2.51799,82.9164 L 2.84019,84.0042 L 3.18134,85.0861
 L 3.54131,86.1619 L 3.91998,87.2313 L 4.31728,88.2939 L 4.73306,89.3494 L 5.16719,90.3975 L 5.61955,91.4379
 L 6.09,92.4702 L 6.5784,93.4941 L 7.08458,94.5094 L 7.60841,95.5156 L 8.14972,96.5126 L 8.5822,97.277
 L 8.65221,97.3119 L 9.50366,97.7552 L 10.3473,98.2132 L 11.1827,98.6859 L 12.0098,99.1731 L 12.8283,99.6746
 L 13.6379,100.19 L 14.4383,100.72 L 15.2294,101.264 L 16.0109,101.821 L 16.7825,102.392 L 17.5441,102.977
 L 18.2953,103.574 L 19.036,104.185 L 19.766,104.808 L 20.4849,105.444 L 21.1926,106.093 L 21.8889,106.754
 L 22.5736,107.426 L 23.2464,108.111 L 23.9072,108.807 L 24.5557,109.515 L 25.1918,110.234 L 25.8152,110.964
 L 26.4258,111.705 L 27.0233,112.456 L 27.6077,113.217 L 28.1787,113.989 L 28.7361,114.771 L 29.2798,115.562
 L 29.8096,116.362 L 30.3254,117.172 L 30.8269,117.99 L 31.3141,118.817 L 31.7868,119.653 L 32.2448,120.496
 L 32.6881,121.348 L 32.723,121.418 L 33.4874,121.85 L 34.4844,122.392 L 35.4906,122.915 L 36.5059,123.422
 L 37.5298,123.91 L 38.5621,124.38 L 39.6025,124.833 L 40.6506,125.267 L 41.7061,125.683 L 42.7687,126.08
 L 43.8381,126.459 L 44.9139,126.819 L 45.9958,127.16 L 47.0836,127.482 L 48.1768,127.785 L 49.2751,128.069
 L 50.3782,128.334 L 51.4857,128.58 L 52.5974,128.806 L 53.7129,129.012 L 54.8318,129.2 L 55.9538,129.367
 L 57.0785,129.515 L 58.2057,129.644 L 59.3349,129.753 L 60.4658,129.842 L 61.5982,129.911 L 62.7315,129.96
 L 63.8656,129.99 L 65,130 z
" stroke="black" fill="lightgray" stroke-width="0.5"/></svg>
