<?xml version="1.0" standalone="no"?>
<!DOCTYPE svg PUBLIC "-//W3C//DTD SVG 1.1//EN" "http://www.w3.org/Graphics/SVG/1.1/DTD/svg11.dtd">
<svg width="130mm" height="130mm" viewBox="-65 -65 130 130" xmlns="http://www.w3.org/2000/svg" version="1.1">
<title>OpenSCAD Model</title>
<path d="
M 1.1344,64.9901 L 2.26846,64.9604 L 3.40182,64.9109 L 4.53416,64.8417 L 5.66512,64.7527 L 6.79434,64.6439
 L 7.92149,64.5155 L 9.04625,64.3674 L 10.1682,64.1997 L 11.2871,64.0125 L 12.4026,63.8058 L 13.5143,63.5796
 L 14.6218,63.334 L 15.7249,63.0692 L 16.8232,62.7852 L 17.9164,62.482 L 19.0042,62.1598 L 20.0861,61.8187
 L 21.1619,61.4587 L 22.2313,61.08 L 23.2939,60.6827 L 24.3494,60.2669 L 25.3975,59.8328 L 26.4379,59.3804
 L 27.4702,58.91 L 28.4941,58.4216 L 29.5094,57.9154 L 30.5156,57.3916 L 31.5126,56.8503 L 32.277,56.4178
 L 32.3119,56.3478 L 32.7552,55.4963 L 33.2132,54.6527 L 33.6859,53.8173 L 34.1731,52.9902 L 34.6746,52.1717
 L 35.1904,51.3621 L 35.7202,50.5617 L 36.2639,49.7706 L 36.8213,48.9891 L 37.3923,48.2175 L 37.9767,47.4559
 L 38.5742,46.7047 L 39.1848,45.964 L 39.8082,45.234 L 40.4443,44.5151 L 41.0928,43.8074 L 41.7536,43.1111
 L 42.4264,42.4264 L 43.1111,41.7536 L 43.8074,41.0928 L 44.5151,40.4443 L 45.234,39.8082 L 45.964,39.1848
 L 46.7047,38.5742 L 47.4559,37.9767 L 48.2175,37.3923 L 48.9891,36.8213 L 49.7706,36.2639 L 50.5617,35.7202
 L 51.3621,35.1904 L 52.1717,34.6746 L 52.9902,34.1731 L 53.8173,33.6859 L 54.6527,33.2132 L 55.4963,32.7552
 L 56.3478,32.3119 L 56.4178,32.277 L 56.8503,31.5126 L 57.3916,30.5156 L 57.9154,29.5094 L 58.4216,28.4941
 L 58.91,27.4702 L 59.3804,26.4379 L 59.8328,25.3975 L 60.2669,24.3494 L 60.6827,23.2939 L 61.08,22.2313
 L 61.4587,21.1619 L 61.8187,20.0861 L 62.1598,19.0042 L 62.482,17.9164 L 62.7852,16.8232 L 63.0692,15.7249
 L 63.334,14.6218 L 63.5796,13.5143 L 63.8058,12.4026 L 64.0125,11.2871 L 64.1997,10.1682 L 64.3674,9.04625
 L 64.5155,7.92149 L 64.6439,6.79434 L 64.7527,5.66512 L 64.8417,4.53416 L 64.9109,3.40182 L 64.9604,2.26846
 L 64.9901,1.1344 L 65,-0 L 64.9901,-1.1344 L 64.9604,-2.26846 L 64.9109,-3.40182 L 64.8417,-4.53416
 L 64.7527,-5.66512 L 64.6439,-6.79434 L 64.5155,-7.92149 L 64.3674,-9.04625 L 64.1997,-10.1682 L 64.0125,-11.2871
 L 63.8058,-12.4026 L 63.5796,-13.5143 L 63.334,-14.6218 L 63.0692,-15.7249 L 62.7852,-16.8232 L 62.482,-17.9164
 L 62.1598,-19.0042 L 61.8187,-20.0861 L 61.4587,-21.1619 L 61.08,-22.2313 L 60.6827,-23.2939 L 60.2669,-24.3494
 L 59.8328,-25.3975 L 59.3804,-26.4379 L 58.91,-27.4702 L 58.4216,-28.4941 L 57.9154,-29.5094 L 57.3916,-30.5156
 L 56.8503,-31.5126 L 56.4178,-32.277 L 56.3478,-32.3119 L 55.4963,-32.7552 L 54.6527,-33.2132 L 53.8173,-33.6859
 L 52.9902,-34.1731 L 52.1717,-34.6746 L 51.3621,-35.1904 L 50.5617,-35.7202 L 49.7706,-36.2639 L 48.9891,-36.8213
 L 48.2175,-37.3923 L 47.4559,-37.9767 L 46.7047,-38.5742 L 45.964,-39.1848 L 45.234,-39.8082 L 44.5151,-40.4443
 L 43.8074,-41.0928 L 43.1111,-41.7536 L 42.4264,-42.4264 L 41.7536,-43.1111 L 41.0928,-43.8074 L 40.4443,-44.5151
 L 39.8082,-45.234 L 39.1848,-45.964 L 38.5742,-46.7047 L 37.9767,-47.4559 L 37.3923,-48.2175 L 36.8213,-48.9891
 L 36.2639,-49.7706 L 35.7202,-50.5617 L 35.1904,-51.3621 L 34.6746,-52.1717 L 34.1731,-52.9902 L 33.6859,-53.8173
 L 33.2132,-54.6527 L 32.7552,-55.4963 L 32.3119,-56.3478 L 32.277,-56.4178 L 31.5126,-56.8503 L 30.5156,-57.3916
 L 29.5094,-57.9154 L 28.4941,-58.4216 L 27.4702,-58.91 L 26.4379,-59.3804 L 25.3975,-59.8328 L 24.3494,-60.2669
 L 23.2939,-60.6827 L 22.2313,-61.08 L 21.1619,-61.4587 L 20.0861,-61.8187 L 19.0042,-62.1598 L 17.9164,-62.482
 L 16.8232,-62.7852 L 15.7249,-63.0692 L 14.6218,-63.334 L 13.5143,-63.5796 L 12.4026,-63.8058 L 11.2871,-64.0125
 L 10.1682,-64.1997 L 9.04625,-64.3674 L 7.92149,-64.5155 L 6.79434,-64.6439 L 5.66512,-64.7527 L 4.53416,-64.8417
 L 3.40182,-64.9109 L 2.26846,-64.9604 L 1.1344,-64.9901 L 0,-65 L -1.1344,-64.9901 L -2.26846,-64.9604
 L -3.40182,-64.9109 L -4.53416,-64.8417 L -5.66512,-64.7527 L -6.79434,-64.6439 L -7.92149,-64.5155 L -9.04625,-64.3674
 L -10.1682,-64.1997 L -11.2871,-64.0125 L -12.4026,-63.8058 L -13.5143,-63.5796 L -14.6218,-63.334 L -15.7249,-63.0692
 L -16.8232,-62.7852 L -17.9164,-62.482 L -19.0042,-62.1598 L -20.0861,-61.8187 L -21.1619,-61.4587 L -22.2313,-61.08
 L -23.2939,-60.6827 L -24.3494,-60.2669 L -25.3975,-59.8328 L -26.4379,-59.3804 L -27.4702,-58.91 L -28.4941,-58.4216
 L -29.5094,-57.9154 L -30.5156,-57.3916 L -31.5126,-56.8503 L -32.277,-56.4178 L -32.3119,-56.3478 L -32.7552,-55.4963
 L -33.2132,-54.6527 L -33.6859,-53.8173 L -34.1731,-52.9902 L -34.6746,-52.1717 L -35.1904,-51.3621 L -35.7202,-50.5617
 L -36.2639,-49.7706 L -36.8213,-48.9891 L -37.3923,-48.2175 L -37.9767,-47.4559 L -38.5742,-46.7047 L -39.1848,-45.964
 L -39.8082,-45.234 L -40.4443,-44.5151 L -41.0928,-43.8074 L -41.7536,-43.1111 L -42.4264,-42.4264 L -43.1111,-41.7536
 L -43.8074,-41.0928 L -44.5151,-40.4443 L -45.234,-39.8082 L -45.964,-39.1848 L -46.7047,-38.5742 L -47.4559,-37.9767
 L -48.2175,-37.3923 L -48.9891,-36.8213 L -49.7706,-36.2639 L -50.5617,-35.7202 L -51.3621,-35.1904 L -52.1717,-34.6746
 L -52.9902,-34.1731 L -53.8173,-33.6859 L -54.6527,-33.2132 L -55.4963,-32.7552 L -56.3478,-32.3119 L -56.4178,-32.277
 L -56.8503,-31.5126 L -57.3916,-30.5156 L -57.9154,-29.5094 L -58.4216,-28.4941 L -58.91,-27.4702 L -59.3804,-26.4379
 L -59.8328,-25.3975 L -60.2669,-24.3494 L -60.6827,-23.2939 L -61.08,-22.2313 L -61.4587,-21.1619 L -61.8187,-20.0861
 L -62.1598,-19.0042 L -62.482,-17.9164 L -62.7852,-16.8232 L -63.0692,-15.7249 L -63.334,-14.6218 L -63.5796,-13.5143
 L -63.8058,-12.4026 L -64.0125,-11.2871 L -64.1997,-10.1682 L -64.3674,-9.04625 L -64.5155,-7.92149 L -64.6439,-6.79434
 L -64.7527,-5.66512 L -64.8417,-4.53416 L -64.9109,-3.40182 L -64.9604,-2.26846 L -64.9901,-1.1344 L -65,-0
 L -64.9901,1.1344 L -64.9604,2.26846 L -64.9109,3.40182 L -64.8417,4.53416 L -64.7527,5.66512 L -64.6439,6.79434
 L -64.5155,7.92149 L -64.3674,9.04625 L -64.1997,10.1682 L -64.0125,11.2871 L -63.8058,12.4026 L -63.5796,13.5143
 L -63.334,14.6218 L -63.0692,15.7249 L -62.7852,16.8232 L -62.482,17.9164 L -62.1598,19.0042 L -61.8187,20.0861
 L -61.4587,21.1619 L -61.08,22.2313 L -60.6827,23.2939 L -60.2669,24.3494 L -59.8328,25.3975 L -59.3804,26.4379
 L -58.91,27.4702 L -58.4216,28.4941 L -57.9154,29.5094 L -57.3916,30.5156 L -56.8503,31.5126 L -56.4178,32.277
 L -56.3478,32.3119 L -55.4963,32.7552 L -54.6527,33.2132 L -53.8173,33.6859 L -52.9902,34.1731 L -52.1717,34.6746
 L -51.3621,35.1904 L -50.5617,35.7202 L -49.7706,36.2639 L -48.9891,36.8213 L -48.2175,37.3923 L -47.4559,37.9767
 L -46.7047,38.5742 L -45.964,39.1848 L -45.234,39.8082 L -44.5151,40.4443 L -43.8074,41.0928 L -43.1111,41.7536
 L -42.4264,42.4264 L -41.7536,43.1111 L -41.0928,43.8074 L -40.4443,44.5151 L -39.8082,45.234 L -39.1848,45.964
 L -38.5742,46.7047 L -37.9767,47.4559 L -37.3923,48.2175 L -36.8213,48.9891 L -36.2639,49.7706 L -35.7202,50.5617
 L -35.1904,51.3621 L -34.6746,52.1717 L -34.1731,52.9902 L -33.6859,53.8173 L -33.2132,54.6527 L -32.7552,55.4963
 L -32.3119,56.3478 L -32.277,56.4178 L -31.5126,56.8503 L -30.5156,57.3916 L -29.5094,57.9154 L -28.4941,58.4216
 L -27.4702,58.91 L -26.4379,59.3804 L -25.3975,59.8328 L -24.3494,60.2669 L -23.2939,60.6827 L -22.2313,61.08
 L -21.1619,61.4587 L -20.0861,61.8187 L -19.0042,62.1598 L -17.9164,62.482 L -16.8232,62.7852 L -15.7249,63.0692
 L -14.6218,63.334 L -13.5143,63.5796 L -12.4026,63.8058 L -11.2871,64.0125 L -10.1682,64.1997 L -9.04625,64.3674
 L -7.92149,64.5155 L -6.79434,64.6439 L -5.66512,64.7527 L -4.53416,64.8417 L -3.40182,64.9109 L -2.26846,64.9604
 L -1.1344,64.9901 L 0,65 z
" stroke="black" fill="lightgray" stroke-width="0.5"/></svg>
