<?xml version="1.0" standalone="no"?>
<!DOCTYPE svg PUBLIC "-//W3C//DTD SVG 1.1//EN" "http://www.w3.org/Graphics/SVG/1.1/DTD/svg11.dtd">
<svg width="130mm" height="130mm" viewBox="0 0 130 130" xmlns="http://www.w3.org/2000/svg" version="1.1">
<title>OpenSCAD Model</title>
<path d="
M 66.1344,129.99 L 67.2685,129.96 L 68.4018,129.911 L 69.5342,129.842 L 70.6651,129.753 L 71.7943,129.644
 L 72.9215,129.515 L 74.0462,129.367 L 75.1682,129.2 L 76.2871,129.012 L 77.4026,128.806 L 78.5143,128.58
 L 79.6218,128.334 L 80.7249,128.069 L 81.8232,127.785 L 82.9164,127.482 L 84.0042,127.16 L 85.0861,126.819
 L 86.1619,126.459 L 87.2313,126.08 L 88.2939,125.683 L 89.3494,125.267 L 90.3975,124.833 L 91.4379,124.38
 L 92.4702,123.91 L 93.4941,123.422 L 94.5094,122.915 L 95.5156,122.392 L 96.5126,121.85 L 97.277,121.418
 L 97.3119,121.348 L 97.7552,120.496 L 98.2132,119.653 L 98.6859,118.817 L 99.1731,117.99 L 99.6746,117.172
 L 100.19,116.362 L 100.72,115.562 L 101.264,114.771 L 101.821,113.989 L 102.392,113.217 L 102.977,112.456
 L 103.574,111.705 L 104.185,110.964 L 104.808,110.234 L 105.444,109.515 L 106.093,108.807 L 106.754,108.111
 L 107.426,107.426 L 108.111,106.754 L 108.807,106.093 L 109.515,105.444 L 110.234,104.808 L 110.964,104.185
 L 111.705,103.574 L 112.456,102.977 L 113.217,102.392 L 113.989,101.821 L 114.771,101.264 L 115.562,100.72
 L 116.362,100.19 L 117.172,99.6746 L 117.99,99.1731 L 118.817,98.6859 L 119.653,98.2132 L 120.496,97.7552
 L 121.348,97.3119 L 121.418,97.277 L 121.85,96.5126 L 122.392,95.5156 L 122.915,94.5094 L 123.422,93.4941
 L 123.91,92.4702 L 124.38,91.4379 L 124.833,90.3975 L 125.267,89.3494 L 125.683,88.2939 L 126.08,87.2313
 L 126.459,86.1619 L 126.819,85.0861 L 127.16,84.0042 L 127.482,82.9164 L 127.785,81.8232 L 128.069,80.7249
 L 128.334,79.6218 L 128.58,78.5143 L 128.806,77.4026 L 129.012,76.2871 L 129.2,75.1682 L 129.367,74.0462
 L 129.515,72.9215 L 129.644,71.7943 L 129.753,70.6651 L 129.842,69.5342 L 129.911,68.4018 L 129.96,67.2685
 L 129.99,66.1344 L 130,65 L 129.99,63.8656 L 129.96,62.7315 L 129.911,61.5982 L 129.842,60.4658
 L 129.753,59.3349 L 129.644,58.2057 L 129.515,57.0785 L 129.367,55.9538 L 129.2,54.8318 L 129.012,53.7129
 L 128.806,52.5974 L 128.58,51.4857 L 128.334,50.3782 L 128.069,49.2751 L 127.785,48.1768 L 127.482,47.0836
 L 127.16,45.9958 L 126.819,44.9139 L 126.459,43.8381 L 126.08,42.7687 L 125.683,41.7061 L 125.267,40.6506
 L 124.833,39.6025 L 124.38,38.5621 L 123.91,37.5298 L 123.422,36.5059 L 122.915,35.4906 L 122.392,34.4844
 L 121.85,33.4874 L 121.418,32.723 L 121.348,32.6881 L 120.496,32.2448 L 119.653,31.7868 L 118.817,31.3141
 L 117.99,30.8269 L 117.172,30.3254 L 116.362,29.8096 L 115.562,29.2798 L 114.771,28.7361 L 113.989,28.1787
 L 113.217,27.6077 L 112.456,27.0233 L 111.705,26.4258 L 110.964,25.8152 L 110.234,25.1918 L 109.515,24.5557
 L 108.807,23.9072 L 108.111,23.2464 L 107.426,22.5736 L 106.754,21.8889 L 106.093,21.1926 L 105.444,20.4849
 L 104.808,19.766 L 104.185,19.036 L 103.574,18.2953 L 102.977,17.5441 L 102.392,16.7825 L 101.821,16.0109
 L 101.264,15.2294 L 100.72,14.4383 L 100.19,13.6379 L 99.6746,12.8283 L 99.1731,12.0098 L 98.6859,11.1827
 L 98.2132,10.3473 L 97.7552,9.50366 L 97.3119,8.65221 L 97.277,8.5822 L 96.5126,8.14972 L 95.5156,7.60841
 L 94.5094,7.08458 L 93.4941,6.5784 L 92.4702,6.09 L 91.4379,5.61955 L 90.3975,5.16719 L 89.3494,4.73306
 L 88.2939,4.31728 L 87.2313,3.91998 L 86.1619,3.54131 L 85.0861,3.18134 L 84.0042,2.84019 L 82.9164,2.51799
 L 81.8232,2.21483 L 80.7249,1.93079 L 79.6218,1.66595 L 78.5143,1.42041 L 77.4026,1.19424 L 76.2871,0.987503
 L 75.1682,0.800262 L 74.0462,0.632584 L 72.9215,0.484512 L 71.7943,0.356079 L 70.6651,0.247345 L 69.5342,0.15834
 L 68.4018,0.0890808 L 67.2685,0.0395966 L 66.1344,0.00990295 L 65,-0 L 63.8656,0.00990295 L 62.7315,0.0395966
 L 61.5982,0.0890808 L 60.4658,0.15834 L 59.3349,0.247345 L 58.2057,0.356079 L 57.0785,0.484512 L 55.9538,0.632584
 L 54.8318,0.800262 L 53.7129,0.987503 L 52.5974,1.19424 L 51.4857,1.42041 L 50.3782,1.66595 L 49.2751,1.93079
 L 48.1768,2.21483 L 47.0836,2.51799 L 45.9958,2.84019 L 44.9139,3.18134 L 43.8381,3.54131 L 42.7687,3.91998
 L 41.7061,4.31728 L 40.6506,4.73306 L 39.6025,5.16719 L 38.5621,5.61955 L 37.5298,6.09 L 36.5059,6.5784
 L 35.4906,7.08458 L 34.4844,7.60841 L 33.4874,8.14972 L 32.723,8.58221 L 32.6881,8.65221 L 32.2448,9.50366
 L 31.7868,10.3473 L 31.3141,11.1827 L 30.8269,12.0098 L 30.3254,12.8283 L 29.8096,13.6379 L 29.2798,14.4383
 L 28.7361,15.2294 L 28.1787,16.0109 L 27.6077,16.7825 L 27.0233,17.5441 L 26.4258,18.2953 L 25.8152,19.036
 L 25.1918,19.766 L 24.5557,20.4849 L 23.9072,21.1926 L 23.2464,21.8889 L 22.5736,22.5736 L 21.8889,23.2464
 L 21.1926,23.9072 L 20.4849,24.5557 L 19.766,25.1918 L 19.036,25.8152 L 18.2953,26.4258 L 17.5441,27.0233
 L 16.7825,27.6077 L 16.0109,28.1787 L 15.2294,28.7361 L 14.4383,29.2798 L 13.6379,29.8096 L 12.8283,30.3254
 L 12.0098,30.8269 L 11.1827,31.3141 L 10.3473,31.7868 L 9.50366,32.2448 L 8.65221,32.6881 L 8.58221,32.723
 L 8.14972,33.4874 L 7.60841,34.4844 L 7.08458,35.4906 L 6.5784,36.5059 L 6.09,37.5298 L 5.61955,38.5621
 L 5.16719,39.6025 L 4.73306,40.6506 L 4.31728,41.7061 L 3.91998,42.7687 L 3.54131,43.8381 L 3.18134,44.9139
 L 2.84019,45.9958 L 2.51799,47.0836 L 2.21483,48.1768 L 1.93079,49.2751 L 1.66595,50.3782 L 1.42041,51.4857
 L 1.19424,52.5974 L 0.987503,53.7129 L 0.800262,54.8318 L 0.632584,55.9538 L 0.484512,57.0785 L 0.356079,58.2057
 L 0.247345,59.3349 L 0.15834,60.4658 L 0.0890808,61.5982 L 0.0395966,62.7315 L 0.00990295,63.8656 L 0,65
 L 0.00990295,66.1344 L 0.0395966,67.2685 L 0.0890808,68.4018 L 0.15834,69.5342 L 0.247345,70.6651 L 0.356079,71.7943
 L 0.484512,72.9215 L 0.632584,74.0462 L 0.800262,75.1682 L 0.987503,76.2871 L 1.19424,77.4026 L 1.42041,78.5143
 L 1.66595,79.6218 L 1.93079,80.7249 L 2.21483,81.8232 L 2.51799,82.9164 L 2.84019,84.0042 L 3.18134,85.0861
 L 3.54131,86.1619 L 3.91998,87.2313 L 4.31728,88.2939 L 4.73306,89.3494 L 5.16719,90.3975 L 5.61955,91.4379
 L 6.09,92.4702 L 6.5784,93.4941 L 7.08458,94.5094 L 7.60841,95.5156 L 8.14972,96.5126 L 8.5822,97.277
 L 8.65221,97.3119 L 9.50366,97.7552 L 10.3473,98.2132 L 11.1827,98.6859 L 12.0098,99.1731 L 12.8283,99.6746
 L 13.6379,100.19 L 14.4383,100.72 L 15.2294,101.264 L 16.0109,101.821 L 16.7825,102.392 L 17.5441,102.977
 L 18.2953,103.574 L 19.036,104.185 L 19.766,104.808 L 20.4849,105.444 L 21.1926,106.093 L 21.8889,106.754
 L 22.5736,107.426 L 23.2464,108.111 L 23.9072,108.807 L 24.5557,109.515 L 25.1918,110.234 L 25.8152,110.964
 L 26.4258,111.705 L 27.0233,112.456 L 27.6077,113.217 L 28.1787,113.989 L 28.7361,114.771 L 29.2798,115.562
 L 29.8096,116.362 L 30.3254,117.172 L 30.8269,117.99 L 31.3141,118.817 L 31.7868,119.653 L 32.2448,120.496
 L 32.6881,121.348 L 32.723,121.418 L 33.4874,121.85 L 34.4844,122.392 L 35.4906,122.915 L 36.5059,123.422
 L 37.5298,123.91 L 38.5621,124.38 L 39.6025,124.833 L 40.6506,125.267 L 41.7061,125.683 L 42.7687,126.08
 L 43.8381,126.459 L 44.9139,126.819 L 45.9958,127.16 L 47.0836,127.482 L 48.1768,127.785 L 49.2751,128.069
 L 50.3782,128.334 L 51.4857,128.58 L 52.5974,128.806 L 53.7129,129.012 L 54.8318,129.2 L 55.9538,129.367
 L 57.0785,129.515 L 58.2057,129.644 L 59.3349,129.753 L 60.4658,129.842 L 61.5982,129.911 L 62.7315,129.96
 L 63.8656,129.99 L 65,130 z
M 64.9389,6.74895 L 64.8171,6.74042 L 64.6961,6.72342 L 64.5766,6.69803 L 64.4592,6.66435 L 64.3445,6.62257
 L 64.2329,6.57289 L 64.125,6.51555 L 64.0214,6.45082 L 63.9226,6.37903 L 63.829,6.30051 L 63.7412,6.21565
 L 63.6594,6.12489 L 63.5842,6.02863 L 63.5159,5.92737 L 63.4548,5.82158 L 63.4013,5.71179 L 63.3555,5.59854
 L 63.3178,5.48238 L 63.2883,5.36385 L 63.267,5.24356 L 63.2543,5.12209 L 63.25,5 L 63.2543,4.87793
 L 63.267,4.75645 L 63.2883,4.63617 L 63.3178,4.51764 L 63.3555,4.40147 L 63.4013,4.28822 L 63.4548,4.17844
 L 63.5159,4.07265 L 63.5842,3.97139 L 63.6594,3.87512 L 63.7412,3.78436 L 63.829,3.69951 L 63.9226,3.62099
 L 64.0214,3.54919 L 64.125,3.48447 L 64.2329,3.42712 L 64.3445,3.37744 L 64.4592,3.33566 L 64.5766,3.30199
 L 64.6961,3.2766 L 64.8171,3.2596 L 64.9389,3.25107 L 65.0611,3.25107 L 65.1829,3.2596 L 65.3039,3.2766
 L 65.4234,3.30199 L 65.5408,3.33566 L 65.6555,3.37744 L 65.7671,3.42712 L 65.875,3.48447 L 65.9786,3.54919
 L 66.0774,3.62099 L 66.171,3.69951 L 66.2588,3.78436 L 66.3406,3.87512 L 66.4158,3.97139 L 66.4841,4.07265
 L 66.5452,4.17844 L 66.5987,4.28822 L 66.6445,4.40147 L 66.6822,4.51764 L 66.7117,4.63617 L 66.733,4.75645
 L 66.7457,4.87793 L 66.75,5 L 66.7457,5.12209 L 66.733,5.24356 L 66.7117,5.36385 L 66.6822,5.48238
 L 66.6445,5.59854 L 66.5987,5.71179 L 66.5452,5.82158 L 66.4841,5.92737 L 66.4158,6.02863 L 66.3406,6.12489
 L 66.2588,6.21565 L 66.171,6.30051 L 66.0774,6.37903 L 65.9786,6.45082 L 65.875,6.51555 L 65.7671,6.57289
 L 65.6555,6.62257 L 65.5408,6.66435 L 65.4234,6.69803 L 65.3039,6.72342 L 65.1829,6.74042 L 65.0611,6.74895
 z
M 94.9389,14.7874 L 94.8171,14.7789 L 94.6961,14.7619 L 94.5766,14.7365 L 94.4592,14.7028 L 94.3444,14.6611
 L 94.2328,14.6114 L 94.125,14.554 L 94.0214,14.4893 L 93.9226,14.4175 L 93.829,14.339 L 93.7411,14.2541
 L 93.6594,14.1634 L 93.5842,14.0671 L 93.5159,13.9658 L 93.4548,13.8601 L 93.4013,13.7503 L 93.3555,13.637
 L 93.3178,13.5208 L 93.2882,13.4023 L 93.267,13.282 L 93.2543,13.1606 L 93.25,13.0385 L 93.2543,12.9164
 L 93.267,12.7949 L 93.2882,12.6746 L 93.3178,12.5561 L 93.3555,12.4399 L 93.4013,12.3267 L 93.4548,12.2169
 L 93.5159,12.1111 L 93.5842,12.0099 L 93.6594,11.9136 L 93.7411,11.8228 L 93.829,11.738 L 93.9226,11.6595
 L 94.0214,11.5877 L 94.125,11.5229 L 94.2328,11.4656 L 94.3444,11.4159 L 94.4592,11.3741 L 94.5766,11.3405
 L 94.6961,11.3151 L 94.8171,11.2981 L 94.9389,11.2896 L 95.0611,11.2896 L 95.1829,11.2981 L 95.3039,11.3151
 L 95.4234,11.3405 L 95.5408,11.3741 L 95.6555,11.4159 L 95.7671,11.4656 L 95.875,11.5229 L 95.9786,11.5877
 L 96.0774,11.6595 L 96.171,11.738 L 96.2588,11.8228 L 96.3406,11.9136 L 96.4158,12.0099 L 96.4841,12.1111
 L 96.5452,12.2169 L 96.5987,12.3267 L 96.6445,12.4399 L 96.6822,12.5561 L 96.7117,12.6746 L 96.733,12.7949
 L 96.7457,12.9164 L 96.75,13.0385 L 96.7457,13.1606 L 96.733,13.282 L 96.7117,13.4023 L 96.6822,13.5208
 L 96.6445,13.637 L 96.5987,13.7503 L 96.5452,13.8601 L 96.4841,13.9658 L 96.4158,14.0671 L 96.3406,14.1634
 L 96.2588,14.2541 L 96.171,14.339 L 96.0774,14.4175 L 95.9786,14.4893 L 95.875,14.554 L 95.7671,14.6114
 L 95.6555,14.6611 L 95.5408,14.7028 L 95.4234,14.7365 L 95.3039,14.7619 L 95.1829,14.7789 L 95.0611,14.7874
 z
M 34.9389,14.7874 L 34.8171,14.7789 L 34.6961,14.7619 L 34.5766,14.7365 L 34.4592,14.7028 L 34.3445,14.6611
 L 34.2329,14.6114 L 34.125,14.554 L 34.0214,14.4893 L 33.9226,14.4175 L 33.829,14.339 L 33.7412,14.2541
 L 33.6594,14.1634 L 33.5842,14.0671 L 33.5159,13.9658 L 33.4548,13.8601 L 33.4013,13.7503 L 33.3555,13.637
 L 33.3178,13.5208 L 33.2883,13.4023 L 33.267,13.282 L 33.2543,13.1606 L 33.25,13.0385 L 33.2543,12.9164
 L 33.267,12.7949 L 33.2883,12.6746 L 33.3178,12.5561 L 33.3555,12.4399 L 33.4013,12.3267 L 33.4548,12.2169
 L 33.5159,12.1111 L 33.5842,12.0099 L 33.6594,11.9136 L 33.7412,11.8228 L 33.829,11.738 L 33.9226,11.6595
 L 34.0214,11.5877 L 34.125,11.5229 L 34.2329,11.4656 L 34.3445,11.4159 L 34.4592,11.3741 L 34.5766,11.3405
 L 34.6961,11.3151 L 34.8171,11.2981 L 34.9389,11.2896 L 35.0611,11.2896 L 35.1829,11.2981 L 35.3039,11.3151
 L 35.4234,11.3405 L 35.5408,11.3741 L 35.6556,11.4159 L 35.7672,11.4656 L 35.875,11.5229 L 35.9786,11.5877
 L 36.0774,11.6595 L 36.171,11.738 L 36.2589,11.8228 L 36.3406,11.9136 L 36.4158,12.0099 L 36.4841,12.1111
 L 36.5452,12.2169 L 36.5987,12.3267 L 36.6445,12.4399 L 36.6822,12.5561 L 36.7118,12.6746 L 36.733,12.7949
 L 36.7457,12.9164 L 36.75,13.0385 L 36.7457,13.1606 L 36.733,13.282 L 36.7118,13.4023 L 36.6822,13.5208
 L 36.6445,13.637 L 36.5987,13.7503 L 36.5452,13.8601 L 36.4841,13.9658 L 36.4158,14.0671 L 36.3406,14.1634
 L 36.2589,14.2541 L 36.171,14.339 L 36.0774,14.4175 L 35.9786,14.4893 L 35.875,14.554 L 35.7672,14.6114
 L 35.6556,14.6611 L 35.5408,14.7028 L 35.4234,14.7365 L 35.3039,14.7619 L 35.1829,14.7789 L 35.0611,14.7874
 z
M 64.2146,112.993 L 63.2412,112.967 L 62.4565,112.932 L 61.6726,112.884 L 60.8896,112.823 L 59.9202,112.73
 L 59.1399,112.641 L 58.3612,112.538 L 57.5845,112.422 L 57.3983,112.393 L 56.6237,112.263 L 55.8515,112.12
 L 55.0818,111.963 L 54.1311,111.752 L 53.3675,111.569 L 52.6071,111.372 L 51.8503,111.163 L 50.9162,110.887
 L 50.1672,110.651 L 49.4224,110.401 L 48.5047,110.075 L 47.7691,109.8 L 47.0383,109.513 L 46.3127,109.212
 L 45.4195,108.824 L 44.7049,108.498 L 43.996,108.16 L 43.2931,107.81 L 43.1252,107.724 L 42.4285,107.362
 L 41.7383,106.987 L 41.0547,106.6 L 40.2158,106.105 L 39.5462,105.695 L 38.8838,105.273 L 38.2289,104.84
 L 37.4257,104.289 L 36.7863,103.833 L 36.155,103.366 L 35.383,102.772 L 34.8583,102.355 L 34.7169,102.23
 L 34.5837,102.097 L 34.459,101.955 L 34.3435,101.806 L 34.2376,101.651 L 34.1417,101.488 L 34.0561,101.32
 L 33.9812,101.148 L 33.9174,100.97 L 33.8648,100.789 L 33.8237,100.605 L 33.7942,100.419 L 33.7765,100.232
 L 33.7706,100.043 L 33.7765,99.8548 L 33.7942,99.6671 L 33.8237,99.481 L 33.8648,99.2971 L 33.9174,99.1161
 L 33.9812,98.9388 L 34.0561,98.7658 L 34.1417,98.5979 L 34.2376,98.4357 L 34.3435,98.2798 L 34.459,98.1309
 L 34.5837,97.9895 L 39.5376,93.0355 L 39.5349,93.0327 L 39.6449,92.9227 L 39.8526,92.6871 L 40.0451,92.4389
 L 40.2216,92.1791 L 40.3815,91.9088 L 40.5241,91.6289 L 40.6489,91.3406 L 40.7553,91.0451 L 40.8429,90.7434
 L 40.9114,90.4369 L 40.9606,90.1267 L 40.9901,89.8139 L 41,89.5 L 40.9901,89.186 L 40.9606,88.8733
 L 40.9114,88.5631 L 40.8429,88.2565 L 40.7553,87.9549 L 40.6489,87.6594 L 40.5241,87.3711 L 40.3815,87.0912
 L 40.2216,86.8209 L 40.0451,86.5611 L 39.8526,86.3129 L 39.6449,86.0773 L 39.4227,85.8551 L 39.1871,85.6474
 L 38.9389,85.4549 L 38.6791,85.2784 L 38.4088,85.1185 L 38.1289,84.9759 L 37.8406,84.8511 L 37.5451,84.7447
 L 37.2435,84.6571 L 36.9369,84.5886 L 36.6267,84.5394 L 36.314,84.5099 L 36,84.5 L 35.6861,84.5099
 L 35.3733,84.5394 L 35.0631,84.5886 L 34.7566,84.6571 L 34.4549,84.7447 L 34.1594,84.8511 L 33.8711,84.9759
 L 33.5912,85.1185 L 33.3209,85.2784 L 33.0611,85.4549 L 32.8129,85.6474 L 32.5773,85.8551 L 32.4673,85.9651
 L 32.4645,85.9624 L 28.3262,90.1006 L 28.1848,90.2253 L 28.0359,90.3408 L 27.88,90.4467 L 27.7178,90.5426
 L 27.5499,90.6282 L 27.3769,90.703 L 27.1996,90.7669 L 27.0186,90.8195 L 26.8347,90.8606 L 26.6486,90.8901
 L 26.4609,90.9078 L 26.2726,90.9137 L 26.0842,90.9078 L 25.8966,90.8901 L 25.7104,90.8606 L 25.5265,90.8195
 L 25.3455,90.7669 L 25.1682,90.703 L 24.9952,90.6282 L 24.8273,90.5426 L 24.6651,90.4467 L 24.5092,90.3408
 L 24.3603,90.2253 L 24.2189,90.1006 L 24.0857,89.9674 L 23.961,89.826 L 23.8455,89.6771 L 23.7396,89.5212
 L 23.4,88.9453 L 23.0132,88.2617 L 22.6385,87.5715 L 22.2758,86.8748 L 22.1902,86.7069 L 21.8398,86.004
 L 21.5017,85.2951 L 21.176,84.5805 L 20.788,83.6873 L 20.4874,82.9617 L 20.1996,82.2309 L 19.9245,81.4953
 L 19.5985,80.5776 L 19.3493,79.8328 L 19.1131,79.0838 L 18.8375,78.1497 L 18.6276,77.3929 L 18.4587,76.7399
 L 18.4176,76.5559 L 18.3881,76.3698 L 18.3704,76.1822 L 18.3645,75.9938 L 18.3704,75.8054 L 18.3881,75.6178
 L 18.4176,75.4317 L 18.4587,75.2477 L 18.5113,75.0667 L 18.5751,74.8894 L 18.65,74.7165 L 18.7355,74.5485
 L 18.8315,74.3863 L 18.9374,74.2304 L 19.0529,74.0815 L 19.1776,73.9402 L 19.3108,73.8069 L 19.4522,73.6823
 L 19.6011,73.5667 L 19.757,73.4608 L 19.9192,73.3649 L 20.0871,73.2793 L 20.2601,73.2045 L 20.4374,73.1406
 L 20.6184,73.088 L 20.8023,73.0469 L 20.9885,73.0175 L 21.1761,72.9997 L 21.3873,72.9908 L 21.5789,72.9791
 L 21.7521,72.9655 L 21.9646,72.9417 L 22.1549,72.9166 L 22.348,72.886 L 22.5368,72.851 L 22.7249,72.8128
 L 22.9151,72.7675 L 23.1009,72.7194 L 23.2316,72.6832 L 23.4721,72.6084 L 23.6542,72.5475 L 23.8377,72.4801
 L 24.0163,72.4097 L 24.1761,72.3435 L 24.3715,72.2549 L 24.5448,72.1723 L 24.7189,72.0835 L 24.8876,71.9919
 L 25.0547,71.8974 L 25.2216,71.7955 L 25.3836,71.6924 L 25.496,71.618 L 25.7023,71.4721 L 25.8566,71.3579
 L 26.0103,71.2371 L 26.1584,71.1149 L 26.2899,71.0027 L 26.4483,70.858 L 26.5876,70.7258 L 26.7258,70.5876
 L 26.858,70.4483 L 26.9877,70.3068 L 27.1149,70.1584 L 27.2371,70.0103 L 27.3214,69.9042 L 27.4721,69.7023
 L 27.5836,69.546 L 27.6924,69.3836 L 27.7955,69.2216 L 27.8863,69.0735 L 27.9919,68.8876 L 28.0835,68.7189
 L 28.1723,68.5448 L 28.2549,68.3715 L 28.3345,68.1968 L 28.4097,68.0163 L 28.4801,67.8377 L 28.5274,67.711
 L 28.6084,67.4721 L 28.6662,67.289 L 28.7194,67.1009 L 28.7675,66.9151 L 28.8079,66.7466 L 28.851,66.5368
 L 28.886,66.348 L 28.9166,66.1549 L 28.9417,65.9646 L 28.9634,65.7738 L 28.9791,65.5789 L 28.9908,65.3873
 L 28.9967,65.2518 L 29,65 L 28.9983,64.808 L 28.9908,64.6127 L 28.9791,64.4211 L 28.9655,64.2479
 L 28.9417,64.0354 L 28.9166,63.8451 L 28.886,63.652 L 28.851,63.4632 L 28.8128,63.2751 L 28.7675,63.0849
 L 28.7194,62.8991 L 28.6832,62.7684 L 28.6084,62.5279 L 28.5475,62.3458 L 28.4801,62.1623 L 28.4097,61.9837
 L 28.3435,61.8239 L 28.2549,61.6285 L 28.1723,61.4552 L 28.0835,61.2811 L 27.9919,61.1124 L 27.8974,60.9453
 L 27.7955,60.7784 L 27.6924,60.6164 L 27.618,60.504 L 27.4721,60.2977 L 27.3579,60.1434 L 27.2371,59.9897
 L 27.1149,59.8416 L 27.0027,59.7101 L 26.858,59.5517 L 26.7258,59.4124 L 26.5876,59.2742 L 26.4483,59.142
 L 26.3068,59.0123 L 26.1584,58.8851 L 26.0103,58.7629 L 25.9039,58.6784 L 25.7023,58.5279 L 25.546,58.4164
 L 25.3836,58.3076 L 25.2216,58.2045 L 25.0735,58.1137 L 24.8876,58.0081 L 24.7189,57.9165 L 24.5448,57.8277
 L 24.3715,57.7451 L 24.1968,57.6655 L 24.0163,57.5903 L 23.8377,57.5199 L 23.711,57.4726 L 23.4721,57.3916
 L 23.289,57.3338 L 23.1009,57.2806 L 22.9151,57.2325 L 22.7466,57.1921 L 22.5368,57.149 L 22.348,57.114
 L 22.1549,57.0834 L 21.9646,57.0583 L 21.7738,57.0366 L 21.5789,57.0209 L 21.3873,57.0092 L 21.1761,57.0003
 L 20.9885,56.9825 L 20.8023,56.9531 L 20.6184,56.912 L 20.4374,56.8594 L 20.2601,56.7955 L 20.0871,56.7207
 L 19.9192,56.6351 L 19.757,56.5392 L 19.6011,56.4333 L 19.4522,56.3177 L 19.3108,56.1931 L 19.1776,56.0598
 L 19.0529,55.9185 L 18.9374,55.7696 L 18.8315,55.6137 L 18.7355,55.4515 L 18.65,55.2835 L 18.5751,55.1106
 L 18.5113,54.9333 L 18.4587,54.7523 L 18.4176,54.5683 L 18.3881,54.3822 L 18.3704,54.1946 L 18.3645,54.0062
 L 18.3704,53.8178 L 18.3881,53.6302 L 18.4176,53.4441 L 18.4587,53.2601 L 18.6276,52.6071 L 18.8375,51.8503
 L 19.1131,50.9162 L 19.3493,50.1672 L 19.5985,49.4224 L 19.9245,48.5047 L 20.1996,47.7691 L 20.4874,47.0383
 L 20.788,46.3127 L 21.176,45.4195 L 21.5017,44.7049 L 21.8398,43.996 L 22.1902,43.2931 L 22.2758,43.1252
 L 22.6385,42.4285 L 23.0132,41.7383 L 23.4,41.0548 L 23.7396,40.4788 L 23.8455,40.3229 L 23.961,40.174
 L 24.0857,40.0326 L 24.2189,39.8994 L 24.3603,39.7747 L 24.5092,39.6592 L 24.6651,39.5533 L 24.8273,39.4574
 L 24.9952,39.3718 L 25.1682,39.297 L 25.3455,39.2331 L 25.5265,39.1805 L 25.7104,39.1394 L 25.8966,39.1099
 L 26.0842,39.0922 L 26.2726,39.0863 L 26.4609,39.0922 L 26.6486,39.1099 L 26.8347,39.1394 L 27.0186,39.1805
 L 27.1996,39.2331 L 27.3769,39.297 L 27.5499,39.3718 L 27.7178,39.4574 L 27.88,39.5533 L 28.0359,39.6592
 L 28.1848,39.7747 L 28.3262,39.8994 L 32.4645,44.0376 L 32.4673,44.0349 L 32.5773,44.1449 L 32.8129,44.3526
 L 33.0611,44.5451 L 33.3209,44.7216 L 33.5912,44.8815 L 33.8711,45.0241 L 34.1594,45.1489 L 34.4549,45.2553
 L 34.7566,45.3429 L 35.0631,45.4114 L 35.3733,45.4606 L 35.6861,45.4901 L 36,45.5 L 36.314,45.4901
 L 36.6267,45.4606 L 36.9369,45.4114 L 37.2435,45.3429 L 37.5451,45.2553 L 37.8406,45.1489 L 38.1289,45.0241
 L 38.4088,44.8815 L 38.6791,44.7216 L 38.9389,44.5451 L 39.1871,44.3526 L 39.4227,44.1449 L 39.6449,43.9227
 L 39.8526,43.6871 L 40.0451,43.4389 L 40.2216,43.1791 L 40.3815,42.9088 L 40.5241,42.6289 L 40.6489,42.3406
 L 40.7553,42.0451 L 40.8429,41.7435 L 40.9114,41.4369 L 40.9606,41.1267 L 40.9901,40.814 L 41,40.5
 L 40.9901,40.1861 L 40.9606,39.8733 L 40.9114,39.5631 L 40.8429,39.2566 L 40.7553,38.9549 L 40.6489,38.6594
 L 40.5241,38.3711 L 40.3815,38.0912 L 40.2216,37.8209 L 40.0451,37.5611 L 39.8526,37.3129 L 39.6449,37.0773
 L 39.5349,36.9673 L 39.5376,36.9645 L 34.5837,32.0105 L 34.459,31.8691 L 34.3435,31.7202 L 34.2376,31.5643
 L 34.1417,31.4021 L 34.0561,31.2342 L 33.9812,31.0612 L 33.9174,30.8839 L 33.8648,30.7029 L 33.8237,30.519
 L 33.7942,30.3329 L 33.7765,30.1452 L 33.7706,29.9569 L 33.7765,29.7685 L 33.7942,29.5809 L 33.8237,29.3947
 L 33.8648,29.2108 L 33.9174,29.0298 L 33.9812,28.8525 L 34.0561,28.6795 L 34.1417,28.5116 L 34.2376,28.3494
 L 34.3435,28.1935 L 34.459,28.0446 L 34.5837,27.9032 L 34.7169,27.77 L 34.8583,27.6453 L 35.383,27.228
 L 36.155,26.6344 L 36.7863,26.1672 L 37.4257,25.7111 L 38.2289,25.1603 L 38.8838,24.7269 L 39.5462,24.3049
 L 40.2158,23.8945 L 41.0548,23.4 L 41.7383,23.0132 L 42.4285,22.6385 L 43.1252,22.2758 L 43.2931,22.1902
 L 43.996,21.8398 L 44.7049,21.5017 L 45.4195,21.176 L 46.3127,20.788 L 47.0383,20.4874 L 47.7691,20.1996
 L 48.5047,19.9245 L 49.4224,19.5985 L 50.1672,19.3493 L 50.9162,19.1131 L 51.8503,18.8375 L 52.6071,18.6276
 L 53.3675,18.431 L 54.1311,18.2476 L 55.0818,18.0365 L 55.8515,17.8799 L 56.6237,17.7368 L 57.3983,17.6072
 L 57.5845,17.5777 L 58.3612,17.4616 L 59.1399,17.3591 L 59.9202,17.2702 L 60.8896,17.1772 L 61.6726,17.1155
 L 62.4565,17.0676 L 63.2412,17.0333 L 64.2146,17.0069 L 65,17 L 65.7854,17.0069 L 66.7588,17.0333
 L 67.5435,17.0676 L 68.3274,17.1155 L 69.1104,17.1772 L 70.0798,17.2702 L 70.8601,17.3591 L 71.6388,17.4616
 L 72.4155,17.5777 L 72.6017,17.6072 L 73.3763,17.7368 L 74.1485,17.8799 L 74.9182,18.0365 L 75.8689,18.2476
 L 76.6325,18.431 L 77.3929,18.6276 L 78.1497,18.8375 L 79.0838,19.1131 L 79.8328,19.3493 L 80.5776,19.5985
 L 81.4953,19.9245 L 82.2309,20.1996 L 82.9617,20.4874 L 83.6873,20.788 L 84.5805,21.176 L 85.2951,21.5017
 L 86.004,21.8398 L 86.7069,22.1902 L 86.8748,22.2758 L 87.5715,22.6385 L 88.2617,23.0132 L 88.9453,23.4
 L 89.7842,23.8945 L 90.4538,24.3049 L 91.1162,24.7269 L 91.7711,25.1603 L 92.5743,25.7111 L 93.2137,26.1672
 L 93.845,26.6344 L 94.617,27.228 L 95.1417,27.6453 L 95.2831,27.77 L 95.4163,27.9032 L 95.541,28.0446
 L 95.6565,28.1935 L 95.7624,28.3494 L 95.8583,28.5116 L 95.9439,28.6795 L 96.0188,28.8525 L 96.0826,29.0298
 L 96.1352,29.2108 L 96.1763,29.3947 L 96.2058,29.5809 L 96.2235,29.7685 L 96.2294,29.9569 L 96.2235,30.1452
 L 96.2058,30.3329 L 96.1763,30.519 L 96.1352,30.7029 L 96.0826,30.8839 L 96.0188,31.0612 L 95.9439,31.2342
 L 95.8583,31.4021 L 95.7624,31.5643 L 95.6565,31.7202 L 95.541,31.8691 L 95.4163,32.0105 L 90.4624,36.9645
 L 90.4651,36.9673 L 90.3551,37.0773 L 90.1474,37.3129 L 89.9549,37.5611 L 89.7784,37.8209 L 89.6185,38.0912
 L 89.4759,38.3711 L 89.3511,38.6594 L 89.2447,38.9549 L 89.1571,39.2566 L 89.0886,39.5631 L 89.0394,39.8733
 L 89.0099,40.1861 L 89,40.5 L 89.0099,40.814 L 89.0394,41.1267 L 89.0886,41.4369 L 89.1571,41.7435
 L 89.2447,42.0451 L 89.3511,42.3406 L 89.4759,42.6289 L 89.6185,42.9088 L 89.7784,43.1791 L 89.9549,43.4389
 L 90.1474,43.6871 L 90.3551,43.9227 L 90.5773,44.1449 L 90.8129,44.3526 L 91.0611,44.5451 L 91.3209,44.7216
 L 91.5912,44.8815 L 91.8711,45.0241 L 92.1594,45.1489 L 92.4549,45.2553 L 92.7565,45.3429 L 93.0631,45.4114
 L 93.3733,45.4606 L 93.686,45.4901 L 94,45.5 L 94.3139,45.4901 L 94.6267,45.4606 L 94.9369,45.4114
 L 95.2434,45.3429 L 95.5451,45.2553 L 95.8406,45.1489 L 96.1289,45.0241 L 96.4088,44.8815 L 96.6791,44.7216
 L 96.9389,44.5451 L 97.1871,44.3526 L 97.4227,44.1449 L 97.5327,44.0349 L 97.5355,44.0376 L 101.674,39.8994
 L 101.815,39.7747 L 101.964,39.6592 L 102.12,39.5533 L 102.282,39.4574 L 102.45,39.3718 L 102.623,39.297
 L 102.8,39.2331 L 102.981,39.1805 L 103.165,39.1394 L 103.351,39.1099 L 103.539,39.0922 L 103.727,39.0863
 L 103.916,39.0922 L 104.103,39.1099 L 104.29,39.1394 L 104.473,39.1805 L 104.654,39.2331 L 104.832,39.297
 L 105.005,39.3718 L 105.173,39.4574 L 105.335,39.5533 L 105.491,39.6592 L 105.64,39.7747 L 105.781,39.8994
 L 105.914,40.0326 L 106.039,40.174 L 106.154,40.3229 L 106.26,40.4788 L 106.6,41.0548 L 106.987,41.7383
 L 107.362,42.4285 L 107.724,43.1252 L 107.81,43.2931 L 108.16,43.996 L 108.498,44.7049 L 108.824,45.4195
 L 109.212,46.3127 L 109.513,47.0383 L 109.8,47.7691 L 110.075,48.5047 L 110.401,49.4224 L 110.651,50.1672
 L 110.887,50.9162 L 111.163,51.8503 L 111.372,52.6071 L 111.541,53.2601 L 111.582,53.4441 L 111.612,53.6302
 L 111.63,53.8178 L 111.636,54.0062 L 111.63,54.1946 L 111.612,54.3822 L 111.582,54.5683 L 111.541,54.7523
 L 111.489,54.9333 L 111.425,55.1106 L 111.35,55.2835 L 111.264,55.4515 L 111.169,55.6137 L 111.063,55.7696
 L 110.947,55.9185 L 110.822,56.0598 L 110.689,56.1931 L 110.548,56.3177 L 110.399,56.4333 L 110.243,56.5392
 L 110.081,56.6351 L 109.913,56.7207 L 109.74,56.7955 L 109.563,56.8594 L 109.382,56.912 L 109.198,56.9531
 L 109.012,56.9825 L 108.824,57.0003 L 108.613,57.0092 L 108.421,57.0209 L 108.248,57.0345 L 108.035,57.0583
 L 107.845,57.0834 L 107.652,57.114 L 107.463,57.149 L 107.275,57.1872 L 107.085,57.2325 L 106.899,57.2806
 L 106.768,57.3168 L 106.528,57.3916 L 106.346,57.4525 L 106.162,57.5199 L 105.984,57.5903 L 105.824,57.6565
 L 105.629,57.7451 L 105.455,57.8277 L 105.281,57.9165 L 105.112,58.0081 L 104.945,58.1026 L 104.778,58.2045
 L 104.616,58.3076 L 104.504,58.382 L 104.298,58.5279 L 104.143,58.6421 L 103.99,58.7629 L 103.842,58.8851
 L 103.71,58.9973 L 103.552,59.142 L 103.412,59.2742 L 103.274,59.4124 L 103.142,59.5517 L 103.012,59.6932
 L 102.885,59.8416 L 102.763,59.9897 L 102.678,60.0961 L 102.528,60.2977 L 102.416,60.454 L 102.308,60.6164
 L 102.204,60.7784 L 102.114,60.9262 L 102.008,61.1124 L 101.916,61.2811 L 101.828,61.4552 L 101.745,61.6285
 L 101.665,61.8032 L 101.59,61.9837 L 101.52,62.1623 L 101.472,62.2893 L 101.392,62.5279 L 101.334,62.711
 L 101.281,62.8991 L 101.232,63.0849 L 101.192,63.2534 L 101.149,63.4632 L 101.114,63.652 L 101.083,63.8451
 L 101.058,64.0354 L 101.037,64.2262 L 101.021,64.4211 L 101.009,64.6127 L 101.003,64.7482 L 101,65
 L 101.002,65.192 L 101.009,65.3873 L 101.021,65.5789 L 101.035,65.7521 L 101.058,65.9646 L 101.083,66.1549
 L 101.114,66.348 L 101.149,66.5368 L 101.187,66.7249 L 101.232,66.9151 L 101.281,67.1009 L 101.317,67.2316
 L 101.392,67.4721 L 101.452,67.6542 L 101.52,67.8377 L 101.59,68.0163 L 101.656,68.1761 L 101.745,68.3715
 L 101.828,68.5448 L 101.916,68.7189 L 102.008,68.8876 L 102.103,69.0547 L 102.204,69.2216 L 102.308,69.3836
 L 102.382,69.496 L 102.528,69.7023 L 102.642,69.8566 L 102.763,70.0103 L 102.885,70.1584 L 102.997,70.2899
 L 103.142,70.4483 L 103.274,70.5876 L 103.412,70.7258 L 103.552,70.858 L 103.693,70.9877 L 103.842,71.1149
 L 103.99,71.2371 L 104.096,71.3216 L 104.298,71.4721 L 104.454,71.5836 L 104.616,71.6924 L 104.778,71.7955
 L 104.927,71.8863 L 105.112,71.9919 L 105.281,72.0835 L 105.455,72.1723 L 105.629,72.2549 L 105.803,72.3345
 L 105.984,72.4097 L 106.162,72.4801 L 106.289,72.5274 L 106.528,72.6084 L 106.711,72.6662 L 106.899,72.7194
 L 107.085,72.7675 L 107.253,72.8079 L 107.463,72.851 L 107.652,72.886 L 107.845,72.9166 L 108.035,72.9417
 L 108.226,72.9634 L 108.421,72.9791 L 108.613,72.9908 L 108.824,72.9997 L 109.012,73.0175 L 109.198,73.0469
 L 109.382,73.088 L 109.563,73.1406 L 109.74,73.2045 L 109.913,73.2793 L 110.081,73.3649 L 110.243,73.4608
 L 110.399,73.5667 L 110.548,73.6823 L 110.689,73.8069 L 110.822,73.9402 L 110.947,74.0815 L 111.063,74.2304
 L 111.169,74.3863 L 111.264,74.5485 L 111.35,74.7165 L 111.425,74.8894 L 111.489,75.0667 L 111.541,75.2477
 L 111.582,75.4317 L 111.612,75.6178 L 111.63,75.8054 L 111.636,75.9938 L 111.63,76.1822 L 111.612,76.3698
 L 111.582,76.5559 L 111.541,76.7399 L 111.372,77.3929 L 111.163,78.1497 L 110.887,79.0838 L 110.651,79.8328
 L 110.401,80.5776 L 110.075,81.4953 L 109.8,82.2309 L 109.513,82.9617 L 109.212,83.6873 L 108.824,84.5805
 L 108.498,85.2951 L 108.16,86.004 L 107.81,86.7069 L 107.724,86.8748 L 107.362,87.5715 L 106.987,88.2617
 L 106.6,88.9453 L 106.26,89.5212 L 106.154,89.6771 L 106.039,89.826 L 105.914,89.9674 L 105.781,90.1006
 L 105.64,90.2253 L 105.491,90.3408 L 105.335,90.4467 L 105.173,90.5426 L 105.005,90.6282 L 104.832,90.703
 L 104.654,90.7669 L 104.473,90.8195 L 104.29,90.8606 L 104.103,90.8901 L 103.916,90.9078 L 103.727,90.9137
 L 103.539,90.9078 L 103.351,90.8901 L 103.165,90.8606 L 102.981,90.8195 L 102.8,90.7669 L 102.623,90.703
 L 102.45,90.6282 L 102.282,90.5426 L 102.12,90.4467 L 101.964,90.3408 L 101.815,90.2253 L 101.674,90.1006
 L 97.5355,85.9624 L 97.5327,85.9651 L 97.4227,85.8551 L 97.1871,85.6474 L 96.9389,85.4549 L 96.6791,85.2784
 L 96.4088,85.1185 L 96.1289,84.9759 L 95.8406,84.8511 L 95.5451,84.7447 L 95.2434,84.6571 L 94.9369,84.5886
 L 94.6267,84.5394 L 94.3139,84.5099 L 94,84.5 L 93.686,84.5099 L 93.3733,84.5394 L 93.0631,84.5886
 L 92.7565,84.6571 L 92.4549,84.7447 L 92.1594,84.8511 L 91.8711,84.9759 L 91.5912,85.1185 L 91.3209,85.2784
 L 91.0611,85.4549 L 90.8129,85.6474 L 90.5773,85.8551 L 90.3551,86.0773 L 90.1474,86.3129 L 89.9549,86.5611
 L 89.7784,86.8209 L 89.6185,87.0912 L 89.4759,87.3711 L 89.3511,87.6594 L 89.2447,87.9549 L 89.1571,88.2565
 L 89.0886,88.5631 L 89.0394,88.8733 L 89.0099,89.186 L 89,89.5 L 89.0099,89.8139 L 89.0394,90.1267
 L 89.0886,90.4369 L 89.1571,90.7434 L 89.2447,91.0451 L 89.3511,91.3406 L 89.4759,91.6289 L 89.6185,91.9088
 L 89.7784,92.1791 L 89.9549,92.4389 L 90.1474,92.6871 L 90.3551,92.9227 L 90.4651,93.0327 L 90.4624,93.0355
 L 95.4163,97.9895 L 95.541,98.1309 L 95.6565,98.2798 L 95.7624,98.4357 L 95.8583,98.5979 L 95.9439,98.7658
 L 96.0188,98.9388 L 96.0826,99.1161 L 96.1352,99.2971 L 96.1763,99.481 L 96.2058,99.6671 L 96.2235,99.8548
 L 96.2294,100.043 L 96.2235,100.232 L 96.2058,100.419 L 96.1763,100.605 L 96.1352,100.789 L 96.0826,100.97
 L 96.0188,101.148 L 95.9439,101.32 L 95.8583,101.488 L 95.7624,101.651 L 95.6565,101.806 L 95.541,101.955
 L 95.4163,102.097 L 95.2831,102.23 L 95.1417,102.355 L 94.617,102.772 L 93.845,103.366 L 93.2137,103.833
 L 92.5743,104.289 L 91.7711,104.84 L 91.1162,105.273 L 90.4538,105.695 L 89.7842,106.105 L 88.9453,106.6
 L 88.2617,106.987 L 87.5715,107.362 L 86.8748,107.724 L 86.7069,107.81 L 86.004,108.16 L 85.2951,108.498
 L 84.5805,108.824 L 83.6873,109.212 L 82.9617,109.513 L 82.2309,109.8 L 81.4953,110.075 L 80.5776,110.401
 L 79.8328,110.651 L 79.0838,110.887 L 78.1497,111.163 L 77.3929,111.372 L 76.6325,111.569 L 75.8689,111.752
 L 74.9182,111.963 L 74.1485,112.12 L 73.3763,112.263 L 72.6017,112.393 L 72.4155,112.422 L 71.6388,112.538
 L 70.8601,112.641 L 70.0798,112.73 L 69.1104,112.823 L 68.3274,112.884 L 67.5435,112.932 L 66.7588,112.967
 L 65.7854,112.993 L 65,113 z
M 116.9,36.7489 L 116.779,36.7404 L 116.658,36.7234 L 116.538,36.698 L 116.421,36.6644 L 116.306,36.6226
 L 116.194,36.5729 L 116.087,36.5155 L 115.983,36.4508 L 115.884,36.379 L 115.791,36.3005 L 115.703,36.2157
 L 115.621,36.1249 L 115.546,36.0286 L 115.477,35.9274 L 115.416,35.8216 L 115.363,35.7118 L 115.317,35.5985
 L 115.279,35.4824 L 115.25,35.3638 L 115.229,35.2436 L 115.216,35.1221 L 115.212,35 L 115.216,34.8779
 L 115.229,34.7565 L 115.25,34.6362 L 115.279,34.5176 L 115.317,34.4015 L 115.363,34.2882 L 115.416,34.1784
 L 115.477,34.0726 L 115.546,33.9714 L 115.621,33.8751 L 115.703,33.7844 L 115.791,33.6995 L 115.884,33.621
 L 115.983,33.5492 L 116.087,33.4845 L 116.194,33.4271 L 116.306,33.3774 L 116.421,33.3357 L 116.538,33.302
 L 116.658,33.2766 L 116.779,33.2596 L 116.9,33.2511 L 117.023,33.2511 L 117.144,33.2596 L 117.265,33.2766
 L 117.385,33.302 L 117.502,33.3357 L 117.617,33.3774 L 117.729,33.4271 L 117.837,33.4845 L 117.94,33.5492
 L 118.039,33.621 L 118.132,33.6995 L 118.22,33.7844 L 118.302,33.8751 L 118.377,33.9714 L 118.446,34.0726
 L 118.507,34.1784 L 118.56,34.2882 L 118.606,34.4015 L 118.644,34.5176 L 118.673,34.6362 L 118.694,34.7565
 L 118.707,34.8779 L 118.712,35 L 118.707,35.1221 L 118.694,35.2436 L 118.673,35.3638 L 118.644,35.4824
 L 118.606,35.5985 L 118.56,35.7118 L 118.507,35.8216 L 118.446,35.9274 L 118.377,36.0286 L 118.302,36.1249
 L 118.22,36.2157 L 118.132,36.3005 L 118.039,36.379 L 117.94,36.4508 L 117.837,36.5155 L 117.729,36.5729
 L 117.617,36.6226 L 117.502,36.6644 L 117.385,36.698 L 117.265,36.7234 L 117.144,36.7404 L 117.023,36.7489
 z
M 12.9774,36.7489 L 12.8556,36.7404 L 12.7346,36.7234 L 12.6151,36.698 L 12.4977,36.6644 L 12.3829,36.6226
 L 12.2713,36.5729 L 12.1635,36.5155 L 12.0599,36.4508 L 11.9611,36.379 L 11.8675,36.3005 L 11.7796,36.2157
 L 11.6979,36.1249 L 11.6227,36.0286 L 11.5544,35.9274 L 11.4933,35.8216 L 11.4398,35.7118 L 11.394,35.5985
 L 11.3563,35.4824 L 11.3267,35.3638 L 11.3055,35.2436 L 11.2927,35.1221 L 11.2885,35 L 11.2927,34.8779
 L 11.3055,34.7565 L 11.3267,34.6362 L 11.3563,34.5176 L 11.394,34.4015 L 11.4398,34.2882 L 11.4933,34.1784
 L 11.5544,34.0726 L 11.6227,33.9714 L 11.6979,33.8751 L 11.7796,33.7844 L 11.8675,33.6995 L 11.9611,33.621
 L 12.0599,33.5492 L 12.1635,33.4845 L 12.2713,33.4271 L 12.3829,33.3774 L 12.4977,33.3357 L 12.6151,33.302
 L 12.7346,33.2766 L 12.8556,33.2596 L 12.9774,33.2511 L 13.0996,33.2511 L 13.2214,33.2596 L 13.3424,33.2766
 L 13.4619,33.302 L 13.5793,33.3357 L 13.694,33.3774 L 13.8056,33.4271 L 13.9135,33.4845 L 14.0171,33.5492
 L 14.1159,33.621 L 14.2095,33.6995 L 14.2973,33.7844 L 14.3791,33.8751 L 14.4543,33.9714 L 14.5226,34.0726
 L 14.5836,34.1784 L 14.6372,34.2882 L 14.683,34.4015 L 14.7207,34.5176 L 14.7502,34.6362 L 14.7715,34.7565
 L 14.7842,34.8779 L 14.7885,35 L 14.7842,35.1221 L 14.7715,35.2436 L 14.7502,35.3638 L 14.7207,35.4824
 L 14.683,35.5985 L 14.6372,35.7118 L 14.5836,35.8216 L 14.5226,35.9274 L 14.4543,36.0286 L 14.3791,36.1249
 L 14.2973,36.2157 L 14.2095,36.3005 L 14.1159,36.379 L 14.0171,36.4508 L 13.9135,36.5155 L 13.8056,36.5729
 L 13.694,36.6226 L 13.5793,36.6644 L 13.4619,36.698 L 13.3424,36.7234 L 13.2214,36.7404 L 13.0996,36.7489
 z
M 93.9389,42.2489 L 93.8171,42.2404 L 93.6961,42.2234 L 93.5766,42.198 L 93.4592,42.1644 L 93.3444,42.1226
 L 93.2328,42.0729 L 93.125,42.0155 L 93.0214,41.9508 L 92.9226,41.879 L 92.829,41.8005 L 92.7411,41.7157
 L 92.6594,41.6249 L 92.5842,41.5286 L 92.5159,41.4274 L 92.4548,41.3216 L 92.4013,41.2118 L 92.3555,41.0985
 L 92.3178,40.9824 L 92.2882,40.8638 L 92.267,40.7436 L 92.2543,40.6221 L 92.25,40.5 L 92.2543,40.3779
 L 92.267,40.2565 L 92.2882,40.1362 L 92.3178,40.0176 L 92.3555,39.9015 L 92.4013,39.7882 L 92.4548,39.6784
 L 92.5159,39.5726 L 92.5842,39.4714 L 92.6594,39.3751 L 92.7411,39.2844 L 92.829,39.1995 L 92.9226,39.121
 L 93.0214,39.0492 L 93.125,38.9845 L 93.2328,38.9271 L 93.3444,38.8774 L 93.4592,38.8357 L 93.5766,38.802
 L 93.6961,38.7766 L 93.8171,38.7596 L 93.9389,38.7511 L 94.0611,38.7511 L 94.1829,38.7596 L 94.3039,38.7766
 L 94.4234,38.802 L 94.5408,38.8357 L 94.6555,38.8774 L 94.7671,38.9271 L 94.875,38.9845 L 94.9786,39.0492
 L 95.0774,39.121 L 95.171,39.1995 L 95.2588,39.2844 L 95.3406,39.3751 L 95.4158,39.4714 L 95.4841,39.5726
 L 95.5452,39.6784 L 95.5987,39.7882 L 95.6445,39.9015 L 95.6822,40.0176 L 95.7117,40.1362 L 95.733,40.2565
 L 95.7457,40.3779 L 95.75,40.5 L 95.7457,40.6221 L 95.733,40.7436 L 95.7117,40.8638 L 95.6822,40.9824
 L 95.6445,41.0985 L 95.5987,41.2118 L 95.5452,41.3216 L 95.4841,41.4274 L 95.4158,41.5286 L 95.3406,41.6249
 L 95.2588,41.7157 L 95.171,41.8005 L 95.0774,41.879 L 94.9786,41.9508 L 94.875,42.0155 L 94.7671,42.0729
 L 94.6555,42.1226 L 94.5408,42.1644 L 94.4234,42.198 L 94.3039,42.2234 L 94.1829,42.2404 L 94.0611,42.2489
 z
M 35.9389,42.2489 L 35.8171,42.2404 L 35.6961,42.2234 L 35.5766,42.198 L 35.4592,42.1644 L 35.3445,42.1226
 L 35.2329,42.0729 L 35.125,42.0155 L 35.0214,41.9508 L 34.9226,41.879 L 34.829,41.8005 L 34.7412,41.7157
 L 34.6594,41.6249 L 34.5842,41.5286 L 34.5159,41.4274 L 34.4548,41.3216 L 34.4013,41.2118 L 34.3555,41.0985
 L 34.3178,40.9824 L 34.2883,40.8638 L 34.267,40.7436 L 34.2543,40.6221 L 34.25,40.5 L 34.2543,40.3779
 L 34.267,40.2565 L 34.2883,40.1362 L 34.3178,40.0176 L 34.3555,39.9015 L 34.4013,39.7882 L 34.4548,39.6784
 L 34.5159,39.5726 L 34.5842,39.4714 L 34.6594,39.3751 L 34.7412,39.2844 L 34.829,39.1995 L 34.9226,39.121
 L 35.0214,39.0492 L 35.125,38.9845 L 35.2329,38.9271 L 35.3445,38.8774 L 35.4592,38.8357 L 35.5766,38.802
 L 35.6961,38.7766 L 35.8171,38.7596 L 35.9389,38.7511 L 36.0611,38.7511 L 36.1829,38.7596 L 36.3039,38.7766
 L 36.4234,38.802 L 36.5408,38.8357 L 36.6556,38.8774 L 36.7672,38.9271 L 36.875,38.9845 L 36.9786,39.0492
 L 37.0774,39.121 L 37.171,39.1995 L 37.2589,39.2844 L 37.3406,39.3751 L 37.4158,39.4714 L 37.4841,39.5726
 L 37.5452,39.6784 L 37.5987,39.7882 L 37.6445,39.9015 L 37.6822,40.0176 L 37.7118,40.1362 L 37.733,40.2565
 L 37.7457,40.3779 L 37.75,40.5 L 37.7457,40.6221 L 37.733,40.7436 L 37.7118,40.8638 L 37.6822,40.9824
 L 37.6445,41.0985 L 37.5987,41.2118 L 37.5452,41.3216 L 37.4841,41.4274 L 37.4158,41.5286 L 37.3406,41.6249
 L 37.2589,41.7157 L 37.171,41.8005 L 37.0774,41.879 L 36.9786,41.9508 L 36.875,42.0155 L 36.7672,42.0729
 L 36.6556,42.1226 L 36.5408,42.1644 L 36.4234,42.198 L 36.3039,42.2234 L 36.1829,42.2404 L 36.0611,42.2489
 z
M 21,69 L 20.8604,68.9976 L 20.721,68.9902 L 20.5819,68.9781 L 20.4433,68.9611 L 20.3054,68.9392
 L 20.1684,68.9126 L 20.0323,68.8812 L 19.8975,68.845 L 19.7639,68.8042 L 19.6319,68.7588 L 19.5016,68.7087
 L 19.3731,68.6542 L 19.2465,68.5952 L 19.1221,68.5318 L 19,68.4641 L 18.8803,68.3922 L 18.7632,68.3161
 L 18.6489,68.2361 L 18.5374,68.152 L 18.4289,68.0642 L 18.3235,67.9726 L 18.2214,67.8773 L 18.1227,67.7786
 L 18.0274,67.6765 L 17.9358,67.5711 L 17.848,67.4626 L 17.7639,67.3511 L 17.6839,67.2368 L 17.6078,67.1197
 L 17.5359,67 L 17.4682,66.8779 L 17.4048,66.7535 L 17.3458,66.6269 L 17.2913,66.4984 L 17.2412,66.3681
 L 17.1958,66.2361 L 17.155,66.1025 L 17.1188,65.9677 L 17.0874,65.8316 L 17.0608,65.6946 L 17.0389,65.5567
 L 17.0219,65.4181 L 17.0098,65.279 L 17.0024,65.1396 L 17,65 L 17.0024,64.8604 L 17.0098,64.721
 L 17.0219,64.5819 L 17.0389,64.4433 L 17.0608,64.3054 L 17.0874,64.1684 L 17.1188,64.0323 L 17.155,63.8975
 L 17.1958,63.7639 L 17.2412,63.6319 L 17.2913,63.5016 L 17.3458,63.3731 L 17.4048,63.2465 L 17.4682,63.1221
 L 17.5359,63 L 17.6078,62.8803 L 17.6839,62.7632 L 17.7639,62.6489 L 17.848,62.5374 L 17.9358,62.4289
 L 18.0274,62.3235 L 18.1227,62.2214 L 18.2214,62.1227 L 18.3235,62.0274 L 18.4289,61.9358 L 18.5374,61.848
 L 18.6489,61.7639 L 18.7632,61.6839 L 18.8803,61.6078 L 19,61.5359 L 19.1221,61.4682 L 19.2465,61.4048
 L 19.3731,61.3458 L 19.5016,61.2913 L 19.6319,61.2412 L 19.7639,61.1958 L 19.8975,61.155 L 20.0323,61.1188
 L 20.1684,61.0874 L 20.3054,61.0608 L 20.4433,61.0389 L 20.5819,61.0219 L 20.721,61.0098 L 20.8604,61.0024
 L 21,61 L 21.1396,61.0024 L 21.279,61.0098 L 21.4181,61.0219 L 21.5567,61.0389 L 21.6946,61.0608
 L 21.8316,61.0874 L 21.9677,61.1188 L 22.1026,61.155 L 22.2361,61.1958 L 22.3681,61.2412 L 22.4984,61.2913
 L 22.627,61.3458 L 22.7535,61.4048 L 22.8779,61.4682 L 23,61.5359 L 23.1197,61.6078 L 23.2368,61.6839
 L 23.3512,61.7639 L 23.4626,61.848 L 23.5712,61.9358 L 23.6765,62.0274 L 23.7786,62.1227 L 23.8774,62.2214
 L 23.9726,62.3235 L 24.0642,62.4289 L 24.1521,62.5374 L 24.2361,62.6489 L 24.3162,62.7632 L 24.3922,62.8803
 L 24.4641,63 L 24.5318,63.1221 L 24.5952,63.2465 L 24.6542,63.3731 L 24.7087,63.5016 L 24.7588,63.6319
 L 24.8042,63.7639 L 24.845,63.8975 L 24.8812,64.0323 L 24.9126,64.1684 L 24.9392,64.3054 L 24.9611,64.4433
 L 24.9781,64.5819 L 24.9903,64.721 L 24.9976,64.8604 L 25,65 L 24.9976,65.1396 L 24.9903,65.279
 L 24.9781,65.4181 L 24.9611,65.5567 L 24.9392,65.6946 L 24.9126,65.8316 L 24.8812,65.9677 L 24.845,66.1025
 L 24.8042,66.2361 L 24.7588,66.3681 L 24.7087,66.4984 L 24.6542,66.6269 L 24.5952,66.7535 L 24.5318,66.8779
 L 24.4641,67 L 24.3922,67.1197 L 24.3162,67.2368 L 24.2361,67.3511 L 24.1521,67.4626 L 24.0642,67.5711
 L 23.9726,67.6765 L 23.8774,67.7786 L 23.7786,67.8773 L 23.6765,67.9726 L 23.5712,68.0642 L 23.4626,68.152
 L 23.3512,68.2361 L 23.2368,68.3161 L 23.1197,68.3922 L 23,68.4641 L 22.8779,68.5318 L 22.7535,68.5952
 L 22.627,68.6542 L 22.4984,68.7087 L 22.3681,68.7588 L 22.2361,68.8042 L 22.1026,68.845 L 21.9677,68.8812
 L 21.8316,68.9126 L 21.6946,68.9392 L 21.5567,68.9611 L 21.4181,68.9781 L 21.279,68.9902 L 21.1396,68.9976
 z
M 124.939,66.7489 L 124.817,66.7404 L 124.696,66.7234 L 124.577,66.698 L 124.459,66.6643 L 124.344,66.6226
 L 124.233,66.5729 L 124.125,66.5155 L 124.021,66.4508 L 123.923,66.379 L 123.829,66.3005 L 123.741,66.2156
 L 123.659,66.1249 L 123.584,66.0286 L 123.516,65.9274 L 123.455,65.8216 L 123.401,65.7118 L 123.356,65.5985
 L 123.318,65.4824 L 123.288,65.3638 L 123.267,65.2435 L 123.254,65.1221 L 123.25,65 L 123.254,64.8779
 L 123.267,64.7565 L 123.288,64.6362 L 123.318,64.5176 L 123.356,64.4015 L 123.401,64.2882 L 123.455,64.1784
 L 123.516,64.0726 L 123.584,63.9714 L 123.659,63.8751 L 123.741,63.7844 L 123.829,63.6995 L 123.923,63.621
 L 124.021,63.5492 L 124.125,63.4845 L 124.233,63.4271 L 124.344,63.3774 L 124.459,63.3357 L 124.577,63.302
 L 124.696,63.2766 L 124.817,63.2596 L 124.939,63.2511 L 125.061,63.2511 L 125.183,63.2596 L 125.304,63.2766
 L 125.423,63.302 L 125.541,63.3357 L 125.656,63.3774 L 125.767,63.4271 L 125.875,63.4845 L 125.979,63.5492
 L 126.077,63.621 L 126.171,63.6995 L 126.259,63.7844 L 126.341,63.8751 L 126.416,63.9714 L 126.484,64.0726
 L 126.545,64.1784 L 126.599,64.2882 L 126.644,64.4015 L 126.682,64.5176 L 126.712,64.6362 L 126.733,64.7565
 L 126.746,64.8779 L 126.75,65 L 126.746,65.1221 L 126.733,65.2435 L 126.712,65.3638 L 126.682,65.4824
 L 126.644,65.5985 L 126.599,65.7118 L 126.545,65.8216 L 126.484,65.9274 L 126.416,66.0286 L 126.341,66.1249
 L 126.259,66.2156 L 126.171,66.3005 L 126.077,66.379 L 125.979,66.4508 L 125.875,66.5155 L 125.767,66.5729
 L 125.656,66.6226 L 125.541,66.6643 L 125.423,66.698 L 125.304,66.7234 L 125.183,66.7404 L 125.061,66.7489
 z
M 4.93893,66.7489 L 4.81708,66.7404 L 4.69612,66.7234 L 4.57664,66.698 L 4.45923,66.6643 L 4.34445,66.6226
 L 4.23286,66.5729 L 4.125,66.5155 L 4.02142,66.4508 L 3.92261,66.379 L 3.82903,66.3005 L 3.74117,66.2156
 L 3.65942,66.1249 L 3.58423,66.0286 L 3.51593,65.9274 L 3.45485,65.8216 L 3.40131,65.7118 L 3.35555,65.5985
 L 3.31779,65.4824 L 3.28825,65.3638 L 3.26704,65.2435 L 3.25427,65.1221 L 3.25,65 L 3.25427,64.8779
 L 3.26704,64.7565 L 3.28825,64.6362 L 3.31779,64.5176 L 3.35555,64.4015 L 3.40131,64.2882 L 3.45485,64.1784
 L 3.51593,64.0726 L 3.58423,63.9714 L 3.65942,63.8751 L 3.74117,63.7844 L 3.82903,63.6995 L 3.92261,63.621
 L 4.02142,63.5492 L 4.125,63.4845 L 4.23286,63.4271 L 4.34445,63.3774 L 4.45923,63.3357 L 4.57664,63.302
 L 4.69612,63.2766 L 4.81708,63.2596 L 4.93893,63.2511 L 5.06108,63.2511 L 5.18294,63.2596 L 5.30389,63.2766
 L 5.42337,63.302 L 5.54079,63.3357 L 5.65556,63.3774 L 5.76715,63.4271 L 5.875,63.4845 L 5.97859,63.5492
 L 6.07741,63.621 L 6.17099,63.6995 L 6.25885,63.7844 L 6.34059,63.8751 L 6.41579,63.9714 L 6.48409,64.0726
 L 6.54517,64.1784 L 6.59871,64.2882 L 6.64447,64.4015 L 6.68222,64.5176 L 6.71176,64.6362 L 6.73297,64.7565
 L 6.74574,64.8779 L 6.75,65 L 6.74574,65.1221 L 6.73297,65.2435 L 6.71176,65.3638 L 6.68222,65.4824
 L 6.64447,65.5985 L 6.59871,65.7118 L 6.54517,65.8216 L 6.48409,65.9274 L 6.41579,66.0286 L 6.34059,66.1249
 L 6.25885,66.2156 L 6.17099,66.3005 L 6.07741,66.379 L 5.97859,66.4508 L 5.875,66.5155 L 5.76715,66.5729
 L 5.65556,66.6226 L 5.54079,66.6643 L 5.42337,66.698 L 5.30389,66.7234 L 5.18294,66.7404 L 5.06108,66.7489
 z
M 93.9389,91.2489 L 93.8171,91.2404 L 93.6961,91.2234 L 93.5766,91.198 L 93.4592,91.1643 L 93.3444,91.1226
 L 93.2328,91.0729 L 93.125,91.0155 L 93.0214,90.9508 L 92.9226,90.879 L 92.829,90.8005 L 92.7411,90.7156
 L 92.6594,90.6249 L 92.5842,90.5286 L 92.5159,90.4274 L 92.4548,90.3216 L 92.4013,90.2118 L 92.3555,90.0985
 L 92.3178,89.9824 L 92.2882,89.8638 L 92.267,89.7435 L 92.2543,89.6221 L 92.25,89.5 L 92.2543,89.3779
 L 92.267,89.2564 L 92.2882,89.1362 L 92.3178,89.0176 L 92.3555,88.9015 L 92.4013,88.7882 L 92.4548,88.6784
 L 92.5159,88.5726 L 92.5842,88.4714 L 92.6594,88.3751 L 92.7411,88.2843 L 92.829,88.1995 L 92.9226,88.121
 L 93.0214,88.0492 L 93.125,87.9845 L 93.2328,87.9271 L 93.3444,87.8774 L 93.4592,87.8356 L 93.5766,87.802
 L 93.6961,87.7766 L 93.8171,87.7596 L 93.9389,87.7511 L 94.0611,87.7511 L 94.1829,87.7596 L 94.3039,87.7766
 L 94.4234,87.802 L 94.5408,87.8356 L 94.6555,87.8774 L 94.7671,87.9271 L 94.875,87.9845 L 94.9786,88.0492
 L 95.0774,88.121 L 95.171,88.1995 L 95.2588,88.2843 L 95.3406,88.3751 L 95.4158,88.4714 L 95.4841,88.5726
 L 95.5452,88.6784 L 95.5987,88.7882 L 95.6445,88.9015 L 95.6822,89.0176 L 95.7117,89.1362 L 95.733,89.2564
 L 95.7457,89.3779 L 95.75,89.5 L 95.7457,89.6221 L 95.733,89.7435 L 95.7117,89.8638 L 95.6822,89.9824
 L 95.6445,90.0985 L 95.5987,90.2118 L 95.5452,90.3216 L 95.4841,90.4274 L 95.4158,90.5286 L 95.3406,90.6249
 L 95.2588,90.7156 L 95.171,90.8005 L 95.0774,90.879 L 94.9786,90.9508 L 94.875,91.0155 L 94.7671,91.0729
 L 94.6555,91.1226 L 94.5408,91.1643 L 94.4234,91.198 L 94.3039,91.2234 L 94.1829,91.2404 L 94.0611,91.2489
 z
M 35.9389,91.2489 L 35.8171,91.2404 L 35.6961,91.2234 L 35.5766,91.198 L 35.4592,91.1643 L 35.3445,91.1226
 L 35.2329,91.0729 L 35.125,91.0155 L 35.0214,90.9508 L 34.9226,90.879 L 34.829,90.8005 L 34.7412,90.7156
 L 34.6594,90.6249 L 34.5842,90.5286 L 34.5159,90.4274 L 34.4548,90.3216 L 34.4013,90.2118 L 34.3555,90.0985
 L 34.3178,89.9824 L 34.2883,89.8638 L 34.267,89.7435 L 34.2543,89.6221 L 34.25,89.5 L 34.2543,89.3779
 L 34.267,89.2564 L 34.2883,89.1362 L 34.3178,89.0176 L 34.3555,88.9015 L 34.4013,88.7882 L 34.4548,88.6784
 L 34.5159,88.5726 L 34.5842,88.4714 L 34.6594,88.3751 L 34.7412,88.2843 L 34.829,88.1995 L 34.9226,88.121
 L 35.0214,88.0492 L 35.125,87.9845 L 35.2329,87.9271 L 35.3445,87.8774 L 35.4592,87.8356 L 35.5766,87.802
 L 35.6961,87.7766 L 35.8171,87.7596 L 35.9389,87.7511 L 36.0611,87.7511 L 36.1829,87.7596 L 36.3039,87.7766
 L 36.4234,87.802 L 36.5408,87.8356 L 36.6556,87.8774 L 36.7672,87.9271 L 36.875,87.9845 L 36.9786,88.0492
 L 37.0774,88.121 L 37.171,88.1995 L 37.2589,88.2843 L 37.3406,88.3751 L 37.4158,88.4714 L 37.4841,88.5726
 L 37.5452,88.6784 L 37.5987,88.7882 L 37.6445,88.9015 L 37.6822,89.0176 L 37.7118,89.1362 L 37.733,89.2564
 L 37.7457,89.3779 L 37.75,89.5 L 37.7457,89.6221 L 37.733,89.7435 L 37.7118,89.8638 L 37.6822,89.9824
 L 37.6445,90.0985 L 37.5987,90.2118 L 37.5452,90.3216 L 37.4841,90.4274 L 37.4158,90.5286 L 37.3406,90.6249
 L 37.2589,90.7156 L 37.171,90.8005 L 37.0774,90.879 L 36.9786,90.9508 L 36.875,91.0155 L 36.7672,91.0729
 L 36.6556,91.1226 L 36.5408,91.1643 L 36.4234,91.198 L 36.3039,91.2234 L 36.1829,91.2404 L 36.0611,91.2489
 z
M 12.9774,96.7489 L 12.8556,96.7404 L 12.7346,96.7234 L 12.6151,96.698 L 12.4977,96.6643 L 12.3829,96.6226
 L 12.2713,96.5729 L 12.1635,96.5155 L 12.0599,96.4508 L 11.9611,96.379 L 11.8675,96.3005 L 11.7796,96.2156
 L 11.6979,96.1249 L 11.6227,96.0286 L 11.5544,95.9274 L 11.4933,95.8216 L 11.4398,95.7118 L 11.394,95.5985
 L 11.3563,95.4824 L 11.3267,95.3638 L 11.3055,95.2435 L 11.2927,95.1221 L 11.2885,95 L 11.2927,94.8779
 L 11.3055,94.7564 L 11.3267,94.6362 L 11.3563,94.5176 L 11.394,94.4015 L 11.4398,94.2882 L 11.4933,94.1784
 L 11.5544,94.0726 L 11.6227,93.9714 L 11.6979,93.8751 L 11.7796,93.7843 L 11.8675,93.6995 L 11.9611,93.621
 L 12.0599,93.5492 L 12.1635,93.4845 L 12.2713,93.4271 L 12.3829,93.3774 L 12.4977,93.3356 L 12.6151,93.302
 L 12.7346,93.2766 L 12.8556,93.2596 L 12.9774,93.2511 L 13.0996,93.2511 L 13.2214,93.2596 L 13.3424,93.2766
 L 13.4619,93.302 L 13.5793,93.3356 L 13.694,93.3774 L 13.8056,93.4271 L 13.9135,93.4845 L 14.0171,93.5492
 L 14.1159,93.621 L 14.2095,93.6995 L 14.2973,93.7843 L 14.3791,93.8751 L 14.4543,93.9714 L 14.5226,94.0726
 L 14.5836,94.1784 L 14.6372,94.2882 L 14.683,94.4015 L 14.7207,94.5176 L 14.7502,94.6362 L 14.7715,94.7564
 L 14.7842,94.8779 L 14.7885,95 L 14.7842,95.1221 L 14.7715,95.2435 L 14.7502,95.3638 L 14.7207,95.4824
 L 14.683,95.5985 L 14.6372,95.7118 L 14.5836,95.8216 L 14.5226,95.9274 L 14.4543,96.0286 L 14.3791,96.1249
 L 14.2973,96.2156 L 14.2095,96.3005 L 14.1159,96.379 L 14.0171,96.4508 L 13.9135,96.5155 L 13.8056,96.5729
 L 13.694,96.6226 L 13.5793,96.6643 L 13.4619,96.698 L 13.3424,96.7234 L 13.2214,96.7404 L 13.0996,96.7489
 z
M 116.9,96.7489 L 116.779,96.7404 L 116.658,96.7234 L 116.538,96.698 L 116.421,96.6643 L 116.306,96.6226
 L 116.194,96.5729 L 116.087,96.5155 L 115.983,96.4508 L 115.884,96.379 L 115.791,96.3005 L 115.703,96.2156
 L 115.621,96.1249 L 115.546,96.0286 L 115.477,95.9274 L 115.416,95.8216 L 115.363,95.7118 L 115.317,95.5985
 L 115.279,95.4824 L 115.25,95.3638 L 115.229,95.2435 L 115.216,95.1221 L 115.212,95 L 115.216,94.8779
 L 115.229,94.7564 L 115.25,94.6362 L 115.279,94.5176 L 115.317,94.4015 L 115.363,94.2882 L 115.416,94.1784
 L 115.477,94.0726 L 115.546,93.9714 L 115.621,93.8751 L 115.703,93.7843 L 115.791,93.6995 L 115.884,93.621
 L 115.983,93.5492 L 116.087,93.4845 L 116.194,93.4271 L 116.306,93.3774 L 116.421,93.3356 L 116.538,93.302
 L 116.658,93.2766 L 116.779,93.2596 L 116.9,93.2511 L 117.023,93.2511 L 117.144,93.2596 L 117.265,93.2766
 L 117.385,93.302 L 117.502,93.3356 L 117.617,93.3774 L 117.729,93.4271 L 117.837,93.4845 L 117.94,93.5492
 L 118.039,93.621 L 118.132,93.6995 L 118.22,93.7843 L 118.302,93.8751 L 118.377,93.9714 L 118.446,94.0726
 L 118.507,94.1784 L 118.56,94.2882 L 118.606,94.4015 L 118.644,94.5176 L 118.673,94.6362 L 118.694,94.7564
 L 118.707,94.8779 L 118.712,95 L 118.707,95.1221 L 118.694,95.2435 L 118.673,95.3638 L 118.644,95.4824
 L 118.606,95.5985 L 118.56,95.7118 L 118.507,95.8216 L 118.446,95.9274 L 118.377,96.0286 L 118.302,96.1249
 L 118.22,96.2156 L 118.132,96.3005 L 118.039,96.379 L 117.94,96.4508 L 117.837,96.5155 L 117.729,96.5729
 L 117.617,96.6226 L 117.502,96.6643 L 117.385,96.698 L 117.265,96.7234 L 117.144,96.7404 L 117.023,96.7489
 z
M 34.9389,118.71 L 34.8171,118.702 L 34.6961,118.685 L 34.5766,118.66 L 34.4592,118.626 L 34.3445,118.584
 L 34.2329,118.534 L 34.125,118.477 L 34.0214,118.412 L 33.9226,118.341 L 33.829,118.262 L 33.7412,118.177
 L 33.6594,118.086 L 33.5842,117.99 L 33.5159,117.889 L 33.4548,117.783 L 33.4013,117.673 L 33.3555,117.56
 L 33.3178,117.444 L 33.2883,117.325 L 33.267,117.205 L 33.2543,117.084 L 33.25,116.962 L 33.2543,116.839
 L 33.267,116.718 L 33.2883,116.598 L 33.3178,116.479 L 33.3555,116.363 L 33.4013,116.25 L 33.4548,116.14
 L 33.5159,116.034 L 33.5842,115.933 L 33.6594,115.837 L 33.7412,115.746 L 33.829,115.661 L 33.9226,115.583
 L 34.0214,115.511 L 34.125,115.446 L 34.2329,115.389 L 34.3445,115.339 L 34.4592,115.297 L 34.5766,115.264
 L 34.6961,115.238 L 34.8171,115.221 L 34.9389,115.213 L 35.0611,115.213 L 35.1829,115.221 L 35.3039,115.238
 L 35.4234,115.264 L 35.5408,115.297 L 35.6556,115.339 L 35.7672,115.389 L 35.875,115.446 L 35.9786,115.511
 L 36.0774,115.583 L 36.171,115.661 L 36.2589,115.746 L 36.3406,115.837 L 36.4158,115.933 L 36.4841,116.034
 L 36.5452,116.14 L 36.5987,116.25 L 36.6445,116.363 L 36.6822,116.479 L 36.7118,116.598 L 36.733,116.718
 L 36.7457,116.839 L 36.75,116.962 L 36.7457,117.084 L 36.733,117.205 L 36.7118,117.325 L 36.6822,117.444
 L 36.6445,117.56 L 36.5987,117.673 L 36.5452,117.783 L 36.4841,117.889 L 36.4158,117.99 L 36.3406,118.086
 L 36.2589,118.177 L 36.171,118.262 L 36.0774,118.341 L 35.9786,118.412 L 35.875,118.477 L 35.7672,118.534
 L 35.6556,118.584 L 35.5408,118.626 L 35.4234,118.66 L 35.3039,118.685 L 35.1829,118.702 L 35.0611,118.71
 z
M 94.9389,118.71 L 94.8171,118.702 L 94.6961,118.685 L 94.5766,118.66 L 94.4592,118.626 L 94.3444,118.584
 L 94.2328,118.534 L 94.125,118.477 L 94.0214,118.412 L 93.9226,118.341 L 93.829,118.262 L 93.7411,118.177
 L 93.6594,118.086 L 93.5842,117.99 L 93.5159,117.889 L 93.4548,117.783 L 93.4013,117.673 L 93.3555,117.56
 L 93.3178,117.444 L 93.2882,117.325 L 93.267,117.205 L 93.2543,117.084 L 93.25,116.962 L 93.2543,116.839
 L 93.267,116.718 L 93.2882,116.598 L 93.3178,116.479 L 93.3555,116.363 L 93.4013,116.25 L 93.4548,116.14
 L 93.5159,116.034 L 93.5842,115.933 L 93.6594,115.837 L 93.7411,115.746 L 93.829,115.661 L 93.9226,115.583
 L 94.0214,115.511 L 94.125,115.446 L 94.2328,115.389 L 94.3444,115.339 L 94.4592,115.297 L 94.5766,115.264
 L 94.6961,115.238 L 94.8171,115.221 L 94.9389,115.213 L 95.0611,115.213 L 95.1829,115.221 L 95.3039,115.238
 L 95.4234,115.264 L 95.5408,115.297 L 95.6555,115.339 L 95.7671,115.389 L 95.875,115.446 L 95.9786,115.511
 L 96.0774,115.583 L 96.171,115.661 L 96.2588,115.746 L 96.3406,115.837 L 96.4158,115.933 L 96.4841,116.034
 L 96.5452,116.14 L 96.5987,116.25 L 96.6445,116.363 L 96.6822,116.479 L 96.7117,116.598 L 96.733,116.718
 L 96.7457,116.839 L 96.75,116.962 L 96.7457,117.084 L 96.733,117.205 L 96.7117,117.325 L 96.6822,117.444
 L 96.6445,117.56 L 96.5987,117.673 L 96.5452,117.783 L 96.4841,117.889 L 96.4158,117.99 L 96.3406,118.086
 L 96.2588,118.177 L 96.171,118.262 L 96.0774,118.341 L 95.9786,118.412 L 95.875,118.477 L 95.7671,118.534
 L 95.6555,118.584 L 95.5408,118.626 L 95.4234,118.66 L 95.3039,118.685 L 95.1829,118.702 L 95.0611,118.71
 z
M 64.9389,126.749 L 64.8171,126.74 L 64.6961,126.723 L 64.5766,126.698 L 64.4592,126.664 L 64.3445,126.623
 L 64.2329,126.573 L 64.125,126.516 L 64.0214,126.451 L 63.9226,126.379 L 63.829,126.3 L 63.7412,126.216
 L 63.6594,126.125 L 63.5842,126.029 L 63.5159,125.927 L 63.4548,125.822 L 63.4013,125.712 L 63.3555,125.599
 L 63.3178,125.482 L 63.2883,125.364 L 63.267,125.244 L 63.2543,125.122 L 63.25,125 L 63.2543,124.878
 L 63.267,124.756 L 63.2883,124.636 L 63.3178,124.518 L 63.3555,124.401 L 63.4013,124.288 L 63.4548,124.178
 L 63.5159,124.073 L 63.5842,123.971 L 63.6594,123.875 L 63.7412,123.784 L 63.829,123.699 L 63.9226,123.621
 L 64.0214,123.549 L 64.125,123.484 L 64.2329,123.427 L 64.3445,123.377 L 64.4592,123.336 L 64.5766,123.302
 L 64.6961,123.277 L 64.8171,123.26 L 64.9389,123.251 L 65.0611,123.251 L 65.1829,123.26 L 65.3039,123.277
 L 65.4234,123.302 L 65.5408,123.336 L 65.6555,123.377 L 65.7671,123.427 L 65.875,123.484 L 65.9786,123.549
 L 66.0774,123.621 L 66.171,123.699 L 66.2588,123.784 L 66.3406,123.875 L 66.4158,123.971 L 66.4841,124.073
 L 66.5452,124.178 L 66.5987,124.288 L 66.6445,124.401 L 66.6822,124.518 L 66.7117,124.636 L 66.733,124.756
 L 66.7457,124.878 L 66.75,125 L 66.7457,125.122 L 66.733,125.244 L 66.7117,125.364 L 66.6822,125.482
 L 66.6445,125.599 L 66.5987,125.712 L 66.5452,125.822 L 66.4841,125.927 L 66.4158,126.029 L 66.3406,126.125
 L 66.2588,126.216 L 66.171,126.3 L 66.0774,126.379 L 65.9786,126.451 L 65.875,126.516 L 65.7671,126.573
 L 65.6555,126.623 L 65.5408,126.664 L 65.4234,126.698 L 65.3039,126.723 L 65.1829,126.74 L 65.0611,126.749
 z
" stroke="black" fill="lightgray" stroke-width="0.5"/></svg>
