<?xml version="1.0" standalone="no"?>
<!DOCTYPE svg PUBLIC "-//W3C//DTD SVG 1.1//EN" "http://www.w3.org/Graphics/SVG/1.1/DTD/svg11.dtd">
<svg width="116mm" height="116mm" viewBox="0 0 116 116" xmlns="http://www.w3.org/2000/svg" version="1.1">
<title>OpenSCAD Model</title>
<path d="
M 59.0122,115.991 L 60.0242,115.965 L 61.0355,115.921 L 62.0459,115.859 L 63.055,115.779 L 64.0626,115.682
 L 65.0684,115.568 L 66.072,115.436 L 67.0732,115.286 L 68.0716,115.119 L 69.0669,114.934 L 70.0589,114.733
 L 71.0471,114.513 L 72.0315,114.277 L 73.0115,114.024 L 73.987,113.753 L 74.9576,113.466 L 75.923,113.161
 L 76.8829,112.84 L 77.8372,112.502 L 78.7853,112.148 L 79.7272,111.777 L 80.6624,111.389 L 81.5907,110.986
 L 82.5119,110.566 L 83.4255,110.13 L 84.3314,109.678 L 85.2293,109.211 L 86.119,108.728 L 87,108.229
 L 87.8722,107.716 L 88.7353,107.187 L 89.5891,106.643 L 90.4332,106.084 L 91.2674,105.511 L 92.0915,104.923
 L 92.9053,104.321 L 93.7084,103.705 L 94.5006,103.074 L 95.2817,102.431 L 96.0514,101.773 L 96.8096,101.102
 L 97.5559,100.419 L 98.2902,99.7217 L 99.0122,99.0122 L 99.7217,98.2902 L 100.419,97.5559 L 101.102,96.8096
 L 101.773,96.0514 L 102.431,95.2817 L 103.074,94.5006 L 103.705,93.7084 L 104.321,92.9053 L 104.923,92.0915
 L 105.511,91.2674 L 106.084,90.4332 L 106.643,89.5891 L 107.187,88.7353 L 107.716,87.8722 L 108.229,87
 L 108.728,86.119 L 109.211,85.2293 L 109.678,84.3314 L 110.13,83.4255 L 110.566,82.5119 L 110.986,81.5907
 L 111.389,80.6624 L 111.777,79.7272 L 112.148,78.7853 L 112.502,77.8372 L 112.84,76.8829 L 113.161,75.923
 L 113.466,74.9576 L 113.753,73.987 L 114.024,73.0115 L 114.277,72.0315 L 114.513,71.0471 L 114.733,70.0589
 L 114.934,69.0669 L 115.119,68.0716 L 115.286,67.0732 L 115.436,66.072 L 115.568,65.0684 L 115.682,64.0626
 L 115.779,63.055 L 115.862,61.9996 L 101.93,61.9994 L 101.791,61.9945 L 101.651,61.9848 L 101.513,61.9702
 L 101.374,61.9507 L 101.237,61.9265 L 101.1,61.8975 L 100.965,61.8637 L 100.831,61.8252 L 100.698,61.7821
 L 100.567,61.7343 L 100.437,61.682 L 100.31,61.6252 L 100.184,61.564 L 100.061,61.4985 L 99.9398,61.4287
 L 99.8215,61.3547 L 99.7057,61.2766 L 99.5927,61.1945 L 99.4827,61.1086 L 99.3758,61.0188 L 99.272,60.9254
 L 99.1716,60.8284 L 99.0746,60.728 L 98.9812,60.6242 L 98.8914,60.5173 L 98.8055,60.4073 L 98.7234,60.2943
 L 98.6453,60.1785 L 98.5713,60.0602 L 98.5015,59.9392 L 98.436,59.8159 L 98.3748,59.6905 L 98.318,59.5629
 L 98.2657,59.4335 L 98.2179,59.3023 L 98.1748,59.1695 L 98.1363,59.0353 L 98.1025,58.8998 L 98.0735,58.7632
 L 98.0493,58.6257 L 98.0298,58.4875 L 98.0152,58.3486 L 98.0055,58.2093 L 98.0006,58.0698 L 98.0006,57.9302
 L 98.0055,57.7907 L 98.0152,57.6514 L 98.0298,57.5125 L 98.0493,57.3743 L 98.0735,57.2368 L 98.1025,57.1002
 L 98.1363,56.9647 L 98.1748,56.8305 L 98.2179,56.6977 L 98.2657,56.5665 L 98.318,56.4371 L 98.3748,56.3095
 L 98.436,56.1841 L 98.5015,56.0608 L 98.5713,55.9398 L 98.6453,55.8215 L 98.7234,55.7057 L 98.8055,55.5927
 L 98.8914,55.4827 L 98.9812,55.3758 L 99.0746,55.272 L 99.1716,55.1716 L 99.272,55.0746 L 99.3758,54.9812
 L 99.4827,54.8914 L 99.5927,54.8055 L 99.7057,54.7234 L 99.8215,54.6453 L 99.9398,54.5713 L 100.061,54.5015
 L 100.184,54.436 L 100.31,54.3748 L 100.437,54.318 L 100.567,54.2657 L 100.698,54.2179 L 100.831,54.1748
 L 100.965,54.1363 L 101.1,54.1025 L 101.237,54.0735 L 101.374,54.0493 L 101.513,54.0298 L 101.651,54.0152
 L 101.791,54.0055 L 101.93,54.0006 L 115.862,54.0004 L 115.779,52.945 L 115.682,51.9374 L 115.568,50.9316
 L 115.436,49.928 L 115.286,48.9268 L 115.119,47.9284 L 114.934,46.9331 L 114.733,45.9411 L 114.513,44.9529
 L 114.277,43.9685 L 114.024,42.9885 L 113.753,42.013 L 113.466,41.0424 L 113.161,40.077 L 112.84,39.1171
 L 112.502,38.1628 L 112.148,37.2147 L 111.777,36.2728 L 111.389,35.3376 L 110.986,34.4093 L 110.566,33.4881
 L 110.13,32.5745 L 109.678,31.6686 L 109.211,30.7707 L 108.728,29.881 L 108.229,29 L 107.716,28.1278
 L 107.187,27.2647 L 106.643,26.4109 L 106.084,25.5668 L 105.511,24.7326 L 104.923,23.9085 L 104.321,23.0947
 L 103.705,22.2916 L 103.074,21.4994 L 102.431,20.7183 L 101.773,19.9486 L 101.102,19.1904 L 100.419,18.4441
 L 99.7217,17.7098 L 99.0122,16.9878 L 98.2902,16.2783 L 97.5559,15.5815 L 96.8096,14.8976 L 96.0514,14.2269
 L 95.2817,13.5694 L 94.5006,12.9255 L 93.7084,12.2954 L 92.9053,11.6792 L 92.0915,11.077 L 91.2674,10.4892
 L 90.4332,9.91583 L 89.5891,9.35712 L 88.7353,8.81322 L 87.8722,8.2843 L 87,7.77054 L 86.119,7.27206
 L 85.2293,6.78905 L 84.3314,6.32162 L 83.4255,5.86995 L 82.5119,5.43416 L 81.5907,5.01437 L 80.6624,4.61073
 L 79.7272,4.22334 L 78.7853,3.85234 L 77.8372,3.49783 L 76.8829,3.15993 L 75.923,2.83873 L 74.9576,2.53433
 L 73.987,2.24683 L 73.0115,1.9763 L 72.0315,1.72285 L 71.0471,1.48654 L 70.0589,1.26744 L 69.0669,1.06563
 L 68.0716,0.881165 L 67.0732,0.714081 L 66.072,0.564453 L 65.0684,0.432327 L 64.0626,0.317734 L 63.055,0.220718
 L 62.0459,0.141296 L 61.0355,0.0794983 L 60.0242,0.0353394 L 59.0122,0.00883484 L 58,-0 L 56.9878,0.00883484
 L 55.9758,0.0353394 L 54.9645,0.0794983 L 53.9541,0.141296 L 52.945,0.220718 L 51.9374,0.317734 L 50.9316,0.432327
 L 49.928,0.564453 L 48.9268,0.714081 L 47.9284,0.881165 L 46.9331,1.06563 L 45.9411,1.26744 L 44.9529,1.48654
 L 43.9685,1.72285 L 42.9885,1.9763 L 42.013,2.24683 L 41.0424,2.53433 L 40.077,2.83873 L 39.1171,3.15993
 L 38.1628,3.49783 L 37.2147,3.85234 L 36.2728,4.22334 L 35.3376,4.61073 L 34.4093,5.01437 L 33.4881,5.43416
 L 32.5745,5.86995 L 31.6686,6.32162 L 30.7707,6.78905 L 29.881,7.27206 L 29,7.77054 L 28.1278,8.2843
 L 27.2647,8.81322 L 26.4109,9.35712 L 25.5668,9.91583 L 24.7326,10.4892 L 23.9085,11.077 L 23.0947,11.6792
 L 22.2916,12.2954 L 21.4994,12.9255 L 20.7183,13.5694 L 19.9486,14.2269 L 19.1904,14.8976 L 18.4441,15.5815
 L 17.7098,16.2783 L 16.9878,16.9878 L 16.2783,17.7098 L 15.5815,18.4441 L 14.8976,19.1904 L 14.2269,19.9486
 L 13.5694,20.7183 L 12.9255,21.4994 L 12.2954,22.2916 L 11.6792,23.0947 L 11.077,23.9085 L 10.4892,24.7326
 L 9.91583,25.5668 L 9.35712,26.4109 L 8.81322,27.2647 L 8.2843,28.1278 L 7.77054,29 L 7.27206,29.881
 L 6.78905,30.7707 L 6.32162,31.6686 L 5.86995,32.5745 L 5.43416,33.4881 L 5.01437,34.4093 L 4.61073,35.3376
 L 4.22334,36.2728 L 3.85234,37.2147 L 3.49783,38.1628 L 3.15993,39.1171 L 2.83873,40.077 L 2.53433,41.0424
 L 2.24683,42.013 L 1.9763,42.9885 L 1.72285,43.9685 L 1.48654,44.9529 L 1.26744,45.9411 L 1.06563,46.9331
 L 0.881165,47.9284 L 0.714081,48.9268 L 0.564453,49.928 L 0.432327,50.9316 L 0.317734,51.9374 L 0.220718,52.945
 L 0.138474,54.0004 L 14.0698,54.0006 L 14.2093,54.0055 L 14.3486,54.0152 L 14.4875,54.0298 L 14.6257,54.0493
 L 14.7632,54.0735 L 14.8998,54.1025 L 15.0353,54.1363 L 15.1695,54.1748 L 15.3023,54.2179 L 15.4335,54.2657
 L 15.5629,54.318 L 15.6905,54.3748 L 15.8159,54.436 L 15.9392,54.5015 L 16.0602,54.5713 L 16.1785,54.6453
 L 16.2943,54.7234 L 16.4073,54.8055 L 16.5173,54.8914 L 16.6242,54.9812 L 16.728,55.0746 L 16.8284,55.1716
 L 16.9254,55.272 L 17.0188,55.3758 L 17.1086,55.4827 L 17.1945,55.5927 L 17.2766,55.7057 L 17.3547,55.8215
 L 17.4287,55.9398 L 17.4985,56.0608 L 17.564,56.1841 L 17.6252,56.3095 L 17.682,56.4371 L 17.7343,56.5665
 L 17.7821,56.6977 L 17.8252,56.8305 L 17.8637,56.9647 L 17.8975,57.1002 L 17.9265,57.2368 L 17.9507,57.3743
 L 17.9702,57.5125 L 17.9848,57.6514 L 17.9945,57.7907 L 17.9994,57.9302 L 17.9994,58.0698 L 17.9945,58.2093
 L 17.9848,58.3486 L 17.9702,58.4875 L 17.9507,58.6257 L 17.9265,58.7632 L 17.8975,58.8998 L 17.8637,59.0353
 L 17.8252,59.1695 L 17.7821,59.3023 L 17.7343,59.4335 L 17.682,59.5629 L 17.6252,59.6905 L 17.564,59.8159
 L 17.4985,59.9392 L 17.4287,60.0602 L 17.3547,60.1785 L 17.2766,60.2943 L 17.1945,60.4073 L 17.1086,60.5173
 L 17.0188,60.6242 L 16.9254,60.728 L 16.8284,60.8284 L 16.728,60.9254 L 16.6242,61.0188 L 16.5173,61.1086
 L 16.4073,61.1945 L 16.2943,61.2766 L 16.1785,61.3547 L 16.0602,61.4287 L 15.9392,61.4985 L 15.8159,61.564
 L 15.6905,61.6252 L 15.5629,61.682 L 15.4335,61.7343 L 15.3023,61.7821 L 15.1695,61.8252 L 15.0353,61.8637
 L 14.8998,61.8975 L 14.7632,61.9265 L 14.6257,61.9507 L 14.4875,61.9702 L 14.3486,61.9848 L 14.2093,61.9945
 L 14.0698,61.9994 L 0.138474,61.9996 L 0.220718,63.055 L 0.317734,64.0626 L 0.432327,65.0684 L 0.564453,66.072
 L 0.714081,67.0732 L 0.881165,68.0716 L 1.06563,69.0669 L 1.26744,70.0589 L 1.48654,71.0471 L 1.72285,72.0315
 L 1.9763,73.0115 L 2.24683,73.987 L 2.53433,74.9576 L 2.83873,75.923 L 3.15993,76.8829 L 3.49783,77.8372
 L 3.85234,78.7853 L 4.22334,79.7272 L 4.61073,80.6624 L 5.01437,81.5907 L 5.43416,82.5119 L 5.86995,83.4255
 L 6.32162,84.3314 L 6.78905,85.2293 L 7.27206,86.119 L 7.77054,87 L 8.2843,87.8722 L 8.81322,88.7353
 L 9.35712,89.5891 L 9.91583,90.4332 L 10.4892,91.2674 L 11.077,92.0915 L 11.6792,92.9053 L 12.2954,93.7084
 L 12.9255,94.5006 L 13.5694,95.2817 L 14.2269,96.0514 L 14.8976,96.8096 L 15.5815,97.5559 L 16.2783,98.2902
 L 16.9878,99.0122 L 17.7098,99.7217 L 18.4441,100.419 L 19.1904,101.102 L 19.9486,101.773 L 20.7183,102.431
 L 21.4994,103.074 L 22.2916,103.705 L 23.0947,104.321 L 23.9085,104.923 L 24.7326,105.511 L 25.5668,106.084
 L 26.4109,106.643 L 27.2647,107.187 L 28.1278,107.716 L 29,108.229 L 29.881,108.728 L 30.7707,109.211
 L 31.6686,109.678 L 32.5745,110.13 L 33.4881,110.566 L 34.4093,110.986 L 35.3376,111.389 L 36.2728,111.777
 L 37.2147,112.148 L 38.1628,112.502 L 39.1171,112.84 L 40.077,113.161 L 41.0424,113.466 L 42.013,113.753
 L 42.9885,114.024 L 43.9685,114.277 L 44.9529,114.513 L 45.9411,114.733 L 46.9331,114.934 L 47.9284,115.119
 L 48.9268,115.286 L 49.928,115.436 L 50.9316,115.568 L 51.9374,115.682 L 52.945,115.779 L 53.9541,115.859
 L 54.9645,115.921 L 55.9758,115.965 L 56.9878,115.991 L 58,116 z
M 54.9861,105.905 L 51.984,105.621 L 49.0057,105.15 L 46.0629,104.492 L 43.1672,103.651 L 40.33,102.629
 L 37.5626,101.432 L 34.8758,100.063 L 32.2803,98.5277 L 29.7863,96.8328 L 27.8681,95.3449 L 27.7267,95.2202
 L 27.5935,95.087 L 27.4688,94.9456 L 27.3533,94.7967 L 27.2474,94.6408 L 27.1515,94.4786 L 27.0659,94.3107
 L 26.991,94.1377 L 26.9272,93.9604 L 26.8746,93.7794 L 26.8335,93.5955 L 26.804,93.4093 L 26.7863,93.2217
 L 26.7804,93.0333 L 26.7863,92.845 L 26.804,92.6573 L 26.8335,92.4712 L 26.8746,92.2873 L 26.9272,92.1063
 L 26.991,91.929 L 27.0659,91.756 L 27.1515,91.5881 L 27.2474,91.4259 L 27.3533,91.27 L 27.4688,91.1211
 L 27.5935,90.9797 L 32.5376,86.0355 L 32.5349,86.0327 L 32.6449,85.9227 L 32.8526,85.6871 L 33.0451,85.4389
 L 33.2216,85.1791 L 33.3815,84.9088 L 33.5241,84.6289 L 33.6489,84.3406 L 33.7553,84.0451 L 33.8429,83.7434
 L 33.9114,83.4369 L 33.9606,83.1267 L 33.9901,82.8139 L 34,82.5 L 33.9901,82.186 L 33.9606,81.8733
 L 33.9114,81.5631 L 33.8429,81.2565 L 33.7553,80.9549 L 33.6489,80.6594 L 33.5241,80.3711 L 33.3815,80.0912
 L 33.2216,79.8209 L 33.0451,79.5611 L 32.8526,79.3129 L 32.6449,79.0773 L 32.4227,78.8551 L 32.1871,78.6474
 L 31.9389,78.4549 L 31.6791,78.2784 L 31.4088,78.1185 L 31.1289,77.9759 L 30.8406,77.8511 L 30.5451,77.7447
 L 30.2435,77.6571 L 29.9369,77.5886 L 29.6267,77.5394 L 29.314,77.5099 L 29,77.5 L 28.6861,77.5099
 L 28.3733,77.5394 L 28.0631,77.5886 L 27.7566,77.6571 L 27.4549,77.7447 L 27.1594,77.8511 L 26.8711,77.9759
 L 26.5912,78.1185 L 26.3209,78.2784 L 26.0611,78.4549 L 25.8129,78.6474 L 25.5773,78.8551 L 25.4673,78.9651
 L 25.4645,78.9624 L 21.3412,83.0856 L 21.1999,83.2102 L 21.0509,83.3257 L 20.8951,83.4317 L 20.7328,83.5276
 L 20.5649,83.6132 L 20.392,83.688 L 20.2146,83.7519 L 20.0337,83.8044 L 19.8497,83.8456 L 19.6636,83.875
 L 19.476,83.8928 L 19.2876,83.8987 L 19.0992,83.8928 L 18.9116,83.875 L 18.7255,83.8456 L 18.5415,83.8044
 L 18.3605,83.7519 L 18.1832,83.688 L 18.0103,83.6132 L 17.8423,83.5276 L 17.6801,83.4317 L 17.5242,83.3257
 L 17.3753,83.2102 L 17.234,83.0856 L 17.1007,82.9523 L 16.9761,82.811 L 16.8605,82.662 L 16.7546,82.5062
 L 15.9373,81.1242 L 14.5683,78.4374 L 13.3707,75.67 L 12.3493,72.8328 L 11.508,69.9371 L 11.4216,69.5506
 L 11.3922,69.3644 L 11.3744,69.1768 L 11.3685,68.9884 L 11.3744,68.8 L 11.3922,68.6124 L 11.4216,68.4263
 L 11.4627,68.2424 L 11.5153,68.0614 L 11.5792,67.884 L 11.654,67.7111 L 11.7396,67.5432 L 11.8355,67.381
 L 11.9414,67.2251 L 12.0569,67.0762 L 12.1816,66.9348 L 12.3148,66.8015 L 12.4562,66.6769 L 12.6051,66.5614
 L 12.761,66.4554 L 12.9232,66.3595 L 13.0912,66.2739 L 13.2641,66.1991 L 13.4414,66.1353 L 13.6224,66.0827
 L 13.8064,66.0416 L 13.9925,66.0121 L 14.1801,65.9943 L 14.5023,65.9842 L 15.0028,65.9369 L 15.499,65.8583
 L 15.9895,65.7487 L 16.4721,65.6084 L 16.945,65.4382 L 17.4062,65.2386 L 17.8541,65.0104 L 18.2865,64.7547
 L 18.7023,64.4721 L 19.0994,64.1641 L 19.4764,63.8317 L 19.8317,63.4764 L 20.1641,63.0994 L 20.4721,62.7023
 L 20.7547,62.2865 L 21.0063,61.861 L 21.2386,61.4062 L 21.4382,60.945 L 21.6084,60.4721 L 21.7487,59.9895
 L 21.8583,59.4991 L 21.9369,59.0028 L 21.9842,58.5023 L 21.9998,58.0076 L 21.9842,57.4977 L 21.9369,56.9972
 L 21.8583,56.5009 L 21.7487,56.0105 L 21.6084,55.5279 L 21.4382,55.055 L 21.2386,54.5938 L 21.0104,54.1459
 L 20.7547,53.7135 L 20.4721,53.2977 L 20.1641,52.9006 L 19.8317,52.5236 L 19.4764,52.1683 L 19.0994,51.8359
 L 18.7107,51.5344 L 18.2865,51.2453 L 17.8541,50.9896 L 17.4062,50.7614 L 16.945,50.5618 L 16.4721,50.3916
 L 15.9895,50.2513 L 15.499,50.1417 L 15.0028,50.0631 L 14.5023,50.0158 L 14.1801,50.0057 L 13.9925,49.9879
 L 13.8064,49.9584 L 13.6224,49.9173 L 13.4414,49.8647 L 13.2641,49.8009 L 13.0912,49.7261 L 12.9232,49.6405
 L 12.761,49.5446 L 12.6051,49.4386 L 12.4562,49.3231 L 12.3148,49.1985 L 12.1816,49.0652 L 12.0569,48.9238
 L 11.9414,48.7749 L 11.8355,48.619 L 11.7396,48.4568 L 11.654,48.2889 L 11.5792,48.116 L 11.5153,47.9386
 L 11.4627,47.7576 L 11.4216,47.5737 L 11.3922,47.3876 L 11.3744,47.2 L 11.3685,47.0116 L 11.3744,46.8232
 L 11.3922,46.6356 L 11.4216,46.4494 L 11.508,46.0629 L 12.3493,43.1672 L 13.3707,40.33 L 14.5683,37.5626
 L 15.9373,34.8758 L 16.7546,33.4938 L 16.8605,33.338 L 16.9761,33.189 L 17.1007,33.0477 L 17.234,32.9144
 L 17.3753,32.7898 L 17.5242,32.6743 L 17.6801,32.5683 L 17.8423,32.4724 L 18.0103,32.3868 L 18.1832,32.312
 L 18.3605,32.2481 L 18.5415,32.1956 L 18.7255,32.1544 L 18.9116,32.125 L 19.0992,32.1072 L 19.2876,32.1013
 L 19.476,32.1072 L 19.6636,32.125 L 19.8497,32.1544 L 20.0337,32.1956 L 20.2146,32.2481 L 20.392,32.312
 L 20.5649,32.3868 L 20.7328,32.4724 L 20.8951,32.5683 L 21.0509,32.6743 L 21.1999,32.7898 L 21.3412,32.9144
 L 25.4645,37.0376 L 25.4673,37.0349 L 25.5773,37.1449 L 25.8129,37.3526 L 26.0611,37.5451 L 26.3209,37.7216
 L 26.5912,37.8815 L 26.8711,38.0241 L 27.1594,38.1489 L 27.4549,38.2553 L 27.7566,38.3429 L 28.0631,38.4114
 L 28.3733,38.4606 L 28.6861,38.4901 L 29,38.5 L 29.314,38.4901 L 29.6267,38.4606 L 29.9369,38.4114
 L 30.2435,38.3429 L 30.5451,38.2553 L 30.8406,38.1489 L 31.1289,38.0241 L 31.4088,37.8815 L 31.6791,37.7216
 L 31.9389,37.5451 L 32.1871,37.3526 L 32.4227,37.1449 L 32.6449,36.9227 L 32.8526,36.6871 L 33.0451,36.4389
 L 33.2216,36.1791 L 33.3815,35.9088 L 33.5241,35.6289 L 33.6489,35.3406 L 33.7553,35.0451 L 33.8429,34.7435
 L 33.9114,34.4369 L 33.9606,34.1267 L 33.9901,33.814 L 34,33.5 L 33.9901,33.1861 L 33.9606,32.8733
 L 33.9114,32.5631 L 33.8429,32.2566 L 33.7553,31.9549 L 33.6489,31.6594 L 33.5241,31.3711 L 33.3815,31.0912
 L 33.2216,30.8209 L 33.0451,30.5611 L 32.8526,30.3129 L 32.6449,30.0773 L 32.5349,29.9673 L 32.5376,29.9645
 L 27.5935,25.0203 L 27.4688,24.8789 L 27.3533,24.73 L 27.2474,24.5741 L 27.1515,24.4119 L 27.0659,24.244
 L 26.991,24.071 L 26.9272,23.8937 L 26.8746,23.7127 L 26.8335,23.5288 L 26.804,23.3427 L 26.7863,23.155
 L 26.7804,22.9667 L 26.7863,22.7783 L 26.804,22.5907 L 26.8335,22.4045 L 26.8746,22.2206 L 26.9272,22.0396
 L 26.991,21.8623 L 27.0659,21.6893 L 27.1515,21.5214 L 27.2474,21.3592 L 27.3533,21.2033 L 27.4688,21.0544
 L 27.5935,20.913 L 27.7267,20.7798 L 27.8681,20.6551 L 29.7863,19.1672 L 32.2803,17.4723 L 34.8758,15.9373
 L 37.5626,14.5683 L 40.33,13.3707 L 43.1672,12.3493 L 46.0629,11.508 L 49.0057,10.8502 L 51.984,10.3785
 L 54.9861,10.0947 L 58,10 L 61.0139,10.0947 L 64.016,10.3785 L 66.9943,10.8502 L 69.9371,11.508
 L 72.8328,12.3493 L 75.67,13.3707 L 78.4374,14.5683 L 81.1242,15.9373 L 83.7197,17.4723 L 86.2137,19.1672
 L 88.1319,20.6551 L 88.2733,20.7798 L 88.4065,20.913 L 88.5312,21.0544 L 88.6467,21.2033 L 88.7526,21.3592
 L 88.8485,21.5214 L 88.9341,21.6893 L 89.009,21.8623 L 89.0728,22.0396 L 89.1254,22.2206 L 89.1665,22.4045
 L 89.196,22.5907 L 89.2137,22.7783 L 89.2196,22.9667 L 89.2137,23.155 L 89.196,23.3427 L 89.1665,23.5288
 L 89.1254,23.7127 L 89.0728,23.8937 L 89.009,24.071 L 88.9341,24.244 L 88.8485,24.4119 L 88.7526,24.5741
 L 88.6467,24.73 L 88.5312,24.8789 L 88.4065,25.0203 L 83.4624,29.9645 L 83.4651,29.9673 L 83.3551,30.0773
 L 83.1474,30.3129 L 82.9549,30.5611 L 82.7784,30.8209 L 82.6185,31.0912 L 82.4759,31.3711 L 82.3511,31.6594
 L 82.2447,31.9549 L 82.1571,32.2566 L 82.0886,32.5631 L 82.0394,32.8733 L 82.0099,33.1861 L 82,33.5
 L 82.0099,33.814 L 82.0394,34.1267 L 82.0886,34.4369 L 82.1571,34.7435 L 82.2447,35.0451 L 82.3511,35.3406
 L 82.4759,35.6289 L 82.6185,35.9088 L 82.7784,36.1791 L 82.9549,36.4389 L 83.1474,36.6871 L 83.3551,36.9227
 L 83.5773,37.1449 L 83.8129,37.3526 L 84.0611,37.5451 L 84.3209,37.7216 L 84.5912,37.8815 L 84.8711,38.0241
 L 85.1594,38.1489 L 85.4549,38.2553 L 85.7565,38.3429 L 86.0631,38.4114 L 86.3733,38.4606 L 86.686,38.4901
 L 87,38.5 L 87.3139,38.4901 L 87.6267,38.4606 L 87.9369,38.4114 L 88.2434,38.3429 L 88.5451,38.2553
 L 88.8406,38.1489 L 89.1289,38.0241 L 89.4088,37.8815 L 89.6791,37.7216 L 89.9389,37.5451 L 90.1871,37.3526
 L 90.4227,37.1449 L 90.5327,37.0349 L 90.5355,37.0376 L 94.6588,32.9144 L 94.8001,32.7898 L 94.9491,32.6743
 L 95.1049,32.5683 L 95.2672,32.4724 L 95.4351,32.3868 L 95.608,32.312 L 95.7854,32.2481 L 95.9663,32.1956
 L 96.1503,32.1544 L 96.3364,32.125 L 96.524,32.1072 L 96.7124,32.1013 L 96.9008,32.1072 L 97.0884,32.125
 L 97.2745,32.1544 L 97.4585,32.1956 L 97.6395,32.2481 L 97.8168,32.312 L 97.9897,32.3868 L 98.1577,32.4724
 L 98.3199,32.5683 L 98.4758,32.6743 L 98.6247,32.7898 L 98.766,32.9144 L 98.8993,33.0477 L 99.0239,33.189
 L 99.1395,33.338 L 99.2454,33.4938 L 100.063,34.8758 L 101.432,37.5626 L 102.629,40.33 L 103.651,43.1672
 L 104.492,46.0629 L 104.578,46.4494 L 104.608,46.6356 L 104.626,46.8232 L 104.632,47.0116 L 104.626,47.2
 L 104.608,47.3876 L 104.578,47.5737 L 104.537,47.7576 L 104.485,47.9386 L 104.421,48.116 L 104.346,48.2889
 L 104.26,48.4568 L 104.164,48.619 L 104.059,48.7749 L 103.943,48.9238 L 103.818,49.0652 L 103.685,49.1985
 L 103.544,49.3231 L 103.395,49.4386 L 103.239,49.5446 L 103.077,49.6405 L 102.909,49.7261 L 102.736,49.8009
 L 102.559,49.8647 L 102.378,49.9173 L 102.194,49.9584 L 102.008,49.9879 L 101.82,50.0057 L 101.498,50.0158
 L 100.997,50.0631 L 100.501,50.1417 L 100.01,50.2513 L 99.5279,50.3916 L 99.055,50.5618 L 98.5938,50.7614
 L 98.1459,50.9896 L 97.7135,51.2453 L 97.2977,51.5279 L 96.9006,51.8359 L 96.5236,52.1683 L 96.1683,52.5236
 L 95.8359,52.9006 L 95.5279,53.2977 L 95.2453,53.7135 L 94.9896,54.1459 L 94.7614,54.5938 L 94.5618,55.055
 L 94.3916,55.5279 L 94.2513,56.0105 L 94.1417,56.5009 L 94.0631,56.9972 L 94.0158,57.4977 L 94,58
 L 94.0158,58.5023 L 94.0631,59.0028 L 94.1417,59.4991 L 94.2513,59.9895 L 94.3916,60.4721 L 94.5618,60.945
 L 94.7614,61.4062 L 94.9896,61.8541 L 95.2453,62.2865 L 95.5279,62.7023 L 95.8359,63.0994 L 96.1683,63.4764
 L 96.5236,63.8317 L 96.9006,64.1641 L 97.2977,64.4721 L 97.7135,64.7547 L 98.1459,65.0104 L 98.5938,65.2386
 L 99.055,65.4382 L 99.5279,65.6084 L 100.01,65.7487 L 100.501,65.8583 L 100.997,65.9369 L 101.498,65.9842
 L 101.82,65.9943 L 102.008,66.0121 L 102.194,66.0416 L 102.378,66.0827 L 102.559,66.1353 L 102.736,66.1991
 L 102.909,66.2739 L 103.077,66.3595 L 103.239,66.4554 L 103.395,66.5614 L 103.544,66.6769 L 103.685,66.8015
 L 103.818,66.9348 L 103.943,67.0762 L 104.059,67.2251 L 104.164,67.381 L 104.26,67.5432 L 104.346,67.7111
 L 104.421,67.884 L 104.485,68.0614 L 104.537,68.2424 L 104.578,68.4263 L 104.608,68.6124 L 104.626,68.8
 L 104.632,68.9884 L 104.626,69.1768 L 104.608,69.3644 L 104.578,69.5506 L 104.492,69.9371 L 103.651,72.8328
 L 102.629,75.67 L 101.432,78.4374 L 100.063,81.1242 L 99.2454,82.5062 L 99.1395,82.662 L 99.0239,82.811
 L 98.8993,82.9523 L 98.766,83.0856 L 98.6247,83.2102 L 98.4758,83.3257 L 98.3199,83.4317 L 98.1577,83.5276
 L 97.9897,83.6132 L 97.8168,83.688 L 97.6395,83.7519 L 97.4585,83.8044 L 97.2745,83.8456 L 97.0884,83.875
 L 96.9008,83.8928 L 96.7124,83.8987 L 96.524,83.8928 L 96.3364,83.875 L 96.1503,83.8456 L 95.9663,83.8044
 L 95.7854,83.7519 L 95.608,83.688 L 95.4351,83.6132 L 95.2672,83.5276 L 95.1049,83.4317 L 94.9491,83.3257
 L 94.8001,83.2102 L 94.6588,83.0856 L 90.5355,78.9624 L 90.5327,78.9651 L 90.4227,78.8551 L 90.1871,78.6474
 L 89.9389,78.4549 L 89.6791,78.2784 L 89.4088,78.1185 L 89.1289,77.9759 L 88.8406,77.8511 L 88.5451,77.7447
 L 88.2434,77.6571 L 87.9369,77.5886 L 87.6267,77.5394 L 87.3139,77.5099 L 87,77.5 L 86.686,77.5099
 L 86.3733,77.5394 L 86.0631,77.5886 L 85.7565,77.6571 L 85.4549,77.7447 L 85.1594,77.8511 L 84.8711,77.9759
 L 84.5912,78.1185 L 84.3209,78.2784 L 84.0611,78.4549 L 83.8129,78.6474 L 83.5773,78.8551 L 83.3551,79.0773
 L 83.1474,79.3129 L 82.9549,79.5611 L 82.7784,79.8209 L 82.6185,80.0912 L 82.4759,80.3711 L 82.3511,80.6594
 L 82.2447,80.9549 L 82.1571,81.2565 L 82.0886,81.5631 L 82.0394,81.8733 L 82.0099,82.186 L 82,82.5
 L 82.0099,82.8139 L 82.0394,83.1267 L 82.0886,83.4369 L 82.1571,83.7434 L 82.2447,84.0451 L 82.3511,84.3406
 L 82.4759,84.6289 L 82.6185,84.9088 L 82.7784,85.1791 L 82.9549,85.4389 L 83.1474,85.6871 L 83.3551,85.9227
 L 83.4651,86.0327 L 83.4624,86.0355 L 88.4065,90.9797 L 88.5312,91.1211 L 88.6467,91.27 L 88.7526,91.4259
 L 88.8485,91.5881 L 88.9341,91.756 L 89.009,91.929 L 89.0728,92.1063 L 89.1254,92.2873 L 89.1665,92.4712
 L 89.196,92.6573 L 89.2137,92.845 L 89.2196,93.0333 L 89.2137,93.2217 L 89.196,93.4093 L 89.1665,93.5955
 L 89.1254,93.7794 L 89.0728,93.9604 L 89.009,94.1377 L 88.9341,94.3107 L 88.8485,94.4786 L 88.7526,94.6408
 L 88.6467,94.7967 L 88.5312,94.9456 L 88.4065,95.087 L 88.2733,95.2202 L 88.1319,95.3449 L 86.2137,96.8328
 L 83.7197,98.5277 L 81.1242,100.063 L 78.4374,101.432 L 75.67,102.629 L 72.8328,103.651 L 69.9371,104.492
 L 66.9943,105.15 L 64.016,105.621 L 61.0139,105.905 L 58,106 z
M 28.9389,35.2489 L 28.8171,35.2404 L 28.6961,35.2234 L 28.5766,35.198 L 28.4592,35.1644 L 28.3445,35.1226
 L 28.2329,35.0729 L 28.125,35.0155 L 28.0214,34.9508 L 27.9226,34.879 L 27.829,34.8005 L 27.7412,34.7157
 L 27.6594,34.6249 L 27.5842,34.5286 L 27.5159,34.4274 L 27.4548,34.3216 L 27.4013,34.2118 L 27.3555,34.0985
 L 27.3178,33.9824 L 27.2883,33.8638 L 27.267,33.7436 L 27.2543,33.6221 L 27.25,33.5 L 27.2543,33.3779
 L 27.267,33.2565 L 27.2883,33.1362 L 27.3178,33.0176 L 27.3555,32.9015 L 27.4013,32.7882 L 27.4548,32.6784
 L 27.5159,32.5726 L 27.5842,32.4714 L 27.6594,32.3751 L 27.7412,32.2844 L 27.829,32.1995 L 27.9226,32.121
 L 28.0214,32.0492 L 28.125,31.9845 L 28.2329,31.9271 L 28.3445,31.8774 L 28.4592,31.8357 L 28.5766,31.802
 L 28.6961,31.7766 L 28.8171,31.7596 L 28.9389,31.7511 L 29.0611,31.7511 L 29.1829,31.7596 L 29.3039,31.7766
 L 29.4234,31.802 L 29.5408,31.8357 L 29.6556,31.8774 L 29.7672,31.9271 L 29.875,31.9845 L 29.9786,32.0492
 L 30.0774,32.121 L 30.171,32.1995 L 30.2589,32.2844 L 30.3406,32.3751 L 30.4158,32.4714 L 30.4841,32.5726
 L 30.5452,32.6784 L 30.5987,32.7882 L 30.6445,32.9015 L 30.6822,33.0176 L 30.7118,33.1362 L 30.733,33.2565
 L 30.7457,33.3779 L 30.75,33.5 L 30.7457,33.6221 L 30.733,33.7436 L 30.7118,33.8638 L 30.6822,33.9824
 L 30.6445,34.0985 L 30.5987,34.2118 L 30.5452,34.3216 L 30.4841,34.4274 L 30.4158,34.5286 L 30.3406,34.6249
 L 30.2589,34.7157 L 30.171,34.8005 L 30.0774,34.879 L 29.9786,34.9508 L 29.875,35.0155 L 29.7672,35.0729
 L 29.6556,35.1226 L 29.5408,35.1644 L 29.4234,35.198 L 29.3039,35.2234 L 29.1829,35.2404 L 29.0611,35.2489
 z
M 86.9389,35.2489 L 86.8171,35.2404 L 86.6961,35.2234 L 86.5766,35.198 L 86.4592,35.1644 L 86.3444,35.1226
 L 86.2328,35.0729 L 86.125,35.0155 L 86.0214,34.9508 L 85.9226,34.879 L 85.829,34.8005 L 85.7411,34.7157
 L 85.6594,34.6249 L 85.5842,34.5286 L 85.5159,34.4274 L 85.4548,34.3216 L 85.4013,34.2118 L 85.3555,34.0985
 L 85.3178,33.9824 L 85.2882,33.8638 L 85.267,33.7436 L 85.2543,33.6221 L 85.25,33.5 L 85.2543,33.3779
 L 85.267,33.2565 L 85.2882,33.1362 L 85.3178,33.0176 L 85.3555,32.9015 L 85.4013,32.7882 L 85.4548,32.6784
 L 85.5159,32.5726 L 85.5842,32.4714 L 85.6594,32.3751 L 85.7411,32.2844 L 85.829,32.1995 L 85.9226,32.121
 L 86.0214,32.0492 L 86.125,31.9845 L 86.2328,31.9271 L 86.3444,31.8774 L 86.4592,31.8357 L 86.5766,31.802
 L 86.6961,31.7766 L 86.8171,31.7596 L 86.9389,31.7511 L 87.0611,31.7511 L 87.1829,31.7596 L 87.3039,31.7766
 L 87.4234,31.802 L 87.5408,31.8357 L 87.6555,31.8774 L 87.7671,31.9271 L 87.875,31.9845 L 87.9786,32.0492
 L 88.0774,32.121 L 88.171,32.1995 L 88.2588,32.2844 L 88.3406,32.3751 L 88.4158,32.4714 L 88.4841,32.5726
 L 88.5452,32.6784 L 88.5987,32.7882 L 88.6445,32.9015 L 88.6822,33.0176 L 88.7117,33.1362 L 88.733,33.2565
 L 88.7457,33.3779 L 88.75,33.5 L 88.7457,33.6221 L 88.733,33.7436 L 88.7117,33.8638 L 88.6822,33.9824
 L 88.6445,34.0985 L 88.5987,34.2118 L 88.5452,34.3216 L 88.4841,34.4274 L 88.4158,34.5286 L 88.3406,34.6249
 L 88.2588,34.7157 L 88.171,34.8005 L 88.0774,34.879 L 87.9786,34.9508 L 87.875,35.0155 L 87.7671,35.0729
 L 87.6555,35.1226 L 87.5408,35.1644 L 87.4234,35.198 L 87.3039,35.2234 L 87.1829,35.2404 L 87.0611,35.2489
 z
M 28.9389,84.2489 L 28.8171,84.2404 L 28.6961,84.2234 L 28.5766,84.198 L 28.4592,84.1643 L 28.3445,84.1226
 L 28.2329,84.0729 L 28.125,84.0155 L 28.0214,83.9508 L 27.9226,83.879 L 27.829,83.8005 L 27.7412,83.7156
 L 27.6594,83.6249 L 27.5842,83.5286 L 27.5159,83.4274 L 27.4548,83.3216 L 27.4013,83.2118 L 27.3555,83.0985
 L 27.3178,82.9824 L 27.2883,82.8638 L 27.267,82.7435 L 27.2543,82.6221 L 27.25,82.5 L 27.2543,82.3779
 L 27.267,82.2564 L 27.2883,82.1362 L 27.3178,82.0176 L 27.3555,81.9015 L 27.4013,81.7882 L 27.4548,81.6784
 L 27.5159,81.5726 L 27.5842,81.4714 L 27.6594,81.3751 L 27.7412,81.2843 L 27.829,81.1995 L 27.9226,81.121
 L 28.0214,81.0492 L 28.125,80.9845 L 28.2329,80.9271 L 28.3445,80.8774 L 28.4592,80.8356 L 28.5766,80.802
 L 28.6961,80.7766 L 28.8171,80.7596 L 28.9389,80.7511 L 29.0611,80.7511 L 29.1829,80.7596 L 29.3039,80.7766
 L 29.4234,80.802 L 29.5408,80.8356 L 29.6556,80.8774 L 29.7672,80.9271 L 29.875,80.9845 L 29.9786,81.0492
 L 30.0774,81.121 L 30.171,81.1995 L 30.2589,81.2843 L 30.3406,81.3751 L 30.4158,81.4714 L 30.4841,81.5726
 L 30.5452,81.6784 L 30.5987,81.7882 L 30.6445,81.9015 L 30.6822,82.0176 L 30.7118,82.1362 L 30.733,82.2564
 L 30.7457,82.3779 L 30.75,82.5 L 30.7457,82.6221 L 30.733,82.7435 L 30.7118,82.8638 L 30.6822,82.9824
 L 30.6445,83.0985 L 30.5987,83.2118 L 30.5452,83.3216 L 30.4841,83.4274 L 30.4158,83.5286 L 30.3406,83.6249
 L 30.2589,83.7156 L 30.171,83.8005 L 30.0774,83.879 L 29.9786,83.9508 L 29.875,84.0155 L 29.7672,84.0729
 L 29.6556,84.1226 L 29.5408,84.1643 L 29.4234,84.198 L 29.3039,84.2234 L 29.1829,84.2404 L 29.0611,84.2489
 z
M 86.9389,84.2489 L 86.8171,84.2404 L 86.6961,84.2234 L 86.5766,84.198 L 86.4592,84.1643 L 86.3444,84.1226
 L 86.2328,84.0729 L 86.125,84.0155 L 86.0214,83.9508 L 85.9226,83.879 L 85.829,83.8005 L 85.7411,83.7156
 L 85.6594,83.6249 L 85.5842,83.5286 L 85.5159,83.4274 L 85.4548,83.3216 L 85.4013,83.2118 L 85.3555,83.0985
 L 85.3178,82.9824 L 85.2882,82.8638 L 85.267,82.7435 L 85.2543,82.6221 L 85.25,82.5 L 85.2543,82.3779
 L 85.267,82.2564 L 85.2882,82.1362 L 85.3178,82.0176 L 85.3555,81.9015 L 85.4013,81.7882 L 85.4548,81.6784
 L 85.5159,81.5726 L 85.5842,81.4714 L 85.6594,81.3751 L 85.7411,81.2843 L 85.829,81.1995 L 85.9226,81.121
 L 86.0214,81.0492 L 86.125,80.9845 L 86.2328,80.9271 L 86.3444,80.8774 L 86.4592,80.8356 L 86.5766,80.802
 L 86.6961,80.7766 L 86.8171,80.7596 L 86.9389,80.7511 L 87.0611,80.7511 L 87.1829,80.7596 L 87.3039,80.7766
 L 87.4234,80.802 L 87.5408,80.8356 L 87.6555,80.8774 L 87.7671,80.9271 L 87.875,80.9845 L 87.9786,81.0492
 L 88.0774,81.121 L 88.171,81.1995 L 88.2588,81.2843 L 88.3406,81.3751 L 88.4158,81.4714 L 88.4841,81.5726
 L 88.5452,81.6784 L 88.5987,81.7882 L 88.6445,81.9015 L 88.6822,82.0176 L 88.7117,82.1362 L 88.733,82.2564
 L 88.7457,82.3779 L 88.75,82.5 L 88.7457,82.6221 L 88.733,82.7435 L 88.7117,82.8638 L 88.6822,82.9824
 L 88.6445,83.0985 L 88.5987,83.2118 L 88.5452,83.3216 L 88.4841,83.4274 L 88.4158,83.5286 L 88.3406,83.6249
 L 88.2588,83.7156 L 88.171,83.8005 L 88.0774,83.879 L 87.9786,83.9508 L 87.875,84.0155 L 87.7671,84.0729
 L 87.6555,84.1226 L 87.5408,84.1643 L 87.4234,84.198 L 87.3039,84.2234 L 87.1829,84.2404 L 87.0611,84.2489
 z
" stroke="black" fill="lightgray" stroke-width="0.5"/></svg>
