<?xml version="1.0" standalone="no"?>
<!DOCTYPE svg PUBLIC "-//W3C//DTD SVG 1.1//EN" "http://www.w3.org/Graphics/SVG/1.1/DTD/svg11.dtd">
<svg width="65mm" height="36mm" viewBox="0 0 65 36" xmlns="http://www.w3.org/2000/svg" version="1.1">
<title>OpenSCAD Model</title>
<path d="
M 19.5628,35.498 L 19.6253,35.4921 L 19.6874,35.4823 L 19.7487,35.4686 L 19.809,35.451 L 19.8681,35.4298
 L 19.9258,35.4048 L 19.9818,35.3763 L 20.0358,35.3443 L 20.0878,35.309 L 20.1374,35.2705 L 20.1845,35.229
 L 20.229,35.1845 L 20.2705,35.1374 L 20.309,35.0878 L 20.3443,35.0358 L 20.3763,34.9818 L 20.4048,34.9258
 L 20.4298,34.8681 L 20.451,34.809 L 20.4686,34.7487 L 20.4823,34.6874 L 20.4921,34.6253 L 20.498,34.5628
 L 20.5,34.5 L 20.5,22.08 L 20.4234,22.0692 L 20.2851,22.0398 L 20.1492,22.0009 L 20.0164,21.9525
 L 19.8873,21.895 L 19.7625,21.8287 L 19.6426,21.7538 L 19.5283,21.6707 L 19.42,21.5798 L 19.3183,21.4817
 L 19.2238,21.3766 L 19.1367,21.2652 L 19.0577,21.1481 L 18.987,21.0257 L 18.9251,20.8986 L 18.8721,20.7676
 L 18.8284,20.6331 L 18.7943,20.496 L 18.7697,20.3568 L 18.7549,20.2162 L 18.75,20.075 L 18.7512,17.5543
 L 18.7611,17.4133 L 18.7808,17.2734 L 18.8102,17.1351 L 18.8491,16.9993 L 18.8975,16.8664 L 18.9549,16.7373
 L 19.0213,16.6125 L 19.0962,16.4926 L 19.1793,16.3783 L 19.2701,16.27 L 19.3683,16.1684 L 19.4734,16.0738
 L 19.5847,15.9868 L 19.7019,15.9077 L 19.8243,15.837 L 19.9514,15.7751 L 20.0824,15.7221 L 20.2168,15.6785
 L 20.354,15.6443 L 20.5,15.619 L 20.5,9.381 L 20.354,9.35574 L 20.2168,9.32155 L 20.0824,9.27786
 L 19.9514,9.22491 L 19.8243,9.16296 L 19.7019,9.09229 L 19.5847,9.01324 L 19.4734,8.92624 L 19.3683,8.83165
 L 19.2701,8.72998 L 19.1793,8.6217 L 19.0962,8.50735 L 19.0213,8.3875 L 18.9549,8.2627 L 18.8975,8.13358
 L 18.8491,8.00075 L 18.8102,7.86488 L 18.7808,7.72662 L 18.7611,7.58667 L 18.7512,7.44566 L 18.75,4.92502
 L 18.7549,4.78377 L 18.7697,4.6432 L 18.7943,4.504 L 18.8284,4.36687 L 18.8721,4.23244 L 18.9251,4.10138
 L 18.987,3.97435 L 19.0577,3.85194 L 19.1367,3.73476 L 19.2238,3.62338 L 19.3183,3.51834 L 19.42,3.42015
 L 19.5283,3.3293 L 19.6426,3.24623 L 19.7625,3.17133 L 19.8873,3.10497 L 20.0164,3.04749 L 20.1492,2.99913
 L 20.2851,2.96017 L 20.4234,2.93079 L 20.5,2.92001 L 20.5,1.5 L 20.498,1.43721 L 20.4921,1.37468
 L 20.4823,1.31262 L 20.4686,1.25131 L 20.451,1.19099 L 20.4298,1.13188 L 20.4048,1.07423 L 20.3763,1.01825
 L 20.3443,0.964188 L 20.309,0.912216 L 20.2705,0.862579 L 20.229,0.81546 L 20.1845,0.771042 L 20.1374,0.729492
 L 20.0878,0.690994 L 20.0358,0.655685 L 19.9818,0.623703 L 19.9258,0.595184 L 19.8681,0.570236 L 19.809,0.54895
 L 19.7487,0.531418 L 19.6874,0.517715 L 19.6253,0.507889 L 19.5628,0.501984 L 19.5,0.5 L 1.5,0.5
 L 1.43721,0.501984 L 1.37468,0.507889 L 1.31262,0.517715 L 1.25131,0.531418 L 1.19099,0.54895 L 1.13188,0.570236
 L 1.07423,0.595184 L 1.01825,0.623703 L 0.964188,0.655685 L 0.912216,0.690994 L 0.862579,0.729492 L 0.81546,0.771042
 L 0.771042,0.81546 L 0.729492,0.862579 L 0.690994,0.912216 L 0.655685,0.964188 L 0.623703,1.01825 L 0.595184,1.07423
 L 0.570236,1.13188 L 0.54895,1.19099 L 0.531418,1.25131 L 0.517715,1.31262 L 0.507889,1.37468 L 0.501984,1.43721
 L 0.5,1.5 L 0.5,2.92001 L 0.57663,2.93079 L 0.71489,2.96017 L 0.850754,2.99913 L 0.983582,3.04749
 L 1.1127,3.10497 L 1.2375,3.17133 L 1.35736,3.24623 L 1.47171,3.3293 L 1.57999,3.42015 L 1.68166,3.51834
 L 1.77625,3.62338 L 1.86325,3.73476 L 1.94229,3.85194 L 2.01297,3.97435 L 2.07492,4.10138 L 2.12787,4.23244
 L 2.17155,4.36687 L 2.20575,4.504 L 2.23029,4.6432 L 2.24507,4.78377 L 2.25,4.92502 L 2.24876,7.44566
 L 2.23891,7.58667 L 2.21924,7.72662 L 2.18985,7.86488 L 2.15089,8.00075 L 2.10254,8.13358 L 2.04506,8.2627
 L 1.9787,8.3875 L 1.90379,8.50735 L 1.82072,8.6217 L 1.72987,8.72998 L 1.63168,8.83165 L 1.52664,8.92624
 L 1.41527,9.01324 L 1.29808,9.09229 L 1.17567,9.16296 L 1.04865,9.22491 L 0.917587,9.27786 L 0.783157,9.32155
 L 0.646027,9.35574 L 0.5,9.381 L 0.5,15.619 L 0.646027,15.6443 L 0.783157,15.6785 L 0.917587,15.7221
 L 1.04865,15.7751 L 1.17567,15.837 L 1.29808,15.9077 L 1.41527,15.9868 L 1.52664,16.0738 L 1.63168,16.1684
 L 1.72987,16.27 L 1.82072,16.3783 L 1.90379,16.4926 L 1.9787,16.6125 L 2.04506,16.7373 L 2.10254,16.8664
 L 2.15089,16.9993 L 2.18985,17.1351 L 2.21924,17.2734 L 2.23891,17.4133 L 2.24876,17.5543 L 2.25,20.075
 L 2.24507,20.2162 L 2.23029,20.3568 L 2.20575,20.496 L 2.17155,20.6331 L 2.12787,20.7676 L 2.07492,20.8986
 L 2.01297,21.0257 L 1.94229,21.1481 L 1.86325,21.2652 L 1.77625,21.3766 L 1.68166,21.4817 L 1.57999,21.5798
 L 1.47171,21.6707 L 1.35736,21.7538 L 1.2375,21.8287 L 1.1127,21.895 L 0.983582,21.9525 L 0.850754,22.0009
 L 0.71489,22.0398 L 0.57663,22.0692 L 0.5,22.08 L 0.5,34.5 L 0.501984,34.5628 L 0.507889,34.6253
 L 0.517715,34.6874 L 0.531418,34.7487 L 0.54895,34.809 L 0.570236,34.8681 L 0.595184,34.9258 L 0.623703,34.9818
 L 0.655685,35.0358 L 0.690994,35.0878 L 0.729492,35.1374 L 0.771042,35.1845 L 0.81546,35.229 L 0.862579,35.2705
 L 0.912216,35.309 L 0.964188,35.3443 L 1.01825,35.3763 L 1.07423,35.4048 L 1.13188,35.4298 L 1.19099,35.451
 L 1.25131,35.4686 L 1.31262,35.4823 L 1.37468,35.4921 L 1.43721,35.498 L 1.5,35.5 L 19.5,35.5
 z
M 10.3796,24.899 L 10.2592,24.8958 L 10.1389,24.8905 L 10.0187,24.8832 L 9.89862,24.8737 L 9.77875,24.8622
 L 9.65909,24.8486 L 9.5397,24.8329 L 9.42059,24.8151 L 9.30182,24.7952 L 9.18341,24.7732 L 9.0654,24.7492
 L 8.94783,24.7232 L 8.83073,24.6951 L 8.71414,24.6649 L 8.5981,24.6327 L 8.48262,24.5985 L 8.36778,24.5623
 L 8.25357,24.5241 L 8.14006,24.4839 L 8.02725,24.4417 L 7.91521,24.3976 L 7.80396,24.3515 L 7.69351,24.3035
 L 7.58392,24.2535 L 7.47523,24.2017 L 7.36746,24.1479 L 7.26064,24.0923 L 7.1548,24.0349 L 7.04999,23.9756
 L 6.94623,23.9145 L 6.84355,23.8515 L 6.74199,23.7868 L 6.64156,23.7204 L 6.54231,23.6522 L 6.44427,23.5822
 L 6.34747,23.5106 L 6.25192,23.4373 L 6.15768,23.3623 L 6.06476,23.2857 L 5.97319,23.2075 L 5.883,23.1277
 L 5.7942,23.0463 L 5.70685,22.9635 L 5.62096,22.879 L 5.53654,22.7932 L 5.45366,22.7058 L 5.3723,22.617
 L 5.2925,22.5268 L 5.21428,22.4352 L 5.13768,22.3423 L 5.06271,22.2481 L 4.98941,22.1525 L 4.91777,22.0557
 L 4.84784,21.9577 L 4.77963,21.8584 L 4.71317,21.758 L 4.64847,21.6564 L 4.58554,21.5538 L 4.52441,21.45
 L 4.46512,21.3452 L 4.40765,21.2394 L 4.35205,21.1325 L 4.29831,21.0248 L 4.24648,20.9161 L 4.19653,20.8065
 L 4.14851,20.696 L 4.10242,20.5848 L 4.05829,20.4727 L 4.01611,20.3599 L 3.97592,20.2464 L 3.9377,20.1322
 L 3.90149,20.0174 L 3.86728,19.9019 L 3.8351,19.7859 L 3.80495,19.6693 L 3.77684,19.5522 L 3.75078,19.4346
 L 3.72676,19.3166 L 3.70482,19.1982 L 3.68494,19.0794 L 3.66714,18.9603 L 3.65143,18.8409 L 3.63779,18.7213
 L 3.62625,18.6014 L 3.61681,18.4813 L 3.60945,18.3611 L 3.6042,18.2408 L 3.60104,18.1204 L 3.59999,18
 L 3.60104,17.8796 L 3.6042,17.7592 L 3.60945,17.6389 L 3.61681,17.5187 L 3.62625,17.3986 L 3.63779,17.2788
 L 3.65143,17.1591 L 3.66714,17.0397 L 3.68494,16.9206 L 3.70482,16.8018 L 3.72676,16.6834 L 3.75078,16.5654
 L 3.77684,16.4478 L 3.80495,16.3307 L 3.8351,16.2142 L 3.86728,16.0981 L 3.90149,15.9826 L 3.9377,15.8678
 L 3.97592,15.7536 L 4.01611,15.6401 L 4.05829,15.5273 L 4.10242,15.4152 L 4.14851,15.304 L 4.19653,15.1935
 L 4.24648,15.0839 L 4.29831,14.9753 L 4.35205,14.8675 L 4.40765,14.7607 L 4.46512,14.6548 L 4.52441,14.55
 L 4.58554,14.4462 L 4.64847,14.3436 L 4.71317,14.242 L 4.77963,14.1416 L 4.84784,14.0423 L 4.91777,13.9443
 L 4.98941,13.8475 L 5.06271,13.7519 L 5.13768,13.6577 L 5.21428,13.5648 L 5.2925,13.4732 L 5.3723,13.383
 L 5.45366,13.2942 L 5.53654,13.2069 L 5.62096,13.121 L 5.70685,13.0366 L 5.7942,12.9537 L 5.883,12.8723
 L 5.97319,12.7925 L 6.06476,12.7143 L 6.15768,12.6377 L 6.25192,12.5627 L 6.34747,12.4894 L 6.44427,12.4178
 L 6.54231,12.3479 L 6.64156,12.2796 L 6.74199,12.2132 L 6.84355,12.1485 L 6.94623,12.0856 L 7.04999,12.0244
 L 7.1548,11.9651 L 7.26064,11.9077 L 7.36746,11.8521 L 7.47523,11.7983 L 7.58392,11.7465 L 7.69351,11.6965
 L 7.80396,11.6485 L 7.91521,11.6024 L 8.02725,11.5583 L 8.14006,11.5161 L 8.25357,11.4759 L 8.36778,11.4377
 L 8.48262,11.4015 L 8.5981,11.3673 L 8.71414,11.3351 L 8.83073,11.305 L 8.94783,11.2769 L 9.0654,11.2508
 L 9.18341,11.2268 L 9.30182,11.2048 L 9.42059,11.185 L 9.5397,11.1672 L 9.65909,11.1514 L 9.77875,11.1378
 L 9.89862,11.1263 L 10.0187,11.1168 L 10.1389,11.1095 L 10.2592,11.1042 L 10.3796,11.1011 L 10.5,11.1
 L 10.6204,11.1011 L 10.7408,11.1042 L 10.8611,11.1095 L 10.9813,11.1168 L 11.1014,11.1263 L 11.2212,11.1378
 L 11.3409,11.1514 L 11.4603,11.1672 L 11.5794,11.185 L 11.6982,11.2048 L 11.8166,11.2268 L 11.9346,11.2508
 L 12.0522,11.2769 L 12.1693,11.305 L 12.2858,11.3351 L 12.4019,11.3673 L 12.5174,11.4015 L 12.6322,11.4377
 L 12.7464,11.4759 L 12.8599,11.5161 L 12.9727,11.5583 L 13.0848,11.6024 L 13.196,11.6485 L 13.3065,11.6965
 L 13.4161,11.7465 L 13.5247,11.7983 L 13.6325,11.8521 L 13.7393,11.9077 L 13.8452,11.9651 L 13.95,12.0244
 L 14.0538,12.0856 L 14.1564,12.1485 L 14.258,12.2132 L 14.3584,12.2796 L 14.4577,12.3479 L 14.5557,12.4178
 L 14.6525,12.4894 L 14.7481,12.5627 L 14.8423,12.6377 L 14.9352,12.7143 L 15.0268,12.7925 L 15.117,12.8723
 L 15.2058,12.9537 L 15.2931,13.0366 L 15.379,13.121 L 15.4634,13.2069 L 15.5463,13.2942 L 15.6277,13.383
 L 15.7075,13.4732 L 15.7857,13.5648 L 15.8623,13.6577 L 15.9373,13.7519 L 16.0106,13.8475 L 16.0822,13.9443
 L 16.1521,14.0423 L 16.2204,14.1416 L 16.2868,14.242 L 16.3515,14.3436 L 16.4144,14.4462 L 16.4756,14.55
 L 16.5349,14.6548 L 16.5923,14.7607 L 16.6479,14.8675 L 16.7017,14.9753 L 16.7535,15.0839 L 16.8035,15.1935
 L 16.8515,15.304 L 16.8976,15.4152 L 16.9417,15.5273 L 16.9839,15.6401 L 17.0241,15.7536 L 17.0623,15.8678
 L 17.0985,15.9826 L 17.1327,16.0981 L 17.1649,16.2142 L 17.195,16.3307 L 17.2231,16.4478 L 17.2492,16.5654
 L 17.2732,16.6834 L 17.2952,16.8018 L 17.315,16.9206 L 17.3328,17.0397 L 17.3486,17.1591 L 17.3622,17.2788
 L 17.3737,17.3986 L 17.3832,17.5187 L 17.3905,17.6389 L 17.3958,17.7592 L 17.3989,17.8796 L 17.4,18
 L 17.3989,18.1204 L 17.3958,18.2408 L 17.3905,18.3611 L 17.3832,18.4813 L 17.3737,18.6014 L 17.3622,18.7213
 L 17.3486,18.8409 L 17.3328,18.9603 L 17.315,19.0794 L 17.2952,19.1982 L 17.2732,19.3166 L 17.2492,19.4346
 L 17.2231,19.5522 L 17.195,19.6693 L 17.1649,19.7859 L 17.1327,19.9019 L 17.0985,20.0174 L 17.0623,20.1322
 L 17.0241,20.2464 L 16.9839,20.3599 L 16.9417,20.4727 L 16.8976,20.5848 L 16.8515,20.696 L 16.8035,20.8065
 L 16.7535,20.9161 L 16.7017,21.0248 L 16.6479,21.1325 L 16.5923,21.2394 L 16.5349,21.3452 L 16.4756,21.45
 L 16.4144,21.5538 L 16.3515,21.6564 L 16.2868,21.758 L 16.2204,21.8584 L 16.1521,21.9577 L 16.0822,22.0557
 L 16.0106,22.1525 L 15.9373,22.2481 L 15.8623,22.3423 L 15.7857,22.4352 L 15.7075,22.5268 L 15.6277,22.617
 L 15.5463,22.7058 L 15.4634,22.7932 L 15.379,22.879 L 15.2931,22.9635 L 15.2058,23.0463 L 15.117,23.1277
 L 15.0268,23.2075 L 14.9352,23.2857 L 14.8423,23.3623 L 14.7481,23.4373 L 14.6525,23.5106 L 14.5557,23.5822
 L 14.4577,23.6522 L 14.3584,23.7204 L 14.258,23.7868 L 14.1564,23.8515 L 14.0538,23.9145 L 13.95,23.9756
 L 13.8452,24.0349 L 13.7393,24.0923 L 13.6325,24.1479 L 13.5247,24.2017 L 13.4161,24.2535 L 13.3065,24.3035
 L 13.196,24.3515 L 13.0848,24.3976 L 12.9727,24.4417 L 12.8599,24.4839 L 12.7464,24.5241 L 12.6322,24.5623
 L 12.5174,24.5985 L 12.4019,24.6327 L 12.2858,24.6649 L 12.1693,24.6951 L 12.0522,24.7232 L 11.9346,24.7492
 L 11.8166,24.7732 L 11.6982,24.7952 L 11.5794,24.8151 L 11.4603,24.8329 L 11.3409,24.8486 L 11.2212,24.8622
 L 11.1014,24.8737 L 10.9813,24.8832 L 10.8611,24.8905 L 10.7408,24.8958 L 10.6204,24.899 L 10.5,24.9
 z
M 41.5628,35.498 L 41.6253,35.4921 L 41.6874,35.4823 L 41.7487,35.4686 L 41.809,35.451 L 41.8681,35.4298
 L 41.9258,35.4048 L 41.9818,35.3763 L 42.0358,35.3443 L 42.0878,35.309 L 42.1374,35.2705 L 42.1845,35.229
 L 42.229,35.1845 L 42.2705,35.1374 L 42.309,35.0878 L 42.3443,35.0358 L 42.3763,34.9818 L 42.4048,34.9258
 L 42.4298,34.8681 L 42.451,34.809 L 42.4686,34.7487 L 42.4823,34.6874 L 42.4921,34.6253 L 42.498,34.5628
 L 42.5,34.5 L 42.5,22.08 L 42.4234,22.0692 L 42.2851,22.0398 L 42.1492,22.0009 L 42.0164,21.9525
 L 41.8873,21.895 L 41.7625,21.8287 L 41.6426,21.7538 L 41.5283,21.6707 L 41.42,21.5798 L 41.3183,21.4817
 L 41.2238,21.3766 L 41.1367,21.2652 L 41.0577,21.1481 L 40.987,21.0257 L 40.9251,20.8986 L 40.8721,20.7676
 L 40.8284,20.6331 L 40.7943,20.496 L 40.7697,20.3568 L 40.7549,20.2162 L 40.75,20.075 L 40.7512,17.5543
 L 40.7611,17.4133 L 40.7808,17.2734 L 40.8102,17.1351 L 40.8491,16.9993 L 40.8975,16.8664 L 40.9549,16.7373
 L 41.0213,16.6125 L 41.0962,16.4926 L 41.1793,16.3783 L 41.2701,16.27 L 41.3683,16.1684 L 41.4734,16.0738
 L 41.5847,15.9868 L 41.7019,15.9077 L 41.8243,15.837 L 41.9514,15.7751 L 42.0824,15.7221 L 42.2168,15.6785
 L 42.354,15.6443 L 42.5,15.619 L 42.5,9.381 L 42.354,9.35574 L 42.2168,9.32155 L 42.0824,9.27786
 L 41.9514,9.22491 L 41.8243,9.16296 L 41.7019,9.09229 L 41.5847,9.01324 L 41.4734,8.92624 L 41.3683,8.83165
 L 41.2701,8.72998 L 41.1793,8.6217 L 41.0962,8.50735 L 41.0213,8.3875 L 40.9549,8.2627 L 40.8975,8.13358
 L 40.8491,8.00075 L 40.8102,7.86488 L 40.7808,7.72662 L 40.7611,7.58667 L 40.7512,7.44566 L 40.75,4.92502
 L 40.7549,4.78377 L 40.7697,4.6432 L 40.7943,4.504 L 40.8284,4.36687 L 40.8721,4.23244 L 40.9251,4.10138
 L 40.987,3.97435 L 41.0577,3.85194 L 41.1367,3.73476 L 41.2238,3.62338 L 41.3183,3.51834 L 41.42,3.42015
 L 41.5283,3.3293 L 41.6426,3.24623 L 41.7625,3.17133 L 41.8873,3.10497 L 42.0164,3.04749 L 42.1492,2.99913
 L 42.2851,2.96017 L 42.4234,2.93079 L 42.5,2.92001 L 42.5,1.5 L 42.498,1.43721 L 42.4921,1.37468
 L 42.4823,1.31262 L 42.4686,1.25131 L 42.451,1.19099 L 42.4298,1.13188 L 42.4048,1.07423 L 42.3763,1.01825
 L 42.3443,0.964188 L 42.309,0.912216 L 42.2705,0.862579 L 42.229,0.81546 L 42.1845,0.771042 L 42.1374,0.729492
 L 42.0878,0.690994 L 42.0358,0.655685 L 41.9818,0.623703 L 41.9258,0.595184 L 41.8681,0.570236 L 41.809,0.54895
 L 41.7487,0.531418 L 41.6874,0.517715 L 41.6253,0.507889 L 41.5628,0.501984 L 41.5,0.5 L 23.5,0.5
 L 23.4372,0.501984 L 23.3747,0.507889 L 23.3126,0.517715 L 23.2513,0.531418 L 23.191,0.54895 L 23.1319,0.570236
 L 23.0742,0.595184 L 23.0182,0.623703 L 22.9642,0.655685 L 22.9122,0.690994 L 22.8626,0.729492 L 22.8155,0.771042
 L 22.771,0.81546 L 22.7295,0.862579 L 22.691,0.912216 L 22.6557,0.964188 L 22.6237,1.01825 L 22.5952,1.07423
 L 22.5702,1.13188 L 22.549,1.19099 L 22.5314,1.25131 L 22.5177,1.31262 L 22.5079,1.37468 L 22.502,1.43721
 L 22.5,1.5 L 22.5,2.92001 L 22.5766,2.93079 L 22.7149,2.96017 L 22.8508,2.99913 L 22.9836,3.04749
 L 23.1127,3.10497 L 23.2375,3.17133 L 23.3574,3.24623 L 23.4717,3.3293 L 23.58,3.42015 L 23.6817,3.51834
 L 23.7762,3.62338 L 23.8633,3.73476 L 23.9423,3.85194 L 24.013,3.97435 L 24.0749,4.10138 L 24.1279,4.23244
 L 24.1716,4.36687 L 24.2057,4.504 L 24.2303,4.6432 L 24.2451,4.78377 L 24.25,4.92502 L 24.2488,7.44566
 L 24.2389,7.58667 L 24.2192,7.72662 L 24.1898,7.86488 L 24.1509,8.00075 L 24.1025,8.13358 L 24.0451,8.2627
 L 23.9787,8.3875 L 23.9038,8.50735 L 23.8207,8.6217 L 23.7299,8.72998 L 23.6317,8.83165 L 23.5266,8.92624
 L 23.4153,9.01324 L 23.2981,9.09229 L 23.1757,9.16296 L 23.0486,9.22491 L 22.9176,9.27786 L 22.7832,9.32155
 L 22.646,9.35574 L 22.5,9.381 L 22.5,15.619 L 22.646,15.6443 L 22.7832,15.6785 L 22.9176,15.7221
 L 23.0486,15.7751 L 23.1757,15.837 L 23.2981,15.9077 L 23.4153,15.9868 L 23.5266,16.0738 L 23.6317,16.1684
 L 23.7299,16.27 L 23.8207,16.3783 L 23.9038,16.4926 L 23.9787,16.6125 L 24.0451,16.7373 L 24.1025,16.8664
 L 24.1509,16.9993 L 24.1898,17.1351 L 24.2192,17.2734 L 24.2389,17.4133 L 24.2488,17.5543 L 24.25,20.075
 L 24.2451,20.2162 L 24.2303,20.3568 L 24.2057,20.496 L 24.1716,20.6331 L 24.1279,20.7676 L 24.0749,20.8986
 L 24.013,21.0257 L 23.9423,21.1481 L 23.8633,21.2652 L 23.7762,21.3766 L 23.6817,21.4817 L 23.58,21.5798
 L 23.4717,21.6707 L 23.3574,21.7538 L 23.2375,21.8287 L 23.1127,21.895 L 22.9836,21.9525 L 22.8508,22.0009
 L 22.7149,22.0398 L 22.5766,22.0692 L 22.5,22.08 L 22.5,34.5 L 22.502,34.5628 L 22.5079,34.6253
 L 22.5177,34.6874 L 22.5314,34.7487 L 22.549,34.809 L 22.5702,34.8681 L 22.5952,34.9258 L 22.6237,34.9818
 L 22.6557,35.0358 L 22.691,35.0878 L 22.7295,35.1374 L 22.771,35.1845 L 22.8155,35.229 L 22.8626,35.2705
 L 22.9122,35.309 L 22.9642,35.3443 L 23.0182,35.3763 L 23.0742,35.4048 L 23.1319,35.4298 L 23.191,35.451
 L 23.2513,35.4686 L 23.3126,35.4823 L 23.3747,35.4921 L 23.4372,35.498 L 23.5,35.5 L 41.5,35.5
 z
M 31.4477,28.9986 L 31.3264,28.9848 L 31.2076,28.9563 L 31.0933,28.9135 L 30.985,28.8572 L 30.8844,28.788
 L 30.7929,28.7071 L 30.712,28.6156 L 30.6428,28.515 L 30.5865,28.4067 L 30.5437,28.2924 L 30.5152,28.1736
 L 30.5014,28.0523 L 30.5011,24.604 L 30.4861,24.5995 L 26.9,24.6 L 26.8477,24.5986 L 26.7264,24.5848
 L 26.6077,24.5563 L 26.4933,24.5135 L 26.385,24.4572 L 26.2844,24.388 L 26.1929,24.3071 L 26.112,24.2156
 L 26.0428,24.115 L 25.9865,24.0067 L 25.9437,23.8923 L 25.9152,23.7736 L 25.9014,23.6523 L 25.9009,20.0155
 L 25.8673,19.9019 L 25.8351,19.7859 L 25.8049,19.6693 L 25.7768,19.5522 L 25.7508,19.4346 L 25.7268,19.3166
 L 25.7048,19.1982 L 25.6849,19.0794 L 25.6671,18.9603 L 25.6514,18.8409 L 25.6378,18.7213 L 25.6263,18.6014
 L 25.6168,18.4813 L 25.6095,18.3611 L 25.6042,18.2408 L 25.601,18.1204 L 25.6,18 L 25.601,17.8796
 L 25.6042,17.7592 L 25.6095,17.6389 L 25.6168,17.5187 L 25.6263,17.3986 L 25.6378,17.2788 L 25.6514,17.1591
 L 25.6671,17.0397 L 25.6849,16.9206 L 25.7048,16.8018 L 25.7268,16.6834 L 25.7508,16.5654 L 25.7768,16.4478
 L 25.8049,16.3307 L 25.8351,16.2142 L 25.8673,16.0981 L 25.9005,15.9862 L 25.9,12.4 L 25.9014,12.3477
 L 25.9152,12.2264 L 25.9437,12.1077 L 25.9865,11.9933 L 26.0428,11.885 L 26.112,11.7844 L 26.1929,11.6929
 L 26.2844,11.612 L 26.385,11.5428 L 26.4933,11.4865 L 26.6077,11.4437 L 26.7264,11.4152 L 26.8477,11.4014
 L 30.4845,11.4009 L 30.5002,11.3963 L 30.5,8 L 30.5014,7.94768 L 30.5152,7.82635 L 30.5437,7.70764
 L 30.5865,7.59328 L 30.6428,7.48497 L 30.712,7.38435 L 30.7929,7.29291 L 30.8844,7.21199 L 30.985,7.14284
 L 31.0933,7.08646 L 31.2076,7.0437 L 31.3264,7.0152 L 31.4477,7.00137 L 33.5,7 L 33.6045,7.00549
 L 33.7249,7.02563 L 33.842,7.06032 L 33.954,7.10899 L 34.0592,7.17097 L 34.1561,7.2453 L 34.2431,7.33087
 L 34.3191,7.42644 L 34.3829,7.53053 L 34.4336,7.64163 L 34.4703,7.75809 L 34.4925,7.87814 L 34.5,8
 L 34.5,11.3964 L 34.5138,11.4005 L 38.1,11.4 L 38.2045,11.4055 L 38.3249,11.4256 L 38.442,11.4603
 L 38.554,11.509 L 38.6592,11.571 L 38.756,11.6453 L 38.8431,11.7309 L 38.9191,11.8264 L 38.9829,11.9305
 L 39.0336,12.0416 L 39.0703,12.1581 L 39.0925,12.2782 L 39.1,12.4 L 39.1,15.9877 L 39.1327,16.0981
 L 39.1649,16.2142 L 39.195,16.3307 L 39.2231,16.4478 L 39.2492,16.5654 L 39.2732,16.6834 L 39.2952,16.8018
 L 39.315,16.9206 L 39.3328,17.0397 L 39.3486,17.1591 L 39.3622,17.2788 L 39.3737,17.3986 L 39.3832,17.5187
 L 39.3905,17.6389 L 39.3958,17.7592 L 39.3989,17.8796 L 39.4,18 L 39.3989,18.1204 L 39.3958,18.2408
 L 39.3905,18.3611 L 39.3832,18.4813 L 39.3737,18.6014 L 39.3622,18.7213 L 39.3486,18.8409 L 39.3328,18.9603
 L 39.315,19.0794 L 39.2952,19.1982 L 39.2732,19.3166 L 39.2492,19.4346 L 39.2231,19.5522 L 39.195,19.6693
 L 39.1649,19.7859 L 39.1327,19.9019 L 39.1,20.0123 L 39.1,23.6 L 39.0986,23.6523 L 39.0848,23.7736
 L 39.0563,23.8923 L 39.0135,24.0067 L 38.9572,24.115 L 38.888,24.2156 L 38.8071,24.3071 L 38.7156,24.388
 L 38.615,24.4572 L 38.5067,24.5135 L 38.3923,24.5563 L 38.2736,24.5848 L 38.1523,24.5986 L 34.5155,24.5991
 L 34.5,24.6037 L 34.5,28 L 34.4986,28.0523 L 34.4848,28.1736 L 34.4563,28.2924 L 34.4135,28.4067
 L 34.3572,28.515 L 34.288,28.6156 L 34.2071,28.7071 L 34.1156,28.788 L 34.015,28.8572 L 33.9067,28.9135
 L 33.7924,28.9563 L 33.6736,28.9848 L 33.5523,28.9986 L 31.5,29 z
M 63.5628,35.498 L 63.6253,35.4921 L 63.6874,35.4823 L 63.7487,35.4686 L 63.809,35.451 L 63.8681,35.4298
 L 63.9258,35.4048 L 63.9818,35.3763 L 64.0358,35.3443 L 64.0878,35.309 L 64.1374,35.2705 L 64.1845,35.229
 L 64.229,35.1845 L 64.2705,35.1374 L 64.309,35.0878 L 64.3443,35.0358 L 64.3763,34.9818 L 64.4048,34.9258
 L 64.4298,34.8681 L 64.451,34.809 L 64.4686,34.7487 L 64.4823,34.6874 L 64.4921,34.6253 L 64.498,34.5628
 L 64.5,34.5 L 64.5,22.08 L 64.4234,22.0692 L 64.2851,22.0398 L 64.1492,22.0009 L 64.0164,21.9525
 L 63.8873,21.895 L 63.7625,21.8287 L 63.6426,21.7538 L 63.5283,21.6707 L 63.42,21.5798 L 63.3183,21.4817
 L 63.2238,21.3766 L 63.1367,21.2652 L 63.0577,21.1481 L 62.987,21.0257 L 62.9251,20.8986 L 62.8721,20.7676
 L 62.8284,20.6331 L 62.7943,20.496 L 62.7697,20.3568 L 62.7549,20.2162 L 62.75,20.075 L 62.7512,17.5543
 L 62.7611,17.4133 L 62.7808,17.2734 L 62.8102,17.1351 L 62.8491,16.9993 L 62.8975,16.8664 L 62.9549,16.7373
 L 63.0213,16.6125 L 63.0962,16.4926 L 63.1793,16.3783 L 63.2701,16.27 L 63.3683,16.1684 L 63.4734,16.0738
 L 63.5847,15.9868 L 63.7019,15.9077 L 63.8243,15.837 L 63.9514,15.7751 L 64.0824,15.7221 L 64.2168,15.6785
 L 64.354,15.6443 L 64.5,15.619 L 64.5,9.381 L 64.354,9.35574 L 64.2168,9.32155 L 64.0824,9.27786
 L 63.9514,9.22491 L 63.8243,9.16296 L 63.7019,9.09229 L 63.5847,9.01324 L 63.4734,8.92624 L 63.3683,8.83165
 L 63.2701,8.72998 L 63.1793,8.6217 L 63.0962,8.50735 L 63.0213,8.3875 L 62.9549,8.2627 L 62.8975,8.13358
 L 62.8491,8.00075 L 62.8102,7.86488 L 62.7808,7.72662 L 62.7611,7.58667 L 62.7512,7.44566 L 62.75,4.92502
 L 62.7549,4.78377 L 62.7697,4.6432 L 62.7943,4.504 L 62.8284,4.36687 L 62.8721,4.23244 L 62.9251,4.10138
 L 62.987,3.97435 L 63.0577,3.85194 L 63.1367,3.73476 L 63.2238,3.62338 L 63.3183,3.51834 L 63.42,3.42015
 L 63.5283,3.3293 L 63.6426,3.24623 L 63.7625,3.17133 L 63.8873,3.10497 L 64.0164,3.04749 L 64.1492,2.99913
 L 64.2851,2.96017 L 64.4234,2.93079 L 64.5,2.92001 L 64.5,1.5 L 64.498,1.43721 L 64.4921,1.37468
 L 64.4823,1.31262 L 64.4686,1.25131 L 64.451,1.19099 L 64.4298,1.13188 L 64.4048,1.07423 L 64.3763,1.01825
 L 64.3443,0.964188 L 64.309,0.912216 L 64.2705,0.862579 L 64.229,0.81546 L 64.1845,0.771042 L 64.1374,0.729492
 L 64.0878,0.690994 L 64.0358,0.655685 L 63.9818,0.623703 L 63.9258,0.595184 L 63.8681,0.570236 L 63.809,0.54895
 L 63.7487,0.531418 L 63.6874,0.517715 L 63.6253,0.507889 L 63.5628,0.501984 L 63.5,0.5 L 45.5,0.5
 L 45.4372,0.501984 L 45.3747,0.507889 L 45.3126,0.517715 L 45.2513,0.531418 L 45.191,0.54895 L 45.1319,0.570236
 L 45.0742,0.595184 L 45.0182,0.623703 L 44.9642,0.655685 L 44.9122,0.690994 L 44.8626,0.729492 L 44.8155,0.771042
 L 44.771,0.81546 L 44.7295,0.862579 L 44.691,0.912216 L 44.6557,0.964188 L 44.6237,1.01825 L 44.5952,1.07423
 L 44.5702,1.13188 L 44.549,1.19099 L 44.5314,1.25131 L 44.5177,1.31262 L 44.5079,1.37468 L 44.502,1.43721
 L 44.5,1.5 L 44.5,2.92001 L 44.5766,2.93079 L 44.7149,2.96017 L 44.8508,2.99913 L 44.9836,3.04749
 L 45.1127,3.10497 L 45.2375,3.17133 L 45.3574,3.24623 L 45.4717,3.3293 L 45.58,3.42015 L 45.6817,3.51834
 L 45.7762,3.62338 L 45.8633,3.73476 L 45.9423,3.85194 L 46.013,3.97435 L 46.0749,4.10138 L 46.1279,4.23244
 L 46.1716,4.36687 L 46.2057,4.504 L 46.2303,4.6432 L 46.2451,4.78377 L 46.25,4.92502 L 46.2488,7.44566
 L 46.2389,7.58667 L 46.2192,7.72662 L 46.1898,7.86488 L 46.1509,8.00075 L 46.1025,8.13358 L 46.0451,8.2627
 L 45.9787,8.3875 L 45.9038,8.50735 L 45.8207,8.6217 L 45.7299,8.72998 L 45.6317,8.83165 L 45.5266,8.92624
 L 45.4153,9.01324 L 45.2981,9.09229 L 45.1757,9.16296 L 45.0486,9.22491 L 44.9176,9.27786 L 44.7832,9.32155
 L 44.646,9.35574 L 44.5,9.381 L 44.5,15.619 L 44.646,15.6443 L 44.7832,15.6785 L 44.9176,15.7221
 L 45.0486,15.7751 L 45.1757,15.837 L 45.2981,15.9077 L 45.4153,15.9868 L 45.5266,16.0738 L 45.6317,16.1684
 L 45.7299,16.27 L 45.8207,16.3783 L 45.9038,16.4926 L 45.9787,16.6125 L 46.0451,16.7373 L 46.1025,16.8664
 L 46.1509,16.9993 L 46.1898,17.1351 L 46.2192,17.2734 L 46.2389,17.4133 L 46.2488,17.5543 L 46.25,20.075
 L 46.2451,20.2162 L 46.2303,20.3568 L 46.2057,20.496 L 46.1716,20.6331 L 46.1279,20.7676 L 46.0749,20.8986
 L 46.013,21.0257 L 45.9423,21.1481 L 45.8633,21.2652 L 45.7762,21.3766 L 45.6817,21.4817 L 45.58,21.5798
 L 45.4717,21.6707 L 45.3574,21.7538 L 45.2375,21.8287 L 45.1127,21.895 L 44.9836,21.9525 L 44.8508,22.0009
 L 44.7149,22.0398 L 44.5766,22.0692 L 44.5,22.08 L 44.5,34.5 L 44.502,34.5628 L 44.5079,34.6253
 L 44.5177,34.6874 L 44.5314,34.7487 L 44.549,34.809 L 44.5702,34.8681 L 44.5952,34.9258 L 44.6237,34.9818
 L 44.6557,35.0358 L 44.691,35.0878 L 44.7295,35.1374 L 44.771,35.1845 L 44.8155,35.229 L 44.8626,35.2705
 L 44.9122,35.309 L 44.9642,35.3443 L 45.0182,35.3763 L 45.0742,35.4048 L 45.1319,35.4298 L 45.191,35.451
 L 45.2513,35.4686 L 45.3126,35.4823 L 45.3747,35.4921 L 45.4372,35.498 L 45.5,35.5 L 63.5,35.5
 z
M 53.4477,28.9986 L 53.3264,28.9848 L 53.2076,28.9563 L 53.0933,28.9135 L 52.985,28.8572 L 52.8844,28.788
 L 52.7929,28.7071 L 52.712,28.6156 L 52.6428,28.515 L 52.5865,28.4067 L 52.5437,28.2924 L 52.5152,28.1736
 L 52.5014,28.0523 L 52.5011,24.604 L 52.4861,24.5995 L 48.9,24.6 L 48.8477,24.5986 L 48.7264,24.5848
 L 48.6077,24.5563 L 48.4933,24.5135 L 48.385,24.4572 L 48.2844,24.388 L 48.1929,24.3071 L 48.112,24.2156
 L 48.0428,24.115 L 47.9865,24.0067 L 47.9437,23.8923 L 47.9152,23.7736 L 47.9014,23.6523 L 47.9009,20.0155
 L 47.8673,19.9019 L 47.8351,19.7859 L 47.8049,19.6693 L 47.7768,19.5522 L 47.7508,19.4346 L 47.7268,19.3166
 L 47.7048,19.1982 L 47.6849,19.0794 L 47.6671,18.9603 L 47.6514,18.8409 L 47.6378,18.7213 L 47.6263,18.6014
 L 47.6168,18.4813 L 47.6095,18.3611 L 47.6042,18.2408 L 47.601,18.1204 L 47.6,18 L 47.601,17.8796
 L 47.6042,17.7592 L 47.6095,17.6389 L 47.6168,17.5187 L 47.6263,17.3986 L 47.6378,17.2788 L 47.6514,17.1591
 L 47.6671,17.0397 L 47.6849,16.9206 L 47.7048,16.8018 L 47.7268,16.6834 L 47.7508,16.5654 L 47.7768,16.4478
 L 47.8049,16.3307 L 47.8351,16.2142 L 47.8673,16.0981 L 47.9005,15.9862 L 47.9,12.4 L 47.9014,12.3477
 L 47.9152,12.2264 L 47.9437,12.1077 L 47.9865,11.9933 L 48.0428,11.885 L 48.112,11.7844 L 48.1929,11.6929
 L 48.2844,11.612 L 48.385,11.5428 L 48.4933,11.4865 L 48.6077,11.4437 L 48.7264,11.4152 L 48.8477,11.4014
 L 52.4845,11.4009 L 52.5002,11.3963 L 52.5,8 L 52.5014,7.94768 L 52.5152,7.82635 L 52.5437,7.70764
 L 52.5865,7.59328 L 52.6428,7.48497 L 52.712,7.38435 L 52.7929,7.29291 L 52.8844,7.21199 L 52.985,7.14284
 L 53.0933,7.08646 L 53.2076,7.0437 L 53.3264,7.0152 L 53.4477,7.00137 L 55.5,7 L 55.6045,7.00549
 L 55.7249,7.02563 L 55.842,7.06032 L 55.954,7.10899 L 56.0592,7.17097 L 56.1561,7.2453 L 56.2431,7.33087
 L 56.3191,7.42644 L 56.3829,7.53053 L 56.4336,7.64163 L 56.4703,7.75809 L 56.4925,7.87814 L 56.5,8
 L 56.5,11.3964 L 56.5138,11.4005 L 60.1,11.4 L 60.2045,11.4055 L 60.3249,11.4256 L 60.442,11.4603
 L 60.554,11.509 L 60.6592,11.571 L 60.756,11.6453 L 60.8431,11.7309 L 60.9191,11.8264 L 60.9829,11.9305
 L 61.0336,12.0416 L 61.0703,12.1581 L 61.0925,12.2782 L 61.1,12.4 L 61.1,15.9877 L 61.1327,16.0981
 L 61.1649,16.2142 L 61.195,16.3307 L 61.2231,16.4478 L 61.2492,16.5654 L 61.2732,16.6834 L 61.2952,16.8018
 L 61.315,16.9206 L 61.3328,17.0397 L 61.3486,17.1591 L 61.3622,17.2788 L 61.3737,17.3986 L 61.3832,17.5187
 L 61.3905,17.6389 L 61.3958,17.7592 L 61.3989,17.8796 L 61.4,18 L 61.3989,18.1204 L 61.3958,18.2408
 L 61.3905,18.3611 L 61.3832,18.4813 L 61.3737,18.6014 L 61.3622,18.7213 L 61.3486,18.8409 L 61.3328,18.9603
 L 61.315,19.0794 L 61.2952,19.1982 L 61.2732,19.3166 L 61.2492,19.4346 L 61.2231,19.5522 L 61.195,19.6693
 L 61.1649,19.7859 L 61.1327,19.9019 L 61.1,20.0123 L 61.1,23.6 L 61.0986,23.6523 L 61.0848,23.7736
 L 61.0563,23.8923 L 61.0135,24.0067 L 60.9572,24.115 L 60.888,24.2156 L 60.8071,24.3071 L 60.7156,24.388
 L 60.615,24.4572 L 60.5067,24.5135 L 60.3923,24.5563 L 60.2736,24.5848 L 60.1523,24.5986 L 56.5155,24.5991
 L 56.5,24.6037 L 56.5,28 L 56.4986,28.0523 L 56.4848,28.1736 L 56.4563,28.2924 L 56.4135,28.4067
 L 56.3572,28.515 L 56.288,28.6156 L 56.2071,28.7071 L 56.1156,28.788 L 56.015,28.8572 L 55.9067,28.9135
 L 55.7924,28.9563 L 55.6736,28.9848 L 55.5523,28.9986 L 53.5,29 z
" stroke="black" fill="lightgray" stroke-width="0.5"/></svg>
