<?xml version="1.0" standalone="no"?>
<!DOCTYPE svg PUBLIC "-//W3C//DTD SVG 1.1//EN" "http://www.w3.org/Graphics/SVG/1.1/DTD/svg11.dtd">
<svg width="56mm" height="65mm" viewBox="0 0 56 65" xmlns="http://www.w3.org/2000/svg" version="1.1">
<title>OpenSCAD Model</title>
<path d="
M 55.0628,64.998 L 55.1253,64.9921 L 55.1874,64.9823 L 55.2487,64.9686 L 55.309,64.951 L 55.3681,64.9298
 L 55.4258,64.9048 L 55.4818,64.8763 L 55.5358,64.8443 L 55.5878,64.809 L 55.6374,64.7705 L 55.6845,64.729
 L 55.729,64.6845 L 55.7705,64.6374 L 55.809,64.5878 L 55.8443,64.5358 L 55.8763,64.4818 L 55.9048,64.4258
 L 55.9298,64.3681 L 55.951,64.309 L 55.9686,64.2487 L 55.9823,64.1874 L 55.9921,64.1253 L 55.998,64.0628
 L 56,64 L 56,1 L 55.998,0.93721 L 55.9921,0.87468 L 55.9823,0.812622 L 55.9686,0.751312
 L 55.951,0.690994 L 55.9298,0.631882 L 55.9048,0.574234 L 55.8763,0.51825 L 55.8443,0.464188 L 55.809,0.412216
 L 55.7705,0.362579 L 55.729,0.31546 L 55.6845,0.271042 L 55.6374,0.229492 L 55.5878,0.190994 L 55.5358,0.155685
 L 55.4818,0.123703 L 55.4258,0.0951843 L 55.3681,0.0702362 L 55.309,0.0489502 L 55.2487,0.0314178 L 55.1874,0.0177155
 L 55.1253,0.00788879 L 55.0628,0.00198364 L 55,-0 L 1,-0 L 0.93721,0.00198364 L 0.87468,0.00788879
 L 0.812622,0.0177155 L 0.751312,0.0314178 L 0.690994,0.0489502 L 0.631882,0.0702362 L 0.574234,0.0951843 L 0.51825,0.123703
 L 0.464188,0.155685 L 0.412216,0.190994 L 0.362579,0.229492 L 0.31546,0.271042 L 0.271042,0.31546 L 0.229492,0.362579
 L 0.190994,0.412216 L 0.155685,0.464188 L 0.123703,0.51825 L 0.0951843,0.574234 L 0.0702362,0.631882 L 0.0489502,0.690994
 L 0.0314178,0.751312 L 0.0177155,0.812622 L 0.00788879,0.87468 L 0.00198364,0.93721 L 0,1 L 0,6.50069
 L 6,6.5 L 6.10452,6.50549 L 6.22495,6.52563 L 6.34201,6.56032 L 6.45398,6.60899 L 6.55919,6.67097
 L 6.65605,6.7453 L 6.74313,6.83087 L 6.81914,6.92644 L 6.88293,7.03053 L 6.93358,7.14163 L 6.97029,7.25809
 L 6.99254,7.37814 L 7,7.5 L 7,57.5 L 6.99863,57.5523 L 6.9848,57.6736 L 6.9563,57.7924
 L 6.91354,57.9067 L 6.85716,58.015 L 6.78801,58.1156 L 6.70709,58.2071 L 6.61565,58.288 L 6.51503,58.3572
 L 6.40672,58.4135 L 6.29236,58.4563 L 6.17365,58.4848 L 6.05232,58.4986 L 0,58.4993 L 0,64
 L 0.00198364,64.0628 L 0.00788879,64.1253 L 0.0177155,64.1874 L 0.0314178,64.2487 L 0.0489502,64.309 L 0.0702362,64.3681
 L 0.0951843,64.4258 L 0.123703,64.4818 L 0.155685,64.5358 L 0.190994,64.5878 L 0.229492,64.6374 L 0.271042,64.6845
 L 0.31546,64.729 L 0.362579,64.7705 L 0.412216,64.809 L 0.464188,64.8443 L 0.51825,64.8763 L 0.574234,64.9048
 L 0.631882,64.9298 L 0.690994,64.951 L 0.751312,64.9686 L 0.812622,64.9823 L 0.87468,64.9921 L 0.93721,64.998
 L 1,65 L 55,65 z
M 3.57065,4.84816 L 3.45288,4.84918 L 3.33546,4.83995 L 3.21931,4.82051 L 3.10529,4.79102 L 2.99428,4.75171
 L 2.8871,4.70287 L 2.78461,4.64487 L 2.68755,4.57817 L 2.59666,4.50325 L 2.51266,4.4207 L 2.43617,4.33115
 L 2.36778,4.23528 L 2.30801,4.13379 L 2.25731,4.0275 L 2.21606,3.91718 L 2.18459,3.8037 L 2.16313,3.6879
 L 2.15184,3.57066 L 2.15082,3.4529 L 2.16005,3.33548 L 2.17949,3.21933 L 2.20898,3.1053 L 2.24829,2.99429
 L 2.29713,2.88712 L 2.35513,2.78462 L 2.42183,2.68756 L 2.49675,2.59668 L 2.5793,2.51268 L 2.66885,2.43619
 L 2.76472,2.3678 L 2.86621,2.30803 L 2.9725,2.25732 L 3.08282,2.21608 L 3.1963,2.1846 L 3.3121,2.16315
 L 3.42934,2.15186 L 3.5471,2.15083 L 3.66452,2.16006 L 3.78067,2.1795 L 3.8947,2.209 L 4.00571,2.24831
 L 4.11288,2.29715 L 4.21538,2.35515 L 4.31244,2.42184 L 4.40332,2.49677 L 4.48732,2.57932 L 4.56381,2.66887
 L 4.6322,2.76474 L 4.69197,2.86623 L 4.74268,2.97252 L 4.78392,3.08284 L 4.8154,3.19632 L 4.83685,3.31212
 L 4.84814,3.42935 L 4.84917,3.54712 L 4.83994,3.66454 L 4.8205,3.78069 L 4.791,3.89471 L 4.75169,4.00572
 L 4.70285,4.1129 L 4.64485,4.21539 L 4.57816,4.31245 L 4.50323,4.40334 L 4.42068,4.48734 L 4.33113,4.56383
 L 4.23526,4.63222 L 4.13377,4.69199 L 4.02748,4.74269 L 3.91716,4.78394 L 3.80368,4.81541 L 3.68788,4.83687
 z
M 52.5706,4.84816 L 52.4529,4.84918 L 52.3355,4.83995 L 52.2193,4.82051 L 52.1053,4.79102 L 51.9943,4.75171
 L 51.8871,4.70287 L 51.7846,4.64487 L 51.6875,4.57817 L 51.5967,4.50325 L 51.5127,4.4207 L 51.4362,4.33115
 L 51.3678,4.23528 L 51.308,4.13379 L 51.2573,4.0275 L 51.2161,3.91718 L 51.1846,3.8037 L 51.1631,3.6879
 L 51.1518,3.57066 L 51.1508,3.4529 L 51.16,3.33548 L 51.1795,3.21933 L 51.209,3.1053 L 51.2483,2.99429
 L 51.2971,2.88712 L 51.3551,2.78462 L 51.4218,2.68756 L 51.4967,2.59668 L 51.5793,2.51268 L 51.6689,2.43619
 L 51.7647,2.3678 L 51.8662,2.30803 L 51.9725,2.25732 L 52.0828,2.21608 L 52.1963,2.1846 L 52.3121,2.16315
 L 52.4293,2.15186 L 52.5471,2.15083 L 52.6645,2.16006 L 52.7807,2.1795 L 52.8947,2.209 L 53.0057,2.24831
 L 53.1129,2.29715 L 53.2154,2.35515 L 53.3124,2.42184 L 53.4033,2.49677 L 53.4873,2.57932 L 53.5638,2.66887
 L 53.6322,2.76474 L 53.692,2.86623 L 53.7427,2.97252 L 53.7839,3.08284 L 53.8154,3.19632 L 53.8369,3.31212
 L 53.8481,3.42935 L 53.8492,3.54712 L 53.8399,3.66454 L 53.8205,3.78069 L 53.791,3.89471 L 53.7517,4.00572
 L 53.7029,4.1129 L 53.6449,4.21539 L 53.5782,4.31245 L 53.5032,4.40334 L 53.4207,4.48734 L 53.3311,4.56383
 L 53.2353,4.63222 L 53.1338,4.69199 L 53.0275,4.74269 L 52.9172,4.78394 L 52.8037,4.81541 L 52.6879,4.83687
 z
M 42.2628,19.1462 L 42.2108,19.1403 L 42.0912,19.1159 L 41.9754,19.0772 L 41.8652,19.0246 L 41.7622,18.959
 L 41.668,18.8814 L 41.584,18.7928 L 41.5113,18.6946 L 41.4512,18.5884 L 41.4045,18.4756 L 41.3718,18.3579
 L 41.3538,18.2372 L 41.3506,18.1151 L 41.3623,17.9936 L 41.3887,17.8744 L 41.4295,17.7593 L 41.484,17.65
 L 41.5514,17.5482 L 41.6306,17.4554 L 41.7207,17.3729 L 41.8201,17.302 L 41.9274,17.2437 L 42.041,17.1989
 L 42.1592,17.1684 L 42.2802,17.1525 L 42.4023,17.1514 L 42.5236,17.1652 L 42.6424,17.1937 L 42.7567,17.2365
 L 42.865,17.2928 L 42.9657,17.362 L 43.0571,17.4429 L 43.138,17.5343 L 43.2072,17.635 L 43.2635,17.7433
 L 43.3063,17.8576 L 43.3348,17.9764 L 43.3486,18.0977 L 43.3475,18.2198 L 43.3316,18.3408 L 43.3011,18.459
 L 43.2563,18.5726 L 43.198,18.6799 L 43.1271,18.7793 L 43.0446,18.8694 L 42.9518,18.9486 L 42.85,19.016
 L 42.7407,19.0705 L 42.6256,19.1113 L 42.5064,19.1377 L 42.3849,19.1494 z
M 13.5629,19.1462 L 13.5108,19.1403 L 13.3912,19.1159 L 13.2754,19.0772 L 13.1652,19.0246 L 13.0622,18.959
 L 12.968,18.8814 L 12.884,18.7928 L 12.8113,18.6946 L 12.7512,18.5884 L 12.7045,18.4756 L 12.6719,18.3579
 L 12.6538,18.2372 L 12.6506,18.1151 L 12.6623,17.9936 L 12.6888,17.8744 L 12.7295,17.7593 L 12.784,17.65
 L 12.8514,17.5482 L 12.9307,17.4554 L 13.0207,17.3729 L 13.1201,17.302 L 13.2274,17.2437 L 13.341,17.1989
 L 13.4592,17.1684 L 13.5802,17.1525 L 13.7023,17.1514 L 13.8237,17.1652 L 13.9424,17.1937 L 14.0567,17.2365
 L 14.165,17.2928 L 14.2657,17.362 L 14.3571,17.4429 L 14.438,17.5343 L 14.5072,17.635 L 14.5636,17.7433
 L 14.6063,17.8576 L 14.6348,17.9764 L 14.6486,18.0977 L 14.6476,18.2198 L 14.6316,18.3408 L 14.6011,18.459
 L 14.5563,18.5726 L 14.4981,18.6799 L 14.4272,18.7793 L 14.3447,18.8694 L 14.2518,18.9486 L 14.15,19.016
 L 14.0407,19.0705 L 13.9256,19.1113 L 13.8064,19.1377 L 13.6849,19.1494 z
M 41.0477,25.3986 L 40.9263,25.3848 L 40.8076,25.3563 L 40.6933,25.3136 L 40.585,25.2572 L 40.4843,25.188
 L 40.3929,25.1071 L 40.312,25.0157 L 40.2428,24.915 L 40.1864,24.8067 L 40.1437,24.6924 L 40.1152,24.5737
 L 40.1014,24.4523 L 40.1,21.9 L 40.1014,21.8477 L 40.1152,21.7264 L 40.1437,21.6077 L 40.1864,21.4933
 L 40.2428,21.385 L 40.312,21.2844 L 40.3929,21.1929 L 40.4843,21.112 L 40.585,21.0428 L 40.6933,20.9865
 L 40.8076,20.9437 L 40.9263,20.9152 L 41.0477,20.9014 L 43.6,20.9 L 43.7045,20.9055 L 43.8249,20.9256
 L 43.942,20.9603 L 44.054,21.009 L 44.1592,21.071 L 44.256,21.1453 L 44.3431,21.2309 L 44.4191,21.3264
 L 44.4829,21.4305 L 44.5336,21.5416 L 44.5703,21.6581 L 44.5925,21.7782 L 44.6,21.9 L 44.6,24.4
 L 44.5986,24.4523 L 44.5848,24.5737 L 44.5563,24.6924 L 44.5135,24.8067 L 44.4572,24.915 L 44.388,25.0157
 L 44.3071,25.1071 L 44.2156,25.188 L 44.115,25.2572 L 44.0067,25.3136 L 43.8923,25.3563 L 43.7736,25.3848
 L 43.6523,25.3986 L 41.1,25.4 z
M 26.9477,43.4986 L 26.8264,43.4848 L 26.7076,43.4563 L 26.5933,43.4135 L 26.485,43.3572 L 26.3844,43.288
 L 26.2929,43.2071 L 26.212,43.1156 L 26.1428,43.015 L 26.0865,42.9067 L 26.0437,42.7924 L 26.0152,42.6736
 L 26.0014,42.5523 L 26.0011,39.2995 L 22.2,39.3 L 22.1477,39.2986 L 22.0264,39.2848 L 21.9077,39.2563
 L 21.7933,39.2135 L 21.685,39.1572 L 21.5844,39.088 L 21.4929,39.0071 L 21.412,38.9156 L 21.3428,38.815
 L 21.2865,38.7067 L 21.2437,38.5923 L 21.2152,38.4736 L 21.2014,38.3523 L 21.2,26.7 L 21.2014,26.6477
 L 21.2152,26.5264 L 21.2437,26.4077 L 21.2865,26.2933 L 21.3428,26.185 L 21.412,26.0844 L 21.4929,25.9929
 L 21.5844,25.912 L 21.685,25.8428 L 21.7933,25.7865 L 21.9077,25.7437 L 22.0264,25.7152 L 22.1477,25.7014
 L 26.0002,25.7009 L 26,22.5 L 26.0014,22.4477 L 26.0152,22.3264 L 26.0437,22.2076 L 26.0865,22.0933
 L 26.1428,21.985 L 26.212,21.8844 L 26.2929,21.7929 L 26.3844,21.712 L 26.485,21.6428 L 26.5933,21.5865
 L 26.7076,21.5437 L 26.8264,21.5152 L 26.9477,21.5014 L 29,21.5 L 29.1045,21.5055 L 29.2249,21.5256
 L 29.342,21.5603 L 29.454,21.609 L 29.5592,21.671 L 29.6561,21.7453 L 29.7431,21.8309 L 29.8191,21.9264
 L 29.8829,22.0305 L 29.9336,22.1416 L 29.9703,22.2581 L 29.9925,22.3781 L 30,22.5 L 30,25.7005
 L 33.8,25.7 L 33.9045,25.7055 L 34.0249,25.7256 L 34.142,25.7603 L 34.254,25.809 L 34.3592,25.871
 L 34.456,25.9453 L 34.5431,26.0309 L 34.6191,26.1264 L 34.6829,26.2305 L 34.7336,26.3416 L 34.7703,26.4581
 L 34.7925,26.5782 L 34.8,26.7 L 34.8,38.3 L 34.7986,38.3523 L 34.7848,38.4736 L 34.7563,38.5923
 L 34.7135,38.7067 L 34.6572,38.815 L 34.588,38.9156 L 34.5071,39.0071 L 34.4156,39.088 L 34.315,39.1572
 L 34.2067,39.2135 L 34.0923,39.2563 L 33.9736,39.2848 L 33.8523,39.2986 L 30,39.2991 L 30,42.5
 L 29.9986,42.5523 L 29.9848,42.6736 L 29.9563,42.7924 L 29.9135,42.9067 L 29.8572,43.015 L 29.788,43.1156
 L 29.7071,43.2071 L 29.6156,43.288 L 29.515,43.3572 L 29.4067,43.4135 L 29.2924,43.4563 L 29.1736,43.4848
 L 29.0523,43.4986 L 27,43.5 z
M 42.2802,47.8475 L 42.1592,47.8316 L 42.041,47.8011 L 41.9274,47.7563 L 41.8201,47.698 L 41.7207,47.6271
 L 41.6306,47.5446 L 41.5514,47.4518 L 41.484,47.35 L 41.4295,47.2407 L 41.3887,47.1256 L 41.3623,47.0064
 L 41.3506,46.8849 L 41.3538,46.7628 L 41.3718,46.6421 L 41.4045,46.5244 L 41.4512,46.4116 L 41.5113,46.3054
 L 41.584,46.2072 L 41.668,46.1186 L 41.7622,46.041 L 41.8652,45.9754 L 41.9754,45.9228 L 42.0912,45.8841
 L 42.2108,45.8597 L 42.2628,45.8538 L 42.3849,45.8506 L 42.5064,45.8623 L 42.6256,45.8887 L 42.7407,45.9295
 L 42.85,45.984 L 42.9518,46.0514 L 43.0446,46.1306 L 43.1271,46.2207 L 43.198,46.3201 L 43.2563,46.4274
 L 43.3011,46.541 L 43.3316,46.6592 L 43.3475,46.7802 L 43.3486,46.9023 L 43.3348,47.0236 L 43.3063,47.1424
 L 43.2635,47.2567 L 43.2072,47.365 L 43.138,47.4657 L 43.0571,47.5571 L 42.9657,47.638 L 42.865,47.7072
 L 42.7567,47.7635 L 42.6424,47.8063 L 42.5236,47.8348 L 42.4023,47.8486 z
M 13.5802,47.8475 L 13.4592,47.8316 L 13.341,47.8011 L 13.2274,47.7563 L 13.1201,47.698 L 13.0207,47.6271
 L 12.9307,47.5446 L 12.8514,47.4518 L 12.784,47.35 L 12.7295,47.2407 L 12.6888,47.1256 L 12.6623,47.0064
 L 12.6506,46.8849 L 12.6538,46.7628 L 12.6719,46.6421 L 12.7045,46.5244 L 12.7512,46.4116 L 12.8113,46.3054
 L 12.884,46.2072 L 12.968,46.1186 L 13.0622,46.041 L 13.1652,45.9754 L 13.2754,45.9228 L 13.3912,45.8841
 L 13.5108,45.8597 L 13.5629,45.8538 L 13.6849,45.8506 L 13.8064,45.8623 L 13.9256,45.8887 L 14.0407,45.9295
 L 14.15,45.984 L 14.2518,46.0514 L 14.3447,46.1306 L 14.4272,46.2207 L 14.4981,46.3201 L 14.5563,46.4274
 L 14.6011,46.541 L 14.6316,46.6592 L 14.6476,46.7802 L 14.6486,46.9023 L 14.6348,47.0236 L 14.6063,47.1424
 L 14.5636,47.2567 L 14.5072,47.365 L 14.438,47.4657 L 14.3571,47.5571 L 14.2657,47.638 L 14.165,47.7072
 L 14.0567,47.7635 L 13.9424,47.8063 L 13.8237,47.8348 L 13.7023,47.8486 z
M 3.57065,62.8482 L 3.45288,62.8492 L 3.33546,62.84 L 3.21931,62.8205 L 3.10529,62.791 L 2.99428,62.7517
 L 2.8871,62.7029 L 2.78461,62.6449 L 2.68755,62.5782 L 2.59666,62.5033 L 2.51266,62.4207 L 2.43617,62.3311
 L 2.36778,62.2353 L 2.30801,62.1338 L 2.25731,62.0275 L 2.21606,61.9172 L 2.18459,61.8037 L 2.16313,61.6879
 L 2.15184,61.5707 L 2.15082,61.4529 L 2.16005,61.3355 L 2.17949,61.2193 L 2.20898,61.1053 L 2.24829,60.9943
 L 2.29713,60.8871 L 2.35513,60.7846 L 2.42183,60.6876 L 2.49675,60.5967 L 2.5793,60.5127 L 2.66885,60.4362
 L 2.76472,60.3678 L 2.86621,60.308 L 2.9725,60.2573 L 3.08282,60.2161 L 3.1963,60.1846 L 3.3121,60.1631
 L 3.42934,60.1519 L 3.5471,60.1508 L 3.66452,60.1601 L 3.78067,60.1795 L 3.8947,60.209 L 4.00571,60.2483
 L 4.11288,60.2971 L 4.21538,60.3551 L 4.31244,60.4218 L 4.40332,60.4968 L 4.48732,60.5793 L 4.56381,60.6689
 L 4.6322,60.7647 L 4.69197,60.8662 L 4.74268,60.9725 L 4.78392,61.0828 L 4.8154,61.1963 L 4.83685,61.3121
 L 4.84814,61.4294 L 4.84917,61.5471 L 4.83994,61.6645 L 4.8205,61.7807 L 4.791,61.8947 L 4.75169,62.0057
 L 4.70285,62.1129 L 4.64485,62.2154 L 4.57816,62.3125 L 4.50323,62.4033 L 4.42068,62.4873 L 4.33113,62.5638
 L 4.23526,62.6322 L 4.13377,62.692 L 4.02748,62.7427 L 3.91716,62.7839 L 3.80368,62.8154 L 3.68788,62.8369
 z
M 52.5706,62.8482 L 52.4529,62.8492 L 52.3355,62.84 L 52.2193,62.8205 L 52.1053,62.791 L 51.9943,62.7517
 L 51.8871,62.7029 L 51.7846,62.6449 L 51.6875,62.5782 L 51.5967,62.5033 L 51.5127,62.4207 L 51.4362,62.3311
 L 51.3678,62.2353 L 51.308,62.1338 L 51.2573,62.0275 L 51.2161,61.9172 L 51.1846,61.8037 L 51.1631,61.6879
 L 51.1518,61.5707 L 51.1508,61.4529 L 51.16,61.3355 L 51.1795,61.2193 L 51.209,61.1053 L 51.2483,60.9943
 L 51.2971,60.8871 L 51.3551,60.7846 L 51.4218,60.6876 L 51.4967,60.5967 L 51.5793,60.5127 L 51.6689,60.4362
 L 51.7647,60.3678 L 51.8662,60.308 L 51.9725,60.2573 L 52.0828,60.2161 L 52.1963,60.1846 L 52.3121,60.1631
 L 52.4293,60.1519 L 52.5471,60.1508 L 52.6645,60.1601 L 52.7807,60.1795 L 52.8947,60.209 L 53.0057,60.2483
 L 53.1129,60.2971 L 53.2154,60.3551 L 53.3124,60.4218 L 53.4033,60.4968 L 53.4873,60.5793 L 53.5638,60.6689
 L 53.6322,60.7647 L 53.692,60.8662 L 53.7427,60.9725 L 53.7839,61.0828 L 53.8154,61.1963 L 53.8369,61.3121
 L 53.8481,61.4294 L 53.8492,61.5471 L 53.8399,61.6645 L 53.8205,61.7807 L 53.791,61.8947 L 53.7517,62.0057
 L 53.7029,62.1129 L 53.6449,62.2154 L 53.5782,62.3125 L 53.5032,62.4033 L 53.4207,62.4873 L 53.3311,62.5638
 L 53.2353,62.6322 L 53.1338,62.692 L 53.0275,62.7427 L 52.9172,62.7839 L 52.8037,62.8154 L 52.6879,62.8369
 z
" stroke="black" fill="lightgray" stroke-width="0.5"/></svg>
