<?xml version="1.0" standalone="no"?>
<!DOCTYPE svg PUBLIC "-//W3C//DTD SVG 1.1//EN" "http://www.w3.org/Graphics/SVG/1.1/DTD/svg11.dtd">
<svg width="15mm" height="26mm" viewBox="0 0 15 26" xmlns="http://www.w3.org/2000/svg" version="1.1">
<title>OpenSCAD Model</title>
<path d="
M 8.55232,25.9986 L 8.67365,25.9848 L 8.79236,25.9563 L 8.90672,25.9135 L 9.01503,25.8572 L 9.11565,25.788
 L 9.20709,25.7071 L 9.28801,25.6156 L 9.35716,25.515 L 9.41354,25.4067 L 9.4563,25.2924 L 9.4848,25.1736
 L 9.49863,25.0523 L 9.5,25 L 9.5,22.2491 L 13.8023,22.2486 L 13.9236,22.2348 L 14.0424,22.2063
 L 14.1567,22.1635 L 14.265,22.1072 L 14.3656,22.038 L 14.4571,21.9571 L 14.538,21.8656 L 14.6072,21.765
 L 14.6635,21.6567 L 14.7063,21.5424 L 14.7348,21.4236 L 14.7486,21.3023 L 14.75,21.25 L 14.75,1.90001
 L 14.7425,1.77815 L 14.7203,1.6581 L 14.6836,1.54164 L 14.6329,1.43054 L 14.5691,1.32645 L 14.4931,1.23088
 L 14.4061,1.14531 L 14.3092,1.07098 L 14.204,1.009 L 14.092,0.960327 L 13.9749,0.925644 L 13.8545,0.905502
 L 13.75,0.900009 L 1.19768,0.901382 L 1.07635,0.915207 L 0.957642,0.94371 L 0.843277,0.986465 L 0.73497,1.04285
 L 0.634354,1.112 L 0.542908,1.19292 L 0.46199,1.28436 L 0.392838,1.38498 L 0.336456,1.49329 L 0.293701,1.60765
 L 0.265198,1.72636 L 0.251373,1.84769 L 0.25,1.90001 L 0.25116,8.70578 L 0.25,8.75 L 0.251373,21.3023
 L 0.265198,21.4236 L 0.293701,21.5424 L 0.336456,21.6567 L 0.392838,21.765 L 0.46199,21.8656 L 0.542908,21.9571
 L 0.634354,22.038 L 0.73497,22.1072 L 0.843277,22.1635 L 0.957642,22.2063 L 1.07635,22.2348 L 1.19768,22.2486
 L 1.25,22.25 L 5.50117,22.2495 L 5.50137,25.0523 L 5.5152,25.1736 L 5.5437,25.2924 L 5.58646,25.4067
 L 5.64284,25.515 L 5.71199,25.6156 L 5.79291,25.7071 L 5.88435,25.788 L 5.98497,25.8572 L 6.09328,25.9135
 L 6.20764,25.9563 L 6.32635,25.9848 L 6.44768,25.9986 L 6.5,26 z
M 2.69768,20.9986 L 2.57635,20.9848 L 2.45764,20.9563 L 2.34328,20.9135 L 2.23497,20.8572 L 2.13435,20.788
 L 2.04291,20.7071 L 1.96199,20.6156 L 1.89284,20.515 L 1.83646,20.4067 L 1.7937,20.2924 L 1.7652,20.1736
 L 1.75137,20.0523 L 1.75,3 L 1.75137,2.94768 L 1.7652,2.82635 L 1.7937,2.70764 L 1.83646,2.59328
 L 1.89284,2.48497 L 1.96199,2.38435 L 2.04291,2.29291 L 2.13435,2.21199 L 2.23497,2.14284 L 2.34328,2.08646
 L 2.45764,2.0437 L 2.57635,2.0152 L 2.69768,2.00137 L 12.25,2 L 12.3545,2.00549 L 12.4749,2.02563
 L 12.592,2.06032 L 12.704,2.10899 L 12.8092,2.17097 L 12.9061,2.2453 L 12.9931,2.33087 L 13.0691,2.42644
 L 13.1329,2.53053 L 13.1836,2.64163 L 13.2203,2.75809 L 13.2425,2.87814 L 13.25,3 L 13.25,20
 L 13.2486,20.0523 L 13.2348,20.1736 L 13.2063,20.2924 L 13.1635,20.4067 L 13.1072,20.515 L 13.038,20.6156
 L 12.9571,20.7071 L 12.8656,20.788 L 12.765,20.8572 L 12.6567,20.9135 L 12.5424,20.9563 L 12.4236,20.9848
 L 12.3023,20.9986 L 2.75,21 z
" stroke="black" fill="lightgray" stroke-width="0.5"/></svg>
