<?xml version="1.0" standalone="no"?>
<!DOCTYPE svg PUBLIC "-//W3C//DTD SVG 1.1//EN" "http://www.w3.org/Graphics/SVG/1.1/DTD/svg11.dtd">
<svg width="65mm" height="56mm" viewBox="0 0 65 56" xmlns="http://www.w3.org/2000/svg" version="1.1">
<title>OpenSCAD Model</title>
<path d="
M 64.0628,55.998 L 64.1253,55.9921 L 64.1874,55.9823 L 64.2487,55.9686 L 64.309,55.951 L 64.3681,55.9298
 L 64.4258,55.9048 L 64.4818,55.8763 L 64.5358,55.8443 L 64.5878,55.809 L 64.6374,55.7705 L 64.6845,55.729
 L 64.729,55.6845 L 64.7705,55.6374 L 64.809,55.5878 L 64.8443,55.5358 L 64.8763,55.4818 L 64.9048,55.4258
 L 64.9298,55.3681 L 64.951,55.309 L 64.9686,55.2487 L 64.9823,55.1874 L 64.9921,55.1253 L 64.998,55.0628
 L 65,55 L 65,1 L 64.998,0.93721 L 64.9921,0.87468 L 64.9823,0.812622 L 64.9686,0.751312
 L 64.951,0.690994 L 64.9298,0.631882 L 64.9048,0.574234 L 64.8763,0.51825 L 64.8443,0.464188 L 64.809,0.412216
 L 64.7705,0.362579 L 64.729,0.31546 L 64.6845,0.271042 L 64.6374,0.229492 L 64.5878,0.190994 L 64.5358,0.155685
 L 64.4818,0.123703 L 64.4258,0.0951843 L 64.3681,0.0702362 L 64.309,0.0489502 L 64.2487,0.0314178 L 64.1874,0.0177155
 L 64.1253,0.00788879 L 64.0628,0.00198364 L 64,-0 L 1,-0 L 0.93721,0.00198364 L 0.87468,0.00788879
 L 0.812622,0.0177155 L 0.751312,0.0314178 L 0.690994,0.0489502 L 0.631882,0.0702362 L 0.574234,0.0951843 L 0.51825,0.123703
 L 0.464188,0.155685 L 0.412216,0.190994 L 0.362579,0.229492 L 0.31546,0.271042 L 0.271042,0.31546 L 0.229492,0.362579
 L 0.190994,0.412216 L 0.155685,0.464188 L 0.123703,0.51825 L 0.0951843,0.574234 L 0.0702362,0.631882 L 0.0489502,0.690994
 L 0.0314178,0.751312 L 0.0177155,0.812622 L 0.00788879,0.87468 L 0.00198364,0.93721 L 0,1 L 0,55
 L 0.00198364,55.0628 L 0.00788879,55.1253 L 0.0177155,55.1874 L 0.0314178,55.2487 L 0.0489502,55.309 L 0.0702362,55.3681
 L 0.0951843,55.4258 L 0.123703,55.4818 L 0.155685,55.5358 L 0.190994,55.5878 L 0.229492,55.6374 L 0.271042,55.6845
 L 0.31546,55.729 L 0.362579,55.7705 L 0.412216,55.809 L 0.464188,55.8443 L 0.51825,55.8763 L 0.574234,55.9048
 L 0.631882,55.9298 L 0.690994,55.951 L 0.751312,55.9686 L 0.812622,55.9823 L 0.87468,55.9921 L 0.93721,55.998
 L 1,56 L 6.50069,56 L 6.5,50 L 6.50137,49.9477 L 6.5152,49.8264 L 6.5437,49.7076
 L 6.58646,49.5933 L 6.64284,49.485 L 6.71199,49.3844 L 6.79291,49.2929 L 6.88435,49.212 L 6.98497,49.1428
 L 7.09328,49.0865 L 7.20764,49.0437 L 7.32635,49.0152 L 7.44768,49.0014 L 57.5,49 L 57.6045,49.0055
 L 57.7249,49.0256 L 57.842,49.0603 L 57.954,49.109 L 58.0592,49.171 L 58.1561,49.2453 L 58.2431,49.3309
 L 58.3191,49.4264 L 58.3829,49.5305 L 58.4336,49.6416 L 58.4703,49.7581 L 58.4925,49.8781 L 58.5,50
 L 58.5,56 L 64,56 z
M 3.57065,4.84816 L 3.45288,4.84918 L 3.33546,4.83995 L 3.21931,4.82051 L 3.10529,4.79102 L 2.99428,4.75171
 L 2.8871,4.70287 L 2.78461,4.64487 L 2.68755,4.57817 L 2.59666,4.50325 L 2.51266,4.4207 L 2.43617,4.33115
 L 2.36778,4.23528 L 2.30801,4.13379 L 2.25731,4.0275 L 2.21606,3.91718 L 2.18459,3.8037 L 2.16313,3.6879
 L 2.15184,3.57066 L 2.15082,3.4529 L 2.16005,3.33548 L 2.17949,3.21933 L 2.20898,3.1053 L 2.24829,2.99429
 L 2.29713,2.88712 L 2.35513,2.78462 L 2.42183,2.68756 L 2.49675,2.59668 L 2.5793,2.51268 L 2.66885,2.43619
 L 2.76472,2.3678 L 2.86621,2.30803 L 2.9725,2.25732 L 3.08282,2.21608 L 3.1963,2.1846 L 3.3121,2.16315
 L 3.42934,2.15186 L 3.5471,2.15083 L 3.66452,2.16006 L 3.78067,2.1795 L 3.8947,2.209 L 4.00571,2.24831
 L 4.11288,2.29715 L 4.21538,2.35515 L 4.31244,2.42184 L 4.40332,2.49677 L 4.48732,2.57932 L 4.56381,2.66887
 L 4.6322,2.76474 L 4.69197,2.86623 L 4.74268,2.97252 L 4.78392,3.08284 L 4.8154,3.19632 L 4.83685,3.31212
 L 4.84814,3.42935 L 4.84917,3.54712 L 4.83994,3.66454 L 4.8205,3.78069 L 4.791,3.89471 L 4.75169,4.00572
 L 4.70285,4.1129 L 4.64485,4.21539 L 4.57816,4.31245 L 4.50323,4.40334 L 4.42068,4.48734 L 4.33113,4.56383
 L 4.23526,4.63222 L 4.13377,4.69199 L 4.02748,4.74269 L 3.91716,4.78394 L 3.80368,4.81541 L 3.68788,4.83687
 z
M 61.5706,4.84816 L 61.4529,4.84918 L 61.3355,4.83995 L 61.2193,4.82051 L 61.1053,4.79102 L 60.9943,4.75171
 L 60.8871,4.70287 L 60.7846,4.64487 L 60.6875,4.57817 L 60.5967,4.50325 L 60.5127,4.4207 L 60.4362,4.33115
 L 60.3678,4.23528 L 60.308,4.13379 L 60.2573,4.0275 L 60.2161,3.91718 L 60.1846,3.8037 L 60.1631,3.6879
 L 60.1518,3.57066 L 60.1508,3.4529 L 60.16,3.33548 L 60.1795,3.21933 L 60.209,3.1053 L 60.2483,2.99429
 L 60.2971,2.88712 L 60.3551,2.78462 L 60.4218,2.68756 L 60.4967,2.59668 L 60.5793,2.51268 L 60.6689,2.43619
 L 60.7647,2.3678 L 60.8662,2.30803 L 60.9725,2.25732 L 61.0828,2.21608 L 61.1963,2.1846 L 61.3121,2.16315
 L 61.4293,2.15186 L 61.5471,2.15083 L 61.6645,2.16006 L 61.7807,2.1795 L 61.8947,2.209 L 62.0057,2.24831
 L 62.1129,2.29715 L 62.2154,2.35515 L 62.3124,2.42184 L 62.4033,2.49677 L 62.4873,2.57932 L 62.5638,2.66887
 L 62.6322,2.76474 L 62.692,2.86623 L 62.7427,2.97252 L 62.7839,3.08284 L 62.8154,3.19632 L 62.8369,3.31212
 L 62.8481,3.42935 L 62.8492,3.54712 L 62.8399,3.66454 L 62.8205,3.78069 L 62.791,3.89471 L 62.7517,4.00572
 L 62.7029,4.1129 L 62.6449,4.21539 L 62.5782,4.31245 L 62.5032,4.40334 L 62.4207,4.48734 L 62.3311,4.56383
 L 62.2353,4.63222 L 62.1338,4.69199 L 62.0275,4.74269 L 61.9172,4.78394 L 61.8037,4.81541 L 61.6879,4.83687
 z
M 46.7793,14.9982 L 46.6621,14.9869 L 46.5463,14.9654 L 46.4328,14.9339 L 46.3225,14.8927 L 46.2162,14.842
 L 46.1147,14.7822 L 46.0188,14.7138 L 45.9293,14.6373 L 45.8467,14.5533 L 45.7718,14.4625 L 45.7051,14.3654
 L 45.6471,14.2629 L 45.5983,14.1557 L 45.559,14.0447 L 45.5295,13.9307 L 45.5101,13.8145 L 45.5008,13.6971
 L 45.5018,13.5794 L 45.5131,13.4621 L 45.5346,13.3463 L 45.5661,13.2328 L 45.6073,13.1225 L 45.658,13.0162
 L 45.7178,12.9147 L 45.7862,12.8189 L 45.8627,12.7293 L 45.9467,12.6468 L 46.0375,12.5719 L 46.1346,12.5051
 L 46.2371,12.4471 L 46.3443,12.3983 L 46.4553,12.359 L 46.5693,12.3295 L 46.6855,12.3101 L 46.8029,12.3008
 L 46.9206,12.3019 L 47.0379,12.3131 L 47.1537,12.3346 L 47.2672,12.3661 L 47.3775,12.4073 L 47.4838,12.458
 L 47.5853,12.5178 L 47.6811,12.5862 L 47.7707,12.6627 L 47.8532,12.7467 L 47.9281,12.8376 L 47.9949,12.9346
 L 48.0529,13.0371 L 48.1017,13.1443 L 48.141,13.2553 L 48.1705,13.3693 L 48.1899,13.4855 L 48.1992,13.6029
 L 48.1981,13.7207 L 48.1869,13.8379 L 48.1654,13.9537 L 48.1339,14.0672 L 48.0927,14.1775 L 48.042,14.2838
 L 47.9822,14.3853 L 47.9138,14.4812 L 47.8373,14.5707 L 47.7533,14.6533 L 47.6624,14.7282 L 47.5654,14.7949
 L 47.4629,14.8529 L 47.3557,14.9017 L 47.2447,14.941 L 47.1307,14.9705 L 47.0145,14.9899 L 46.8971,14.9992
 z
M 18.0794,14.9982 L 17.9621,14.9869 L 17.8463,14.9654 L 17.7328,14.9339 L 17.6225,14.8927 L 17.5162,14.842
 L 17.4147,14.7822 L 17.3189,14.7138 L 17.2293,14.6373 L 17.1468,14.5533 L 17.0719,14.4625 L 17.0051,14.3654
 L 16.9471,14.2629 L 16.8983,14.1557 L 16.859,14.0447 L 16.8295,13.9307 L 16.8101,13.8145 L 16.8008,13.6971
 L 16.8019,13.5794 L 16.8131,13.4621 L 16.8346,13.3463 L 16.8661,13.2328 L 16.9073,13.1225 L 16.958,13.0162
 L 17.0178,12.9147 L 17.0862,12.8189 L 17.1627,12.7293 L 17.2467,12.6468 L 17.3376,12.5719 L 17.4346,12.5051
 L 17.5371,12.4471 L 17.6443,12.3983 L 17.7553,12.359 L 17.8693,12.3295 L 17.9855,12.3101 L 18.1029,12.3008
 L 18.2207,12.3019 L 18.3379,12.3131 L 18.4537,12.3346 L 18.5672,12.3661 L 18.6775,12.4073 L 18.7838,12.458
 L 18.8853,12.5178 L 18.9812,12.5862 L 19.0707,12.6627 L 19.1533,12.7467 L 19.2282,12.8376 L 19.2949,12.9346
 L 19.3529,13.0371 L 19.4017,13.1443 L 19.441,13.2553 L 19.4705,13.3693 L 19.4899,13.4855 L 19.4992,13.6029
 L 19.4982,13.7207 L 19.4869,13.8379 L 19.4654,13.9537 L 19.4339,14.0672 L 19.3927,14.1775 L 19.342,14.2838
 L 19.2822,14.3853 L 19.2138,14.4812 L 19.1373,14.5707 L 19.0533,14.6533 L 18.9625,14.7282 L 18.8654,14.7949
 L 18.7629,14.8529 L 18.6557,14.9017 L 18.5447,14.941 L 18.4307,14.9705 L 18.3145,14.9899 L 18.1971,14.9992
 z
M 42.7227,18.3736 L 42.6013,18.3598 L 42.4826,18.3313 L 42.3683,18.2885 L 42.26,18.2322 L 42.1593,18.163
 L 42.0679,18.0821 L 41.987,17.9906 L 41.9178,17.89 L 41.8615,17.7817 L 41.8187,17.6674 L 41.7902,17.5486
 L 41.7764,17.4273 L 41.7756,14.8901 L 41.7873,14.7686 L 41.8137,14.6494 L 41.8545,14.5343 L 41.909,14.425
 L 41.9764,14.3232 L 42.0557,14.2304 L 42.1457,14.1479 L 42.2451,14.077 L 42.3524,14.0187 L 42.466,13.974
 L 42.5842,13.9434 L 42.7052,13.9275 L 43.075,13.925 L 43.1795,13.9305 L 43.2999,13.9507 L 43.417,13.9853
 L 43.529,14.034 L 43.6342,14.096 L 43.731,14.1703 L 43.8181,14.2559 L 43.8941,14.3515 L 43.9579,14.4556
 L 44.0086,14.5667 L 44.0453,14.6831 L 44.0675,14.8032 L 44.075,14.925 L 44.0744,17.4099 L 44.0627,17.5314
 L 44.0362,17.6506 L 43.9955,17.7657 L 43.941,17.875 L 43.8736,17.9768 L 43.7943,18.0697 L 43.7043,18.1521
 L 43.6049,18.223 L 43.4976,18.2813 L 43.384,18.326 L 43.2658,18.3566 L 43.1447,18.3726 L 42.775,18.375
 z
M 21.8553,18.3726 L 21.7342,18.3566 L 21.616,18.326 L 21.5024,18.2813 L 21.3951,18.223 L 21.2957,18.1521
 L 21.2057,18.0697 L 21.1264,17.9768 L 21.059,17.875 L 21.0045,17.7657 L 20.9638,17.6506 L 20.9373,17.5314
 L 20.9256,17.4099 L 20.925,14.925 L 20.9325,14.8032 L 20.9547,14.6831 L 20.9914,14.5667 L 21.0421,14.4556
 L 21.1059,14.3515 L 21.1819,14.2559 L 21.269,14.1703 L 21.3658,14.096 L 21.471,14.034 L 21.583,13.9853
 L 21.7001,13.9507 L 21.8205,13.9305 L 21.925,13.925 L 22.2948,13.9275 L 22.4158,13.9434 L 22.534,13.974
 L 22.6476,14.0187 L 22.7549,14.077 L 22.8543,14.1479 L 22.9443,14.2304 L 23.0236,14.3232 L 23.091,14.425
 L 23.1455,14.5343 L 23.1863,14.6494 L 23.2127,14.7686 L 23.2244,14.8901 L 23.2236,17.4273 L 23.2098,17.5486
 L 23.1813,17.6674 L 23.1385,17.7817 L 23.0822,17.89 L 23.013,17.9906 L 22.9321,18.0821 L 22.8407,18.163
 L 22.74,18.2322 L 22.6317,18.2885 L 22.5174,18.3313 L 22.3987,18.3598 L 22.2773,18.3736 L 22.225,18.375
 z
M 31.4477,38.9986 L 31.3264,38.9848 L 31.2076,38.9563 L 31.0933,38.9135 L 30.985,38.8572 L 30.8844,38.788
 L 30.7929,38.7071 L 30.712,38.6156 L 30.6428,38.515 L 30.5865,38.4067 L 30.5437,38.2924 L 30.5152,38.1736
 L 30.5014,38.0523 L 30.5011,34.604 L 30.4861,34.5995 L 26.9,34.6 L 26.8477,34.5986 L 26.7264,34.5848
 L 26.6077,34.5563 L 26.4933,34.5135 L 26.385,34.4572 L 26.2844,34.388 L 26.1929,34.3071 L 26.112,34.2156
 L 26.0428,34.115 L 25.9865,34.0067 L 25.9437,33.8923 L 25.9152,33.7736 L 25.9014,33.6523 L 25.9009,30.0155
 L 25.8673,29.9019 L 25.8351,29.7859 L 25.8049,29.6693 L 25.7768,29.5522 L 25.7508,29.4346 L 25.7268,29.3166
 L 25.7048,29.1982 L 25.6849,29.0794 L 25.6671,28.9603 L 25.6514,28.8409 L 25.6378,28.7213 L 25.6263,28.6014
 L 25.6168,28.4813 L 25.6095,28.3611 L 25.6042,28.2408 L 25.601,28.1204 L 25.6,28 L 25.601,27.8796
 L 25.6042,27.7592 L 25.6095,27.6389 L 25.6168,27.5187 L 25.6263,27.3986 L 25.6378,27.2788 L 25.6514,27.1591
 L 25.6671,27.0397 L 25.6849,26.9206 L 25.7048,26.8018 L 25.7268,26.6834 L 25.7508,26.5654 L 25.7768,26.4478
 L 25.8049,26.3307 L 25.8351,26.2142 L 25.8673,26.0981 L 25.9005,25.9862 L 25.9,22.4 L 25.9014,22.3477
 L 25.9152,22.2264 L 25.9437,22.1077 L 25.9865,21.9933 L 26.0428,21.885 L 26.112,21.7844 L 26.1929,21.6929
 L 26.2844,21.612 L 26.385,21.5428 L 26.4933,21.4865 L 26.5513,21.4648 L 26.55,15.75 L 26.5514,15.6977
 L 26.5652,15.5764 L 26.5937,15.4576 L 26.6365,15.3433 L 26.6928,15.235 L 26.762,15.1344 L 26.8429,15.0429
 L 26.9344,14.962 L 27.035,14.8928 L 27.1433,14.8365 L 27.2576,14.7937 L 27.3764,14.7652 L 27.4977,14.7514
 L 34.85,14.75 L 34.9545,14.7555 L 35.0749,14.7756 L 35.192,14.8103 L 35.304,14.859 L 35.4092,14.921
 L 35.506,14.9953 L 35.5931,15.0809 L 35.6691,15.1764 L 35.7329,15.2805 L 35.7836,15.3916 L 35.8203,15.5081
 L 35.8425,15.6281 L 35.85,15.75 L 35.85,21.4003 L 38.1,21.4 L 38.2045,21.4055 L 38.3249,21.4256
 L 38.442,21.4603 L 38.554,21.509 L 38.6592,21.571 L 38.756,21.6453 L 38.8431,21.7309 L 38.9191,21.8264
 L 38.9829,21.9305 L 39.0336,22.0416 L 39.0703,22.1581 L 39.0925,22.2782 L 39.1,22.4 L 39.1,25.9877
 L 39.1327,26.0981 L 39.1649,26.2142 L 39.195,26.3307 L 39.2231,26.4478 L 39.2492,26.5654 L 39.2732,26.6834
 L 39.2952,26.8018 L 39.315,26.9206 L 39.3328,27.0397 L 39.3486,27.1591 L 39.3622,27.2788 L 39.3737,27.3986
 L 39.3832,27.5187 L 39.3905,27.6389 L 39.3958,27.7592 L 39.3989,27.8796 L 39.4,28 L 39.3989,28.1204
 L 39.3958,28.2408 L 39.3905,28.3611 L 39.3832,28.4813 L 39.3737,28.6014 L 39.3622,28.7213 L 39.3486,28.8409
 L 39.3328,28.9603 L 39.315,29.0794 L 39.2952,29.1982 L 39.2732,29.3166 L 39.2492,29.4346 L 39.2231,29.5522
 L 39.195,29.6693 L 39.1649,29.7859 L 39.1327,29.9019 L 39.1,30.0123 L 39.1,33.6 L 39.0986,33.6523
 L 39.0848,33.7736 L 39.0563,33.8923 L 39.0135,34.0067 L 38.9572,34.115 L 38.888,34.2156 L 38.8071,34.3071
 L 38.7156,34.388 L 38.615,34.4572 L 38.5067,34.5135 L 38.3923,34.5563 L 38.2736,34.5848 L 38.1523,34.5986
 L 34.5155,34.5991 L 34.5,34.6037 L 34.5,38 L 34.4986,38.0523 L 34.4848,38.1736 L 34.4563,38.2924
 L 34.4135,38.4067 L 34.3572,38.515 L 34.288,38.6156 L 34.2071,38.7071 L 34.1156,38.788 L 34.015,38.8572
 L 33.9067,38.9135 L 33.7924,38.9563 L 33.6736,38.9848 L 33.5523,38.9986 L 31.5,39 z
M 39.4477,19.5986 L 39.3264,19.5848 L 39.2076,19.5563 L 39.0933,19.5135 L 38.985,19.4572 L 38.8844,19.388
 L 38.7929,19.3071 L 38.712,19.2157 L 38.6428,19.115 L 38.5865,19.0067 L 38.5437,18.8924 L 38.5152,18.7737
 L 38.5014,18.6523 L 38.5,17.6 L 38.5014,17.5477 L 38.5152,17.4264 L 38.5437,17.3076 L 38.5865,17.1933
 L 38.6428,17.085 L 38.712,16.9844 L 38.7929,16.8929 L 38.8844,16.812 L 38.985,16.7428 L 39.0933,16.6865
 L 39.2076,16.6437 L 39.3264,16.6152 L 39.4477,16.6014 L 40.5,16.6 L 40.6045,16.6055 L 40.7249,16.6256
 L 40.842,16.6603 L 40.954,16.709 L 41.0592,16.771 L 41.1561,16.8453 L 41.2431,16.9309 L 41.3191,17.0264
 L 41.3829,17.1305 L 41.4336,17.2416 L 41.4703,17.3581 L 41.4925,17.4781 L 41.5,17.6 L 41.5,18.6
 L 41.4986,18.6523 L 41.4848,18.7737 L 41.4563,18.8924 L 41.4135,19.0067 L 41.3572,19.115 L 41.288,19.2157
 L 41.2071,19.3071 L 41.1156,19.388 L 41.015,19.4572 L 40.9067,19.5135 L 40.7924,19.5563 L 40.6736,19.5848
 L 40.5523,19.5986 L 39.5,19.6 z
M 42.7052,31.0725 L 42.5842,31.0566 L 42.466,31.026 L 42.3524,30.9813 L 42.2451,30.923 L 42.1457,30.8521
 L 42.0557,30.7696 L 41.9764,30.6768 L 41.909,30.575 L 41.8545,30.4657 L 41.8137,30.3506 L 41.7873,30.2314
 L 41.7756,30.1099 L 41.7764,27.5727 L 41.7902,27.4514 L 41.8187,27.3326 L 41.8615,27.2183 L 41.9178,27.11
 L 41.987,27.0094 L 42.0679,26.9179 L 42.1593,26.837 L 42.26,26.7678 L 42.3683,26.7115 L 42.4826,26.6687
 L 42.6013,26.6402 L 42.7227,26.6264 L 42.775,26.625 L 43.1447,26.6274 L 43.2658,26.6434 L 43.384,26.674
 L 43.4976,26.7187 L 43.6049,26.777 L 43.7043,26.8479 L 43.7943,26.9303 L 43.8736,27.0232 L 43.941,27.125
 L 43.9955,27.2343 L 44.0362,27.3494 L 44.0627,27.4686 L 44.0744,27.5901 L 44.075,30.075 L 44.0675,30.1968
 L 44.0453,30.3169 L 44.0086,30.4333 L 43.9579,30.5444 L 43.8941,30.6485 L 43.8181,30.7441 L 43.731,30.8297
 L 43.6342,30.904 L 43.529,30.966 L 43.417,31.0147 L 43.2999,31.0493 L 43.1795,31.0695 L 43.075,31.075
 z
M 21.8205,31.0695 L 21.7001,31.0493 L 21.583,31.0147 L 21.471,30.966 L 21.3658,30.904 L 21.269,30.8297
 L 21.1819,30.7441 L 21.1059,30.6485 L 21.0421,30.5444 L 20.9914,30.4333 L 20.9547,30.3169 L 20.9325,30.1968
 L 20.925,30.075 L 20.9256,27.5901 L 20.9373,27.4686 L 20.9638,27.3494 L 21.0045,27.2343 L 21.059,27.125
 L 21.1264,27.0232 L 21.2057,26.9303 L 21.2957,26.8479 L 21.3951,26.777 L 21.5024,26.7187 L 21.616,26.674
 L 21.7342,26.6434 L 21.8553,26.6274 L 22.225,26.625 L 22.2773,26.6264 L 22.3987,26.6402 L 22.5174,26.6687
 L 22.6317,26.7115 L 22.74,26.7678 L 22.8407,26.837 L 22.9321,26.9179 L 23.013,27.0094 L 23.0822,27.11
 L 23.1385,27.2183 L 23.1813,27.3326 L 23.2098,27.4514 L 23.2236,27.5727 L 23.2244,30.1099 L 23.2127,30.2314
 L 23.1863,30.3506 L 23.1455,30.4657 L 23.091,30.575 L 23.0236,30.6768 L 22.9443,30.7696 L 22.8543,30.8521
 L 22.7549,30.923 L 22.6476,30.9813 L 22.534,31.026 L 22.4158,31.0566 L 22.2948,31.0725 L 21.925,31.075
 z
M 16.8477,39.5986 L 16.7263,39.5848 L 16.6076,39.5563 L 16.4933,39.5135 L 16.385,39.4572 L 16.2843,39.388
 L 16.1929,39.3071 L 16.112,39.2157 L 16.0428,39.115 L 15.9865,39.0067 L 15.9437,38.8924 L 15.9152,38.7737
 L 15.9014,38.6523 L 15.9,36.1 L 15.9014,36.0477 L 15.9152,35.9264 L 15.9437,35.8076 L 15.9865,35.6933
 L 16.0428,35.585 L 16.112,35.4844 L 16.1929,35.3929 L 16.2843,35.312 L 16.385,35.2428 L 16.4933,35.1865
 L 16.6076,35.1437 L 16.7263,35.1152 L 16.8477,35.1014 L 19.4,35.1 L 19.5045,35.1055 L 19.6249,35.1256
 L 19.742,35.1603 L 19.854,35.209 L 19.9592,35.271 L 20.056,35.3453 L 20.1431,35.4309 L 20.2191,35.5264
 L 20.2829,35.6305 L 20.3336,35.7416 L 20.3703,35.8581 L 20.3925,35.9781 L 20.4,36.1 L 20.4,38.6
 L 20.3986,38.6523 L 20.3848,38.7737 L 20.3563,38.8924 L 20.3135,39.0067 L 20.2572,39.115 L 20.188,39.2157
 L 20.1071,39.3071 L 20.0156,39.388 L 19.915,39.4572 L 19.8067,39.5135 L 19.6924,39.5563 L 19.5736,39.5848
 L 19.4523,39.5986 L 16.9,39.6 z
M 46.6855,43.6899 L 46.5693,43.6705 L 46.4553,43.641 L 46.3443,43.6017 L 46.2371,43.5529 L 46.1346,43.4949
 L 46.0375,43.4281 L 45.9467,43.3532 L 45.8627,43.2707 L 45.7862,43.1811 L 45.7178,43.0853 L 45.658,42.9838
 L 45.6073,42.8775 L 45.5661,42.7672 L 45.5346,42.6537 L 45.5131,42.5379 L 45.5018,42.4206 L 45.5008,42.3029
 L 45.5101,42.1855 L 45.5295,42.0693 L 45.559,41.9553 L 45.5983,41.8443 L 45.6471,41.7371 L 45.7051,41.6346
 L 45.7718,41.5375 L 45.8467,41.4467 L 45.9293,41.3627 L 46.0188,41.2862 L 46.1147,41.2178 L 46.2162,41.158
 L 46.3225,41.1073 L 46.4328,41.0661 L 46.5463,41.0346 L 46.6621,41.0131 L 46.7793,41.0018 L 46.8971,41.0008
 L 47.0145,41.0101 L 47.1307,41.0295 L 47.2447,41.059 L 47.3557,41.0983 L 47.4629,41.1471 L 47.5654,41.2051
 L 47.6624,41.2718 L 47.7533,41.3467 L 47.8373,41.4293 L 47.9138,41.5188 L 47.9822,41.6147 L 48.042,41.7162
 L 48.0927,41.8225 L 48.1339,41.9328 L 48.1654,42.0463 L 48.1869,42.1621 L 48.1981,42.2793 L 48.1992,42.3971
 L 48.1899,42.5145 L 48.1705,42.6307 L 48.141,42.7447 L 48.1017,42.8557 L 48.0529,42.9629 L 47.9949,43.0654
 L 47.9281,43.1624 L 47.8532,43.2533 L 47.7707,43.3373 L 47.6811,43.4138 L 47.5853,43.4822 L 47.4838,43.542
 L 47.3775,43.5927 L 47.2672,43.6339 L 47.1537,43.6654 L 47.0379,43.6869 L 46.9206,43.6981 L 46.8029,43.6992
 z
M 17.9855,43.6899 L 17.8693,43.6705 L 17.7553,43.641 L 17.6443,43.6017 L 17.5371,43.5529 L 17.4346,43.4949
 L 17.3376,43.4281 L 17.2467,43.3532 L 17.1627,43.2707 L 17.0862,43.1811 L 17.0178,43.0853 L 16.958,42.9838
 L 16.9073,42.8775 L 16.8661,42.7672 L 16.8346,42.6537 L 16.8131,42.5379 L 16.8019,42.4206 L 16.8008,42.3029
 L 16.8101,42.1855 L 16.8295,42.0693 L 16.859,41.9553 L 16.8983,41.8443 L 16.9471,41.7371 L 17.0051,41.6346
 L 17.0719,41.5375 L 17.1468,41.4467 L 17.2293,41.3627 L 17.3189,41.2862 L 17.4147,41.2178 L 17.5162,41.158
 L 17.6225,41.1073 L 17.7328,41.0661 L 17.8463,41.0346 L 17.9621,41.0131 L 18.0794,41.0018 L 18.1971,41.0008
 L 18.3145,41.0101 L 18.4307,41.0295 L 18.5447,41.059 L 18.6557,41.0983 L 18.7629,41.1471 L 18.8654,41.2051
 L 18.9625,41.2718 L 19.0533,41.3467 L 19.1373,41.4293 L 19.2138,41.5188 L 19.2822,41.6147 L 19.342,41.7162
 L 19.3927,41.8225 L 19.4339,41.9328 L 19.4654,42.0463 L 19.4869,42.1621 L 19.4982,42.2793 L 19.4992,42.3971
 L 19.4899,42.5145 L 19.4705,42.6307 L 19.441,42.7447 L 19.4017,42.8557 L 19.3529,42.9629 L 19.2949,43.0654
 L 19.2282,43.1624 L 19.1533,43.2533 L 19.0707,43.3373 L 18.9812,43.4138 L 18.8853,43.4822 L 18.7838,43.542
 L 18.6775,43.5927 L 18.5672,43.6339 L 18.4537,43.6654 L 18.3379,43.6869 L 18.2207,43.6981 L 18.1029,43.6992
 z
M 61.5706,53.8482 L 61.4529,53.8492 L 61.3355,53.84 L 61.2193,53.8205 L 61.1053,53.791 L 60.9943,53.7517
 L 60.8871,53.7029 L 60.7846,53.6449 L 60.6875,53.5782 L 60.5967,53.5033 L 60.5127,53.4207 L 60.4362,53.3311
 L 60.3678,53.2353 L 60.308,53.1338 L 60.2573,53.0275 L 60.2161,52.9172 L 60.1846,52.8037 L 60.1631,52.6879
 L 60.1518,52.5707 L 60.1508,52.4529 L 60.16,52.3355 L 60.1795,52.2193 L 60.209,52.1053 L 60.2483,51.9943
 L 60.2971,51.8871 L 60.3551,51.7846 L 60.4218,51.6876 L 60.4967,51.5967 L 60.5793,51.5127 L 60.6689,51.4362
 L 60.7647,51.3678 L 60.8662,51.308 L 60.9725,51.2573 L 61.0828,51.2161 L 61.1963,51.1846 L 61.3121,51.1631
 L 61.4293,51.1519 L 61.5471,51.1508 L 61.6645,51.1601 L 61.7807,51.1795 L 61.8947,51.209 L 62.0057,51.2483
 L 62.1129,51.2971 L 62.2154,51.3551 L 62.3124,51.4218 L 62.4033,51.4968 L 62.4873,51.5793 L 62.5638,51.6689
 L 62.6322,51.7647 L 62.692,51.8662 L 62.7427,51.9725 L 62.7839,52.0828 L 62.8154,52.1963 L 62.8369,52.3121
 L 62.8481,52.4294 L 62.8492,52.5471 L 62.8399,52.6645 L 62.8205,52.7807 L 62.791,52.8947 L 62.7517,53.0057
 L 62.7029,53.1129 L 62.6449,53.2154 L 62.5782,53.3125 L 62.5032,53.4033 L 62.4207,53.4873 L 62.3311,53.5638
 L 62.2353,53.6322 L 62.1338,53.692 L 62.0275,53.7427 L 61.9172,53.7839 L 61.8037,53.8154 L 61.6879,53.8369
 z
M 3.57065,53.8482 L 3.45288,53.8492 L 3.33546,53.84 L 3.21931,53.8205 L 3.10529,53.791 L 2.99428,53.7517
 L 2.8871,53.7029 L 2.78461,53.6449 L 2.68755,53.5782 L 2.59666,53.5033 L 2.51266,53.4207 L 2.43617,53.3311
 L 2.36778,53.2353 L 2.30801,53.1338 L 2.25731,53.0275 L 2.21606,52.9172 L 2.18459,52.8037 L 2.16313,52.6879
 L 2.15184,52.5707 L 2.15082,52.4529 L 2.16005,52.3355 L 2.17949,52.2193 L 2.20898,52.1053 L 2.24829,51.9943
 L 2.29713,51.8871 L 2.35513,51.7846 L 2.42183,51.6876 L 2.49675,51.5967 L 2.5793,51.5127 L 2.66885,51.4362
 L 2.76472,51.3678 L 2.86621,51.308 L 2.9725,51.2573 L 3.08282,51.2161 L 3.1963,51.1846 L 3.3121,51.1631
 L 3.42934,51.1519 L 3.5471,51.1508 L 3.66452,51.1601 L 3.78067,51.1795 L 3.8947,51.209 L 4.00571,51.2483
 L 4.11288,51.2971 L 4.21538,51.3551 L 4.31244,51.4218 L 4.40332,51.4968 L 4.48732,51.5793 L 4.56381,51.6689
 L 4.6322,51.7647 L 4.69197,51.8662 L 4.74268,51.9725 L 4.78392,52.0828 L 4.8154,52.1963 L 4.83685,52.3121
 L 4.84814,52.4294 L 4.84917,52.5471 L 4.83994,52.6645 L 4.8205,52.7807 L 4.791,52.8947 L 4.75169,53.0057
 L 4.70285,53.1129 L 4.64485,53.2154 L 4.57816,53.3125 L 4.50323,53.4033 L 4.42068,53.4873 L 4.33113,53.5638
 L 4.23526,53.6322 L 4.13377,53.692 L 4.02748,53.7427 L 3.91716,53.7839 L 3.80368,53.8154 L 3.68788,53.8369
 z
" stroke="black" fill="lightgray" stroke-width="0.5"/></svg>
