<?xml version="1.0" standalone="no"?>
<!DOCTYPE svg PUBLIC "-//W3C//DTD SVG 1.1//EN" "http://www.w3.org/Graphics/SVG/1.1/DTD/svg11.dtd">
<svg width="56mm" height="65mm" viewBox="20 15 56 65" xmlns="http://www.w3.org/2000/svg" version="1.1">
<title>OpenSCAD Model</title>
<path d="
M 75.0628,79.998 L 75.1253,79.9921 L 75.1874,79.9823 L 75.2487,79.9686 L 75.309,79.951 L 75.3681,79.9298
 L 75.4258,79.9048 L 75.4818,79.8763 L 75.5358,79.8443 L 75.5878,79.809 L 75.6374,79.7705 L 75.6845,79.729
 L 75.729,79.6845 L 75.7705,79.6374 L 75.809,79.5878 L 75.8443,79.5358 L 75.8763,79.4818 L 75.9048,79.4258
 L 75.9298,79.3681 L 75.951,79.309 L 75.9686,79.2487 L 75.9823,79.1874 L 75.9921,79.1253 L 75.998,79.0628
 L 76,79 L 76,16 L 75.998,15.9372 L 75.9921,15.8747 L 75.9823,15.8126 L 75.9686,15.7513
 L 75.951,15.691 L 75.9298,15.6319 L 75.9048,15.5742 L 75.8763,15.5182 L 75.8443,15.4642 L 75.809,15.4122
 L 75.7705,15.3626 L 75.729,15.3155 L 75.6845,15.271 L 75.6374,15.2295 L 75.5878,15.191 L 75.5358,15.1557
 L 75.4818,15.1237 L 75.4258,15.0952 L 75.3681,15.0702 L 75.309,15.049 L 75.2487,15.0314 L 75.1874,15.0177
 L 75.1253,15.0079 L 75.0628,15.002 L 75,15 L 21,15 L 20.9372,15.002 L 20.8747,15.0079
 L 20.8126,15.0177 L 20.7513,15.0314 L 20.691,15.049 L 20.6319,15.0702 L 20.5742,15.0952 L 20.5182,15.1237
 L 20.4642,15.1557 L 20.4122,15.191 L 20.3626,15.2295 L 20.3155,15.271 L 20.271,15.3155 L 20.2295,15.3626
 L 20.191,15.4122 L 20.1557,15.4642 L 20.1237,15.5182 L 20.0952,15.5742 L 20.0702,15.6319 L 20.049,15.691
 L 20.0314,15.7513 L 20.0177,15.8126 L 20.0079,15.8747 L 20.002,15.9372 L 20,16 L 20,79
 L 20.002,79.0628 L 20.0079,79.1253 L 20.0177,79.1874 L 20.0314,79.2487 L 20.049,79.309 L 20.0702,79.3681
 L 20.0952,79.4258 L 20.1237,79.4818 L 20.1557,79.5358 L 20.191,79.5878 L 20.2295,79.6374 L 20.271,79.6845
 L 20.3155,79.729 L 20.3626,79.7705 L 20.4122,79.809 L 20.4642,79.8443 L 20.5182,79.8763 L 20.5742,79.9048
 L 20.6319,79.9298 L 20.691,79.951 L 20.7513,79.9686 L 20.8126,79.9823 L 20.8747,79.9921 L 20.9372,79.998
 L 21,80 L 75,80 z
M 23.5706,19.8482 L 23.4529,19.8492 L 23.3355,19.84 L 23.2193,19.8205 L 23.1053,19.791 L 22.9943,19.7517
 L 22.8871,19.7029 L 22.7846,19.6449 L 22.6875,19.5782 L 22.5967,19.5033 L 22.5127,19.4207 L 22.4362,19.3311
 L 22.3678,19.2353 L 22.308,19.1338 L 22.2573,19.0275 L 22.2161,18.9172 L 22.1846,18.8037 L 22.1631,18.6879
 L 22.1518,18.5707 L 22.1508,18.4529 L 22.16,18.3355 L 22.1795,18.2193 L 22.209,18.1053 L 22.2483,17.9943
 L 22.2971,17.8871 L 22.3551,17.7846 L 22.4218,17.6876 L 22.4967,17.5967 L 22.5793,17.5127 L 22.6689,17.4362
 L 22.7647,17.3678 L 22.8662,17.308 L 22.9725,17.2573 L 23.0828,17.2161 L 23.1963,17.1846 L 23.3121,17.1631
 L 23.4293,17.1519 L 23.5471,17.1508 L 23.6645,17.1601 L 23.7807,17.1795 L 23.8947,17.209 L 24.0057,17.2483
 L 24.1129,17.2971 L 24.2154,17.3551 L 24.3124,17.4218 L 24.4033,17.4968 L 24.4873,17.5793 L 24.5638,17.6689
 L 24.6322,17.7647 L 24.692,17.8662 L 24.7427,17.9725 L 24.7839,18.0828 L 24.8154,18.1963 L 24.8369,18.3121
 L 24.8481,18.4294 L 24.8492,18.5471 L 24.8399,18.6645 L 24.8205,18.7807 L 24.791,18.8947 L 24.7517,19.0057
 L 24.7029,19.1129 L 24.6449,19.2154 L 24.5782,19.3125 L 24.5032,19.4033 L 24.4207,19.4873 L 24.3311,19.5638
 L 24.2353,19.6322 L 24.1338,19.692 L 24.0275,19.7427 L 23.9172,19.7839 L 23.8037,19.8154 L 23.6879,19.8369
 z
M 72.5706,19.8482 L 72.4529,19.8492 L 72.3355,19.84 L 72.2193,19.8205 L 72.1053,19.791 L 71.9943,19.7517
 L 71.8871,19.7029 L 71.7846,19.6449 L 71.6875,19.5782 L 71.5967,19.5033 L 71.5127,19.4207 L 71.4362,19.3311
 L 71.3678,19.2353 L 71.308,19.1338 L 71.2573,19.0275 L 71.2161,18.9172 L 71.1846,18.8037 L 71.1631,18.6879
 L 71.1518,18.5707 L 71.1508,18.4529 L 71.16,18.3355 L 71.1795,18.2193 L 71.209,18.1053 L 71.2483,17.9943
 L 71.2971,17.8871 L 71.3551,17.7846 L 71.4218,17.6876 L 71.4967,17.5967 L 71.5793,17.5127 L 71.6689,17.4362
 L 71.7647,17.3678 L 71.8662,17.308 L 71.9725,17.2573 L 72.0828,17.2161 L 72.1963,17.1846 L 72.3121,17.1631
 L 72.4293,17.1519 L 72.5471,17.1508 L 72.6645,17.1601 L 72.7807,17.1795 L 72.8947,17.209 L 73.0057,17.2483
 L 73.1129,17.2971 L 73.2154,17.3551 L 73.3124,17.4218 L 73.4033,17.4968 L 73.4873,17.5793 L 73.5638,17.6689
 L 73.6322,17.7647 L 73.692,17.8662 L 73.7427,17.9725 L 73.7839,18.0828 L 73.8154,18.1963 L 73.8369,18.3121
 L 73.8481,18.4294 L 73.8492,18.5471 L 73.8399,18.6645 L 73.8205,18.7807 L 73.791,18.8947 L 73.7517,19.0057
 L 73.7029,19.1129 L 73.6449,19.2154 L 73.5782,19.3125 L 73.5032,19.4033 L 73.4207,19.4873 L 73.3311,19.5638
 L 73.2353,19.6322 L 73.1338,19.692 L 73.0275,19.7427 L 72.9172,19.7839 L 72.8037,19.8154 L 72.6879,19.8369
 z
M 62.2628,34.1462 L 62.2108,34.1403 L 62.0912,34.1159 L 61.9754,34.0772 L 61.8652,34.0246 L 61.7622,33.959
 L 61.668,33.8814 L 61.584,33.7928 L 61.5113,33.6946 L 61.4512,33.5884 L 61.4045,33.4756 L 61.3718,33.3579
 L 61.3538,33.2372 L 61.3506,33.1151 L 61.3623,32.9936 L 61.3887,32.8744 L 61.4295,32.7593 L 61.484,32.65
 L 61.5514,32.5482 L 61.6306,32.4554 L 61.7207,32.3729 L 61.8201,32.302 L 61.9274,32.2437 L 62.041,32.1989
 L 62.1592,32.1684 L 62.2802,32.1525 L 62.4023,32.1514 L 62.5236,32.1652 L 62.6424,32.1937 L 62.7567,32.2365
 L 62.865,32.2928 L 62.9657,32.362 L 63.0571,32.4429 L 63.138,32.5343 L 63.2072,32.635 L 63.2635,32.7433
 L 63.3063,32.8576 L 63.3348,32.9764 L 63.3486,33.0977 L 63.3475,33.2198 L 63.3316,33.3408 L 63.3011,33.459
 L 63.2563,33.5726 L 63.198,33.6799 L 63.1271,33.7793 L 63.0446,33.8694 L 62.9518,33.9486 L 62.85,34.016
 L 62.7407,34.0705 L 62.6256,34.1113 L 62.5064,34.1377 L 62.3849,34.1494 z
M 33.5629,34.1462 L 33.5108,34.1403 L 33.3912,34.1159 L 33.2754,34.0772 L 33.1652,34.0246 L 33.0622,33.959
 L 32.968,33.8814 L 32.884,33.7928 L 32.8113,33.6946 L 32.7512,33.5884 L 32.7045,33.4756 L 32.6719,33.3579
 L 32.6538,33.2372 L 32.6506,33.1151 L 32.6623,32.9936 L 32.6888,32.8744 L 32.7295,32.7593 L 32.784,32.65
 L 32.8514,32.5482 L 32.9307,32.4554 L 33.0207,32.3729 L 33.1201,32.302 L 33.2274,32.2437 L 33.341,32.1989
 L 33.4592,32.1684 L 33.5802,32.1525 L 33.7023,32.1514 L 33.8237,32.1652 L 33.9424,32.1937 L 34.0567,32.2365
 L 34.165,32.2928 L 34.2657,32.362 L 34.3571,32.4429 L 34.438,32.5343 L 34.5072,32.635 L 34.5636,32.7433
 L 34.6063,32.8576 L 34.6348,32.9764 L 34.6486,33.0977 L 34.6476,33.2198 L 34.6316,33.3408 L 34.6011,33.459
 L 34.5563,33.5726 L 34.4981,33.6799 L 34.4272,33.7793 L 34.3447,33.8694 L 34.2518,33.9486 L 34.15,34.016
 L 34.0407,34.0705 L 33.9256,34.1113 L 33.8064,34.1377 L 33.6849,34.1494 z
M 61.0477,40.3986 L 60.9263,40.3848 L 60.8076,40.3563 L 60.6933,40.3136 L 60.585,40.2572 L 60.4843,40.188
 L 60.3929,40.1071 L 60.312,40.0157 L 60.2428,39.915 L 60.1864,39.8067 L 60.1437,39.6924 L 60.1152,39.5737
 L 60.1014,39.4523 L 60.1,36.9 L 60.1014,36.8477 L 60.1152,36.7264 L 60.1437,36.6077 L 60.1864,36.4933
 L 60.2428,36.385 L 60.312,36.2844 L 60.3929,36.1929 L 60.4843,36.112 L 60.585,36.0428 L 60.6933,35.9865
 L 60.8076,35.9437 L 60.9263,35.9152 L 61.0477,35.9014 L 63.6,35.9 L 63.7045,35.9055 L 63.8249,35.9256
 L 63.942,35.9603 L 64.054,36.009 L 64.1592,36.071 L 64.256,36.1453 L 64.3431,36.2309 L 64.4191,36.3264
 L 64.4829,36.4305 L 64.5336,36.5416 L 64.5703,36.6581 L 64.5925,36.7782 L 64.6,36.9 L 64.6,39.4
 L 64.5986,39.4523 L 64.5848,39.5737 L 64.5563,39.6924 L 64.5135,39.8067 L 64.4572,39.915 L 64.388,40.0157
 L 64.3071,40.1071 L 64.2156,40.188 L 64.115,40.2572 L 64.0067,40.3136 L 63.8923,40.3563 L 63.7736,40.3848
 L 63.6523,40.3986 L 61.1,40.4 z
M 46.9477,58.4986 L 46.8264,58.4848 L 46.7076,58.4563 L 46.5933,58.4135 L 46.485,58.3572 L 46.3844,58.288
 L 46.2929,58.2071 L 46.212,58.1156 L 46.1428,58.015 L 46.0865,57.9067 L 46.0437,57.7924 L 46.0152,57.6736
 L 46.0014,57.5523 L 46.0011,54.2995 L 42.2,54.3 L 42.1477,54.2986 L 42.0264,54.2848 L 41.9077,54.2563
 L 41.7933,54.2135 L 41.685,54.1572 L 41.5844,54.088 L 41.4929,54.0071 L 41.412,53.9156 L 41.3428,53.815
 L 41.2865,53.7067 L 41.2437,53.5923 L 41.2152,53.4736 L 41.2014,53.3523 L 41.2,41.7 L 41.2014,41.6477
 L 41.2152,41.5264 L 41.2437,41.4077 L 41.2865,41.2933 L 41.3428,41.185 L 41.412,41.0844 L 41.4929,40.9929
 L 41.5844,40.912 L 41.685,40.8428 L 41.7933,40.7865 L 41.9077,40.7437 L 42.0264,40.7152 L 42.1477,40.7014
 L 46.0002,40.7009 L 46,37.5 L 46.0014,37.4477 L 46.0152,37.3264 L 46.0437,37.2076 L 46.0865,37.0933
 L 46.1428,36.985 L 46.212,36.8844 L 46.2929,36.7929 L 46.3844,36.712 L 46.485,36.6428 L 46.5933,36.5865
 L 46.7076,36.5437 L 46.8264,36.5152 L 46.9477,36.5014 L 49,36.5 L 49.1045,36.5055 L 49.2249,36.5256
 L 49.342,36.5603 L 49.454,36.609 L 49.5592,36.671 L 49.6561,36.7453 L 49.7431,36.8309 L 49.8191,36.9264
 L 49.8829,37.0305 L 49.9336,37.1416 L 49.9703,37.2581 L 49.9925,37.3781 L 50,37.5 L 50,40.7005
 L 53.8,40.7 L 53.9045,40.7055 L 54.0249,40.7256 L 54.142,40.7603 L 54.254,40.809 L 54.3592,40.871
 L 54.456,40.9453 L 54.5431,41.0309 L 54.6191,41.1264 L 54.6829,41.2305 L 54.7336,41.3416 L 54.7703,41.4581
 L 54.7925,41.5782 L 54.8,41.7 L 54.8,53.3 L 54.7986,53.3523 L 54.7848,53.4736 L 54.7563,53.5923
 L 54.7135,53.7067 L 54.6572,53.815 L 54.588,53.9156 L 54.5071,54.0071 L 54.4156,54.088 L 54.315,54.1572
 L 54.2067,54.2135 L 54.0923,54.2563 L 53.9736,54.2848 L 53.8523,54.2986 L 50,54.2991 L 50,57.5
 L 49.9986,57.5523 L 49.9848,57.6736 L 49.9563,57.7924 L 49.9135,57.9067 L 49.8572,58.015 L 49.788,58.1156
 L 49.7071,58.2071 L 49.6156,58.288 L 49.515,58.3572 L 49.4067,58.4135 L 49.2924,58.4563 L 49.1736,58.4848
 L 49.0523,58.4986 L 47,58.5 z
M 62.2802,62.8475 L 62.1592,62.8316 L 62.041,62.8011 L 61.9274,62.7563 L 61.8201,62.698 L 61.7207,62.6271
 L 61.6306,62.5446 L 61.5514,62.4518 L 61.484,62.35 L 61.4295,62.2407 L 61.3887,62.1256 L 61.3623,62.0064
 L 61.3506,61.8849 L 61.3538,61.7628 L 61.3718,61.6421 L 61.4045,61.5244 L 61.4512,61.4116 L 61.5113,61.3054
 L 61.584,61.2072 L 61.668,61.1186 L 61.7622,61.041 L 61.8652,60.9754 L 61.9754,60.9228 L 62.0912,60.8841
 L 62.2108,60.8597 L 62.2628,60.8538 L 62.3849,60.8506 L 62.5064,60.8623 L 62.6256,60.8887 L 62.7407,60.9295
 L 62.85,60.984 L 62.9518,61.0514 L 63.0446,61.1306 L 63.1271,61.2207 L 63.198,61.3201 L 63.2563,61.4274
 L 63.3011,61.541 L 63.3316,61.6592 L 63.3475,61.7802 L 63.3486,61.9023 L 63.3348,62.0236 L 63.3063,62.1424
 L 63.2635,62.2567 L 63.2072,62.365 L 63.138,62.4657 L 63.0571,62.5571 L 62.9657,62.638 L 62.865,62.7072
 L 62.7567,62.7635 L 62.6424,62.8063 L 62.5236,62.8348 L 62.4023,62.8486 z
M 33.5802,62.8475 L 33.4592,62.8316 L 33.341,62.8011 L 33.2274,62.7563 L 33.1201,62.698 L 33.0207,62.6271
 L 32.9307,62.5446 L 32.8514,62.4518 L 32.784,62.35 L 32.7295,62.2407 L 32.6888,62.1256 L 32.6623,62.0064
 L 32.6506,61.8849 L 32.6538,61.7628 L 32.6719,61.6421 L 32.7045,61.5244 L 32.7512,61.4116 L 32.8113,61.3054
 L 32.884,61.2072 L 32.968,61.1186 L 33.0622,61.041 L 33.1652,60.9754 L 33.2754,60.9228 L 33.3912,60.8841
 L 33.5108,60.8597 L 33.5629,60.8538 L 33.6849,60.8506 L 33.8064,60.8623 L 33.9256,60.8887 L 34.0407,60.9295
 L 34.15,60.984 L 34.2518,61.0514 L 34.3447,61.1306 L 34.4272,61.2207 L 34.4981,61.3201 L 34.5563,61.4274
 L 34.6011,61.541 L 34.6316,61.6592 L 34.6476,61.7802 L 34.6486,61.9023 L 34.6348,62.0236 L 34.6063,62.1424
 L 34.5636,62.2567 L 34.5072,62.365 L 34.438,62.4657 L 34.3571,62.5571 L 34.2657,62.638 L 34.165,62.7072
 L 34.0567,62.7635 L 33.9424,62.8063 L 33.8237,62.8348 L 33.7023,62.8486 z
M 23.5706,77.8482 L 23.4529,77.8492 L 23.3355,77.84 L 23.2193,77.8205 L 23.1053,77.791 L 22.9943,77.7517
 L 22.8871,77.7029 L 22.7846,77.6449 L 22.6875,77.5782 L 22.5967,77.5033 L 22.5127,77.4207 L 22.4362,77.3311
 L 22.3678,77.2353 L 22.308,77.1338 L 22.2573,77.0275 L 22.2161,76.9172 L 22.1846,76.8037 L 22.1631,76.6879
 L 22.1518,76.5707 L 22.1508,76.4529 L 22.16,76.3355 L 22.1795,76.2193 L 22.209,76.1053 L 22.2483,75.9943
 L 22.2971,75.8871 L 22.3551,75.7846 L 22.4218,75.6876 L 22.4967,75.5967 L 22.5793,75.5127 L 22.6689,75.4362
 L 22.7647,75.3678 L 22.8662,75.308 L 22.9725,75.2573 L 23.0828,75.2161 L 23.1963,75.1846 L 23.3121,75.1631
 L 23.4293,75.1519 L 23.5471,75.1508 L 23.6645,75.1601 L 23.7807,75.1795 L 23.8947,75.209 L 24.0057,75.2483
 L 24.1129,75.2971 L 24.2154,75.3551 L 24.3124,75.4218 L 24.4033,75.4968 L 24.4873,75.5793 L 24.5638,75.6689
 L 24.6322,75.7647 L 24.692,75.8662 L 24.7427,75.9725 L 24.7839,76.0828 L 24.8154,76.1963 L 24.8369,76.3121
 L 24.8481,76.4294 L 24.8492,76.5471 L 24.8399,76.6645 L 24.8205,76.7807 L 24.791,76.8947 L 24.7517,77.0057
 L 24.7029,77.1129 L 24.6449,77.2154 L 24.5782,77.3125 L 24.5032,77.4033 L 24.4207,77.4873 L 24.3311,77.5638
 L 24.2353,77.6322 L 24.1338,77.692 L 24.0275,77.7427 L 23.9172,77.7839 L 23.8037,77.8154 L 23.6879,77.8369
 z
M 72.5706,77.8482 L 72.4529,77.8492 L 72.3355,77.84 L 72.2193,77.8205 L 72.1053,77.791 L 71.9943,77.7517
 L 71.8871,77.7029 L 71.7846,77.6449 L 71.6875,77.5782 L 71.5967,77.5033 L 71.5127,77.4207 L 71.4362,77.3311
 L 71.3678,77.2353 L 71.308,77.1338 L 71.2573,77.0275 L 71.2161,76.9172 L 71.1846,76.8037 L 71.1631,76.6879
 L 71.1518,76.5707 L 71.1508,76.4529 L 71.16,76.3355 L 71.1795,76.2193 L 71.209,76.1053 L 71.2483,75.9943
 L 71.2971,75.8871 L 71.3551,75.7846 L 71.4218,75.6876 L 71.4967,75.5967 L 71.5793,75.5127 L 71.6689,75.4362
 L 71.7647,75.3678 L 71.8662,75.308 L 71.9725,75.2573 L 72.0828,75.2161 L 72.1963,75.1846 L 72.3121,75.1631
 L 72.4293,75.1519 L 72.5471,75.1508 L 72.6645,75.1601 L 72.7807,75.1795 L 72.8947,75.209 L 73.0057,75.2483
 L 73.1129,75.2971 L 73.2154,75.3551 L 73.3124,75.4218 L 73.4033,75.4968 L 73.4873,75.5793 L 73.5638,75.6689
 L 73.6322,75.7647 L 73.692,75.8662 L 73.7427,75.9725 L 73.7839,76.0828 L 73.8154,76.1963 L 73.8369,76.3121
 L 73.8481,76.4294 L 73.8492,76.5471 L 73.8399,76.6645 L 73.8205,76.7807 L 73.791,76.8947 L 73.7517,77.0057
 L 73.7029,77.1129 L 73.6449,77.2154 L 73.5782,77.3125 L 73.5032,77.4033 L 73.4207,77.4873 L 73.3311,77.5638
 L 73.2353,77.6322 L 73.1338,77.692 L 73.0275,77.7427 L 72.9172,77.7839 L 72.8037,77.8154 L 72.6879,77.8369
 z
" stroke="black" fill="lightgray" stroke-width="0.5"/></svg>
