<?xml version="1.0" standalone="no"?>
<!DOCTYPE svg PUBLIC "-//W3C//DTD SVG 1.1//EN" "http://www.w3.org/Graphics/SVG/1.1/DTD/svg11.dtd">
<svg width="65mm" height="35mm" viewBox="0 0 65 35" xmlns="http://www.w3.org/2000/svg" version="1.1">
<title>OpenSCAD Model</title>
<path d="
M 64.0628,34.998 L 64.1253,34.9921 L 64.1874,34.9823 L 64.2487,34.9686 L 64.309,34.951 L 64.3681,34.9298
 L 64.4258,34.9048 L 64.4818,34.8763 L 64.5358,34.8443 L 64.5878,34.809 L 64.6374,34.7705 L 64.6845,34.729
 L 64.729,34.6845 L 64.7705,34.6374 L 64.809,34.5878 L 64.8443,34.5358 L 64.8763,34.4818 L 64.9048,34.4258
 L 64.9298,34.3681 L 64.951,34.309 L 64.9686,34.2487 L 64.9823,34.1874 L 64.9921,34.1253 L 64.998,34.0628
 L 65,34 L 65,1 L 64.998,0.93721 L 64.9921,0.87468 L 64.9823,0.812622 L 64.9686,0.751312
 L 64.951,0.690994 L 64.9298,0.631882 L 64.9048,0.574234 L 64.8763,0.51825 L 64.8443,0.464188 L 64.809,0.412216
 L 64.7705,0.362579 L 64.729,0.31546 L 64.6845,0.271042 L 64.6374,0.229492 L 64.5878,0.190994 L 64.5358,0.155685
 L 64.4818,0.123703 L 64.4258,0.0951843 L 64.3681,0.0702362 L 64.309,0.0489502 L 64.2487,0.0314178 L 64.1874,0.0177155
 L 64.1253,0.00788879 L 64.0628,0.00198364 L 64,-0 L 1,-0 L 0.93721,0.00198364 L 0.87468,0.00788879
 L 0.812622,0.0177155 L 0.751312,0.0314178 L 0.690994,0.0489502 L 0.631882,0.0702362 L 0.574234,0.0951843 L 0.51825,0.123703
 L 0.464188,0.155685 L 0.412216,0.190994 L 0.362579,0.229492 L 0.31546,0.271042 L 0.271042,0.31546 L 0.229492,0.362579
 L 0.190994,0.412216 L 0.155685,0.464188 L 0.123703,0.51825 L 0.0951843,0.574234 L 0.0702362,0.631882 L 0.0489502,0.690994
 L 0.0314178,0.751312 L 0.0177155,0.812622 L 0.00788879,0.87468 L 0.00198364,0.93721 L 0,1 L 0,34
 L 0.00198364,34.0628 L 0.00788879,34.1253 L 0.0177155,34.1874 L 0.0314178,34.2487 L 0.0489502,34.309 L 0.0702362,34.3681
 L 0.0951843,34.4258 L 0.123703,34.4818 L 0.155685,34.5358 L 0.190994,34.5878 L 0.229492,34.6374 L 0.271042,34.6845
 L 0.31546,34.729 L 0.362579,34.7705 L 0.412216,34.809 L 0.464188,34.8443 L 0.51825,34.8763 L 0.574234,34.9048
 L 0.631882,34.9298 L 0.690994,34.951 L 0.751312,34.9686 L 0.812622,34.9823 L 0.87468,34.9921 L 0.93721,34.998
 L 1,35 L 6.50069,35 L 6.5,29.5 L 6.50137,29.4477 L 6.5152,29.3264 L 6.5437,29.2076
 L 6.58646,29.0933 L 6.64284,28.985 L 6.71199,28.8844 L 6.79291,28.7929 L 6.88435,28.712 L 6.98497,28.6428
 L 7.09328,28.5865 L 7.20764,28.5437 L 7.32635,28.5152 L 7.44768,28.5014 L 57.5,28.5 L 57.6045,28.5055
 L 57.7249,28.5256 L 57.842,28.5603 L 57.954,28.609 L 58.0592,28.671 L 58.1561,28.7453 L 58.2431,28.8309
 L 58.3191,28.9264 L 58.3829,29.0305 L 58.4336,29.1416 L 58.4703,29.2581 L 58.4925,29.3781 L 58.5,29.5
 L 58.5,35 L 64,35 z
M 44.1837,4.44769 L 44.0687,4.43256 L 43.9564,4.40352 L 43.8485,4.36099 L 43.7466,4.30565 L 43.6521,4.2383
 L 43.5666,4.15993 L 43.4913,4.07173 L 43.4273,3.97501 L 43.3755,3.8712 L 43.3368,3.76186 L 43.3117,3.64862
 L 43.3006,3.53316 L 43.3036,3.41721 L 43.3052,3.40071 L 43.3243,3.2863 L 43.3573,3.17509 L 43.4035,3.06871
 L 43.4624,2.96878 L 43.533,2.87675 L 43.6143,2.79402 L 43.7051,2.72182 L 43.804,2.66121 L 43.9095,2.61311
 L 44.0202,2.57823 L 44.1342,2.55708 L 44.25,2.55 L 44.3658,2.55708 L 44.4798,2.57823 L 44.5904,2.61311
 L 44.696,2.66121 L 44.7949,2.72182 L 44.8857,2.79402 L 44.967,2.87675 L 45.0376,2.96878 L 45.0965,3.06871
 L 45.1427,3.17509 L 45.1756,3.2863 L 45.1948,3.40071 L 45.1998,3.51659 L 45.1908,3.63222 L 45.1676,3.74588
 L 45.1308,3.85588 L 45.0809,3.96057 L 45.0186,4.05841 L 44.9448,4.1479 L 44.8606,4.22775 L 44.7674,4.29674
 L 44.6664,4.35387 L 44.5436,4.40352 L 44.415,4.43558 L 44.2997,4.4487 z
M 31.585,4.43558 L 31.4564,4.40352 L 31.3335,4.35387 L 31.2326,4.29674 L 31.1393,4.22775 L 31.0552,4.1479
 L 30.9814,4.05841 L 30.9191,3.96057 L 30.8692,3.85588 L 30.8324,3.74588 L 30.8092,3.63222 L 30.8001,3.51659
 L 30.8052,3.40071 L 30.8243,3.2863 L 30.8573,3.17509 L 30.9035,3.06871 L 30.9624,2.96878 L 31.033,2.87675
 L 31.1143,2.79402 L 31.2051,2.72182 L 31.304,2.66121 L 31.4095,2.61311 L 31.5202,2.57823 L 31.6342,2.55708
 L 31.75,2.55 L 31.8658,2.55708 L 31.9798,2.57823 L 32.0905,2.61311 L 32.196,2.66121 L 32.2949,2.72182
 L 32.3857,2.79402 L 32.467,2.87675 L 32.5376,2.96878 L 32.5965,3.06871 L 32.6427,3.17509 L 32.6757,3.2863
 L 32.6948,3.40071 L 32.6964,3.41721 L 32.6994,3.53316 L 32.6883,3.64862 L 32.6632,3.76186 L 32.6245,3.8712
 L 32.5727,3.97501 L 32.5087,4.07173 L 32.4334,4.15993 L 32.3479,4.2383 L 32.2534,4.30565 L 32.1515,4.36099
 L 32.0436,4.40352 L 31.9313,4.43256 L 31.8163,4.44769 L 31.7003,4.4487 z
M 47.4163,8.44708 L 47.2916,8.43178 L 47.1692,8.40352 L 47.0505,8.36263 L 46.9366,8.30954 L 46.829,8.24486
 L 46.7287,8.16927 L 46.6368,8.0836 L 46.5544,7.9888 L 46.4823,7.88591 L 46.4214,7.77605 L 46.3724,7.66043
 L 46.3356,7.54031 L 46.3117,7.41702 L 46.3007,7.29189 L 46.3029,7.16631 L 46.3182,7.04163 L 46.3465,6.91924
 L 46.3874,6.80048 L 46.4405,6.68665 L 46.5051,6.57898 L 46.5807,6.47867 L 46.6664,6.3868 L 46.7612,6.3044
 L 46.8641,6.23235 L 46.974,6.17145 L 47.0896,6.12238 L 47.2097,6.08565 L 47.333,6.06169 L 47.4581,6.05074
 L 47.5837,6.05293 L 47.7084,6.06824 L 47.8308,6.0965 L 47.9495,6.13739 L 48.0634,6.19048 L 48.171,6.25516
 L 48.2713,6.33075 L 48.3632,6.41641 L 48.4456,6.51122 L 48.5177,6.61411 L 48.5786,6.72397 L 48.6276,6.83958
 L 48.6644,6.9597 L 48.6883,7.08299 L 48.6993,7.20813 L 48.6971,7.33371 L 48.6818,7.45839 L 48.6535,7.58078
 L 48.6126,7.69954 L 48.5595,7.81337 L 48.4948,7.92104 L 48.4193,8.02135 L 48.3336,8.11322 L 48.2388,8.19562
 L 48.1359,8.26767 L 48.026,8.32857 L 47.9104,8.37764 L 47.7903,8.41437 L 47.667,8.43832 L 47.5419,8.44928
 z
M 17.333,8.43834 L 17.2097,8.41438 L 17.0896,8.37766 L 16.974,8.32858 L 16.8641,8.26768 L 16.7612,8.19563
 L 16.6664,8.11324 L 16.5807,8.02136 L 16.5052,7.92105 L 16.4405,7.81339 L 16.3874,7.69955 L 16.3465,7.5808
 L 16.3182,7.4584 L 16.3029,7.33372 L 16.3007,7.20815 L 16.3117,7.08301 L 16.3356,6.95972 L 16.3724,6.8396
 L 16.4214,6.72398 L 16.4823,6.61412 L 16.5544,6.51123 L 16.6368,6.41643 L 16.7287,6.33076 L 16.829,6.25517
 L 16.9366,6.19049 L 17.0505,6.13741 L 17.1692,6.09651 L 17.2916,6.06825 L 17.4163,6.05295 L 17.5419,6.05075
 L 17.667,6.06171 L 17.7903,6.08566 L 17.9104,6.12239 L 18.026,6.17146 L 18.1359,6.23236 L 18.2388,6.30441
 L 18.3336,6.38681 L 18.4193,6.47868 L 18.4949,6.57899 L 18.5595,6.68666 L 18.6126,6.80049 L 18.6535,6.91925
 L 18.6818,7.04164 L 18.6971,7.16632 L 18.6993,7.2919 L 18.6883,7.41704 L 18.6644,7.54033 L 18.6276,7.66045
 L 18.5786,7.77606 L 18.5177,7.88593 L 18.4456,7.98882 L 18.3632,8.08362 L 18.2713,8.16928 L 18.171,8.24487
 L 18.0634,8.30956 L 17.9495,8.36264 L 17.8308,8.40353 L 17.7084,8.43179 L 17.5837,8.4471 L 17.4581,8.4493
 z
M 3.57065,9.84816 L 3.45288,9.84918 L 3.33546,9.83995 L 3.21931,9.82051 L 3.10529,9.79102 L 2.99428,9.75171
 L 2.8871,9.70287 L 2.78461,9.64487 L 2.68755,9.57817 L 2.59666,9.50325 L 2.51266,9.4207 L 2.43617,9.33115
 L 2.36778,9.23528 L 2.30801,9.13379 L 2.25731,9.0275 L 2.21606,8.91718 L 2.18459,8.8037 L 2.16313,8.6879
 L 2.15184,8.57066 L 2.15082,8.4529 L 2.16005,8.33548 L 2.17949,8.21933 L 2.20898,8.1053 L 2.24829,7.99429
 L 2.29713,7.88712 L 2.35513,7.78462 L 2.42183,7.68756 L 2.49675,7.59668 L 2.5793,7.51268 L 2.66885,7.43619
 L 2.76472,7.3678 L 2.86621,7.30803 L 2.9725,7.25732 L 3.08282,7.21608 L 3.1963,7.1846 L 3.3121,7.16315
 L 3.42934,7.15186 L 3.5471,7.15083 L 3.66452,7.16006 L 3.78067,7.1795 L 3.8947,7.209 L 4.00571,7.24831
 L 4.11288,7.29715 L 4.21538,7.35515 L 4.31244,7.42184 L 4.40332,7.49677 L 4.48732,7.57932 L 4.56381,7.66887
 L 4.6322,7.76474 L 4.69197,7.86623 L 4.74268,7.97252 L 4.78392,8.08284 L 4.8154,8.19632 L 4.83685,8.31212
 L 4.84814,8.42935 L 4.84917,8.54712 L 4.83994,8.66454 L 4.8205,8.78069 L 4.791,8.89471 L 4.75169,9.00572
 L 4.70285,9.1129 L 4.64485,9.21539 L 4.57816,9.31245 L 4.50323,9.40334 L 4.42068,9.48734 L 4.33113,9.56383
 L 4.23526,9.63222 L 4.13377,9.69199 L 4.02748,9.74269 L 3.91716,9.78394 L 3.80368,9.81541 L 3.68788,9.83687
 z
M 61.5706,9.84816 L 61.4529,9.84918 L 61.3355,9.83995 L 61.2193,9.82051 L 61.1053,9.79102 L 60.9943,9.75171
 L 60.8871,9.70287 L 60.7846,9.64487 L 60.6875,9.57817 L 60.5967,9.50325 L 60.5127,9.4207 L 60.4362,9.33115
 L 60.3678,9.23528 L 60.308,9.13379 L 60.2573,9.0275 L 60.2161,8.91718 L 60.1846,8.8037 L 60.1631,8.6879
 L 60.1518,8.57066 L 60.1508,8.4529 L 60.16,8.33548 L 60.1795,8.21933 L 60.209,8.1053 L 60.2483,7.99429
 L 60.2971,7.88712 L 60.3551,7.78462 L 60.4218,7.68756 L 60.4967,7.59668 L 60.5793,7.51268 L 60.6689,7.43619
 L 60.7647,7.3678 L 60.8662,7.30803 L 60.9725,7.25732 L 61.0828,7.21608 L 61.1963,7.1846 L 61.3121,7.16315
 L 61.4293,7.15186 L 61.5471,7.15083 L 61.6645,7.16006 L 61.7807,7.1795 L 61.8947,7.209 L 62.0057,7.24831
 L 62.1129,7.29715 L 62.2154,7.35515 L 62.3124,7.42184 L 62.4033,7.49677 L 62.4873,7.57932 L 62.5638,7.66887
 L 62.6322,7.76474 L 62.692,7.86623 L 62.7427,7.97252 L 62.7839,8.08284 L 62.8154,8.19632 L 62.8369,8.31212
 L 62.8481,8.42935 L 62.8492,8.54712 L 62.8399,8.66454 L 62.8205,8.78069 L 62.791,8.89471 L 62.7517,9.00572
 L 62.7029,9.1129 L 62.6449,9.21539 L 62.5782,9.31245 L 62.5032,9.40334 L 62.4207,9.48734 L 62.3311,9.56383
 L 62.2353,9.63222 L 62.1338,9.69199 L 62.0275,9.74269 L 61.9172,9.78394 L 61.8037,9.81541 L 61.6879,9.83687
 z
M 27,20.5 L 26.9477,20.4986 L 26.8264,20.4848 L 26.7076,20.4563 L 26.5933,20.4135 L 26.485,20.3572
 L 26.3844,20.288 L 26.2929,20.2071 L 26.212,20.1157 L 26.1428,20.015 L 26.0865,19.9067 L 26.0437,19.7924
 L 26.0152,19.6737 L 26.0014,19.5523 L 26,9 L 26.0014,8.94768 L 26.0152,8.82635 L 26.0437,8.70764
 L 26.0865,8.59328 L 26.1428,8.48497 L 26.212,8.38435 L 26.2929,8.29291 L 26.3844,8.21199 L 26.485,8.14284
 L 26.5933,8.08646 L 26.7076,8.0437 L 26.8264,8.0152 L 26.9477,8.00137 L 43,8 L 43.0523,8.00137
 L 43.1736,8.0152 L 43.2924,8.0437 L 43.4067,8.08646 L 43.515,8.14284 L 43.6156,8.21199 L 43.7071,8.29291
 L 43.788,8.38435 L 43.8572,8.48497 L 43.9135,8.59328 L 43.9563,8.70764 L 43.9848,8.82635 L 43.9986,8.94768
 L 44,19.5 L 43.9945,19.6045 L 43.9744,19.7249 L 43.9397,19.842 L 43.891,19.954 L 43.829,20.0592
 L 43.7547,20.1561 L 43.6691,20.2431 L 43.5736,20.3191 L 43.4695,20.3829 L 43.3584,20.4336 L 43.2419,20.4703
 L 43.1219,20.4925 L 43,20.5 z
M 47.4163,22.4471 L 47.2916,22.4318 L 47.1692,22.4035 L 47.0505,22.3626 L 46.9366,22.3095 L 46.829,22.2448
 L 46.7287,22.1693 L 46.6368,22.0836 L 46.5544,21.9888 L 46.4823,21.8859 L 46.4214,21.776 L 46.3724,21.6604
 L 46.3356,21.5403 L 46.3117,21.417 L 46.3007,21.2919 L 46.3029,21.1663 L 46.3182,21.0416 L 46.3465,20.9192
 L 46.3874,20.8005 L 46.4405,20.6866 L 46.5051,20.579 L 46.5807,20.4787 L 46.6664,20.3868 L 46.7612,20.3044
 L 46.8641,20.2323 L 46.974,20.1714 L 47.0896,20.1224 L 47.2097,20.0856 L 47.333,20.0617 L 47.4581,20.0507
 L 47.5837,20.0529 L 47.7084,20.0682 L 47.8308,20.0965 L 47.9495,20.1374 L 48.0634,20.1905 L 48.171,20.2551
 L 48.2713,20.3307 L 48.3632,20.4164 L 48.4456,20.5112 L 48.5177,20.6141 L 48.5786,20.724 L 48.6276,20.8396
 L 48.6644,20.9597 L 48.6883,21.083 L 48.6993,21.2081 L 48.6971,21.3337 L 48.6818,21.4584 L 48.6535,21.5808
 L 48.6126,21.6995 L 48.5595,21.8134 L 48.4948,21.921 L 48.4193,22.0213 L 48.3336,22.1132 L 48.2388,22.1956
 L 48.1359,22.2677 L 48.026,22.3286 L 47.9104,22.3776 L 47.7903,22.4144 L 47.667,22.4383 L 47.5419,22.4493
 z
M 17.333,22.4383 L 17.2097,22.4144 L 17.0896,22.3776 L 16.974,22.3286 L 16.8641,22.2677 L 16.7612,22.1956
 L 16.6664,22.1132 L 16.5807,22.0213 L 16.5052,21.921 L 16.4405,21.8134 L 16.3874,21.6995 L 16.3465,21.5808
 L 16.3182,21.4584 L 16.3029,21.3337 L 16.3007,21.2081 L 16.3117,21.083 L 16.3356,20.9597 L 16.3724,20.8396
 L 16.4214,20.724 L 16.4823,20.6141 L 16.5544,20.5112 L 16.6368,20.4164 L 16.7287,20.3307 L 16.829,20.2552
 L 16.9366,20.1905 L 17.0505,20.1374 L 17.1692,20.0965 L 17.2916,20.0682 L 17.4163,20.0529 L 17.5419,20.0507
 L 17.667,20.0617 L 17.7903,20.0856 L 17.9104,20.1224 L 18.026,20.1714 L 18.1359,20.2323 L 18.2388,20.3044
 L 18.3336,20.3868 L 18.4193,20.4787 L 18.4949,20.579 L 18.5595,20.6866 L 18.6126,20.8005 L 18.6535,20.9192
 L 18.6818,21.0416 L 18.6971,21.1663 L 18.6993,21.2919 L 18.6883,21.417 L 18.6644,21.5403 L 18.6276,21.6604
 L 18.5786,21.776 L 18.5177,21.8859 L 18.4456,21.9888 L 18.3632,22.0836 L 18.2713,22.1693 L 18.171,22.2449
 L 18.0634,22.3095 L 17.9495,22.3626 L 17.8308,22.4035 L 17.7084,22.4318 L 17.5837,22.4471 L 17.4581,22.4493
 z
M 44.1837,25.9477 L 44.0687,25.9325 L 43.9564,25.9035 L 43.8485,25.861 L 43.7466,25.8056 L 43.6521,25.7383
 L 43.5666,25.6599 L 43.4913,25.5717 L 43.4273,25.475 L 43.3755,25.3712 L 43.3368,25.2618 L 43.3117,25.1486
 L 43.3006,25.0331 L 43.3036,24.9172 L 43.3052,24.9007 L 43.3243,24.7863 L 43.3573,24.6751 L 43.4035,24.5687
 L 43.4624,24.4688 L 43.533,24.3767 L 43.6143,24.294 L 43.7051,24.2218 L 43.804,24.1612 L 43.9095,24.1131
 L 44.0202,24.0782 L 44.1342,24.0571 L 44.25,24.05 L 44.3658,24.0571 L 44.4798,24.0782 L 44.5904,24.1131
 L 44.696,24.1612 L 44.7949,24.2218 L 44.8857,24.294 L 44.967,24.3767 L 45.0376,24.4688 L 45.0965,24.5687
 L 45.1427,24.6751 L 45.1756,24.7863 L 45.1948,24.9007 L 45.1998,25.0166 L 45.1908,25.1322 L 45.1676,25.2459
 L 45.1308,25.3559 L 45.0809,25.4606 L 45.0186,25.5584 L 44.9448,25.6479 L 44.8606,25.7277 L 44.7674,25.7967
 L 44.6664,25.8539 L 44.5436,25.9035 L 44.415,25.9356 L 44.2997,25.9487 z
M 31.585,25.9356 L 31.4564,25.9035 L 31.3336,25.8539 L 31.2326,25.7967 L 31.1394,25.7277 L 31.0552,25.6479
 L 30.9814,25.5584 L 30.9191,25.4606 L 30.8692,25.3559 L 30.8324,25.2459 L 30.8092,25.1322 L 30.8002,25.0166
 L 30.8052,24.9007 L 30.8244,24.7863 L 30.8573,24.6751 L 30.9035,24.5687 L 30.9624,24.4688 L 31.033,24.3767
 L 31.1143,24.294 L 31.2051,24.2218 L 31.304,24.1612 L 31.4096,24.1131 L 31.5202,24.0782 L 31.6342,24.0571
 L 31.75,24.05 L 31.8658,24.0571 L 31.9798,24.0782 L 32.0905,24.1131 L 32.196,24.1612 L 32.2949,24.2218
 L 32.3857,24.294 L 32.467,24.3767 L 32.5376,24.4688 L 32.5965,24.5687 L 32.6427,24.6751 L 32.6757,24.7863
 L 32.6948,24.9007 L 32.6964,24.9172 L 32.6994,25.0331 L 32.6883,25.1486 L 32.6632,25.2618 L 32.6245,25.3712
 L 32.5727,25.475 L 32.5087,25.5717 L 32.4334,25.6599 L 32.3479,25.7383 L 32.2534,25.8056 L 32.1515,25.861
 L 32.0436,25.9035 L 31.9313,25.9325 L 31.8163,25.9477 L 31.7003,25.9487 z
M 3.57065,32.8482 L 3.45288,32.8492 L 3.33546,32.84 L 3.21931,32.8205 L 3.10529,32.791 L 2.99428,32.7517
 L 2.8871,32.7029 L 2.78461,32.6449 L 2.68755,32.5782 L 2.59666,32.5033 L 2.51266,32.4207 L 2.43617,32.3311
 L 2.36778,32.2353 L 2.30801,32.1338 L 2.25731,32.0275 L 2.21606,31.9172 L 2.18459,31.8037 L 2.16313,31.6879
 L 2.15184,31.5707 L 2.15082,31.4529 L 2.16005,31.3355 L 2.17949,31.2193 L 2.20898,31.1053 L 2.24829,30.9943
 L 2.29713,30.8871 L 2.35513,30.7846 L 2.42183,30.6876 L 2.49675,30.5967 L 2.5793,30.5127 L 2.66885,30.4362
 L 2.76472,30.3678 L 2.86621,30.308 L 2.9725,30.2573 L 3.08282,30.2161 L 3.1963,30.1846 L 3.3121,30.1631
 L 3.42934,30.1519 L 3.5471,30.1508 L 3.66452,30.1601 L 3.78067,30.1795 L 3.8947,30.209 L 4.00571,30.2483
 L 4.11288,30.2971 L 4.21538,30.3551 L 4.31244,30.4218 L 4.40332,30.4968 L 4.48732,30.5793 L 4.56381,30.6689
 L 4.6322,30.7647 L 4.69197,30.8662 L 4.74268,30.9725 L 4.78392,31.0828 L 4.8154,31.1963 L 4.83685,31.3121
 L 4.84814,31.4294 L 4.84917,31.5471 L 4.83994,31.6645 L 4.8205,31.7807 L 4.791,31.8947 L 4.75169,32.0057
 L 4.70285,32.1129 L 4.64485,32.2154 L 4.57816,32.3125 L 4.50323,32.4033 L 4.42068,32.4873 L 4.33113,32.5638
 L 4.23526,32.6322 L 4.13377,32.692 L 4.02748,32.7427 L 3.91716,32.7839 L 3.80368,32.8154 L 3.68788,32.8369
 z
M 61.5706,32.8482 L 61.4529,32.8492 L 61.3355,32.84 L 61.2193,32.8205 L 61.1053,32.791 L 60.9943,32.7517
 L 60.8871,32.7029 L 60.7846,32.6449 L 60.6875,32.5782 L 60.5967,32.5033 L 60.5127,32.4207 L 60.4362,32.3311
 L 60.3678,32.2353 L 60.308,32.1338 L 60.2573,32.0275 L 60.2161,31.9172 L 60.1846,31.8037 L 60.1631,31.6879
 L 60.1518,31.5707 L 60.1508,31.4529 L 60.16,31.3355 L 60.1795,31.2193 L 60.209,31.1053 L 60.2483,30.9943
 L 60.2971,30.8871 L 60.3551,30.7846 L 60.4218,30.6876 L 60.4967,30.5967 L 60.5793,30.5127 L 60.6689,30.4362
 L 60.7647,30.3678 L 60.8662,30.308 L 60.9725,30.2573 L 61.0828,30.2161 L 61.1963,30.1846 L 61.3121,30.1631
 L 61.4293,30.1519 L 61.5471,30.1508 L 61.6645,30.1601 L 61.7807,30.1795 L 61.8947,30.209 L 62.0057,30.2483
 L 62.1129,30.2971 L 62.2154,30.3551 L 62.3124,30.4218 L 62.4033,30.4968 L 62.4873,30.5793 L 62.5638,30.6689
 L 62.6322,30.7647 L 62.692,30.8662 L 62.7427,30.9725 L 62.7839,31.0828 L 62.8154,31.1963 L 62.8369,31.3121
 L 62.8481,31.4294 L 62.8492,31.5471 L 62.8399,31.6645 L 62.8205,31.7807 L 62.791,31.8947 L 62.7517,32.0057
 L 62.7029,32.1129 L 62.6449,32.2154 L 62.5782,32.3125 L 62.5032,32.4033 L 62.4207,32.4873 L 62.3311,32.5638
 L 62.2353,32.6322 L 62.1338,32.692 L 62.0275,32.7427 L 61.9172,32.7839 L 61.8037,32.8154 L 61.6879,32.8369
 z
" stroke="black" fill="lightgray" stroke-width="0.5"/></svg>
