<?xml version="1.0" standalone="no"?>
<!DOCTYPE svg PUBLIC "-//W3C//DTD SVG 1.1//EN" "http://www.w3.org/Graphics/SVG/1.1/DTD/svg11.dtd">
<svg width="44mm" height="53mm" viewBox="0 5 44 53" xmlns="http://www.w3.org/2000/svg" version="1.1">
<title>OpenSCAD Model</title>
<path d="
M 13.8023,34.9986 L 13.9236,34.9848 L 14.0424,34.9563 L 14.1567,34.9135 L 14.265,34.8572 L 14.3656,34.788
 L 14.4571,34.7071 L 14.538,34.6156 L 14.6072,34.515 L 14.6635,34.4067 L 14.7063,34.2924 L 14.7348,34.1736
 L 14.7486,34.0523 L 14.75,34 L 14.75,29.999 L 19.5523,29.9986 L 19.6736,29.9848 L 19.7924,29.9563
 L 19.9067,29.9135 L 20.015,29.8572 L 20.1156,29.788 L 20.2071,29.7071 L 20.288,29.6156 L 20.3572,29.515
 L 20.4135,29.4067 L 20.4563,29.2924 L 20.4848,29.1736 L 20.4986,29.0523 L 20.5,29 L 20.5,11
 L 20.4925,10.8781 L 20.4703,10.7581 L 20.4336,10.6416 L 20.3829,10.5305 L 20.3191,10.4264 L 20.2431,10.3309
 L 20.1561,10.2453 L 20.0592,10.171 L 19.954,10.109 L 19.842,10.0603 L 19.7249,10.0256 L 19.6045,10.0055
 L 19.5,10 L 14.75,10.0004 L 14.75,6 L 14.7425,5.87814 L 14.7203,5.75809 L 14.6836,5.64163
 L 14.6329,5.53053 L 14.5691,5.42644 L 14.4931,5.33087 L 14.4061,5.2453 L 14.3092,5.17097 L 14.204,5.10899
 L 14.092,5.06032 L 13.9749,5.02563 L 13.8545,5.00549 L 13.75,5 L 7.19768,5.00137 L 7.07635,5.0152
 L 6.95764,5.0437 L 6.84328,5.08646 L 6.73497,5.14284 L 6.63435,5.21199 L 6.54291,5.29291 L 6.46199,5.38435
 L 6.39284,5.48497 L 6.33646,5.59328 L 6.2937,5.70764 L 6.2652,5.82635 L 6.25137,5.94768 L 6.25,6
 L 6.2502,10.001 L 1.44768,10.0014 L 1.32635,10.0152 L 1.20764,10.0437 L 1.09328,10.0865 L 0.98497,10.1428
 L 0.884354,10.212 L 0.792908,10.2929 L 0.71199,10.3844 L 0.642838,10.485 L 0.586456,10.5933 L 0.543701,10.7076
 L 0.515198,10.8264 L 0.501373,10.9477 L 0.5,11 L 0.501373,29.0523 L 0.515198,29.1736 L 0.543701,29.2924
 L 0.586456,29.4067 L 0.642838,29.515 L 0.71199,29.6156 L 0.792908,29.7071 L 0.884354,29.788 L 0.98497,29.8572
 L 1.09328,29.9135 L 1.20764,29.9563 L 1.32635,29.9848 L 1.44768,29.9986 L 1.5,30 L 6.25117,29.9996
 L 6.25137,34.0523 L 6.2652,34.1736 L 6.2937,34.2924 L 6.33646,34.4067 L 6.39284,34.515 L 6.46199,34.6156
 L 6.54291,34.7071 L 6.63435,34.788 L 6.73497,34.8572 L 6.84328,34.9135 L 6.95764,34.9563 L 7.07635,34.9848
 L 7.19768,34.9986 L 7.25,35 z
M 10.4163,12.1971 L 10.2916,12.1818 L 10.1692,12.1535 L 10.0505,12.1126 L 9.93663,12.0595 L 9.82896,11.9949
 L 9.72865,11.9193 L 9.63678,11.8336 L 9.55438,11.7388 L 9.48233,11.6359 L 9.42143,11.526 L 9.37236,11.4104
 L 9.33563,11.2903 L 9.31168,11.167 L 9.30072,11.0419 L 9.30292,10.9163 L 9.31822,10.7916 L 9.34648,10.6692
 L 9.38737,10.5505 L 9.44046,10.4366 L 9.50514,10.329 L 9.58073,10.2287 L 9.6664,10.1368 L 9.7612,10.0544
 L 9.86409,9.98235 L 9.97395,9.92145 L 10.0896,9.87238 L 10.2097,9.83565 L 10.333,9.81169 L 10.4581,9.80074
 L 10.5837,9.80293 L 10.7084,9.81824 L 10.8308,9.8465 L 10.9495,9.88739 L 11.0634,9.94048 L 11.171,10.0052
 L 11.2713,10.0807 L 11.3632,10.1664 L 11.4456,10.2612 L 11.5177,10.3641 L 11.5786,10.474 L 11.6276,10.5896
 L 11.6644,10.7097 L 11.6883,10.833 L 11.6993,10.9581 L 11.6971,11.0837 L 11.6818,11.2084 L 11.6535,11.3308
 L 11.6126,11.4495 L 11.5595,11.5634 L 11.4948,11.671 L 11.4193,11.7713 L 11.3336,11.8632 L 11.2388,11.9456
 L 11.1359,12.0177 L 11.026,12.0786 L 10.9104,12.1276 L 10.7903,12.1644 L 10.667,12.1883 L 10.5419,12.1993
 z
M 10.3796,26.899 L 10.2592,26.8958 L 10.1389,26.8905 L 10.0187,26.8832 L 9.89862,26.8737 L 9.77875,26.8622
 L 9.65909,26.8486 L 9.5397,26.8329 L 9.42059,26.8151 L 9.30182,26.7952 L 9.18341,26.7732 L 9.0654,26.7492
 L 8.94783,26.7232 L 8.83073,26.6951 L 8.71414,26.6649 L 8.5981,26.6327 L 8.48262,26.5985 L 8.36778,26.5623
 L 8.25357,26.5241 L 8.14006,26.4839 L 8.02725,26.4417 L 7.91521,26.3976 L 7.80396,26.3515 L 7.69351,26.3035
 L 7.58392,26.2535 L 7.47523,26.2017 L 7.36746,26.1479 L 7.26064,26.0923 L 7.1548,26.0349 L 7.04999,25.9756
 L 6.94623,25.9145 L 6.84355,25.8515 L 6.74199,25.7868 L 6.64156,25.7204 L 6.54231,25.6522 L 6.44427,25.5822
 L 6.34747,25.5106 L 6.25192,25.4373 L 6.15768,25.3623 L 6.06476,25.2857 L 5.97319,25.2075 L 5.883,25.1277
 L 5.7942,25.0463 L 5.70685,24.9635 L 5.62096,24.879 L 5.53654,24.7932 L 5.45366,24.7058 L 5.3723,24.617
 L 5.2925,24.5268 L 5.21428,24.4352 L 5.13768,24.3423 L 5.06271,24.2481 L 4.98941,24.1525 L 4.91777,24.0557
 L 4.84784,23.9577 L 4.77963,23.8584 L 4.71317,23.758 L 4.64847,23.6564 L 4.58554,23.5538 L 4.52441,23.45
 L 4.46512,23.3452 L 4.40765,23.2394 L 4.35205,23.1325 L 4.29831,23.0248 L 4.24648,22.9161 L 4.19653,22.8065
 L 4.14851,22.696 L 4.10242,22.5848 L 4.05829,22.4727 L 4.01611,22.3599 L 3.97592,22.2464 L 3.9377,22.1322
 L 3.90149,22.0174 L 3.86728,21.9019 L 3.8351,21.7859 L 3.80495,21.6693 L 3.77684,21.5522 L 3.75078,21.4346
 L 3.72676,21.3166 L 3.70482,21.1982 L 3.68494,21.0794 L 3.66714,20.9603 L 3.65143,20.8409 L 3.63779,20.7213
 L 3.62625,20.6014 L 3.61681,20.4813 L 3.60945,20.3611 L 3.6042,20.2408 L 3.60104,20.1204 L 3.59999,20
 L 3.60104,19.8796 L 3.6042,19.7592 L 3.60945,19.6389 L 3.61681,19.5187 L 3.62625,19.3986 L 3.63779,19.2788
 L 3.65143,19.1591 L 3.66714,19.0397 L 3.68494,18.9206 L 3.70482,18.8018 L 3.72676,18.6834 L 3.75078,18.5654
 L 3.77684,18.4478 L 3.80495,18.3307 L 3.8351,18.2142 L 3.86728,18.0981 L 3.90149,17.9826 L 3.9377,17.8678
 L 3.97592,17.7536 L 4.01611,17.6401 L 4.05829,17.5273 L 4.10242,17.4152 L 4.14851,17.304 L 4.19653,17.1935
 L 4.24648,17.0839 L 4.29831,16.9753 L 4.35205,16.8675 L 4.40765,16.7607 L 4.46512,16.6548 L 4.52441,16.55
 L 4.58554,16.4462 L 4.64847,16.3436 L 4.71317,16.242 L 4.77963,16.1416 L 4.84784,16.0423 L 4.91777,15.9443
 L 4.98941,15.8475 L 5.06271,15.7519 L 5.13768,15.6577 L 5.21428,15.5648 L 5.2925,15.4732 L 5.3723,15.383
 L 5.45366,15.2942 L 5.53654,15.2069 L 5.62096,15.121 L 5.70685,15.0366 L 5.7942,14.9537 L 5.883,14.8723
 L 5.97319,14.7925 L 6.06476,14.7143 L 6.15768,14.6377 L 6.25192,14.5627 L 6.34747,14.4894 L 6.44427,14.4178
 L 6.54231,14.3479 L 6.64156,14.2796 L 6.74199,14.2132 L 6.84355,14.1485 L 6.94623,14.0856 L 7.04999,14.0244
 L 7.1548,13.9651 L 7.26064,13.9077 L 7.36746,13.8521 L 7.47523,13.7983 L 7.58392,13.7465 L 7.69351,13.6965
 L 7.80396,13.6485 L 7.91521,13.6024 L 8.02725,13.5583 L 8.14006,13.5161 L 8.25357,13.4759 L 8.36778,13.4377
 L 8.48262,13.4015 L 8.5981,13.3673 L 8.71414,13.3351 L 8.83073,13.305 L 8.94783,13.2769 L 9.0654,13.2508
 L 9.18341,13.2268 L 9.30182,13.2048 L 9.42059,13.185 L 9.5397,13.1672 L 9.65909,13.1514 L 9.77875,13.1378
 L 9.89862,13.1263 L 10.0187,13.1168 L 10.1389,13.1095 L 10.2592,13.1042 L 10.3796,13.1011 L 10.5,13.1
 L 10.6204,13.1011 L 10.7408,13.1042 L 10.8611,13.1095 L 10.9813,13.1168 L 11.1014,13.1263 L 11.2212,13.1378
 L 11.3409,13.1514 L 11.4603,13.1672 L 11.5794,13.185 L 11.6982,13.2048 L 11.8166,13.2268 L 11.9346,13.2508
 L 12.0522,13.2769 L 12.1693,13.305 L 12.2858,13.3351 L 12.4019,13.3673 L 12.5174,13.4015 L 12.6322,13.4377
 L 12.7464,13.4759 L 12.8599,13.5161 L 12.9727,13.5583 L 13.0848,13.6024 L 13.196,13.6485 L 13.3065,13.6965
 L 13.4161,13.7465 L 13.5247,13.7983 L 13.6325,13.8521 L 13.7393,13.9077 L 13.8452,13.9651 L 13.95,14.0244
 L 14.0538,14.0856 L 14.1564,14.1485 L 14.258,14.2132 L 14.3584,14.2796 L 14.4577,14.3479 L 14.5557,14.4178
 L 14.6525,14.4894 L 14.7481,14.5627 L 14.8423,14.6377 L 14.9352,14.7143 L 15.0268,14.7925 L 15.117,14.8723
 L 15.2058,14.9537 L 15.2931,15.0366 L 15.379,15.121 L 15.4634,15.2069 L 15.5463,15.2942 L 15.6277,15.383
 L 15.7075,15.4732 L 15.7857,15.5648 L 15.8623,15.6577 L 15.9373,15.7519 L 16.0106,15.8475 L 16.0822,15.9443
 L 16.1521,16.0423 L 16.2204,16.1416 L 16.2868,16.242 L 16.3515,16.3436 L 16.4144,16.4462 L 16.4756,16.55
 L 16.5349,16.6548 L 16.5923,16.7607 L 16.6479,16.8675 L 16.7017,16.9753 L 16.7535,17.0839 L 16.8035,17.1935
 L 16.8515,17.304 L 16.8976,17.4152 L 16.9417,17.5273 L 16.9839,17.6401 L 17.0241,17.7536 L 17.0623,17.8678
 L 17.0985,17.9826 L 17.1327,18.0981 L 17.1649,18.2142 L 17.195,18.3307 L 17.2231,18.4478 L 17.2492,18.5654
 L 17.2732,18.6834 L 17.2952,18.8018 L 17.315,18.9206 L 17.3328,19.0397 L 17.3486,19.1591 L 17.3622,19.2788
 L 17.3737,19.3986 L 17.3832,19.5187 L 17.3905,19.6389 L 17.3958,19.7592 L 17.3989,19.8796 L 17.4,20
 L 17.3989,20.1204 L 17.3958,20.2408 L 17.3905,20.3611 L 17.3832,20.4813 L 17.3737,20.6014 L 17.3622,20.7213
 L 17.3486,20.8409 L 17.3328,20.9603 L 17.315,21.0794 L 17.2952,21.1982 L 17.2732,21.3166 L 17.2492,21.4346
 L 17.2231,21.5522 L 17.195,21.6693 L 17.1649,21.7859 L 17.1327,21.9019 L 17.0985,22.0174 L 17.0623,22.1322
 L 17.0241,22.2464 L 16.9839,22.3599 L 16.9417,22.4727 L 16.8976,22.5848 L 16.8515,22.696 L 16.8035,22.8065
 L 16.7535,22.9161 L 16.7017,23.0248 L 16.6479,23.1325 L 16.5923,23.2394 L 16.5349,23.3452 L 16.4756,23.45
 L 16.4144,23.5538 L 16.3515,23.6564 L 16.2868,23.758 L 16.2204,23.8584 L 16.1521,23.9577 L 16.0822,24.0557
 L 16.0106,24.1525 L 15.9373,24.2481 L 15.8623,24.3423 L 15.7857,24.4352 L 15.7075,24.5268 L 15.6277,24.617
 L 15.5463,24.7058 L 15.4634,24.7932 L 15.379,24.879 L 15.2931,24.9635 L 15.2058,25.0463 L 15.117,25.1277
 L 15.0268,25.2075 L 14.9352,25.2857 L 14.8423,25.3623 L 14.7481,25.4373 L 14.6525,25.5106 L 14.5557,25.5822
 L 14.4577,25.6522 L 14.3584,25.7204 L 14.258,25.7868 L 14.1564,25.8515 L 14.0538,25.9145 L 13.95,25.9756
 L 13.8452,26.0349 L 13.7393,26.0923 L 13.6325,26.1479 L 13.5247,26.2017 L 13.4161,26.2535 L 13.3065,26.3035
 L 13.196,26.3515 L 13.0848,26.3976 L 12.9727,26.4417 L 12.8599,26.4839 L 12.7464,26.5241 L 12.6322,26.5623
 L 12.5174,26.5985 L 12.4019,26.6327 L 12.2858,26.6649 L 12.1693,26.6951 L 12.0522,26.7232 L 11.9346,26.7492
 L 11.8166,26.7732 L 11.6982,26.7952 L 11.5794,26.8151 L 11.4603,26.8329 L 11.3409,26.8486 L 11.2212,26.8622
 L 11.1014,26.8737 L 10.9813,26.8832 L 10.8611,26.8905 L 10.7408,26.8958 L 10.6204,26.899 L 10.5,26.9
 z
M 10.4163,30.1971 L 10.2916,30.1818 L 10.1692,30.1535 L 10.0505,30.1126 L 9.93663,30.0595 L 9.82896,29.9949
 L 9.72865,29.9193 L 9.63678,29.8336 L 9.55438,29.7388 L 9.48233,29.6359 L 9.42143,29.526 L 9.37236,29.4104
 L 9.33563,29.2903 L 9.31168,29.167 L 9.30072,29.0419 L 9.30292,28.9163 L 9.31822,28.7916 L 9.34648,28.6692
 L 9.38737,28.5505 L 9.44046,28.4366 L 9.50514,28.329 L 9.58073,28.2287 L 9.6664,28.1368 L 9.7612,28.0544
 L 9.86409,27.9823 L 9.97395,27.9214 L 10.0896,27.8724 L 10.2097,27.8356 L 10.333,27.8117 L 10.4581,27.8007
 L 10.5837,27.8029 L 10.7084,27.8182 L 10.8308,27.8465 L 10.9495,27.8874 L 11.0634,27.9405 L 11.171,28.0052
 L 11.2713,28.0807 L 11.3632,28.1664 L 11.4456,28.2612 L 11.5177,28.3641 L 11.5786,28.474 L 11.6276,28.5896
 L 11.6644,28.7097 L 11.6883,28.833 L 11.6993,28.9581 L 11.6971,29.0837 L 11.6818,29.2084 L 11.6535,29.3308
 L 11.6126,29.4495 L 11.5595,29.5634 L 11.4948,29.671 L 11.4193,29.7713 L 11.3336,29.8632 L 11.2388,29.9456
 L 11.1359,30.0177 L 11.026,30.0786 L 10.9104,30.1276 L 10.7903,30.1644 L 10.667,30.1883 L 10.5419,30.1993
 z
M 34.8023,34.9986 L 34.9236,34.9848 L 35.0424,34.9563 L 35.1567,34.9135 L 35.265,34.8572 L 35.3656,34.788
 L 35.4571,34.7071 L 35.538,34.6156 L 35.6072,34.515 L 35.6635,34.4067 L 35.7063,34.2924 L 35.7348,34.1736
 L 35.7486,34.0523 L 35.75,34 L 35.75,29.999 L 40.5523,29.9986 L 40.6736,29.9848 L 40.7924,29.9563
 L 40.9067,29.9135 L 41.015,29.8572 L 41.1156,29.788 L 41.2071,29.7071 L 41.288,29.6156 L 41.3572,29.515
 L 41.4135,29.4067 L 41.4563,29.2924 L 41.4848,29.1736 L 41.4986,29.0523 L 41.5,29 L 41.5,11
 L 41.4925,10.8781 L 41.4703,10.7581 L 41.4336,10.6416 L 41.3829,10.5305 L 41.3191,10.4264 L 41.2431,10.3309
 L 41.1561,10.2453 L 41.0592,10.171 L 40.954,10.109 L 40.842,10.0603 L 40.7249,10.0256 L 40.6045,10.0055
 L 40.5,10 L 35.75,10.0004 L 35.75,6 L 35.7425,5.87814 L 35.7203,5.75809 L 35.6836,5.64163
 L 35.6329,5.53053 L 35.5691,5.42644 L 35.4931,5.33087 L 35.4061,5.2453 L 35.3092,5.17097 L 35.204,5.10899
 L 35.092,5.06032 L 34.9749,5.02563 L 34.8545,5.00549 L 34.75,5 L 28.1977,5.00137 L 28.0764,5.0152
 L 27.9576,5.0437 L 27.8433,5.08646 L 27.735,5.14284 L 27.6344,5.21199 L 27.5429,5.29291 L 27.462,5.38435
 L 27.3928,5.48497 L 27.3365,5.59328 L 27.2937,5.70764 L 27.2652,5.82635 L 27.2514,5.94768 L 27.25,6
 L 27.2502,10.001 L 22.4477,10.0014 L 22.3264,10.0152 L 22.2076,10.0437 L 22.0933,10.0865 L 21.985,10.1428
 L 21.8844,10.212 L 21.7929,10.2929 L 21.712,10.3844 L 21.6428,10.485 L 21.5865,10.5933 L 21.5437,10.7076
 L 21.5152,10.8264 L 21.5014,10.9477 L 21.5,11 L 21.5014,29.0523 L 21.5152,29.1736 L 21.5437,29.2924
 L 21.5865,29.4067 L 21.6428,29.515 L 21.712,29.6156 L 21.7929,29.7071 L 21.8844,29.788 L 21.985,29.8572
 L 22.0933,29.9135 L 22.2076,29.9563 L 22.3264,29.9848 L 22.4477,29.9986 L 22.5,30 L 27.2512,29.9996
 L 27.2514,34.0523 L 27.2652,34.1736 L 27.2937,34.2924 L 27.3365,34.4067 L 27.3928,34.515 L 27.462,34.6156
 L 27.5429,34.7071 L 27.6344,34.788 L 27.735,34.8572 L 27.8433,34.9135 L 27.9576,34.9563 L 28.0764,34.9848
 L 28.1977,34.9986 L 28.25,35 z
M 30.4477,30.9986 L 30.3264,30.9848 L 30.2076,30.9563 L 30.0933,30.9135 L 29.985,30.8572 L 29.8844,30.788
 L 29.7929,30.7071 L 29.712,30.6156 L 29.6428,30.515 L 29.5865,30.4067 L 29.5437,30.2924 L 29.5152,30.1736
 L 29.5014,30.0523 L 29.5011,26.604 L 29.4861,26.5995 L 25.9,26.6 L 25.8477,26.5986 L 25.7264,26.5848
 L 25.6077,26.5563 L 25.4933,26.5135 L 25.385,26.4572 L 25.2844,26.388 L 25.1929,26.3071 L 25.112,26.2156
 L 25.0428,26.115 L 24.9865,26.0067 L 24.9437,25.8923 L 24.9152,25.7736 L 24.9014,25.6523 L 24.9009,22.0155
 L 24.8673,21.9019 L 24.8351,21.7859 L 24.8049,21.6693 L 24.7768,21.5522 L 24.7508,21.4346 L 24.7268,21.3166
 L 24.7048,21.1982 L 24.6849,21.0794 L 24.6671,20.9603 L 24.6514,20.8409 L 24.6378,20.7213 L 24.6263,20.6014
 L 24.6168,20.4813 L 24.6095,20.3611 L 24.6042,20.2408 L 24.601,20.1204 L 24.6,20 L 24.601,19.8796
 L 24.6042,19.7592 L 24.6095,19.6389 L 24.6168,19.5187 L 24.6263,19.3986 L 24.6378,19.2788 L 24.6514,19.1591
 L 24.6671,19.0397 L 24.6849,18.9206 L 24.7048,18.8018 L 24.7268,18.6834 L 24.7508,18.5654 L 24.7768,18.4478
 L 24.8049,18.3307 L 24.8351,18.2142 L 24.8673,18.0981 L 24.9005,17.9862 L 24.9,14.4 L 24.9014,14.3477
 L 24.9152,14.2264 L 24.9437,14.1077 L 24.9865,13.9933 L 25.0428,13.885 L 25.112,13.7844 L 25.1929,13.6929
 L 25.2844,13.612 L 25.385,13.5428 L 25.4933,13.4865 L 25.6077,13.4437 L 25.7264,13.4152 L 25.8477,13.4014
 L 29.4845,13.4009 L 29.5002,13.3963 L 29.5,10 L 29.5014,9.94768 L 29.5152,9.82635 L 29.5437,9.70764
 L 29.5865,9.59328 L 29.6428,9.48497 L 29.712,9.38435 L 29.7929,9.29291 L 29.8844,9.21199 L 29.985,9.14284
 L 30.0933,9.08646 L 30.2076,9.0437 L 30.3264,9.0152 L 30.4477,9.00137 L 32.5,9 L 32.6045,9.00549
 L 32.7249,9.02563 L 32.842,9.06032 L 32.954,9.10899 L 33.0592,9.17097 L 33.1561,9.2453 L 33.2431,9.33087
 L 33.3191,9.42644 L 33.3829,9.53053 L 33.4336,9.64163 L 33.4703,9.75809 L 33.4925,9.87814 L 33.5,10
 L 33.5,13.3964 L 33.5138,13.4005 L 37.1,13.4 L 37.2045,13.4055 L 37.3249,13.4256 L 37.442,13.4603
 L 37.554,13.509 L 37.6592,13.571 L 37.756,13.6453 L 37.8431,13.7309 L 37.9191,13.8264 L 37.9829,13.9305
 L 38.0336,14.0416 L 38.0703,14.1581 L 38.0925,14.2782 L 38.1,14.4 L 38.1,17.9877 L 38.1327,18.0981
 L 38.1649,18.2142 L 38.195,18.3307 L 38.2231,18.4478 L 38.2492,18.5654 L 38.2732,18.6834 L 38.2952,18.8018
 L 38.315,18.9206 L 38.3328,19.0397 L 38.3486,19.1591 L 38.3622,19.2788 L 38.3737,19.3986 L 38.3832,19.5187
 L 38.3905,19.6389 L 38.3958,19.7592 L 38.3989,19.8796 L 38.4,20 L 38.3989,20.1204 L 38.3958,20.2408
 L 38.3905,20.3611 L 38.3832,20.4813 L 38.3737,20.6014 L 38.3622,20.7213 L 38.3486,20.8409 L 38.3328,20.9603
 L 38.315,21.0794 L 38.2952,21.1982 L 38.2732,21.3166 L 38.2492,21.4346 L 38.2231,21.5522 L 38.195,21.6693
 L 38.1649,21.7859 L 38.1327,21.9019 L 38.1,22.0123 L 38.1,25.6 L 38.0986,25.6523 L 38.0848,25.7736
 L 38.0563,25.8923 L 38.0135,26.0067 L 37.9572,26.115 L 37.888,26.2156 L 37.8071,26.3071 L 37.7156,26.388
 L 37.615,26.4572 L 37.5067,26.5135 L 37.3923,26.5563 L 37.2736,26.5848 L 37.1523,26.5986 L 33.5155,26.5991
 L 33.5,26.6037 L 33.5,30 L 33.4986,30.0523 L 33.4848,30.1736 L 33.4563,30.2924 L 33.4135,30.4067
 L 33.3572,30.515 L 33.288,30.6156 L 33.2071,30.7071 L 33.1156,30.788 L 33.015,30.8572 L 32.9067,30.9135
 L 32.7924,30.9563 L 32.6736,30.9848 L 32.5523,30.9986 L 30.5,31 z
M 43.0628,57.498 L 43.1253,57.4921 L 43.1874,57.4823 L 43.2487,57.4686 L 43.309,57.451 L 43.3681,57.4298
 L 43.4258,57.4048 L 43.4818,57.3763 L 43.5358,57.3443 L 43.5878,57.309 L 43.6374,57.2705 L 43.6845,57.229
 L 43.729,57.1845 L 43.7705,57.1374 L 43.809,57.0878 L 43.8443,57.0358 L 43.8763,56.9818 L 43.9048,56.9258
 L 43.9298,56.8681 L 43.951,56.809 L 43.9686,56.7487 L 43.9823,56.6874 L 43.9921,56.6253 L 43.998,56.5628
 L 44,56.5 L 44,38.5 L 43.998,38.4372 L 43.9921,38.3747 L 43.9823,38.3126 L 43.9686,38.2513
 L 43.951,38.191 L 43.9298,38.1319 L 43.9048,38.0742 L 43.8763,38.0182 L 43.8443,37.9642 L 43.809,37.9122
 L 43.7705,37.8626 L 43.729,37.8155 L 43.6845,37.771 L 43.6374,37.7295 L 43.5878,37.691 L 43.5358,37.6557
 L 43.4818,37.6237 L 43.4258,37.5952 L 43.3681,37.5702 L 43.309,37.549 L 43.2487,37.5314 L 43.1874,37.5177
 L 43.1253,37.5079 L 43.0628,37.502 L 43,37.5 L 23.0475,37.5 L 23.0221,37.5449 L 22.948,37.6527
 L 22.8647,37.7537 L 22.773,37.847 L 22.6735,37.932 L 22.567,38.008 L 22.4542,38.0744 L 22.3361,38.1308
 L 22.2135,38.1766 L 22.0874,38.2115 L 21.9588,38.2354 L 21.8285,38.2479 L 21.6976,38.2491 L 21.5672,38.2388
 L 21.4381,38.2172 L 21.3114,38.1844 L 21.1881,38.1408 L 21.069,38.0865 L 20.9551,38.0221 L 20.8473,37.948
 L 20.7463,37.8647 L 20.653,37.773 L 20.568,37.6735 L 20.492,37.567 L 20.4525,37.5 L 10.5475,37.5
 L 10.508,37.567 L 10.432,37.6735 L 10.347,37.773 L 10.2537,37.8647 L 10.1527,37.948 L 10.0449,38.0221
 L 9.931,38.0865 L 9.81192,38.1408 L 9.68857,38.1844 L 9.56187,38.2172 L 9.43282,38.2388 L 9.30235,38.2491
 L 9.17151,38.2479 L 9.04124,38.2354 L 8.91258,38.2115 L 8.78648,38.1766 L 8.66391,38.1308 L 8.54581,38.0744
 L 8.43304,38.008 L 8.32652,37.932 L 8.22701,37.847 L 8.13528,37.7537 L 8.05205,37.6527 L 7.97794,37.5449
 L 7.95253,37.5 L 1,37.5 L 0.93721,37.502 L 0.87468,37.5079 L 0.812622,37.5177 L 0.751312,37.5314
 L 0.690994,37.5489 L 0.631882,37.5702 L 0.574234,37.5952 L 0.51825,37.6237 L 0.464188,37.6557 L 0.412216,37.691
 L 0.362579,37.7295 L 0.31546,37.771 L 0.271042,37.8154 L 0.229492,37.8626 L 0.190994,37.9122 L 0.155685,37.9642
 L 0.123703,38.0182 L 0.0951843,38.0742 L 0.0702362,38.1319 L 0.0489502,38.191 L 0.0314178,38.2513 L 0.0177155,38.3126
 L 0.00788879,38.3747 L 0.00198364,38.4372 L 0,38.5 L 0,56.5 L 0.00198364,56.5628 L 0.00788879,56.6253
 L 0.0177155,56.6874 L 0.0314178,56.7487 L 0.0489502,56.809 L 0.0702362,56.8681 L 0.0951843,56.9258 L 0.123703,56.9817
 L 0.155685,57.0358 L 0.190994,57.0878 L 0.229492,57.1374 L 0.271042,57.1845 L 0.31546,57.2289 L 0.362579,57.2705
 L 0.412216,57.309 L 0.464188,57.3443 L 0.51825,57.3763 L 0.574234,57.4048 L 0.631882,57.4297 L 0.690994,57.451
 L 0.751312,57.4686 L 0.812622,57.4823 L 0.87468,57.4921 L 0.93721,57.498 L 1,57.5 L 7.95256,57.5
 L 7.992,57.433 L 8.06799,57.3265 L 8.15298,57.227 L 8.24631,57.1353 L 8.34729,57.052 L 8.45512,56.9779
 L 8.56902,56.9135 L 8.6881,56.8592 L 8.81145,56.8155 L 8.93814,56.7828 L 9.0672,56.7612 L 9.19766,56.7509
 L 9.32851,56.752 L 9.45877,56.7646 L 9.58743,56.7884 L 9.71353,56.8234 L 9.83611,56.8692 L 9.95421,56.9256
 L 10.067,56.992 L 10.1735,57.068 L 10.273,57.153 L 10.3647,57.2463 L 10.448,57.3473 L 10.5221,57.4551
 L 10.5475,57.5 L 20.4525,57.5 L 20.4779,57.4551 L 20.552,57.3473 L 20.6353,57.2463 L 20.727,57.153
 L 20.8265,57.068 L 20.933,56.992 L 21.0458,56.9256 L 21.1639,56.8692 L 21.2865,56.8234 L 21.4126,56.7884
 L 21.5412,56.7646 L 21.6715,56.752 L 21.8023,56.7509 L 21.9328,56.7612 L 22.0619,56.7828 L 22.1886,56.8155
 L 22.3119,56.8592 L 22.431,56.9135 L 22.5449,56.9779 L 22.6527,57.052 L 22.7537,57.1353 L 22.847,57.227
 L 22.932,57.3265 L 23.008,57.433 L 23.0474,57.5 L 43,57.5 z
M 3.36928,41.9993 L 3.23953,41.9822 L 3.11179,41.9539 L 2.98698,41.9145 L 2.86607,41.8644 L 2.75002,41.804
 L 2.63965,41.7337 L 2.53583,41.654 L 2.43935,41.5656 L 2.35094,41.4691 L 2.27129,41.3653 L 2.20097,41.255
 L 2.14055,41.1389 L 2.09047,41.018 L 2.05112,40.8932 L 2.0228,40.7654 L 2.00572,40.6357 L 2,40.505
 L 2.00572,40.3643 L 2.0228,40.2345 L 2.05112,40.1068 L 2.09047,39.982 L 2.14055,39.8611 L 2.20097,39.745
 L 2.27129,39.6346 L 2.35094,39.5308 L 2.43935,39.4343 L 2.53583,39.3459 L 2.63965,39.2663 L 2.75002,39.196
 L 2.86607,39.1355 L 2.98698,39.0855 L 3.11179,39.0461 L 3.23953,39.0178 L 3.36928,39.0007 L 3.5,38.995
 L 4.5,38.995 L 4.57849,38.9971 L 4.70876,39.0096 L 4.83742,39.0334 L 4.96352,39.0684 L 5.08609,39.1142
 L 5.20419,39.1706 L 5.31696,39.237 L 5.42348,39.313 L 5.52299,39.398 L 5.61472,39.4913 L 5.69795,39.5923
 L 5.77206,39.7001 L 5.8365,39.814 L 5.89076,39.9331 L 5.93445,40.0564 L 5.96721,40.1831 L 5.98882,40.3122
 L 5.99908,40.4427 L 5.99794,40.5835 L 5.9854,40.7137 L 5.96155,40.8424 L 5.92657,40.9685 L 5.88075,41.0911
 L 5.82442,41.2092 L 5.758,41.3219 L 5.68201,41.4285 L 5.59702,41.528 L 5.50369,41.6197 L 5.40271,41.7029
 L 5.29488,41.777 L 5.18098,41.8415 L 5.0619,41.8957 L 4.93855,41.9394 L 4.81186,41.9722 L 4.6828,41.9938
 L 4.55234,42.0041 L 3.5,42.005 z
M 39.4477,42.0041 L 39.3172,41.9938 L 39.1881,41.9722 L 39.0614,41.9394 L 38.9381,41.8958 L 38.819,41.8415
 L 38.7051,41.7771 L 38.5973,41.7029 L 38.4963,41.6197 L 38.403,41.528 L 38.318,41.4285 L 38.242,41.3219
 L 38.1756,41.2092 L 38.1192,41.0911 L 38.0734,40.9685 L 38.0385,40.8424 L 38.0146,40.7137 L 38.0021,40.5835
 L 38.0009,40.4427 L 38.0112,40.3122 L 38.0328,40.1832 L 38.0656,40.0565 L 38.1092,39.9331 L 38.1635,39.814
 L 38.2279,39.7001 L 38.302,39.5923 L 38.3853,39.4913 L 38.477,39.398 L 38.5765,39.313 L 38.683,39.237
 L 38.7958,39.1706 L 38.9139,39.1143 L 39.0365,39.0684 L 39.1626,39.0335 L 39.2912,39.0096 L 39.4215,38.9971
 L 39.5,38.995 L 40.5,38.995 L 40.6307,39.0007 L 40.7605,39.0178 L 40.8882,39.0461 L 41.013,39.0855
 L 41.1339,39.1356 L 41.25,39.196 L 41.3604,39.2663 L 41.4642,39.3459 L 41.5607,39.4344 L 41.6491,39.5308
 L 41.7287,39.6347 L 41.799,39.745 L 41.8595,39.8611 L 41.9095,39.982 L 41.9489,40.1068 L 41.9772,40.2345
 L 41.9943,40.3643 L 42,40.505 L 41.9943,40.6357 L 41.9772,40.7655 L 41.9489,40.8932 L 41.9095,41.018
 L 41.8595,41.1389 L 41.799,41.255 L 41.7287,41.3653 L 41.6491,41.4692 L 41.5607,41.5656 L 41.4642,41.6541
 L 41.3604,41.7337 L 41.25,41.804 L 41.1339,41.8644 L 41.013,41.9145 L 40.8882,41.9539 L 40.7605,41.9822
 L 40.6307,41.9993 L 40.5,42.005 z
M 21.8796,54.3989 L 21.7592,54.3958 L 21.6389,54.3905 L 21.5187,54.3832 L 21.3986,54.3737 L 21.2788,54.3622
 L 21.1591,54.3486 L 21.0397,54.3328 L 20.9206,54.315 L 20.8018,54.2952 L 20.6834,54.2732 L 20.5654,54.2492
 L 20.4478,54.2231 L 20.3307,54.195 L 20.2142,54.1649 L 20.0981,54.1327 L 19.9862,54.0995 L 16.4,54.1
 L 16.3477,54.0986 L 16.2264,54.0848 L 16.1077,54.0563 L 15.9933,54.0135 L 15.885,53.9571 L 15.7844,53.888
 L 15.6929,53.8071 L 15.612,53.7156 L 15.5428,53.615 L 15.4865,53.5067 L 15.4437,53.3923 L 15.4152,53.2736
 L 15.4014,53.1523 L 15.4009,49.5155 L 15.3963,49.4998 L 12,49.5 L 11.9477,49.4986 L 11.8264,49.4848
 L 11.7076,49.4563 L 11.5933,49.4135 L 11.485,49.3571 L 11.3844,49.288 L 11.2929,49.2071 L 11.212,49.1156
 L 11.1428,49.015 L 11.0865,48.9067 L 11.0437,48.7923 L 11.0152,48.6736 L 11.0014,48.5523 L 11,46.5
 L 11.0055,46.3955 L 11.0256,46.275 L 11.0603,46.158 L 11.109,46.046 L 11.171,45.9408 L 11.2453,45.8439
 L 11.3309,45.7569 L 11.4264,45.6808 L 11.5305,45.6171 L 11.6416,45.5664 L 11.7581,45.5297 L 11.8781,45.5074
 L 12,45.5 L 15.3964,45.5 L 15.4005,45.4862 L 15.4,41.9 L 15.4055,41.7955 L 15.4256,41.675
 L 15.4603,41.558 L 15.509,41.446 L 15.571,41.3408 L 15.6453,41.2439 L 15.7309,41.1569 L 15.8264,41.0809
 L 15.9305,41.0171 L 16.0416,40.9664 L 16.1581,40.9297 L 16.2782,40.9075 L 16.4,40.9 L 19.9877,40.9
 L 20.0981,40.8673 L 20.2142,40.8351 L 20.3307,40.8049 L 20.4478,40.7768 L 20.5654,40.7508 L 20.6834,40.7268
 L 20.8018,40.7048 L 20.9206,40.6849 L 21.0397,40.6671 L 21.1591,40.6514 L 21.2788,40.6378 L 21.3986,40.6263
 L 21.5187,40.6168 L 21.6389,40.6095 L 21.7592,40.6042 L 21.8796,40.601 L 22,40.6 L 22.1204,40.601
 L 22.2408,40.6042 L 22.3611,40.6095 L 22.4813,40.6168 L 22.6014,40.6263 L 22.7213,40.6378 L 22.8409,40.6514
 L 22.9603,40.6671 L 23.0794,40.6849 L 23.1982,40.7048 L 23.3166,40.7268 L 23.4346,40.7508 L 23.5522,40.7768
 L 23.6693,40.8049 L 23.7859,40.8351 L 23.9019,40.8673 L 24.0123,40.9 L 27.6,40.9 L 27.6523,40.9014
 L 27.7736,40.9152 L 27.8923,40.9437 L 28.0067,40.9865 L 28.115,41.0428 L 28.2156,41.112 L 28.3071,41.1929
 L 28.388,41.2843 L 28.4572,41.385 L 28.5135,41.4933 L 28.5563,41.6076 L 28.5848,41.7263 L 28.5986,41.8477
 L 28.5991,45.4845 L 28.6037,45.5 L 32,45.5 L 32.0523,45.5014 L 32.1736,45.5152 L 32.2924,45.5437
 L 32.4067,45.5864 L 32.515,45.6428 L 32.6156,45.712 L 32.7071,45.7929 L 32.788,45.8843 L 32.8572,45.985
 L 32.9135,46.0933 L 32.9563,46.2076 L 32.9848,46.3263 L 32.9986,46.4477 L 33,48.5 L 32.9986,48.5523
 L 32.9848,48.6736 L 32.9563,48.7924 L 32.9135,48.9067 L 32.8572,49.015 L 32.788,49.1156 L 32.7071,49.2071
 L 32.6156,49.288 L 32.515,49.3572 L 32.4067,49.4135 L 32.2924,49.4563 L 32.1736,49.4848 L 32.0523,49.4986
 L 28.604,49.4989 L 28.5995,49.5139 L 28.6,53.1 L 28.5986,53.1523 L 28.5848,53.2736 L 28.5563,53.3923
 L 28.5135,53.5067 L 28.4572,53.615 L 28.388,53.7156 L 28.3071,53.8071 L 28.2156,53.888 L 28.115,53.9572
 L 28.0067,54.0135 L 27.8923,54.0563 L 27.7736,54.0848 L 27.6523,54.0986 L 24.0155,54.099 L 23.9019,54.1327
 L 23.7859,54.1649 L 23.6693,54.195 L 23.5522,54.2231 L 23.4346,54.2492 L 23.3166,54.2732 L 23.1982,54.2952
 L 23.0794,54.315 L 22.9603,54.3328 L 22.8409,54.3486 L 22.7213,54.3622 L 22.6014,54.3737 L 22.4813,54.3832
 L 22.3611,54.3905 L 22.2408,54.3958 L 22.1204,54.3989 L 22,54.4 z
M 3.5,56.005 L 3.36928,55.9993 L 3.23953,55.9822 L 3.11179,55.9539 L 2.98698,55.9145 L 2.86607,55.8644
 L 2.75002,55.804 L 2.63965,55.7337 L 2.53583,55.654 L 2.43935,55.5656 L 2.35094,55.4691 L 2.27129,55.3653
 L 2.20097,55.255 L 2.14055,55.1389 L 2.09047,55.018 L 2.05112,54.8932 L 2.0228,54.7654 L 2.00572,54.6357
 L 2,54.495 L 2.00572,54.3643 L 2.0228,54.2345 L 2.05112,54.1068 L 2.09047,53.982 L 2.14055,53.8611
 L 2.20097,53.745 L 2.27129,53.6346 L 2.35094,53.5308 L 2.43935,53.4343 L 2.53583,53.3459 L 2.63965,53.2663
 L 2.75002,53.196 L 2.86607,53.1355 L 2.98698,53.0855 L 3.11179,53.0461 L 3.23953,53.0178 L 3.36928,53.0007
 L 3.5,52.995 L 4.55234,52.9959 L 4.6828,53.0062 L 4.81186,53.0278 L 4.93855,53.0605 L 5.0619,53.1042
 L 5.18098,53.1585 L 5.29488,53.2229 L 5.40271,53.297 L 5.50369,53.3803 L 5.59702,53.472 L 5.68201,53.5715
 L 5.758,53.678 L 5.82442,53.7908 L 5.88075,53.9089 L 5.92657,54.0315 L 5.96155,54.1576 L 5.9854,54.2862
 L 5.99794,54.4165 L 5.99908,54.5573 L 5.98882,54.6878 L 5.96721,54.8168 L 5.93445,54.9435 L 5.89076,55.0669
 L 5.8365,55.186 L 5.77206,55.2999 L 5.69795,55.4077 L 5.61472,55.5087 L 5.52299,55.602 L 5.42348,55.687
 L 5.31696,55.763 L 5.20419,55.8294 L 5.08609,55.8857 L 4.96352,55.9315 L 4.83742,55.9665 L 4.70876,55.9904
 L 4.57849,56.0029 L 4.5,56.005 z
M 39.5,56.005 L 39.4215,56.0029 L 39.2912,55.9904 L 39.1626,55.9665 L 39.0365,55.9316 L 38.9139,55.8857
 L 38.7958,55.8294 L 38.683,55.763 L 38.5765,55.687 L 38.477,55.602 L 38.3853,55.5087 L 38.302,55.4077
 L 38.2279,55.2999 L 38.1635,55.186 L 38.1092,55.0669 L 38.0656,54.9435 L 38.0328,54.8168 L 38.0112,54.6878
 L 38.0009,54.5573 L 38.0021,54.4165 L 38.0146,54.2863 L 38.0385,54.1576 L 38.0734,54.0315 L 38.1192,53.9089
 L 38.1756,53.7908 L 38.242,53.6781 L 38.318,53.5715 L 38.403,53.472 L 38.4963,53.3803 L 38.5973,53.2971
 L 38.7051,53.2229 L 38.819,53.1585 L 38.9381,53.1042 L 39.0614,53.0606 L 39.1881,53.0278 L 39.3172,53.0062
 L 39.4477,52.9959 L 40.5,52.995 L 40.6307,53.0007 L 40.7605,53.0178 L 40.8882,53.0461 L 41.013,53.0855
 L 41.1339,53.1356 L 41.25,53.196 L 41.3604,53.2663 L 41.4642,53.3459 L 41.5607,53.4344 L 41.6491,53.5308
 L 41.7287,53.6347 L 41.799,53.745 L 41.8595,53.8611 L 41.9095,53.982 L 41.9489,54.1068 L 41.9772,54.2345
 L 41.9943,54.3643 L 42,54.495 L 41.9943,54.6357 L 41.9772,54.7655 L 41.9489,54.8932 L 41.9095,55.018
 L 41.8595,55.1389 L 41.799,55.255 L 41.7287,55.3653 L 41.6491,55.4692 L 41.5607,55.5656 L 41.4642,55.6541
 L 41.3604,55.7337 L 41.25,55.804 L 41.1339,55.8644 L 41.013,55.9145 L 40.8882,55.9539 L 40.7605,55.9822
 L 40.6307,55.9993 L 40.5,56.005 z
" stroke="black" fill="lightgray" stroke-width="0.5"/></svg>
