<?xml version="1.0" standalone="no"?>
<!DOCTYPE svg PUBLIC "-//W3C//DTD SVG 1.1//EN" "http://www.w3.org/Graphics/SVG/1.1/DTD/svg11.dtd">
<svg width="65mm" height="56mm" viewBox="0 0 65 56" xmlns="http://www.w3.org/2000/svg" version="1.1">
<title>OpenSCAD Model</title>
<path d="
M 64.0628,55.998 L 64.1253,55.9921 L 64.1874,55.9823 L 64.2487,55.9686 L 64.309,55.951 L 64.3681,55.9298
 L 64.4258,55.9048 L 64.4818,55.8763 L 64.5358,55.8443 L 64.5878,55.809 L 64.6374,55.7705 L 64.6845,55.729
 L 64.729,55.6845 L 64.7705,55.6374 L 64.809,55.5878 L 64.8443,55.5358 L 64.8763,55.4818 L 64.9048,55.4258
 L 64.9298,55.3681 L 64.951,55.309 L 64.9686,55.2487 L 64.9823,55.1874 L 64.9921,55.1253 L 64.998,55.0628
 L 65,55 L 65,1 L 64.998,0.93721 L 64.9921,0.87468 L 64.9823,0.812622 L 64.9686,0.751312
 L 64.951,0.690994 L 64.9298,0.631882 L 64.9048,0.574234 L 64.8763,0.51825 L 64.8443,0.464188 L 64.809,0.412216
 L 64.7705,0.362579 L 64.729,0.31546 L 64.6845,0.271042 L 64.6374,0.229492 L 64.5878,0.190994 L 64.5358,0.155685
 L 64.4818,0.123703 L 64.4258,0.0951843 L 64.3681,0.0702362 L 64.309,0.0489502 L 64.2487,0.0314178 L 64.1874,0.0177155
 L 64.1253,0.00788879 L 64.0628,0.00198364 L 64,-0 L 1,-0 L 0.93721,0.00198364 L 0.87468,0.00788879
 L 0.812622,0.0177155 L 0.751312,0.0314178 L 0.690994,0.0489502 L 0.631882,0.0702362 L 0.574234,0.0951843 L 0.51825,0.123703
 L 0.464188,0.155685 L 0.412216,0.190994 L 0.362579,0.229492 L 0.31546,0.271042 L 0.271042,0.31546 L 0.229492,0.362579
 L 0.190994,0.412216 L 0.155685,0.464188 L 0.123703,0.51825 L 0.0951843,0.574234 L 0.0702362,0.631882 L 0.0489502,0.690994
 L 0.0314178,0.751312 L 0.0177155,0.812622 L 0.00788879,0.87468 L 0.00198364,0.93721 L 0,1 L 0,55
 L 0.00198364,55.0628 L 0.00788879,55.1253 L 0.0177155,55.1874 L 0.0314178,55.2487 L 0.0489502,55.309 L 0.0702362,55.3681
 L 0.0951843,55.4258 L 0.123703,55.4818 L 0.155685,55.5358 L 0.190994,55.5878 L 0.229492,55.6374 L 0.271042,55.6845
 L 0.31546,55.729 L 0.362579,55.7705 L 0.412216,55.809 L 0.464188,55.8443 L 0.51825,55.8763 L 0.574234,55.9048
 L 0.631882,55.9298 L 0.690994,55.951 L 0.751312,55.9686 L 0.812622,55.9823 L 0.87468,55.9921 L 0.93721,55.998
 L 1,56 L 6.50069,56 L 6.5,50 L 6.50137,49.9477 L 6.5152,49.8264 L 6.5437,49.7076
 L 6.58646,49.5933 L 6.64284,49.485 L 6.71199,49.3844 L 6.79291,49.2929 L 6.88435,49.212 L 6.98497,49.1428
 L 7.09328,49.0865 L 7.20764,49.0437 L 7.32635,49.0152 L 7.44768,49.0014 L 57.5,49 L 57.6045,49.0055
 L 57.7249,49.0256 L 57.842,49.0603 L 57.954,49.109 L 58.0592,49.171 L 58.1561,49.2453 L 58.2431,49.3309
 L 58.3191,49.4264 L 58.3829,49.5305 L 58.4336,49.6416 L 58.4703,49.7581 L 58.4925,49.8781 L 58.5,50
 L 58.5,56 L 64,56 z
M 3.57065,4.84816 L 3.45288,4.84918 L 3.33546,4.83995 L 3.21931,4.82051 L 3.10529,4.79102 L 2.99428,4.75171
 L 2.8871,4.70287 L 2.78461,4.64487 L 2.68755,4.57817 L 2.59666,4.50325 L 2.51266,4.4207 L 2.43617,4.33115
 L 2.36778,4.23528 L 2.30801,4.13379 L 2.25731,4.0275 L 2.21606,3.91718 L 2.18459,3.8037 L 2.16313,3.6879
 L 2.15184,3.57066 L 2.15082,3.4529 L 2.16005,3.33548 L 2.17949,3.21933 L 2.20898,3.1053 L 2.24829,2.99429
 L 2.29713,2.88712 L 2.35513,2.78462 L 2.42183,2.68756 L 2.49675,2.59668 L 2.5793,2.51268 L 2.66885,2.43619
 L 2.76472,2.3678 L 2.86621,2.30803 L 2.9725,2.25732 L 3.08282,2.21608 L 3.1963,2.1846 L 3.3121,2.16315
 L 3.42934,2.15186 L 3.5471,2.15083 L 3.66452,2.16006 L 3.78067,2.1795 L 3.8947,2.209 L 4.00571,2.24831
 L 4.11288,2.29715 L 4.21538,2.35515 L 4.31244,2.42184 L 4.40332,2.49677 L 4.48732,2.57932 L 4.56381,2.66887
 L 4.6322,2.76474 L 4.69197,2.86623 L 4.74268,2.97252 L 4.78392,3.08284 L 4.8154,3.19632 L 4.83685,3.31212
 L 4.84814,3.42935 L 4.84917,3.54712 L 4.83994,3.66454 L 4.8205,3.78069 L 4.791,3.89471 L 4.75169,4.00572
 L 4.70285,4.1129 L 4.64485,4.21539 L 4.57816,4.31245 L 4.50323,4.40334 L 4.42068,4.48734 L 4.33113,4.56383
 L 4.23526,4.63222 L 4.13377,4.69199 L 4.02748,4.74269 L 3.91716,4.78394 L 3.80368,4.81541 L 3.68788,4.83687
 z
M 61.5706,4.84816 L 61.4529,4.84918 L 61.3355,4.83995 L 61.2193,4.82051 L 61.1053,4.79102 L 60.9943,4.75171
 L 60.8871,4.70287 L 60.7846,4.64487 L 60.6875,4.57817 L 60.5967,4.50325 L 60.5127,4.4207 L 60.4362,4.33115
 L 60.3678,4.23528 L 60.308,4.13379 L 60.2573,4.0275 L 60.2161,3.91718 L 60.1846,3.8037 L 60.1631,3.6879
 L 60.1518,3.57066 L 60.1508,3.4529 L 60.16,3.33548 L 60.1795,3.21933 L 60.209,3.1053 L 60.2483,2.99429
 L 60.2971,2.88712 L 60.3551,2.78462 L 60.4218,2.68756 L 60.4967,2.59668 L 60.5793,2.51268 L 60.6689,2.43619
 L 60.7647,2.3678 L 60.8662,2.30803 L 60.9725,2.25732 L 61.0828,2.21608 L 61.1963,2.1846 L 61.3121,2.16315
 L 61.4293,2.15186 L 61.5471,2.15083 L 61.6645,2.16006 L 61.7807,2.1795 L 61.8947,2.209 L 62.0057,2.24831
 L 62.1129,2.29715 L 62.2154,2.35515 L 62.3124,2.42184 L 62.4033,2.49677 L 62.4873,2.57932 L 62.5638,2.66887
 L 62.6322,2.76474 L 62.692,2.86623 L 62.7427,2.97252 L 62.7839,3.08284 L 62.8154,3.19632 L 62.8369,3.31212
 L 62.8481,3.42935 L 62.8492,3.54712 L 62.8399,3.66454 L 62.8205,3.78069 L 62.791,3.89471 L 62.7517,4.00572
 L 62.7029,4.1129 L 62.6449,4.21539 L 62.5782,4.31245 L 62.5032,4.40334 L 62.4207,4.48734 L 62.3311,4.56383
 L 62.2353,4.63222 L 62.1338,4.69199 L 62.0275,4.74269 L 61.9172,4.78394 L 61.8037,4.81541 L 61.6879,4.83687
 z
M 26.8477,34.5986 L 26.7264,34.5848 L 26.6077,34.5563 L 26.4933,34.5135 L 26.385,34.4572 L 26.2844,34.388
 L 26.1929,34.3071 L 26.112,34.2156 L 26.0428,34.115 L 25.9865,34.0067 L 25.9437,33.8923 L 25.9152,33.7736
 L 25.9014,33.6523 L 25.9,22.4 L 25.9014,22.3477 L 25.9152,22.2264 L 25.9437,22.1077 L 25.9865,21.9933
 L 26.0428,21.885 L 26.112,21.7844 L 26.1929,21.6929 L 26.2844,21.612 L 26.385,21.5428 L 26.4933,21.4865
 L 26.6077,21.4437 L 26.7264,21.4152 L 26.8477,21.4014 L 28.5012,21.4012 L 28.5,16 L 28.5014,15.9477
 L 28.5152,15.8264 L 28.5437,15.7076 L 28.5865,15.5933 L 28.6428,15.485 L 28.712,15.3844 L 28.7929,15.2929
 L 28.8844,15.212 L 28.985,15.1428 L 29.0933,15.0865 L 29.2076,15.0437 L 29.3264,15.0152 L 29.4477,15.0014
 L 35.5,15 L 35.6045,15.0055 L 35.7249,15.0256 L 35.842,15.0603 L 35.954,15.109 L 36.0592,15.171
 L 36.1561,15.2453 L 36.2431,15.3309 L 36.3191,15.4264 L 36.3829,15.5305 L 36.4336,15.6416 L 36.4703,15.7581
 L 36.4925,15.8781 L 36.5,16 L 36.5,21.4002 L 38.1,21.4 L 38.2045,21.4055 L 38.3249,21.4256
 L 38.442,21.4603 L 38.554,21.509 L 38.6592,21.571 L 38.756,21.6453 L 38.8431,21.7309 L 38.9191,21.8264
 L 38.9829,21.9305 L 39.0336,22.0416 L 39.0703,22.1581 L 39.0925,22.2782 L 39.1,22.4 L 39.1,33.6
 L 39.0986,33.6523 L 39.0848,33.7736 L 39.0563,33.8923 L 39.0135,34.0067 L 38.9572,34.115 L 38.888,34.2156
 L 38.8071,34.3071 L 38.7156,34.388 L 38.615,34.4572 L 38.5067,34.5135 L 38.3923,34.5563 L 38.2736,34.5848
 L 38.1523,34.5986 L 26.9,34.6 z
M 42.8361,16.6954 L 42.7194,16.6748 L 42.6066,16.6381 L 42.5,16.5861 L 42.4017,16.5198 L 42.3136,16.4405
 L 42.2373,16.3496 L 42.1745,16.2491 L 42.1263,16.1407 L 42.0936,16.0267 L 42.0771,15.9093 L 42.0771,15.7907
 L 42.0936,15.6733 L 42.1263,15.5593 L 42.1745,15.451 L 42.2373,15.3504 L 42.3136,15.2596 L 42.4017,15.1802
 L 42.5,15.1139 L 42.6066,15.0619 L 42.7194,15.0253 L 42.8361,15.0047 L 42.9547,15.0005 L 43.0726,15.0129
 L 43.1877,15.0416 L 43.2976,15.086 L 43.4003,15.1453 L 43.4938,15.2184 L 43.5761,15.3036 L 43.6458,15.3996
 L 43.7015,15.5043 L 43.7421,15.6157 L 43.7667,15.7317 L 43.775,15.85 L 43.7667,15.9683 L 43.7421,16.0843
 L 43.7015,16.1957 L 43.6458,16.3004 L 43.5761,16.3964 L 43.4938,16.4817 L 43.4003,16.5547 L 43.2976,16.614
 L 43.1877,16.6584 L 43.0726,16.6871 L 42.9547,16.6995 z
M 21.9862,16.6954 L 21.8694,16.6748 L 21.7566,16.6381 L 21.65,16.5861 L 21.5517,16.5198 L 21.4636,16.4405
 L 21.3873,16.3496 L 21.3245,16.2491 L 21.2763,16.1407 L 21.2436,16.0267 L 21.2271,15.9093 L 21.2271,15.7907
 L 21.2436,15.6733 L 21.2763,15.5593 L 21.3245,15.451 L 21.3873,15.3504 L 21.4636,15.2596 L 21.5517,15.1802
 L 21.65,15.1139 L 21.7566,15.0619 L 21.8694,15.0253 L 21.9862,15.0047 L 22.1047,15.0005 L 22.2226,15.0129
 L 22.3377,15.0416 L 22.4476,15.086 L 22.5503,15.1453 L 22.6438,15.2184 L 22.7262,15.3036 L 22.7959,15.3996
 L 22.8515,15.5043 L 22.8921,15.6157 L 22.9167,15.7317 L 22.925,15.85 L 22.9167,15.9683 L 22.8921,16.0843
 L 22.8515,16.1957 L 22.7959,16.3004 L 22.7262,16.3964 L 22.6438,16.4817 L 22.5503,16.5547 L 22.4476,16.614
 L 22.3377,16.6584 L 22.2226,16.6871 L 22.1047,16.6995 z
M 39.4477,19.5986 L 39.3264,19.5848 L 39.2076,19.5563 L 39.0933,19.5135 L 38.985,19.4572 L 38.8844,19.388
 L 38.7929,19.3071 L 38.712,19.2157 L 38.6428,19.115 L 38.5865,19.0067 L 38.5437,18.8924 L 38.5152,18.7737
 L 38.5014,18.6523 L 38.5,17.6 L 38.5014,17.5477 L 38.5152,17.4264 L 38.5437,17.3076 L 38.5865,17.1933
 L 38.6428,17.085 L 38.712,16.9844 L 38.7929,16.8929 L 38.8844,16.812 L 38.985,16.7428 L 39.0933,16.6865
 L 39.2076,16.6437 L 39.3264,16.6152 L 39.4477,16.6014 L 40.5,16.6 L 40.6045,16.6055 L 40.7249,16.6256
 L 40.842,16.6603 L 40.954,16.709 L 41.0592,16.771 L 41.1561,16.8453 L 41.2431,16.9309 L 41.3191,17.0264
 L 41.3829,17.1305 L 41.4336,17.2416 L 41.4703,17.3581 L 41.4925,17.4781 L 41.5,17.6 L 41.5,18.6
 L 41.4986,18.6523 L 41.4848,18.7737 L 41.4563,18.8924 L 41.4135,19.0067 L 41.3572,19.115 L 41.288,19.2157
 L 41.2071,19.3071 L 41.1156,19.388 L 41.015,19.4572 L 40.9067,19.5135 L 40.7924,19.5563 L 40.6736,19.5848
 L 40.5523,19.5986 L 39.5,19.6 z
M 42.8361,29.3954 L 42.7194,29.3748 L 42.6066,29.3381 L 42.5,29.2861 L 42.4017,29.2198 L 42.3136,29.1405
 L 42.2373,29.0496 L 42.1745,28.9491 L 42.1263,28.8407 L 42.0936,28.7267 L 42.0771,28.6093 L 42.0771,28.4907
 L 42.0936,28.3733 L 42.1263,28.2593 L 42.1745,28.151 L 42.2373,28.0504 L 42.3136,27.9595 L 42.4017,27.8802
 L 42.5,27.8139 L 42.6066,27.7619 L 42.7194,27.7253 L 42.8361,27.7047 L 42.9547,27.7005 L 43.0726,27.7129
 L 43.1877,27.7416 L 43.2976,27.786 L 43.4003,27.8453 L 43.4938,27.9183 L 43.5761,28.0036 L 43.6458,28.0996
 L 43.7015,28.2043 L 43.7421,28.3157 L 43.7667,28.4317 L 43.775,28.55 L 43.7667,28.6683 L 43.7421,28.7843
 L 43.7015,28.8957 L 43.6458,29.0004 L 43.5761,29.0964 L 43.4938,29.1817 L 43.4003,29.2547 L 43.2976,29.314
 L 43.1877,29.3584 L 43.0726,29.3871 L 42.9547,29.3995 z
M 21.9862,29.3954 L 21.8694,29.3748 L 21.7566,29.3381 L 21.65,29.2861 L 21.5517,29.2198 L 21.4636,29.1405
 L 21.3873,29.0496 L 21.3245,28.9491 L 21.2763,28.8407 L 21.2436,28.7267 L 21.2271,28.6093 L 21.2271,28.4907
 L 21.2436,28.3733 L 21.2763,28.2593 L 21.3245,28.151 L 21.3873,28.0504 L 21.4636,27.9595 L 21.5517,27.8802
 L 21.65,27.8139 L 21.7566,27.7619 L 21.8694,27.7253 L 21.9862,27.7047 L 22.1047,27.7005 L 22.2226,27.7129
 L 22.3377,27.7416 L 22.4476,27.786 L 22.5503,27.8453 L 22.6438,27.9183 L 22.7262,28.0036 L 22.7959,28.0996
 L 22.8515,28.2043 L 22.8921,28.3157 L 22.9167,28.4317 L 22.925,28.55 L 22.9167,28.6683 L 22.8921,28.7843
 L 22.8515,28.8957 L 22.7959,29.0004 L 22.7262,29.0964 L 22.6438,29.1817 L 22.5503,29.2547 L 22.4476,29.314
 L 22.3377,29.3584 L 22.2226,29.3871 L 22.1047,29.3995 z
M 3.57065,53.8482 L 3.45288,53.8492 L 3.33546,53.84 L 3.21931,53.8205 L 3.10529,53.791 L 2.99428,53.7517
 L 2.8871,53.7029 L 2.78461,53.6449 L 2.68755,53.5782 L 2.59666,53.5033 L 2.51266,53.4207 L 2.43617,53.3311
 L 2.36778,53.2353 L 2.30801,53.1338 L 2.25731,53.0275 L 2.21606,52.9172 L 2.18459,52.8037 L 2.16313,52.6879
 L 2.15184,52.5707 L 2.15082,52.4529 L 2.16005,52.3355 L 2.17949,52.2193 L 2.20898,52.1053 L 2.24829,51.9943
 L 2.29713,51.8871 L 2.35513,51.7846 L 2.42183,51.6876 L 2.49675,51.5967 L 2.5793,51.5127 L 2.66885,51.4362
 L 2.76472,51.3678 L 2.86621,51.308 L 2.9725,51.2573 L 3.08282,51.2161 L 3.1963,51.1846 L 3.3121,51.1631
 L 3.42934,51.1519 L 3.5471,51.1508 L 3.66452,51.1601 L 3.78067,51.1795 L 3.8947,51.209 L 4.00571,51.2483
 L 4.11288,51.2971 L 4.21538,51.3551 L 4.31244,51.4218 L 4.40332,51.4968 L 4.48732,51.5793 L 4.56381,51.6689
 L 4.6322,51.7647 L 4.69197,51.8662 L 4.74268,51.9725 L 4.78392,52.0828 L 4.8154,52.1963 L 4.83685,52.3121
 L 4.84814,52.4294 L 4.84917,52.5471 L 4.83994,52.6645 L 4.8205,52.7807 L 4.791,52.8947 L 4.75169,53.0057
 L 4.70285,53.1129 L 4.64485,53.2154 L 4.57816,53.3125 L 4.50323,53.4033 L 4.42068,53.4873 L 4.33113,53.5638
 L 4.23526,53.6322 L 4.13377,53.692 L 4.02748,53.7427 L 3.91716,53.7839 L 3.80368,53.8154 L 3.68788,53.8369
 z
M 61.5706,53.8482 L 61.4529,53.8492 L 61.3355,53.84 L 61.2193,53.8205 L 61.1053,53.791 L 60.9943,53.7517
 L 60.8871,53.7029 L 60.7846,53.6449 L 60.6875,53.5782 L 60.5967,53.5033 L 60.5127,53.4207 L 60.4362,53.3311
 L 60.3678,53.2353 L 60.308,53.1338 L 60.2573,53.0275 L 60.2161,52.9172 L 60.1846,52.8037 L 60.1631,52.6879
 L 60.1518,52.5707 L 60.1508,52.4529 L 60.16,52.3355 L 60.1795,52.2193 L 60.209,52.1053 L 60.2483,51.9943
 L 60.2971,51.8871 L 60.3551,51.7846 L 60.4218,51.6876 L 60.4967,51.5967 L 60.5793,51.5127 L 60.6689,51.4362
 L 60.7647,51.3678 L 60.8662,51.308 L 60.9725,51.2573 L 61.0828,51.2161 L 61.1963,51.1846 L 61.3121,51.1631
 L 61.4293,51.1519 L 61.5471,51.1508 L 61.6645,51.1601 L 61.7807,51.1795 L 61.8947,51.209 L 62.0057,51.2483
 L 62.1129,51.2971 L 62.2154,51.3551 L 62.3124,51.4218 L 62.4033,51.4968 L 62.4873,51.5793 L 62.5638,51.6689
 L 62.6322,51.7647 L 62.692,51.8662 L 62.7427,51.9725 L 62.7839,52.0828 L 62.8154,52.1963 L 62.8369,52.3121
 L 62.8481,52.4294 L 62.8492,52.5471 L 62.8399,52.6645 L 62.8205,52.7807 L 62.791,52.8947 L 62.7517,53.0057
 L 62.7029,53.1129 L 62.6449,53.2154 L 62.5782,53.3125 L 62.5032,53.4033 L 62.4207,53.4873 L 62.3311,53.5638
 L 62.2353,53.6322 L 62.1338,53.692 L 62.0275,53.7427 L 61.9172,53.7839 L 61.8037,53.8154 L 61.6879,53.8369
 z
" stroke="black" fill="lightgray" stroke-width="0.5"/></svg>
