<?xml version="1.0" standalone="no"?>
<!DOCTYPE svg PUBLIC "-//W3C//DTD SVG 1.1//EN" "http://www.w3.org/Graphics/SVG/1.1/DTD/svg11.dtd">
<svg width="65mm" height="56mm" viewBox="0 0 65 56" xmlns="http://www.w3.org/2000/svg" version="1.1">
<title>OpenSCAD Model</title>
<path d="
M 64.0628,55.998 L 64.1253,55.9921 L 64.1874,55.9823 L 64.2487,55.9686 L 64.309,55.951 L 64.3681,55.9298
 L 64.4258,55.9048 L 64.4818,55.8763 L 64.5358,55.8443 L 64.5878,55.809 L 64.6374,55.7705 L 64.6845,55.729
 L 64.729,55.6845 L 64.7705,55.6374 L 64.809,55.5878 L 64.8443,55.5358 L 64.8763,55.4818 L 64.9048,55.4258
 L 64.9298,55.3681 L 64.951,55.309 L 64.9686,55.2487 L 64.9823,55.1874 L 64.9921,55.1253 L 64.998,55.0628
 L 65,55 L 65,1 L 64.998,0.93721 L 64.9921,0.87468 L 64.9823,0.812622 L 64.9686,0.751312
 L 64.951,0.690994 L 64.9298,0.631882 L 64.9048,0.574234 L 64.8763,0.51825 L 64.8443,0.464188 L 64.809,0.412216
 L 64.7705,0.362579 L 64.729,0.31546 L 64.6845,0.271042 L 64.6374,0.229492 L 64.5878,0.190994 L 64.5358,0.155685
 L 64.4818,0.123703 L 64.4258,0.0951843 L 64.3681,0.0702362 L 64.309,0.0489502 L 64.2487,0.0314178 L 64.1874,0.0177155
 L 64.1253,0.00788879 L 64.0628,0.00198364 L 64,-0 L 1,-0 L 0.93721,0.00198364 L 0.87468,0.00788879
 L 0.812622,0.0177155 L 0.751312,0.0314178 L 0.690994,0.0489502 L 0.631882,0.0702362 L 0.574234,0.0951843 L 0.51825,0.123703
 L 0.464188,0.155685 L 0.412216,0.190994 L 0.362579,0.229492 L 0.31546,0.271042 L 0.271042,0.31546 L 0.229492,0.362579
 L 0.190994,0.412216 L 0.155685,0.464188 L 0.123703,0.51825 L 0.0951843,0.574234 L 0.0702362,0.631882 L 0.0489502,0.690994
 L 0.0314178,0.751312 L 0.0177155,0.812622 L 0.00788879,0.87468 L 0.00198364,0.93721 L 0,1 L 0,55
 L 0.00198364,55.0628 L 0.00788879,55.1253 L 0.0177155,55.1874 L 0.0314178,55.2487 L 0.0489502,55.309 L 0.0702362,55.3681
 L 0.0951843,55.4258 L 0.123703,55.4818 L 0.155685,55.5358 L 0.190994,55.5878 L 0.229492,55.6374 L 0.271042,55.6845
 L 0.31546,55.729 L 0.362579,55.7705 L 0.412216,55.809 L 0.464188,55.8443 L 0.51825,55.8763 L 0.574234,55.9048
 L 0.631882,55.9298 L 0.690994,55.951 L 0.751312,55.9686 L 0.812622,55.9823 L 0.87468,55.9921 L 0.93721,55.998
 L 1,56 L 6.50069,56 L 6.5,50 L 6.50137,49.9477 L 6.5152,49.8264 L 6.5437,49.7076
 L 6.58646,49.5933 L 6.64284,49.485 L 6.71199,49.3844 L 6.79291,49.2929 L 6.88435,49.212 L 6.98497,49.1428
 L 7.09328,49.0865 L 7.20764,49.0437 L 7.32635,49.0152 L 7.44768,49.0014 L 57.5,49 L 57.6045,49.0055
 L 57.7249,49.0256 L 57.842,49.0603 L 57.954,49.109 L 58.0592,49.171 L 58.1561,49.2453 L 58.2431,49.3309
 L 58.3191,49.4264 L 58.3829,49.5305 L 58.4336,49.6416 L 58.4703,49.7581 L 58.4925,49.8781 L 58.5,50
 L 58.5,56 L 64,56 z
M 3.57065,4.84816 L 3.45288,4.84918 L 3.33546,4.83995 L 3.21931,4.82051 L 3.10529,4.79102 L 2.99428,4.75171
 L 2.8871,4.70287 L 2.78461,4.64487 L 2.68755,4.57817 L 2.59666,4.50325 L 2.51266,4.4207 L 2.43617,4.33115
 L 2.36778,4.23528 L 2.30801,4.13379 L 2.25731,4.0275 L 2.21606,3.91718 L 2.18459,3.8037 L 2.16313,3.6879
 L 2.15184,3.57066 L 2.15082,3.4529 L 2.16005,3.33548 L 2.17949,3.21933 L 2.20898,3.1053 L 2.24829,2.99429
 L 2.29713,2.88712 L 2.35513,2.78462 L 2.42183,2.68756 L 2.49675,2.59668 L 2.5793,2.51268 L 2.66885,2.43619
 L 2.76472,2.3678 L 2.86621,2.30803 L 2.9725,2.25732 L 3.08282,2.21608 L 3.1963,2.1846 L 3.3121,2.16315
 L 3.42934,2.15186 L 3.5471,2.15083 L 3.66452,2.16006 L 3.78067,2.1795 L 3.8947,2.209 L 4.00571,2.24831
 L 4.11288,2.29715 L 4.21538,2.35515 L 4.31244,2.42184 L 4.40332,2.49677 L 4.48732,2.57932 L 4.56381,2.66887
 L 4.6322,2.76474 L 4.69197,2.86623 L 4.74268,2.97252 L 4.78392,3.08284 L 4.8154,3.19632 L 4.83685,3.31212
 L 4.84814,3.42935 L 4.84917,3.54712 L 4.83994,3.66454 L 4.8205,3.78069 L 4.791,3.89471 L 4.75169,4.00572
 L 4.70285,4.1129 L 4.64485,4.21539 L 4.57816,4.31245 L 4.50323,4.40334 L 4.42068,4.48734 L 4.33113,4.56383
 L 4.23526,4.63222 L 4.13377,4.69199 L 4.02748,4.74269 L 3.91716,4.78394 L 3.80368,4.81541 L 3.68788,4.83687
 z
M 61.5706,4.84816 L 61.4529,4.84918 L 61.3355,4.83995 L 61.2193,4.82051 L 61.1053,4.79102 L 60.9943,4.75171
 L 60.8871,4.70287 L 60.7846,4.64487 L 60.6875,4.57817 L 60.5967,4.50325 L 60.5127,4.4207 L 60.4362,4.33115
 L 60.3678,4.23528 L 60.308,4.13379 L 60.2573,4.0275 L 60.2161,3.91718 L 60.1846,3.8037 L 60.1631,3.6879
 L 60.1518,3.57066 L 60.1508,3.4529 L 60.16,3.33548 L 60.1795,3.21933 L 60.209,3.1053 L 60.2483,2.99429
 L 60.2971,2.88712 L 60.3551,2.78462 L 60.4218,2.68756 L 60.4967,2.59668 L 60.5793,2.51268 L 60.6689,2.43619
 L 60.7647,2.3678 L 60.8662,2.30803 L 60.9725,2.25732 L 61.0828,2.21608 L 61.1963,2.1846 L 61.3121,2.16315
 L 61.4293,2.15186 L 61.5471,2.15083 L 61.6645,2.16006 L 61.7807,2.1795 L 61.8947,2.209 L 62.0057,2.24831
 L 62.1129,2.29715 L 62.2154,2.35515 L 62.3124,2.42184 L 62.4033,2.49677 L 62.4873,2.57932 L 62.5638,2.66887
 L 62.6322,2.76474 L 62.692,2.86623 L 62.7427,2.97252 L 62.7839,3.08284 L 62.8154,3.19632 L 62.8369,3.31212
 L 62.8481,3.42935 L 62.8492,3.54712 L 62.8399,3.66454 L 62.8205,3.78069 L 62.791,3.89471 L 62.7517,4.00572
 L 62.7029,4.1129 L 62.6449,4.21539 L 62.5782,4.31245 L 62.5032,4.40334 L 62.4207,4.48734 L 62.3311,4.56383
 L 62.2353,4.63222 L 62.1338,4.69199 L 62.0275,4.74269 L 61.9172,4.78394 L 61.8037,4.81541 L 61.6879,4.83687
 z
M 31.4477,38.9986 L 31.3264,38.9848 L 31.2076,38.9563 L 31.0933,38.9135 L 30.985,38.8572 L 30.8844,38.788
 L 30.7929,38.7071 L 30.712,38.6156 L 30.6428,38.515 L 30.5865,38.4067 L 30.5437,38.2924 L 30.5152,38.1736
 L 30.5014,38.0523 L 30.5012,35.2495 L 26.25,35.25 L 26.1977,35.2486 L 26.0764,35.2348 L 25.9576,35.2063
 L 25.8433,35.1635 L 25.735,35.1072 L 25.6344,35.038 L 25.5429,34.9571 L 25.462,34.8656 L 25.3928,34.765
 L 25.3365,34.6567 L 25.2937,34.5424 L 25.2652,34.4236 L 25.2514,34.3023 L 25.25,21.75 L 25.2512,21.7058
 L 25.25,14.9 L 25.2514,14.8477 L 25.2652,14.7264 L 25.2937,14.6077 L 25.3365,14.4933 L 25.3928,14.385
 L 25.462,14.2844 L 25.5429,14.1929 L 25.6344,14.112 L 25.735,14.0428 L 25.8433,13.9865 L 25.9576,13.9437
 L 26.0764,13.9152 L 26.1977,13.9014 L 38.75,13.9 L 38.8545,13.9055 L 38.9749,13.9256 L 39.092,13.9603
 L 39.204,14.009 L 39.3092,14.071 L 39.4061,14.1453 L 39.4931,14.2309 L 39.5691,14.3264 L 39.6329,14.4305
 L 39.6836,14.5416 L 39.7203,14.6581 L 39.7425,14.7782 L 39.75,14.9 L 39.75,34.25 L 39.7486,34.3023
 L 39.7348,34.4236 L 39.7063,34.5424 L 39.6635,34.6567 L 39.6072,34.765 L 39.538,34.8656 L 39.4571,34.9571
 L 39.3656,35.038 L 39.265,35.1072 L 39.1567,35.1635 L 39.0424,35.2063 L 38.9236,35.2348 L 38.8023,35.2486
 L 34.5,35.2491 L 34.5,38 L 34.4986,38.0523 L 34.4848,38.1736 L 34.4563,38.2924 L 34.4135,38.4067
 L 34.3572,38.515 L 34.288,38.6156 L 34.2071,38.7071 L 34.1156,38.788 L 34.015,38.8572 L 33.9067,38.9135
 L 33.7924,38.9563 L 33.6736,38.9848 L 33.5523,38.9986 L 31.5,39 z
M 42.7227,18.3736 L 42.6013,18.3598 L 42.4826,18.3313 L 42.3683,18.2885 L 42.26,18.2322 L 42.1593,18.163
 L 42.0679,18.0821 L 41.987,17.9906 L 41.9178,17.89 L 41.8615,17.7817 L 41.8187,17.6674 L 41.7902,17.5486
 L 41.7764,17.4273 L 41.7756,14.8901 L 41.7873,14.7686 L 41.8137,14.6494 L 41.8545,14.5343 L 41.909,14.425
 L 41.9764,14.3232 L 42.0557,14.2304 L 42.1457,14.1479 L 42.2451,14.077 L 42.3524,14.0187 L 42.466,13.974
 L 42.5842,13.9434 L 42.7052,13.9275 L 43.075,13.925 L 43.1795,13.9305 L 43.2999,13.9507 L 43.417,13.9853
 L 43.529,14.034 L 43.6342,14.096 L 43.731,14.1703 L 43.8181,14.2559 L 43.8941,14.3515 L 43.9579,14.4556
 L 44.0086,14.5667 L 44.0453,14.6831 L 44.0675,14.8032 L 44.075,14.925 L 44.0744,17.4099 L 44.0627,17.5314
 L 44.0362,17.6506 L 43.9955,17.7657 L 43.941,17.875 L 43.8736,17.9768 L 43.7943,18.0697 L 43.7043,18.1521
 L 43.6049,18.223 L 43.4976,18.2813 L 43.384,18.326 L 43.2658,18.3566 L 43.1447,18.3726 L 42.775,18.375
 z
M 21.8553,18.3726 L 21.7342,18.3566 L 21.616,18.326 L 21.5024,18.2813 L 21.3951,18.223 L 21.2957,18.1521
 L 21.2057,18.0697 L 21.1264,17.9768 L 21.059,17.875 L 21.0045,17.7657 L 20.9638,17.6506 L 20.9373,17.5314
 L 20.9256,17.4099 L 20.925,14.925 L 20.9325,14.8032 L 20.9547,14.6831 L 20.9914,14.5667 L 21.0421,14.4556
 L 21.1059,14.3515 L 21.1819,14.2559 L 21.269,14.1703 L 21.3658,14.096 L 21.471,14.034 L 21.583,13.9853
 L 21.7001,13.9507 L 21.8205,13.9305 L 21.925,13.925 L 22.2948,13.9275 L 22.4158,13.9434 L 22.534,13.974
 L 22.6476,14.0187 L 22.7549,14.077 L 22.8543,14.1479 L 22.9443,14.2304 L 23.0236,14.3232 L 23.091,14.425
 L 23.1455,14.5343 L 23.1863,14.6494 L 23.2127,14.7686 L 23.2244,14.8901 L 23.2236,17.4273 L 23.2098,17.5486
 L 23.1813,17.6674 L 23.1385,17.7817 L 23.0822,17.89 L 23.013,17.9906 L 22.9321,18.0821 L 22.8407,18.163
 L 22.74,18.2322 L 22.6317,18.2885 L 22.5174,18.3313 L 22.3987,18.3598 L 22.2773,18.3736 L 22.225,18.375
 z
M 42.7052,31.0725 L 42.5842,31.0566 L 42.466,31.026 L 42.3524,30.9813 L 42.2451,30.923 L 42.1457,30.8521
 L 42.0557,30.7696 L 41.9764,30.6768 L 41.909,30.575 L 41.8545,30.4657 L 41.8137,30.3506 L 41.7873,30.2314
 L 41.7756,30.1099 L 41.7764,27.5727 L 41.7902,27.4514 L 41.8187,27.3326 L 41.8615,27.2183 L 41.9178,27.11
 L 41.987,27.0094 L 42.0679,26.9179 L 42.1593,26.837 L 42.26,26.7678 L 42.3683,26.7115 L 42.4826,26.6687
 L 42.6013,26.6402 L 42.7227,26.6264 L 42.775,26.625 L 43.1447,26.6274 L 43.2658,26.6434 L 43.384,26.674
 L 43.4976,26.7187 L 43.6049,26.777 L 43.7043,26.8479 L 43.7943,26.9303 L 43.8736,27.0232 L 43.941,27.125
 L 43.9955,27.2343 L 44.0362,27.3494 L 44.0627,27.4686 L 44.0744,27.5901 L 44.075,30.075 L 44.0675,30.1968
 L 44.0453,30.3169 L 44.0086,30.4333 L 43.9579,30.5444 L 43.8941,30.6485 L 43.8181,30.7441 L 43.731,30.8297
 L 43.6342,30.904 L 43.529,30.966 L 43.417,31.0147 L 43.2999,31.0493 L 43.1795,31.0695 L 43.075,31.075
 z
M 21.8205,31.0695 L 21.7001,31.0493 L 21.583,31.0147 L 21.471,30.966 L 21.3658,30.904 L 21.269,30.8297
 L 21.1819,30.7441 L 21.1059,30.6485 L 21.0421,30.5444 L 20.9914,30.4333 L 20.9547,30.3169 L 20.9325,30.1968
 L 20.925,30.075 L 20.9256,27.5901 L 20.9373,27.4686 L 20.9638,27.3494 L 21.0045,27.2343 L 21.059,27.125
 L 21.1264,27.0232 L 21.2057,26.9303 L 21.2957,26.8479 L 21.3951,26.777 L 21.5024,26.7187 L 21.616,26.674
 L 21.7342,26.6434 L 21.8553,26.6274 L 22.225,26.625 L 22.2773,26.6264 L 22.3987,26.6402 L 22.5174,26.6687
 L 22.6317,26.7115 L 22.74,26.7678 L 22.8407,26.837 L 22.9321,26.9179 L 23.013,27.0094 L 23.0822,27.11
 L 23.1385,27.2183 L 23.1813,27.3326 L 23.2098,27.4514 L 23.2236,27.5727 L 23.2244,30.1099 L 23.2127,30.2314
 L 23.1863,30.3506 L 23.1455,30.4657 L 23.091,30.575 L 23.0236,30.6768 L 22.9443,30.7696 L 22.8543,30.8521
 L 22.7549,30.923 L 22.6476,30.9813 L 22.534,31.026 L 22.4158,31.0566 L 22.2948,31.0725 L 21.925,31.075
 z
M 3.57065,53.8482 L 3.45288,53.8492 L 3.33546,53.84 L 3.21931,53.8205 L 3.10529,53.791 L 2.99428,53.7517
 L 2.8871,53.7029 L 2.78461,53.6449 L 2.68755,53.5782 L 2.59666,53.5033 L 2.51266,53.4207 L 2.43617,53.3311
 L 2.36778,53.2353 L 2.30801,53.1338 L 2.25731,53.0275 L 2.21606,52.9172 L 2.18459,52.8037 L 2.16313,52.6879
 L 2.15184,52.5707 L 2.15082,52.4529 L 2.16005,52.3355 L 2.17949,52.2193 L 2.20898,52.1053 L 2.24829,51.9943
 L 2.29713,51.8871 L 2.35513,51.7846 L 2.42183,51.6876 L 2.49675,51.5967 L 2.5793,51.5127 L 2.66885,51.4362
 L 2.76472,51.3678 L 2.86621,51.308 L 2.9725,51.2573 L 3.08282,51.2161 L 3.1963,51.1846 L 3.3121,51.1631
 L 3.42934,51.1519 L 3.5471,51.1508 L 3.66452,51.1601 L 3.78067,51.1795 L 3.8947,51.209 L 4.00571,51.2483
 L 4.11288,51.2971 L 4.21538,51.3551 L 4.31244,51.4218 L 4.40332,51.4968 L 4.48732,51.5793 L 4.56381,51.6689
 L 4.6322,51.7647 L 4.69197,51.8662 L 4.74268,51.9725 L 4.78392,52.0828 L 4.8154,52.1963 L 4.83685,52.3121
 L 4.84814,52.4294 L 4.84917,52.5471 L 4.83994,52.6645 L 4.8205,52.7807 L 4.791,52.8947 L 4.75169,53.0057
 L 4.70285,53.1129 L 4.64485,53.2154 L 4.57816,53.3125 L 4.50323,53.4033 L 4.42068,53.4873 L 4.33113,53.5638
 L 4.23526,53.6322 L 4.13377,53.692 L 4.02748,53.7427 L 3.91716,53.7839 L 3.80368,53.8154 L 3.68788,53.8369
 z
M 61.5706,53.8482 L 61.4529,53.8492 L 61.3355,53.84 L 61.2193,53.8205 L 61.1053,53.791 L 60.9943,53.7517
 L 60.8871,53.7029 L 60.7846,53.6449 L 60.6875,53.5782 L 60.5967,53.5033 L 60.5127,53.4207 L 60.4362,53.3311
 L 60.3678,53.2353 L 60.308,53.1338 L 60.2573,53.0275 L 60.2161,52.9172 L 60.1846,52.8037 L 60.1631,52.6879
 L 60.1518,52.5707 L 60.1508,52.4529 L 60.16,52.3355 L 60.1795,52.2193 L 60.209,52.1053 L 60.2483,51.9943
 L 60.2971,51.8871 L 60.3551,51.7846 L 60.4218,51.6876 L 60.4967,51.5967 L 60.5793,51.5127 L 60.6689,51.4362
 L 60.7647,51.3678 L 60.8662,51.308 L 60.9725,51.2573 L 61.0828,51.2161 L 61.1963,51.1846 L 61.3121,51.1631
 L 61.4293,51.1519 L 61.5471,51.1508 L 61.6645,51.1601 L 61.7807,51.1795 L 61.8947,51.209 L 62.0057,51.2483
 L 62.1129,51.2971 L 62.2154,51.3551 L 62.3124,51.4218 L 62.4033,51.4968 L 62.4873,51.5793 L 62.5638,51.6689
 L 62.6322,51.7647 L 62.692,51.8662 L 62.7427,51.9725 L 62.7839,52.0828 L 62.8154,52.1963 L 62.8369,52.3121
 L 62.8481,52.4294 L 62.8492,52.5471 L 62.8399,52.6645 L 62.8205,52.7807 L 62.791,52.8947 L 62.7517,53.0057
 L 62.7029,53.1129 L 62.6449,53.2154 L 62.5782,53.3125 L 62.5032,53.4033 L 62.4207,53.4873 L 62.3311,53.5638
 L 62.2353,53.6322 L 62.1338,53.692 L 62.0275,53.7427 L 61.9172,53.7839 L 61.8037,53.8154 L 61.6879,53.8369
 z
" stroke="black" fill="lightgray" stroke-width="0.5"/></svg>
