<?xml version="1.0" standalone="no"?>
<!DOCTYPE svg PUBLIC "-//W3C//DTD SVG 1.1//EN" "http://www.w3.org/Graphics/SVG/1.1/DTD/svg11.dtd">
<svg width="65mm" height="56mm" viewBox="0 0 65 56" xmlns="http://www.w3.org/2000/svg" version="1.1">
<title>OpenSCAD Model</title>
<path d="
M 64.0628,55.998 L 64.1253,55.9921 L 64.1874,55.9823 L 64.2487,55.9686 L 64.309,55.951 L 64.3681,55.9298
 L 64.4258,55.9048 L 64.4818,55.8763 L 64.5358,55.8443 L 64.5878,55.809 L 64.6374,55.7705 L 64.6845,55.729
 L 64.729,55.6845 L 64.7705,55.6374 L 64.809,55.5878 L 64.8443,55.5358 L 64.8763,55.4818 L 64.9048,55.4258
 L 64.9298,55.3681 L 64.951,55.309 L 64.9686,55.2487 L 64.9823,55.1874 L 64.9921,55.1253 L 64.998,55.0628
 L 65,55 L 65,1 L 64.998,0.93721 L 64.9921,0.87468 L 64.9823,0.812622 L 64.9686,0.751312
 L 64.951,0.690994 L 64.9298,0.631882 L 64.9048,0.574234 L 64.8763,0.51825 L 64.8443,0.464188 L 64.809,0.412216
 L 64.7705,0.362579 L 64.729,0.31546 L 64.6845,0.271042 L 64.6374,0.229492 L 64.5878,0.190994 L 64.5358,0.155685
 L 64.4818,0.123703 L 64.4258,0.0951843 L 64.3681,0.0702362 L 64.309,0.0489502 L 64.2487,0.0314178 L 64.1874,0.0177155
 L 64.1253,0.00788879 L 64.0628,0.00198364 L 64,-0 L 1,-0 L 0.93721,0.00198364 L 0.87468,0.00788879
 L 0.812622,0.0177155 L 0.751312,0.0314178 L 0.690994,0.0489502 L 0.631882,0.0702362 L 0.574234,0.0951843 L 0.51825,0.123703
 L 0.464188,0.155685 L 0.412216,0.190994 L 0.362579,0.229492 L 0.31546,0.271042 L 0.271042,0.31546 L 0.229492,0.362579
 L 0.190994,0.412216 L 0.155685,0.464188 L 0.123703,0.51825 L 0.0951843,0.574234 L 0.0702362,0.631882 L 0.0489502,0.690994
 L 0.0314178,0.751312 L 0.0177155,0.812622 L 0.00788879,0.87468 L 0.00198364,0.93721 L 0,1 L 0,55
 L 0.00198364,55.0628 L 0.00788879,55.1253 L 0.0177155,55.1874 L 0.0314178,55.2487 L 0.0489502,55.309 L 0.0702362,55.3681
 L 0.0951843,55.4258 L 0.123703,55.4818 L 0.155685,55.5358 L 0.190994,55.5878 L 0.229492,55.6374 L 0.271042,55.6845
 L 0.31546,55.729 L 0.362579,55.7705 L 0.412216,55.809 L 0.464188,55.8443 L 0.51825,55.8763 L 0.574234,55.9048
 L 0.631882,55.9298 L 0.690994,55.951 L 0.751312,55.9686 L 0.812622,55.9823 L 0.87468,55.9921 L 0.93721,55.998
 L 1,56 L 6.50069,56 L 6.5,50.5 L 6.50137,50.4477 L 6.5152,50.3264 L 6.5437,50.2076
 L 6.58646,50.0933 L 6.64284,49.985 L 6.71199,49.8844 L 6.79291,49.7929 L 6.88435,49.712 L 6.98497,49.6428
 L 7.09328,49.5865 L 7.20764,49.5437 L 7.32635,49.5152 L 7.44768,49.5014 L 57.5,49.5 L 57.6045,49.5055
 L 57.7249,49.5256 L 57.842,49.5603 L 57.954,49.609 L 58.0592,49.671 L 58.1561,49.7453 L 58.2431,49.8309
 L 58.3191,49.9264 L 58.3829,50.0305 L 58.4336,50.1416 L 58.4703,50.2581 L 58.4925,50.3781 L 58.5,50.5
 L 58.5,56 L 64,56 z
M 3.57065,4.84816 L 3.45288,4.84918 L 3.33546,4.83995 L 3.21931,4.82051 L 3.10529,4.79102 L 2.99428,4.75171
 L 2.8871,4.70287 L 2.78461,4.64487 L 2.68755,4.57817 L 2.59666,4.50325 L 2.51266,4.4207 L 2.43617,4.33115
 L 2.36778,4.23528 L 2.30801,4.13379 L 2.25731,4.0275 L 2.21606,3.91718 L 2.18459,3.8037 L 2.16313,3.6879
 L 2.15184,3.57066 L 2.15082,3.4529 L 2.16005,3.33548 L 2.17949,3.21933 L 2.20898,3.1053 L 2.24829,2.99429
 L 2.29713,2.88712 L 2.35513,2.78462 L 2.42183,2.68756 L 2.49675,2.59668 L 2.5793,2.51268 L 2.66885,2.43619
 L 2.76472,2.3678 L 2.86621,2.30803 L 2.9725,2.25732 L 3.08282,2.21608 L 3.1963,2.1846 L 3.3121,2.16315
 L 3.42934,2.15186 L 3.5471,2.15083 L 3.66452,2.16006 L 3.78067,2.1795 L 3.8947,2.209 L 4.00571,2.24831
 L 4.11288,2.29715 L 4.21538,2.35515 L 4.31244,2.42184 L 4.40332,2.49677 L 4.48732,2.57932 L 4.56381,2.66887
 L 4.6322,2.76474 L 4.69197,2.86623 L 4.74268,2.97252 L 4.78392,3.08284 L 4.8154,3.19632 L 4.83685,3.31212
 L 4.84814,3.42935 L 4.84917,3.54712 L 4.83994,3.66454 L 4.8205,3.78069 L 4.791,3.89471 L 4.75169,4.00572
 L 4.70285,4.1129 L 4.64485,4.21539 L 4.57816,4.31245 L 4.50323,4.40334 L 4.42068,4.48734 L 4.33113,4.56383
 L 4.23526,4.63222 L 4.13377,4.69199 L 4.02748,4.74269 L 3.91716,4.78394 L 3.80368,4.81541 L 3.68788,4.83687
 z
M 61.5706,4.84816 L 61.4529,4.84918 L 61.3355,4.83995 L 61.2193,4.82051 L 61.1053,4.79102 L 60.9943,4.75171
 L 60.8871,4.70287 L 60.7846,4.64487 L 60.6875,4.57817 L 60.5967,4.50325 L 60.5127,4.4207 L 60.4362,4.33115
 L 60.3678,4.23528 L 60.308,4.13379 L 60.2573,4.0275 L 60.2161,3.91718 L 60.1846,3.8037 L 60.1631,3.6879
 L 60.1518,3.57066 L 60.1508,3.4529 L 60.16,3.33548 L 60.1795,3.21933 L 60.209,3.1053 L 60.2483,2.99429
 L 60.2971,2.88712 L 60.3551,2.78462 L 60.4218,2.68756 L 60.4967,2.59668 L 60.5793,2.51268 L 60.6689,2.43619
 L 60.7647,2.3678 L 60.8662,2.30803 L 60.9725,2.25732 L 61.0828,2.21608 L 61.1963,2.1846 L 61.3121,2.16315
 L 61.4293,2.15186 L 61.5471,2.15083 L 61.6645,2.16006 L 61.7807,2.1795 L 61.8947,2.209 L 62.0057,2.24831
 L 62.1129,2.29715 L 62.2154,2.35515 L 62.3124,2.42184 L 62.4033,2.49677 L 62.4873,2.57932 L 62.5638,2.66887
 L 62.6322,2.76474 L 62.692,2.86623 L 62.7427,2.97252 L 62.7839,3.08284 L 62.8154,3.19632 L 62.8369,3.31212
 L 62.8481,3.42935 L 62.8492,3.54712 L 62.8399,3.66454 L 62.8205,3.78069 L 62.791,3.89471 L 62.7517,4.00572
 L 62.7029,4.1129 L 62.6449,4.21539 L 62.5782,4.31245 L 62.5032,4.40334 L 62.4207,4.48734 L 62.3311,4.56383
 L 62.2353,4.63222 L 62.1338,4.69199 L 62.0275,4.74269 L 61.9172,4.78394 L 61.8037,4.81541 L 61.6879,4.83687
 z
M 45.1837,18.1977 L 45.0687,18.1826 L 44.9564,18.1535 L 44.8485,18.111 L 44.7466,18.0556 L 44.6521,17.9883
 L 44.5666,17.9099 L 44.4913,17.8217 L 44.4273,17.725 L 44.3755,17.6212 L 44.3368,17.5119 L 44.3117,17.3986
 L 44.3006,17.2832 L 44.3036,17.1672 L 44.3052,17.1507 L 44.3243,17.0363 L 44.3573,16.9251 L 44.4035,16.8187
 L 44.4624,16.7188 L 44.533,16.6268 L 44.6143,16.544 L 44.7051,16.4718 L 44.804,16.4112 L 44.9095,16.3631
 L 45.0202,16.3282 L 45.1342,16.3071 L 45.25,16.3 L 45.3658,16.3071 L 45.4798,16.3282 L 45.5904,16.3631
 L 45.696,16.4112 L 45.7949,16.4718 L 45.8857,16.544 L 45.967,16.6268 L 46.0376,16.7188 L 46.0965,16.8187
 L 46.1427,16.9251 L 46.1756,17.0363 L 46.1948,17.1507 L 46.1998,17.2666 L 46.1908,17.3822 L 46.1676,17.4959
 L 46.1308,17.6059 L 46.0809,17.7106 L 46.0186,17.8084 L 45.9448,17.8979 L 45.8606,17.9778 L 45.7674,18.0467
 L 45.6664,18.1039 L 45.5436,18.1535 L 45.415,18.1856 L 45.2997,18.1987 z
M 32.585,18.1856 L 32.4564,18.1535 L 32.3336,18.1039 L 32.2326,18.0467 L 32.1394,17.9778 L 32.0552,17.8979
 L 31.9814,17.8084 L 31.9191,17.7106 L 31.8692,17.6059 L 31.8324,17.4959 L 31.8092,17.3822 L 31.8001,17.2666
 L 31.8052,17.1507 L 31.8243,17.0363 L 31.8573,16.9251 L 31.9035,16.8187 L 31.9624,16.7188 L 32.033,16.6268
 L 32.1143,16.544 L 32.2051,16.4718 L 32.304,16.4112 L 32.4096,16.3631 L 32.5202,16.3282 L 32.6342,16.3071
 L 32.75,16.3 L 32.8658,16.3071 L 32.9798,16.3282 L 33.0905,16.3631 L 33.196,16.4112 L 33.2949,16.4718
 L 33.3857,16.544 L 33.467,16.6268 L 33.5376,16.7188 L 33.5965,16.8187 L 33.6427,16.9251 L 33.6757,17.0363
 L 33.6948,17.1507 L 33.6964,17.1672 L 33.6994,17.2832 L 33.6883,17.3986 L 33.6632,17.5119 L 33.6245,17.6212
 L 33.5727,17.725 L 33.5087,17.8217 L 33.4334,17.9099 L 33.3479,17.9883 L 33.2534,18.0556 L 33.1515,18.111
 L 33.0436,18.1535 L 32.9313,18.1826 L 32.8163,18.1977 L 32.7003,18.1987 z
M 50.4337,21.9477 L 50.3187,21.9326 L 50.2064,21.9035 L 50.0985,21.861 L 49.9966,21.8056 L 49.9021,21.7383
 L 49.8166,21.6599 L 49.7413,21.5717 L 49.6773,21.475 L 49.6255,21.3712 L 49.5868,21.2619 L 49.5617,21.1486
 L 49.5506,21.0332 L 49.5536,20.9172 L 49.5552,20.9007 L 49.5743,20.7863 L 49.6073,20.6751 L 49.6535,20.5687
 L 49.7124,20.4688 L 49.783,20.3768 L 49.8643,20.294 L 49.9551,20.2218 L 50.054,20.1612 L 50.1595,20.1131
 L 50.2702,20.0782 L 50.3842,20.0571 L 50.5,20.05 L 50.6158,20.0571 L 50.7298,20.0782 L 50.8404,20.1131
 L 50.946,20.1612 L 51.0449,20.2218 L 51.1357,20.294 L 51.217,20.3768 L 51.2876,20.4688 L 51.3465,20.5687
 L 51.3927,20.6751 L 51.4256,20.7863 L 51.4448,20.9007 L 51.4498,21.0166 L 51.4408,21.1322 L 51.4176,21.2459
 L 51.3808,21.3559 L 51.3309,21.4606 L 51.2686,21.5584 L 51.1948,21.6479 L 51.1106,21.7278 L 51.0174,21.7967
 L 50.9164,21.8539 L 50.7936,21.9035 L 50.665,21.9356 L 50.5497,21.9487 z
M 14.335,21.9356 L 14.2064,21.9035 L 14.0836,21.8539 L 13.9826,21.7968 L 13.8894,21.7278 L 13.8052,21.6479
 L 13.7314,21.5584 L 13.6691,21.4606 L 13.6192,21.3559 L 13.5824,21.2459 L 13.5592,21.1322 L 13.5502,21.0166
 L 13.5552,20.9007 L 13.5744,20.7863 L 13.6073,20.6751 L 13.6535,20.5687 L 13.7124,20.4688 L 13.783,20.3768
 L 13.8643,20.294 L 13.9551,20.2218 L 14.054,20.1612 L 14.1596,20.1131 L 14.2702,20.0782 L 14.3842,20.0571
 L 14.5,20.05 L 14.6158,20.0571 L 14.7298,20.0782 L 14.8405,20.1131 L 14.946,20.1612 L 15.0449,20.2218
 L 15.1357,20.294 L 15.217,20.3768 L 15.2876,20.4688 L 15.3465,20.5687 L 15.3927,20.6751 L 15.4257,20.7863
 L 15.4448,20.9007 L 15.4464,20.9172 L 15.4494,21.0332 L 15.4383,21.1486 L 15.4132,21.2619 L 15.3745,21.3712
 L 15.3227,21.475 L 15.2587,21.5717 L 15.1834,21.6599 L 15.0979,21.7383 L 15.0034,21.8056 L 14.9015,21.861
 L 14.7936,21.9035 L 14.6813,21.9326 L 14.5663,21.9477 L 14.4503,21.9487 z
M 28,34.25 L 27.9477,34.2486 L 27.8264,34.2348 L 27.7076,34.2063 L 27.5933,34.1635 L 27.485,34.1072
 L 27.3844,34.038 L 27.2929,33.9571 L 27.212,33.8656 L 27.1428,33.765 L 27.0865,33.6567 L 27.0437,33.5424
 L 27.0152,33.4236 L 27.0014,33.3023 L 27,22.75 L 27.0014,22.6977 L 27.0152,22.5764 L 27.0437,22.4576
 L 27.0865,22.3433 L 27.1428,22.235 L 27.212,22.1344 L 27.2929,22.0429 L 27.3844,21.962 L 27.485,21.8928
 L 27.5933,21.8365 L 27.7076,21.7937 L 27.8264,21.7652 L 27.9477,21.7514 L 44,21.75 L 44.0523,21.7514
 L 44.1736,21.7652 L 44.2924,21.7937 L 44.4067,21.8365 L 44.515,21.8928 L 44.6156,21.962 L 44.7071,22.0429
 L 44.788,22.1344 L 44.8572,22.235 L 44.9135,22.3433 L 44.9563,22.4576 L 44.9848,22.5764 L 44.9986,22.6977
 L 45,33.25 L 44.9945,33.3545 L 44.9744,33.4749 L 44.9397,33.592 L 44.891,33.704 L 44.829,33.8092
 L 44.7547,33.9061 L 44.6691,33.9931 L 44.5736,34.0691 L 44.4695,34.1329 L 44.3584,34.1836 L 44.2419,34.2203
 L 44.1219,34.2425 L 44,34.25 z
M 50.4337,35.9477 L 50.3187,35.9325 L 50.2064,35.9035 L 50.0985,35.861 L 49.9966,35.8056 L 49.9021,35.7383
 L 49.8166,35.6599 L 49.7413,35.5717 L 49.6773,35.475 L 49.6255,35.3712 L 49.5868,35.2618 L 49.5617,35.1486
 L 49.5506,35.0331 L 49.5536,34.9172 L 49.5552,34.9007 L 49.5743,34.7863 L 49.6073,34.6751 L 49.6535,34.5687
 L 49.7124,34.4688 L 49.783,34.3767 L 49.8643,34.294 L 49.9551,34.2218 L 50.054,34.1612 L 50.1595,34.1131
 L 50.2702,34.0782 L 50.3842,34.0571 L 50.5,34.05 L 50.6158,34.0571 L 50.7298,34.0782 L 50.8404,34.1131
 L 50.946,34.1612 L 51.0449,34.2218 L 51.1357,34.294 L 51.217,34.3767 L 51.2876,34.4688 L 51.3465,34.5687
 L 51.3927,34.6751 L 51.4256,34.7863 L 51.4448,34.9007 L 51.4498,35.0166 L 51.4408,35.1322 L 51.4176,35.2459
 L 51.3808,35.3559 L 51.3309,35.4606 L 51.2686,35.5584 L 51.1948,35.6479 L 51.1106,35.7277 L 51.0174,35.7967
 L 50.9164,35.8539 L 50.7936,35.9035 L 50.665,35.9356 L 50.5497,35.9487 z
M 14.335,35.9356 L 14.2064,35.9035 L 14.0836,35.8539 L 13.9826,35.7967 L 13.8894,35.7278 L 13.8052,35.6479
 L 13.7314,35.5584 L 13.6691,35.4606 L 13.6192,35.3559 L 13.5824,35.2459 L 13.5592,35.1322 L 13.5502,35.0166
 L 13.5552,34.9007 L 13.5744,34.7863 L 13.6073,34.6751 L 13.6535,34.5687 L 13.7124,34.4688 L 13.783,34.3768
 L 13.8643,34.294 L 13.9551,34.2218 L 14.054,34.1612 L 14.1596,34.1131 L 14.2702,34.0782 L 14.3842,34.0571
 L 14.5,34.05 L 14.6158,34.0571 L 14.7298,34.0782 L 14.8405,34.1131 L 14.946,34.1612 L 15.0449,34.2218
 L 15.1357,34.294 L 15.217,34.3768 L 15.2876,34.4688 L 15.3465,34.5687 L 15.3927,34.6751 L 15.4257,34.7863
 L 15.4448,34.9007 L 15.4464,34.9172 L 15.4494,35.0332 L 15.4383,35.1486 L 15.4132,35.2619 L 15.3745,35.3712
 L 15.3227,35.475 L 15.2587,35.5717 L 15.1834,35.6599 L 15.0979,35.7383 L 15.0034,35.8056 L 14.9015,35.861
 L 14.7936,35.9035 L 14.6813,35.9326 L 14.5663,35.9477 L 14.4503,35.9487 z
M 45.1837,39.6977 L 45.0687,39.6825 L 44.9564,39.6535 L 44.8485,39.611 L 44.7466,39.5556 L 44.6521,39.4883
 L 44.5666,39.4099 L 44.4913,39.3217 L 44.4273,39.225 L 44.3755,39.1212 L 44.3368,39.0118 L 44.3117,38.8986
 L 44.3006,38.7831 L 44.3036,38.6672 L 44.3052,38.6507 L 44.3243,38.5363 L 44.3573,38.4251 L 44.4035,38.3187
 L 44.4624,38.2188 L 44.533,38.1267 L 44.6143,38.044 L 44.7051,37.9718 L 44.804,37.9112 L 44.9095,37.8631
 L 45.0202,37.8282 L 45.1342,37.8071 L 45.25,37.8 L 45.3658,37.8071 L 45.4798,37.8282 L 45.5904,37.8631
 L 45.696,37.9112 L 45.7949,37.9718 L 45.8857,38.044 L 45.967,38.1267 L 46.0376,38.2188 L 46.0965,38.3187
 L 46.1427,38.4251 L 46.1756,38.5363 L 46.1948,38.6507 L 46.1998,38.7666 L 46.1908,38.8822 L 46.1676,38.9959
 L 46.1308,39.1059 L 46.0809,39.2106 L 46.0186,39.3084 L 45.9448,39.3979 L 45.8606,39.4777 L 45.7674,39.5467
 L 45.6664,39.6039 L 45.5436,39.6535 L 45.415,39.6856 L 45.2997,39.6987 z
M 32.585,39.6856 L 32.4564,39.6535 L 32.3336,39.6039 L 32.2326,39.5467 L 32.1394,39.4777 L 32.0552,39.3979
 L 31.9814,39.3084 L 31.9191,39.2106 L 31.8692,39.1059 L 31.8324,38.9959 L 31.8092,38.8822 L 31.8002,38.7666
 L 31.8052,38.6507 L 31.8244,38.5363 L 31.8573,38.4251 L 31.9035,38.3187 L 31.9624,38.2188 L 32.033,38.1267
 L 32.1143,38.044 L 32.2051,37.9718 L 32.304,37.9112 L 32.4096,37.8631 L 32.5202,37.8282 L 32.6342,37.8071
 L 32.75,37.8 L 32.8658,37.8071 L 32.9798,37.8282 L 33.0905,37.8631 L 33.196,37.9112 L 33.2949,37.9718
 L 33.3857,38.044 L 33.467,38.1267 L 33.5376,38.2188 L 33.5965,38.3187 L 33.6427,38.4251 L 33.6757,38.5363
 L 33.6948,38.6507 L 33.6964,38.6672 L 33.6994,38.7831 L 33.6883,38.8986 L 33.6632,39.0118 L 33.6245,39.1212
 L 33.5727,39.225 L 33.5087,39.3217 L 33.4334,39.4099 L 33.3479,39.4883 L 33.2534,39.5556 L 33.1515,39.611
 L 33.0436,39.6535 L 32.9313,39.6825 L 32.8163,39.6977 L 32.7003,39.6987 z
M 3.57065,53.8482 L 3.45288,53.8492 L 3.33546,53.84 L 3.21931,53.8205 L 3.10529,53.791 L 2.99428,53.7517
 L 2.8871,53.7029 L 2.78461,53.6449 L 2.68755,53.5782 L 2.59666,53.5033 L 2.51266,53.4207 L 2.43617,53.3311
 L 2.36778,53.2353 L 2.30801,53.1338 L 2.25731,53.0275 L 2.21606,52.9172 L 2.18459,52.8037 L 2.16313,52.6879
 L 2.15184,52.5707 L 2.15082,52.4529 L 2.16005,52.3355 L 2.17949,52.2193 L 2.20898,52.1053 L 2.24829,51.9943
 L 2.29713,51.8871 L 2.35513,51.7846 L 2.42183,51.6876 L 2.49675,51.5967 L 2.5793,51.5127 L 2.66885,51.4362
 L 2.76472,51.3678 L 2.86621,51.308 L 2.9725,51.2573 L 3.08282,51.2161 L 3.1963,51.1846 L 3.3121,51.1631
 L 3.42934,51.1519 L 3.5471,51.1508 L 3.66452,51.1601 L 3.78067,51.1795 L 3.8947,51.209 L 4.00571,51.2483
 L 4.11288,51.2971 L 4.21538,51.3551 L 4.31244,51.4218 L 4.40332,51.4968 L 4.48732,51.5793 L 4.56381,51.6689
 L 4.6322,51.7647 L 4.69197,51.8662 L 4.74268,51.9725 L 4.78392,52.0828 L 4.8154,52.1963 L 4.83685,52.3121
 L 4.84814,52.4294 L 4.84917,52.5471 L 4.83994,52.6645 L 4.8205,52.7807 L 4.791,52.8947 L 4.75169,53.0057
 L 4.70285,53.1129 L 4.64485,53.2154 L 4.57816,53.3125 L 4.50323,53.4033 L 4.42068,53.4873 L 4.33113,53.5638
 L 4.23526,53.6322 L 4.13377,53.692 L 4.02748,53.7427 L 3.91716,53.7839 L 3.80368,53.8154 L 3.68788,53.8369
 z
M 61.5706,53.8482 L 61.4529,53.8492 L 61.3355,53.84 L 61.2193,53.8205 L 61.1053,53.791 L 60.9943,53.7517
 L 60.8871,53.7029 L 60.7846,53.6449 L 60.6875,53.5782 L 60.5967,53.5033 L 60.5127,53.4207 L 60.4362,53.3311
 L 60.3678,53.2353 L 60.308,53.1338 L 60.2573,53.0275 L 60.2161,52.9172 L 60.1846,52.8037 L 60.1631,52.6879
 L 60.1518,52.5707 L 60.1508,52.4529 L 60.16,52.3355 L 60.1795,52.2193 L 60.209,52.1053 L 60.2483,51.9943
 L 60.2971,51.8871 L 60.3551,51.7846 L 60.4218,51.6876 L 60.4967,51.5967 L 60.5793,51.5127 L 60.6689,51.4362
 L 60.7647,51.3678 L 60.8662,51.308 L 60.9725,51.2573 L 61.0828,51.2161 L 61.1963,51.1846 L 61.3121,51.1631
 L 61.4293,51.1519 L 61.5471,51.1508 L 61.6645,51.1601 L 61.7807,51.1795 L 61.8947,51.209 L 62.0057,51.2483
 L 62.1129,51.2971 L 62.2154,51.3551 L 62.3124,51.4218 L 62.4033,51.4968 L 62.4873,51.5793 L 62.5638,51.6689
 L 62.6322,51.7647 L 62.692,51.8662 L 62.7427,51.9725 L 62.7839,52.0828 L 62.8154,52.1963 L 62.8369,52.3121
 L 62.8481,52.4294 L 62.8492,52.5471 L 62.8399,52.6645 L 62.8205,52.7807 L 62.791,52.8947 L 62.7517,53.0057
 L 62.7029,53.1129 L 62.6449,53.2154 L 62.5782,53.3125 L 62.5032,53.4033 L 62.4207,53.4873 L 62.3311,53.5638
 L 62.2353,53.6322 L 62.1338,53.692 L 62.0275,53.7427 L 61.9172,53.7839 L 61.8037,53.8154 L 61.6879,53.8369
 z
" stroke="black" fill="lightgray" stroke-width="0.5"/></svg>
