<?xml version="1.0" standalone="no"?>
<!DOCTYPE svg PUBLIC "-//W3C//DTD SVG 1.1//EN" "http://www.w3.org/Graphics/SVG/1.1/DTD/svg11.dtd">
<svg width="21mm" height="36mm" viewBox="0 0 21 36" xmlns="http://www.w3.org/2000/svg" version="1.1">
<title>OpenSCAD Model</title>
<path d="
M 19.5628,35.498 L 19.6253,35.4921 L 19.6874,35.4823 L 19.7487,35.4686 L 19.809,35.451 L 19.8681,35.4298
 L 19.9258,35.4048 L 19.9818,35.3763 L 20.0358,35.3443 L 20.0878,35.309 L 20.1374,35.2705 L 20.1845,35.229
 L 20.229,35.1845 L 20.2705,35.1374 L 20.309,35.0878 L 20.3443,35.0358 L 20.3763,34.9818 L 20.4048,34.9258
 L 20.4298,34.8681 L 20.451,34.809 L 20.4686,34.7487 L 20.4823,34.6874 L 20.4921,34.6253 L 20.498,34.5628
 L 20.5,34.5 L 20.5,22.08 L 20.4234,22.0692 L 20.2851,22.0398 L 20.1492,22.0009 L 20.0164,21.9525
 L 19.8873,21.895 L 19.7625,21.8287 L 19.6426,21.7538 L 19.5283,21.6707 L 19.42,21.5798 L 19.3183,21.4817
 L 19.2238,21.3766 L 19.1367,21.2652 L 19.0577,21.1481 L 18.987,21.0257 L 18.9251,20.8986 L 18.8721,20.7676
 L 18.8284,20.6331 L 18.7943,20.496 L 18.7697,20.3568 L 18.7549,20.2162 L 18.75,20.075 L 18.7512,17.5543
 L 18.7611,17.4133 L 18.7808,17.2734 L 18.8102,17.1351 L 18.8491,16.9993 L 18.8975,16.8664 L 18.9549,16.7373
 L 19.0213,16.6125 L 19.0962,16.4926 L 19.1793,16.3783 L 19.2701,16.27 L 19.3683,16.1684 L 19.4734,16.0738
 L 19.5847,15.9868 L 19.7019,15.9077 L 19.8243,15.837 L 19.9514,15.7751 L 20.0824,15.7221 L 20.2168,15.6785
 L 20.354,15.6443 L 20.5,15.619 L 20.5,9.59866 L 17.5,9.60001 L 17.4477,9.59863 L 17.3264,9.58481
 L 17.2076,9.5563 L 17.0933,9.51355 L 16.985,9.45717 L 16.8844,9.38802 L 16.7929,9.3071 L 16.712,9.21565
 L 16.6428,9.11504 L 16.5865,9.00673 L 16.5437,8.89236 L 16.5152,8.77365 L 16.5014,8.65233 L 16.5,7.60001
 L 16.5014,7.54768 L 16.5152,7.42636 L 16.5437,7.30765 L 16.5865,7.19328 L 16.6428,7.08498 L 16.712,6.98436
 L 16.7929,6.89291 L 16.8844,6.812 L 16.985,6.74284 L 17.0933,6.68646 L 17.2076,6.64371 L 17.3264,6.6152
 L 17.4477,6.60138 L 18.7508,6.6008 L 18.75,4.92502 L 18.7549,4.78377 L 18.7697,4.6432 L 18.7943,4.504
 L 18.8284,4.36687 L 18.8721,4.23244 L 18.9251,4.10138 L 18.987,3.97435 L 19.0577,3.85194 L 19.1367,3.73476
 L 19.2238,3.62338 L 19.3183,3.51834 L 19.42,3.42015 L 19.5283,3.3293 L 19.6426,3.24623 L 19.7625,3.17133
 L 19.8873,3.10497 L 20.0164,3.04749 L 20.1492,2.99913 L 20.2851,2.96017 L 20.4234,2.93079 L 20.5,2.92001
 L 20.5,1.5 L 20.498,1.43721 L 20.4921,1.37468 L 20.4823,1.31262 L 20.4686,1.25131 L 20.451,1.19099
 L 20.4298,1.13188 L 20.4048,1.07423 L 20.3763,1.01825 L 20.3443,0.964188 L 20.309,0.912216 L 20.2705,0.862579
 L 20.229,0.81546 L 20.1845,0.771042 L 20.1374,0.729492 L 20.0878,0.690994 L 20.0358,0.655685 L 19.9818,0.623703
 L 19.9258,0.595184 L 19.8681,0.570236 L 19.809,0.54895 L 19.7487,0.531418 L 19.6874,0.517715 L 19.6253,0.507889
 L 19.5628,0.501984 L 19.5,0.5 L 1.5,0.5 L 1.43721,0.501984 L 1.37468,0.507889 L 1.31262,0.517715
 L 1.25131,0.531418 L 1.19099,0.54895 L 1.13188,0.570236 L 1.07423,0.595184 L 1.01825,0.623703 L 0.964188,0.655685
 L 0.912216,0.690994 L 0.862579,0.729492 L 0.81546,0.771042 L 0.771042,0.81546 L 0.729492,0.862579 L 0.690994,0.912216
 L 0.655685,0.964188 L 0.623703,1.01825 L 0.595184,1.07423 L 0.570236,1.13188 L 0.54895,1.19099 L 0.531418,1.25131
 L 0.517715,1.31262 L 0.507889,1.37468 L 0.501984,1.43721 L 0.5,1.5 L 0.5,2.92001 L 0.57663,2.93079
 L 0.71489,2.96017 L 0.850754,2.99913 L 0.983582,3.04749 L 1.1127,3.10497 L 1.2375,3.17133 L 1.35736,3.24623
 L 1.47171,3.3293 L 1.57999,3.42015 L 1.68166,3.51834 L 1.77625,3.62338 L 1.86325,3.73476 L 1.94229,3.85194
 L 2.01297,3.97435 L 2.07492,4.10138 L 2.12787,4.23244 L 2.17155,4.36687 L 2.20575,4.504 L 2.23029,4.6432
 L 2.24507,4.78377 L 2.25,4.92502 L 2.24876,7.44566 L 2.23891,7.58667 L 2.21924,7.72662 L 2.18985,7.86488
 L 2.15089,8.00075 L 2.10254,8.13358 L 2.04506,8.2627 L 1.9787,8.3875 L 1.90379,8.50735 L 1.82072,8.6217
 L 1.72987,8.72998 L 1.63168,8.83165 L 1.52664,8.92624 L 1.41527,9.01324 L 1.29808,9.09229 L 1.17567,9.16296
 L 1.04865,9.22491 L 0.917587,9.27786 L 0.783157,9.32155 L 0.646027,9.35574 L 0.5,9.381 L 0.5,15.619
 L 0.646027,15.6443 L 0.783157,15.6785 L 0.917587,15.7221 L 1.04865,15.7751 L 1.17567,15.837 L 1.29808,15.9077
 L 1.41527,15.9868 L 1.52664,16.0738 L 1.63168,16.1684 L 1.72987,16.27 L 1.82072,16.3783 L 1.90379,16.4926
 L 1.9787,16.6125 L 2.04506,16.7373 L 2.10254,16.8664 L 2.15089,16.9993 L 2.18985,17.1351 L 2.21924,17.2734
 L 2.23891,17.4133 L 2.24876,17.5543 L 2.25,20.075 L 2.24507,20.2162 L 2.23029,20.3568 L 2.20575,20.496
 L 2.17155,20.6331 L 2.12787,20.7676 L 2.07492,20.8986 L 2.01297,21.0257 L 1.94229,21.1481 L 1.86325,21.2652
 L 1.77625,21.3766 L 1.68166,21.4817 L 1.57999,21.5798 L 1.47171,21.6707 L 1.35736,21.7538 L 1.2375,21.8287
 L 1.1127,21.895 L 0.983582,21.9525 L 0.850754,22.0009 L 0.71489,22.0398 L 0.57663,22.0692 L 0.5,22.08
 L 0.5,34.5 L 0.501984,34.5628 L 0.507889,34.6253 L 0.517715,34.6874 L 0.531418,34.7487 L 0.54895,34.809
 L 0.570236,34.8681 L 0.595184,34.9258 L 0.623703,34.9818 L 0.655685,35.0358 L 0.690994,35.0878 L 0.729492,35.1374
 L 0.771042,35.1845 L 0.81546,35.229 L 0.862579,35.2705 L 0.912216,35.309 L 0.964188,35.3443 L 1.01825,35.3763
 L 1.07423,35.4048 L 1.13188,35.4298 L 1.19099,35.451 L 1.25131,35.4686 L 1.31262,35.4823 L 1.37468,35.4921
 L 1.43721,35.498 L 1.5,35.5 L 19.5,35.5 z
M 10.3796,24.899 L 10.2592,24.8958 L 10.1389,24.8905 L 10.0187,24.8832 L 9.89862,24.8737 L 9.77875,24.8622
 L 9.65909,24.8486 L 9.5397,24.8329 L 9.42059,24.8151 L 9.30182,24.7952 L 9.18341,24.7732 L 9.0654,24.7492
 L 8.94783,24.7232 L 8.83073,24.6951 L 8.71414,24.6649 L 8.5981,24.6327 L 8.48615,24.5995 L 4.90001,24.6
 L 4.84769,24.5986 L 4.72636,24.5848 L 4.60765,24.5563 L 4.49329,24.5135 L 4.38498,24.4572 L 4.28436,24.388
 L 4.19292,24.3071 L 4.112,24.2156 L 4.04285,24.115 L 3.98647,24.0067 L 3.94371,23.8923 L 3.91521,23.7736
 L 3.90138,23.6523 L 3.90094,20.0155 L 3.86728,19.9019 L 3.8351,19.7859 L 3.80495,19.6693 L 3.77684,19.5522
 L 3.75078,19.4346 L 3.72676,19.3166 L 3.70482,19.1982 L 3.68494,19.0794 L 3.66714,18.9603 L 3.65143,18.8409
 L 3.63779,18.7213 L 3.62625,18.6014 L 3.61681,18.4813 L 3.60945,18.3611 L 3.6042,18.2408 L 3.60104,18.1204
 L 3.59999,18 L 3.60104,17.8796 L 3.6042,17.7592 L 3.60945,17.6389 L 3.61681,17.5187 L 3.62625,17.3986
 L 3.63779,17.2788 L 3.65143,17.1591 L 3.66714,17.0397 L 3.68494,16.9206 L 3.70482,16.8018 L 3.72676,16.6834
 L 3.75078,16.5654 L 3.77684,16.4478 L 3.80495,16.3307 L 3.8351,16.2142 L 3.86728,16.0981 L 3.90045,15.9862
 L 3.90001,12.4 L 3.90138,12.3477 L 3.91521,12.2264 L 3.94371,12.1077 L 3.98647,11.9933 L 4.04285,11.885
 L 4.112,11.7844 L 4.19292,11.6929 L 4.28436,11.612 L 4.38498,11.5428 L 4.49329,11.4865 L 4.60765,11.4437
 L 4.72636,11.4152 L 4.84769,11.4014 L 8.48453,11.4009 L 8.5981,11.3673 L 8.71414,11.3351 L 8.83073,11.305
 L 8.94783,11.2769 L 9.0654,11.2508 L 9.18341,11.2268 L 9.30182,11.2048 L 9.42059,11.185 L 9.5397,11.1672
 L 9.65909,11.1514 L 9.77875,11.1378 L 9.89862,11.1263 L 10.0187,11.1168 L 10.1389,11.1095 L 10.2592,11.1042
 L 10.3796,11.1011 L 10.5,11.1 L 10.6204,11.1011 L 10.7408,11.1042 L 10.8611,11.1095 L 10.9813,11.1168
 L 11.1014,11.1263 L 11.2212,11.1378 L 11.3409,11.1514 L 11.4603,11.1672 L 11.5794,11.185 L 11.6982,11.2048
 L 11.8166,11.2268 L 11.9346,11.2508 L 12.0522,11.2769 L 12.1693,11.305 L 12.2858,11.3351 L 12.4019,11.3673
 L 12.5138,11.4005 L 16.1,11.4 L 16.2045,11.4055 L 16.3249,11.4256 L 16.442,11.4603 L 16.554,11.509
 L 16.6592,11.571 L 16.756,11.6453 L 16.8431,11.7309 L 16.9191,11.8264 L 16.9829,11.9305 L 17.0336,12.0416
 L 17.0703,12.1581 L 17.0925,12.2782 L 17.1,12.4 L 17.1,15.9877 L 17.1327,16.0981 L 17.1649,16.2142
 L 17.195,16.3307 L 17.2231,16.4478 L 17.2492,16.5654 L 17.2732,16.6834 L 17.2952,16.8018 L 17.315,16.9206
 L 17.3328,17.0397 L 17.3486,17.1591 L 17.3622,17.2788 L 17.3737,17.3986 L 17.3832,17.5187 L 17.3905,17.6389
 L 17.3958,17.7592 L 17.3989,17.8796 L 17.4,18 L 17.3989,18.1204 L 17.3958,18.2408 L 17.3905,18.3611
 L 17.3832,18.4813 L 17.3737,18.6014 L 17.3622,18.7213 L 17.3486,18.8409 L 17.3328,18.9603 L 17.315,19.0794
 L 17.2952,19.1982 L 17.2732,19.3166 L 17.2492,19.4346 L 17.2231,19.5522 L 17.195,19.6693 L 17.1649,19.7859
 L 17.1327,19.9019 L 17.1,20.0123 L 17.1,23.6 L 17.0986,23.6523 L 17.0848,23.7736 L 17.0563,23.8923
 L 17.0135,24.0067 L 16.9572,24.115 L 16.888,24.2156 L 16.8071,24.3071 L 16.7156,24.388 L 16.615,24.4572
 L 16.5067,24.5135 L 16.3923,24.5563 L 16.2736,24.5848 L 16.1523,24.5986 L 12.5155,24.5991 L 12.4019,24.6327
 L 12.2858,24.6649 L 12.1693,24.6951 L 12.0522,24.7232 L 11.9346,24.7492 L 11.8166,24.7732 L 11.6982,24.7952
 L 11.5794,24.8151 L 11.4603,24.8329 L 11.3409,24.8486 L 11.2212,24.8622 L 11.1014,24.8737 L 10.9813,24.8832
 L 10.8611,24.8905 L 10.7408,24.8958 L 10.6204,24.899 L 10.5,24.9 z
" stroke="black" fill="lightgray" stroke-width="0.5"/></svg>
