<?xml version="1.0" standalone="no"?>
<!DOCTYPE svg PUBLIC "-//W3C//DTD SVG 1.1//EN" "http://www.w3.org/Graphics/SVG/1.1/DTD/svg11.dtd">
<svg width="65mm" height="32mm" viewBox="0 0 65 32" xmlns="http://www.w3.org/2000/svg" version="1.1">
<title>OpenSCAD Model</title>
<path d="
M 64.0628,31.998 L 64.1253,31.9921 L 64.1874,31.9823 L 64.2487,31.9686 L 64.309,31.951 L 64.3681,31.9298
 L 64.4258,31.9048 L 64.4818,31.8763 L 64.5358,31.8443 L 64.5878,31.809 L 64.6374,31.7705 L 64.6845,31.729
 L 64.729,31.6845 L 64.7705,31.6374 L 64.809,31.5878 L 64.8443,31.5358 L 64.8763,31.4818 L 64.9048,31.4258
 L 64.9298,31.3681 L 64.951,31.309 L 64.9686,31.2487 L 64.9823,31.1874 L 64.9921,31.1253 L 64.998,31.0628
 L 65,31 L 65,1 L 64.998,0.93721 L 64.9921,0.87468 L 64.9823,0.812622 L 64.9686,0.751312
 L 64.951,0.690994 L 64.9298,0.631882 L 64.9048,0.574234 L 64.8763,0.51825 L 64.8443,0.464188 L 64.809,0.412216
 L 64.7705,0.362579 L 64.729,0.31546 L 64.6845,0.271042 L 64.6374,0.229492 L 64.5878,0.190994 L 64.5358,0.155685
 L 64.4818,0.123703 L 64.4258,0.0951843 L 64.3681,0.0702362 L 64.309,0.0489502 L 64.2487,0.0314178 L 64.1874,0.0177155
 L 64.1253,0.00788879 L 64.0628,0.00198364 L 64,-0 L 1,-0 L 0.93721,0.00198364 L 0.87468,0.00788879
 L 0.812622,0.0177155 L 0.751312,0.0314178 L 0.690994,0.0489502 L 0.631882,0.0702362 L 0.574234,0.0951843 L 0.51825,0.123703
 L 0.464188,0.155685 L 0.412216,0.190994 L 0.362579,0.229492 L 0.31546,0.271042 L 0.271042,0.31546 L 0.229492,0.362579
 L 0.190994,0.412216 L 0.155685,0.464188 L 0.123703,0.51825 L 0.0951843,0.574234 L 0.0702362,0.631882 L 0.0489502,0.690994
 L 0.0314178,0.751312 L 0.0177155,0.812622 L 0.00788879,0.87468 L 0.00198364,0.93721 L 0,1 L 0,31
 L 0.00198364,31.0628 L 0.00788879,31.1253 L 0.0177155,31.1874 L 0.0314178,31.2487 L 0.0489502,31.309 L 0.0702362,31.3681
 L 0.0951843,31.4258 L 0.123703,31.4818 L 0.155685,31.5358 L 0.190994,31.5878 L 0.229492,31.6374 L 0.271042,31.6845
 L 0.31546,31.729 L 0.362579,31.7705 L 0.412216,31.809 L 0.464188,31.8443 L 0.51825,31.8763 L 0.574234,31.9048
 L 0.631882,31.9298 L 0.690994,31.951 L 0.751312,31.9686 L 0.812622,31.9823 L 0.87468,31.9921 L 0.93721,31.998
 L 1,32 L 6.50069,32 L 6.5,26 L 6.50137,25.9477 L 6.5152,25.8264 L 6.5437,25.7076
 L 6.58646,25.5933 L 6.64284,25.485 L 6.71199,25.3844 L 6.79291,25.2929 L 6.88435,25.212 L 6.98497,25.1428
 L 7.09328,25.0865 L 7.20764,25.0437 L 7.32635,25.0152 L 7.44768,25.0014 L 57.5,25 L 57.6045,25.0055
 L 57.7249,25.0256 L 57.842,25.0603 L 57.954,25.109 L 58.0592,25.171 L 58.1561,25.2453 L 58.2431,25.3309
 L 58.3191,25.4264 L 58.3829,25.5305 L 58.4336,25.6416 L 58.4703,25.7581 L 58.4925,25.8781 L 58.5,26
 L 58.5,32 L 64,32 z
M 43.0727,3.22363 L 42.9514,3.20981 L 42.8326,3.1813 L 42.7183,3.13855 L 42.61,3.08217 L 42.5094,3.01302
 L 42.4179,2.9321 L 42.337,2.84065 L 42.2678,2.74004 L 42.2115,2.63173 L 42.1687,2.51736 L 42.1402,2.39865
 L 42.1264,2.27733 L 42.125,2.22501 L 42.1274,1.85527 L 42.1434,1.73422 L 42.174,1.61601 L 42.2187,1.50241
 L 42.277,1.39511 L 42.3479,1.2957 L 42.4303,1.20569 L 42.5232,1.12639 L 42.625,1.05901 L 42.7343,1.00452
 L 42.8494,0.96376 L 42.9686,0.937332 L 43.0901,0.925629 L 45.575,0.925018 L 45.6968,0.93248 L 45.8169,0.954727
 L 45.9333,0.99144 L 46.0444,1.04208 L 46.1485,1.10588 L 46.2441,1.18188 L 46.3297,1.26897 L 46.404,1.36583
 L 46.466,1.47104 L 46.5147,1.58301 L 46.5493,1.70007 L 46.5695,1.8205 L 46.575,1.92502 L 46.5725,2.29475
 L 46.5566,2.4158 L 46.526,2.53401 L 46.4813,2.64761 L 46.423,2.75491 L 46.3521,2.85432 L 46.2696,2.94434
 L 46.1768,3.02364 L 46.075,3.09102 L 45.9657,3.14551 L 45.8506,3.18626 L 45.7314,3.21269 L 45.6099,3.2244
 z
M 30.2686,3.21269 L 30.1494,3.18626 L 30.0343,3.14551 L 29.925,3.09102 L 29.8232,3.02364 L 29.7303,2.94434
 L 29.6479,2.85432 L 29.577,2.75491 L 29.5187,2.64761 L 29.474,2.53401 L 29.4434,2.4158 L 29.4274,2.29475
 L 29.425,1.92502 L 29.4305,1.8205 L 29.4506,1.70007 L 29.4853,1.58301 L 29.534,1.47104 L 29.596,1.36583
 L 29.6703,1.26897 L 29.7559,1.18188 L 29.8514,1.10588 L 29.9555,1.04208 L 30.0666,0.99144 L 30.1831,0.954727
 L 30.3031,0.93248 L 30.425,0.925018 L 32.9099,0.925629 L 33.0314,0.937332 L 33.1506,0.96376 L 33.2657,1.00452
 L 33.375,1.05901 L 33.4768,1.12639 L 33.5697,1.20569 L 33.6521,1.2957 L 33.723,1.39511 L 33.7813,1.50241
 L 33.826,1.61601 L 33.8566,1.73422 L 33.8726,1.85527 L 33.875,2.22501 L 33.8736,2.27733 L 33.8598,2.39865
 L 33.8313,2.51736 L 33.7885,2.63173 L 33.7322,2.74004 L 33.663,2.84065 L 33.5821,2.9321 L 33.4906,3.01302
 L 33.39,3.08217 L 33.2817,3.13855 L 33.1674,3.1813 L 33.0486,3.20981 L 32.9273,3.22363 L 30.3901,3.2244
 z
M 3.57065,6.84816 L 3.45288,6.84918 L 3.33546,6.83995 L 3.21931,6.82051 L 3.10529,6.79102 L 2.99428,6.75171
 L 2.8871,6.70287 L 2.78461,6.64487 L 2.68755,6.57817 L 2.59666,6.50325 L 2.51266,6.4207 L 2.43617,6.33115
 L 2.36778,6.23528 L 2.30801,6.13379 L 2.25731,6.0275 L 2.21606,5.91718 L 2.18459,5.8037 L 2.16313,5.6879
 L 2.15184,5.57066 L 2.15082,5.4529 L 2.16005,5.33548 L 2.17949,5.21933 L 2.20898,5.1053 L 2.24829,4.99429
 L 2.29713,4.88712 L 2.35513,4.78462 L 2.42183,4.68756 L 2.49675,4.59668 L 2.5793,4.51268 L 2.66885,4.43619
 L 2.76472,4.3678 L 2.86621,4.30803 L 2.9725,4.25732 L 3.08282,4.21608 L 3.1963,4.1846 L 3.3121,4.16315
 L 3.42934,4.15186 L 3.5471,4.15083 L 3.66452,4.16006 L 3.78067,4.1795 L 3.8947,4.209 L 4.00571,4.24831
 L 4.11288,4.29715 L 4.21538,4.35515 L 4.31244,4.42184 L 4.40332,4.49677 L 4.48732,4.57932 L 4.56381,4.66887
 L 4.6322,4.76474 L 4.69197,4.86623 L 4.74268,4.97252 L 4.78392,5.08284 L 4.8154,5.19632 L 4.83685,5.31212
 L 4.84814,5.42935 L 4.84917,5.54712 L 4.83994,5.66454 L 4.8205,5.78069 L 4.791,5.89471 L 4.75169,6.00572
 L 4.70285,6.1129 L 4.64485,6.21539 L 4.57816,6.31245 L 4.50323,6.40334 L 4.42068,6.48734 L 4.33113,6.56383
 L 4.23526,6.63222 L 4.13377,6.69199 L 4.02748,6.74269 L 3.91716,6.78394 L 3.80368,6.81541 L 3.68788,6.83687
 z
M 61.5706,6.84816 L 61.4529,6.84918 L 61.3355,6.83995 L 61.2193,6.82051 L 61.1053,6.79102 L 60.9943,6.75171
 L 60.8871,6.70287 L 60.7846,6.64487 L 60.6875,6.57817 L 60.5967,6.50325 L 60.5127,6.4207 L 60.4362,6.33115
 L 60.3678,6.23528 L 60.308,6.13379 L 60.2573,6.0275 L 60.2161,5.91718 L 60.1846,5.8037 L 60.1631,5.6879
 L 60.1518,5.57066 L 60.1508,5.4529 L 60.16,5.33548 L 60.1795,5.21933 L 60.209,5.1053 L 60.2483,4.99429
 L 60.2971,4.88712 L 60.3551,4.78462 L 60.4218,4.68756 L 60.4967,4.59668 L 60.5793,4.51268 L 60.6689,4.43619
 L 60.7647,4.3678 L 60.8662,4.30803 L 60.9725,4.25732 L 61.0828,4.21608 L 61.1963,4.1846 L 61.3121,4.16315
 L 61.4293,4.15186 L 61.5471,4.15083 L 61.6645,4.16006 L 61.7807,4.1795 L 61.8947,4.209 L 62.0057,4.24831
 L 62.1129,4.29715 L 62.2154,4.35515 L 62.3124,4.42184 L 62.4033,4.49677 L 62.4873,4.57932 L 62.5638,4.66887
 L 62.6322,4.76474 L 62.692,4.86623 L 62.7427,4.97252 L 62.7839,5.08284 L 62.8154,5.19632 L 62.8369,5.31212
 L 62.8481,5.42935 L 62.8492,5.54712 L 62.8399,5.66454 L 62.8205,5.78069 L 62.791,5.89471 L 62.7517,6.00572
 L 62.7029,6.1129 L 62.6449,6.21539 L 62.5782,6.31245 L 62.5032,6.40334 L 62.4207,6.48734 L 62.3311,6.56383
 L 62.2353,6.63222 L 62.1338,6.69199 L 62.0275,6.74269 L 61.9172,6.78394 L 61.8037,6.81541 L 61.6879,6.83687
 z
M 32.3796,19.3989 L 32.2592,19.3958 L 32.1389,19.3905 L 32.0187,19.3832 L 31.8986,19.3737 L 31.7788,19.3622
 L 31.6591,19.3486 L 31.5397,19.3328 L 31.4206,19.315 L 31.3018,19.2952 L 31.1834,19.2732 L 31.0654,19.2492
 L 30.9478,19.2231 L 30.8307,19.195 L 30.7142,19.1649 L 30.5981,19.1327 L 30.4877,19.1 L 26.9,19.1
 L 26.8477,19.0986 L 26.7264,19.0848 L 26.6077,19.0563 L 26.4933,19.0135 L 26.385,18.9572 L 26.2844,18.888
 L 26.1929,18.8071 L 26.112,18.7157 L 26.0428,18.615 L 25.9865,18.5067 L 25.9437,18.3924 L 25.9152,18.2737
 L 25.9014,18.1523 L 25.9009,14.5155 L 25.8964,14.5 L 22.5,14.5 L 22.4477,14.4986 L 22.3264,14.4848
 L 22.2076,14.4563 L 22.0933,14.4136 L 21.985,14.3572 L 21.8844,14.288 L 21.7929,14.2071 L 21.712,14.1157
 L 21.6428,14.015 L 21.5865,13.9067 L 21.5437,13.7924 L 21.5152,13.6737 L 21.5014,13.5523 L 21.5,11.5
 L 21.5014,11.4477 L 21.5152,11.3264 L 21.5437,11.2077 L 21.5865,11.0933 L 21.6428,10.985 L 21.712,10.8844
 L 21.7929,10.7929 L 21.8844,10.712 L 21.985,10.6429 L 22.0933,10.5865 L 22.2076,10.5437 L 22.3264,10.5152
 L 22.4477,10.5014 L 25.896,10.5011 L 25.9005,10.4862 L 25.9,6.90001 L 25.9014,6.84769 L 25.9152,6.72636
 L 25.9437,6.60765 L 25.9865,6.49329 L 26.0428,6.38498 L 26.112,6.28436 L 26.1929,6.19292 L 26.2844,6.112
 L 26.385,6.04285 L 26.4933,5.98647 L 26.6077,5.94371 L 26.7264,5.91521 L 26.8477,5.90138 L 30.4845,5.90094
 L 30.5981,5.86729 L 30.7142,5.83511 L 30.8307,5.80496 L 30.9478,5.77686 L 31.0654,5.75079 L 31.1834,5.72678
 L 31.3018,5.70483 L 31.4206,5.68495 L 31.5397,5.66716 L 31.6591,5.65144 L 31.7788,5.6378 L 31.8986,5.62627
 L 32.0187,5.61682 L 32.1389,5.60947 L 32.2592,5.60422 L 32.3796,5.60106 L 32.5,5.60001 L 32.6204,5.60106
 L 32.7408,5.60422 L 32.8611,5.60947 L 32.9813,5.61682 L 33.1014,5.62627 L 33.2212,5.6378 L 33.3409,5.65144
 L 33.4603,5.66716 L 33.5794,5.68495 L 33.6982,5.70483 L 33.8166,5.72678 L 33.9346,5.75079 L 34.0522,5.77686
 L 34.1693,5.80496 L 34.2858,5.83511 L 34.4019,5.86729 L 34.5138,5.90045 L 38.1,5.90001 L 38.1523,5.90138
 L 38.2736,5.91521 L 38.3923,5.94371 L 38.5067,5.98647 L 38.615,6.04285 L 38.7156,6.112 L 38.8071,6.19292
 L 38.888,6.28436 L 38.9572,6.38498 L 39.0135,6.49329 L 39.0352,6.55132 L 44.75,6.55002 L 44.8023,6.55139
 L 44.9236,6.56522 L 45.0424,6.59372 L 45.1567,6.63647 L 45.265,6.69286 L 45.3656,6.76201 L 45.4571,6.84293
 L 45.538,6.93437 L 45.6072,7.03499 L 45.6635,7.1433 L 45.7063,7.25766 L 45.7348,7.37637 L 45.7486,7.4977
 L 45.75,14.85 L 45.7445,14.9545 L 45.7244,15.0749 L 45.6897,15.192 L 45.641,15.304 L 45.579,15.4092
 L 45.5047,15.506 L 45.4191,15.5931 L 45.3236,15.6691 L 45.2195,15.7329 L 45.1084,15.7836 L 44.9919,15.8203
 L 44.8719,15.8425 L 44.75,15.85 L 39.0997,15.85 L 39.1,18.1 L 39.0945,18.2045 L 39.0744,18.3249
 L 39.0397,18.442 L 38.991,18.554 L 38.929,18.6592 L 38.8547,18.756 L 38.7691,18.8431 L 38.6736,18.9191
 L 38.5695,18.9829 L 38.4584,19.0336 L 38.3419,19.0703 L 38.2218,19.0925 L 38.1,19.1 L 34.5123,19.1
 L 34.4019,19.1327 L 34.2858,19.1649 L 34.1693,19.195 L 34.0522,19.2231 L 33.9346,19.2492 L 33.8166,19.2732
 L 33.6982,19.2952 L 33.5794,19.315 L 33.4603,19.3328 L 33.3409,19.3486 L 33.2212,19.3622 L 33.1014,19.3737
 L 32.9813,19.3832 L 32.8611,19.3905 L 32.7408,19.3958 L 32.6204,19.3989 L 32.5,19.4 z
M 41.9,21.5 L 41.8477,21.4986 L 41.7263,21.4848 L 41.6076,21.4563 L 41.4933,21.4135 L 41.385,21.3572
 L 41.2843,21.288 L 41.1929,21.2071 L 41.112,21.1156 L 41.0428,21.015 L 40.9865,20.9067 L 40.9437,20.7924
 L 40.9152,20.6736 L 40.9014,20.5523 L 40.9,19.5 L 40.9014,19.4477 L 40.9152,19.3264 L 40.9437,19.2076
 L 40.9865,19.0933 L 41.0428,18.985 L 41.112,18.8844 L 41.1929,18.7929 L 41.2843,18.712 L 41.385,18.6428
 L 41.4933,18.5865 L 41.6076,18.5437 L 41.7263,18.5152 L 41.8477,18.5014 L 42.9,18.5 L 42.9523,18.5014
 L 43.0736,18.5152 L 43.1924,18.5437 L 43.3067,18.5865 L 43.415,18.6428 L 43.5156,18.712 L 43.6071,18.7929
 L 43.688,18.8844 L 43.7572,18.985 L 43.8135,19.0933 L 43.8563,19.2076 L 43.8848,19.3264 L 43.8986,19.4477
 L 43.9,20.5 L 43.8945,20.6045 L 43.8744,20.7249 L 43.8397,20.842 L 43.791,20.954 L 43.729,21.0592
 L 43.6547,21.1561 L 43.5691,21.2431 L 43.4736,21.3191 L 43.3695,21.3829 L 43.2584,21.4336 L 43.1419,21.4703
 L 43.0219,21.4925 L 42.9,21.5 z
M 43.0901,24.0744 L 42.9686,24.0627 L 42.8494,24.0362 L 42.7343,23.9955 L 42.625,23.941 L 42.5232,23.8736
 L 42.4303,23.7943 L 42.3479,23.7043 L 42.277,23.6049 L 42.2187,23.4976 L 42.174,23.384 L 42.1434,23.2658
 L 42.1274,23.1447 L 42.125,22.775 L 42.1264,22.7227 L 42.1402,22.6013 L 42.1687,22.4826 L 42.2115,22.3683
 L 42.2678,22.26 L 42.337,22.1593 L 42.4179,22.0679 L 42.5094,21.987 L 42.61,21.9178 L 42.7183,21.8615
 L 42.8326,21.8187 L 42.9514,21.7902 L 43.0727,21.7764 L 45.6099,21.7756 L 45.7314,21.7873 L 45.8506,21.8137
 L 45.9657,21.8545 L 46.075,21.909 L 46.1768,21.9764 L 46.2696,22.0557 L 46.3521,22.1457 L 46.423,22.2451
 L 46.4813,22.3524 L 46.526,22.466 L 46.5566,22.5842 L 46.5725,22.7052 L 46.575,23.075 L 46.5695,23.1795
 L 46.5493,23.2999 L 46.5147,23.417 L 46.466,23.529 L 46.404,23.6342 L 46.3297,23.731 L 46.2441,23.8181
 L 46.1485,23.8941 L 46.0444,23.9579 L 45.9333,24.0086 L 45.8169,24.0453 L 45.6968,24.0675 L 45.575,24.075
 z
M 30.3032,24.0675 L 30.1831,24.0453 L 30.0667,24.0086 L 29.9556,23.9579 L 29.8515,23.8941 L 29.7559,23.8181
 L 29.6703,23.731 L 29.596,23.6342 L 29.534,23.529 L 29.4853,23.417 L 29.4507,23.2999 L 29.4305,23.1795
 L 29.425,23.075 L 29.4275,22.7052 L 29.4434,22.5842 L 29.474,22.466 L 29.5187,22.3524 L 29.577,22.2451
 L 29.6479,22.1457 L 29.7304,22.0557 L 29.8232,21.9764 L 29.925,21.909 L 30.0343,21.8545 L 30.1494,21.8137
 L 30.2686,21.7873 L 30.3901,21.7756 L 32.9273,21.7764 L 33.0486,21.7902 L 33.1674,21.8187 L 33.2817,21.8615
 L 33.39,21.9178 L 33.4906,21.987 L 33.5821,22.0679 L 33.663,22.1593 L 33.7322,22.26 L 33.7885,22.3683
 L 33.8313,22.4826 L 33.8598,22.6013 L 33.8736,22.7227 L 33.875,22.775 L 33.8726,23.1447 L 33.8566,23.2658
 L 33.826,23.384 L 33.7813,23.4976 L 33.723,23.6049 L 33.6521,23.7043 L 33.5697,23.7943 L 33.4768,23.8736
 L 33.375,23.941 L 33.2657,23.9955 L 33.1506,24.0362 L 33.0314,24.0627 L 32.9099,24.0744 L 30.425,24.075
 z
M 3.57065,29.8482 L 3.45288,29.8492 L 3.33546,29.84 L 3.21931,29.8205 L 3.10529,29.791 L 2.99428,29.7517
 L 2.8871,29.7029 L 2.78461,29.6449 L 2.68755,29.5782 L 2.59666,29.5033 L 2.51266,29.4207 L 2.43617,29.3311
 L 2.36778,29.2353 L 2.30801,29.1338 L 2.25731,29.0275 L 2.21606,28.9172 L 2.18459,28.8037 L 2.16313,28.6879
 L 2.15184,28.5707 L 2.15082,28.4529 L 2.16005,28.3355 L 2.17949,28.2193 L 2.20898,28.1053 L 2.24829,27.9943
 L 2.29713,27.8871 L 2.35513,27.7846 L 2.42183,27.6876 L 2.49675,27.5967 L 2.5793,27.5127 L 2.66885,27.4362
 L 2.76472,27.3678 L 2.86621,27.308 L 2.9725,27.2573 L 3.08282,27.2161 L 3.1963,27.1846 L 3.3121,27.1631
 L 3.42934,27.1519 L 3.5471,27.1508 L 3.66452,27.1601 L 3.78067,27.1795 L 3.8947,27.209 L 4.00571,27.2483
 L 4.11288,27.2971 L 4.21538,27.3551 L 4.31244,27.4218 L 4.40332,27.4968 L 4.48732,27.5793 L 4.56381,27.6689
 L 4.6322,27.7647 L 4.69197,27.8662 L 4.74268,27.9725 L 4.78392,28.0828 L 4.8154,28.1963 L 4.83685,28.3121
 L 4.84814,28.4294 L 4.84917,28.5471 L 4.83994,28.6645 L 4.8205,28.7807 L 4.791,28.8947 L 4.75169,29.0057
 L 4.70285,29.1129 L 4.64485,29.2154 L 4.57816,29.3125 L 4.50323,29.4033 L 4.42068,29.4873 L 4.33113,29.5638
 L 4.23526,29.6322 L 4.13377,29.692 L 4.02748,29.7427 L 3.91716,29.7839 L 3.80368,29.8154 L 3.68788,29.8369
 z
M 61.5706,29.8482 L 61.4529,29.8492 L 61.3355,29.84 L 61.2193,29.8205 L 61.1053,29.791 L 60.9943,29.7517
 L 60.8871,29.7029 L 60.7846,29.6449 L 60.6875,29.5782 L 60.5967,29.5033 L 60.5127,29.4207 L 60.4362,29.3311
 L 60.3678,29.2353 L 60.308,29.1338 L 60.2573,29.0275 L 60.2161,28.9172 L 60.1846,28.8037 L 60.1631,28.6879
 L 60.1518,28.5707 L 60.1508,28.4529 L 60.16,28.3355 L 60.1795,28.2193 L 60.209,28.1053 L 60.2483,27.9943
 L 60.2971,27.8871 L 60.3551,27.7846 L 60.4218,27.6876 L 60.4967,27.5967 L 60.5793,27.5127 L 60.6689,27.4362
 L 60.7647,27.3678 L 60.8662,27.308 L 60.9725,27.2573 L 61.0828,27.2161 L 61.1963,27.1846 L 61.3121,27.1631
 L 61.4293,27.1519 L 61.5471,27.1508 L 61.6645,27.1601 L 61.7807,27.1795 L 61.8947,27.209 L 62.0057,27.2483
 L 62.1129,27.2971 L 62.2154,27.3551 L 62.3124,27.4218 L 62.4033,27.4968 L 62.4873,27.5793 L 62.5638,27.6689
 L 62.6322,27.7647 L 62.692,27.8662 L 62.7427,27.9725 L 62.7839,28.0828 L 62.8154,28.1963 L 62.8369,28.3121
 L 62.8481,28.4294 L 62.8492,28.5471 L 62.8399,28.6645 L 62.8205,28.7807 L 62.791,28.8947 L 62.7517,29.0057
 L 62.7029,29.1129 L 62.6449,29.2154 L 62.5782,29.3125 L 62.5032,29.4033 L 62.4207,29.4873 L 62.3311,29.5638
 L 62.2353,29.6322 L 62.1338,29.692 L 62.0275,29.7427 L 61.9172,29.7839 L 61.8037,29.8154 L 61.6879,29.8369
 z
" stroke="black" fill="lightgray" stroke-width="0.5"/></svg>
