<?xml version="1.0" standalone="no"?>
<!DOCTYPE svg PUBLIC "-//W3C//DTD SVG 1.1//EN" "http://www.w3.org/Graphics/SVG/1.1/DTD/svg11.dtd">
<svg width="15mm" height="26mm" viewBox="25 13 15 26" xmlns="http://www.w3.org/2000/svg" version="1.1">
<title>OpenSCAD Model</title>
<path d="
M 33.5523,38.9986 L 33.6736,38.9848 L 33.7924,38.9563 L 33.9067,38.9135 L 34.015,38.8572 L 34.1156,38.788
 L 34.2071,38.7071 L 34.288,38.6156 L 34.3572,38.515 L 34.4135,38.4067 L 34.4563,38.2924 L 34.4848,38.1736
 L 34.4986,38.0523 L 34.5,38 L 34.5,35.2491 L 38.8023,35.2486 L 38.9236,35.2348 L 39.0424,35.2063
 L 39.1567,35.1635 L 39.265,35.1072 L 39.3656,35.038 L 39.4571,34.9571 L 39.538,34.8656 L 39.6072,34.765
 L 39.6635,34.6567 L 39.7063,34.5424 L 39.7348,34.4236 L 39.7486,34.3023 L 39.75,34.25 L 39.75,14.9
 L 39.7425,14.7782 L 39.7203,14.6581 L 39.6836,14.5416 L 39.6329,14.4305 L 39.5691,14.3264 L 39.4931,14.2309
 L 39.4061,14.1453 L 39.3092,14.071 L 39.204,14.009 L 39.092,13.9603 L 38.9749,13.9256 L 38.8545,13.9055
 L 38.75,13.9 L 26.1977,13.9014 L 26.0764,13.9152 L 25.9576,13.9437 L 25.8433,13.9865 L 25.735,14.0428
 L 25.6344,14.112 L 25.5429,14.1929 L 25.462,14.2844 L 25.3928,14.385 L 25.3365,14.4933 L 25.2937,14.6077
 L 25.2652,14.7264 L 25.2514,14.8477 L 25.25,14.9 L 25.2512,21.7058 L 25.25,21.75 L 25.2514,34.3023
 L 25.2652,34.4236 L 25.2937,34.5424 L 25.3365,34.6567 L 25.3928,34.765 L 25.462,34.8656 L 25.5429,34.9571
 L 25.6344,35.038 L 25.735,35.1072 L 25.8433,35.1635 L 25.9576,35.2063 L 26.0764,35.2348 L 26.1977,35.2486
 L 26.25,35.25 L 30.5012,35.2495 L 30.5014,38.0523 L 30.5152,38.1736 L 30.5437,38.2924 L 30.5865,38.4067
 L 30.6428,38.515 L 30.712,38.6156 L 30.7929,38.7071 L 30.8844,38.788 L 30.985,38.8572 L 31.0933,38.9135
 L 31.2076,38.9563 L 31.3264,38.9848 L 31.4477,38.9986 L 31.5,39 z
M 27.1977,33.9986 L 27.0764,33.9848 L 26.9576,33.9563 L 26.8433,33.9135 L 26.735,33.8572 L 26.6344,33.788
 L 26.5429,33.7071 L 26.462,33.6156 L 26.3928,33.515 L 26.3365,33.4067 L 26.2937,33.2924 L 26.2652,33.1736
 L 26.2514,33.0523 L 26.25,16 L 26.2514,15.9477 L 26.2652,15.8264 L 26.2937,15.7076 L 26.3365,15.5933
 L 26.3928,15.485 L 26.462,15.3844 L 26.5429,15.2929 L 26.6344,15.212 L 26.735,15.1428 L 26.8433,15.0865
 L 26.9576,15.0437 L 27.0764,15.0152 L 27.1977,15.0014 L 37.75,15 L 37.8545,15.0055 L 37.9749,15.0256
 L 38.092,15.0603 L 38.204,15.109 L 38.3092,15.171 L 38.4061,15.2453 L 38.4931,15.3309 L 38.5691,15.4264
 L 38.6329,15.5305 L 38.6836,15.6416 L 38.7203,15.7581 L 38.7425,15.8781 L 38.75,16 L 38.75,33
 L 38.7486,33.0523 L 38.7348,33.1736 L 38.7063,33.2924 L 38.6635,33.4067 L 38.6072,33.515 L 38.538,33.6156
 L 38.4571,33.7071 L 38.3656,33.788 L 38.265,33.8572 L 38.1567,33.9135 L 38.0424,33.9563 L 37.9236,33.9848
 L 37.8023,33.9986 L 27.25,34 z
" stroke="black" fill="lightgray" stroke-width="0.5"/></svg>
