<?xml version="1.0" standalone="no"?>
<!DOCTYPE svg PUBLIC "-//W3C//DTD SVG 1.1//EN" "http://www.w3.org/Graphics/SVG/1.1/DTD/svg11.dtd">
<svg width="65mm" height="21mm" viewBox="0 0 65 21" xmlns="http://www.w3.org/2000/svg" version="1.1">
<title>OpenSCAD Model</title>
<path d="
M 54.9617,20.9898 L 55.2909,20.9702 L 55.6194,20.9402 L 55.9468,20.8998 L 56.2728,20.8493 L 56.597,20.7885
 L 56.9191,20.7175 L 57.2388,20.6365 L 57.5559,20.5455 L 57.8699,20.4445 L 58.1806,20.3338 L 58.4877,20.2133
 L 58.7908,20.0833 L 59.0897,19.9437 L 59.3841,19.7949 L 59.6736,19.6369 L 59.9581,19.4699 L 60.2371,19.294
 L 60.5105,19.1095 L 60.778,18.9164 L 61.0393,18.7151 L 61.2941,18.5056 L 61.5422,18.2883 L 61.7834,18.0632
 L 62.0173,17.8307 L 62.2439,17.591 L 62.4628,17.3443 L 62.6738,17.0908 L 62.8768,16.8307 L 63.0715,16.5645
 L 63.2578,16.2923 L 63.4354,16.0143 L 63.6042,15.7309 L 63.7641,15.4424 L 63.9147,15.149 L 64.0561,14.8509
 L 64.188,14.5486 L 64.3104,14.2423 L 64.4232,13.9323 L 64.5261,13.6189 L 64.6191,13.3025 L 64.7021,12.9832
 L 64.7751,12.6615 L 64.8379,12.3377 L 64.8905,12.0121 L 64.9329,11.685 L 64.965,11.3567 L 64.9867,11.0276
 L 64.9981,10.6979 L 64.9992,10.3681 L 64.9898,10.0383 L 64.9702,9.70908 L 64.9402,9.38058 L 64.8998,9.05321
 L 64.8493,8.72725 L 64.7885,8.40305 L 64.7175,8.08092 L 64.6365,7.76117 L 64.5455,7.44412 L 64.4445,7.1301
 L 64.3338,6.8194 L 64.2133,6.51233 L 64.0833,6.2092 L 63.9437,5.91029 L 63.7949,5.61592 L 63.6369,5.32637
 L 63.4699,5.04193 L 63.294,4.76286 L 63.1095,4.48947 L 62.9164,4.222 L 62.7151,3.96074 L 62.5056,3.70592
 L 62.2883,3.45781 L 62.0632,3.21664 L 61.8307,2.98268 L 61.591,2.75612 L 61.3443,2.5372 L 61.0908,2.32616
 L 60.8307,2.12317 L 60.5645,1.92845 L 60.2923,1.74219 L 60.0143,1.56456 L 59.7309,1.39577 L 59.4424,1.23595
 L 59.149,1.08528 L 58.8509,0.943893 L 58.5486,0.811951 L 58.2423,0.68956 L 57.9323,0.576843 L 57.6189,0.473923
 L 57.3025,0.380905 L 56.9832,0.297867 L 56.6615,0.224915 L 56.3377,0.162079 L 56.0121,0.109451 L 55.685,0.0670929
 L 55.3567,0.0350189 L 55.0276,0.0132751 L 54.6979,0.00187683 L 54.3681,0.000839233 L 54.0383,0.0101624 L 53.7091,0.0298462
 L 53.3806,0.059845 L 53.0532,0.100159 L 52.7272,0.150742 L 52.403,0.211533 L 52.0809,0.282471 L 51.7612,0.363495
 L 51.4441,0.454529 L 51.1301,0.555481 L 50.8194,0.666229 L 50.5123,0.786697 L 50.2092,0.916748 L 49.9103,1.05626
 L 49.6159,1.20508 L 49.3264,1.36308 L 49.0419,1.53009 L 48.7629,1.70596 L 48.4895,1.8905 L 48.222,2.08356
 L 47.9607,2.2849 L 47.7059,2.49435 L 47.4578,2.71172 L 47.2166,2.93677 L 46.9827,3.16927 L 46.7561,3.40901
 L 46.5372,3.65575 L 46.3262,3.90924 L 46.1232,4.16925 L 45.9285,4.4355 L 45.7422,4.70773 L 45.5646,4.98567
 L 45.3958,5.26906 L 45.2359,5.55762 L 45.0853,5.85104 L 44.9439,6.14906 L 44.812,6.45137 L 44.6896,6.75769
 L 44.5768,7.06769 L 44.4739,7.38107 L 44.3809,7.69754 L 44.2979,8.01677 L 44.2249,8.33846 L 44.1621,8.66226
 L 44.1095,8.9879 L 44.0671,9.31502 L 44.035,9.64331 L 44.0133,9.97244 L 44.0019,10.3021 L 44.0008,10.6319
 L 44.0102,10.9617 L 44.0298,11.2909 L 44.0598,11.6194 L 44.1002,11.9468 L 44.1507,12.2728 L 44.2115,12.597
 L 44.2825,12.9191 L 44.3635,13.2388 L 44.4545,13.5559 L 44.5555,13.8699 L 44.6662,14.1806 L 44.7867,14.4877
 L 44.9167,14.7908 L 45.0563,15.0897 L 45.2051,15.3841 L 45.3631,15.6736 L 45.5301,15.9581 L 45.706,16.2371
 L 45.8905,16.5105 L 46.0836,16.778 L 46.2849,17.0393 L 46.4944,17.2941 L 46.7117,17.5422 L 46.9368,17.7834
 L 47.1693,18.0173 L 47.409,18.2439 L 47.6557,18.4628 L 47.9092,18.6738 L 48.1693,18.8768 L 48.4355,19.0715
 L 48.7077,19.2578 L 48.9857,19.4354 L 49.2691,19.6042 L 49.5576,19.7641 L 49.851,19.9147 L 50.1491,20.0561
 L 50.4514,20.188 L 50.7577,20.3104 L 51.0677,20.4232 L 51.3811,20.5261 L 51.6975,20.6191 L 52.0168,20.7021
 L 52.3385,20.7751 L 52.6623,20.8379 L 52.9879,20.8905 L 53.315,20.9329 L 53.6433,20.965 L 53.9724,20.9867
 L 54.3021,20.9981 L 54.6319,20.9992 z
M 54.0573,17.5361 L 53.7044,17.505 L 53.3534,17.4561 L 53.0054,17.3897 L 52.6611,17.3059 L 52.3214,17.2049
 L 51.9873,17.087 L 51.6595,16.9524 L 51.3389,16.8016 L 51.0263,16.6348 L 50.7224,16.4525 L 50.4281,16.2552
 L 50.1441,16.0433 L 49.8711,15.8175 L 49.6098,15.5782 L 49.3608,15.326 L 49.1248,15.0617 L 48.9024,14.7859
 L 48.6941,14.4992 L 48.5005,14.2025 L 48.3221,13.8964 L 48.1592,13.5817 L 48.0124,13.2592 L 47.8819,12.9297
 L 47.7682,12.5941 L 47.6715,12.2533 L 47.592,11.9079 L 47.53,11.5591 L 47.4856,11.2076 L 47.4589,10.8542
 L 47.45,10.5 L 47.4589,10.1458 L 47.4856,9.79245 L 47.53,9.44092 L 47.592,9.09206 L 47.6715,8.74675
 L 47.7682,8.40587 L 47.8819,8.07028 L 48.0124,7.74083 L 48.1592,7.41833 L 48.3221,7.10364 L 48.5005,6.79753
 L 48.6941,6.50076 L 48.9024,6.2141 L 49.1248,5.93826 L 49.3608,5.67395 L 49.6098,5.42183 L 49.8711,5.18254
 L 50.1441,4.95668 L 50.4281,4.74481 L 50.7224,4.5475 L 51.0263,4.36522 L 51.3389,4.19843 L 51.6595,4.04756
 L 51.9873,3.91299 L 52.3214,3.79506 L 52.6611,3.69406 L 53.0054,3.61026 L 53.3534,3.54387 L 53.7044,3.49504
 L 54.0573,3.46391 L 54.4114,3.45056 L 54.7657,3.45502 L 55.1193,3.47726 L 55.4714,3.51726 L 55.821,3.57489
 L 56.1673,3.65001 L 56.5094,3.74243 L 56.8464,3.85193 L 57.1774,3.97821 L 57.5017,4.12097 L 57.8185,4.27986
 L 58.1268,4.45444 L 58.426,4.6443 L 58.7152,4.84895 L 58.9938,5.06789 L 59.2611,5.30054 L 59.5163,5.54633
 L 59.7589,5.80463 L 59.9882,6.07478 L 60.2036,6.35612 L 60.4046,6.64793 L 60.5907,6.94946 L 60.7614,7.25996
 L 60.9162,7.57866 L 61.0549,7.90472 L 61.177,8.23735 L 61.2823,8.5757 L 61.3704,8.9189 L 61.4412,9.2661
 L 61.4944,9.61641 L 61.53,9.96895 L 61.5478,10.3228 L 61.5478,10.6772 L 61.53,11.0311 L 61.4944,11.3836
 L 61.4412,11.7339 L 61.3704,12.0811 L 61.2823,12.4243 L 61.177,12.7626 L 61.0549,13.0953 L 60.9162,13.4213
 L 60.7614,13.74 L 60.5907,14.0505 L 60.4046,14.3521 L 60.2036,14.6439 L 59.9882,14.9252 L 59.7589,15.1954
 L 59.5163,15.4537 L 59.2611,15.6995 L 58.9938,15.9321 L 58.7152,16.151 L 58.426,16.3557 L 58.1268,16.5456
 L 57.8185,16.7201 L 57.5017,16.879 L 57.1774,17.0218 L 56.8464,17.1481 L 56.5094,17.2576 L 56.1673,17.35
 L 55.821,17.4251 L 55.4714,17.4827 L 55.1193,17.5227 L 54.7657,17.545 L 54.4114,17.5494 z
M 10.9617,20.9898 L 11.2909,20.9702 L 11.6194,20.9402 L 11.9468,20.8998 L 12.2728,20.8493 L 12.597,20.7885
 L 12.9191,20.7175 L 13.2388,20.6365 L 13.5559,20.5455 L 13.8699,20.4445 L 14.1806,20.3338 L 14.4877,20.2133
 L 14.7908,20.0833 L 15.0897,19.9437 L 15.3841,19.7949 L 15.6736,19.6369 L 15.9581,19.4699 L 16.2371,19.294
 L 16.5105,19.1095 L 16.778,18.9164 L 17.0393,18.7151 L 17.2941,18.5056 L 17.5422,18.2883 L 17.7834,18.0632
 L 18.0173,17.8307 L 18.2439,17.591 L 18.4628,17.3443 L 18.6738,17.0908 L 18.8768,16.8307 L 19.0715,16.5645
 L 19.2578,16.2923 L 19.4354,16.0143 L 19.6042,15.7309 L 19.7641,15.4424 L 19.9147,15.149 L 20.0561,14.8509
 L 20.188,14.5486 L 20.3104,14.2423 L 20.4232,13.9323 L 20.5261,13.6189 L 20.6191,13.3025 L 20.7021,12.9832
 L 20.7751,12.6615 L 20.8379,12.3377 L 20.8905,12.0121 L 20.9329,11.685 L 20.965,11.3567 L 20.9867,11.0276
 L 20.9981,10.6979 L 20.9992,10.3681 L 20.9898,10.0383 L 20.9702,9.70908 L 20.9402,9.38058 L 20.8998,9.05321
 L 20.8493,8.72725 L 20.7885,8.40305 L 20.7175,8.08092 L 20.6365,7.76117 L 20.5455,7.44412 L 20.4445,7.1301
 L 20.3338,6.8194 L 20.2133,6.51233 L 20.0833,6.2092 L 19.9437,5.91029 L 19.7949,5.61592 L 19.6369,5.32637
 L 19.4699,5.04193 L 19.294,4.76286 L 19.1095,4.48947 L 18.9164,4.222 L 18.7151,3.96074 L 18.5056,3.70592
 L 18.2883,3.45781 L 18.0632,3.21664 L 17.8307,2.98268 L 17.591,2.75612 L 17.5,2.67381 L 17.5,7.80754
 L 17.6182,8.1376 L 17.7152,8.45287 L 17.7982,8.77208 L 17.8671,9.09465 L 17.9218,9.41992 L 17.9621,9.7473
 L 17.988,10.0761 L 17.9994,10.4058 L 17.9963,10.7356 L 17.9787,11.0649 L 17.9466,11.3932 L 17.9001,11.7198
 L 17.8394,12.044 L 17.7644,12.3652 L 17.6753,12.6828 L 17.5724,12.9961 L 17.4558,13.3047 L 17.3258,13.6078
 L 17.1825,13.9049 L 17.0264,14.1954 L 16.8576,14.4788 L 16.6765,14.7545 L 16.4834,15.022 L 16.2788,15.2807
 L 16.063,15.5301 L 15.8365,15.7699 L 15.5996,15.9994 L 15.3529,16.2183 L 15.0968,16.4261 L 14.8318,16.6225
 L 14.5584,16.8071 L 14.2772,16.9794 L 13.9886,17.1392 L 13.6933,17.2862 L 13.3919,17.42 L 13.0848,17.5405
 L 12.7728,17.6473 L 12.4563,17.7404 L 12.1361,17.8194 L 11.8127,17.8842 L 11.4867,17.9348 L 11.1589,17.971
 L 10.8298,17.9927 L 10.5,18 L 10.1702,17.9927 L 9.84113,17.971 L 9.51328,17.9348 L 9.18733,17.8842
 L 8.86394,17.8194 L 8.5437,17.7404 L 8.22725,17.6473 L 7.91519,17.5405 L 7.60812,17.42 L 7.30666,17.2862
 L 7.01137,17.1392 L 6.72284,16.9794 L 6.4416,16.8071 L 6.16821,16.6225 L 5.9032,16.4261 L 5.64709,16.2183
 L 5.40036,15.9994 L 5.16348,15.7699 L 4.93695,15.5301 L 4.72116,15.2807 L 4.51656,15.022 L 4.32352,14.7545
 L 4.14243,14.4788 L 3.97363,14.1954 L 3.81746,13.9049 L 3.67421,13.6078 L 3.54417,13.3047 L 3.42758,12.9961
 L 3.32466,12.6828 L 3.23564,12.3652 L 3.16064,12.044 L 3.09987,11.7198 L 3.05339,11.3932 L 3.02132,11.0649
 L 3.00371,10.7356 L 3.0006,10.4058 L 3.01199,10.0761 L 3.03787,9.7473 L 3.07819,9.41992 L 3.13286,9.09465
 L 3.20177,8.77208 L 3.28481,8.45287 L 3.38179,8.1376 L 3.5,7.80754 L 3.5,2.67381 L 3.26431,2.89114
 L 3.02888,3.12218 L 2.80083,3.3605 L 2.58037,3.60585 L 2.36772,3.85802 L 2.1631,4.11674 L 1.96672,4.38176
 L 1.77875,4.65282 L 1.5994,4.92964 L 1.42882,5.21196 L 1.26718,5.49951 L 1.11467,5.79198 L 0.97142,6.08911
 L 0.83757,6.39058 L 0.713257,6.69612 L 0.598602,7.0054 L 0.493729,7.31813 L 0.398712,7.63402 L 0.313675,7.95271
 L 0.238693,8.27393 L 0.173828,8.59735 L 0.119171,8.92264 L 0.0747375,9.24948 L 0.0406036,9.57758 L 0.0167847,9.90657
 L 0.00332642,10.2361 L 0.000213623,10.566 L 0.00746155,10.8957 L 0.0250702,11.2251 L 0.0530243,11.5538 L 0.0912781,11.8814
 L 0.139801,12.2077 L 0.198563,12.5323 L 0.267471,12.8548 L 0.346497,13.1751 L 0.435532,13.4927 L 0.5345,13.8074
 L 0.643295,14.1187 L 0.761841,14.4266 L 0.889969,14.7305 L 1.0276,15.0303 L 1.17458,15.3256 L 1.33075,15.6161
 L 1.49597,15.9016 L 1.67009,16.1818 L 1.85292,16.4563 L 2.04428,16.725 L 2.24397,16.9875 L 2.45183,17.2437
 L 2.66763,17.4931 L 2.89114,17.7357 L 3.12218,17.9711 L 3.3605,18.1992 L 3.60585,18.4196 L 3.85802,18.6323
 L 4.11674,18.8369 L 4.38176,19.0333 L 4.65282,19.2213 L 4.92964,19.4006 L 5.21196,19.5712 L 5.49951,19.7328
 L 5.79198,19.8853 L 6.08911,20.0286 L 6.39058,20.1624 L 6.69612,20.2867 L 7.0054,20.4014 L 7.31813,20.5063
 L 7.63402,20.6013 L 7.95271,20.6863 L 8.27393,20.7613 L 8.59735,20.8262 L 8.92264,20.8808 L 9.24948,20.9253
 L 9.57758,20.9594 L 9.90657,20.9832 L 10.2361,20.9967 L 10.3021,20.9981 L 10.6319,20.9992 z
M 32.9617,20.9898 L 33.2909,20.9702 L 33.6194,20.9402 L 33.9468,20.8998 L 34.2728,20.8493 L 34.597,20.7885
 L 34.9191,20.7175 L 35.2388,20.6365 L 35.5559,20.5455 L 35.8699,20.4445 L 36.1806,20.3338 L 36.4877,20.2133
 L 36.7908,20.0833 L 37.0897,19.9437 L 37.3841,19.7949 L 37.6736,19.6369 L 37.9581,19.4699 L 38.2371,19.294
 L 38.5105,19.1095 L 38.778,18.9164 L 39.0393,18.7151 L 39.2941,18.5056 L 39.5422,18.2883 L 39.7834,18.0632
 L 40.0173,17.8307 L 40.2439,17.591 L 40.4628,17.3443 L 40.6738,17.0908 L 40.8768,16.8307 L 41.0715,16.5645
 L 41.2578,16.2923 L 41.4354,16.0143 L 41.6042,15.7309 L 41.7641,15.4424 L 41.9147,15.149 L 42.0561,14.8509
 L 42.188,14.5486 L 42.3104,14.2423 L 42.4232,13.9323 L 42.5261,13.6189 L 42.6191,13.3025 L 42.7021,12.9832
 L 42.7751,12.6615 L 42.8379,12.3377 L 42.8905,12.0121 L 42.9329,11.685 L 42.965,11.3567 L 42.9867,11.0276
 L 42.9981,10.6979 L 43,10.5 L 40.6,10.5 L 40.5922,10.8561 L 40.5687,11.2116 L 40.5296,11.5657
 L 40.475,11.9177 L 40.4049,12.267 L 40.3196,12.6128 L 40.2191,12.9546 L 40.1037,13.2916 L 39.9736,13.6232
 L 39.8291,13.9488 L 39.6704,14.2677 L 39.4978,14.5793 L 39.3116,14.8831 L 39.1123,15.1783 L 38.9003,15.4645
 L 38.6758,15.7411 L 38.4394,16.0076 L 38.1915,16.2634 L 37.9325,16.5081 L 37.6631,16.7411 L 37.3837,16.9621
 L 37.0949,17.1706 L 36.7971,17.3662 L 36.4911,17.5485 L 36.1773,17.7171 L 35.8564,17.8719 L 35.5291,18.0123
 L 35.1958,18.1382 L 34.8574,18.2494 L 34.5144,18.3455 L 34.1675,18.4265 L 33.8174,18.4921 L 33.4647,18.5423
 L 33.1101,18.577 L 32.7544,18.596 L 32.3982,18.5993 L 32.0422,18.5871 L 31.6871,18.5591 L 31.3335,18.5156
 L 30.9822,18.4565 L 30.6339,18.3821 L 30.2891,18.2924 L 29.9486,18.1877 L 29.6131,18.0681 L 29.2831,17.9338
 L 28.9594,17.7852 L 28.6425,17.6225 L 28.3331,17.446 L 28.0317,17.256 L 27.739,17.053 L 27.4554,16.8374
 L 27.1817,16.6094 L 26.9182,16.3697 L 26.6655,16.1186 L 26.4241,15.8566 L 26.1945,15.5843 L 25.977,15.3021
 L 25.7722,15.0107 L 25.5804,14.7105 L 25.4019,14.4022 L 25.2372,14.0863 L 25.0865,13.7635 L 24.9502,13.4344
 L 24.8285,13.0996 L 24.7216,12.7598 L 24.6298,12.4156 L 24.5532,12.0677 L 24.4919,11.7168 L 24.4462,11.3635
 L 24.416,11.0086 L 24.4014,10.6527 L 24.4,10.5 L 22,10.5 L 22.0052,10.8298 L 22.0207,11.1593
 L 22.0466,11.4881 L 22.0828,11.816 L 22.1293,12.1425 L 22.186,12.4675 L 22.2529,12.7905 L 22.3299,13.1112
 L 22.4169,13.4294 L 22.5139,13.7447 L 22.6208,14.0567 L 22.7374,14.3653 L 22.8636,14.67 L 22.9993,14.9707
 L 23.1444,15.2669 L 23.2988,15.5584 L 23.4622,15.8449 L 23.6346,16.1262 L 23.8157,16.4019 L 24.0053,16.6717
 L 24.2034,16.9355 L 24.4096,17.1929 L 24.6238,17.4438 L 24.8458,17.6877 L 25.0754,17.9246 L 25.3123,18.1542
 L 25.5562,18.3762 L 25.8071,18.5904 L 26.0645,18.7966 L 26.3283,18.9947 L 26.5981,19.1843 L 26.8738,19.3654
 L 27.1551,19.5378 L 27.4416,19.7012 L 27.7331,19.8556 L 28.0293,20.0007 L 28.33,20.1364 L 28.6347,20.2626
 L 28.9433,20.3792 L 29.2553,20.4861 L 29.5706,20.5831 L 29.8888,20.6701 L 30.2095,20.7471 L 30.5325,20.814
 L 30.8575,20.8707 L 31.184,20.9172 L 31.5119,20.9534 L 31.8407,20.9793 L 32.1702,20.9948 L 32.3021,20.9981
 L 32.6319,20.9992 z
" stroke="black" fill="lightgray" stroke-width="0.5"/></svg>
