<?xml version="1.0" standalone="no"?>
<!DOCTYPE svg PUBLIC "-//W3C//DTD SVG 1.1//EN" "http://www.w3.org/Graphics/SVG/1.1/DTD/svg11.dtd">
<svg width="21mm" height="11mm" viewBox="0 10 21 11" xmlns="http://www.w3.org/2000/svg" version="1.1">
<title>OpenSCAD Model</title>
<path d="
M 10.3021,20.9981 L 10.6319,20.9992 L 10.9617,20.9898 L 11.2909,20.9702 L 11.6194,20.9402 L 11.9468,20.8998
 L 12.2728,20.8493 L 12.597,20.7885 L 12.9191,20.7175 L 13.2388,20.6365 L 13.5559,20.5455 L 13.8699,20.4445
 L 14.1806,20.3338 L 14.4877,20.2133 L 14.7908,20.0833 L 15.0897,19.9437 L 15.3841,19.7949 L 15.6736,19.6369
 L 15.9581,19.4699 L 16.2371,19.294 L 16.5105,19.1095 L 16.778,18.9164 L 17.0393,18.7151 L 17.2941,18.5056
 L 17.5422,18.2883 L 17.7834,18.0632 L 18.0173,17.8307 L 18.2439,17.591 L 18.4628,17.3443 L 18.6738,17.0908
 L 18.8768,16.8307 L 19.0715,16.5645 L 19.2578,16.2923 L 19.4354,16.0143 L 19.6042,15.7309 L 19.7641,15.4424
 L 19.9147,15.149 L 20.0561,14.8509 L 20.188,14.5486 L 20.3104,14.2423 L 20.4232,13.9323 L 20.5261,13.6189
 L 20.6191,13.3025 L 20.7021,12.9832 L 20.7751,12.6615 L 20.8379,12.3377 L 20.8905,12.0121 L 20.9329,11.685
 L 20.965,11.3567 L 20.9867,11.0276 L 20.9981,10.6979 L 21,10.5 L 18.6,10.5 L 18.5922,10.8561
 L 18.5687,11.2116 L 18.5296,11.5657 L 18.475,11.9177 L 18.4049,12.267 L 18.3196,12.6128 L 18.2191,12.9546
 L 18.1037,13.2916 L 17.9736,13.6232 L 17.8291,13.9488 L 17.6704,14.2677 L 17.4978,14.5793 L 17.3116,14.8831
 L 17.1123,15.1783 L 16.9003,15.4645 L 16.6758,15.7411 L 16.4394,16.0076 L 16.1915,16.2634 L 15.9325,16.5081
 L 15.6631,16.7411 L 15.3837,16.9621 L 15.0949,17.1706 L 14.7971,17.3662 L 14.4911,17.5485 L 14.1773,17.7171
 L 13.8564,17.8719 L 13.5291,18.0123 L 13.1958,18.1382 L 12.8574,18.2494 L 12.5144,18.3455 L 12.1675,18.4265
 L 11.8174,18.4921 L 11.4647,18.5423 L 11.1101,18.577 L 10.7544,18.596 L 10.3982,18.5993 L 10.0422,18.5871
 L 9.68707,18.5591 L 9.33353,18.5156 L 8.98222,18.4565 L 8.63385,18.3821 L 8.28909,18.2924 L 7.94862,18.1877
 L 7.61307,18.0681 L 7.28311,17.9338 L 6.95937,17.7852 L 6.64247,17.6225 L 6.33305,17.446 L 6.03168,17.256
 L 5.73895,17.053 L 5.45543,16.8374 L 5.18166,16.6094 L 4.91818,16.3697 L 4.66551,16.1186 L 4.4241,15.8566
 L 4.19446,15.5843 L 3.97702,15.3021 L 3.77219,15.0107 L 3.58037,14.7105 L 3.40192,14.4022 L 3.23721,14.0863
 L 3.08655,13.7635 L 2.95023,13.4344 L 2.82851,13.0996 L 2.72163,12.7598 L 2.62979,12.4156 L 2.55318,12.0677
 L 2.49193,11.7168 L 2.44617,11.3635 L 2.41599,11.0086 L 2.40144,10.6527 L 2.40001,10.5 L 0,10.5
 L 0.00518799,10.8298 L 0.0207214,11.1593 L 0.0466003,11.4881 L 0.0828094,11.816 L 0.129272,12.1425 L 0.185989,12.4675
 L 0.252884,12.7905 L 0.32988,13.1112 L 0.416931,13.4294 L 0.513916,13.7447 L 0.620758,14.0567 L 0.73735,14.3653
 L 0.863586,14.67 L 0.999329,14.9707 L 1.14444,15.2669 L 1.29878,15.5584 L 1.46222,15.8449 L 1.63457,16.1262
 L 1.81566,16.4019 L 2.00533,16.6717 L 2.20338,16.9355 L 2.40962,17.1929 L 2.62384,17.4438 L 2.84584,17.6877
 L 3.07539,17.9246 L 3.31226,18.1542 L 3.55623,18.3762 L 3.80705,18.5904 L 4.06448,18.7966 L 4.32826,18.9947
 L 4.59813,19.1843 L 4.87383,19.3654 L 5.15508,19.5378 L 5.44159,19.7012 L 5.73311,19.8556 L 6.02933,20.0007
 L 6.32996,20.1364 L 6.6347,20.2626 L 6.94325,20.3792 L 7.25533,20.4861 L 7.5706,20.5831 L 7.88876,20.6701
 L 8.2095,20.7471 L 8.5325,20.814 L 8.85745,20.8707 L 9.18401,20.9172 L 9.51187,20.9534 L 9.84071,20.9793
 L 10.1702,20.9948 z
" stroke="black" fill="lightgray" stroke-width="0.5"/></svg>
