<?xml version="1.0" standalone="no"?>
<!DOCTYPE svg PUBLIC "-//W3C//DTD SVG 1.1//EN" "http://www.w3.org/Graphics/SVG/1.1/DTD/svg11.dtd">
<svg width="52mm" height="25mm" viewBox="0 0 52 25" xmlns="http://www.w3.org/2000/svg" version="1.1">
<title>OpenSCAD Model</title>
<path d="
M 13.0496,24.9879 L 13.4416,24.9645 L 13.8326,24.9288 L 14.2224,24.8808 L 14.6104,24.8206 L 14.9964,24.7482
 L 15.3799,24.6637 L 15.7605,24.5673 L 16.1379,24.4589 L 16.5118,24.3387 L 16.8817,24.2069 L 17.2472,24.0635
 L 17.6081,23.9086 L 17.9639,23.7426 L 18.3144,23.5654 L 18.6591,23.3773 L 18.9977,23.1785 L 19.3299,22.9691
 L 19.6554,22.7494 L 19.9738,22.5196 L 20.2848,22.2799 L 20.5882,22.0305 L 20.8836,21.7718 L 21.1707,21.5039
 L 21.4492,21.2271 L 21.7189,20.9417 L 21.9795,20.6479 L 22.2308,20.3461 L 22.4724,20.0366 L 22.7042,19.7197
 L 22.926,19.3956 L 23.1374,19.0647 L 23.3384,18.7273 L 23.5286,18.3838 L 23.708,18.0345 L 23.8763,17.6797
 L 24.0334,17.3198 L 24.1791,16.9551 L 24.3133,16.5861 L 24.4358,16.213 L 24.5465,15.8363 L 24.6454,15.4562
 L 24.7323,15.0733 L 24.8071,14.6878 L 24.8697,14.3001 L 24.9201,13.9107 L 24.9583,13.5199 L 24.9842,13.1281
 L 24.9978,12.7356 L 24.999,12.3429 L 24.9879,11.9504 L 24.9645,11.5584 L 24.9288,11.1674 L 24.8808,10.7776
 L 24.8206,10.3896 L 24.7482,10.0036 L 24.6637,9.62013 L 24.5673,9.23949 L 24.4589,8.86206 L 24.3387,8.4882
 L 24.2069,8.11833 L 24.0635,7.75276 L 23.9086,7.39189 L 23.7426,7.03606 L 23.5654,6.68562 L 23.3773,6.34091
 L 23.1785,6.00229 L 22.9691,5.67007 L 22.7494,5.3446 L 22.5196,5.0262 L 22.2799,4.71516 L 22.0305,4.4118
 L 21.7718,4.11644 L 21.5039,3.82935 L 21.2271,3.5508 L 20.9417,3.2811 L 20.6479,3.02048 L 20.3461,2.76923
 L 20.0366,2.52757 L 19.7197,2.29576 L 19.3956,2.07402 L 19.0647,1.86258 L 18.7273,1.66162 L 18.3838,1.47137
 L 18.0345,1.29199 L 17.6797,1.12369 L 17.3198,0.966599 L 16.9551,0.820892 L 16.5861,0.686722 L 16.213,0.564194
 L 15.8363,0.453461 L 15.4562,0.354614 L 15.0733,0.267746 L 14.6878,0.192947 L 14.3001,0.13031 L 13.9107,0.0798645
 L 13.5199,0.041687 L 13.1281,0.0157928 L 12.7356,0.00222778 L 12.3429,0.000991821 L 11.9504,0.0121002 L 11.5584,0.0355225
 L 11.1674,0.0712433 L 10.7776,0.119247 L 10.3896,0.179443 L 10.0036,0.251816 L 9.62013,0.336273 L 9.23949,0.432739
 L 8.86206,0.541107 L 8.4882,0.661285 L 8.11833,0.793137 L 7.75276,0.936539 L 7.39189,1.09137 L 7.03606,1.25745
 L 6.68562,1.43462 L 6.34091,1.62271 L 6.00229,1.82153 L 5.67007,2.03091 L 5.3446,2.25061 L 5.0262,2.48042
 L 4.71516,2.72012 L 4.4118,2.96948 L 4.11644,3.22824 L 3.82935,3.49614 L 3.5508,3.77293 L 3.2811,4.05835
 L 3.02048,4.35208 L 2.76923,4.65387 L 2.52757,4.96339 L 2.29576,5.28035 L 2.07402,5.60443 L 1.86258,5.93532
 L 1.66162,6.27269 L 1.47137,6.61621 L 1.29199,6.96553 L 1.12369,7.32031 L 0.966599,7.68021 L 0.820892,8.04486
 L 0.686722,8.41391 L 0.564194,8.78699 L 0.453461,9.16373 L 0.354614,9.54378 L 0.267746,9.92673 L 0.192947,10.3122
 L 0.13031,10.6999 L 0.0798645,11.0893 L 0.041687,11.4801 L 0.0157928,11.8719 L 0.00222778,12.2644 L 0.000991821,12.6571
 L 0.0121002,13.0496 L 0.0355225,13.4416 L 0.0712433,13.8326 L 0.119247,14.2224 L 0.179443,14.6104 L 0.251816,14.9964
 L 0.336273,15.3799 L 0.432739,15.7605 L 0.541107,16.1379 L 0.661285,16.5118 L 0.793137,16.8817 L 0.936539,17.2472
 L 1.09137,17.6081 L 1.25745,17.9639 L 1.43462,18.3144 L 1.62271,18.6591 L 1.82153,18.9977 L 2.03091,19.3299
 L 2.25061,19.6554 L 2.48042,19.9738 L 2.72012,20.2848 L 2.96948,20.5882 L 3.22824,20.8836 L 3.49614,21.1707
 L 3.77293,21.4492 L 4.05835,21.7189 L 4.35208,21.9795 L 4.65387,22.2308 L 4.96339,22.4724 L 5.28035,22.7042
 L 5.60443,22.926 L 5.93532,23.1374 L 6.27269,23.3384 L 6.61621,23.5286 L 6.96553,23.708 L 7.32031,23.8763
 L 7.68021,24.0334 L 8.04486,24.1791 L 8.41391,24.3133 L 8.78699,24.4358 L 9.16373,24.5465 L 9.54378,24.6454
 L 9.92673,24.7323 L 10.3122,24.8071 L 10.6999,24.8697 L 11.0893,24.9201 L 11.4801,24.9583 L 11.8719,24.9842
 L 12.2644,24.9978 L 12.6571,24.999 z
M 12.0152,22.1378 L 11.6522,22.1127 L 11.2905,22.0739 L 10.9306,22.0215 L 10.5728,21.9556 L 10.2178,21.8762
 L 9.86603,21.7836 L 9.51799,21.6777 L 9.17421,21.5588 L 8.83514,21.427 L 8.50128,21.2825 L 8.17311,21.1256
 L 7.85109,20.9563 L 7.53566,20.7751 L 7.22729,20.5821 L 6.92644,20.3777 L 6.63348,20.162 L 6.34886,19.9354
 L 6.073,19.6983 L 5.80626,19.451 L 5.54903,19.1937 L 5.30168,18.927 L 5.06456,18.6511 L 4.838,18.3665
 L 4.62233,18.0736 L 4.41786,17.7727 L 4.22487,17.4643 L 4.04366,17.1489 L 3.87444,16.8269 L 3.71748,16.4987
 L 3.57301,16.1649 L 3.44122,15.8258 L 3.32231,15.482 L 3.21645,15.134 L 3.12376,14.7822 L 3.0444,14.4272
 L 2.97849,14.0694 L 2.9261,13.7095 L 2.88731,13.3478 L 2.8622,12.9848 L 2.85077,12.6213 L 2.85306,12.2575
 L 2.86905,11.8941 L 2.89873,11.5315 L 2.94206,11.1703 L 2.99896,10.811 L 3.06937,10.4541 L 3.15318,10.1001
 L 3.25027,9.74957 L 3.3605,9.40291 L 3.48373,9.06064 L 3.61977,8.72325 L 3.76843,8.39124 L 3.92949,8.06506
 L 4.10274,7.74519 L 4.28792,7.43207 L 4.48476,7.12616 L 4.69299,6.82788 L 4.91232,6.53766 L 5.14244,6.25592
 L 5.38301,5.98305 L 5.63368,5.71944 L 5.89413,5.46545 L 6.16396,5.22148 L 6.44278,4.98785 L 6.73022,4.76489
 L 7.02586,4.55292 L 7.32928,4.35225 L 7.64005,4.16315 L 7.95772,3.9859 L 8.28185,3.82074 L 8.61195,3.66792
 L 8.9476,3.52766 L 9.2883,3.40015 L 9.63356,3.28557 L 9.98288,3.18408 L 10.3358,3.09583 L 10.6918,3.02094
 L 11.0503,2.95952 L 11.4109,2.91165 L 11.7731,2.87743 L 12.1363,2.85686 L 12.5,2.85001 L 12.8637,2.85686
 L 13.2269,2.87743 L 13.5891,2.91165 L 13.9497,2.95952 L 14.3082,3.02094 L 14.6642,3.09583 L 15.0171,3.18408
 L 15.3664,3.28557 L 15.7117,3.40015 L 16.0524,3.52766 L 16.388,3.66792 L 16.7182,3.82074 L 17.0423,3.9859
 L 17.36,4.16315 L 17.6707,4.35225 L 17.9741,4.55292 L 18.2698,4.76489 L 18.5572,4.98785 L 18.836,5.22148
 L 19.1059,5.46545 L 19.3663,5.71944 L 19.617,5.98305 L 19.8576,6.25592 L 20.0877,6.53766 L 20.307,6.82788
 L 20.5152,7.12616 L 20.7121,7.43207 L 20.8973,7.74519 L 21.0705,8.06506 L 21.2316,8.39124 L 21.3802,8.72325
 L 21.5163,9.06064 L 21.6395,9.40291 L 21.7497,9.74957 L 21.8468,10.1001 L 21.9306,10.4541 L 22.001,10.811
 L 22.0579,11.1703 L 22.1013,11.5315 L 22.131,11.8941 L 22.1469,12.2575 L 22.1492,12.6213 L 22.1378,12.9848
 L 22.1127,13.3478 L 22.0739,13.7095 L 22.0215,14.0694 L 21.9556,14.4272 L 21.8762,14.7822 L 21.7836,15.134
 L 21.6777,15.482 L 21.5588,15.8258 L 21.427,16.1649 L 21.2825,16.4987 L 21.1256,16.8269 L 20.9563,17.1489
 L 20.7751,17.4643 L 20.5821,17.7727 L 20.3777,18.0736 L 20.162,18.3665 L 19.9354,18.6511 L 19.6983,18.927
 L 19.451,19.1937 L 19.1937,19.451 L 18.927,19.6983 L 18.6511,19.9354 L 18.3665,20.162 L 18.0736,20.3777
 L 17.7727,20.5821 L 17.4643,20.7751 L 17.1489,20.9563 L 16.8269,21.1256 L 16.4987,21.2825 L 16.1649,21.427
 L 15.8258,21.5588 L 15.482,21.6777 L 15.134,21.7836 L 14.7822,21.8762 L 14.4272,21.9556 L 14.0694,22.0215
 L 13.7095,22.0739 L 13.3478,22.1127 L 12.9848,22.1378 L 12.7425,22.1469 L 12.3787,22.1492 z
M 40.0496,24.9879 L 40.4416,24.9645 L 40.8326,24.9288 L 41.2224,24.8808 L 41.6104,24.8206 L 41.9964,24.7482
 L 42.3799,24.6637 L 42.7605,24.5673 L 43.1379,24.4589 L 43.5118,24.3387 L 43.8817,24.2069 L 44.2472,24.0635
 L 44.6081,23.9086 L 44.9639,23.7426 L 45.3144,23.5654 L 45.6591,23.3773 L 45.9977,23.1785 L 46.3299,22.9691
 L 46.6554,22.7494 L 46.9738,22.5196 L 47.2848,22.2799 L 47.5882,22.0305 L 47.8836,21.7718 L 48.1707,21.5039
 L 48.4492,21.2271 L 48.7189,20.9417 L 48.9795,20.6479 L 49.2308,20.3461 L 49.4724,20.0366 L 49.7042,19.7197
 L 49.926,19.3956 L 50.1374,19.0647 L 50.3384,18.7273 L 50.5286,18.3838 L 50.708,18.0345 L 50.8763,17.6797
 L 51.0334,17.3198 L 51.1791,16.9551 L 51.3133,16.5861 L 51.4358,16.213 L 51.5465,15.8363 L 51.6454,15.4562
 L 51.7323,15.0733 L 51.8071,14.6878 L 51.8697,14.3001 L 51.9201,13.9107 L 51.9583,13.5199 L 51.9842,13.1281
 L 51.9978,12.7356 L 51.999,12.3429 L 51.9879,11.9504 L 51.9645,11.5584 L 51.9288,11.1674 L 51.8808,10.7776
 L 51.8206,10.3896 L 51.7482,10.0036 L 51.6637,9.62013 L 51.5673,9.23949 L 51.4589,8.86206 L 51.3387,8.4882
 L 51.2069,8.11833 L 51.0635,7.75276 L 50.9086,7.39189 L 50.7426,7.03606 L 50.5654,6.68562 L 50.3773,6.34091
 L 50.1785,6.00229 L 49.9691,5.67007 L 49.7494,5.3446 L 49.5196,5.0262 L 49.2799,4.71516 L 49.0305,4.4118
 L 48.7718,4.11644 L 48.5039,3.82935 L 48.2271,3.5508 L 47.9417,3.2811 L 47.6479,3.02048 L 47.3461,2.76923
 L 47.0366,2.52757 L 46.7197,2.29576 L 46.3956,2.07402 L 46.0647,1.86258 L 45.7273,1.66162 L 45.3838,1.47137
 L 45.0345,1.29199 L 44.6797,1.12369 L 44.3198,0.966599 L 43.9551,0.820892 L 43.5861,0.686722 L 43.213,0.564194
 L 42.8363,0.453461 L 42.4562,0.354614 L 42.0733,0.267746 L 41.6878,0.192947 L 41.3001,0.13031 L 40.9107,0.0798645
 L 40.5199,0.041687 L 40.1281,0.0157928 L 39.7356,0.00222778 L 39.3429,0.000991821 L 38.9504,0.0121002 L 38.5584,0.0355225
 L 38.1674,0.0712433 L 37.7776,0.119247 L 37.3896,0.179443 L 37.0036,0.251816 L 36.6201,0.336273 L 36.2395,0.432739
 L 35.8621,0.541107 L 35.4882,0.661285 L 35.1183,0.793137 L 34.7528,0.936539 L 34.3919,1.09137 L 34.0361,1.25745
 L 33.6856,1.43462 L 33.3409,1.62271 L 33.0023,1.82153 L 32.6701,2.03091 L 32.3446,2.25061 L 32.0262,2.48042
 L 31.7152,2.72012 L 31.4118,2.96948 L 31.1164,3.22824 L 30.8293,3.49614 L 30.5508,3.77293 L 30.2811,4.05835
 L 30.0205,4.35208 L 29.7692,4.65387 L 29.5276,4.96339 L 29.2958,5.28035 L 29.074,5.60443 L 28.8626,5.93532
 L 28.6616,6.27269 L 28.4714,6.61621 L 28.292,6.96553 L 28.1237,7.32031 L 27.9666,7.68021 L 27.8209,8.04486
 L 27.6867,8.41391 L 27.5642,8.78699 L 27.4535,9.16373 L 27.3546,9.54378 L 27.2677,9.92673 L 27.1929,10.3122
 L 27.1303,10.6999 L 27.0799,11.0893 L 27.0417,11.4801 L 27.0158,11.8719 L 27.0022,12.2644 L 27.001,12.6571
 L 27.0121,13.0496 L 27.0355,13.4416 L 27.0712,13.8326 L 27.1192,14.2224 L 27.1794,14.6104 L 27.2518,14.9964
 L 27.3363,15.3799 L 27.4327,15.7605 L 27.5411,16.1379 L 27.6613,16.5118 L 27.7931,16.8817 L 27.9365,17.2472
 L 28.0914,17.6081 L 28.2574,17.9639 L 28.4346,18.3144 L 28.6227,18.6591 L 28.8215,18.9977 L 29.0309,19.3299
 L 29.2506,19.6554 L 29.4804,19.9738 L 29.7201,20.2848 L 29.9695,20.5882 L 30.2282,20.8836 L 30.4961,21.1707
 L 30.7729,21.4492 L 31.0583,21.7189 L 31.3521,21.9795 L 31.6539,22.2308 L 31.9634,22.4724 L 32.2803,22.7042
 L 32.6044,22.926 L 32.9353,23.1374 L 33.2727,23.3384 L 33.6162,23.5286 L 33.9655,23.708 L 34.3203,23.8763
 L 34.6802,24.0334 L 35.0449,24.1791 L 35.4139,24.3133 L 35.787,24.4358 L 36.1637,24.5465 L 36.5438,24.6454
 L 36.9267,24.7323 L 37.3122,24.8071 L 37.6999,24.8697 L 38.0893,24.9201 L 38.4801,24.9583 L 38.8719,24.9842
 L 39.2644,24.9978 L 39.6571,24.999 z
M 39.0573,19.5361 L 38.7044,19.505 L 38.3534,19.4561 L 38.0054,19.3897 L 37.6611,19.3059 L 37.3214,19.2049
 L 36.9873,19.087 L 36.6595,18.9524 L 36.3389,18.8016 L 36.0263,18.6348 L 35.7224,18.4525 L 35.4281,18.2552
 L 35.1441,18.0433 L 34.8711,17.8175 L 34.6098,17.5782 L 34.3608,17.326 L 34.1248,17.0617 L 33.9024,16.7859
 L 33.6941,16.4992 L 33.5005,16.2025 L 33.3221,15.8964 L 33.1592,15.5817 L 33.0124,15.2592 L 32.8819,14.9297
 L 32.7682,14.5941 L 32.6715,14.2533 L 32.592,13.9079 L 32.53,13.5591 L 32.4856,13.2076 L 32.4589,12.8542
 L 32.45,12.5 L 32.4589,12.1458 L 32.4856,11.7924 L 32.53,11.4409 L 32.592,11.0921 L 32.6715,10.7467
 L 32.7682,10.4059 L 32.8819,10.0703 L 33.0124,9.74083 L 33.1592,9.41833 L 33.3221,9.10364 L 33.5005,8.79753
 L 33.6941,8.50076 L 33.9024,8.2141 L 34.1248,7.93826 L 34.3608,7.67395 L 34.6098,7.42183 L 34.8711,7.18254
 L 35.1441,6.95668 L 35.4281,6.74481 L 35.7224,6.5475 L 36.0263,6.36522 L 36.3389,6.19843 L 36.6595,6.04756
 L 36.9873,5.91299 L 37.3214,5.79506 L 37.6611,5.69406 L 38.0054,5.61026 L 38.3534,5.54387 L 38.7044,5.49504
 L 39.0573,5.46391 L 39.4114,5.45056 L 39.7657,5.45502 L 40.1193,5.47726 L 40.4714,5.51726 L 40.821,5.57489
 L 41.1673,5.65001 L 41.5094,5.74243 L 41.8464,5.85193 L 42.1774,5.97821 L 42.5017,6.12097 L 42.8185,6.27986
 L 43.1268,6.45444 L 43.426,6.6443 L 43.7152,6.84895 L 43.9938,7.06789 L 44.2611,7.30054 L 44.5163,7.54633
 L 44.7589,7.80463 L 44.9882,8.07478 L 45.2036,8.35612 L 45.4046,8.64793 L 45.5907,8.94946 L 45.7614,9.25996
 L 45.9162,9.57866 L 46.0549,9.90472 L 46.177,10.2374 L 46.2823,10.5757 L 46.3704,10.9189 L 46.4412,11.2661
 L 46.4944,11.6164 L 46.53,11.9689 L 46.5478,12.3228 L 46.5478,12.6772 L 46.53,13.0311 L 46.4944,13.3836
 L 46.4412,13.7339 L 46.3704,14.0811 L 46.2823,14.4243 L 46.177,14.7626 L 46.0549,15.0953 L 45.9162,15.4213
 L 45.7614,15.74 L 45.5907,16.0505 L 45.4046,16.3521 L 45.2036,16.6439 L 44.9882,16.9252 L 44.7589,17.1954
 L 44.5163,17.4537 L 44.2611,17.6995 L 43.9938,17.9321 L 43.7152,18.151 L 43.426,18.3557 L 43.1268,18.5456
 L 42.8185,18.7201 L 42.5017,18.879 L 42.1774,19.0218 L 41.8464,19.1481 L 41.5094,19.2576 L 41.1673,19.35
 L 40.821,19.4251 L 40.4714,19.4827 L 40.1193,19.5227 L 39.7657,19.545 L 39.4114,19.5494 z
" stroke="black" fill="lightgray" stroke-width="0.5"/></svg>
