<?xml version="1.0" standalone="no"?>
<!DOCTYPE svg PUBLIC "-//W3C//DTD SVG 1.1//EN" "http://www.w3.org/Graphics/SVG/1.1/DTD/svg11.dtd">
<svg width="21mm" height="19mm" viewBox="0 2 21 19" xmlns="http://www.w3.org/2000/svg" version="1.1">
<title>OpenSCAD Model</title>
<path d="
M 10.3021,20.9981 L 10.6319,20.9992 L 10.9617,20.9898 L 11.2909,20.9702 L 11.6194,20.9402 L 11.9468,20.8998
 L 12.2728,20.8493 L 12.597,20.7885 L 12.9191,20.7175 L 13.2388,20.6365 L 13.5559,20.5455 L 13.8699,20.4445
 L 14.1806,20.3338 L 14.4877,20.2133 L 14.7908,20.0833 L 15.0897,19.9437 L 15.3841,19.7949 L 15.6736,19.6369
 L 15.9581,19.4699 L 16.2371,19.294 L 16.5105,19.1095 L 16.778,18.9164 L 17.0393,18.7151 L 17.2941,18.5056
 L 17.5422,18.2883 L 17.7834,18.0632 L 18.0173,17.8307 L 18.2439,17.591 L 18.4628,17.3443 L 18.6738,17.0908
 L 18.8768,16.8307 L 19.0715,16.5645 L 19.2578,16.2923 L 19.4354,16.0143 L 19.6042,15.7309 L 19.7641,15.4424
 L 19.9147,15.149 L 20.0561,14.8509 L 20.188,14.5486 L 20.3104,14.2423 L 20.4232,13.9323 L 20.5261,13.6189
 L 20.6191,13.3025 L 20.7021,12.9832 L 20.7751,12.6615 L 20.8379,12.3377 L 20.8905,12.0121 L 20.9329,11.685
 L 20.965,11.3567 L 20.9867,11.0276 L 20.9981,10.6979 L 20.9992,10.3681 L 20.9898,10.0383 L 20.9702,9.70908
 L 20.9402,9.38058 L 20.8998,9.05321 L 20.8493,8.72725 L 20.7885,8.40305 L 20.7175,8.08092 L 20.6365,7.76117
 L 20.5455,7.44412 L 20.4445,7.1301 L 20.3338,6.8194 L 20.2133,6.51233 L 20.0833,6.2092 L 19.9437,5.91029
 L 19.7949,5.61592 L 19.6369,5.32637 L 19.4699,5.04193 L 19.294,4.76286 L 19.1095,4.48947 L 18.9164,4.222
 L 18.7151,3.96074 L 18.5056,3.70592 L 18.2883,3.45781 L 18.0632,3.21664 L 17.8307,2.98268 L 17.591,2.75612
 L 17.5,2.67381 L 17.5,7.80754 L 17.6182,8.1376 L 17.7152,8.45287 L 17.7982,8.77208 L 17.8671,9.09465
 L 17.9218,9.41992 L 17.9621,9.7473 L 17.988,10.0761 L 17.9994,10.4058 L 17.9963,10.7356 L 17.9787,11.0649
 L 17.9466,11.3932 L 17.9001,11.7198 L 17.8394,12.044 L 17.7644,12.3652 L 17.6753,12.6828 L 17.5724,12.9961
 L 17.4558,13.3047 L 17.3258,13.6078 L 17.1825,13.9049 L 17.0264,14.1954 L 16.8576,14.4788 L 16.6765,14.7545
 L 16.4834,15.022 L 16.2788,15.2807 L 16.063,15.5301 L 15.8365,15.7699 L 15.5996,15.9994 L 15.3529,16.2183
 L 15.0968,16.4261 L 14.8318,16.6225 L 14.5584,16.8071 L 14.2772,16.9794 L 13.9886,17.1392 L 13.6933,17.2862
 L 13.3919,17.42 L 13.0848,17.5405 L 12.7728,17.6473 L 12.4563,17.7404 L 12.1361,17.8194 L 11.8127,17.8842
 L 11.4867,17.9348 L 11.1589,17.971 L 10.8298,17.9927 L 10.5,18 L 10.1702,17.9927 L 9.84113,17.971
 L 9.51328,17.9348 L 9.18733,17.8842 L 8.86394,17.8194 L 8.5437,17.7404 L 8.22725,17.6473 L 7.91519,17.5405
 L 7.60812,17.42 L 7.30666,17.2862 L 7.01137,17.1392 L 6.72284,16.9794 L 6.4416,16.8071 L 6.16821,16.6225
 L 5.9032,16.4261 L 5.64709,16.2183 L 5.40036,15.9994 L 5.16348,15.7699 L 4.93695,15.5301 L 4.72116,15.2807
 L 4.51656,15.022 L 4.32352,14.7545 L 4.14243,14.4788 L 3.97363,14.1954 L 3.81746,13.9049 L 3.67421,13.6078
 L 3.54417,13.3047 L 3.42758,12.9961 L 3.32466,12.6828 L 3.23564,12.3652 L 3.16064,12.044 L 3.09987,11.7198
 L 3.05339,11.3932 L 3.02132,11.0649 L 3.00371,10.7356 L 3.0006,10.4058 L 3.01199,10.0761 L 3.03787,9.7473
 L 3.07819,9.41992 L 3.13286,9.09465 L 3.20177,8.77208 L 3.28481,8.45287 L 3.38179,8.1376 L 3.5,7.80754
 L 3.5,2.67381 L 3.26431,2.89114 L 3.02888,3.12218 L 2.80083,3.3605 L 2.58037,3.60585 L 2.36772,3.85802
 L 2.1631,4.11674 L 1.96672,4.38176 L 1.77875,4.65282 L 1.5994,4.92964 L 1.42882,5.21196 L 1.26718,5.49951
 L 1.11467,5.79198 L 0.97142,6.08911 L 0.83757,6.39058 L 0.713257,6.69612 L 0.598602,7.0054 L 0.493729,7.31813
 L 0.398712,7.63402 L 0.313675,7.95271 L 0.238693,8.27393 L 0.173828,8.59735 L 0.119171,8.92264 L 0.0747375,9.24948
 L 0.0406036,9.57758 L 0.0167847,9.90657 L 0.00332642,10.2361 L 0.000213623,10.566 L 0.00746155,10.8957 L 0.0250702,11.2251
 L 0.0530243,11.5538 L 0.0912781,11.8814 L 0.139801,12.2077 L 0.198563,12.5323 L 0.267471,12.8548 L 0.346497,13.1751
 L 0.435532,13.4927 L 0.5345,13.8074 L 0.643295,14.1187 L 0.761841,14.4266 L 0.889969,14.7305 L 1.0276,15.0303
 L 1.17458,15.3256 L 1.33075,15.6161 L 1.49597,15.9016 L 1.67009,16.1818 L 1.85292,16.4563 L 2.04428,16.725
 L 2.24397,16.9875 L 2.45183,17.2437 L 2.66763,17.4931 L 2.89114,17.7357 L 3.12218,17.9711 L 3.3605,18.1992
 L 3.60585,18.4196 L 3.85802,18.6323 L 4.11674,18.8369 L 4.38176,19.0333 L 4.65282,19.2213 L 4.92964,19.4006
 L 5.21196,19.5712 L 5.49951,19.7328 L 5.79198,19.8853 L 6.08911,20.0286 L 6.39058,20.1624 L 6.69612,20.2867
 L 7.0054,20.4014 L 7.31813,20.5063 L 7.63402,20.6013 L 7.95271,20.6863 L 8.27393,20.7613 L 8.59735,20.8262
 L 8.92264,20.8808 L 9.24948,20.9253 L 9.57758,20.9594 L 9.90657,20.9832 L 10.2361,20.9967 z
" stroke="black" fill="lightgray" stroke-width="0.5"/></svg>
