<?xml version="1.0" standalone="no"?>
<!DOCTYPE svg PUBLIC "-//W3C//DTD SVG 1.1//EN" "http://www.w3.org/Graphics/SVG/1.1/DTD/svg11.dtd">
<svg width="52mm" height="25mm" viewBox="0 0 52 25" xmlns="http://www.w3.org/2000/svg" version="1.1">
<title>OpenSCAD Model</title>
<path d="
M 13.0496,24.9879 L 13.4416,24.9645 L 13.8326,24.9288 L 14.2224,24.8808 L 14.6104,24.8206 L 14.9964,24.7482
 L 15.3799,24.6637 L 15.7605,24.5673 L 16.1379,24.4589 L 16.5118,24.3387 L 16.8817,24.2069 L 17.2472,24.0635
 L 17.6081,23.9086 L 17.9639,23.7426 L 18.3144,23.5654 L 18.6591,23.3773 L 18.9977,23.1785 L 19.3299,22.9691
 L 19.6554,22.7494 L 19.9738,22.5196 L 20.2848,22.2799 L 20.5882,22.0305 L 20.8836,21.7718 L 21.1707,21.5039
 L 21.4492,21.2271 L 21.7189,20.9417 L 21.9795,20.6479 L 22.2308,20.3461 L 22.4724,20.0366 L 22.7042,19.7197
 L 22.926,19.3956 L 23.1374,19.0647 L 23.3384,18.7273 L 23.5286,18.3838 L 23.708,18.0345 L 23.8763,17.6797
 L 24.0334,17.3198 L 24.1791,16.9551 L 24.3133,16.5861 L 24.4358,16.213 L 24.5465,15.8363 L 24.6454,15.4562
 L 24.7323,15.0733 L 24.8071,14.6878 L 24.8697,14.3001 L 24.9201,13.9107 L 24.9583,13.5199 L 24.9842,13.1281
 L 24.9978,12.7356 L 24.999,12.3429 L 24.9879,11.9504 L 24.9645,11.5584 L 24.9288,11.1674 L 24.8808,10.7776
 L 24.8206,10.3896 L 24.7482,10.0036 L 24.6637,9.62013 L 24.5673,9.23949 L 24.4589,8.86206 L 24.3387,8.4882
 L 24.2069,8.11833 L 24.0635,7.75276 L 23.9086,7.39189 L 23.7426,7.03606 L 23.5654,6.68562 L 23.3773,6.34091
 L 23.1785,6.00229 L 22.9691,5.67007 L 22.7494,5.3446 L 22.5196,5.0262 L 22.2799,4.71516 L 22.0305,4.4118
 L 21.7718,4.11644 L 21.5039,3.82935 L 21.2271,3.5508 L 20.9417,3.2811 L 20.6479,3.02048 L 20.3461,2.76923
 L 20.0366,2.52757 L 19.7197,2.29576 L 19.3956,2.07402 L 19.0647,1.86258 L 18.7273,1.66162 L 18.3838,1.47137
 L 18.0345,1.29199 L 17.6797,1.12369 L 17.3198,0.966599 L 16.9551,0.820892 L 16.5861,0.686722 L 16.213,0.564194
 L 15.8363,0.453461 L 15.4562,0.354614 L 15.0733,0.267746 L 14.6878,0.192947 L 14.3001,0.13031 L 13.9107,0.0798645
 L 13.5199,0.041687 L 13.1281,0.0157928 L 12.7356,0.00222778 L 12.3429,0.000991821 L 11.9504,0.0121002 L 11.5584,0.0355225
 L 11.1674,0.0712433 L 10.7776,0.119247 L 10.3896,0.179443 L 10.0036,0.251816 L 9.62013,0.336273 L 9.23949,0.432739
 L 8.86206,0.541107 L 8.4882,0.661285 L 8.11833,0.793137 L 7.75276,0.936539 L 7.39189,1.09137 L 7.03606,1.25745
 L 6.68562,1.43462 L 6.34091,1.62271 L 6.00229,1.82153 L 5.67007,2.03091 L 5.3446,2.25061 L 5.0262,2.48042
 L 4.71516,2.72012 L 4.4118,2.96948 L 4.11644,3.22824 L 3.82935,3.49614 L 3.5508,3.77293 L 3.2811,4.05835
 L 3.02048,4.35208 L 2.76923,4.65387 L 2.52757,4.96339 L 2.29576,5.28035 L 2.07402,5.60443 L 1.86258,5.93532
 L 1.66162,6.27269 L 1.47137,6.61621 L 1.29199,6.96553 L 1.12369,7.32031 L 0.966599,7.68021 L 0.820892,8.04486
 L 0.686722,8.41391 L 0.564194,8.78699 L 0.453461,9.16373 L 0.354614,9.54378 L 0.267746,9.92673 L 0.192947,10.3122
 L 0.13031,10.6999 L 0.0798645,11.0893 L 0.041687,11.4801 L 0.0157928,11.8719 L 0.00222778,12.2644 L 0.000991821,12.6571
 L 0.0121002,13.0496 L 0.0355225,13.4416 L 0.0712433,13.8326 L 0.119247,14.2224 L 0.179443,14.6104 L 0.251816,14.9964
 L 0.336273,15.3799 L 0.432739,15.7605 L 0.541107,16.1379 L 0.661285,16.5118 L 0.793137,16.8817 L 0.936539,17.2472
 L 1.09137,17.6081 L 1.25745,17.9639 L 1.43462,18.3144 L 1.62271,18.6591 L 1.82153,18.9977 L 2.03091,19.3299
 L 2.25061,19.6554 L 2.48042,19.9738 L 2.72012,20.2848 L 2.96948,20.5882 L 3.22824,20.8836 L 3.49614,21.1707
 L 3.77293,21.4492 L 4.05835,21.7189 L 4.35208,21.9795 L 4.65387,22.2308 L 4.96339,22.4724 L 5.28035,22.7042
 L 5.60443,22.926 L 5.93532,23.1374 L 6.27269,23.3384 L 6.61621,23.5286 L 6.96553,23.708 L 7.32031,23.8763
 L 7.68021,24.0334 L 8.04486,24.1791 L 8.41391,24.3133 L 8.78699,24.4358 L 9.16373,24.5465 L 9.54378,24.6454
 L 9.92673,24.7323 L 10.3122,24.8071 L 10.6999,24.8697 L 11.0893,24.9201 L 11.4801,24.9583 L 11.8719,24.9842
 L 12.2644,24.9978 L 12.6571,24.999 z
M 12.0177,22.0879 L 11.6566,22.0629 L 11.2968,22.0243 L 10.9387,21.9722 L 10.5828,21.9066 L 10.2296,21.8277
 L 9.87967,21.7355 L 9.53345,21.6301 L 9.19144,21.5118 L 8.85413,21.3807 L 8.522,21.237 L 8.19553,21.0809
 L 7.87517,20.9125 L 7.56139,20.7323 L 7.25462,20.5403 L 6.95531,20.3369 L 6.66388,20.1223 L 6.38074,19.8969
 L 6.10629,19.661 L 5.84094,19.415 L 5.58504,19.1591 L 5.33897,18.8937 L 5.10307,18.6193 L 4.8777,18.3361
 L 4.66315,18.0447 L 4.45973,17.7454 L 4.26775,17.4386 L 4.08746,17.1248 L 3.91913,16.8045 L 3.76299,16.478
 L 3.61926,16.1459 L 3.48816,15.8086 L 3.36986,15.4666 L 3.26454,15.1203 L 3.17235,14.7704 L 3.0934,14.4172
 L 3.02782,14.0613 L 2.97571,13.7032 L 2.93712,13.3434 L 2.91214,12.9823 L 2.90077,12.6206 L 2.90305,12.2588
 L 2.91895,11.8972 L 2.94847,11.5365 L 2.99158,11.1772 L 3.04819,10.8198 L 3.11824,10.4647 L 3.20161,10.1126
 L 3.2982,9.76382 L 3.40787,9.41895 L 3.53046,9.07846 L 3.66579,8.74281 L 3.81367,8.41252 L 3.97389,8.08804
 L 4.14624,7.76982 L 4.33046,7.45833 L 4.52629,7.15401 L 4.73344,6.85727 L 4.95164,6.56856 L 5.18056,6.28827
 L 5.41988,6.01682 L 5.66927,5.75456 L 5.92836,5.50191 L 6.19678,5.2592 L 6.47417,5.02676 L 6.76012,4.80496
 L 7.05423,4.5941 L 7.35606,4.39445 L 7.66522,4.20634 L 7.98125,4.03001 L 8.3037,3.86572 L 8.63211,3.7137
 L 8.96602,3.57416 L 9.30495,3.4473 L 9.64841,3.33331 L 9.99593,3.23235 L 10.347,3.14455 L 10.7011,3.07005
 L 11.0578,3.00896 L 11.4166,2.96133 L 11.7769,2.92728 L 12.1382,2.90683 L 12.5,2.90001 L 12.8618,2.90683
 L 13.2231,2.92728 L 13.5834,2.96133 L 13.9422,3.00896 L 14.2989,3.07005 L 14.653,3.14455 L 15.0041,3.23235
 L 15.3516,3.33331 L 15.6951,3.4473 L 16.034,3.57416 L 16.3679,3.7137 L 16.6963,3.86572 L 17.0188,4.03001
 L 17.3348,4.20634 L 17.6439,4.39445 L 17.9458,4.5941 L 18.2399,4.80496 L 18.5258,5.02676 L 18.8032,5.2592
 L 19.0716,5.50191 L 19.3307,5.75456 L 19.5801,6.01682 L 19.8194,6.28827 L 20.0484,6.56856 L 20.2666,6.85727
 L 20.4737,7.15401 L 20.6695,7.45833 L 20.8538,7.76982 L 21.0261,8.08804 L 21.1863,8.41252 L 21.3342,8.74281
 L 21.4695,9.07846 L 21.5921,9.41895 L 21.7018,9.76382 L 21.7984,10.1126 L 21.8818,10.4647 L 21.9518,10.8198
 L 22.0084,11.1772 L 22.0515,11.5365 L 22.0811,11.8972 L 22.097,12.2588 L 22.0992,12.6206 L 22.0879,12.9823
 L 22.0629,13.3434 L 22.0243,13.7032 L 21.9722,14.0613 L 21.9066,14.4172 L 21.8277,14.7704 L 21.7355,15.1203
 L 21.6301,15.4666 L 21.5118,15.8086 L 21.3807,16.1459 L 21.237,16.478 L 21.0809,16.8045 L 20.9125,17.1248
 L 20.7323,17.4386 L 20.5403,17.7454 L 20.3369,18.0447 L 20.1223,18.3361 L 19.8969,18.6193 L 19.661,18.8937
 L 19.415,19.1591 L 19.1591,19.415 L 18.8937,19.661 L 18.6193,19.8969 L 18.3361,20.1223 L 18.0447,20.3369
 L 17.7454,20.5403 L 17.4386,20.7323 L 17.1248,20.9125 L 16.8045,21.0809 L 16.478,21.237 L 16.1459,21.3807
 L 15.8086,21.5118 L 15.4666,21.6301 L 15.1203,21.7355 L 14.7704,21.8277 L 14.4172,21.9066 L 14.0613,21.9722
 L 13.7032,22.0243 L 13.3434,22.0629 L 12.9823,22.0879 L 12.7412,22.097 L 12.3794,22.0992 z
M 40.0496,24.9879 L 40.4416,24.9645 L 40.8326,24.9288 L 41.2224,24.8808 L 41.6104,24.8206 L 41.9964,24.7482
 L 42.3799,24.6637 L 42.7605,24.5673 L 43.1379,24.4589 L 43.5118,24.3387 L 43.8817,24.2069 L 44.2472,24.0635
 L 44.6081,23.9086 L 44.9639,23.7426 L 45.3144,23.5654 L 45.6591,23.3773 L 45.9977,23.1785 L 46.3299,22.9691
 L 46.6554,22.7494 L 46.9738,22.5196 L 47.2848,22.2799 L 47.5882,22.0305 L 47.8836,21.7718 L 48.1707,21.5039
 L 48.4492,21.2271 L 48.7189,20.9417 L 48.9795,20.6479 L 49.2308,20.3461 L 49.4724,20.0366 L 49.7042,19.7197
 L 49.926,19.3956 L 50.1374,19.0647 L 50.3384,18.7273 L 50.5286,18.3838 L 50.708,18.0345 L 50.8763,17.6797
 L 51.0334,17.3198 L 51.1791,16.9551 L 51.3133,16.5861 L 51.4358,16.213 L 51.5465,15.8363 L 51.6454,15.4562
 L 51.7323,15.0733 L 51.8071,14.6878 L 51.8697,14.3001 L 51.9201,13.9107 L 51.9583,13.5199 L 51.9842,13.1281
 L 51.9978,12.7356 L 51.999,12.3429 L 51.9879,11.9504 L 51.9645,11.5584 L 51.9288,11.1674 L 51.8808,10.7776
 L 51.8206,10.3896 L 51.7482,10.0036 L 51.6637,9.62013 L 51.5673,9.23949 L 51.4589,8.86206 L 51.3387,8.4882
 L 51.2069,8.11833 L 51.0635,7.75276 L 50.9086,7.39189 L 50.7426,7.03606 L 50.5654,6.68562 L 50.3773,6.34091
 L 50.1785,6.00229 L 49.9691,5.67007 L 49.7494,5.3446 L 49.5196,5.0262 L 49.2799,4.71516 L 49.0305,4.4118
 L 48.7718,4.11644 L 48.5039,3.82935 L 48.2271,3.5508 L 47.9417,3.2811 L 47.6479,3.02048 L 47.3461,2.76923
 L 47.0366,2.52757 L 46.7197,2.29576 L 46.3956,2.07402 L 46.0647,1.86258 L 45.7273,1.66162 L 45.3838,1.47137
 L 45.0345,1.29199 L 44.6797,1.12369 L 44.3198,0.966599 L 43.9551,0.820892 L 43.5861,0.686722 L 43.213,0.564194
 L 42.8363,0.453461 L 42.4562,0.354614 L 42.0733,0.267746 L 41.6878,0.192947 L 41.3001,0.13031 L 40.9107,0.0798645
 L 40.5199,0.041687 L 40.1281,0.0157928 L 39.7356,0.00222778 L 39.3429,0.000991821 L 38.9504,0.0121002 L 38.5584,0.0355225
 L 38.1674,0.0712433 L 37.7776,0.119247 L 37.3896,0.179443 L 37.0036,0.251816 L 36.6201,0.336273 L 36.2395,0.432739
 L 35.8621,0.541107 L 35.4882,0.661285 L 35.1183,0.793137 L 34.7528,0.936539 L 34.3919,1.09137 L 34.0361,1.25745
 L 33.6856,1.43462 L 33.3409,1.62271 L 33.0023,1.82153 L 32.6701,2.03091 L 32.3446,2.25061 L 32.0262,2.48042
 L 31.7152,2.72012 L 31.4118,2.96948 L 31.1164,3.22824 L 30.8293,3.49614 L 30.5508,3.77293 L 30.2811,4.05835
 L 30.0205,4.35208 L 29.7692,4.65387 L 29.5276,4.96339 L 29.2958,5.28035 L 29.074,5.60443 L 28.8626,5.93532
 L 28.6616,6.27269 L 28.4714,6.61621 L 28.292,6.96553 L 28.1237,7.32031 L 27.9666,7.68021 L 27.8209,8.04486
 L 27.6867,8.41391 L 27.5642,8.78699 L 27.4535,9.16373 L 27.3546,9.54378 L 27.2677,9.92673 L 27.1929,10.3122
 L 27.1303,10.6999 L 27.0799,11.0893 L 27.0417,11.4801 L 27.0158,11.8719 L 27.0022,12.2644 L 27.001,12.6571
 L 27.0121,13.0496 L 27.0355,13.4416 L 27.0712,13.8326 L 27.1192,14.2224 L 27.1794,14.6104 L 27.2518,14.9964
 L 27.3363,15.3799 L 27.4327,15.7605 L 27.5411,16.1379 L 27.6613,16.5118 L 27.7931,16.8817 L 27.9365,17.2472
 L 28.0914,17.6081 L 28.2574,17.9639 L 28.4346,18.3144 L 28.6227,18.6591 L 28.8215,18.9977 L 29.0309,19.3299
 L 29.2506,19.6554 L 29.4804,19.9738 L 29.7201,20.2848 L 29.9695,20.5882 L 30.2282,20.8836 L 30.4961,21.1707
 L 30.7729,21.4492 L 31.0583,21.7189 L 31.3521,21.9795 L 31.6539,22.2308 L 31.9634,22.4724 L 32.2803,22.7042
 L 32.6044,22.926 L 32.9353,23.1374 L 33.2727,23.3384 L 33.6162,23.5286 L 33.9655,23.708 L 34.3203,23.8763
 L 34.6802,24.0334 L 35.0449,24.1791 L 35.4139,24.3133 L 35.787,24.4358 L 36.1637,24.5465 L 36.5438,24.6454
 L 36.9267,24.7323 L 37.3122,24.8071 L 37.6999,24.8697 L 38.0893,24.9201 L 38.4801,24.9583 L 38.8719,24.9842
 L 39.2644,24.9978 L 39.6571,24.999 z
M 39.0668,19.3864 L 38.7213,19.3559 L 38.3778,19.3081 L 38.0372,19.2431 L 37.7002,19.1611 L 37.3678,19.0623
 L 37.0408,18.9469 L 36.72,18.8152 L 36.4062,18.6675 L 36.1002,18.5043 L 35.8028,18.3259 L 35.5148,18.1327
 L 35.2368,17.9254 L 34.9696,17.7043 L 34.7138,17.4701 L 34.4701,17.2234 L 34.2392,16.9647 L 34.0215,16.6947
 L 33.8176,16.4142 L 33.6281,16.1237 L 33.4535,15.8241 L 33.2941,15.5161 L 33.1504,15.2005 L 33.0228,14.878
 L 32.9114,14.5496 L 32.8168,14.216 L 32.739,13.878 L 32.6783,13.5365 L 32.6348,13.1925 L 32.6087,12.8467
 L 32.6,12.5 L 32.6087,12.1533 L 32.6348,11.8075 L 32.6783,11.4635 L 32.739,11.122 L 32.8168,10.784
 L 32.9114,10.4504 L 33.0228,10.122 L 33.1504,9.79953 L 33.2941,9.4839 L 33.4535,9.1759 L 33.6281,8.8763
 L 33.8176,8.58585 L 34.0215,8.30528 L 34.2392,8.03532 L 34.4701,7.77663 L 34.7138,7.52988 L 34.9696,7.29567
 L 35.2368,7.07462 L 35.5148,6.86726 L 35.8028,6.67415 L 36.1002,6.49574 L 36.4062,6.3325 L 36.72,6.18484
 L 37.0408,6.05313 L 37.3678,5.93771 L 37.7002,5.83887 L 38.0372,5.75685 L 38.3778,5.69188 L 38.7213,5.64409
 L 39.0668,5.61362 L 39.4133,5.60056 L 39.7601,5.6049 L 40.1062,5.62668 L 40.4507,5.66582 L 40.7929,5.72223
 L 41.1318,5.79575 L 41.4666,5.8862 L 41.7964,5.99338 L 42.1205,6.11697 L 42.4379,6.2567 L 42.7478,6.4122
 L 43.0496,6.58307 L 43.3424,6.76889 L 43.6255,6.96919 L 43.8982,7.18347 L 44.1598,7.41116 L 44.4096,7.65172
 L 44.647,7.90453 L 44.8714,8.16893 L 45.0822,8.44429 L 45.2789,8.72989 L 45.4611,9.02501 L 45.6281,9.3289
 L 45.7797,9.64082 L 45.9155,9.95995 L 46.035,10.2855 L 46.138,10.6166 L 46.2242,10.9525 L 46.2935,11.2923
 L 46.3456,11.6352 L 46.3804,11.9803 L 46.3978,12.3266 L 46.3978,12.6734 L 46.3804,13.0197 L 46.3456,13.3648
 L 46.2935,13.7077 L 46.2242,14.0475 L 46.138,14.3834 L 46.035,14.7145 L 45.9155,15.0401 L 45.7797,15.3592
 L 45.6281,15.6711 L 45.4611,15.975 L 45.2789,16.2701 L 45.0822,16.5557 L 44.8714,16.8311 L 44.647,17.0955
 L 44.4096,17.3483 L 44.1598,17.5888 L 43.8982,17.8165 L 43.6255,18.0308 L 43.3424,18.2311 L 43.0496,18.4169
 L 42.7478,18.5878 L 42.4379,18.7433 L 42.1205,18.883 L 41.7964,19.0066 L 41.4666,19.1138 L 41.1318,19.2043
 L 40.7929,19.2778 L 40.4507,19.3342 L 40.1062,19.3733 L 39.7601,19.3951 L 39.4133,19.3994 z
" stroke="black" fill="lightgray" stroke-width="0.5"/></svg>
