<?xml version="1.0" standalone="no"?>
<!DOCTYPE svg PUBLIC "-//W3C//DTD SVG 1.1//EN" "http://www.w3.org/Graphics/SVG/1.1/DTD/svg11.dtd">
<svg width="65mm" height="21mm" viewBox="0 0 65 21" xmlns="http://www.w3.org/2000/svg" version="1.1">
<title>OpenSCAD Model</title>
<path d="
M 54.9617,20.9898 L 55.2909,20.9702 L 55.6194,20.9402 L 55.9468,20.8998 L 56.2728,20.8493 L 56.597,20.7885
 L 56.9191,20.7175 L 57.2388,20.6365 L 57.5559,20.5455 L 57.8699,20.4445 L 58.1806,20.3338 L 58.4877,20.2133
 L 58.7908,20.0833 L 59.0897,19.9437 L 59.3841,19.7949 L 59.6736,19.6369 L 59.9581,19.4699 L 60.2371,19.294
 L 60.5105,19.1095 L 60.778,18.9164 L 61.0393,18.7151 L 61.2941,18.5056 L 61.5422,18.2883 L 61.7834,18.0632
 L 62.0173,17.8307 L 62.2439,17.591 L 62.4628,17.3443 L 62.6738,17.0908 L 62.8768,16.8307 L 63.0715,16.5645
 L 63.2578,16.2923 L 63.4354,16.0143 L 63.6042,15.7309 L 63.7641,15.4424 L 63.9147,15.149 L 64.0561,14.8509
 L 64.188,14.5486 L 64.3104,14.2423 L 64.4232,13.9323 L 64.5261,13.6189 L 64.6191,13.3025 L 64.7021,12.9832
 L 64.7751,12.6615 L 64.8379,12.3377 L 64.8905,12.0121 L 64.9329,11.685 L 64.965,11.3567 L 64.9867,11.0276
 L 64.9981,10.6979 L 64.9992,10.3681 L 64.9898,10.0383 L 64.9702,9.70908 L 64.9402,9.38058 L 64.8998,9.05321
 L 64.8493,8.72725 L 64.7885,8.40305 L 64.7175,8.08092 L 64.6365,7.76117 L 64.5455,7.44412 L 64.4445,7.1301
 L 64.3338,6.8194 L 64.2133,6.51233 L 64.0833,6.2092 L 63.9437,5.91029 L 63.7949,5.61592 L 63.6369,5.32637
 L 63.4699,5.04193 L 63.294,4.76286 L 63.1095,4.48947 L 62.9164,4.222 L 62.7151,3.96074 L 62.5056,3.70592
 L 62.2883,3.45781 L 62.0632,3.21664 L 61.8307,2.98268 L 61.591,2.75612 L 61.3443,2.5372 L 61.0908,2.32616
 L 60.8307,2.12317 L 60.5645,1.92845 L 60.2923,1.74219 L 60.0143,1.56456 L 59.7309,1.39577 L 59.4424,1.23595
 L 59.149,1.08528 L 58.8509,0.943893 L 58.5486,0.811951 L 58.2423,0.68956 L 57.9323,0.576843 L 57.6189,0.473923
 L 57.3025,0.380905 L 56.9832,0.297867 L 56.6615,0.224915 L 56.3377,0.162079 L 56.0121,0.109451 L 55.685,0.0670929
 L 55.3567,0.0350189 L 55.0276,0.0132751 L 54.6979,0.00187683 L 54.3681,0.000839233 L 54.0383,0.0101624 L 53.7091,0.0298462
 L 53.3806,0.059845 L 53.0532,0.100159 L 52.7272,0.150742 L 52.403,0.211533 L 52.0809,0.282471 L 51.7612,0.363495
 L 51.4441,0.454529 L 51.1301,0.555481 L 50.8194,0.666229 L 50.5123,0.786697 L 50.2092,0.916748 L 49.9103,1.05626
 L 49.6159,1.20508 L 49.3264,1.36308 L 49.0419,1.53009 L 48.7629,1.70596 L 48.4895,1.8905 L 48.222,2.08356
 L 47.9607,2.2849 L 47.7059,2.49435 L 47.4578,2.71172 L 47.2166,2.93677 L 46.9827,3.16927 L 46.7561,3.40901
 L 46.5372,3.65575 L 46.3262,3.90924 L 46.1232,4.16925 L 45.9285,4.4355 L 45.7422,4.70773 L 45.5646,4.98567
 L 45.3958,5.26906 L 45.2359,5.55762 L 45.0853,5.85104 L 44.9439,6.14906 L 44.812,6.45137 L 44.6896,6.75769
 L 44.5768,7.06769 L 44.4739,7.38107 L 44.3809,7.69754 L 44.2979,8.01677 L 44.2249,8.33846 L 44.1621,8.66226
 L 44.1095,8.9879 L 44.0671,9.31502 L 44.035,9.64331 L 44.0133,9.97244 L 44.0019,10.3021 L 44.0008,10.6319
 L 44.0102,10.9617 L 44.0298,11.2909 L 44.0598,11.6194 L 44.1002,11.9468 L 44.1507,12.2728 L 44.2115,12.597
 L 44.2825,12.9191 L 44.3635,13.2388 L 44.4545,13.5559 L 44.5555,13.8699 L 44.6662,14.1806 L 44.7867,14.4877
 L 44.9167,14.7908 L 45.0563,15.0897 L 45.2051,15.3841 L 45.3631,15.6736 L 45.5301,15.9581 L 45.706,16.2371
 L 45.8905,16.5105 L 46.0836,16.778 L 46.2849,17.0393 L 46.4944,17.2941 L 46.7117,17.5422 L 46.9368,17.7834
 L 47.1693,18.0173 L 47.409,18.2439 L 47.6557,18.4628 L 47.9092,18.6738 L 48.1693,18.8768 L 48.4355,19.0715
 L 48.7077,19.2578 L 48.9857,19.4354 L 49.2691,19.6042 L 49.5576,19.7641 L 49.851,19.9147 L 50.1491,20.0561
 L 50.4514,20.188 L 50.7577,20.3104 L 51.0677,20.4232 L 51.3811,20.5261 L 51.6975,20.6191 L 52.0168,20.7021
 L 52.3385,20.7751 L 52.6623,20.8379 L 52.9879,20.8905 L 53.315,20.9329 L 53.6433,20.965 L 53.9724,20.9867
 L 54.3021,20.9981 L 54.6319,20.9992 z
M 54.0761,17.988 L 53.7473,17.9621 L 53.4199,17.9218 L 53.0947,17.8671 L 52.7721,17.7982 L 52.4529,17.7152
 L 52.1376,17.6182 L 51.8269,17.5075 L 51.5214,17.3831 L 51.2216,17.2455 L 50.9282,17.0949 L 50.6417,16.9314
 L 50.3627,16.7556 L 50.0916,16.5676 L 49.8291,16.3679 L 49.5756,16.1569 L 49.3316,15.9349 L 49.0977,15.7024
 L 48.8742,15.4598 L 48.6615,15.2077 L 48.4602,14.9464 L 48.2705,14.6766 L 48.0929,14.3986 L 47.9277,14.1131
 L 47.7752,13.8207 L 47.6357,13.5218 L 47.5095,13.2171 L 47.3968,12.9071 L 47.2978,12.5924 L 47.2128,12.2737
 L 47.1418,11.9516 L 47.0851,11.6267 L 47.0428,11.2996 L 47.0148,10.9709 L 47.0013,10.6414 L 47.0024,10.3115
 L 47.0179,9.98206 L 47.0479,9.65358 L 47.0923,9.32675 L 47.1511,9.00218 L 47.2241,8.68051 L 47.3111,8.36237
 L 47.412,8.04834 L 47.5267,7.73907 L 47.6548,7.43513 L 47.7962,7.13713 L 47.9505,6.84563 L 48.1176,6.5612
 L 48.2969,6.28438 L 48.4883,6.01572 L 48.6912,5.75574 L 48.9055,5.50491 L 49.1305,5.26376 L 49.3659,5.03275
 L 49.6113,4.81229 L 49.8661,4.60284 L 50.1298,4.4048 L 50.4021,4.21855 L 50.6822,4.04445 L 50.9697,3.88283
 L 51.2641,3.73401 L 51.5647,3.59827 L 51.871,3.47588 L 52.1824,3.36708 L 52.4982,3.27208 L 52.818,3.19106
 L 53.141,3.12418 L 53.4666,3.07155 L 53.7942,3.03329 L 54.1232,3.00948 L 54.4529,3.00015 L 54.7827,3.00534
 L 55.1119,3.02501 L 55.44,3.05914 L 55.7663,3.10767 L 56.09,3.1705 L 56.4108,3.2475 L 56.7278,3.33852
 L 57.0405,3.44341 L 57.3483,3.56194 L 57.6506,3.69388 L 57.9468,3.83899 L 58.2364,3.99698 L 58.5187,4.16754
 L 58.7932,4.35037 L 59.0595,4.54507 L 59.3169,4.75131 L 59.565,4.96866 L 59.8033,5.1967 L 60.0313,5.43501
 L 60.2487,5.68311 L 60.4549,5.94054 L 60.6496,6.20677 L 60.8325,6.48131 L 61.003,6.76363 L 61.161,7.05316
 L 61.3061,7.34937 L 61.4381,7.65166 L 61.5566,7.95947 L 61.6615,8.2722 L 61.7525,8.58923 L 61.8295,8.90996
 L 61.8923,9.23375 L 61.9409,9.56001 L 61.975,9.88808 L 61.9947,10.2173 L 61.9998,10.5471 L 61.9905,10.8768
 L 61.9667,11.2058 L 61.9285,11.5334 L 61.8758,11.859 L 61.8089,12.182 L 61.7279,12.5018 L 61.6329,12.8176
 L 61.5241,13.129 L 61.4017,13.4353 L 61.266,13.7359 L 61.1172,14.0303 L 60.9556,14.3178 L 60.7814,14.5979
 L 60.5952,14.8702 L 60.3972,15.1339 L 60.1877,15.3887 L 59.9673,15.6341 L 59.7362,15.8695 L 59.4951,16.0945
 L 59.2443,16.3088 L 58.9843,16.5117 L 58.7156,16.7031 L 58.4388,16.8824 L 58.1544,17.0495 L 57.8629,17.2038
 L 57.5649,17.3452 L 57.2609,17.4733 L 56.9517,17.588 L 56.6376,17.6889 L 56.3195,17.7759 L 55.9978,17.8489
 L 55.6732,17.9077 L 55.3464,17.9521 L 55.0179,17.9821 L 54.7356,17.9963 L 54.4058,17.9994 z
M 10.9617,20.9898 L 11.2909,20.9702 L 11.6194,20.9402 L 11.9468,20.8998 L 12.2728,20.8493 L 12.597,20.7885
 L 12.9191,20.7175 L 13.2388,20.6365 L 13.5559,20.5455 L 13.8699,20.4445 L 14.1806,20.3338 L 14.4877,20.2133
 L 14.7908,20.0833 L 15.0897,19.9437 L 15.3841,19.7949 L 15.6736,19.6369 L 15.9581,19.4699 L 16.2371,19.294
 L 16.5105,19.1095 L 16.778,18.9164 L 17.0393,18.7151 L 17.2941,18.5056 L 17.5422,18.2883 L 17.7834,18.0632
 L 18.0173,17.8307 L 18.2439,17.591 L 18.4628,17.3443 L 18.6738,17.0908 L 18.8768,16.8307 L 19.0715,16.5645
 L 19.2578,16.2923 L 19.4354,16.0143 L 19.6042,15.7309 L 19.7641,15.4424 L 19.9147,15.149 L 20.0561,14.8509
 L 20.188,14.5486 L 20.3104,14.2423 L 20.4232,13.9323 L 20.5261,13.6189 L 20.6191,13.3025 L 20.7021,12.9832
 L 20.7751,12.6615 L 20.8379,12.3377 L 20.8905,12.0121 L 20.9329,11.685 L 20.965,11.3567 L 20.9867,11.0276
 L 20.9981,10.6979 L 20.9992,10.3681 L 20.9898,10.0383 L 20.9702,9.70908 L 20.9402,9.38058 L 20.8998,9.05321
 L 20.8493,8.72725 L 20.7885,8.40305 L 20.7175,8.08092 L 20.6365,7.76117 L 20.5455,7.44412 L 20.4445,7.1301
 L 20.3338,6.8194 L 20.2133,6.51233 L 20.0833,6.2092 L 19.9437,5.91029 L 19.7949,5.61592 L 19.6369,5.32637
 L 19.4699,5.04193 L 19.294,4.76286 L 19.1095,4.48947 L 18.9164,4.222 L 18.7151,3.96074 L 18.5056,3.70592
 L 18.2883,3.45781 L 18.0632,3.21664 L 17.8307,2.98268 L 17.591,2.75612 L 17.5,2.67381 L 17.5,7.80754
 L 17.6182,8.1376 L 17.7152,8.45287 L 17.7982,8.77208 L 17.8671,9.09465 L 17.9218,9.41992 L 17.9621,9.7473
 L 17.988,10.0761 L 17.9994,10.4058 L 17.9963,10.7356 L 17.9787,11.0649 L 17.9466,11.3932 L 17.9001,11.7198
 L 17.8394,12.044 L 17.7644,12.3652 L 17.6753,12.6828 L 17.5724,12.9961 L 17.4558,13.3047 L 17.3258,13.6078
 L 17.1825,13.9049 L 17.0264,14.1954 L 16.8576,14.4788 L 16.6765,14.7545 L 16.4834,15.022 L 16.2788,15.2807
 L 16.063,15.5301 L 15.8365,15.7699 L 15.5996,15.9994 L 15.3529,16.2183 L 15.0968,16.4261 L 14.8318,16.6225
 L 14.5584,16.8071 L 14.2772,16.9794 L 13.9886,17.1392 L 13.6933,17.2862 L 13.3919,17.42 L 13.0848,17.5405
 L 12.7728,17.6473 L 12.4563,17.7404 L 12.1361,17.8194 L 11.8127,17.8842 L 11.4867,17.9348 L 11.1589,17.971
 L 10.8298,17.9927 L 10.5,18 L 10.1702,17.9927 L 9.84113,17.971 L 9.51328,17.9348 L 9.18733,17.8842
 L 8.86394,17.8194 L 8.5437,17.7404 L 8.22725,17.6473 L 7.91519,17.5405 L 7.60812,17.42 L 7.30666,17.2862
 L 7.01137,17.1392 L 6.72284,16.9794 L 6.4416,16.8071 L 6.16821,16.6225 L 5.9032,16.4261 L 5.64709,16.2183
 L 5.40036,15.9994 L 5.16348,15.7699 L 4.93695,15.5301 L 4.72116,15.2807 L 4.51656,15.022 L 4.32352,14.7545
 L 4.14243,14.4788 L 3.97363,14.1954 L 3.81746,13.9049 L 3.67421,13.6078 L 3.54417,13.3047 L 3.42758,12.9961
 L 3.32466,12.6828 L 3.23564,12.3652 L 3.16064,12.044 L 3.09987,11.7198 L 3.05339,11.3932 L 3.02132,11.0649
 L 3.00371,10.7356 L 3.0006,10.4058 L 3.01199,10.0761 L 3.03787,9.7473 L 3.07819,9.41992 L 3.13286,9.09465
 L 3.20177,8.77208 L 3.28481,8.45287 L 3.38179,8.1376 L 3.5,7.80754 L 3.5,2.67381 L 3.26431,2.89114
 L 3.02888,3.12218 L 2.80083,3.3605 L 2.58037,3.60585 L 2.36772,3.85802 L 2.1631,4.11674 L 1.96672,4.38176
 L 1.77875,4.65282 L 1.5994,4.92964 L 1.42882,5.21196 L 1.26718,5.49951 L 1.11467,5.79198 L 0.97142,6.08911
 L 0.83757,6.39058 L 0.713257,6.69612 L 0.598602,7.0054 L 0.493729,7.31813 L 0.398712,7.63402 L 0.313675,7.95271
 L 0.238693,8.27393 L 0.173828,8.59735 L 0.119171,8.92264 L 0.0747375,9.24948 L 0.0406036,9.57758 L 0.0167847,9.90657
 L 0.00332642,10.2361 L 0.000213623,10.566 L 0.00746155,10.8957 L 0.0250702,11.2251 L 0.0530243,11.5538 L 0.0912781,11.8814
 L 0.139801,12.2077 L 0.198563,12.5323 L 0.267471,12.8548 L 0.346497,13.1751 L 0.435532,13.4927 L 0.5345,13.8074
 L 0.643295,14.1187 L 0.761841,14.4266 L 0.889969,14.7305 L 1.0276,15.0303 L 1.17458,15.3256 L 1.33075,15.6161
 L 1.49597,15.9016 L 1.67009,16.1818 L 1.85292,16.4563 L 2.04428,16.725 L 2.24397,16.9875 L 2.45183,17.2437
 L 2.66763,17.4931 L 2.89114,17.7357 L 3.12218,17.9711 L 3.3605,18.1992 L 3.60585,18.4196 L 3.85802,18.6323
 L 4.11674,18.8369 L 4.38176,19.0333 L 4.65282,19.2213 L 4.92964,19.4006 L 5.21196,19.5712 L 5.49951,19.7328
 L 5.79198,19.8853 L 6.08911,20.0286 L 6.39058,20.1624 L 6.69612,20.2867 L 7.0054,20.4014 L 7.31813,20.5063
 L 7.63402,20.6013 L 7.95271,20.6863 L 8.27393,20.7613 L 8.59735,20.8262 L 8.92264,20.8808 L 9.24948,20.9253
 L 9.57758,20.9594 L 9.90657,20.9832 L 10.2361,20.9967 L 10.3021,20.9981 L 10.6319,20.9992 z
M 32.9617,20.9898 L 33.2909,20.9702 L 33.6194,20.9402 L 33.9468,20.8998 L 34.2728,20.8493 L 34.597,20.7885
 L 34.9191,20.7175 L 35.2388,20.6365 L 35.5559,20.5455 L 35.8699,20.4445 L 36.1806,20.3338 L 36.4877,20.2133
 L 36.7908,20.0833 L 37.0897,19.9437 L 37.3841,19.7949 L 37.6736,19.6369 L 37.9581,19.4699 L 38.2371,19.294
 L 38.5105,19.1095 L 38.778,18.9164 L 39.0393,18.7151 L 39.2941,18.5056 L 39.5422,18.2883 L 39.7834,18.0632
 L 40.0173,17.8307 L 40.2439,17.591 L 40.4628,17.3443 L 40.6738,17.0908 L 40.8768,16.8307 L 41.0715,16.5645
 L 41.2578,16.2923 L 41.4354,16.0143 L 41.6042,15.7309 L 41.7641,15.4424 L 41.9147,15.149 L 42.0561,14.8509
 L 42.188,14.5486 L 42.3104,14.2423 L 42.4232,13.9323 L 42.5261,13.6189 L 42.6191,13.3025 L 42.7021,12.9832
 L 42.7751,12.6615 L 42.8379,12.3377 L 42.8905,12.0121 L 42.9329,11.685 L 42.965,11.3567 L 42.9867,11.0276
 L 42.9981,10.6979 L 43,10.5 L 40,10.5 L 39.9927,10.8298 L 39.971,11.1589 L 39.9348,11.4867
 L 39.8842,11.8127 L 39.8194,12.1361 L 39.7404,12.4563 L 39.6473,12.7728 L 39.5405,13.0848 L 39.42,13.3919
 L 39.2862,13.6933 L 39.1392,13.9886 L 38.9794,14.2772 L 38.8071,14.5584 L 38.6225,14.8318 L 38.4261,15.0968
 L 38.2183,15.3529 L 37.9994,15.5996 L 37.7699,15.8365 L 37.5301,16.063 L 37.2807,16.2788 L 37.022,16.4834
 L 36.7545,16.6765 L 36.4788,16.8576 L 36.1954,17.0264 L 35.9049,17.1825 L 35.6078,17.3258 L 35.3047,17.4558
 L 34.9961,17.5724 L 34.6828,17.6753 L 34.3652,17.7644 L 34.044,17.8394 L 33.7198,17.9001 L 33.3932,17.9466
 L 33.0649,17.9787 L 32.7356,17.9963 L 32.4058,17.9994 L 32.0761,17.988 L 31.7473,17.9621 L 31.4199,17.9218
 L 31.0947,17.8671 L 30.7721,17.7982 L 30.4529,17.7152 L 30.1376,17.6182 L 29.8269,17.5075 L 29.5214,17.3831
 L 29.2216,17.2455 L 28.9282,17.0949 L 28.6417,16.9314 L 28.3627,16.7556 L 28.0916,16.5676 L 27.8291,16.3679
 L 27.5756,16.1569 L 27.3316,15.9349 L 27.0977,15.7024 L 26.8742,15.4598 L 26.6615,15.2077 L 26.4602,14.9464
 L 26.2705,14.6766 L 26.0929,14.3986 L 25.9277,14.1131 L 25.7752,13.8207 L 25.6357,13.5218 L 25.5095,13.2171
 L 25.3968,12.9071 L 25.2978,12.5924 L 25.2128,12.2737 L 25.1418,11.9516 L 25.0851,11.6267 L 25.0428,11.2996
 L 25.0148,10.9709 L 25.0013,10.6414 L 25,10.5 L 22,10.5 L 22.0052,10.8298 L 22.0207,11.1593
 L 22.0466,11.4881 L 22.0828,11.816 L 22.1293,12.1425 L 22.186,12.4675 L 22.2529,12.7905 L 22.3299,13.1112
 L 22.4169,13.4294 L 22.5139,13.7447 L 22.6208,14.0567 L 22.7374,14.3653 L 22.8636,14.67 L 22.9993,14.9707
 L 23.1444,15.2669 L 23.2988,15.5584 L 23.4622,15.8449 L 23.6346,16.1262 L 23.8157,16.4019 L 24.0053,16.6717
 L 24.2034,16.9355 L 24.4096,17.1929 L 24.6238,17.4438 L 24.8458,17.6877 L 25.0754,17.9246 L 25.3123,18.1542
 L 25.5562,18.3762 L 25.8071,18.5904 L 26.0645,18.7966 L 26.3283,18.9947 L 26.5981,19.1843 L 26.8738,19.3654
 L 27.1551,19.5378 L 27.4416,19.7012 L 27.7331,19.8556 L 28.0293,20.0007 L 28.33,20.1364 L 28.6347,20.2626
 L 28.9433,20.3792 L 29.2553,20.4861 L 29.5706,20.5831 L 29.8888,20.6701 L 30.2095,20.7471 L 30.5325,20.814
 L 30.8575,20.8707 L 31.184,20.9172 L 31.5119,20.9534 L 31.8407,20.9793 L 32.1702,20.9948 L 32.3021,20.9981
 L 32.6319,20.9992 z
" stroke="black" fill="lightgray" stroke-width="0.5"/></svg>
