<?xml version="1.0" standalone="no"?>
<!DOCTYPE svg PUBLIC "-//W3C//DTD SVG 1.1//EN" "http://www.w3.org/Graphics/SVG/1.1/DTD/svg11.dtd">
<svg width="21mm" height="21mm" viewBox="0 0 21 21" xmlns="http://www.w3.org/2000/svg" version="1.1">
<title>OpenSCAD Model</title>
<path d="
M 10.3021,20.9981 L 10.6319,20.9992 L 10.9617,20.9898 L 11.2909,20.9702 L 11.6194,20.9402 L 11.9468,20.8998
 L 12.2728,20.8493 L 12.597,20.7885 L 12.9191,20.7175 L 13.2388,20.6365 L 13.5559,20.5455 L 13.8699,20.4445
 L 14.1806,20.3338 L 14.4877,20.2133 L 14.7908,20.0833 L 15.0897,19.9437 L 15.3841,19.7949 L 15.6736,19.6369
 L 15.9581,19.4699 L 16.2371,19.294 L 16.5105,19.1095 L 16.778,18.9164 L 17.0393,18.7151 L 17.2941,18.5056
 L 17.5422,18.2883 L 17.7834,18.0632 L 18.0173,17.8307 L 18.2439,17.591 L 18.4628,17.3443 L 18.6738,17.0908
 L 18.8768,16.8307 L 19.0715,16.5645 L 19.2578,16.2923 L 19.4354,16.0143 L 19.6042,15.7309 L 19.7641,15.4424
 L 19.9147,15.149 L 20.0561,14.8509 L 20.188,14.5486 L 20.3104,14.2423 L 20.4232,13.9323 L 20.5261,13.6189
 L 20.6191,13.3025 L 20.7021,12.9832 L 20.7751,12.6615 L 20.8379,12.3377 L 20.8905,12.0121 L 20.9329,11.685
 L 20.965,11.3567 L 20.9867,11.0276 L 20.9981,10.6979 L 20.9992,10.3681 L 20.9898,10.0383 L 20.9702,9.70908
 L 20.9402,9.38058 L 20.8998,9.05321 L 20.8493,8.72725 L 20.7885,8.40305 L 20.7175,8.08092 L 20.6365,7.76117
 L 20.5455,7.44412 L 20.4445,7.1301 L 20.3338,6.8194 L 20.2133,6.51233 L 20.0833,6.2092 L 19.9437,5.91029
 L 19.7949,5.61592 L 19.6369,5.32637 L 19.4699,5.04193 L 19.294,4.76286 L 19.1095,4.48947 L 18.9164,4.222
 L 18.7151,3.96074 L 18.5056,3.70592 L 18.2883,3.45781 L 18.0632,3.21664 L 17.8307,2.98268 L 17.591,2.75612
 L 17.3443,2.5372 L 17.0908,2.32616 L 16.8307,2.12317 L 16.5645,1.92845 L 16.2923,1.74219 L 16.0143,1.56456
 L 15.7309,1.39577 L 15.4424,1.23595 L 15.149,1.08528 L 14.8509,0.943893 L 14.5486,0.811951 L 14.2423,0.68956
 L 13.9323,0.576843 L 13.6189,0.473923 L 13.3025,0.380905 L 12.9832,0.297867 L 12.6615,0.224915 L 12.3377,0.162079
 L 12.0121,0.109451 L 11.685,0.0670929 L 11.3567,0.0350189 L 11.0276,0.0132751 L 10.6979,0.00187683 L 10.3681,0.000839233
 L 10.0383,0.0101624 L 9.70908,0.0298462 L 9.38058,0.059845 L 9.05321,0.100159 L 8.72725,0.150742 L 8.40305,0.211533
 L 8.08092,0.282471 L 7.76117,0.363495 L 7.44412,0.454529 L 7.1301,0.555481 L 6.8194,0.666229 L 6.51233,0.786697
 L 6.2092,0.916748 L 5.91029,1.05626 L 5.61592,1.20508 L 5.32637,1.36308 L 5.04193,1.53009 L 4.76286,1.70596
 L 4.48947,1.8905 L 4.222,2.08356 L 3.96074,2.2849 L 3.70592,2.49435 L 3.45781,2.71172 L 3.21664,2.93677
 L 2.98268,3.16927 L 2.75612,3.40901 L 2.5372,3.65575 L 2.32616,3.90924 L 2.12317,4.16925 L 1.92845,4.4355
 L 1.74219,4.70773 L 1.56456,4.98567 L 1.39577,5.26906 L 1.23595,5.55762 L 1.08528,5.85104 L 0.943893,6.14906
 L 0.811951,6.45137 L 0.68956,6.75769 L 0.576843,7.06769 L 0.473923,7.38107 L 0.380905,7.69754 L 0.297867,8.01677
 L 0.224915,8.33846 L 0.162079,8.66226 L 0.109451,8.9879 L 0.0670929,9.31502 L 0.0350189,9.64331 L 0.0132751,9.97244
 L 0.00187683,10.3021 L 0.000839233,10.6319 L 0.0101624,10.9617 L 0.0298462,11.2909 L 0.059845,11.6194 L 0.100159,11.9468
 L 0.150742,12.2728 L 0.211533,12.597 L 0.282471,12.9191 L 0.363495,13.2388 L 0.454529,13.5559 L 0.555481,13.8699
 L 0.666229,14.1806 L 0.786697,14.4877 L 0.916748,14.7908 L 1.05626,15.0897 L 1.20508,15.3841 L 1.36308,15.6736
 L 1.53009,15.9581 L 1.70596,16.2371 L 1.8905,16.5105 L 2.08356,16.778 L 2.2849,17.0393 L 2.49435,17.2941
 L 2.71172,17.5422 L 2.93677,17.7834 L 3.16927,18.0173 L 3.40901,18.2439 L 3.65575,18.4628 L 3.90924,18.6738
 L 4.16925,18.8768 L 4.4355,19.0715 L 4.70773,19.2578 L 4.98567,19.4354 L 5.26906,19.6042 L 5.55762,19.7641
 L 5.85104,19.9147 L 6.14906,20.0561 L 6.45137,20.188 L 6.75769,20.3104 L 7.06769,20.4232 L 7.38107,20.5261
 L 7.69754,20.6191 L 8.01677,20.7021 L 8.33846,20.7751 L 8.66226,20.8379 L 8.9879,20.8905 L 9.31502,20.9329
 L 9.64331,20.965 L 9.97244,20.9867 z
M 10.7657,17.545 L 10.4114,17.5494 L 10.0573,17.5361 L 9.70438,17.505 L 9.35341,17.4561 L 9.00536,17.3897
 L 8.66107,17.3059 L 8.32144,17.2049 L 7.9873,17.087 L 7.65952,16.9524 L 7.33891,16.8016 L 7.02628,16.6348
 L 6.72243,16.4525 L 6.42812,16.2552 L 6.1441,16.0433 L 5.87108,15.8175 L 5.60976,15.5782 L 5.36078,15.326
 L 5.12479,15.0617 L 4.90237,14.7859 L 4.69411,14.4992 L 4.5005,14.2025 L 4.32205,13.8964 L 4.15919,13.5817
 L 4.01237,13.2592 L 3.88193,12.9297 L 3.76822,12.5941 L 3.67149,12.2533 L 3.59203,11.9079 L 3.53001,11.5591
 L 3.4856,11.2076 L 3.45891,10.8542 L 3.45001,10.5 L 3.45891,10.1458 L 3.4856,9.79245 L 3.53001,9.44092
 L 3.59203,9.09206 L 3.67149,8.74675 L 3.76822,8.40587 L 3.88193,8.07028 L 4.01237,7.74083 L 4.15919,7.41833
 L 4.32205,7.10364 L 4.5005,6.79753 L 4.69411,6.50076 L 4.90237,6.2141 L 5.12479,5.93826 L 5.36078,5.67395
 L 5.60976,5.42183 L 5.87108,5.18254 L 6.1441,4.95668 L 6.42812,4.74481 L 6.72243,4.5475 L 7.02628,4.36522
 L 7.33891,4.19843 L 7.65952,4.04756 L 7.9873,3.91299 L 8.32144,3.79506 L 8.66107,3.69406 L 9.00536,3.61026
 L 9.35341,3.54387 L 9.70438,3.49504 L 10.0573,3.46391 L 10.4114,3.45056 L 10.7657,3.45502 L 11.1193,3.47726
 L 11.4714,3.51726 L 11.821,3.57489 L 12.1673,3.65001 L 12.5094,3.74243 L 12.8464,3.85193 L 13.1774,3.97821
 L 13.5017,4.12097 L 13.8185,4.27986 L 14.1268,4.45444 L 14.426,4.6443 L 14.7152,4.84895 L 14.9938,5.06789
 L 15.2611,5.30054 L 15.5163,5.54633 L 15.7589,5.80463 L 15.9882,6.07478 L 16.2036,6.35612 L 16.4046,6.64793
 L 16.5907,6.94946 L 16.7614,7.25996 L 16.9162,7.57866 L 17.0549,7.90472 L 17.177,8.23735 L 17.2823,8.5757
 L 17.3704,8.9189 L 17.4412,9.2661 L 17.4944,9.61641 L 17.53,9.96895 L 17.5478,10.3228 L 17.5478,10.6772
 L 17.53,11.0311 L 17.4944,11.3836 L 17.4412,11.7339 L 17.3704,12.0811 L 17.2823,12.4243 L 17.177,12.7626
 L 17.0549,13.0953 L 16.9162,13.4213 L 16.7614,13.74 L 16.5907,14.0505 L 16.4046,14.3521 L 16.2036,14.6439
 L 15.9882,14.9252 L 15.7589,15.1954 L 15.5163,15.4537 L 15.2611,15.6995 L 14.9938,15.9321 L 14.7152,16.151
 L 14.426,16.3557 L 14.1268,16.5456 L 13.8185,16.7201 L 13.5017,16.879 L 13.1774,17.0218 L 12.8464,17.1481
 L 12.5094,17.2576 L 12.1673,17.35 L 11.821,17.4251 L 11.4714,17.4827 L 11.1193,17.5227 z
" stroke="black" fill="lightgray" stroke-width="0.5"/></svg>
