<?xml version="1.0" standalone="no"?>
<!DOCTYPE svg PUBLIC "-//W3C//DTD SVG 1.1//EN" "http://www.w3.org/Graphics/SVG/1.1/DTD/svg11.dtd">
<svg width="130mm" height="130mm" viewBox="0 0 130 130" xmlns="http://www.w3.org/2000/svg" version="1.1">
<title>OpenSCAD Model</title>
<path d="
M 66.1344,129.99 L 67.2685,129.96 L 68.4018,129.911 L 69.5342,129.842 L 70.6651,129.753 L 71.7943,129.644
 L 72.9215,129.515 L 74.0462,129.367 L 75.1682,129.2 L 76.2871,129.012 L 77.4026,128.806 L 78.5143,128.58
 L 79.6218,128.334 L 80.7249,128.069 L 81.8232,127.785 L 82.9164,127.482 L 84.0042,127.16 L 85.0861,126.819
 L 86.1619,126.459 L 87.2313,126.08 L 88.2939,125.683 L 89.3494,125.267 L 90.3975,124.833 L 91.4379,124.38
 L 92.4702,123.91 L 93.4941,123.422 L 94.5094,122.915 L 95.5156,122.392 L 96.5126,121.85 L 97.277,121.418
 L 97.3119,121.348 L 97.7552,120.496 L 98.2132,119.653 L 98.6859,118.817 L 99.1731,117.99 L 99.6746,117.172
 L 100.19,116.362 L 100.72,115.562 L 101.264,114.771 L 101.821,113.989 L 102.392,113.217 L 102.977,112.456
 L 103.574,111.705 L 104.185,110.964 L 104.808,110.234 L 105.444,109.515 L 106.093,108.807 L 106.754,108.111
 L 107.426,107.426 L 108.111,106.754 L 108.807,106.093 L 109.515,105.444 L 110.234,104.808 L 110.964,104.185
 L 111.705,103.574 L 112.456,102.977 L 113.217,102.392 L 113.989,101.821 L 114.771,101.264 L 115.562,100.72
 L 116.362,100.19 L 117.172,99.6746 L 117.99,99.1731 L 118.817,98.6859 L 119.653,98.2132 L 120.496,97.7552
 L 121.348,97.3119 L 121.418,97.277 L 121.85,96.5126 L 122.392,95.5156 L 122.915,94.5094 L 123.422,93.4941
 L 123.91,92.4702 L 124.38,91.4379 L 124.833,90.3975 L 125.267,89.3494 L 125.683,88.2939 L 126.08,87.2313
 L 126.459,86.1619 L 126.819,85.0861 L 127.16,84.0042 L 127.482,82.9164 L 127.785,81.8232 L 128.069,80.7249
 L 128.334,79.6218 L 128.58,78.5143 L 128.806,77.4026 L 129.012,76.2871 L 129.2,75.1682 L 129.367,74.0462
 L 129.515,72.9215 L 129.644,71.7943 L 129.753,70.6651 L 129.842,69.5342 L 129.911,68.4018 L 129.96,67.2685
 L 129.99,66.1344 L 130,65 L 129.99,63.8656 L 129.96,62.7315 L 129.911,61.5982 L 129.842,60.4658
 L 129.753,59.3349 L 129.644,58.2057 L 129.515,57.0785 L 129.367,55.9538 L 129.2,54.8318 L 129.012,53.7129
 L 128.806,52.5974 L 128.58,51.4857 L 128.334,50.3782 L 128.069,49.2751 L 127.785,48.1768 L 127.482,47.0836
 L 127.16,45.9958 L 126.819,44.9139 L 126.459,43.8381 L 126.08,42.7687 L 125.683,41.7061 L 125.267,40.6506
 L 124.833,39.6025 L 124.38,38.5621 L 123.91,37.5298 L 123.422,36.5059 L 122.915,35.4906 L 122.392,34.4844
 L 121.85,33.4874 L 121.418,32.723 L 121.348,32.6881 L 120.496,32.2448 L 119.653,31.7868 L 118.817,31.3141
 L 117.99,30.8269 L 117.172,30.3254 L 116.362,29.8096 L 115.562,29.2798 L 114.771,28.7361 L 113.989,28.1787
 L 113.217,27.6077 L 112.456,27.0233 L 111.705,26.4258 L 110.964,25.8152 L 110.234,25.1918 L 109.515,24.5557
 L 108.807,23.9072 L 108.111,23.2464 L 107.426,22.5736 L 106.754,21.8889 L 106.093,21.1926 L 105.444,20.4849
 L 104.808,19.766 L 104.185,19.036 L 103.574,18.2953 L 102.977,17.5441 L 102.392,16.7825 L 101.821,16.0109
 L 101.264,15.2294 L 100.72,14.4383 L 100.19,13.6379 L 99.6746,12.8283 L 99.1731,12.0098 L 98.6859,11.1827
 L 98.2132,10.3473 L 97.7552,9.50366 L 97.3119,8.65221 L 97.277,8.5822 L 96.5126,8.14972 L 95.5156,7.60841
 L 94.5094,7.08458 L 93.4941,6.5784 L 92.4702,6.09 L 91.4379,5.61955 L 90.3975,5.16719 L 89.3494,4.73306
 L 88.2939,4.31728 L 87.2313,3.91998 L 86.1619,3.54131 L 85.0861,3.18134 L 84.0042,2.84019 L 82.9164,2.51799
 L 81.8232,2.21483 L 80.7249,1.93079 L 79.6218,1.66595 L 78.5143,1.42041 L 77.4026,1.19424 L 76.2871,0.987503
 L 75.1682,0.800262 L 74.0462,0.632584 L 72.9215,0.484512 L 71.7943,0.356079 L 70.6651,0.247345 L 69.5342,0.15834
 L 68.4018,0.0890808 L 67.2685,0.0395966 L 66.1344,0.00990295 L 65,-0 L 63.8656,0.00990295 L 62.7315,0.0395966
 L 61.5982,0.0890808 L 60.4658,0.15834 L 59.3349,0.247345 L 58.2057,0.356079 L 57.0785,0.484512 L 55.9538,0.632584
 L 54.8318,0.800262 L 53.7129,0.987503 L 52.5974,1.19424 L 51.4857,1.42041 L 50.3782,1.66595 L 49.2751,1.93079
 L 48.1768,2.21483 L 47.0836,2.51799 L 45.9958,2.84019 L 44.9139,3.18134 L 43.8381,3.54131 L 42.7687,3.91998
 L 41.7061,4.31728 L 40.6506,4.73306 L 39.6025,5.16719 L 38.5621,5.61955 L 37.5298,6.09 L 36.5059,6.5784
 L 35.4906,7.08458 L 34.4844,7.60841 L 33.4874,8.14972 L 32.723,8.58221 L 32.6881,8.65221 L 32.2448,9.50366
 L 31.7868,10.3473 L 31.3141,11.1827 L 30.8269,12.0098 L 30.3254,12.8283 L 29.8096,13.6379 L 29.2798,14.4383
 L 28.7361,15.2294 L 28.1787,16.0109 L 27.6077,16.7825 L 27.0233,17.5441 L 26.4258,18.2953 L 25.8152,19.036
 L 25.1918,19.766 L 24.5557,20.4849 L 23.9072,21.1926 L 23.2464,21.8889 L 22.5736,22.5736 L 21.8889,23.2464
 L 21.1926,23.9072 L 20.4849,24.5557 L 19.766,25.1918 L 19.036,25.8152 L 18.2953,26.4258 L 17.5441,27.0233
 L 16.7825,27.6077 L 16.0109,28.1787 L 15.2294,28.7361 L 14.4383,29.2798 L 13.6379,29.8096 L 12.8283,30.3254
 L 12.0098,30.8269 L 11.1827,31.3141 L 10.3473,31.7868 L 9.50366,32.2448 L 8.65221,32.6881 L 8.58221,32.723
 L 8.14972,33.4874 L 7.60841,34.4844 L 7.08458,35.4906 L 6.5784,36.5059 L 6.09,37.5298 L 5.61955,38.5621
 L 5.16719,39.6025 L 4.73306,40.6506 L 4.31728,41.7061 L 3.91998,42.7687 L 3.54131,43.8381 L 3.18134,44.9139
 L 2.84019,45.9958 L 2.51799,47.0836 L 2.21483,48.1768 L 1.93079,49.2751 L 1.66595,50.3782 L 1.42041,51.4857
 L 1.19424,52.5974 L 0.987503,53.7129 L 0.800262,54.8318 L 0.632584,55.9538 L 0.484512,57.0785 L 0.356079,58.2057
 L 0.247345,59.3349 L 0.15834,60.4658 L 0.0890808,61.5982 L 0.0395966,62.7315 L 0.00990295,63.8656 L 0,65
 L 0.00990295,66.1344 L 0.0395966,67.2685 L 0.0890808,68.4018 L 0.15834,69.5342 L 0.247345,70.6651 L 0.356079,71.7943
 L 0.484512,72.9215 L 0.632584,74.0462 L 0.800262,75.1682 L 0.987503,76.2871 L 1.19424,77.4026 L 1.42041,78.5143
 L 1.66595,79.6218 L 1.93079,80.7249 L 2.21483,81.8232 L 2.51799,82.9164 L 2.84019,84.0042 L 3.18134,85.0861
 L 3.54131,86.1619 L 3.91998,87.2313 L 4.31728,88.2939 L 4.73306,89.3494 L 5.16719,90.3975 L 5.61955,91.4379
 L 6.09,92.4702 L 6.5784,93.4941 L 7.08458,94.5094 L 7.60841,95.5156 L 8.14972,96.5126 L 8.5822,97.277
 L 8.65221,97.3119 L 9.50366,97.7552 L 10.3473,98.2132 L 11.1827,98.6859 L 12.0098,99.1731 L 12.8283,99.6746
 L 13.6379,100.19 L 14.4383,100.72 L 15.2294,101.264 L 16.0109,101.821 L 16.7825,102.392 L 17.5441,102.977
 L 18.2953,103.574 L 19.036,104.185 L 19.766,104.808 L 20.4849,105.444 L 21.1926,106.093 L 21.8889,106.754
 L 22.5736,107.426 L 23.2464,108.111 L 23.9072,108.807 L 24.5557,109.515 L 25.1918,110.234 L 25.8152,110.964
 L 26.4258,111.705 L 27.0233,112.456 L 27.6077,113.217 L 28.1787,113.989 L 28.7361,114.771 L 29.2798,115.562
 L 29.8096,116.362 L 30.3254,117.172 L 30.8269,117.99 L 31.3141,118.817 L 31.7868,119.653 L 32.2448,120.496
 L 32.6881,121.348 L 32.723,121.418 L 33.4874,121.85 L 34.4844,122.392 L 35.4906,122.915 L 36.5059,123.422
 L 37.5298,123.91 L 38.5621,124.38 L 39.6025,124.833 L 40.6506,125.267 L 41.7061,125.683 L 42.7687,126.08
 L 43.8381,126.459 L 44.9139,126.819 L 45.9958,127.16 L 47.0836,127.482 L 48.1768,127.785 L 49.2751,128.069
 L 50.3782,128.334 L 51.4857,128.58 L 52.5974,128.806 L 53.7129,129.012 L 54.8318,129.2 L 55.9538,129.367
 L 57.0785,129.515 L 58.2057,129.644 L 59.3349,129.753 L 60.4658,129.842 L 61.5982,129.911 L 62.7315,129.96
 L 63.8656,129.99 L 65,130 z
M 64.9389,6.74895 L 64.8171,6.74042 L 64.6961,6.72342 L 64.5766,6.69803 L 64.4592,6.66435 L 64.3445,6.62257
 L 64.2329,6.57289 L 64.125,6.51555 L 64.0214,6.45082 L 63.9226,6.37903 L 63.829,6.30051 L 63.7412,6.21565
 L 63.6594,6.12489 L 63.5842,6.02863 L 63.5159,5.92737 L 63.4548,5.82158 L 63.4013,5.71179 L 63.3555,5.59854
 L 63.3178,5.48238 L 63.2883,5.36385 L 63.267,5.24356 L 63.2543,5.12209 L 63.25,5 L 63.2543,4.87793
 L 63.267,4.75645 L 63.2883,4.63617 L 63.3178,4.51764 L 63.3555,4.40147 L 63.4013,4.28822 L 63.4548,4.17844
 L 63.5159,4.07265 L 63.5842,3.97139 L 63.6594,3.87512 L 63.7412,3.78436 L 63.829,3.69951 L 63.9226,3.62099
 L 64.0214,3.54919 L 64.125,3.48447 L 64.2329,3.42712 L 64.3445,3.37744 L 64.4592,3.33566 L 64.5766,3.30199
 L 64.6961,3.2766 L 64.8171,3.2596 L 64.9389,3.25107 L 65.0611,3.25107 L 65.1829,3.2596 L 65.3039,3.2766
 L 65.4234,3.30199 L 65.5408,3.33566 L 65.6555,3.37744 L 65.7671,3.42712 L 65.875,3.48447 L 65.9786,3.54919
 L 66.0774,3.62099 L 66.171,3.69951 L 66.2588,3.78436 L 66.3406,3.87512 L 66.4158,3.97139 L 66.4841,4.07265
 L 66.5452,4.17844 L 66.5987,4.28822 L 66.6445,4.40147 L 66.6822,4.51764 L 66.7117,4.63617 L 66.733,4.75645
 L 66.7457,4.87793 L 66.75,5 L 66.7457,5.12209 L 66.733,5.24356 L 66.7117,5.36385 L 66.6822,5.48238
 L 66.6445,5.59854 L 66.5987,5.71179 L 66.5452,5.82158 L 66.4841,5.92737 L 66.4158,6.02863 L 66.3406,6.12489
 L 66.2588,6.21565 L 66.171,6.30051 L 66.0774,6.37903 L 65.9786,6.45082 L 65.875,6.51555 L 65.7671,6.57289
 L 65.6555,6.62257 L 65.5408,6.66435 L 65.4234,6.69803 L 65.3039,6.72342 L 65.1829,6.74042 L 65.0611,6.74895
 z
M 64.0401,119.992 L 63.0805,119.966 L 62.1215,119.925 L 61.1634,119.866 L 60.2064,119.791 L 59.2509,119.699
 L 58.2972,119.59 L 57.3455,119.465 L 56.3961,119.323 L 55.4494,119.164 L 54.5055,118.989 L 53.5649,118.798
 L 52.6277,118.59 L 51.6943,118.366 L 50.765,118.126 L 49.84,117.869 L 48.9196,117.597 L 48.0041,117.308
 L 47.0938,117.004 L 46.1889,116.683 L 45.2898,116.347 L 44.3967,115.995 L 43.5098,115.628 L 42.6295,115.245
 L 41.756,114.847 L 40.8896,114.434 L 40.0305,114.005 L 39.1791,113.562 L 38.3355,113.104 L 37.5,112.631
 L 36.6729,112.144 L 35.8544,111.643 L 35.0449,111.127 L 34.2444,110.597 L 33.4533,110.053 L 32.6718,109.496
 L 31.9002,108.925 L 31.1386,108.341 L 30.3874,107.743 L 29.6467,107.132 L 28.9168,106.509 L 28.1978,105.873
 L 27.4901,105.224 L 26.7938,104.564 L 26.1091,103.891 L 25.4363,103.206 L 24.7756,102.51 L 24.127,101.802
 L 23.491,101.083 L 22.8676,100.353 L 22.257,99.6126 L 21.6594,98.8614 L 21.0751,98.0998 L 20.5041,97.3282
 L 19.9466,96.5467 L 19.4029,95.7556 L 18.8731,94.9551 L 18.3574,94.1456 L 17.8558,93.3271 L 17.3686,92.5
 L 16.8959,91.6645 L 16.4379,90.8209 L 15.9946,89.9695 L 15.5663,89.1104 L 15.1531,88.244 L 14.755,87.3705
 L 14.3722,86.4902 L 14.0049,85.6033 L 13.6531,84.7102 L 13.3169,83.8111 L 12.9965,82.9062 L 12.6919,81.9959
 L 12.4032,81.0804 L 12.1306,80.16 L 11.8741,79.235 L 11.6337,78.3057 L 11.4097,77.3723 L 11.2019,76.4351
 L 11.0105,75.4945 L 10.8356,74.5506 L 10.6772,73.6039 L 10.5353,72.6545 L 10.41,71.7028 L 10.3013,70.7491
 L 10.2093,69.7936 L 10.134,68.8366 L 10.0754,67.8785 L 10.0335,66.9195 L 10.0084,65.9599 L 10,65
 L 10.0084,64.0401 L 10.0335,63.0805 L 10.0754,62.1215 L 10.134,61.1634 L 10.2093,60.2064 L 10.3013,59.2509
 L 10.41,58.2972 L 10.5353,57.3455 L 10.6772,56.3961 L 10.8356,55.4494 L 11.0105,54.5055 L 11.2019,53.5649
 L 11.4097,52.6277 L 11.6337,51.6943 L 11.8741,50.765 L 12.1306,49.84 L 12.4032,48.9196 L 12.6919,48.0041
 L 12.9965,47.0938 L 13.3169,46.1889 L 13.6531,45.2898 L 14.0049,44.3967 L 14.3722,43.5098 L 14.755,42.6295
 L 15.1531,41.756 L 15.5663,40.8896 L 15.9946,40.0305 L 16.4379,39.1791 L 16.8959,38.3355 L 17.3686,37.5
 L 17.8558,36.6729 L 18.3574,35.8544 L 18.8731,35.0449 L 19.4029,34.2444 L 19.9466,33.4533 L 20.5041,32.6718
 L 21.0751,31.9002 L 21.6594,31.1386 L 22.257,30.3874 L 22.8676,29.6467 L 23.491,28.9168 L 24.127,28.1978
 L 24.7756,27.4901 L 25.4363,26.7938 L 26.1091,26.1091 L 26.7938,25.4363 L 27.4901,24.7756 L 28.1978,24.127
 L 28.9168,23.491 L 29.6467,22.8676 L 30.3874,22.257 L 31.1386,21.6594 L 31.9002,21.0751 L 32.6718,20.5041
 L 33.4533,19.9466 L 34.2444,19.4029 L 35.0449,18.8731 L 35.8544,18.3574 L 36.6729,17.8558 L 37.5,17.3686
 L 38.3355,16.8959 L 39.1791,16.4379 L 40.0305,15.9946 L 40.8896,15.5663 L 41.756,15.1531 L 42.6295,14.755
 L 43.5098,14.3722 L 44.3967,14.0049 L 45.2898,13.6531 L 46.1889,13.3169 L 47.0938,12.9965 L 48.0041,12.6919
 L 48.9196,12.4032 L 49.84,12.1306 L 50.765,11.8741 L 51.6943,11.6337 L 52.6277,11.4097 L 53.5649,11.2019
 L 54.5055,11.0105 L 55.4494,10.8356 L 56.3961,10.6772 L 57.3455,10.5353 L 58.2972,10.41 L 59.2509,10.3013
 L 60.2064,10.2093 L 61.1634,10.134 L 62.1215,10.0754 L 63.0805,10.0335 L 64.0401,10.0084 L 65,10
 L 65.9599,10.0084 L 66.9195,10.0335 L 67.8785,10.0754 L 68.8366,10.134 L 69.7936,10.2093 L 70.7491,10.3013
 L 71.7028,10.41 L 72.6545,10.5353 L 73.6039,10.6772 L 74.5506,10.8356 L 75.4945,11.0105 L 76.4351,11.2019
 L 77.3723,11.4097 L 78.3057,11.6337 L 79.235,11.8741 L 80.16,12.1306 L 81.0804,12.4032 L 81.9959,12.6919
 L 82.9062,12.9965 L 83.8111,13.3169 L 84.7102,13.6531 L 85.6033,14.0049 L 86.4902,14.3722 L 87.3705,14.755
 L 88.244,15.1531 L 89.1104,15.5663 L 89.9695,15.9946 L 90.8209,16.4379 L 91.6645,16.8959 L 92.5,17.3686
 L 93.3271,17.8558 L 94.1456,18.3574 L 94.9551,18.8731 L 95.7556,19.4029 L 96.5467,19.9466 L 97.3282,20.5041
 L 98.0998,21.0751 L 98.8614,21.6594 L 99.6126,22.257 L 100.353,22.8676 L 101.083,23.491 L 101.802,24.127
 L 102.51,24.7756 L 103.206,25.4363 L 103.891,26.1091 L 104.564,26.7938 L 105.224,27.4901 L 105.873,28.1978
 L 106.509,28.9168 L 107.132,29.6467 L 107.743,30.3874 L 108.341,31.1386 L 108.925,31.9002 L 109.496,32.6718
 L 110.053,33.4533 L 110.597,34.2444 L 111.127,35.0449 L 111.643,35.8544 L 112.144,36.6729 L 112.631,37.5
 L 113.104,38.3355 L 113.562,39.1791 L 114.005,40.0305 L 114.434,40.8896 L 114.847,41.756 L 115.245,42.6295
 L 115.628,43.5098 L 115.995,44.3967 L 116.347,45.2898 L 116.683,46.1889 L 117.004,47.0938 L 117.308,48.0041
 L 117.597,48.9196 L 117.869,49.84 L 118.126,50.765 L 118.366,51.6943 L 118.59,52.6277 L 118.798,53.5649
 L 118.989,54.5055 L 119.164,55.4494 L 119.323,56.3961 L 119.465,57.3455 L 119.59,58.2972 L 119.699,59.2509
 L 119.791,60.2064 L 119.866,61.1634 L 119.925,62.1215 L 119.966,63.0805 L 119.992,64.0401 L 120,65
 L 119.992,65.9599 L 119.966,66.9195 L 119.925,67.8785 L 119.866,68.8366 L 119.791,69.7936 L 119.699,70.7491
 L 119.59,71.7028 L 119.465,72.6545 L 119.323,73.6039 L 119.164,74.5506 L 118.989,75.4945 L 118.798,76.4351
 L 118.59,77.3723 L 118.366,78.3057 L 118.126,79.235 L 117.869,80.16 L 117.597,81.0804 L 117.308,81.9959
 L 117.004,82.9062 L 116.683,83.8111 L 116.347,84.7102 L 115.995,85.6033 L 115.628,86.4902 L 115.245,87.3705
 L 114.847,88.244 L 114.434,89.1104 L 114.005,89.9695 L 113.562,90.8209 L 113.104,91.6645 L 112.631,92.5
 L 112.144,93.3271 L 111.643,94.1456 L 111.127,94.9551 L 110.597,95.7556 L 110.053,96.5467 L 109.496,97.3282
 L 108.925,98.0998 L 108.341,98.8614 L 107.743,99.6126 L 107.132,100.353 L 106.509,101.083 L 105.873,101.802
 L 105.224,102.51 L 104.564,103.206 L 103.891,103.891 L 103.206,104.564 L 102.51,105.224 L 101.802,105.873
 L 101.083,106.509 L 100.353,107.132 L 99.6126,107.743 L 98.8614,108.341 L 98.0998,108.925 L 97.3282,109.496
 L 96.5467,110.053 L 95.7556,110.597 L 94.9551,111.127 L 94.1456,111.643 L 93.3271,112.144 L 92.5,112.631
 L 91.6645,113.104 L 90.8209,113.562 L 89.9695,114.005 L 89.1104,114.434 L 88.244,114.847 L 87.3705,115.245
 L 86.4902,115.628 L 85.6033,115.995 L 84.7102,116.347 L 83.8111,116.683 L 82.9062,117.004 L 81.9959,117.308
 L 81.0804,117.597 L 80.16,117.869 L 79.235,118.126 L 78.3057,118.366 L 77.3723,118.59 L 76.4351,118.798
 L 75.4945,118.989 L 74.5506,119.164 L 73.6039,119.323 L 72.6545,119.465 L 71.7028,119.59 L 70.7491,119.699
 L 69.7936,119.791 L 68.8366,119.866 L 67.8785,119.925 L 66.9195,119.966 L 65.9599,119.992 L 65,120
 z
M 94.9389,14.7874 L 94.8171,14.7789 L 94.6961,14.7619 L 94.5766,14.7365 L 94.4592,14.7028 L 94.3444,14.6611
 L 94.2328,14.6114 L 94.125,14.554 L 94.0214,14.4893 L 93.9226,14.4175 L 93.829,14.339 L 93.7411,14.2541
 L 93.6594,14.1634 L 93.5842,14.0671 L 93.5159,13.9658 L 93.4548,13.8601 L 93.4013,13.7503 L 93.3555,13.637
 L 93.3178,13.5208 L 93.2882,13.4023 L 93.267,13.282 L 93.2543,13.1606 L 93.25,13.0385 L 93.2543,12.9164
 L 93.267,12.7949 L 93.2882,12.6746 L 93.3178,12.5561 L 93.3555,12.4399 L 93.4013,12.3267 L 93.4548,12.2169
 L 93.5159,12.1111 L 93.5842,12.0099 L 93.6594,11.9136 L 93.7411,11.8228 L 93.829,11.738 L 93.9226,11.6595
 L 94.0214,11.5877 L 94.125,11.5229 L 94.2328,11.4656 L 94.3444,11.4159 L 94.4592,11.3741 L 94.5766,11.3405
 L 94.6961,11.3151 L 94.8171,11.2981 L 94.9389,11.2896 L 95.0611,11.2896 L 95.1829,11.2981 L 95.3039,11.3151
 L 95.4234,11.3405 L 95.5408,11.3741 L 95.6555,11.4159 L 95.7671,11.4656 L 95.875,11.5229 L 95.9786,11.5877
 L 96.0774,11.6595 L 96.171,11.738 L 96.2588,11.8228 L 96.3406,11.9136 L 96.4158,12.0099 L 96.4841,12.1111
 L 96.5452,12.2169 L 96.5987,12.3267 L 96.6445,12.4399 L 96.6822,12.5561 L 96.7117,12.6746 L 96.733,12.7949
 L 96.7457,12.9164 L 96.75,13.0385 L 96.7457,13.1606 L 96.733,13.282 L 96.7117,13.4023 L 96.6822,13.5208
 L 96.6445,13.637 L 96.5987,13.7503 L 96.5452,13.8601 L 96.4841,13.9658 L 96.4158,14.0671 L 96.3406,14.1634
 L 96.2588,14.2541 L 96.171,14.339 L 96.0774,14.4175 L 95.9786,14.4893 L 95.875,14.554 L 95.7671,14.6114
 L 95.6555,14.6611 L 95.5408,14.7028 L 95.4234,14.7365 L 95.3039,14.7619 L 95.1829,14.7789 L 95.0611,14.7874
 z
M 34.9389,14.7874 L 34.8171,14.7789 L 34.6961,14.7619 L 34.5766,14.7365 L 34.4592,14.7028 L 34.3445,14.6611
 L 34.2329,14.6114 L 34.125,14.554 L 34.0214,14.4893 L 33.9226,14.4175 L 33.829,14.339 L 33.7412,14.2541
 L 33.6594,14.1634 L 33.5842,14.0671 L 33.5159,13.9658 L 33.4548,13.8601 L 33.4013,13.7503 L 33.3555,13.637
 L 33.3178,13.5208 L 33.2883,13.4023 L 33.267,13.282 L 33.2543,13.1606 L 33.25,13.0385 L 33.2543,12.9164
 L 33.267,12.7949 L 33.2883,12.6746 L 33.3178,12.5561 L 33.3555,12.4399 L 33.4013,12.3267 L 33.4548,12.2169
 L 33.5159,12.1111 L 33.5842,12.0099 L 33.6594,11.9136 L 33.7412,11.8228 L 33.829,11.738 L 33.9226,11.6595
 L 34.0214,11.5877 L 34.125,11.5229 L 34.2329,11.4656 L 34.3445,11.4159 L 34.4592,11.3741 L 34.5766,11.3405
 L 34.6961,11.3151 L 34.8171,11.2981 L 34.9389,11.2896 L 35.0611,11.2896 L 35.1829,11.2981 L 35.3039,11.3151
 L 35.4234,11.3405 L 35.5408,11.3741 L 35.6556,11.4159 L 35.7672,11.4656 L 35.875,11.5229 L 35.9786,11.5877
 L 36.0774,11.6595 L 36.171,11.738 L 36.2589,11.8228 L 36.3406,11.9136 L 36.4158,12.0099 L 36.4841,12.1111
 L 36.5452,12.2169 L 36.5987,12.3267 L 36.6445,12.4399 L 36.6822,12.5561 L 36.7118,12.6746 L 36.733,12.7949
 L 36.7457,12.9164 L 36.75,13.0385 L 36.7457,13.1606 L 36.733,13.282 L 36.7118,13.4023 L 36.6822,13.5208
 L 36.6445,13.637 L 36.5987,13.7503 L 36.5452,13.8601 L 36.4841,13.9658 L 36.4158,14.0671 L 36.3406,14.1634
 L 36.2589,14.2541 L 36.171,14.339 L 36.0774,14.4175 L 35.9786,14.4893 L 35.875,14.554 L 35.7672,14.6114
 L 35.6556,14.6611 L 35.5408,14.7028 L 35.4234,14.7365 L 35.3039,14.7619 L 35.1829,14.7789 L 35.0611,14.7874
 z
M 116.9,36.7489 L 116.779,36.7404 L 116.658,36.7234 L 116.538,36.698 L 116.421,36.6644 L 116.306,36.6226
 L 116.194,36.5729 L 116.087,36.5155 L 115.983,36.4508 L 115.884,36.379 L 115.791,36.3005 L 115.703,36.2157
 L 115.621,36.1249 L 115.546,36.0286 L 115.477,35.9274 L 115.416,35.8216 L 115.363,35.7118 L 115.317,35.5985
 L 115.279,35.4824 L 115.25,35.3638 L 115.229,35.2436 L 115.216,35.1221 L 115.212,35 L 115.216,34.8779
 L 115.229,34.7565 L 115.25,34.6362 L 115.279,34.5176 L 115.317,34.4015 L 115.363,34.2882 L 115.416,34.1784
 L 115.477,34.0726 L 115.546,33.9714 L 115.621,33.8751 L 115.703,33.7844 L 115.791,33.6995 L 115.884,33.621
 L 115.983,33.5492 L 116.087,33.4845 L 116.194,33.4271 L 116.306,33.3774 L 116.421,33.3357 L 116.538,33.302
 L 116.658,33.2766 L 116.779,33.2596 L 116.9,33.2511 L 117.023,33.2511 L 117.144,33.2596 L 117.265,33.2766
 L 117.385,33.302 L 117.502,33.3357 L 117.617,33.3774 L 117.729,33.4271 L 117.837,33.4845 L 117.94,33.5492
 L 118.039,33.621 L 118.132,33.6995 L 118.22,33.7844 L 118.302,33.8751 L 118.377,33.9714 L 118.446,34.0726
 L 118.507,34.1784 L 118.56,34.2882 L 118.606,34.4015 L 118.644,34.5176 L 118.673,34.6362 L 118.694,34.7565
 L 118.707,34.8779 L 118.712,35 L 118.707,35.1221 L 118.694,35.2436 L 118.673,35.3638 L 118.644,35.4824
 L 118.606,35.5985 L 118.56,35.7118 L 118.507,35.8216 L 118.446,35.9274 L 118.377,36.0286 L 118.302,36.1249
 L 118.22,36.2157 L 118.132,36.3005 L 118.039,36.379 L 117.94,36.4508 L 117.837,36.5155 L 117.729,36.5729
 L 117.617,36.6226 L 117.502,36.6644 L 117.385,36.698 L 117.265,36.7234 L 117.144,36.7404 L 117.023,36.7489
 z
M 12.9774,36.7489 L 12.8556,36.7404 L 12.7346,36.7234 L 12.6151,36.698 L 12.4977,36.6644 L 12.3829,36.6226
 L 12.2713,36.5729 L 12.1635,36.5155 L 12.0599,36.4508 L 11.9611,36.379 L 11.8675,36.3005 L 11.7796,36.2157
 L 11.6979,36.1249 L 11.6227,36.0286 L 11.5544,35.9274 L 11.4933,35.8216 L 11.4398,35.7118 L 11.394,35.5985
 L 11.3563,35.4824 L 11.3267,35.3638 L 11.3055,35.2436 L 11.2927,35.1221 L 11.2885,35 L 11.2927,34.8779
 L 11.3055,34.7565 L 11.3267,34.6362 L 11.3563,34.5176 L 11.394,34.4015 L 11.4398,34.2882 L 11.4933,34.1784
 L 11.5544,34.0726 L 11.6227,33.9714 L 11.6979,33.8751 L 11.7796,33.7844 L 11.8675,33.6995 L 11.9611,33.621
 L 12.0599,33.5492 L 12.1635,33.4845 L 12.2713,33.4271 L 12.3829,33.3774 L 12.4977,33.3357 L 12.6151,33.302
 L 12.7346,33.2766 L 12.8556,33.2596 L 12.9774,33.2511 L 13.0996,33.2511 L 13.2214,33.2596 L 13.3424,33.2766
 L 13.4619,33.302 L 13.5793,33.3357 L 13.694,33.3774 L 13.8056,33.4271 L 13.9135,33.4845 L 14.0171,33.5492
 L 14.1159,33.621 L 14.2095,33.6995 L 14.2973,33.7844 L 14.3791,33.8751 L 14.4543,33.9714 L 14.5226,34.0726
 L 14.5836,34.1784 L 14.6372,34.2882 L 14.683,34.4015 L 14.7207,34.5176 L 14.7502,34.6362 L 14.7715,34.7565
 L 14.7842,34.8779 L 14.7885,35 L 14.7842,35.1221 L 14.7715,35.2436 L 14.7502,35.3638 L 14.7207,35.4824
 L 14.683,35.5985 L 14.6372,35.7118 L 14.5836,35.8216 L 14.5226,35.9274 L 14.4543,36.0286 L 14.3791,36.1249
 L 14.2973,36.2157 L 14.2095,36.3005 L 14.1159,36.379 L 14.0171,36.4508 L 13.9135,36.5155 L 13.8056,36.5729
 L 13.694,36.6226 L 13.5793,36.6644 L 13.4619,36.698 L 13.3424,36.7234 L 13.2214,36.7404 L 13.0996,36.7489
 z
M 124.939,66.7489 L 124.817,66.7404 L 124.696,66.7234 L 124.577,66.698 L 124.459,66.6643 L 124.344,66.6226
 L 124.233,66.5729 L 124.125,66.5155 L 124.021,66.4508 L 123.923,66.379 L 123.829,66.3005 L 123.741,66.2156
 L 123.659,66.1249 L 123.584,66.0286 L 123.516,65.9274 L 123.455,65.8216 L 123.401,65.7118 L 123.356,65.5985
 L 123.318,65.4824 L 123.288,65.3638 L 123.267,65.2435 L 123.254,65.1221 L 123.25,65 L 123.254,64.8779
 L 123.267,64.7565 L 123.288,64.6362 L 123.318,64.5176 L 123.356,64.4015 L 123.401,64.2882 L 123.455,64.1784
 L 123.516,64.0726 L 123.584,63.9714 L 123.659,63.8751 L 123.741,63.7844 L 123.829,63.6995 L 123.923,63.621
 L 124.021,63.5492 L 124.125,63.4845 L 124.233,63.4271 L 124.344,63.3774 L 124.459,63.3357 L 124.577,63.302
 L 124.696,63.2766 L 124.817,63.2596 L 124.939,63.2511 L 125.061,63.2511 L 125.183,63.2596 L 125.304,63.2766
 L 125.423,63.302 L 125.541,63.3357 L 125.656,63.3774 L 125.767,63.4271 L 125.875,63.4845 L 125.979,63.5492
 L 126.077,63.621 L 126.171,63.6995 L 126.259,63.7844 L 126.341,63.8751 L 126.416,63.9714 L 126.484,64.0726
 L 126.545,64.1784 L 126.599,64.2882 L 126.644,64.4015 L 126.682,64.5176 L 126.712,64.6362 L 126.733,64.7565
 L 126.746,64.8779 L 126.75,65 L 126.746,65.1221 L 126.733,65.2435 L 126.712,65.3638 L 126.682,65.4824
 L 126.644,65.5985 L 126.599,65.7118 L 126.545,65.8216 L 126.484,65.9274 L 126.416,66.0286 L 126.341,66.1249
 L 126.259,66.2156 L 126.171,66.3005 L 126.077,66.379 L 125.979,66.4508 L 125.875,66.5155 L 125.767,66.5729
 L 125.656,66.6226 L 125.541,66.6643 L 125.423,66.698 L 125.304,66.7234 L 125.183,66.7404 L 125.061,66.7489
 z
M 4.93893,66.7489 L 4.81708,66.7404 L 4.69612,66.7234 L 4.57664,66.698 L 4.45923,66.6643 L 4.34445,66.6226
 L 4.23286,66.5729 L 4.125,66.5155 L 4.02142,66.4508 L 3.92261,66.379 L 3.82903,66.3005 L 3.74117,66.2156
 L 3.65942,66.1249 L 3.58423,66.0286 L 3.51593,65.9274 L 3.45485,65.8216 L 3.40131,65.7118 L 3.35555,65.5985
 L 3.31779,65.4824 L 3.28825,65.3638 L 3.26704,65.2435 L 3.25427,65.1221 L 3.25,65 L 3.25427,64.8779
 L 3.26704,64.7565 L 3.28825,64.6362 L 3.31779,64.5176 L 3.35555,64.4015 L 3.40131,64.2882 L 3.45485,64.1784
 L 3.51593,64.0726 L 3.58423,63.9714 L 3.65942,63.8751 L 3.74117,63.7844 L 3.82903,63.6995 L 3.92261,63.621
 L 4.02142,63.5492 L 4.125,63.4845 L 4.23286,63.4271 L 4.34445,63.3774 L 4.45923,63.3357 L 4.57664,63.302
 L 4.69612,63.2766 L 4.81708,63.2596 L 4.93893,63.2511 L 5.06108,63.2511 L 5.18294,63.2596 L 5.30389,63.2766
 L 5.42337,63.302 L 5.54079,63.3357 L 5.65556,63.3774 L 5.76715,63.4271 L 5.875,63.4845 L 5.97859,63.5492
 L 6.07741,63.621 L 6.17099,63.6995 L 6.25885,63.7844 L 6.34059,63.8751 L 6.41579,63.9714 L 6.48409,64.0726
 L 6.54517,64.1784 L 6.59871,64.2882 L 6.64447,64.4015 L 6.68222,64.5176 L 6.71176,64.6362 L 6.73297,64.7565
 L 6.74574,64.8779 L 6.75,65 L 6.74574,65.1221 L 6.73297,65.2435 L 6.71176,65.3638 L 6.68222,65.4824
 L 6.64447,65.5985 L 6.59871,65.7118 L 6.54517,65.8216 L 6.48409,65.9274 L 6.41579,66.0286 L 6.34059,66.1249
 L 6.25885,66.2156 L 6.17099,66.3005 L 6.07741,66.379 L 5.97859,66.4508 L 5.875,66.5155 L 5.76715,66.5729
 L 5.65556,66.6226 L 5.54079,66.6643 L 5.42337,66.698 L 5.30389,66.7234 L 5.18294,66.7404 L 5.06108,66.7489
 z
M 116.9,96.7489 L 116.779,96.7404 L 116.658,96.7234 L 116.538,96.698 L 116.421,96.6643 L 116.306,96.6226
 L 116.194,96.5729 L 116.087,96.5155 L 115.983,96.4508 L 115.884,96.379 L 115.791,96.3005 L 115.703,96.2156
 L 115.621,96.1249 L 115.546,96.0286 L 115.477,95.9274 L 115.416,95.8216 L 115.363,95.7118 L 115.317,95.5985
 L 115.279,95.4824 L 115.25,95.3638 L 115.229,95.2435 L 115.216,95.1221 L 115.212,95 L 115.216,94.8779
 L 115.229,94.7564 L 115.25,94.6362 L 115.279,94.5176 L 115.317,94.4015 L 115.363,94.2882 L 115.416,94.1784
 L 115.477,94.0726 L 115.546,93.9714 L 115.621,93.8751 L 115.703,93.7843 L 115.791,93.6995 L 115.884,93.621
 L 115.983,93.5492 L 116.087,93.4845 L 116.194,93.4271 L 116.306,93.3774 L 116.421,93.3356 L 116.538,93.302
 L 116.658,93.2766 L 116.779,93.2596 L 116.9,93.2511 L 117.023,93.2511 L 117.144,93.2596 L 117.265,93.2766
 L 117.385,93.302 L 117.502,93.3356 L 117.617,93.3774 L 117.729,93.4271 L 117.837,93.4845 L 117.94,93.5492
 L 118.039,93.621 L 118.132,93.6995 L 118.22,93.7843 L 118.302,93.8751 L 118.377,93.9714 L 118.446,94.0726
 L 118.507,94.1784 L 118.56,94.2882 L 118.606,94.4015 L 118.644,94.5176 L 118.673,94.6362 L 118.694,94.7564
 L 118.707,94.8779 L 118.712,95 L 118.707,95.1221 L 118.694,95.2435 L 118.673,95.3638 L 118.644,95.4824
 L 118.606,95.5985 L 118.56,95.7118 L 118.507,95.8216 L 118.446,95.9274 L 118.377,96.0286 L 118.302,96.1249
 L 118.22,96.2156 L 118.132,96.3005 L 118.039,96.379 L 117.94,96.4508 L 117.837,96.5155 L 117.729,96.5729
 L 117.617,96.6226 L 117.502,96.6643 L 117.385,96.698 L 117.265,96.7234 L 117.144,96.7404 L 117.023,96.7489
 z
M 12.9774,96.7489 L 12.8556,96.7404 L 12.7346,96.7234 L 12.6151,96.698 L 12.4977,96.6643 L 12.3829,96.6226
 L 12.2713,96.5729 L 12.1635,96.5155 L 12.0599,96.4508 L 11.9611,96.379 L 11.8675,96.3005 L 11.7796,96.2156
 L 11.6979,96.1249 L 11.6227,96.0286 L 11.5544,95.9274 L 11.4933,95.8216 L 11.4398,95.7118 L 11.394,95.5985
 L 11.3563,95.4824 L 11.3267,95.3638 L 11.3055,95.2435 L 11.2927,95.1221 L 11.2885,95 L 11.2927,94.8779
 L 11.3055,94.7564 L 11.3267,94.6362 L 11.3563,94.5176 L 11.394,94.4015 L 11.4398,94.2882 L 11.4933,94.1784
 L 11.5544,94.0726 L 11.6227,93.9714 L 11.6979,93.8751 L 11.7796,93.7843 L 11.8675,93.6995 L 11.9611,93.621
 L 12.0599,93.5492 L 12.1635,93.4845 L 12.2713,93.4271 L 12.3829,93.3774 L 12.4977,93.3356 L 12.6151,93.302
 L 12.7346,93.2766 L 12.8556,93.2596 L 12.9774,93.2511 L 13.0996,93.2511 L 13.2214,93.2596 L 13.3424,93.2766
 L 13.4619,93.302 L 13.5793,93.3356 L 13.694,93.3774 L 13.8056,93.4271 L 13.9135,93.4845 L 14.0171,93.5492
 L 14.1159,93.621 L 14.2095,93.6995 L 14.2973,93.7843 L 14.3791,93.8751 L 14.4543,93.9714 L 14.5226,94.0726
 L 14.5836,94.1784 L 14.6372,94.2882 L 14.683,94.4015 L 14.7207,94.5176 L 14.7502,94.6362 L 14.7715,94.7564
 L 14.7842,94.8779 L 14.7885,95 L 14.7842,95.1221 L 14.7715,95.2435 L 14.7502,95.3638 L 14.7207,95.4824
 L 14.683,95.5985 L 14.6372,95.7118 L 14.5836,95.8216 L 14.5226,95.9274 L 14.4543,96.0286 L 14.3791,96.1249
 L 14.2973,96.2156 L 14.2095,96.3005 L 14.1159,96.379 L 14.0171,96.4508 L 13.9135,96.5155 L 13.8056,96.5729
 L 13.694,96.6226 L 13.5793,96.6643 L 13.4619,96.698 L 13.3424,96.7234 L 13.2214,96.7404 L 13.0996,96.7489
 z
M 94.9389,118.71 L 94.8171,118.702 L 94.6961,118.685 L 94.5766,118.66 L 94.4592,118.626 L 94.3444,118.584
 L 94.2328,118.534 L 94.125,118.477 L 94.0214,118.412 L 93.9226,118.341 L 93.829,118.262 L 93.7411,118.177
 L 93.6594,118.086 L 93.5842,117.99 L 93.5159,117.889 L 93.4548,117.783 L 93.4013,117.673 L 93.3555,117.56
 L 93.3178,117.444 L 93.2882,117.325 L 93.267,117.205 L 93.2543,117.084 L 93.25,116.962 L 93.2543,116.839
 L 93.267,116.718 L 93.2882,116.598 L 93.3178,116.479 L 93.3555,116.363 L 93.4013,116.25 L 93.4548,116.14
 L 93.5159,116.034 L 93.5842,115.933 L 93.6594,115.837 L 93.7411,115.746 L 93.829,115.661 L 93.9226,115.583
 L 94.0214,115.511 L 94.125,115.446 L 94.2328,115.389 L 94.3444,115.339 L 94.4592,115.297 L 94.5766,115.264
 L 94.6961,115.238 L 94.8171,115.221 L 94.9389,115.213 L 95.0611,115.213 L 95.1829,115.221 L 95.3039,115.238
 L 95.4234,115.264 L 95.5408,115.297 L 95.6555,115.339 L 95.7671,115.389 L 95.875,115.446 L 95.9786,115.511
 L 96.0774,115.583 L 96.171,115.661 L 96.2588,115.746 L 96.3406,115.837 L 96.4158,115.933 L 96.4841,116.034
 L 96.5452,116.14 L 96.5987,116.25 L 96.6445,116.363 L 96.6822,116.479 L 96.7117,116.598 L 96.733,116.718
 L 96.7457,116.839 L 96.75,116.962 L 96.7457,117.084 L 96.733,117.205 L 96.7117,117.325 L 96.6822,117.444
 L 96.6445,117.56 L 96.5987,117.673 L 96.5452,117.783 L 96.4841,117.889 L 96.4158,117.99 L 96.3406,118.086
 L 96.2588,118.177 L 96.171,118.262 L 96.0774,118.341 L 95.9786,118.412 L 95.875,118.477 L 95.7671,118.534
 L 95.6555,118.584 L 95.5408,118.626 L 95.4234,118.66 L 95.3039,118.685 L 95.1829,118.702 L 95.0611,118.71
 z
M 34.9389,118.71 L 34.8171,118.702 L 34.6961,118.685 L 34.5766,118.66 L 34.4592,118.626 L 34.3445,118.584
 L 34.2329,118.534 L 34.125,118.477 L 34.0214,118.412 L 33.9226,118.341 L 33.829,118.262 L 33.7412,118.177
 L 33.6594,118.086 L 33.5842,117.99 L 33.5159,117.889 L 33.4548,117.783 L 33.4013,117.673 L 33.3555,117.56
 L 33.3178,117.444 L 33.2883,117.325 L 33.267,117.205 L 33.2543,117.084 L 33.25,116.962 L 33.2543,116.839
 L 33.267,116.718 L 33.2883,116.598 L 33.3178,116.479 L 33.3555,116.363 L 33.4013,116.25 L 33.4548,116.14
 L 33.5159,116.034 L 33.5842,115.933 L 33.6594,115.837 L 33.7412,115.746 L 33.829,115.661 L 33.9226,115.583
 L 34.0214,115.511 L 34.125,115.446 L 34.2329,115.389 L 34.3445,115.339 L 34.4592,115.297 L 34.5766,115.264
 L 34.6961,115.238 L 34.8171,115.221 L 34.9389,115.213 L 35.0611,115.213 L 35.1829,115.221 L 35.3039,115.238
 L 35.4234,115.264 L 35.5408,115.297 L 35.6556,115.339 L 35.7672,115.389 L 35.875,115.446 L 35.9786,115.511
 L 36.0774,115.583 L 36.171,115.661 L 36.2589,115.746 L 36.3406,115.837 L 36.4158,115.933 L 36.4841,116.034
 L 36.5452,116.14 L 36.5987,116.25 L 36.6445,116.363 L 36.6822,116.479 L 36.7118,116.598 L 36.733,116.718
 L 36.7457,116.839 L 36.75,116.962 L 36.7457,117.084 L 36.733,117.205 L 36.7118,117.325 L 36.6822,117.444
 L 36.6445,117.56 L 36.5987,117.673 L 36.5452,117.783 L 36.4841,117.889 L 36.4158,117.99 L 36.3406,118.086
 L 36.2589,118.177 L 36.171,118.262 L 36.0774,118.341 L 35.9786,118.412 L 35.875,118.477 L 35.7672,118.534
 L 35.6556,118.584 L 35.5408,118.626 L 35.4234,118.66 L 35.3039,118.685 L 35.1829,118.702 L 35.0611,118.71
 z
M 64.9389,126.749 L 64.8171,126.74 L 64.6961,126.723 L 64.5766,126.698 L 64.4592,126.664 L 64.3445,126.623
 L 64.2329,126.573 L 64.125,126.516 L 64.0214,126.451 L 63.9226,126.379 L 63.829,126.3 L 63.7412,126.216
 L 63.6594,126.125 L 63.5842,126.029 L 63.5159,125.927 L 63.4548,125.822 L 63.4013,125.712 L 63.3555,125.599
 L 63.3178,125.482 L 63.2883,125.364 L 63.267,125.244 L 63.2543,125.122 L 63.25,125 L 63.2543,124.878
 L 63.267,124.756 L 63.2883,124.636 L 63.3178,124.518 L 63.3555,124.401 L 63.4013,124.288 L 63.4548,124.178
 L 63.5159,124.073 L 63.5842,123.971 L 63.6594,123.875 L 63.7412,123.784 L 63.829,123.699 L 63.9226,123.621
 L 64.0214,123.549 L 64.125,123.484 L 64.2329,123.427 L 64.3445,123.377 L 64.4592,123.336 L 64.5766,123.302
 L 64.6961,123.277 L 64.8171,123.26 L 64.9389,123.251 L 65.0611,123.251 L 65.1829,123.26 L 65.3039,123.277
 L 65.4234,123.302 L 65.5408,123.336 L 65.6555,123.377 L 65.7671,123.427 L 65.875,123.484 L 65.9786,123.549
 L 66.0774,123.621 L 66.171,123.699 L 66.2588,123.784 L 66.3406,123.875 L 66.4158,123.971 L 66.4841,124.073
 L 66.5452,124.178 L 66.5987,124.288 L 66.6445,124.401 L 66.6822,124.518 L 66.7117,124.636 L 66.733,124.756
 L 66.7457,124.878 L 66.75,125 L 66.7457,125.122 L 66.733,125.244 L 66.7117,125.364 L 66.6822,125.482
 L 66.6445,125.599 L 66.5987,125.712 L 66.5452,125.822 L 66.4841,125.927 L 66.4158,126.029 L 66.3406,126.125
 L 66.2588,126.216 L 66.171,126.3 L 66.0774,126.379 L 65.9786,126.451 L 65.875,126.516 L 65.7671,126.573
 L 65.6555,126.623 L 65.5408,126.664 L 65.4234,126.698 L 65.3039,126.723 L 65.1829,126.74 L 65.0611,126.749
 z
" stroke="black" fill="lightgray" stroke-width="0.5"/></svg>
