<?xml version="1.0" standalone="no"?>
<!DOCTYPE svg PUBLIC "-//W3C//DTD SVG 1.1//EN" "http://www.w3.org/Graphics/SVG/1.1/DTD/svg11.dtd">
<svg width="130mm" height="130mm" viewBox="0 0 130 130" xmlns="http://www.w3.org/2000/svg" version="1.1">
<title>OpenSCAD Model</title>
<path d="
M 66.1344,129.99 L 67.2685,129.96 L 68.4018,129.911 L 69.5342,129.842 L 70.6651,129.753 L 71.7943,129.644
 L 72.9215,129.515 L 74.0462,129.367 L 75.1682,129.2 L 76.2871,129.012 L 77.4026,128.806 L 78.5143,128.58
 L 79.6218,128.334 L 80.7249,128.069 L 81.8232,127.785 L 82.9164,127.482 L 84.0042,127.16 L 85.0861,126.819
 L 86.1619,126.459 L 87.2313,126.08 L 88.2939,125.683 L 89.3494,125.267 L 90.3975,124.833 L 91.4379,124.38
 L 92.4702,123.91 L 93.4941,123.422 L 94.5094,122.915 L 95.5156,122.392 L 96.5126,121.85 L 97.277,121.418
 L 97.3119,121.348 L 97.7552,120.496 L 98.2132,119.653 L 98.6859,118.817 L 99.1731,117.99 L 99.6746,117.172
 L 100.19,116.362 L 100.72,115.562 L 101.264,114.771 L 101.821,113.989 L 102.392,113.217 L 102.977,112.456
 L 103.574,111.705 L 104.185,110.964 L 104.808,110.234 L 105.444,109.515 L 106.093,108.807 L 106.754,108.111
 L 107.426,107.426 L 108.111,106.754 L 108.807,106.093 L 109.515,105.444 L 110.234,104.808 L 110.964,104.185
 L 111.705,103.574 L 112.456,102.977 L 113.217,102.392 L 113.989,101.821 L 114.771,101.264 L 115.562,100.72
 L 116.362,100.19 L 117.172,99.6746 L 117.99,99.1731 L 118.817,98.6859 L 119.653,98.2132 L 120.496,97.7552
 L 121.348,97.3119 L 121.418,97.277 L 121.85,96.5126 L 122.392,95.5156 L 122.915,94.5094 L 123.422,93.4941
 L 123.91,92.4702 L 124.38,91.4379 L 124.833,90.3975 L 125.267,89.3494 L 125.683,88.2939 L 126.08,87.2313
 L 126.459,86.1619 L 126.819,85.0861 L 127.16,84.0042 L 127.482,82.9164 L 127.785,81.8232 L 128.069,80.7249
 L 128.334,79.6218 L 128.58,78.5143 L 128.806,77.4026 L 129.012,76.2871 L 129.2,75.1682 L 129.367,74.0462
 L 129.515,72.9215 L 129.644,71.7943 L 129.753,70.6651 L 129.842,69.5342 L 129.911,68.4018 L 129.96,67.2685
 L 129.99,66.1344 L 130,65 L 129.99,63.8656 L 129.96,62.7315 L 129.911,61.5982 L 129.842,60.4658
 L 129.753,59.3349 L 129.644,58.2057 L 129.515,57.0785 L 129.367,55.9538 L 129.2,54.8318 L 129.012,53.7129
 L 128.806,52.5974 L 128.58,51.4857 L 128.334,50.3782 L 128.069,49.2751 L 127.785,48.1768 L 127.482,47.0836
 L 127.16,45.9958 L 126.819,44.9139 L 126.459,43.8381 L 126.08,42.7687 L 125.683,41.7061 L 125.267,40.6506
 L 124.833,39.6025 L 124.38,38.5621 L 123.91,37.5298 L 123.422,36.5059 L 122.915,35.4906 L 122.392,34.4844
 L 121.85,33.4874 L 121.418,32.723 L 121.348,32.6881 L 120.496,32.2448 L 119.653,31.7868 L 118.817,31.3141
 L 117.99,30.8269 L 117.172,30.3254 L 116.362,29.8096 L 115.562,29.2798 L 114.771,28.7361 L 113.989,28.1787
 L 113.217,27.6077 L 112.456,27.0233 L 111.705,26.4258 L 110.964,25.8152 L 110.234,25.1918 L 109.515,24.5557
 L 108.807,23.9072 L 108.111,23.2464 L 107.426,22.5736 L 106.754,21.8889 L 106.093,21.1926 L 105.444,20.4849
 L 104.808,19.766 L 104.185,19.036 L 103.574,18.2953 L 102.977,17.5441 L 102.392,16.7825 L 101.821,16.0109
 L 101.264,15.2294 L 100.72,14.4383 L 100.19,13.6379 L 99.6746,12.8283 L 99.1731,12.0098 L 98.6859,11.1827
 L 98.2132,10.3473 L 97.7552,9.50366 L 97.3119,8.65221 L 97.277,8.5822 L 96.5126,8.14972 L 95.5156,7.60841
 L 94.5094,7.08458 L 93.4941,6.5784 L 92.4702,6.09 L 91.4379,5.61955 L 90.3975,5.16719 L 89.3494,4.73306
 L 88.2939,4.31728 L 87.2313,3.91998 L 86.1619,3.54131 L 85.0861,3.18134 L 84.0042,2.84019 L 82.9164,2.51799
 L 81.8232,2.21483 L 80.7249,1.93079 L 79.6218,1.66595 L 78.5143,1.42041 L 77.4026,1.19424 L 76.2871,0.987503
 L 75.1682,0.800262 L 74.0462,0.632584 L 72.9215,0.484512 L 71.7943,0.356079 L 70.6651,0.247345 L 69.5342,0.15834
 L 68.4018,0.0890808 L 67.2685,0.0395966 L 66.1344,0.00990295 L 65,-0 L 63.8656,0.00990295 L 62.7315,0.0395966
 L 61.5982,0.0890808 L 60.4658,0.15834 L 59.3349,0.247345 L 58.2057,0.356079 L 57.0785,0.484512 L 55.9538,0.632584
 L 54.8318,0.800262 L 53.7129,0.987503 L 52.5974,1.19424 L 51.4857,1.42041 L 50.3782,1.66595 L 49.2751,1.93079
 L 48.1768,2.21483 L 47.0836,2.51799 L 45.9958,2.84019 L 44.9139,3.18134 L 43.8381,3.54131 L 42.7687,3.91998
 L 41.7061,4.31728 L 40.6506,4.73306 L 39.6025,5.16719 L 38.5621,5.61955 L 37.5298,6.09 L 36.5059,6.5784
 L 35.4906,7.08458 L 34.4844,7.60841 L 33.4874,8.14972 L 32.723,8.58221 L 32.6881,8.65221 L 32.2448,9.50366
 L 31.7868,10.3473 L 31.3141,11.1827 L 30.8269,12.0098 L 30.3254,12.8283 L 29.8096,13.6379 L 29.2798,14.4383
 L 28.7361,15.2294 L 28.1787,16.0109 L 27.6077,16.7825 L 27.0233,17.5441 L 26.4258,18.2953 L 25.8152,19.036
 L 25.1918,19.766 L 24.5557,20.4849 L 23.9072,21.1926 L 23.2464,21.8889 L 22.5736,22.5736 L 21.8889,23.2464
 L 21.1926,23.9072 L 20.4849,24.5557 L 19.766,25.1918 L 19.036,25.8152 L 18.2953,26.4258 L 17.5441,27.0233
 L 16.7825,27.6077 L 16.0109,28.1787 L 15.2294,28.7361 L 14.4383,29.2798 L 13.6379,29.8096 L 12.8283,30.3254
 L 12.0098,30.8269 L 11.1827,31.3141 L 10.3473,31.7868 L 9.50366,32.2448 L 8.65221,32.6881 L 8.58221,32.723
 L 8.14972,33.4874 L 7.60841,34.4844 L 7.08458,35.4906 L 6.5784,36.5059 L 6.09,37.5298 L 5.61955,38.5621
 L 5.16719,39.6025 L 4.73306,40.6506 L 4.31728,41.7061 L 3.91998,42.7687 L 3.54131,43.8381 L 3.18134,44.9139
 L 2.84019,45.9958 L 2.51799,47.0836 L 2.21483,48.1768 L 1.93079,49.2751 L 1.66595,50.3782 L 1.42041,51.4857
 L 1.19424,52.5974 L 0.987503,53.7129 L 0.800262,54.8318 L 0.632584,55.9538 L 0.484512,57.0785 L 0.356079,58.2057
 L 0.247345,59.3349 L 0.15834,60.4658 L 0.0890808,61.5982 L 0.0395966,62.7315 L 0.00990295,63.8656 L 0,65
 L 0.00990295,66.1344 L 0.0395966,67.2685 L 0.0890808,68.4018 L 0.15834,69.5342 L 0.247345,70.6651 L 0.356079,71.7943
 L 0.484512,72.9215 L 0.632584,74.0462 L 0.800262,75.1682 L 0.987503,76.2871 L 1.19424,77.4026 L 1.42041,78.5143
 L 1.66595,79.6218 L 1.93079,80.7249 L 2.21483,81.8232 L 2.51799,82.9164 L 2.84019,84.0042 L 3.18134,85.0861
 L 3.54131,86.1619 L 3.91998,87.2313 L 4.31728,88.2939 L 4.73306,89.3494 L 5.16719,90.3975 L 5.61955,91.4379
 L 6.09,92.4702 L 6.5784,93.4941 L 7.08458,94.5094 L 7.60841,95.5156 L 8.14972,96.5126 L 8.5822,97.277
 L 8.65221,97.3119 L 9.50366,97.7552 L 10.3473,98.2132 L 11.1827,98.6859 L 12.0098,99.1731 L 12.8283,99.6746
 L 13.6379,100.19 L 14.4383,100.72 L 15.2294,101.264 L 16.0109,101.821 L 16.7825,102.392 L 17.5441,102.977
 L 18.2953,103.574 L 19.036,104.185 L 19.766,104.808 L 20.4849,105.444 L 21.1926,106.093 L 21.8889,106.754
 L 22.5736,107.426 L 23.2464,108.111 L 23.9072,108.807 L 24.5557,109.515 L 25.1918,110.234 L 25.8152,110.964
 L 26.4258,111.705 L 27.0233,112.456 L 27.6077,113.217 L 28.1787,113.989 L 28.7361,114.771 L 29.2798,115.562
 L 29.8096,116.362 L 30.3254,117.172 L 30.8269,117.99 L 31.3141,118.817 L 31.7868,119.653 L 32.2448,120.496
 L 32.6881,121.348 L 32.723,121.418 L 33.4874,121.85 L 34.4844,122.392 L 35.4906,122.915 L 36.5059,123.422
 L 37.5298,123.91 L 38.5621,124.38 L 39.6025,124.833 L 40.6506,125.267 L 41.7061,125.683 L 42.7687,126.08
 L 43.8381,126.459 L 44.9139,126.819 L 45.9958,127.16 L 47.0836,127.482 L 48.1768,127.785 L 49.2751,128.069
 L 50.3782,128.334 L 51.4857,128.58 L 52.5974,128.806 L 53.7129,129.012 L 54.8318,129.2 L 55.9538,129.367
 L 57.0785,129.515 L 58.2057,129.644 L 59.3349,129.753 L 60.4658,129.842 L 61.5982,129.911 L 62.7315,129.96
 L 63.8656,129.99 L 65,130 z
M 64.9267,6.39809 L 64.8052,6.38638 L 64.6851,6.36412 L 64.5674,6.33148 L 64.453,6.28871 L 64.3427,6.23613
 L 64.2375,6.17415 L 64.1381,6.10323 L 64.0452,6.0239 L 63.9596,5.9368 L 63.8819,5.84254 L 63.8127,5.7419
 L 63.7526,5.63559 L 63.702,5.52446 L 63.6612,5.40933 L 63.6306,5.29108 L 63.6104,5.17062 L 63.6009,5.04887
 L 63.6019,4.92674 L 63.6136,4.80516 L 63.6359,4.68507 L 63.6685,4.56738 L 63.7113,4.45299 L 63.7639,4.34274
 L 63.8259,4.23752 L 63.8968,4.13808 L 63.9761,4.04521 L 64.0632,3.95961 L 64.1575,3.88191 L 64.2581,3.81274
 L 64.3644,3.75259 L 64.4756,3.70195 L 64.5907,3.66118 L 64.7089,3.6306 L 64.8294,3.61044 L 64.9511,3.60086
 L 65.0733,3.60193 L 65.1948,3.61363 L 65.3149,3.63589 L 65.4326,3.66853 L 65.547,3.7113 L 65.6573,3.76389
 L 65.7625,3.82587 L 65.8619,3.89679 L 65.9548,3.97612 L 66.0404,4.06322 L 66.1181,4.15747 L 66.1873,4.25812
 L 66.2474,4.36443 L 66.298,4.47556 L 66.3388,4.59068 L 66.3694,4.70894 L 66.3896,4.82939 L 66.3991,4.95114
 L 66.3981,5.07327 L 66.3864,5.19485 L 66.3641,5.31494 L 66.3315,5.43263 L 66.2887,5.54703 L 66.2361,5.65727
 L 66.1741,5.7625 L 66.1032,5.86194 L 66.0239,5.9548 L 65.9368,6.04041 L 65.8425,6.1181 L 65.7419,6.18727
 L 65.6356,6.24742 L 65.5244,6.29807 L 65.4093,6.33884 L 65.2911,6.36942 L 65.1706,6.38957 L 65.0489,6.39915
 z
M 94.9267,14.4366 L 94.8051,14.4249 L 94.6851,14.4026 L 94.5674,14.37 L 94.453,14.3272 L 94.3427,14.2746
 L 94.2375,14.2126 L 94.1381,14.1417 L 94.0452,14.0624 L 93.9596,13.9753 L 93.8819,13.881 L 93.8127,13.7804
 L 93.7526,13.6741 L 93.7019,13.5629 L 93.6612,13.4478 L 93.6306,13.3296 L 93.6104,13.2091 L 93.6008,13.0873
 L 93.6019,12.9652 L 93.6136,12.8436 L 93.6359,12.7236 L 93.6685,12.6059 L 93.7113,12.4915 L 93.7639,12.3812
 L 93.8259,12.276 L 93.8968,12.1766 L 93.9761,12.0837 L 94.0632,11.9981 L 94.1575,11.9204 L 94.2581,11.8512
 L 94.3644,11.7911 L 94.4755,11.7404 L 94.5907,11.6997 L 94.7089,11.6691 L 94.8294,11.6489 L 94.9511,11.6393
 L 95.0733,11.6404 L 95.1948,11.6521 L 95.3149,11.6744 L 95.4326,11.707 L 95.547,11.7498 L 95.6573,11.8024
 L 95.7625,11.8643 L 95.8619,11.9353 L 95.9548,12.0146 L 96.0404,12.1017 L 96.1181,12.1959 L 96.1873,12.2966
 L 96.2474,12.4029 L 96.298,12.514 L 96.3388,12.6292 L 96.3694,12.7474 L 96.3896,12.8679 L 96.3991,12.9896
 L 96.3981,13.1118 L 96.3864,13.2333 L 96.3641,13.3534 L 96.3315,13.4711 L 96.2887,13.5855 L 96.2361,13.6957
 L 96.1741,13.801 L 96.1032,13.9004 L 96.0239,13.9933 L 95.9368,14.0789 L 95.8425,14.1566 L 95.7419,14.2258
 L 95.6356,14.2859 L 95.5244,14.3365 L 95.4093,14.3773 L 95.2911,14.4079 L 95.1706,14.4281 L 95.0489,14.4376
 z
M 34.9267,14.4366 L 34.8052,14.4249 L 34.6851,14.4026 L 34.5674,14.37 L 34.453,14.3272 L 34.3427,14.2746
 L 34.2375,14.2126 L 34.1381,14.1417 L 34.0452,14.0624 L 33.9596,13.9753 L 33.8819,13.881 L 33.8127,13.7804
 L 33.7526,13.6741 L 33.702,13.5629 L 33.6612,13.4478 L 33.6306,13.3296 L 33.6104,13.2091 L 33.6009,13.0873
 L 33.6019,12.9652 L 33.6136,12.8436 L 33.6359,12.7236 L 33.6685,12.6059 L 33.7113,12.4915 L 33.7639,12.3812
 L 33.8259,12.276 L 33.8968,12.1766 L 33.9761,12.0837 L 34.0632,11.9981 L 34.1575,11.9204 L 34.2581,11.8512
 L 34.3644,11.7911 L 34.4756,11.7404 L 34.5907,11.6997 L 34.7089,11.6691 L 34.8294,11.6489 L 34.9511,11.6393
 L 35.0733,11.6404 L 35.1949,11.6521 L 35.3149,11.6744 L 35.4326,11.707 L 35.547,11.7498 L 35.6573,11.8024
 L 35.7625,11.8643 L 35.8619,11.9353 L 35.9548,12.0146 L 36.0404,12.1017 L 36.1181,12.1959 L 36.1873,12.2966
 L 36.2474,12.4029 L 36.2981,12.514 L 36.3388,12.6292 L 36.3694,12.7474 L 36.3896,12.8679 L 36.3992,12.9896
 L 36.3981,13.1118 L 36.3864,13.2333 L 36.3641,13.3534 L 36.3315,13.4711 L 36.2887,13.5855 L 36.2361,13.6957
 L 36.1741,13.801 L 36.1032,13.9004 L 36.0239,13.9933 L 35.9368,14.0789 L 35.8425,14.1566 L 35.7419,14.2258
 L 35.6356,14.2859 L 35.5245,14.3365 L 35.4093,14.3773 L 35.2911,14.4079 L 35.1706,14.4281 L 35.0489,14.4376
 z
M 64.1274,114.992 L 63.255,114.97 L 62.3832,114.931 L 61.5122,114.878 L 60.6422,114.81 L 59.7736,114.726
 L 58.9065,114.627 L 58.0414,114.513 L 57.1783,114.384 L 56.3176,114.24 L 55.4596,114.081 L 54.6044,113.907
 L 53.7525,113.718 L 52.9039,113.515 L 52.0591,113.296 L 51.2181,113.063 L 50.3814,112.815 L 49.5492,112.553
 L 48.7216,112.276 L 47.899,111.985 L 47.0816,111.679 L 46.2697,111.359 L 45.4635,111.025 L 44.6632,110.677
 L 43.8691,110.315 L 43.0815,109.94 L 42.3005,109.55 L 41.5264,109.147 L 40.7595,108.731 L 40,108.301
 L 39.2481,107.858 L 38.504,107.402 L 37.7681,106.934 L 37.0404,106.452 L 36.3212,105.958 L 35.6107,105.451
 L 34.9093,104.932 L 34.2169,104.401 L 33.534,103.857 L 32.8606,103.302 L 32.1971,102.735 L 31.5435,102.157
 L 30.9001,101.568 L 30.2671,100.967 L 29.6447,100.355 L 29.033,99.7329 L 28.4323,99.0999 L 27.8428,98.4565
 L 27.2645,97.8029 L 26.6978,97.1394 L 26.1427,96.466 L 25.5995,95.7831 L 25.0682,95.0907 L 24.5492,94.3893
 L 24.0424,93.6788 L 23.5481,92.9596 L 23.0665,92.2319 L 22.5976,91.496 L 22.1416,90.7519 L 21.6987,90
 L 21.269,89.2405 L 20.8526,88.4736 L 20.4497,87.6995 L 20.0603,86.9185 L 19.6846,86.1309 L 19.3227,85.3368
 L 18.9748,84.5365 L 18.6408,83.7303 L 18.321,82.9184 L 18.0154,82.101 L 17.7241,81.2784 L 17.4472,80.4508
 L 17.1848,79.6186 L 16.9369,78.7819 L 16.7037,77.9409 L 16.4852,77.0961 L 16.2815,76.2475 L 16.0926,75.3956
 L 15.9187,74.5404 L 15.7596,73.6824 L 15.6156,72.8217 L 15.4866,71.9586 L 15.3727,71.0935 L 15.2739,70.2264
 L 15.1903,69.3578 L 15.1218,68.4878 L 15.0685,67.6168 L 15.0305,66.745 L 15.0076,65.8726 L 15,65
 L 15.0076,64.1274 L 15.0305,63.255 L 15.0685,62.3832 L 15.1218,61.5122 L 15.1903,60.6422 L 15.2739,59.7736
 L 15.3727,58.9065 L 15.4866,58.0414 L 15.6156,57.1783 L 15.7596,56.3176 L 15.9187,55.4596 L 16.0926,54.6044
 L 16.2815,53.7525 L 16.4852,52.9039 L 16.7037,52.0591 L 16.9369,51.2181 L 17.1848,50.3814 L 17.4472,49.5492
 L 17.7241,48.7216 L 18.0154,47.899 L 18.321,47.0816 L 18.6408,46.2697 L 18.9748,45.4635 L 19.3227,44.6632
 L 19.6846,43.8691 L 20.0603,43.0815 L 20.4497,42.3005 L 20.8526,41.5264 L 21.269,40.7595 L 21.6987,40
 L 22.1416,39.2481 L 22.5976,38.504 L 23.0665,37.7681 L 23.5481,37.0404 L 24.0424,36.3212 L 24.5492,35.6107
 L 25.0682,34.9093 L 25.5995,34.2169 L 26.1427,33.534 L 26.6978,32.8606 L 27.2645,32.1971 L 27.8428,31.5435
 L 28.4323,30.9001 L 29.033,30.2671 L 29.6447,29.6447 L 30.2671,29.033 L 30.9001,28.4323 L 31.5435,27.8428
 L 32.1971,27.2645 L 32.8606,26.6978 L 33.534,26.1427 L 34.2169,25.5995 L 34.9093,25.0682 L 35.6107,24.5492
 L 36.3212,24.0424 L 37.0404,23.5481 L 37.7681,23.0665 L 38.504,22.5976 L 39.2481,22.1416 L 40,21.6987
 L 40.7595,21.269 L 41.5264,20.8526 L 42.3005,20.4497 L 43.0815,20.0603 L 43.8691,19.6846 L 44.6632,19.3227
 L 45.4635,18.9748 L 46.2697,18.6408 L 47.0816,18.321 L 47.899,18.0154 L 48.7216,17.7241 L 49.5492,17.4472
 L 50.3814,17.1848 L 51.2181,16.9369 L 52.0591,16.7037 L 52.9039,16.4852 L 53.7525,16.2815 L 54.6044,16.0926
 L 55.4596,15.9187 L 56.3176,15.7596 L 57.1783,15.6156 L 58.0414,15.4866 L 58.9065,15.3727 L 59.7736,15.2739
 L 60.6422,15.1903 L 61.5122,15.1218 L 62.3832,15.0685 L 63.255,15.0305 L 64.1274,15.0076 L 65,15
 L 65.8726,15.0076 L 66.745,15.0305 L 67.6168,15.0685 L 68.4878,15.1218 L 69.3578,15.1903 L 70.2264,15.2739
 L 71.0935,15.3727 L 71.9586,15.4866 L 72.8217,15.6156 L 73.6824,15.7596 L 74.5404,15.9187 L 75.3956,16.0926
 L 76.2475,16.2815 L 77.0961,16.4852 L 77.9409,16.7037 L 78.7819,16.9369 L 79.6186,17.1848 L 80.4508,17.4472
 L 81.2784,17.7241 L 82.101,18.0154 L 82.9184,18.321 L 83.7303,18.6408 L 84.5365,18.9748 L 85.3368,19.3227
 L 86.1309,19.6846 L 86.9185,20.0603 L 87.6995,20.4497 L 88.4736,20.8526 L 89.2405,21.269 L 90,21.6987
 L 90.7519,22.1416 L 91.496,22.5976 L 92.2319,23.0665 L 92.9596,23.5481 L 93.6788,24.0424 L 94.3893,24.5492
 L 95.0907,25.0682 L 95.7831,25.5995 L 96.466,26.1427 L 97.1394,26.6978 L 97.8029,27.2645 L 98.4565,27.8428
 L 99.0999,28.4323 L 99.7329,29.033 L 100.355,29.6447 L 100.967,30.2671 L 101.568,30.9001 L 102.157,31.5435
 L 102.735,32.1971 L 103.302,32.8606 L 103.857,33.534 L 104.401,34.2169 L 104.932,34.9093 L 105.451,35.6107
 L 105.958,36.3212 L 106.452,37.0404 L 106.934,37.7681 L 107.402,38.504 L 107.858,39.2481 L 108.301,40
 L 108.731,40.7595 L 109.147,41.5264 L 109.55,42.3005 L 109.94,43.0815 L 110.315,43.8691 L 110.677,44.6632
 L 111.025,45.4635 L 111.359,46.2697 L 111.679,47.0816 L 111.985,47.899 L 112.276,48.7216 L 112.553,49.5492
 L 112.815,50.3814 L 113.063,51.2181 L 113.296,52.0591 L 113.515,52.9039 L 113.718,53.7525 L 113.907,54.6044
 L 114.081,55.4596 L 114.24,56.3176 L 114.384,57.1783 L 114.513,58.0414 L 114.627,58.9065 L 114.726,59.7736
 L 114.81,60.6422 L 114.878,61.5122 L 114.931,62.3832 L 114.97,63.255 L 114.992,64.1274 L 115,65
 L 114.992,65.8726 L 114.97,66.745 L 114.931,67.6168 L 114.878,68.4878 L 114.81,69.3578 L 114.726,70.2264
 L 114.627,71.0935 L 114.513,71.9586 L 114.384,72.8217 L 114.24,73.6824 L 114.081,74.5404 L 113.907,75.3956
 L 113.718,76.2475 L 113.515,77.0961 L 113.296,77.9409 L 113.063,78.7819 L 112.815,79.6186 L 112.553,80.4508
 L 112.276,81.2784 L 111.985,82.101 L 111.679,82.9184 L 111.359,83.7303 L 111.025,84.5365 L 110.677,85.3368
 L 110.315,86.1309 L 109.94,86.9185 L 109.55,87.6995 L 109.147,88.4736 L 108.731,89.2405 L 108.301,90
 L 107.858,90.7519 L 107.402,91.496 L 106.934,92.2319 L 106.452,92.9596 L 105.958,93.6788 L 105.451,94.3893
 L 104.932,95.0907 L 104.401,95.7831 L 103.857,96.466 L 103.302,97.1394 L 102.735,97.8029 L 102.157,98.4565
 L 101.568,99.0999 L 100.967,99.7329 L 100.355,100.355 L 99.7329,100.967 L 99.0999,101.568 L 98.4565,102.157
 L 97.8029,102.735 L 97.1394,103.302 L 96.466,103.857 L 95.7831,104.401 L 95.0907,104.932 L 94.3893,105.451
 L 93.6788,105.958 L 92.9596,106.452 L 92.2319,106.934 L 91.496,107.402 L 90.7519,107.858 L 90,108.301
 L 89.2405,108.731 L 88.4736,109.147 L 87.6995,109.55 L 86.9185,109.94 L 86.1309,110.315 L 85.3368,110.677
 L 84.5365,111.025 L 83.7303,111.359 L 82.9184,111.679 L 82.101,111.985 L 81.2784,112.276 L 80.4508,112.553
 L 79.6186,112.815 L 78.7819,113.063 L 77.9409,113.296 L 77.0961,113.515 L 76.2475,113.718 L 75.3956,113.907
 L 74.5404,114.081 L 73.6824,114.24 L 72.8217,114.384 L 71.9586,114.513 L 71.0935,114.627 L 70.2264,114.726
 L 69.3578,114.81 L 68.4878,114.878 L 67.6168,114.931 L 66.745,114.97 L 65.8726,114.992 L 65,115
 z
M 116.888,36.3981 L 116.767,36.3864 L 116.647,36.3641 L 116.529,36.3315 L 116.414,36.2887 L 116.304,36.2361
 L 116.199,36.1741 L 116.1,36.1032 L 116.007,36.0239 L 115.921,35.9368 L 115.843,35.8425 L 115.774,35.7419
 L 115.714,35.6356 L 115.663,35.5245 L 115.623,35.4093 L 115.592,35.2911 L 115.572,35.1706 L 115.562,35.0489
 L 115.563,34.9267 L 115.575,34.8052 L 115.597,34.6851 L 115.63,34.5674 L 115.673,34.453 L 115.725,34.3427
 L 115.787,34.2375 L 115.858,34.1381 L 115.938,34.0452 L 116.025,33.9596 L 116.119,33.8819 L 116.22,33.8127
 L 116.326,33.7526 L 116.437,33.702 L 116.552,33.6612 L 116.67,33.6306 L 116.791,33.6104 L 116.913,33.6009
 L 117.035,33.6019 L 117.156,33.6136 L 117.276,33.6359 L 117.394,33.6685 L 117.509,33.7113 L 117.619,33.7639
 L 117.724,33.8259 L 117.823,33.8968 L 117.916,33.9761 L 118.002,34.0632 L 118.08,34.1575 L 118.149,34.2581
 L 118.209,34.3644 L 118.26,34.4756 L 118.3,34.5907 L 118.331,34.7089 L 118.351,34.8294 L 118.361,34.9511
 L 118.36,35.0733 L 118.348,35.1949 L 118.326,35.3149 L 118.293,35.4326 L 118.25,35.547 L 118.198,35.6573
 L 118.136,35.7625 L 118.065,35.8619 L 117.985,35.9548 L 117.898,36.0404 L 117.804,36.1181 L 117.703,36.1873
 L 117.597,36.2474 L 117.486,36.2981 L 117.371,36.3388 L 117.253,36.3694 L 117.132,36.3896 L 117.01,36.3992
 z
M 12.9652,36.3981 L 12.8436,36.3864 L 12.7236,36.3641 L 12.6059,36.3315 L 12.4915,36.2887 L 12.3812,36.2361
 L 12.276,36.1741 L 12.1766,36.1032 L 12.0837,36.0239 L 11.9981,35.9368 L 11.9204,35.8425 L 11.8512,35.7419
 L 11.7911,35.6356 L 11.7404,35.5245 L 11.6997,35.4093 L 11.6691,35.2911 L 11.6489,35.1706 L 11.6393,35.0489
 L 11.6404,34.9267 L 11.6521,34.8052 L 11.6744,34.6851 L 11.707,34.5674 L 11.7498,34.453 L 11.8024,34.3427
 L 11.8643,34.2375 L 11.9353,34.1381 L 12.0146,34.0452 L 12.1017,33.9596 L 12.1959,33.8819 L 12.2966,33.8127
 L 12.4029,33.7526 L 12.514,33.702 L 12.6292,33.6612 L 12.7474,33.6306 L 12.8679,33.6104 L 12.9896,33.6009
 L 13.1118,33.6019 L 13.2333,33.6136 L 13.3534,33.6359 L 13.4711,33.6685 L 13.5855,33.7113 L 13.6957,33.7639
 L 13.801,33.8259 L 13.9004,33.8968 L 13.9933,33.9761 L 14.0789,34.0632 L 14.1566,34.1575 L 14.2258,34.2581
 L 14.2859,34.3644 L 14.3365,34.4756 L 14.3773,34.5907 L 14.4079,34.7089 L 14.4281,34.8294 L 14.4376,34.9511
 L 14.4366,35.0733 L 14.4249,35.1949 L 14.4026,35.3149 L 14.37,35.4326 L 14.3272,35.547 L 14.2746,35.6573
 L 14.2126,35.7625 L 14.1417,35.8619 L 14.0624,35.9548 L 13.9753,36.0404 L 13.881,36.1181 L 13.7804,36.1873
 L 13.6741,36.2474 L 13.5629,36.2981 L 13.4478,36.3388 L 13.3296,36.3694 L 13.2091,36.3896 L 13.0873,36.3992
 z
M 124.927,66.3981 L 124.805,66.3864 L 124.685,66.3641 L 124.567,66.3315 L 124.453,66.2887 L 124.343,66.2361
 L 124.238,66.1741 L 124.138,66.1032 L 124.045,66.0239 L 123.96,65.9368 L 123.882,65.8425 L 123.813,65.7419
 L 123.753,65.6356 L 123.702,65.5244 L 123.661,65.4093 L 123.631,65.2911 L 123.61,65.1706 L 123.601,65.0489
 L 123.602,64.9267 L 123.614,64.8052 L 123.636,64.6851 L 123.669,64.5674 L 123.711,64.453 L 123.764,64.3427
 L 123.826,64.2375 L 123.897,64.1381 L 123.976,64.0452 L 124.063,63.9596 L 124.157,63.8819 L 124.258,63.8127
 L 124.364,63.7526 L 124.476,63.702 L 124.591,63.6612 L 124.709,63.6306 L 124.829,63.6104 L 124.951,63.6009
 L 125.073,63.6019 L 125.195,63.6136 L 125.315,63.6359 L 125.433,63.6685 L 125.547,63.7113 L 125.657,63.7639
 L 125.762,63.8259 L 125.862,63.8968 L 125.955,63.9761 L 126.04,64.0632 L 126.118,64.1575 L 126.187,64.2581
 L 126.247,64.3644 L 126.298,64.4756 L 126.339,64.5907 L 126.369,64.7089 L 126.39,64.8294 L 126.399,64.9511
 L 126.398,65.0733 L 126.386,65.1948 L 126.364,65.3149 L 126.331,65.4326 L 126.289,65.547 L 126.236,65.6573
 L 126.174,65.7625 L 126.103,65.8619 L 126.024,65.9548 L 125.937,66.0404 L 125.843,66.1181 L 125.742,66.1873
 L 125.636,66.2474 L 125.524,66.298 L 125.409,66.3388 L 125.291,66.3694 L 125.171,66.3896 L 125.049,66.3991
 z
M 4.92674,66.3981 L 4.80516,66.3864 L 4.68507,66.3641 L 4.56738,66.3315 L 4.45299,66.2887 L 4.34274,66.2361
 L 4.23752,66.1741 L 4.13808,66.1032 L 4.04521,66.0239 L 3.95961,65.9368 L 3.88191,65.8425 L 3.81274,65.7419
 L 3.75259,65.6356 L 3.70195,65.5244 L 3.66118,65.4093 L 3.6306,65.2911 L 3.61044,65.1706 L 3.60086,65.0489
 L 3.60193,64.9267 L 3.61363,64.8052 L 3.63589,64.6851 L 3.66853,64.5674 L 3.7113,64.453 L 3.76389,64.3427
 L 3.82587,64.2375 L 3.89679,64.1381 L 3.97612,64.0452 L 4.06322,63.9596 L 4.15747,63.8819 L 4.25812,63.8127
 L 4.36443,63.7526 L 4.47556,63.702 L 4.59068,63.6612 L 4.70894,63.6306 L 4.82939,63.6104 L 4.95114,63.6009
 L 5.07327,63.6019 L 5.19485,63.6136 L 5.31494,63.6359 L 5.43263,63.6685 L 5.54703,63.7113 L 5.65727,63.7639
 L 5.7625,63.8259 L 5.86194,63.8968 L 5.9548,63.9761 L 6.04041,64.0632 L 6.1181,64.1575 L 6.18727,64.2581
 L 6.24742,64.3644 L 6.29807,64.4756 L 6.33884,64.5907 L 6.36942,64.7089 L 6.38957,64.8294 L 6.39915,64.9511
 L 6.39809,65.0733 L 6.38638,65.1948 L 6.36412,65.3149 L 6.33148,65.4326 L 6.28871,65.547 L 6.23613,65.6573
 L 6.17415,65.7625 L 6.10323,65.8619 L 6.0239,65.9548 L 5.9368,66.0404 L 5.84254,66.1181 L 5.7419,66.1873
 L 5.63559,66.2474 L 5.52446,66.298 L 5.40933,66.3388 L 5.29108,66.3694 L 5.17062,66.3896 L 5.04887,66.3991
 z
M 116.888,96.3981 L 116.767,96.3864 L 116.647,96.3641 L 116.529,96.3315 L 116.414,96.2887 L 116.304,96.2361
 L 116.199,96.1741 L 116.1,96.1032 L 116.007,96.0239 L 115.921,95.9368 L 115.843,95.8425 L 115.774,95.7419
 L 115.714,95.6356 L 115.663,95.5244 L 115.623,95.4093 L 115.592,95.2911 L 115.572,95.1706 L 115.562,95.0489
 L 115.563,94.9267 L 115.575,94.8051 L 115.597,94.6851 L 115.63,94.5674 L 115.673,94.453 L 115.725,94.3427
 L 115.787,94.2375 L 115.858,94.1381 L 115.938,94.0452 L 116.025,93.9596 L 116.119,93.8819 L 116.22,93.8127
 L 116.326,93.7526 L 116.437,93.7019 L 116.552,93.6612 L 116.67,93.6306 L 116.791,93.6104 L 116.913,93.6008
 L 117.035,93.6019 L 117.156,93.6136 L 117.276,93.6359 L 117.394,93.6685 L 117.509,93.7113 L 117.619,93.7639
 L 117.724,93.8259 L 117.823,93.8968 L 117.916,93.9761 L 118.002,94.0632 L 118.08,94.1575 L 118.149,94.2581
 L 118.209,94.3644 L 118.26,94.4755 L 118.3,94.5907 L 118.331,94.7089 L 118.351,94.8294 L 118.361,94.9511
 L 118.36,95.0733 L 118.348,95.1948 L 118.326,95.3149 L 118.293,95.4326 L 118.25,95.547 L 118.198,95.6573
 L 118.136,95.7625 L 118.065,95.8619 L 117.985,95.9548 L 117.898,96.0404 L 117.804,96.1181 L 117.703,96.1873
 L 117.597,96.2474 L 117.486,96.298 L 117.371,96.3388 L 117.253,96.3694 L 117.132,96.3896 L 117.01,96.3991
 z
M 12.9652,96.3981 L 12.8436,96.3864 L 12.7236,96.3641 L 12.6059,96.3315 L 12.4915,96.2887 L 12.3812,96.2361
 L 12.276,96.1741 L 12.1766,96.1032 L 12.0837,96.0239 L 11.9981,95.9368 L 11.9204,95.8425 L 11.8512,95.7419
 L 11.7911,95.6356 L 11.7404,95.5244 L 11.6997,95.4093 L 11.6691,95.2911 L 11.6489,95.1706 L 11.6393,95.0489
 L 11.6404,94.9267 L 11.6521,94.8051 L 11.6744,94.6851 L 11.707,94.5674 L 11.7498,94.453 L 11.8024,94.3427
 L 11.8643,94.2375 L 11.9353,94.1381 L 12.0146,94.0452 L 12.1017,93.9596 L 12.1959,93.8819 L 12.2966,93.8127
 L 12.4029,93.7526 L 12.514,93.7019 L 12.6292,93.6612 L 12.7474,93.6306 L 12.8679,93.6104 L 12.9896,93.6008
 L 13.1118,93.6019 L 13.2333,93.6136 L 13.3534,93.6359 L 13.4711,93.6685 L 13.5855,93.7113 L 13.6957,93.7639
 L 13.801,93.8259 L 13.9004,93.8968 L 13.9933,93.9761 L 14.0789,94.0632 L 14.1566,94.1575 L 14.2258,94.2581
 L 14.2859,94.3644 L 14.3365,94.4755 L 14.3773,94.5907 L 14.4079,94.7089 L 14.4281,94.8294 L 14.4376,94.9511
 L 14.4366,95.0733 L 14.4249,95.1948 L 14.4026,95.3149 L 14.37,95.4326 L 14.3272,95.547 L 14.2746,95.6573
 L 14.2126,95.7625 L 14.1417,95.8619 L 14.0624,95.9548 L 13.9753,96.0404 L 13.881,96.1181 L 13.7804,96.1873
 L 13.6741,96.2474 L 13.5629,96.298 L 13.4478,96.3388 L 13.3296,96.3694 L 13.2091,96.3896 L 13.0873,96.3991
 z
M 94.9267,118.36 L 94.8051,118.348 L 94.6851,118.326 L 94.5674,118.293 L 94.453,118.25 L 94.3427,118.198
 L 94.2375,118.136 L 94.1381,118.065 L 94.0452,117.985 L 93.9596,117.898 L 93.8819,117.804 L 93.8127,117.703
 L 93.7526,117.597 L 93.7019,117.486 L 93.6612,117.371 L 93.6306,117.253 L 93.6104,117.132 L 93.6008,117.01
 L 93.6019,116.888 L 93.6136,116.767 L 93.6359,116.647 L 93.6685,116.529 L 93.7113,116.414 L 93.7639,116.304
 L 93.8259,116.199 L 93.8968,116.1 L 93.9761,116.007 L 94.0632,115.921 L 94.1575,115.843 L 94.2581,115.774
 L 94.3644,115.714 L 94.4755,115.663 L 94.5907,115.623 L 94.7089,115.592 L 94.8294,115.572 L 94.9511,115.562
 L 95.0733,115.563 L 95.1948,115.575 L 95.3149,115.597 L 95.4326,115.63 L 95.547,115.673 L 95.6573,115.725
 L 95.7625,115.787 L 95.8619,115.858 L 95.9548,115.938 L 96.0404,116.025 L 96.1181,116.119 L 96.1873,116.22
 L 96.2474,116.326 L 96.298,116.437 L 96.3388,116.552 L 96.3694,116.67 L 96.3896,116.791 L 96.3991,116.913
 L 96.3981,117.035 L 96.3864,117.156 L 96.3641,117.276 L 96.3315,117.394 L 96.2887,117.509 L 96.2361,117.619
 L 96.1741,117.724 L 96.1032,117.823 L 96.0239,117.916 L 95.9368,118.002 L 95.8425,118.08 L 95.7419,118.149
 L 95.6356,118.209 L 95.5244,118.26 L 95.4093,118.3 L 95.2911,118.331 L 95.1706,118.351 L 95.0489,118.361
 z
M 34.9267,118.36 L 34.8052,118.348 L 34.6851,118.326 L 34.5674,118.293 L 34.453,118.25 L 34.3427,118.198
 L 34.2375,118.136 L 34.1381,118.065 L 34.0452,117.985 L 33.9596,117.898 L 33.8819,117.804 L 33.8127,117.703
 L 33.7526,117.597 L 33.702,117.486 L 33.6612,117.371 L 33.6306,117.253 L 33.6104,117.132 L 33.6009,117.01
 L 33.6019,116.888 L 33.6136,116.767 L 33.6359,116.647 L 33.6685,116.529 L 33.7113,116.414 L 33.7639,116.304
 L 33.8259,116.199 L 33.8968,116.1 L 33.9761,116.007 L 34.0632,115.921 L 34.1575,115.843 L 34.2581,115.774
 L 34.3644,115.714 L 34.4756,115.663 L 34.5907,115.623 L 34.7089,115.592 L 34.8294,115.572 L 34.9511,115.562
 L 35.0733,115.563 L 35.1949,115.575 L 35.3149,115.597 L 35.4326,115.63 L 35.547,115.673 L 35.6573,115.725
 L 35.7625,115.787 L 35.8619,115.858 L 35.9548,115.938 L 36.0404,116.025 L 36.1181,116.119 L 36.1873,116.22
 L 36.2474,116.326 L 36.2981,116.437 L 36.3388,116.552 L 36.3694,116.67 L 36.3896,116.791 L 36.3992,116.913
 L 36.3981,117.035 L 36.3864,117.156 L 36.3641,117.276 L 36.3315,117.394 L 36.2887,117.509 L 36.2361,117.619
 L 36.1741,117.724 L 36.1032,117.823 L 36.0239,117.916 L 35.9368,118.002 L 35.8425,118.08 L 35.7419,118.149
 L 35.6356,118.209 L 35.5245,118.26 L 35.4093,118.3 L 35.2911,118.331 L 35.1706,118.351 L 35.0489,118.361
 z
M 64.9267,126.398 L 64.8052,126.386 L 64.6851,126.364 L 64.5674,126.331 L 64.453,126.289 L 64.3427,126.236
 L 64.2375,126.174 L 64.1381,126.103 L 64.0452,126.024 L 63.9596,125.937 L 63.8819,125.843 L 63.8127,125.742
 L 63.7526,125.636 L 63.702,125.524 L 63.6612,125.409 L 63.6306,125.291 L 63.6104,125.171 L 63.6009,125.049
 L 63.6019,124.927 L 63.6136,124.805 L 63.6359,124.685 L 63.6685,124.567 L 63.7113,124.453 L 63.7639,124.343
 L 63.8259,124.238 L 63.8968,124.138 L 63.9761,124.045 L 64.0632,123.96 L 64.1575,123.882 L 64.2581,123.813
 L 64.3644,123.753 L 64.4756,123.702 L 64.5907,123.661 L 64.7089,123.631 L 64.8294,123.61 L 64.9511,123.601
 L 65.0733,123.602 L 65.1948,123.614 L 65.3149,123.636 L 65.4326,123.669 L 65.547,123.711 L 65.6573,123.764
 L 65.7625,123.826 L 65.8619,123.897 L 65.9548,123.976 L 66.0404,124.063 L 66.1181,124.157 L 66.1873,124.258
 L 66.2474,124.364 L 66.298,124.476 L 66.3388,124.591 L 66.3694,124.709 L 66.3896,124.829 L 66.3991,124.951
 L 66.3981,125.073 L 66.3864,125.195 L 66.3641,125.315 L 66.3315,125.433 L 66.2887,125.547 L 66.2361,125.657
 L 66.1741,125.762 L 66.1032,125.862 L 66.0239,125.955 L 65.9368,126.04 L 65.8425,126.118 L 65.7419,126.187
 L 65.6356,126.247 L 65.5244,126.298 L 65.4093,126.339 L 65.2911,126.369 L 65.1706,126.39 L 65.0489,126.399
 z
" stroke="black" fill="lightgray" stroke-width="0.5"/></svg>
