<?xml version="1.0" standalone="no"?>
<!DOCTYPE svg PUBLIC "-//W3C//DTD SVG 1.1//EN" "http://www.w3.org/Graphics/SVG/1.1/DTD/svg11.dtd">
<svg width="130mm" height="130mm" viewBox="-65 -65 130 130" xmlns="http://www.w3.org/2000/svg" version="1.1">
<title>OpenSCAD Model</title>
<path d="
M 1.1344,64.9901 L 2.26846,64.9604 L 3.40182,64.9109 L 4.53416,64.8417 L 5.66512,64.7527 L 6.79434,64.6439
 L 7.92149,64.5155 L 9.04625,64.3674 L 10.1682,64.1997 L 11.2871,64.0125 L 12.4026,63.8058 L 13.5143,63.5796
 L 14.6218,63.334 L 15.7249,63.0692 L 16.8232,62.7852 L 17.9164,62.482 L 19.0042,62.1598 L 20.0861,61.8187
 L 21.1619,61.4587 L 22.2313,61.08 L 23.2939,60.6827 L 24.3494,60.2669 L 25.3975,59.8328 L 26.4379,59.3804
 L 27.4702,58.91 L 28.4941,58.4216 L 29.5094,57.9154 L 30.5156,57.3916 L 31.5126,56.8503 L 32.277,56.4178
 L 32.3119,56.3478 L 32.7552,55.4963 L 33.2132,54.6527 L 33.6859,53.8173 L 34.1731,52.9902 L 34.6746,52.1717
 L 35.1904,51.3621 L 35.7202,50.5617 L 36.2639,49.7706 L 36.8213,48.9891 L 37.3923,48.2175 L 37.9767,47.4559
 L 38.5742,46.7047 L 39.1848,45.964 L 39.8082,45.234 L 40.4443,44.5151 L 41.0928,43.8074 L 41.7536,43.1111
 L 42.4264,42.4264 L 43.1111,41.7536 L 43.8074,41.0928 L 44.5151,40.4443 L 45.234,39.8082 L 45.964,39.1848
 L 46.7047,38.5742 L 47.4559,37.9767 L 48.2175,37.3923 L 48.9891,36.8213 L 49.7706,36.2639 L 50.5617,35.7202
 L 51.3621,35.1904 L 52.1717,34.6746 L 52.9902,34.1731 L 53.8173,33.6859 L 54.6527,33.2132 L 55.4963,32.7552
 L 56.3478,32.3119 L 56.4178,32.277 L 56.8503,31.5126 L 57.3916,30.5156 L 57.9154,29.5094 L 58.4216,28.4941
 L 58.91,27.4702 L 59.3804,26.4379 L 59.8328,25.3975 L 60.2669,24.3494 L 60.6827,23.2939 L 61.08,22.2313
 L 61.4587,21.1619 L 61.8187,20.0861 L 62.1598,19.0042 L 62.482,17.9164 L 62.7852,16.8232 L 63.0692,15.7249
 L 63.334,14.6218 L 63.5796,13.5143 L 63.8058,12.4026 L 64.0125,11.2871 L 64.1997,10.1682 L 64.3674,9.04625
 L 64.5155,7.92149 L 64.6439,6.79434 L 64.7527,5.66512 L 64.8417,4.53416 L 64.9109,3.40182 L 64.9604,2.26846
 L 64.9901,1.1344 L 65,-0 L 64.9901,-1.1344 L 64.9604,-2.26846 L 64.9109,-3.40182 L 64.8417,-4.53416
 L 64.7527,-5.66512 L 64.6439,-6.79434 L 64.5155,-7.92149 L 64.3674,-9.04625 L 64.1997,-10.1682 L 64.0125,-11.2871
 L 63.8058,-12.4026 L 63.5796,-13.5143 L 63.334,-14.6218 L 63.0692,-15.7249 L 62.7852,-16.8232 L 62.482,-17.9164
 L 62.1598,-19.0042 L 61.8187,-20.0861 L 61.4587,-21.1619 L 61.08,-22.2313 L 60.6827,-23.2939 L 60.2669,-24.3494
 L 59.8328,-25.3975 L 59.3804,-26.4379 L 58.91,-27.4702 L 58.4216,-28.4941 L 57.9154,-29.5094 L 57.3916,-30.5156
 L 56.8503,-31.5126 L 56.4178,-32.277 L 56.3478,-32.3119 L 55.4963,-32.7552 L 54.6527,-33.2132 L 53.8173,-33.6859
 L 52.9902,-34.1731 L 52.1717,-34.6746 L 51.3621,-35.1904 L 50.5617,-35.7202 L 49.7706,-36.2639 L 48.9891,-36.8213
 L 48.2175,-37.3923 L 47.4559,-37.9767 L 46.7047,-38.5742 L 45.964,-39.1848 L 45.234,-39.8082 L 44.5151,-40.4443
 L 43.8074,-41.0928 L 43.1111,-41.7536 L 42.4264,-42.4264 L 41.7536,-43.1111 L 41.0928,-43.8074 L 40.4443,-44.5151
 L 39.8082,-45.234 L 39.1848,-45.964 L 38.5742,-46.7047 L 37.9767,-47.4559 L 37.3923,-48.2175 L 36.8213,-48.9891
 L 36.2639,-49.7706 L 35.7202,-50.5617 L 35.1904,-51.3621 L 34.6746,-52.1717 L 34.1731,-52.9902 L 33.6859,-53.8173
 L 33.2132,-54.6527 L 32.7552,-55.4963 L 32.3119,-56.3478 L 32.277,-56.4178 L 31.5126,-56.8503 L 30.5156,-57.3916
 L 29.5094,-57.9154 L 28.4941,-58.4216 L 27.4702,-58.91 L 26.4379,-59.3804 L 25.3975,-59.8328 L 24.3494,-60.2669
 L 23.2939,-60.6827 L 22.2313,-61.08 L 21.1619,-61.4587 L 20.0861,-61.8187 L 19.0042,-62.1598 L 17.9164,-62.482
 L 16.8232,-62.7852 L 15.7249,-63.0692 L 14.6218,-63.334 L 13.5143,-63.5796 L 12.4026,-63.8058 L 11.2871,-64.0125
 L 10.1682,-64.1997 L 9.04625,-64.3674 L 7.92149,-64.5155 L 6.79434,-64.6439 L 5.66512,-64.7527 L 4.53416,-64.8417
 L 3.40182,-64.9109 L 2.26846,-64.9604 L 1.1344,-64.9901 L 0,-65 L -1.1344,-64.9901 L -2.26846,-64.9604
 L -3.40182,-64.9109 L -4.53416,-64.8417 L -5.66512,-64.7527 L -6.79434,-64.6439 L -7.92149,-64.5155 L -9.04625,-64.3674
 L -10.1682,-64.1997 L -11.2871,-64.0125 L -12.4026,-63.8058 L -13.5143,-63.5796 L -14.6218,-63.334 L -15.7249,-63.0692
 L -16.8232,-62.7852 L -17.9164,-62.482 L -19.0042,-62.1598 L -20.0861,-61.8187 L -21.1619,-61.4587 L -22.2313,-61.08
 L -23.2939,-60.6827 L -24.3494,-60.2669 L -25.3975,-59.8328 L -26.4379,-59.3804 L -27.4702,-58.91 L -28.4941,-58.4216
 L -29.5094,-57.9154 L -30.5156,-57.3916 L -31.5126,-56.8503 L -32.277,-56.4178 L -32.3119,-56.3478 L -32.7552,-55.4963
 L -33.2132,-54.6527 L -33.6859,-53.8173 L -34.1731,-52.9902 L -34.6746,-52.1717 L -35.1904,-51.3621 L -35.7202,-50.5617
 L -36.2639,-49.7706 L -36.8213,-48.9891 L -37.3923,-48.2175 L -37.9767,-47.4559 L -38.5742,-46.7047 L -39.1848,-45.964
 L -39.8082,-45.234 L -40.4443,-44.5151 L -41.0928,-43.8074 L -41.7536,-43.1111 L -42.4264,-42.4264 L -43.1111,-41.7536
 L -43.8074,-41.0928 L -44.5151,-40.4443 L -45.234,-39.8082 L -45.964,-39.1848 L -46.7047,-38.5742 L -47.4559,-37.9767
 L -48.2175,-37.3923 L -48.9891,-36.8213 L -49.7706,-36.2639 L -50.5617,-35.7202 L -51.3621,-35.1904 L -52.1717,-34.6746
 L -52.9902,-34.1731 L -53.8173,-33.6859 L -54.6527,-33.2132 L -55.4963,-32.7552 L -56.3478,-32.3119 L -56.4178,-32.277
 L -56.8503,-31.5126 L -57.3916,-30.5156 L -57.9154,-29.5094 L -58.4216,-28.4941 L -58.91,-27.4702 L -59.3804,-26.4379
 L -59.8328,-25.3975 L -60.2669,-24.3494 L -60.6827,-23.2939 L -61.08,-22.2313 L -61.4587,-21.1619 L -61.8187,-20.0861
 L -62.1598,-19.0042 L -62.482,-17.9164 L -62.7852,-16.8232 L -63.0692,-15.7249 L -63.334,-14.6218 L -63.5796,-13.5143
 L -63.8058,-12.4026 L -64.0125,-11.2871 L -64.1997,-10.1682 L -64.3674,-9.04625 L -64.5155,-7.92149 L -64.6439,-6.79434
 L -64.7527,-5.66512 L -64.8417,-4.53416 L -64.9109,-3.40182 L -64.9604,-2.26846 L -64.9901,-1.1344 L -65,-0
 L -64.9901,1.1344 L -64.9604,2.26846 L -64.9109,3.40182 L -64.8417,4.53416 L -64.7527,5.66512 L -64.6439,6.79434
 L -64.5155,7.92149 L -64.3674,9.04625 L -64.1997,10.1682 L -64.0125,11.2871 L -63.8058,12.4026 L -63.5796,13.5143
 L -63.334,14.6218 L -63.0692,15.7249 L -62.7852,16.8232 L -62.482,17.9164 L -62.1598,19.0042 L -61.8187,20.0861
 L -61.4587,21.1619 L -61.08,22.2313 L -60.6827,23.2939 L -60.2669,24.3494 L -59.8328,25.3975 L -59.3804,26.4379
 L -58.91,27.4702 L -58.4216,28.4941 L -57.9154,29.5094 L -57.3916,30.5156 L -56.8503,31.5126 L -56.4178,32.277
 L -56.3478,32.3119 L -55.4963,32.7552 L -54.6527,33.2132 L -53.8173,33.6859 L -52.9902,34.1731 L -52.1717,34.6746
 L -51.3621,35.1904 L -50.5617,35.7202 L -49.7706,36.2639 L -48.9891,36.8213 L -48.2175,37.3923 L -47.4559,37.9767
 L -46.7047,38.5742 L -45.964,39.1848 L -45.234,39.8082 L -44.5151,40.4443 L -43.8074,41.0928 L -43.1111,41.7536
 L -42.4264,42.4264 L -41.7536,43.1111 L -41.0928,43.8074 L -40.4443,44.5151 L -39.8082,45.234 L -39.1848,45.964
 L -38.5742,46.7047 L -37.9767,47.4559 L -37.3923,48.2175 L -36.8213,48.9891 L -36.2639,49.7706 L -35.7202,50.5617
 L -35.1904,51.3621 L -34.6746,52.1717 L -34.1731,52.9902 L -33.6859,53.8173 L -33.2132,54.6527 L -32.7552,55.4963
 L -32.3119,56.3478 L -32.277,56.4178 L -31.5126,56.8503 L -30.5156,57.3916 L -29.5094,57.9154 L -28.4941,58.4216
 L -27.4702,58.91 L -26.4379,59.3804 L -25.3975,59.8328 L -24.3494,60.2669 L -23.2939,60.6827 L -22.2313,61.08
 L -21.1619,61.4587 L -20.0861,61.8187 L -19.0042,62.1598 L -17.9164,62.482 L -16.8232,62.7852 L -15.7249,63.0692
 L -14.6218,63.334 L -13.5143,63.5796 L -12.4026,63.8058 L -11.2871,64.0125 L -10.1682,64.1997 L -9.04625,64.3674
 L -7.92149,64.5155 L -6.79434,64.6439 L -5.66512,64.7527 L -4.53416,64.8417 L -3.40182,64.9109 L -2.26846,64.9604
 L -1.1344,64.9901 L 0,65 z
M -0.0610657,-58.2511 L -0.182922,-58.2596 L -0.303879,-58.2766 L -0.423355,-58.302 L -0.540771,-58.3356 L -0.655548,-58.3774
 L -0.767136,-58.4271 L -0.875,-58.4845 L -0.978577,-58.5492 L -1.07739,-58.621 L -1.17097,-58.6995 L -1.25883,-58.7843
 L -1.34058,-58.8751 L -1.41577,-58.9714 L -1.48407,-59.0726 L -1.54515,-59.1784 L -1.59869,-59.2882 L -1.64445,-59.4015
 L -1.68221,-59.5176 L -1.71175,-59.6362 L -1.73296,-59.7564 L -1.74573,-59.8779 L -1.75,-60 L -1.74573,-60.1221
 L -1.73296,-60.2435 L -1.71175,-60.3638 L -1.68221,-60.4824 L -1.64445,-60.5985 L -1.59869,-60.7118 L -1.54515,-60.8216
 L -1.48407,-60.9274 L -1.41577,-61.0286 L -1.34058,-61.1249 L -1.25883,-61.2156 L -1.17097,-61.3005 L -1.07739,-61.379
 L -0.978577,-61.4508 L -0.874985,-61.5155 L -0.767136,-61.5729 L -0.655548,-61.6226 L -0.540771,-61.6643 L -0.423355,-61.698
 L -0.303879,-61.7234 L -0.182922,-61.7404 L -0.0610657,-61.7489 L 0.0610657,-61.7489 L 0.182922,-61.7404 L 0.303879,-61.7234
 L 0.423355,-61.698 L 0.540771,-61.6643 L 0.655548,-61.6226 L 0.767136,-61.5729 L 0.875,-61.5155 L 0.978577,-61.4508
 L 1.07739,-61.379 L 1.17097,-61.3005 L 1.25883,-61.2156 L 1.34058,-61.1249 L 1.41577,-61.0286 L 1.48407,-60.9274
 L 1.54515,-60.8216 L 1.59869,-60.7118 L 1.64445,-60.5985 L 1.68221,-60.4824 L 1.71175,-60.3638 L 1.73296,-60.2435
 L 1.74573,-60.1221 L 1.75,-60 L 1.74573,-59.8779 L 1.73296,-59.7564 L 1.71175,-59.6362 L 1.68221,-59.5176
 L 1.64445,-59.4015 L 1.59869,-59.2882 L 1.54515,-59.1784 L 1.48407,-59.0726 L 1.41577,-58.9714 L 1.34058,-58.8751
 L 1.25883,-58.7843 L 1.17097,-58.6995 L 1.07739,-58.621 L 0.978577,-58.5492 L 0.875,-58.4845 L 0.767136,-58.4271
 L 0.655548,-58.3774 L 0.540771,-58.3356 L 0.423355,-58.302 L 0.303879,-58.2766 L 0.182922,-58.2596 L 0.0610657,-58.2511
 z
M -0.959869,54.9916 L -1.91946,54.9665 L -2.87846,54.9246 L -3.83659,54.866 L -4.79356,54.7907 L -5.74905,54.6987
 L -6.7028,54.59 L -7.65451,54.4647 L -8.60388,54.3228 L -9.55064,54.1644 L -10.4945,53.9895 L -11.4351,53.7981
 L -12.3723,53.5903 L -13.3057,53.3663 L -14.235,53.1259 L -15.16,52.8694 L -16.0804,52.5968 L -16.9959,52.3081
 L -17.9062,52.0035 L -18.8111,51.6831 L -19.7102,51.3469 L -20.6033,50.9951 L -21.4902,50.6278 L -22.3705,50.245
 L -23.244,49.8469 L -24.1104,49.4337 L -24.9695,49.0054 L -25.8209,48.5621 L -26.6645,48.1041 L -27.5,47.6314
 L -28.3271,47.1442 L -29.1456,46.6426 L -29.9551,46.1269 L -30.7556,45.5971 L -31.5467,45.0534 L -32.3282,44.4959
 L -33.0998,43.9249 L -33.8614,43.3406 L -34.6126,42.743 L -35.3533,42.1324 L -36.0832,41.509 L -36.8022,40.873
 L -37.5099,40.2244 L -38.2062,39.5637 L -38.8909,38.8909 L -39.5637,38.2062 L -40.2244,37.5099 L -40.873,36.8022
 L -41.509,36.0832 L -42.1324,35.3533 L -42.743,34.6126 L -43.3406,33.8614 L -43.9249,33.0998 L -44.4959,32.3282
 L -45.0534,31.5467 L -45.5971,30.7556 L -46.1269,29.9551 L -46.6426,29.1456 L -47.1442,28.3271 L -47.6314,27.5
 L -48.1041,26.6645 L -48.5621,25.8209 L -49.0054,24.9695 L -49.4337,24.1104 L -49.8469,23.244 L -50.245,22.3705
 L -50.6278,21.4902 L -50.9951,20.6033 L -51.3469,19.7102 L -51.6831,18.8111 L -52.0035,17.9062 L -52.3081,16.9959
 L -52.5968,16.0804 L -52.8694,15.16 L -53.1259,14.235 L -53.3663,13.3057 L -53.5903,12.3723 L -53.7981,11.4351
 L -53.9895,10.4945 L -54.1644,9.55064 L -54.3228,8.60388 L -54.4647,7.65451 L -54.59,6.7028 L -54.6987,5.74905
 L -54.7907,4.79356 L -54.866,3.83659 L -54.9246,2.87846 L -54.9665,1.91946 L -54.9916,0.959869 L -55,-0
 L -54.9916,-0.959869 L -54.9665,-1.91946 L -54.9246,-2.87846 L -54.866,-3.83659 L -54.7907,-4.79356 L -54.6987,-5.74905
 L -54.59,-6.7028 L -54.4647,-7.65451 L -54.3228,-8.60388 L -54.1644,-9.55064 L -53.9895,-10.4945 L -53.7981,-11.4351
 L -53.5903,-12.3723 L -53.3663,-13.3057 L -53.1259,-14.235 L -52.8694,-15.16 L -52.5968,-16.0804 L -52.3081,-16.9959
 L -52.0035,-17.9062 L -51.6831,-18.8111 L -51.3469,-19.7102 L -50.9951,-20.6033 L -50.6278,-21.4902 L -50.245,-22.3705
 L -49.8469,-23.244 L -49.4337,-24.1104 L -49.0054,-24.9695 L -48.5621,-25.8209 L -48.1041,-26.6645 L -47.6314,-27.5
 L -47.1442,-28.3271 L -46.6426,-29.1456 L -46.1269,-29.9551 L -45.5971,-30.7556 L -45.0534,-31.5467 L -44.4959,-32.3282
 L -43.9249,-33.0998 L -43.3406,-33.8614 L -42.743,-34.6126 L -42.1324,-35.3533 L -41.509,-36.0832 L -40.873,-36.8022
 L -40.2244,-37.5099 L -39.5637,-38.2062 L -38.8909,-38.8909 L -38.2062,-39.5637 L -37.5099,-40.2244 L -36.8022,-40.873
 L -36.0832,-41.509 L -35.3533,-42.1324 L -34.6126,-42.743 L -33.8614,-43.3406 L -33.0998,-43.9249 L -32.3282,-44.4959
 L -31.5467,-45.0534 L -30.7556,-45.5971 L -29.9551,-46.1269 L -29.1456,-46.6426 L -28.3271,-47.1442 L -27.5,-47.6314
 L -26.6645,-48.1041 L -25.8209,-48.5621 L -24.9695,-49.0054 L -24.1104,-49.4337 L -23.244,-49.8469 L -22.3705,-50.245
 L -21.4902,-50.6278 L -20.6033,-50.9951 L -19.7102,-51.3469 L -18.8111,-51.6831 L -17.9062,-52.0035 L -16.9959,-52.3081
 L -16.0804,-52.5968 L -15.16,-52.8694 L -14.235,-53.1259 L -13.3057,-53.3663 L -12.3723,-53.5903 L -11.4351,-53.7981
 L -10.4945,-53.9895 L -9.55064,-54.1644 L -8.60388,-54.3228 L -7.65451,-54.4647 L -6.7028,-54.59 L -5.74905,-54.6987
 L -4.79356,-54.7907 L -3.83659,-54.866 L -2.87846,-54.9246 L -1.91946,-54.9665 L -0.959869,-54.9916 L 0,-55
 L 0.959869,-54.9916 L 1.91946,-54.9665 L 2.87846,-54.9246 L 3.83659,-54.866 L 4.79356,-54.7907 L 5.74905,-54.6987
 L 6.7028,-54.59 L 7.65451,-54.4647 L 8.60388,-54.3228 L 9.55064,-54.1644 L 10.4945,-53.9895 L 11.4351,-53.7981
 L 12.3723,-53.5903 L 13.3057,-53.3663 L 14.235,-53.1259 L 15.16,-52.8694 L 16.0804,-52.5968 L 16.9959,-52.3081
 L 17.9062,-52.0035 L 18.8111,-51.6831 L 19.7102,-51.3469 L 20.6033,-50.9951 L 21.4902,-50.6278 L 22.3705,-50.245
 L 23.244,-49.8469 L 24.1104,-49.4337 L 24.9695,-49.0054 L 25.8209,-48.5621 L 26.6645,-48.1041 L 27.5,-47.6314
 L 28.3271,-47.1442 L 29.1456,-46.6426 L 29.9551,-46.1269 L 30.7556,-45.5971 L 31.5467,-45.0534 L 32.3282,-44.4959
 L 33.0998,-43.9249 L 33.8614,-43.3406 L 34.6126,-42.743 L 35.3533,-42.1324 L 36.0832,-41.509 L 36.8022,-40.873
 L 37.5099,-40.2244 L 38.2062,-39.5637 L 38.8909,-38.8909 L 39.5637,-38.2062 L 40.2244,-37.5099 L 40.873,-36.8022
 L 41.509,-36.0832 L 42.1324,-35.3533 L 42.743,-34.6126 L 43.3406,-33.8614 L 43.9249,-33.0998 L 44.4959,-32.3282
 L 45.0534,-31.5467 L 45.5971,-30.7556 L 46.1269,-29.9551 L 46.6426,-29.1456 L 47.1442,-28.3271 L 47.6314,-27.5
 L 48.1041,-26.6645 L 48.5621,-25.8209 L 49.0054,-24.9695 L 49.4337,-24.1104 L 49.8469,-23.244 L 50.245,-22.3705
 L 50.6278,-21.4902 L 50.9951,-20.6033 L 51.3469,-19.7102 L 51.6831,-18.8111 L 52.0035,-17.9062 L 52.3081,-16.9959
 L 52.5968,-16.0804 L 52.8694,-15.16 L 53.1259,-14.235 L 53.3663,-13.3057 L 53.5903,-12.3723 L 53.7981,-11.4351
 L 53.9895,-10.4945 L 54.1644,-9.55064 L 54.3228,-8.60388 L 54.4647,-7.65451 L 54.59,-6.7028 L 54.6987,-5.74905
 L 54.7907,-4.79356 L 54.866,-3.83659 L 54.9246,-2.87846 L 54.9665,-1.91946 L 54.9916,-0.959869 L 55,-0
 L 54.9916,0.959869 L 54.9665,1.91946 L 54.9246,2.87846 L 54.866,3.83659 L 54.7907,4.79356 L 54.6987,5.74905
 L 54.59,6.7028 L 54.4647,7.65451 L 54.3228,8.60388 L 54.1644,9.55064 L 53.9895,10.4945 L 53.7981,11.4351
 L 53.5903,12.3723 L 53.3663,13.3057 L 53.1259,14.235 L 52.8694,15.16 L 52.5968,16.0804 L 52.3081,16.9959
 L 52.0035,17.9062 L 51.6831,18.8111 L 51.3469,19.7102 L 50.9951,20.6033 L 50.6278,21.4902 L 50.245,22.3705
 L 49.8469,23.244 L 49.4337,24.1104 L 49.0054,24.9695 L 48.5621,25.8209 L 48.1041,26.6645 L 47.6314,27.5
 L 47.1442,28.3271 L 46.6426,29.1456 L 46.1269,29.9551 L 45.5971,30.7556 L 45.0534,31.5467 L 44.4959,32.3282
 L 43.9249,33.0998 L 43.3406,33.8614 L 42.743,34.6126 L 42.1324,35.3533 L 41.509,36.0832 L 40.873,36.8022
 L 40.2244,37.5099 L 39.5637,38.2062 L 38.8909,38.8909 L 38.2062,39.5637 L 37.5099,40.2244 L 36.8022,40.873
 L 36.0832,41.509 L 35.3533,42.1324 L 34.6126,42.743 L 33.8614,43.3406 L 33.0998,43.9249 L 32.3282,44.4959
 L 31.5467,45.0534 L 30.7556,45.5971 L 29.9551,46.1269 L 29.1456,46.6426 L 28.3271,47.1442 L 27.5,47.6314
 L 26.6645,48.1041 L 25.8209,48.5621 L 24.9695,49.0054 L 24.1104,49.4337 L 23.244,49.8469 L 22.3705,50.245
 L 21.4902,50.6278 L 20.6033,50.9951 L 19.7102,51.3469 L 18.8111,51.6831 L 17.9062,52.0035 L 16.9959,52.3081
 L 16.0804,52.5968 L 15.16,52.8694 L 14.235,53.1259 L 13.3057,53.3663 L 12.3723,53.5903 L 11.4351,53.7981
 L 10.4945,53.9895 L 9.55064,54.1644 L 8.60388,54.3228 L 7.65451,54.4647 L 6.7028,54.59 L 5.74905,54.6987
 L 4.79356,54.7907 L 3.83659,54.866 L 2.87846,54.9246 L 1.91946,54.9665 L 0.959869,54.9916 L 0,55
 z
M 29.9389,-50.2126 L 29.8171,-50.2211 L 29.6961,-50.2381 L 29.5766,-50.2635 L 29.4592,-50.2972 L 29.3444,-50.3389
 L 29.2328,-50.3886 L 29.125,-50.446 L 29.0214,-50.5107 L 28.9226,-50.5825 L 28.829,-50.661 L 28.7411,-50.7459
 L 28.6594,-50.8366 L 28.5842,-50.9329 L 28.5159,-51.0342 L 28.4548,-51.1399 L 28.4013,-51.2497 L 28.3555,-51.363
 L 28.3178,-51.4792 L 28.2882,-51.5977 L 28.267,-51.718 L 28.2543,-51.8394 L 28.25,-51.9615 L 28.2543,-52.0836
 L 28.267,-52.2051 L 28.2882,-52.3254 L 28.3178,-52.4439 L 28.3555,-52.5601 L 28.4013,-52.6733 L 28.4548,-52.7831
 L 28.5159,-52.8889 L 28.5842,-52.9901 L 28.6594,-53.0864 L 28.7411,-53.1772 L 28.829,-53.262 L 28.9226,-53.3405
 L 29.0214,-53.4123 L 29.125,-53.4771 L 29.2328,-53.5344 L 29.3444,-53.5841 L 29.4592,-53.6259 L 29.5766,-53.6595
 L 29.6961,-53.6849 L 29.8171,-53.7019 L 29.9389,-53.7104 L 30.0611,-53.7104 L 30.1829,-53.7019 L 30.3039,-53.6849
 L 30.4234,-53.6595 L 30.5408,-53.6259 L 30.6555,-53.5841 L 30.7671,-53.5344 L 30.875,-53.4771 L 30.9786,-53.4123
 L 31.0774,-53.3405 L 31.171,-53.262 L 31.2588,-53.1772 L 31.3406,-53.0864 L 31.4158,-52.9901 L 31.4841,-52.8889
 L 31.5452,-52.7831 L 31.5987,-52.6733 L 31.6445,-52.5601 L 31.6822,-52.4439 L 31.7117,-52.3254 L 31.733,-52.2051
 L 31.7457,-52.0836 L 31.75,-51.9615 L 31.7457,-51.8394 L 31.733,-51.718 L 31.7117,-51.5977 L 31.6822,-51.4792
 L 31.6445,-51.363 L 31.5987,-51.2497 L 31.5452,-51.1399 L 31.4841,-51.0342 L 31.4158,-50.9329 L 31.3406,-50.8366
 L 31.2588,-50.7459 L 31.171,-50.661 L 31.0774,-50.5825 L 30.9786,-50.5107 L 30.875,-50.446 L 30.7671,-50.3886
 L 30.6555,-50.3389 L 30.5408,-50.2972 L 30.4234,-50.2635 L 30.3039,-50.2381 L 30.1829,-50.2211 L 30.0611,-50.2126
 z
M -30.0611,-50.2126 L -30.1829,-50.2211 L -30.3039,-50.2381 L -30.4234,-50.2635 L -30.5408,-50.2972 L -30.6555,-50.3389
 L -30.7671,-50.3886 L -30.875,-50.446 L -30.9786,-50.5107 L -31.0774,-50.5825 L -31.171,-50.661 L -31.2588,-50.7459
 L -31.3406,-50.8366 L -31.4158,-50.9329 L -31.4841,-51.0342 L -31.5452,-51.1399 L -31.5987,-51.2497 L -31.6445,-51.363
 L -31.6822,-51.4792 L -31.7117,-51.5977 L -31.733,-51.718 L -31.7457,-51.8394 L -31.75,-51.9615 L -31.7457,-52.0836
 L -31.733,-52.2051 L -31.7117,-52.3254 L -31.6822,-52.4439 L -31.6445,-52.5601 L -31.5987,-52.6733 L -31.5452,-52.7831
 L -31.4841,-52.8889 L -31.4158,-52.9901 L -31.3406,-53.0864 L -31.2588,-53.1772 L -31.171,-53.262 L -31.0774,-53.3405
 L -30.9786,-53.4123 L -30.875,-53.4771 L -30.7671,-53.5344 L -30.6555,-53.5841 L -30.5408,-53.6259 L -30.4234,-53.6595
 L -30.3039,-53.6849 L -30.1829,-53.7019 L -30.0611,-53.7104 L -29.9389,-53.7104 L -29.8171,-53.7019 L -29.6961,-53.6849
 L -29.5766,-53.6595 L -29.4592,-53.6259 L -29.3444,-53.5841 L -29.2328,-53.5344 L -29.125,-53.4771 L -29.0214,-53.4123
 L -28.9226,-53.3405 L -28.829,-53.262 L -28.7411,-53.1772 L -28.6594,-53.0864 L -28.5842,-52.9901 L -28.5159,-52.8889
 L -28.4548,-52.7831 L -28.4013,-52.6733 L -28.3555,-52.5601 L -28.3178,-52.4439 L -28.2882,-52.3254 L -28.267,-52.2051
 L -28.2543,-52.0836 L -28.25,-51.9615 L -28.2543,-51.8394 L -28.267,-51.718 L -28.2882,-51.5977 L -28.3178,-51.4792
 L -28.3555,-51.363 L -28.4013,-51.2497 L -28.4548,-51.1399 L -28.5159,-51.0342 L -28.5842,-50.9329 L -28.6594,-50.8366
 L -28.7411,-50.7459 L -28.829,-50.661 L -28.9226,-50.5825 L -29.0214,-50.5107 L -29.125,-50.446 L -29.2328,-50.3886
 L -29.3444,-50.3389 L -29.4592,-50.2972 L -29.5766,-50.2635 L -29.6961,-50.2381 L -29.8171,-50.2211 L -29.9389,-50.2126
 z
M 51.9004,-28.2511 L 51.7786,-28.2596 L 51.6576,-28.2766 L 51.5381,-28.302 L 51.4207,-28.3356 L 51.306,-28.3774
 L 51.1944,-28.4271 L 51.0865,-28.4845 L 50.9829,-28.5492 L 50.8841,-28.621 L 50.7905,-28.6995 L 50.7027,-28.7843
 L 50.6209,-28.8751 L 50.5457,-28.9714 L 50.4774,-29.0726 L 50.4164,-29.1784 L 50.3628,-29.2882 L 50.317,-29.4015
 L 50.2793,-29.5176 L 50.2498,-29.6362 L 50.2285,-29.7564 L 50.2158,-29.8779 L 50.2115,-30 L 50.2158,-30.1221
 L 50.2285,-30.2435 L 50.2498,-30.3638 L 50.2793,-30.4824 L 50.317,-30.5985 L 50.3628,-30.7118 L 50.4164,-30.8216
 L 50.4774,-30.9274 L 50.5457,-31.0286 L 50.6209,-31.1249 L 50.7027,-31.2156 L 50.7905,-31.3005 L 50.8841,-31.379
 L 50.9829,-31.4508 L 51.0865,-31.5155 L 51.1944,-31.5729 L 51.306,-31.6226 L 51.4207,-31.6643 L 51.5381,-31.698
 L 51.6576,-31.7234 L 51.7786,-31.7404 L 51.9004,-31.7489 L 52.0226,-31.7489 L 52.1444,-31.7404 L 52.2654,-31.7234
 L 52.3849,-31.698 L 52.5023,-31.6643 L 52.6171,-31.6226 L 52.7287,-31.5729 L 52.8365,-31.5155 L 52.9401,-31.4508
 L 53.0389,-31.379 L 53.1325,-31.3005 L 53.2204,-31.2156 L 53.3021,-31.1249 L 53.3773,-31.0286 L 53.4456,-30.9274
 L 53.5067,-30.8216 L 53.5602,-30.7118 L 53.606,-30.5985 L 53.6437,-30.4824 L 53.6733,-30.3638 L 53.6945,-30.2435
 L 53.7073,-30.1221 L 53.7115,-30 L 53.7073,-29.8779 L 53.6945,-29.7564 L 53.6733,-29.6362 L 53.6437,-29.5176
 L 53.606,-29.4015 L 53.5602,-29.2882 L 53.5067,-29.1784 L 53.4456,-29.0726 L 53.3773,-28.9714 L 53.3021,-28.8751
 L 53.2204,-28.7843 L 53.1325,-28.6995 L 53.0389,-28.621 L 52.9401,-28.5492 L 52.8365,-28.4845 L 52.7287,-28.4271
 L 52.6171,-28.3774 L 52.5023,-28.3356 L 52.3849,-28.302 L 52.2654,-28.2766 L 52.1444,-28.2596 L 52.0226,-28.2511
 z
M -52.0226,-28.2511 L -52.1444,-28.2596 L -52.2654,-28.2766 L -52.3849,-28.302 L -52.5023,-28.3356 L -52.6171,-28.3774
 L -52.7287,-28.4271 L -52.8365,-28.4845 L -52.9401,-28.5492 L -53.0389,-28.621 L -53.1325,-28.6995 L -53.2204,-28.7843
 L -53.3021,-28.8751 L -53.3773,-28.9714 L -53.4456,-29.0726 L -53.5067,-29.1784 L -53.5602,-29.2882 L -53.606,-29.4015
 L -53.6437,-29.5176 L -53.6733,-29.6362 L -53.6945,-29.7564 L -53.7073,-29.8779 L -53.7115,-30 L -53.7073,-30.1221
 L -53.6945,-30.2435 L -53.6733,-30.3638 L -53.6437,-30.4824 L -53.606,-30.5985 L -53.5602,-30.7118 L -53.5067,-30.8216
 L -53.4456,-30.9274 L -53.3773,-31.0286 L -53.3021,-31.1249 L -53.2204,-31.2156 L -53.1325,-31.3005 L -53.0389,-31.379
 L -52.9401,-31.4508 L -52.8365,-31.5155 L -52.7287,-31.5729 L -52.6171,-31.6226 L -52.5023,-31.6643 L -52.3849,-31.698
 L -52.2654,-31.7234 L -52.1444,-31.7404 L -52.0226,-31.7489 L -51.9004,-31.7489 L -51.7786,-31.7404 L -51.6576,-31.7234
 L -51.5381,-31.698 L -51.4207,-31.6643 L -51.306,-31.6226 L -51.1944,-31.5729 L -51.0865,-31.5155 L -50.9829,-31.4508
 L -50.8841,-31.379 L -50.7905,-31.3005 L -50.7027,-31.2156 L -50.6209,-31.1249 L -50.5457,-31.0286 L -50.4774,-30.9274
 L -50.4164,-30.8216 L -50.3628,-30.7118 L -50.317,-30.5985 L -50.2793,-30.4824 L -50.2498,-30.3638 L -50.2285,-30.2435
 L -50.2158,-30.1221 L -50.2115,-30 L -50.2158,-29.8779 L -50.2285,-29.7564 L -50.2498,-29.6362 L -50.2793,-29.5176
 L -50.317,-29.4015 L -50.3628,-29.2882 L -50.4164,-29.1784 L -50.4774,-29.0726 L -50.5457,-28.9714 L -50.6209,-28.8751
 L -50.7027,-28.7843 L -50.7905,-28.6995 L -50.8841,-28.621 L -50.9829,-28.5492 L -51.0865,-28.4845 L -51.1944,-28.4271
 L -51.306,-28.3774 L -51.4207,-28.3356 L -51.5381,-28.302 L -51.6576,-28.2766 L -51.7786,-28.2596 L -51.9004,-28.2511
 z
M 59.9389,1.74893 L 59.8171,1.7404 L 59.6961,1.7234 L 59.5766,1.69801 L 59.4592,1.66434 L 59.3444,1.62256
 L 59.2328,1.57288 L 59.125,1.51553 L 59.0214,1.45081 L 58.9226,1.37901 L 58.829,1.30049 L 58.7411,1.21564
 L 58.6594,1.12488 L 58.5842,1.02861 L 58.5159,0.927353 L 58.4548,0.821564 L 58.4013,0.711777 L 58.3555,0.598526
 L 58.3178,0.482361 L 58.2882,0.363831 L 58.267,0.243546 L 58.2543,0.12207 L 58.25,-0 L 58.2543,-0.12207
 L 58.267,-0.243546 L 58.2882,-0.363831 L 58.3178,-0.482361 L 58.3555,-0.598526 L 58.4013,-0.711777 L 58.4548,-0.821564
 L 58.5159,-0.927353 L 58.5842,-1.02861 L 58.6594,-1.12488 L 58.7411,-1.21564 L 58.829,-1.30049 L 58.9226,-1.37901
 L 59.0214,-1.45081 L 59.125,-1.51553 L 59.2328,-1.57288 L 59.3444,-1.62256 L 59.4592,-1.66434 L 59.5766,-1.69801
 L 59.6961,-1.7234 L 59.8171,-1.7404 L 59.9389,-1.74893 L 60.0611,-1.74893 L 60.1829,-1.7404 L 60.3039,-1.7234
 L 60.4234,-1.69801 L 60.5408,-1.66434 L 60.6555,-1.62256 L 60.7671,-1.57288 L 60.875,-1.51553 L 60.9786,-1.45081
 L 61.0774,-1.37901 L 61.171,-1.30049 L 61.2588,-1.21564 L 61.3406,-1.12488 L 61.4158,-1.02861 L 61.4841,-0.927353
 L 61.5452,-0.821564 L 61.5987,-0.711777 L 61.6445,-0.598526 L 61.6822,-0.482361 L 61.7117,-0.363831 L 61.733,-0.243546
 L 61.7457,-0.12207 L 61.75,-0 L 61.7457,0.12207 L 61.733,0.243546 L 61.7117,0.363831 L 61.6822,0.482361
 L 61.6445,0.598526 L 61.5987,0.711777 L 61.5452,0.821564 L 61.4841,0.927353 L 61.4158,1.02861 L 61.3406,1.12488
 L 61.2588,1.21564 L 61.171,1.30049 L 61.0774,1.37901 L 60.9786,1.45081 L 60.875,1.51553 L 60.7671,1.57288
 L 60.6555,1.62256 L 60.5408,1.66434 L 60.4234,1.69801 L 60.3039,1.7234 L 60.1829,1.7404 L 60.0611,1.74893
 z
M -60.0611,1.74893 L -60.1829,1.7404 L -60.3039,1.7234 L -60.4234,1.69801 L -60.5408,1.66434 L -60.6555,1.62256
 L -60.7671,1.57288 L -60.875,1.51553 L -60.9786,1.45081 L -61.0774,1.37901 L -61.171,1.30049 L -61.2588,1.21564
 L -61.3406,1.12488 L -61.4158,1.02861 L -61.4841,0.927353 L -61.5452,0.821564 L -61.5987,0.711777 L -61.6445,0.598526
 L -61.6822,0.482361 L -61.7117,0.363831 L -61.733,0.243546 L -61.7457,0.12207 L -61.75,-0 L -61.7457,-0.12207
 L -61.733,-0.243546 L -61.7117,-0.363831 L -61.6822,-0.482361 L -61.6445,-0.598526 L -61.5987,-0.711777 L -61.5452,-0.821564
 L -61.4841,-0.927353 L -61.4158,-1.02861 L -61.3406,-1.12488 L -61.2588,-1.21564 L -61.171,-1.30049 L -61.0774,-1.37901
 L -60.9786,-1.45081 L -60.875,-1.51553 L -60.7671,-1.57288 L -60.6555,-1.62256 L -60.5408,-1.66434 L -60.4234,-1.69801
 L -60.3039,-1.7234 L -60.1829,-1.7404 L -60.0611,-1.74893 L -59.9389,-1.74893 L -59.8171,-1.7404 L -59.6961,-1.7234
 L -59.5766,-1.69801 L -59.4592,-1.66434 L -59.3444,-1.62256 L -59.2328,-1.57288 L -59.125,-1.51553 L -59.0214,-1.45081
 L -58.9226,-1.37901 L -58.829,-1.30049 L -58.7411,-1.21564 L -58.6594,-1.12488 L -58.5842,-1.02861 L -58.5159,-0.927353
 L -58.4548,-0.821564 L -58.4013,-0.711777 L -58.3555,-0.598526 L -58.3178,-0.482361 L -58.2882,-0.363831 L -58.267,-0.243546
 L -58.2543,-0.12207 L -58.25,-0 L -58.2543,0.12207 L -58.267,0.243546 L -58.2882,0.363831 L -58.3178,0.482361
 L -58.3555,0.598526 L -58.4013,0.711777 L -58.4548,0.821564 L -58.5159,0.927353 L -58.5842,1.02861 L -58.6594,1.12488
 L -58.7411,1.21564 L -58.829,1.30049 L -58.9226,1.37901 L -59.0214,1.45081 L -59.125,1.51553 L -59.2328,1.57288
 L -59.3444,1.62256 L -59.4592,1.66434 L -59.5766,1.69801 L -59.6961,1.7234 L -59.8171,1.7404 L -59.9389,1.74893
 z
M 51.9004,31.7489 L 51.7786,31.7404 L 51.6576,31.7234 L 51.5381,31.698 L 51.4207,31.6643 L 51.306,31.6226
 L 51.1944,31.5729 L 51.0865,31.5155 L 50.9829,31.4508 L 50.8841,31.379 L 50.7905,31.3005 L 50.7027,31.2156
 L 50.6209,31.1249 L 50.5457,31.0286 L 50.4774,30.9274 L 50.4164,30.8216 L 50.3628,30.7118 L 50.317,30.5985
 L 50.2793,30.4824 L 50.2498,30.3638 L 50.2285,30.2435 L 50.2158,30.1221 L 50.2115,30 L 50.2158,29.8779
 L 50.2285,29.7564 L 50.2498,29.6362 L 50.2793,29.5176 L 50.317,29.4015 L 50.3628,29.2882 L 50.4164,29.1784
 L 50.4774,29.0726 L 50.5457,28.9714 L 50.6209,28.8751 L 50.7027,28.7843 L 50.7905,28.6995 L 50.8841,28.621
 L 50.9829,28.5492 L 51.0865,28.4845 L 51.1944,28.4271 L 51.306,28.3774 L 51.4207,28.3356 L 51.5381,28.302
 L 51.6576,28.2766 L 51.7786,28.2596 L 51.9004,28.2511 L 52.0226,28.2511 L 52.1444,28.2596 L 52.2654,28.2766
 L 52.3849,28.302 L 52.5023,28.3356 L 52.6171,28.3774 L 52.7287,28.4271 L 52.8365,28.4845 L 52.9401,28.5492
 L 53.0389,28.621 L 53.1325,28.6995 L 53.2204,28.7843 L 53.3021,28.8751 L 53.3773,28.9714 L 53.4456,29.0726
 L 53.5067,29.1784 L 53.5602,29.2882 L 53.606,29.4015 L 53.6437,29.5176 L 53.6733,29.6362 L 53.6945,29.7564
 L 53.7073,29.8779 L 53.7115,30 L 53.7073,30.1221 L 53.6945,30.2435 L 53.6733,30.3638 L 53.6437,30.4824
 L 53.606,30.5985 L 53.5602,30.7118 L 53.5067,30.8216 L 53.4456,30.9274 L 53.3773,31.0286 L 53.3021,31.1249
 L 53.2204,31.2156 L 53.1325,31.3005 L 53.0389,31.379 L 52.9401,31.4508 L 52.8365,31.5155 L 52.7287,31.5729
 L 52.6171,31.6226 L 52.5023,31.6643 L 52.3849,31.698 L 52.2654,31.7234 L 52.1444,31.7404 L 52.0226,31.7489
 z
M -52.0226,31.7489 L -52.1444,31.7404 L -52.2654,31.7234 L -52.3849,31.698 L -52.5023,31.6643 L -52.6171,31.6226
 L -52.7287,31.5729 L -52.8365,31.5155 L -52.9401,31.4508 L -53.0389,31.379 L -53.1325,31.3005 L -53.2204,31.2156
 L -53.3021,31.1249 L -53.3773,31.0286 L -53.4456,30.9274 L -53.5067,30.8216 L -53.5602,30.7118 L -53.606,30.5985
 L -53.6437,30.4824 L -53.6733,30.3638 L -53.6945,30.2435 L -53.7073,30.1221 L -53.7115,30 L -53.7073,29.8779
 L -53.6945,29.7564 L -53.6733,29.6362 L -53.6437,29.5176 L -53.606,29.4015 L -53.5602,29.2882 L -53.5067,29.1784
 L -53.4456,29.0726 L -53.3773,28.9714 L -53.3021,28.8751 L -53.2204,28.7843 L -53.1325,28.6995 L -53.0389,28.621
 L -52.9401,28.5492 L -52.8365,28.4845 L -52.7287,28.4271 L -52.6171,28.3774 L -52.5023,28.3356 L -52.3849,28.302
 L -52.2654,28.2766 L -52.1444,28.2596 L -52.0226,28.2511 L -51.9004,28.2511 L -51.7786,28.2596 L -51.6576,28.2766
 L -51.5381,28.302 L -51.4207,28.3356 L -51.306,28.3774 L -51.1944,28.4271 L -51.0865,28.4845 L -50.9829,28.5492
 L -50.8841,28.621 L -50.7905,28.6995 L -50.7027,28.7843 L -50.6209,28.8751 L -50.5457,28.9714 L -50.4774,29.0726
 L -50.4164,29.1784 L -50.3628,29.2882 L -50.317,29.4015 L -50.2793,29.5176 L -50.2498,29.6362 L -50.2285,29.7564
 L -50.2158,29.8779 L -50.2115,30 L -50.2158,30.1221 L -50.2285,30.2435 L -50.2498,30.3638 L -50.2793,30.4824
 L -50.317,30.5985 L -50.3628,30.7118 L -50.4164,30.8216 L -50.4774,30.9274 L -50.5457,31.0286 L -50.6209,31.1249
 L -50.7027,31.2156 L -50.7905,31.3005 L -50.8841,31.379 L -50.9829,31.4508 L -51.0865,31.5155 L -51.1944,31.5729
 L -51.306,31.6226 L -51.4207,31.6643 L -51.5381,31.698 L -51.6576,31.7234 L -51.7786,31.7404 L -51.9004,31.7489
 z
M 29.9389,53.7104 L 29.8171,53.7019 L 29.6961,53.6849 L 29.5766,53.6595 L 29.4592,53.6259 L 29.3444,53.5841
 L 29.2328,53.5344 L 29.125,53.4771 L 29.0214,53.4123 L 28.9226,53.3405 L 28.829,53.262 L 28.7411,53.1772
 L 28.6594,53.0864 L 28.5842,52.9901 L 28.5159,52.8889 L 28.4548,52.7831 L 28.4013,52.6733 L 28.3555,52.5601
 L 28.3178,52.4439 L 28.2882,52.3254 L 28.267,52.2051 L 28.2543,52.0836 L 28.25,51.9615 L 28.2543,51.8394
 L 28.267,51.718 L 28.2882,51.5977 L 28.3178,51.4792 L 28.3555,51.363 L 28.4013,51.2497 L 28.4548,51.1399
 L 28.5159,51.0342 L 28.5842,50.9329 L 28.6594,50.8366 L 28.7411,50.7459 L 28.829,50.661 L 28.9226,50.5825
 L 29.0214,50.5107 L 29.125,50.446 L 29.2328,50.3886 L 29.3444,50.3389 L 29.4592,50.2972 L 29.5766,50.2635
 L 29.6961,50.2381 L 29.8171,50.2211 L 29.9389,50.2126 L 30.0611,50.2126 L 30.1829,50.2211 L 30.3039,50.2381
 L 30.4234,50.2635 L 30.5408,50.2972 L 30.6555,50.3389 L 30.7671,50.3886 L 30.875,50.446 L 30.9786,50.5107
 L 31.0774,50.5825 L 31.171,50.661 L 31.2588,50.7459 L 31.3406,50.8366 L 31.4158,50.9329 L 31.4841,51.0342
 L 31.5452,51.1399 L 31.5987,51.2497 L 31.6445,51.363 L 31.6822,51.4792 L 31.7117,51.5977 L 31.733,51.718
 L 31.7457,51.8394 L 31.75,51.9615 L 31.7457,52.0836 L 31.733,52.2051 L 31.7117,52.3254 L 31.6822,52.4439
 L 31.6445,52.5601 L 31.5987,52.6733 L 31.5452,52.7831 L 31.4841,52.8889 L 31.4158,52.9901 L 31.3406,53.0864
 L 31.2588,53.1772 L 31.171,53.262 L 31.0774,53.3405 L 30.9786,53.4123 L 30.875,53.4771 L 30.7671,53.5344
 L 30.6555,53.5841 L 30.5408,53.6259 L 30.4234,53.6595 L 30.3039,53.6849 L 30.1829,53.7019 L 30.0611,53.7104
 z
M -30.0611,53.7104 L -30.1829,53.7019 L -30.3039,53.6849 L -30.4234,53.6595 L -30.5408,53.6259 L -30.6555,53.5841
 L -30.7671,53.5344 L -30.875,53.4771 L -30.9786,53.4123 L -31.0774,53.3405 L -31.171,53.262 L -31.2588,53.1772
 L -31.3406,53.0864 L -31.4158,52.9901 L -31.4841,52.8889 L -31.5452,52.7831 L -31.5987,52.6733 L -31.6445,52.5601
 L -31.6822,52.4439 L -31.7117,52.3254 L -31.733,52.2051 L -31.7457,52.0836 L -31.75,51.9615 L -31.7457,51.8394
 L -31.733,51.718 L -31.7117,51.5977 L -31.6822,51.4792 L -31.6445,51.363 L -31.5987,51.2497 L -31.5452,51.1399
 L -31.4841,51.0342 L -31.4158,50.9329 L -31.3406,50.8366 L -31.2588,50.7459 L -31.171,50.661 L -31.0774,50.5825
 L -30.9786,50.5107 L -30.875,50.446 L -30.7671,50.3886 L -30.6555,50.3389 L -30.5408,50.2972 L -30.4234,50.2635
 L -30.3039,50.2381 L -30.1829,50.2211 L -30.0611,50.2126 L -29.9389,50.2126 L -29.8171,50.2211 L -29.6961,50.2381
 L -29.5766,50.2635 L -29.4592,50.2972 L -29.3444,50.3389 L -29.2328,50.3886 L -29.125,50.446 L -29.0214,50.5107
 L -28.9226,50.5825 L -28.829,50.661 L -28.7411,50.7459 L -28.6594,50.8366 L -28.5842,50.9329 L -28.5159,51.0342
 L -28.4548,51.1399 L -28.4013,51.2497 L -28.3555,51.363 L -28.3178,51.4792 L -28.2882,51.5977 L -28.267,51.718
 L -28.2543,51.8394 L -28.25,51.9615 L -28.2543,52.0836 L -28.267,52.2051 L -28.2882,52.3254 L -28.3178,52.4439
 L -28.3555,52.5601 L -28.4013,52.6733 L -28.4548,52.7831 L -28.5159,52.8889 L -28.5842,52.9901 L -28.6594,53.0864
 L -28.7411,53.1772 L -28.829,53.262 L -28.9226,53.3405 L -29.0214,53.4123 L -29.125,53.4771 L -29.2328,53.5344
 L -29.3444,53.5841 L -29.4592,53.6259 L -29.5766,53.6595 L -29.6961,53.6849 L -29.8171,53.7019 L -29.9389,53.7104
 z
M -0.0610657,61.7489 L -0.182922,61.7404 L -0.303879,61.7234 L -0.423355,61.698 L -0.540771,61.6643 L -0.655548,61.6226
 L -0.767136,61.5729 L -0.875,61.5155 L -0.978577,61.4508 L -1.07739,61.379 L -1.17097,61.3005 L -1.25883,61.2156
 L -1.34058,61.1249 L -1.41577,61.0286 L -1.48407,60.9274 L -1.54515,60.8216 L -1.59869,60.7118 L -1.64445,60.5985
 L -1.68221,60.4824 L -1.71175,60.3638 L -1.73296,60.2435 L -1.74573,60.1221 L -1.75,60 L -1.74573,59.8779
 L -1.73296,59.7564 L -1.71175,59.6362 L -1.68221,59.5176 L -1.64445,59.4015 L -1.59869,59.2882 L -1.54515,59.1784
 L -1.48407,59.0726 L -1.41577,58.9714 L -1.34058,58.8751 L -1.25883,58.7843 L -1.17097,58.6995 L -1.07739,58.621
 L -0.978577,58.5492 L -0.874985,58.4845 L -0.767136,58.4271 L -0.655548,58.3774 L -0.540771,58.3356 L -0.423355,58.302
 L -0.303879,58.2766 L -0.182922,58.2596 L -0.0610657,58.2511 L 0.0610657,58.2511 L 0.182922,58.2596 L 0.303879,58.2766
 L 0.423355,58.302 L 0.540771,58.3356 L 0.655548,58.3774 L 0.767136,58.4271 L 0.875,58.4845 L 0.978577,58.5492
 L 1.07739,58.621 L 1.17097,58.6995 L 1.25883,58.7843 L 1.34058,58.8751 L 1.41577,58.9714 L 1.48407,59.0726
 L 1.54515,59.1784 L 1.59869,59.2882 L 1.64445,59.4015 L 1.68221,59.5176 L 1.71175,59.6362 L 1.73296,59.7564
 L 1.74573,59.8779 L 1.75,60 L 1.74573,60.1221 L 1.73296,60.2435 L 1.71175,60.3638 L 1.68221,60.4824
 L 1.64445,60.5985 L 1.59869,60.7118 L 1.54515,60.8216 L 1.48407,60.9274 L 1.41577,61.0286 L 1.34058,61.1249
 L 1.25883,61.2156 L 1.17097,61.3005 L 1.07739,61.379 L 0.978577,61.4508 L 0.875,61.5155 L 0.767136,61.5729
 L 0.655548,61.6226 L 0.540771,61.6643 L 0.423355,61.698 L 0.303879,61.7234 L 0.182922,61.7404 L 0.0610657,61.7489
 z
" stroke="black" fill="lightgray" stroke-width="0.5"/></svg>
