<?xml version="1.0" standalone="no"?>
<!DOCTYPE svg PUBLIC "-//W3C//DTD SVG 1.1//EN" "http://www.w3.org/Graphics/SVG/1.1/DTD/svg11.dtd">
<svg width="130mm" height="130mm" viewBox="-65 -65 130 130" xmlns="http://www.w3.org/2000/svg" version="1.1">
<title>OpenSCAD Model</title>
<path d="
M 1.1344,64.9901 L 2.26846,64.9604 L 3.40182,64.9109 L 4.53416,64.8417 L 5.66512,64.7527 L 6.79434,64.6439
 L 7.92149,64.5155 L 9.04625,64.3674 L 10.1682,64.1997 L 11.2871,64.0125 L 12.4026,63.8058 L 13.5143,63.5796
 L 14.6218,63.334 L 15.7249,63.0692 L 16.8232,62.7852 L 17.9164,62.482 L 19.0042,62.1598 L 20.0861,61.8187
 L 21.1619,61.4587 L 22.2313,61.08 L 23.2939,60.6827 L 24.3494,60.2669 L 25.3975,59.8328 L 26.4379,59.3804
 L 27.4702,58.91 L 28.4941,58.4216 L 29.5094,57.9154 L 30.5156,57.3916 L 31.5126,56.8503 L 32.277,56.4178
 L 32.3119,56.3478 L 32.7552,55.4963 L 33.2132,54.6527 L 33.6859,53.8173 L 34.1731,52.9902 L 34.6746,52.1717
 L 35.1904,51.3621 L 35.7202,50.5617 L 36.2639,49.7706 L 36.8213,48.9891 L 37.3923,48.2175 L 37.9767,47.4559
 L 38.5742,46.7047 L 39.1848,45.964 L 39.8082,45.234 L 40.4443,44.5151 L 41.0928,43.8074 L 41.7536,43.1111
 L 42.4264,42.4264 L 43.1111,41.7536 L 43.8074,41.0928 L 44.5151,40.4443 L 45.234,39.8082 L 45.964,39.1848
 L 46.7047,38.5742 L 47.4559,37.9767 L 48.2175,37.3923 L 48.9891,36.8213 L 49.7706,36.2639 L 50.5617,35.7202
 L 51.3621,35.1904 L 52.1717,34.6746 L 52.9902,34.1731 L 53.8173,33.6859 L 54.6527,33.2132 L 55.4963,32.7552
 L 56.3478,32.3119 L 56.4178,32.277 L 56.8503,31.5126 L 57.3916,30.5156 L 57.9154,29.5094 L 58.4216,28.4941
 L 58.91,27.4702 L 59.3804,26.4379 L 59.8328,25.3975 L 60.2669,24.3494 L 60.6827,23.2939 L 61.08,22.2313
 L 61.4587,21.1619 L 61.8187,20.0861 L 62.1598,19.0042 L 62.482,17.9164 L 62.7852,16.8232 L 63.0692,15.7249
 L 63.334,14.6218 L 63.5796,13.5143 L 63.8058,12.4026 L 64.0125,11.2871 L 64.1997,10.1682 L 64.3674,9.04625
 L 64.5155,7.92149 L 64.6439,6.79434 L 64.7527,5.66512 L 64.8417,4.53416 L 64.9109,3.40182 L 64.9604,2.26846
 L 64.9901,1.1344 L 65,-0 L 64.9901,-1.1344 L 64.9604,-2.26846 L 64.9109,-3.40182 L 64.8417,-4.53416
 L 64.7527,-5.66512 L 64.6439,-6.79434 L 64.5155,-7.92149 L 64.3674,-9.04625 L 64.1997,-10.1682 L 64.0125,-11.2871
 L 63.8058,-12.4026 L 63.5796,-13.5143 L 63.334,-14.6218 L 63.0692,-15.7249 L 62.7852,-16.8232 L 62.482,-17.9164
 L 62.1598,-19.0042 L 61.8187,-20.0861 L 61.4587,-21.1619 L 61.08,-22.2313 L 60.6827,-23.2939 L 60.2669,-24.3494
 L 59.8328,-25.3975 L 59.3804,-26.4379 L 58.91,-27.4702 L 58.4216,-28.4941 L 57.9154,-29.5094 L 57.3916,-30.5156
 L 56.8503,-31.5126 L 56.4178,-32.277 L 56.3478,-32.3119 L 55.4963,-32.7552 L 54.6527,-33.2132 L 53.8173,-33.6859
 L 52.9902,-34.1731 L 52.1717,-34.6746 L 51.3621,-35.1904 L 50.5617,-35.7202 L 49.7706,-36.2639 L 48.9891,-36.8213
 L 48.2175,-37.3923 L 47.4559,-37.9767 L 46.7047,-38.5742 L 45.964,-39.1848 L 45.234,-39.8082 L 44.5151,-40.4443
 L 43.8074,-41.0928 L 43.1111,-41.7536 L 42.4264,-42.4264 L 41.7536,-43.1111 L 41.0928,-43.8074 L 40.4443,-44.5151
 L 39.8082,-45.234 L 39.1848,-45.964 L 38.5742,-46.7047 L 37.9767,-47.4559 L 37.3923,-48.2175 L 36.8213,-48.9891
 L 36.2639,-49.7706 L 35.7202,-50.5617 L 35.1904,-51.3621 L 34.6746,-52.1717 L 34.1731,-52.9902 L 33.6859,-53.8173
 L 33.2132,-54.6527 L 32.7552,-55.4963 L 32.3119,-56.3478 L 32.277,-56.4178 L 31.5126,-56.8503 L 30.5156,-57.3916
 L 29.5094,-57.9154 L 28.4941,-58.4216 L 27.4702,-58.91 L 26.4379,-59.3804 L 25.3975,-59.8328 L 24.3494,-60.2669
 L 23.2939,-60.6827 L 22.2313,-61.08 L 21.1619,-61.4587 L 20.0861,-61.8187 L 19.0042,-62.1598 L 17.9164,-62.482
 L 16.8232,-62.7852 L 15.7249,-63.0692 L 14.6218,-63.334 L 13.5143,-63.5796 L 12.4026,-63.8058 L 11.2871,-64.0125
 L 10.1682,-64.1997 L 9.04625,-64.3674 L 7.92149,-64.5155 L 6.79434,-64.6439 L 5.66512,-64.7527 L 4.53416,-64.8417
 L 3.40182,-64.9109 L 2.26846,-64.9604 L 1.1344,-64.9901 L 0,-65 L -1.1344,-64.9901 L -2.26846,-64.9604
 L -3.40182,-64.9109 L -4.53416,-64.8417 L -5.66512,-64.7527 L -6.79434,-64.6439 L -7.92149,-64.5155 L -9.04625,-64.3674
 L -10.1682,-64.1997 L -11.2871,-64.0125 L -12.4026,-63.8058 L -13.5143,-63.5796 L -14.6218,-63.334 L -15.7249,-63.0692
 L -16.8232,-62.7852 L -17.9164,-62.482 L -19.0042,-62.1598 L -20.0861,-61.8187 L -21.1619,-61.4587 L -22.2313,-61.08
 L -23.2939,-60.6827 L -24.3494,-60.2669 L -25.3975,-59.8328 L -26.4379,-59.3804 L -27.4702,-58.91 L -28.4941,-58.4216
 L -29.5094,-57.9154 L -30.5156,-57.3916 L -31.5126,-56.8503 L -32.277,-56.4178 L -32.3119,-56.3478 L -32.7552,-55.4963
 L -33.2132,-54.6527 L -33.6859,-53.8173 L -34.1731,-52.9902 L -34.6746,-52.1717 L -35.1904,-51.3621 L -35.7202,-50.5617
 L -36.2639,-49.7706 L -36.8213,-48.9891 L -37.3923,-48.2175 L -37.9767,-47.4559 L -38.5742,-46.7047 L -39.1848,-45.964
 L -39.8082,-45.234 L -40.4443,-44.5151 L -41.0928,-43.8074 L -41.7536,-43.1111 L -42.4264,-42.4264 L -43.1111,-41.7536
 L -43.8074,-41.0928 L -44.5151,-40.4443 L -45.234,-39.8082 L -45.964,-39.1848 L -46.7047,-38.5742 L -47.4559,-37.9767
 L -48.2175,-37.3923 L -48.9891,-36.8213 L -49.7706,-36.2639 L -50.5617,-35.7202 L -51.3621,-35.1904 L -52.1717,-34.6746
 L -52.9902,-34.1731 L -53.8173,-33.6859 L -54.6527,-33.2132 L -55.4963,-32.7552 L -56.3478,-32.3119 L -56.4178,-32.277
 L -56.8503,-31.5126 L -57.3916,-30.5156 L -57.9154,-29.5094 L -58.4216,-28.4941 L -58.91,-27.4702 L -59.3804,-26.4379
 L -59.8328,-25.3975 L -60.2669,-24.3494 L -60.6827,-23.2939 L -61.08,-22.2313 L -61.4587,-21.1619 L -61.8187,-20.0861
 L -62.1598,-19.0042 L -62.482,-17.9164 L -62.7852,-16.8232 L -63.0692,-15.7249 L -63.334,-14.6218 L -63.5796,-13.5143
 L -63.8058,-12.4026 L -64.0125,-11.2871 L -64.1997,-10.1682 L -64.3674,-9.04625 L -64.5155,-7.92149 L -64.6439,-6.79434
 L -64.7527,-5.66512 L -64.8417,-4.53416 L -64.9109,-3.40182 L -64.9604,-2.26846 L -64.9901,-1.1344 L -65,-0
 L -64.9901,1.1344 L -64.9604,2.26846 L -64.9109,3.40182 L -64.8417,4.53416 L -64.7527,5.66512 L -64.6439,6.79434
 L -64.5155,7.92149 L -64.3674,9.04625 L -64.1997,10.1682 L -64.0125,11.2871 L -63.8058,12.4026 L -63.5796,13.5143
 L -63.334,14.6218 L -63.0692,15.7249 L -62.7852,16.8232 L -62.482,17.9164 L -62.1598,19.0042 L -61.8187,20.0861
 L -61.4587,21.1619 L -61.08,22.2313 L -60.6827,23.2939 L -60.2669,24.3494 L -59.8328,25.3975 L -59.3804,26.4379
 L -58.91,27.4702 L -58.4216,28.4941 L -57.9154,29.5094 L -57.3916,30.5156 L -56.8503,31.5126 L -56.4178,32.277
 L -56.3478,32.3119 L -55.4963,32.7552 L -54.6527,33.2132 L -53.8173,33.6859 L -52.9902,34.1731 L -52.1717,34.6746
 L -51.3621,35.1904 L -50.5617,35.7202 L -49.7706,36.2639 L -48.9891,36.8213 L -48.2175,37.3923 L -47.4559,37.9767
 L -46.7047,38.5742 L -45.964,39.1848 L -45.234,39.8082 L -44.5151,40.4443 L -43.8074,41.0928 L -43.1111,41.7536
 L -42.4264,42.4264 L -41.7536,43.1111 L -41.0928,43.8074 L -40.4443,44.5151 L -39.8082,45.234 L -39.1848,45.964
 L -38.5742,46.7047 L -37.9767,47.4559 L -37.3923,48.2175 L -36.8213,48.9891 L -36.2639,49.7706 L -35.7202,50.5617
 L -35.1904,51.3621 L -34.6746,52.1717 L -34.1731,52.9902 L -33.6859,53.8173 L -33.2132,54.6527 L -32.7552,55.4963
 L -32.3119,56.3478 L -32.277,56.4178 L -31.5126,56.8503 L -30.5156,57.3916 L -29.5094,57.9154 L -28.4941,58.4216
 L -27.4702,58.91 L -26.4379,59.3804 L -25.3975,59.8328 L -24.3494,60.2669 L -23.2939,60.6827 L -22.2313,61.08
 L -21.1619,61.4587 L -20.0861,61.8187 L -19.0042,62.1598 L -17.9164,62.482 L -16.8232,62.7852 L -15.7249,63.0692
 L -14.6218,63.334 L -13.5143,63.5796 L -12.4026,63.8058 L -11.2871,64.0125 L -10.1682,64.1997 L -9.04625,64.3674
 L -7.92149,64.5155 L -6.79434,64.6439 L -5.66512,64.7527 L -4.53416,64.8417 L -3.40182,64.9109 L -2.26846,64.9604
 L -1.1344,64.9901 L 0,65 z
M -0.0732574,-58.6019 L -0.194839,-58.6136 L -0.314926,-58.6359 L -0.432617,-58.6685 L -0.547012,-58.7113 L -0.657257,-58.7639
 L -0.762482,-58.8259 L -0.861923,-58.8968 L -0.954788,-58.9761 L -1.04039,-59.0632 L -1.11809,-59.1575 L -1.18726,-59.2581
 L -1.24741,-59.3644 L -1.29805,-59.4755 L -1.33882,-59.5907 L -1.3694,-59.7089 L -1.38956,-59.8294 L -1.39914,-59.9511
 L -1.39807,-60.0733 L -1.38637,-60.1948 L -1.36411,-60.3149 L -1.33147,-60.4326 L -1.2887,-60.547 L -1.23611,-60.6573
 L -1.17413,-60.7625 L -1.10321,-60.8619 L -1.02388,-60.9548 L -0.936783,-61.0404 L -0.842529,-61.1181 L -0.741882,-61.1873
 L -0.635574,-61.2474 L -0.524445,-61.298 L -0.409317,-61.3388 L -0.291061,-61.3694 L -0.170609,-61.3896 L -0.0488586,-61.3991
 L 0.0732574,-61.3981 L 0.194839,-61.3864 L 0.314926,-61.3641 L 0.432617,-61.3315 L 0.547012,-61.2887 L 0.657257,-61.2361
 L 0.762482,-61.1741 L 0.861923,-61.1032 L 0.954788,-61.0239 L 1.04039,-60.9368 L 1.11809,-60.8425 L 1.18726,-60.7419
 L 1.24741,-60.6356 L 1.29805,-60.5244 L 1.33882,-60.4093 L 1.3694,-60.2911 L 1.38956,-60.1706 L 1.39914,-60.0489
 L 1.39807,-59.9267 L 1.38637,-59.8051 L 1.36411,-59.6851 L 1.33147,-59.5674 L 1.2887,-59.453 L 1.23611,-59.3427
 L 1.17413,-59.2375 L 1.10321,-59.1381 L 1.02388,-59.0452 L 0.936783,-58.9596 L 0.842529,-58.8819 L 0.741882,-58.8127
 L 0.635574,-58.7526 L 0.524445,-58.7019 L 0.409317,-58.6612 L 0.291061,-58.6306 L 0.170609,-58.6104 L 0.0488586,-58.6008
 z
M 29.9267,-50.5634 L 29.8051,-50.5751 L 29.6851,-50.5974 L 29.5674,-50.63 L 29.453,-50.6728 L 29.3427,-50.7254
 L 29.2375,-50.7874 L 29.1381,-50.8583 L 29.0452,-50.9376 L 28.9596,-51.0247 L 28.8819,-51.119 L 28.8127,-51.2196
 L 28.7526,-51.3259 L 28.7019,-51.4371 L 28.6612,-51.5522 L 28.6306,-51.6704 L 28.6104,-51.7909 L 28.6008,-51.9127
 L 28.6019,-52.0348 L 28.6136,-52.1564 L 28.6359,-52.2764 L 28.6685,-52.3941 L 28.7113,-52.5085 L 28.7639,-52.6188
 L 28.8259,-52.724 L 28.8968,-52.8234 L 28.9761,-52.9163 L 29.0632,-53.0019 L 29.1575,-53.0796 L 29.2581,-53.1488
 L 29.3644,-53.2089 L 29.4755,-53.2596 L 29.5907,-53.3003 L 29.7089,-53.3309 L 29.8294,-53.3511 L 29.9511,-53.3607
 L 30.0733,-53.3596 L 30.1948,-53.3479 L 30.3149,-53.3256 L 30.4326,-53.293 L 30.547,-53.2502 L 30.6573,-53.1976
 L 30.7625,-53.1357 L 30.8619,-53.0647 L 30.9548,-52.9854 L 31.0404,-52.8983 L 31.1181,-52.8041 L 31.1873,-52.7034
 L 31.2474,-52.5971 L 31.298,-52.486 L 31.3388,-52.3708 L 31.3694,-52.2526 L 31.3896,-52.1321 L 31.3991,-52.0104
 L 31.3981,-51.8882 L 31.3864,-51.7667 L 31.3641,-51.6466 L 31.3315,-51.5289 L 31.2887,-51.4145 L 31.2361,-51.3043
 L 31.1741,-51.199 L 31.1032,-51.0996 L 31.0239,-51.0067 L 30.9368,-50.9211 L 30.8425,-50.8434 L 30.7419,-50.7742
 L 30.6356,-50.7141 L 30.5244,-50.6635 L 30.4093,-50.6227 L 30.2911,-50.5921 L 30.1706,-50.5719 L 30.0489,-50.5624
 z
M -30.0733,-50.5634 L -30.1948,-50.5751 L -30.3149,-50.5974 L -30.4326,-50.63 L -30.547,-50.6728 L -30.6573,-50.7254
 L -30.7625,-50.7874 L -30.8619,-50.8583 L -30.9548,-50.9376 L -31.0404,-51.0247 L -31.1181,-51.119 L -31.1873,-51.2196
 L -31.2474,-51.3259 L -31.298,-51.4371 L -31.3388,-51.5522 L -31.3694,-51.6704 L -31.3896,-51.7909 L -31.3991,-51.9127
 L -31.3981,-52.0348 L -31.3864,-52.1564 L -31.3641,-52.2764 L -31.3315,-52.3941 L -31.2887,-52.5085 L -31.2361,-52.6188
 L -31.1741,-52.724 L -31.1032,-52.8234 L -31.0239,-52.9163 L -30.9368,-53.0019 L -30.8425,-53.0796 L -30.7419,-53.1488
 L -30.6356,-53.2089 L -30.5244,-53.2596 L -30.4093,-53.3003 L -30.2911,-53.3309 L -30.1706,-53.3511 L -30.0489,-53.3607
 L -29.9267,-53.3596 L -29.8051,-53.3479 L -29.6851,-53.3256 L -29.5674,-53.293 L -29.453,-53.2502 L -29.3427,-53.1976
 L -29.2375,-53.1357 L -29.1381,-53.0647 L -29.0452,-52.9854 L -28.9596,-52.8983 L -28.8819,-52.8041 L -28.8127,-52.7034
 L -28.7526,-52.5971 L -28.7019,-52.486 L -28.6612,-52.3708 L -28.6306,-52.2526 L -28.6104,-52.1321 L -28.6008,-52.0104
 L -28.6019,-51.8882 L -28.6136,-51.7667 L -28.6359,-51.6466 L -28.6685,-51.5289 L -28.7113,-51.4145 L -28.7639,-51.3043
 L -28.8259,-51.199 L -28.8968,-51.0996 L -28.9761,-51.0067 L -29.0632,-50.9211 L -29.1575,-50.8434 L -29.2581,-50.7742
 L -29.3644,-50.7141 L -29.4755,-50.6635 L -29.5907,-50.6227 L -29.7089,-50.5921 L -29.8294,-50.5719 L -29.9511,-50.5624
 z
M -0.87262,49.9924 L -1.74496,49.9695 L -2.61679,49.9315 L -3.48782,49.8782 L -4.35777,49.8097 L -5.22641,49.7261
 L -6.09346,49.6273 L -6.95865,49.5134 L -7.82172,49.3844 L -8.6824,49.2404 L -9.54044,49.0813 L -10.3956,48.9074
 L -11.2475,48.7185 L -12.0961,48.5148 L -12.9409,48.2963 L -13.7819,48.0631 L -14.6186,47.8152 L -15.4508,47.5528
 L -16.2784,47.2759 L -17.101,46.9846 L -17.9184,46.679 L -18.7303,46.3592 L -19.5365,46.0252 L -20.3368,45.6773
 L -21.1309,45.3154 L -21.9185,44.9397 L -22.6995,44.5503 L -23.4736,44.1474 L -24.2405,43.731 L -25,43.3013
 L -25.7519,42.8584 L -26.496,42.4024 L -27.2319,41.9335 L -27.9596,41.4519 L -28.6788,40.9576 L -29.3893,40.4508
 L -30.0907,39.9318 L -30.7831,39.4005 L -31.466,38.8573 L -32.1394,38.3022 L -32.8029,37.7355 L -33.4565,37.1572
 L -34.0999,36.5677 L -34.7329,35.967 L -35.3553,35.3553 L -35.967,34.7329 L -36.5677,34.0999 L -37.1572,33.4565
 L -37.7355,32.8029 L -38.3022,32.1394 L -38.8573,31.466 L -39.4005,30.7831 L -39.9318,30.0907 L -40.4508,29.3893
 L -40.9576,28.6788 L -41.4519,27.9596 L -41.9335,27.2319 L -42.4024,26.496 L -42.8584,25.7519 L -43.3013,25
 L -43.731,24.2405 L -44.1474,23.4736 L -44.5503,22.6995 L -44.9397,21.9185 L -45.3154,21.1309 L -45.6773,20.3368
 L -46.0252,19.5365 L -46.3592,18.7303 L -46.679,17.9184 L -46.9846,17.101 L -47.2759,16.2784 L -47.5528,15.4508
 L -47.8152,14.6186 L -48.0631,13.7819 L -48.2963,12.9409 L -48.5148,12.0961 L -48.7185,11.2475 L -48.9074,10.3956
 L -49.0813,9.54044 L -49.2404,8.6824 L -49.3844,7.82172 L -49.5134,6.95865 L -49.6273,6.09346 L -49.7261,5.22641
 L -49.8097,4.35777 L -49.8782,3.48782 L -49.9315,2.61679 L -49.9695,1.74496 L -49.9924,0.87262 L -50,-0
 L -49.9924,-0.87262 L -49.9695,-1.74496 L -49.9315,-2.61679 L -49.8782,-3.48782 L -49.8097,-4.35777 L -49.7261,-5.22641
 L -49.6273,-6.09346 L -49.5134,-6.95865 L -49.3844,-7.82172 L -49.2404,-8.6824 L -49.0813,-9.54044 L -48.9074,-10.3956
 L -48.7185,-11.2475 L -48.5148,-12.0961 L -48.2963,-12.9409 L -48.0631,-13.7819 L -47.8152,-14.6186 L -47.5528,-15.4508
 L -47.2759,-16.2784 L -46.9846,-17.101 L -46.679,-17.9184 L -46.3592,-18.7303 L -46.0252,-19.5365 L -45.6773,-20.3368
 L -45.3154,-21.1309 L -44.9397,-21.9185 L -44.5503,-22.6995 L -44.1474,-23.4736 L -43.731,-24.2405 L -43.3013,-25
 L -42.8584,-25.7519 L -42.4024,-26.496 L -41.9335,-27.2319 L -41.4519,-27.9596 L -40.9576,-28.6788 L -40.4508,-29.3893
 L -39.9318,-30.0907 L -39.4005,-30.7831 L -38.8573,-31.466 L -38.3022,-32.1394 L -37.7355,-32.8029 L -37.1572,-33.4565
 L -36.5677,-34.0999 L -35.967,-34.7329 L -35.3553,-35.3553 L -34.7329,-35.967 L -34.0999,-36.5677 L -33.4565,-37.1572
 L -32.8029,-37.7355 L -32.1394,-38.3022 L -31.466,-38.8573 L -30.7831,-39.4005 L -30.0907,-39.9318 L -29.3893,-40.4508
 L -28.6788,-40.9576 L -27.9596,-41.4519 L -27.2319,-41.9335 L -26.496,-42.4024 L -25.7519,-42.8584 L -25,-43.3013
 L -24.2405,-43.731 L -23.4736,-44.1474 L -22.6995,-44.5503 L -21.9185,-44.9397 L -21.1309,-45.3154 L -20.3368,-45.6773
 L -19.5365,-46.0252 L -18.7303,-46.3592 L -17.9184,-46.679 L -17.101,-46.9846 L -16.2784,-47.2759 L -15.4508,-47.5528
 L -14.6186,-47.8152 L -13.7819,-48.0631 L -12.9409,-48.2963 L -12.0961,-48.5148 L -11.2475,-48.7185 L -10.3956,-48.9074
 L -9.54044,-49.0813 L -8.6824,-49.2404 L -7.82172,-49.3844 L -6.95865,-49.5134 L -6.09346,-49.6273 L -5.22641,-49.7261
 L -4.35777,-49.8097 L -3.48782,-49.8782 L -2.61679,-49.9315 L -1.74496,-49.9695 L -0.87262,-49.9924 L 0,-50
 L 0.87262,-49.9924 L 1.74496,-49.9695 L 2.61679,-49.9315 L 3.48782,-49.8782 L 4.35777,-49.8097 L 5.22641,-49.7261
 L 6.09346,-49.6273 L 6.95865,-49.5134 L 7.82172,-49.3844 L 8.6824,-49.2404 L 9.54044,-49.0813 L 10.3956,-48.9074
 L 11.2475,-48.7185 L 12.0961,-48.5148 L 12.9409,-48.2963 L 13.7819,-48.0631 L 14.6186,-47.8152 L 15.4508,-47.5528
 L 16.2784,-47.2759 L 17.101,-46.9846 L 17.9184,-46.679 L 18.7303,-46.3592 L 19.5365,-46.0252 L 20.3368,-45.6773
 L 21.1309,-45.3154 L 21.9185,-44.9397 L 22.6995,-44.5503 L 23.4736,-44.1474 L 24.2405,-43.731 L 25,-43.3013
 L 25.7519,-42.8584 L 26.496,-42.4024 L 27.2319,-41.9335 L 27.9596,-41.4519 L 28.6788,-40.9576 L 29.3893,-40.4508
 L 30.0907,-39.9318 L 30.7831,-39.4005 L 31.466,-38.8573 L 32.1394,-38.3022 L 32.8029,-37.7355 L 33.4565,-37.1572
 L 34.0999,-36.5677 L 34.7329,-35.967 L 35.3553,-35.3553 L 35.967,-34.7329 L 36.5677,-34.0999 L 37.1572,-33.4565
 L 37.7355,-32.8029 L 38.3022,-32.1394 L 38.8573,-31.466 L 39.4005,-30.7831 L 39.9318,-30.0907 L 40.4508,-29.3893
 L 40.9576,-28.6788 L 41.4519,-27.9596 L 41.9335,-27.2319 L 42.4024,-26.496 L 42.8584,-25.7519 L 43.3013,-25
 L 43.731,-24.2405 L 44.1474,-23.4736 L 44.5503,-22.6995 L 44.9397,-21.9185 L 45.3154,-21.1309 L 45.6773,-20.3368
 L 46.0252,-19.5365 L 46.3592,-18.7303 L 46.679,-17.9184 L 46.9846,-17.101 L 47.2759,-16.2784 L 47.5528,-15.4508
 L 47.8152,-14.6186 L 48.0631,-13.7819 L 48.2963,-12.9409 L 48.5148,-12.0961 L 48.7185,-11.2475 L 48.9074,-10.3956
 L 49.0813,-9.54044 L 49.2404,-8.6824 L 49.3844,-7.82172 L 49.5134,-6.95865 L 49.6273,-6.09346 L 49.7261,-5.22641
 L 49.8097,-4.35777 L 49.8782,-3.48782 L 49.9315,-2.61679 L 49.9695,-1.74496 L 49.9924,-0.87262 L 50,-0
 L 49.9924,0.87262 L 49.9695,1.74496 L 49.9315,2.61679 L 49.8782,3.48782 L 49.8097,4.35777 L 49.7261,5.22641
 L 49.6273,6.09346 L 49.5134,6.95865 L 49.3844,7.82172 L 49.2404,8.6824 L 49.0813,9.54044 L 48.9074,10.3956
 L 48.7185,11.2475 L 48.5148,12.0961 L 48.2963,12.9409 L 48.0631,13.7819 L 47.8152,14.6186 L 47.5528,15.4508
 L 47.2759,16.2784 L 46.9846,17.101 L 46.679,17.9184 L 46.3592,18.7303 L 46.0252,19.5365 L 45.6773,20.3368
 L 45.3154,21.1309 L 44.9397,21.9185 L 44.5503,22.6995 L 44.1474,23.4736 L 43.731,24.2405 L 43.3013,25
 L 42.8584,25.7519 L 42.4024,26.496 L 41.9335,27.2319 L 41.4519,27.9596 L 40.9576,28.6788 L 40.4508,29.3893
 L 39.9318,30.0907 L 39.4005,30.7831 L 38.8573,31.466 L 38.3022,32.1394 L 37.7355,32.8029 L 37.1572,33.4565
 L 36.5677,34.0999 L 35.967,34.7329 L 35.3553,35.3553 L 34.7329,35.967 L 34.0999,36.5677 L 33.4565,37.1572
 L 32.8029,37.7355 L 32.1394,38.3022 L 31.466,38.8573 L 30.7831,39.4005 L 30.0907,39.9318 L 29.3893,40.4508
 L 28.6788,40.9576 L 27.9596,41.4519 L 27.2319,41.9335 L 26.496,42.4024 L 25.7519,42.8584 L 25,43.3013
 L 24.2405,43.731 L 23.4736,44.1474 L 22.6995,44.5503 L 21.9185,44.9397 L 21.1309,45.3154 L 20.3368,45.6773
 L 19.5365,46.0252 L 18.7303,46.3592 L 17.9184,46.679 L 17.101,46.9846 L 16.2784,47.2759 L 15.4508,47.5528
 L 14.6186,47.8152 L 13.7819,48.0631 L 12.9409,48.2963 L 12.0961,48.5148 L 11.2475,48.7185 L 10.3956,48.9074
 L 9.54044,49.0813 L 8.6824,49.2404 L 7.82172,49.3844 L 6.95865,49.5134 L 6.09346,49.6273 L 5.22641,49.7261
 L 4.35777,49.8097 L 3.48782,49.8782 L 2.61679,49.9315 L 1.74496,49.9695 L 0.87262,49.9924 L 0,50
 z
M 51.8882,-28.6019 L 51.7667,-28.6136 L 51.6466,-28.6359 L 51.5289,-28.6685 L 51.4145,-28.7113 L 51.3043,-28.7639
 L 51.199,-28.8259 L 51.0996,-28.8968 L 51.0067,-28.9761 L 50.9211,-29.0632 L 50.8434,-29.1575 L 50.7742,-29.2581
 L 50.7141,-29.3644 L 50.6635,-29.4755 L 50.6227,-29.5907 L 50.5921,-29.7089 L 50.5719,-29.8294 L 50.5624,-29.9511
 L 50.5634,-30.0733 L 50.5751,-30.1948 L 50.5974,-30.3149 L 50.63,-30.4326 L 50.6728,-30.547 L 50.7254,-30.6573
 L 50.7874,-30.7625 L 50.8583,-30.8619 L 50.9376,-30.9548 L 51.0247,-31.0404 L 51.119,-31.1181 L 51.2196,-31.1873
 L 51.3259,-31.2474 L 51.4371,-31.298 L 51.5522,-31.3388 L 51.6704,-31.3694 L 51.7909,-31.3896 L 51.9127,-31.3991
 L 52.0348,-31.3981 L 52.1564,-31.3864 L 52.2764,-31.3641 L 52.3941,-31.3315 L 52.5085,-31.2887 L 52.6188,-31.2361
 L 52.724,-31.1741 L 52.8234,-31.1032 L 52.9163,-31.0239 L 53.0019,-30.9368 L 53.0796,-30.8425 L 53.1488,-30.7419
 L 53.2089,-30.6356 L 53.2596,-30.5244 L 53.3003,-30.4093 L 53.3309,-30.2911 L 53.3511,-30.1706 L 53.3607,-30.0489
 L 53.3596,-29.9267 L 53.3479,-29.8051 L 53.3256,-29.6851 L 53.293,-29.5674 L 53.2502,-29.453 L 53.1976,-29.3427
 L 53.1357,-29.2375 L 53.0647,-29.1381 L 52.9854,-29.0452 L 52.8983,-28.9596 L 52.8041,-28.8819 L 52.7034,-28.8127
 L 52.5971,-28.7526 L 52.486,-28.7019 L 52.3708,-28.6612 L 52.2526,-28.6306 L 52.1321,-28.6104 L 52.0104,-28.6008
 z
M -52.0348,-28.6019 L -52.1564,-28.6136 L -52.2764,-28.6359 L -52.3941,-28.6685 L -52.5085,-28.7113 L -52.6188,-28.7639
 L -52.724,-28.8259 L -52.8234,-28.8968 L -52.9163,-28.9761 L -53.0019,-29.0632 L -53.0796,-29.1575 L -53.1488,-29.2581
 L -53.2089,-29.3644 L -53.2596,-29.4755 L -53.3003,-29.5907 L -53.3309,-29.7089 L -53.3511,-29.8294 L -53.3607,-29.9511
 L -53.3596,-30.0733 L -53.3479,-30.1948 L -53.3256,-30.3149 L -53.293,-30.4326 L -53.2502,-30.547 L -53.1976,-30.6573
 L -53.1357,-30.7625 L -53.0647,-30.8619 L -52.9854,-30.9548 L -52.8983,-31.0404 L -52.8041,-31.1181 L -52.7034,-31.1873
 L -52.5971,-31.2474 L -52.486,-31.298 L -52.3708,-31.3388 L -52.2526,-31.3694 L -52.1321,-31.3896 L -52.0104,-31.3991
 L -51.8882,-31.3981 L -51.7667,-31.3864 L -51.6466,-31.3641 L -51.5289,-31.3315 L -51.4145,-31.2887 L -51.3043,-31.2361
 L -51.199,-31.1741 L -51.0996,-31.1032 L -51.0067,-31.0239 L -50.9211,-30.9368 L -50.8434,-30.8425 L -50.7742,-30.7419
 L -50.7141,-30.6356 L -50.6635,-30.5244 L -50.6227,-30.4093 L -50.5921,-30.2911 L -50.5719,-30.1706 L -50.5624,-30.0489
 L -50.5634,-29.9267 L -50.5751,-29.8051 L -50.5974,-29.6851 L -50.63,-29.5674 L -50.6728,-29.453 L -50.7254,-29.3427
 L -50.7874,-29.2375 L -50.8583,-29.1381 L -50.9376,-29.0452 L -51.0247,-28.9596 L -51.119,-28.8819 L -51.2196,-28.8127
 L -51.3259,-28.7526 L -51.4371,-28.7019 L -51.5522,-28.6612 L -51.6704,-28.6306 L -51.7909,-28.6104 L -51.9127,-28.6008
 z
M 59.9267,1.39807 L 59.8051,1.38637 L 59.6851,1.36411 L 59.5674,1.33147 L 59.453,1.2887 L 59.3427,1.23611
 L 59.2375,1.17413 L 59.1381,1.10321 L 59.0452,1.02388 L 58.9596,0.936783 L 58.8819,0.842529 L 58.8127,0.741882
 L 58.7526,0.635574 L 58.7019,0.524445 L 58.6612,0.409317 L 58.6306,0.291061 L 58.6104,0.170609 L 58.6008,0.0488586
 L 58.6019,-0.0732574 L 58.6136,-0.194839 L 58.6359,-0.314926 L 58.6685,-0.432617 L 58.7113,-0.547012 L 58.7639,-0.657257
 L 58.8259,-0.762482 L 58.8968,-0.861923 L 58.9761,-0.954788 L 59.0632,-1.04039 L 59.1575,-1.11809 L 59.2581,-1.18726
 L 59.3644,-1.24741 L 59.4755,-1.29805 L 59.5907,-1.33882 L 59.7089,-1.3694 L 59.8294,-1.38956 L 59.9511,-1.39914
 L 60.0733,-1.39807 L 60.1948,-1.38637 L 60.3149,-1.36411 L 60.4326,-1.33147 L 60.547,-1.2887 L 60.6573,-1.23611
 L 60.7625,-1.17413 L 60.8619,-1.10321 L 60.9548,-1.02388 L 61.0404,-0.936783 L 61.1181,-0.842529 L 61.1873,-0.741882
 L 61.2474,-0.635574 L 61.298,-0.524445 L 61.3388,-0.409317 L 61.3694,-0.291061 L 61.3896,-0.170609 L 61.3991,-0.0488586
 L 61.3981,0.0732574 L 61.3864,0.194839 L 61.3641,0.314926 L 61.3315,0.432617 L 61.2887,0.547012 L 61.2361,0.657257
 L 61.1741,0.762482 L 61.1032,0.861923 L 61.0239,0.954788 L 60.9368,1.04039 L 60.8425,1.11809 L 60.7419,1.18726
 L 60.6356,1.24741 L 60.5244,1.29805 L 60.4093,1.33882 L 60.2911,1.3694 L 60.1706,1.38956 L 60.0489,1.39914
 z
M -60.0733,1.39807 L -60.1948,1.38637 L -60.3149,1.36411 L -60.4326,1.33147 L -60.547,1.2887 L -60.6573,1.23611
 L -60.7625,1.17413 L -60.8619,1.10321 L -60.9548,1.02388 L -61.0404,0.936783 L -61.1181,0.842529 L -61.1873,0.741882
 L -61.2474,0.635574 L -61.298,0.524445 L -61.3388,0.409317 L -61.3694,0.291061 L -61.3896,0.170609 L -61.3991,0.0488586
 L -61.3981,-0.0732574 L -61.3864,-0.194839 L -61.3641,-0.314926 L -61.3315,-0.432617 L -61.2887,-0.547012 L -61.2361,-0.657257
 L -61.1741,-0.762482 L -61.1032,-0.861923 L -61.0239,-0.954788 L -60.9368,-1.04039 L -60.8425,-1.11809 L -60.7419,-1.18726
 L -60.6356,-1.24741 L -60.5244,-1.29805 L -60.4093,-1.33882 L -60.2911,-1.3694 L -60.1706,-1.38956 L -60.0489,-1.39914
 L -59.9267,-1.39807 L -59.8051,-1.38637 L -59.6851,-1.36411 L -59.5674,-1.33147 L -59.453,-1.2887 L -59.3427,-1.23611
 L -59.2375,-1.17413 L -59.1381,-1.10321 L -59.0452,-1.02388 L -58.9596,-0.936783 L -58.8819,-0.842529 L -58.8127,-0.741882
 L -58.7526,-0.635574 L -58.7019,-0.524445 L -58.6612,-0.409317 L -58.6306,-0.291061 L -58.6104,-0.170609 L -58.6008,-0.0488586
 L -58.6019,0.0732574 L -58.6136,0.194839 L -58.6359,0.314926 L -58.6685,0.432617 L -58.7113,0.547012 L -58.7639,0.657257
 L -58.8259,0.762482 L -58.8968,0.861923 L -58.9761,0.954788 L -59.0632,1.04039 L -59.1575,1.11809 L -59.2581,1.18726
 L -59.3644,1.24741 L -59.4755,1.29805 L -59.5907,1.33882 L -59.7089,1.3694 L -59.8294,1.38956 L -59.9511,1.39914
 z
M 51.8882,31.3981 L 51.7667,31.3864 L 51.6466,31.3641 L 51.5289,31.3315 L 51.4145,31.2887 L 51.3043,31.2361
 L 51.199,31.1741 L 51.0996,31.1032 L 51.0067,31.0239 L 50.9211,30.9368 L 50.8434,30.8425 L 50.7742,30.7419
 L 50.7141,30.6356 L 50.6635,30.5244 L 50.6227,30.4093 L 50.5921,30.2911 L 50.5719,30.1706 L 50.5624,30.0489
 L 50.5634,29.9267 L 50.5751,29.8051 L 50.5974,29.6851 L 50.63,29.5674 L 50.6728,29.453 L 50.7254,29.3427
 L 50.7874,29.2375 L 50.8583,29.1381 L 50.9376,29.0452 L 51.0247,28.9596 L 51.119,28.8819 L 51.2196,28.8127
 L 51.3259,28.7526 L 51.4371,28.7019 L 51.5522,28.6612 L 51.6704,28.6306 L 51.7909,28.6104 L 51.9127,28.6008
 L 52.0348,28.6019 L 52.1564,28.6136 L 52.2764,28.6359 L 52.3941,28.6685 L 52.5085,28.7113 L 52.6188,28.7639
 L 52.724,28.8259 L 52.8234,28.8968 L 52.9163,28.9761 L 53.0019,29.0632 L 53.0796,29.1575 L 53.1488,29.2581
 L 53.2089,29.3644 L 53.2596,29.4755 L 53.3003,29.5907 L 53.3309,29.7089 L 53.3511,29.8294 L 53.3607,29.9511
 L 53.3596,30.0733 L 53.3479,30.1948 L 53.3256,30.3149 L 53.293,30.4326 L 53.2502,30.547 L 53.1976,30.6573
 L 53.1357,30.7625 L 53.0647,30.8619 L 52.9854,30.9548 L 52.8983,31.0404 L 52.8041,31.1181 L 52.7034,31.1873
 L 52.5971,31.2474 L 52.486,31.298 L 52.3708,31.3388 L 52.2526,31.3694 L 52.1321,31.3896 L 52.0104,31.3991
 z
M -52.0348,31.3981 L -52.1564,31.3864 L -52.2764,31.3641 L -52.3941,31.3315 L -52.5085,31.2887 L -52.6188,31.2361
 L -52.724,31.1741 L -52.8234,31.1032 L -52.9163,31.0239 L -53.0019,30.9368 L -53.0796,30.8425 L -53.1488,30.7419
 L -53.2089,30.6356 L -53.2596,30.5244 L -53.3003,30.4093 L -53.3309,30.2911 L -53.3511,30.1706 L -53.3607,30.0489
 L -53.3596,29.9267 L -53.3479,29.8051 L -53.3256,29.6851 L -53.293,29.5674 L -53.2502,29.453 L -53.1976,29.3427
 L -53.1357,29.2375 L -53.0647,29.1381 L -52.9854,29.0452 L -52.8983,28.9596 L -52.8041,28.8819 L -52.7034,28.8127
 L -52.5971,28.7526 L -52.486,28.7019 L -52.3708,28.6612 L -52.2526,28.6306 L -52.1321,28.6104 L -52.0104,28.6008
 L -51.8882,28.6019 L -51.7667,28.6136 L -51.6466,28.6359 L -51.5289,28.6685 L -51.4145,28.7113 L -51.3043,28.7639
 L -51.199,28.8259 L -51.0996,28.8968 L -51.0067,28.9761 L -50.9211,29.0632 L -50.8434,29.1575 L -50.7742,29.2581
 L -50.7141,29.3644 L -50.6635,29.4755 L -50.6227,29.5907 L -50.5921,29.7089 L -50.5719,29.8294 L -50.5624,29.9511
 L -50.5634,30.0733 L -50.5751,30.1948 L -50.5974,30.3149 L -50.63,30.4326 L -50.6728,30.547 L -50.7254,30.6573
 L -50.7874,30.7625 L -50.8583,30.8619 L -50.9376,30.9548 L -51.0247,31.0404 L -51.119,31.1181 L -51.2196,31.1873
 L -51.3259,31.2474 L -51.4371,31.298 L -51.5522,31.3388 L -51.6704,31.3694 L -51.7909,31.3896 L -51.9127,31.3991
 z
M 29.9267,53.3596 L 29.8051,53.3479 L 29.6851,53.3256 L 29.5674,53.293 L 29.453,53.2502 L 29.3427,53.1976
 L 29.2375,53.1357 L 29.1381,53.0647 L 29.0452,52.9854 L 28.9596,52.8983 L 28.8819,52.8041 L 28.8127,52.7034
 L 28.7526,52.5971 L 28.7019,52.486 L 28.6612,52.3708 L 28.6306,52.2526 L 28.6104,52.1321 L 28.6008,52.0104
 L 28.6019,51.8882 L 28.6136,51.7667 L 28.6359,51.6466 L 28.6685,51.5289 L 28.7113,51.4145 L 28.7639,51.3043
 L 28.8259,51.199 L 28.8968,51.0996 L 28.9761,51.0067 L 29.0632,50.9211 L 29.1575,50.8434 L 29.2581,50.7742
 L 29.3644,50.7141 L 29.4755,50.6635 L 29.5907,50.6227 L 29.7089,50.5921 L 29.8294,50.5719 L 29.9511,50.5624
 L 30.0733,50.5634 L 30.1948,50.5751 L 30.3149,50.5974 L 30.4326,50.63 L 30.547,50.6728 L 30.6573,50.7254
 L 30.7625,50.7874 L 30.8619,50.8583 L 30.9548,50.9376 L 31.0404,51.0247 L 31.1181,51.119 L 31.1873,51.2196
 L 31.2474,51.3259 L 31.298,51.4371 L 31.3388,51.5522 L 31.3694,51.6704 L 31.3896,51.7909 L 31.3991,51.9127
 L 31.3981,52.0348 L 31.3864,52.1564 L 31.3641,52.2764 L 31.3315,52.3941 L 31.2887,52.5085 L 31.2361,52.6188
 L 31.1741,52.724 L 31.1032,52.8234 L 31.0239,52.9163 L 30.9368,53.0019 L 30.8425,53.0796 L 30.7419,53.1488
 L 30.6356,53.2089 L 30.5244,53.2596 L 30.4093,53.3003 L 30.2911,53.3309 L 30.1706,53.3511 L 30.0489,53.3607
 z
M -30.0733,53.3596 L -30.1948,53.3479 L -30.3149,53.3256 L -30.4326,53.293 L -30.547,53.2502 L -30.6573,53.1976
 L -30.7625,53.1357 L -30.8619,53.0647 L -30.9548,52.9854 L -31.0404,52.8983 L -31.1181,52.8041 L -31.1873,52.7034
 L -31.2474,52.5971 L -31.298,52.486 L -31.3388,52.3708 L -31.3694,52.2526 L -31.3896,52.1321 L -31.3991,52.0104
 L -31.3981,51.8882 L -31.3864,51.7667 L -31.3641,51.6466 L -31.3315,51.5289 L -31.2887,51.4145 L -31.2361,51.3043
 L -31.1741,51.199 L -31.1032,51.0996 L -31.0239,51.0067 L -30.9368,50.9211 L -30.8425,50.8434 L -30.7419,50.7742
 L -30.6356,50.7141 L -30.5244,50.6635 L -30.4093,50.6227 L -30.2911,50.5921 L -30.1706,50.5719 L -30.0489,50.5624
 L -29.9267,50.5634 L -29.8051,50.5751 L -29.6851,50.5974 L -29.5674,50.63 L -29.453,50.6728 L -29.3427,50.7254
 L -29.2375,50.7874 L -29.1381,50.8583 L -29.0452,50.9376 L -28.9596,51.0247 L -28.8819,51.119 L -28.8127,51.2196
 L -28.7526,51.3259 L -28.7019,51.4371 L -28.6612,51.5522 L -28.6306,51.6704 L -28.6104,51.7909 L -28.6008,51.9127
 L -28.6019,52.0348 L -28.6136,52.1564 L -28.6359,52.2764 L -28.6685,52.3941 L -28.7113,52.5085 L -28.7639,52.6188
 L -28.8259,52.724 L -28.8968,52.8234 L -28.9761,52.9163 L -29.0632,53.0019 L -29.1575,53.0796 L -29.2581,53.1488
 L -29.3644,53.2089 L -29.4755,53.2596 L -29.5907,53.3003 L -29.7089,53.3309 L -29.8294,53.3511 L -29.9511,53.3607
 z
M -0.0732574,61.3981 L -0.194839,61.3864 L -0.314926,61.3641 L -0.432617,61.3315 L -0.547012,61.2887 L -0.657257,61.2361
 L -0.762482,61.1741 L -0.861923,61.1032 L -0.954788,61.0239 L -1.04039,60.9368 L -1.11809,60.8425 L -1.18726,60.7419
 L -1.24741,60.6356 L -1.29805,60.5244 L -1.33882,60.4093 L -1.3694,60.2911 L -1.38956,60.1706 L -1.39914,60.0489
 L -1.39807,59.9267 L -1.38637,59.8051 L -1.36411,59.6851 L -1.33147,59.5674 L -1.2887,59.453 L -1.23611,59.3427
 L -1.17413,59.2375 L -1.10321,59.1381 L -1.02388,59.0452 L -0.936783,58.9596 L -0.842529,58.8819 L -0.741882,58.8127
 L -0.635574,58.7526 L -0.524445,58.7019 L -0.409317,58.6612 L -0.291061,58.6306 L -0.170609,58.6104 L -0.0488586,58.6008
 L 0.0732574,58.6019 L 0.194839,58.6136 L 0.314926,58.6359 L 0.432617,58.6685 L 0.547012,58.7113 L 0.657257,58.7639
 L 0.762482,58.8259 L 0.861923,58.8968 L 0.954788,58.9761 L 1.04039,59.0632 L 1.11809,59.1575 L 1.18726,59.2581
 L 1.24741,59.3644 L 1.29805,59.4755 L 1.33882,59.5907 L 1.3694,59.7089 L 1.38956,59.8294 L 1.39914,59.9511
 L 1.39807,60.0733 L 1.38637,60.1948 L 1.36411,60.3149 L 1.33147,60.4326 L 1.2887,60.547 L 1.23611,60.6573
 L 1.17413,60.7625 L 1.10321,60.8619 L 1.02388,60.9548 L 0.936783,61.0404 L 0.842529,61.1181 L 0.741882,61.1873
 L 0.635574,61.2474 L 0.524445,61.298 L 0.409317,61.3388 L 0.291061,61.3694 L 0.170609,61.3896 L 0.0488586,61.3991
 z
" stroke="black" fill="lightgray" stroke-width="0.5"/></svg>
