solid OpenSCAD_Model
  facet normal -1 0 0
    outer loop
      vertex -50 -11.547 0
      vertex -50 -14.0761 24.092
      vertex -50 -11.547 23.7756
    endloop
  endfacet
  facet normal -1 0 0
    outer loop
      vertex -50 -11.547 0
      vertex -50 -33.353 26.5436
      vertex -50 -14.0761 24.092
    endloop
  endfacet
  facet normal -1 0 0
    outer loop
      vertex -50 -50 0
      vertex -50 -33.353 26.5436
      vertex -50 -11.547 0
    endloop
  endfacet
  facet normal -1 -0 0
    outer loop
      vertex -50 -33.353 26.5436
      vertex -50 -50 0
      vertex -50 -37.5116 27.1107
    endloop
  endfacet
  facet normal -1 -0 0
    outer loop
      vertex -50 -37.5116 27.1107
      vertex -50 -50 0
      vertex -50 -43.4726 27.9368
    endloop
  endfacet
  facet normal -1 -0 0
    outer loop
      vertex -50 -43.4726 27.9368
      vertex -50 -50 0
      vertex -50 -50 28.9202
    endloop
  endfacet
  facet normal -1 0 0
    outer loop
      vertex -50 50 0
      vertex -50 34.4723 18.5957
      vertex -50 50 17.0472
    endloop
  endfacet
  facet normal -1 0 0
    outer loop
      vertex -50 11.547 0
      vertex -50 34.4723 18.5957
      vertex -50 50 0
    endloop
  endfacet
  facet normal -1 -0 0
    outer loop
      vertex -50 34.4723 18.5957
      vertex -50 11.547 0
      vertex -50 13.2047 20.7465
    endloop
  endfacet
  facet normal -1 -0 0
    outer loop
      vertex -50 13.2047 20.7465
      vertex -50 11.547 0
      vertex -50 11.547 20.9354
    endloop
  endfacet
  facet normal 1 -0 0
    outer loop
      vertex 50 -50 99.8
      vertex 50 50 0
      vertex 50 50 99.8
    endloop
  endfacet
  facet normal 1 0 0
    outer loop
      vertex 50 50 0
      vertex 50 -50 99.8
      vertex 50 -50 0
    endloop
  endfacet
  facet normal 0 1 -0
    outer loop
      vertex 50 50 0
      vertex 12.1244 50 99.8
      vertex 50 50 99.8
    endloop
  endfacet
  facet normal 0 1 0
    outer loop
      vertex 12.1244 50 99.8
      vertex 50 50 0
      vertex 12.1244 50 0
    endloop
  endfacet
  facet normal 0 1 -0
    outer loop
      vertex -12.1244 50 0
      vertex -12.3529 50 73.5332
      vertex -12.1244 50 73.9881
    endloop
  endfacet
  facet normal 0 1 0
    outer loop
      vertex -12.1244 50 0
      vertex -13.174 50 71.9681
      vertex -12.3529 50 73.5332
    endloop
  endfacet
  facet normal 0 1 0
    outer loop
      vertex -12.1244 50 0
      vertex -16.5537 50 65.5747
      vertex -13.174 50 71.9681
    endloop
  endfacet
  facet normal 0 1 0
    outer loop
      vertex -12.1244 50 0
      vertex -17.4396 50 63.9744
      vertex -16.5537 50 65.5747
    endloop
  endfacet
  facet normal 0 1 0
    outer loop
      vertex -12.1244 50 0
      vertex -20.7541 50 58.0315
      vertex -17.4396 50 63.9744
    endloop
  endfacet
  facet normal 0 1 0
    outer loop
      vertex -12.1244 50 0
      vertex -21.7073 50 56.4051
      vertex -20.7541 50 58.0315
    endloop
  endfacet
  facet normal 0 1 0
    outer loop
      vertex -12.1244 50 0
      vertex -24.9559 50 50.9035
      vertex -21.7073 50 56.4051
    endloop
  endfacet
  facet normal 0 1 0
    outer loop
      vertex -12.1244 50 0
      vertex -25.9783 50 49.261
      vertex -24.9559 50 50.9035
    endloop
  endfacet
  facet normal 0 1 0
    outer loop
      vertex -12.1244 50 0
      vertex -29.1583 50 44.1907
      vertex -25.9783 50 49.261
    endloop
  endfacet
  facet normal 0 1 0
    outer loop
      vertex -12.1244 50 0
      vertex -30.2521 50 42.5425
      vertex -29.1583 50 44.1907
    endloop
  endfacet
  facet normal 0 1 0
    outer loop
      vertex -12.1244 50 0
      vertex -33.361 50 37.8931
      vertex -30.2521 50 42.5425
    endloop
  endfacet
  facet normal 0 1 0
    outer loop
      vertex -12.1244 50 0
      vertex -34.5286 50 36.2501
      vertex -33.361 50 37.8931
    endloop
  endfacet
  facet normal 0 1 0
    outer loop
      vertex -12.1244 50 0
      vertex -37.5634 50 32.0107
      vertex -34.5286 50 36.2501
    endloop
  endfacet
  facet normal 0 1 0
    outer loop
      vertex -12.1244 50 0
      vertex -38.8072 50 30.3845
      vertex -37.5634 50 32.0107
    endloop
  endfacet
  facet normal 0 1 0
    outer loop
      vertex -12.1244 50 0
      vertex -41.7669 50 26.5436
      vertex -38.8072 50 30.3845
    endloop
  endfacet
  facet normal 0 1 0
    outer loop
      vertex -12.1244 50 0
      vertex -43.0891 50 24.9464
      vertex -41.7669 50 26.5436
    endloop
  endfacet
  facet normal 0 1 0
    outer loop
      vertex -12.1244 50 0
      vertex -45.9706 50 21.4917
      vertex -43.0891 50 24.9464
    endloop
  endfacet
  facet normal 0 1 0
    outer loop
      vertex -50 50 0
      vertex -45.9706 50 21.4917
      vertex -12.1244 50 0
    endloop
  endfacet
  facet normal 0 1 0
    outer loop
      vertex -45.9706 50 21.4917
      vertex -50 50 0
      vertex -47.3738 50 19.9363
    endloop
  endfacet
  facet normal 0 1 0
    outer loop
      vertex -47.3738 50 19.9363
      vertex -50 50 0
      vertex -50 50 17.0472
    endloop
  endfacet
  facet normal 0 -1 0
    outer loop
      vertex 11.547 -50 0
      vertex 50 -50 99.8
      vertex 11.547 -50 99.8
    endloop
  endfacet
  facet normal 0 -1 -0
    outer loop
      vertex 50 -50 99.8
      vertex 11.547 -50 0
      vertex 50 -50 0
    endloop
  endfacet
  facet normal 0 -1 0
    outer loop
      vertex -11.547 -50 0
      vertex -50 -50 28.9202
      vertex -50 -50 0
    endloop
  endfacet
  facet normal 0 -1 0
    outer loop
      vertex -50 -50 28.9202
      vertex -11.547 -50 0
      vertex -48.0652 -50 31.4544
    endloop
  endfacet
  facet normal 0 -1 0
    outer loop
      vertex -48.0652 -50 31.4544
      vertex -11.547 -50 0
      vertex -47.6452 -50 32.0107
    endloop
  endfacet
  facet normal 0 -1 0
    outer loop
      vertex -47.6452 -50 32.0107
      vertex -11.547 -50 0
      vertex -43.7673 -50 37.478
    endloop
  endfacet
  facet normal 0 -1 0
    outer loop
      vertex -43.7673 -50 37.478
      vertex -11.547 -50 0
      vertex -43.4762 -50 37.8931
    endloop
  endfacet
  facet normal 0 -1 0
    outer loop
      vertex -43.4762 -50 37.8931
      vertex -11.547 -50 0
      vertex -39.4714 -50 43.9379
    endloop
  endfacet
  facet normal 0 -1 0
    outer loop
      vertex -39.4714 -50 43.9379
      vertex -11.547 -50 0
      vertex -39.3058 -50 44.1907
    endloop
  endfacet
  facet normal 0 -1 0
    outer loop
      vertex -39.3058 -50 44.1907
      vertex -11.547 -50 0
      vertex -35.1791 -50 50.8333
    endloop
  endfacet
  facet normal 0 -1 0
    outer loop
      vertex -35.1791 -50 50.8333
      vertex -11.547 -50 0
      vertex -35.1359 -50 50.9035
    endloop
  endfacet
  facet normal 0 -1 0
    outer loop
      vertex -35.1359 -50 50.9035
      vertex -11.547 -50 0
      vertex -33.6352 -50 53.4687
    endloop
  endfacet
  facet normal 0 -1 0
    outer loop
      vertex -33.6352 -50 53.4687
      vertex -11.547 -50 0
      vertex -30.9759 -50 58.0315
    endloop
  endfacet
  facet normal 0 -1 0
    outer loop
      vertex -30.9759 -50 58.0315
      vertex -11.547 -50 0
      vertex -30.9009 -50 58.1665
    endloop
  endfacet
  facet normal 0 -1 0
    outer loop
      vertex -30.9009 -50 58.1665
      vertex -11.547 -50 0
      vertex -26.823 -50 65.5747
    endloop
  endfacet
  facet normal 0 -1 0
    outer loop
      vertex -26.823 -50 65.5747
      vertex -11.547 -50 0
      vertex -26.6335 -50 65.9345
    endloop
  endfacet
  facet normal 0 -1 0
    outer loop
      vertex -26.6335 -50 65.9345
      vertex -11.547 -50 0
      vertex -22.6692 -50 73.5332
    endloop
  endfacet
  facet normal 0 -1 0
    outer loop
      vertex -22.6692 -50 73.5332
      vertex -11.547 -50 0
      vertex -22.3684 -50 74.1344
    endloop
  endfacet
  facet normal 0 -1 0
    outer loop
      vertex -22.3684 -50 74.1344
      vertex -11.547 -50 0
      vertex -18.5165 -50 81.9069
    endloop
  endfacet
  facet normal 0 -1 0
    outer loop
      vertex -18.5165 -50 81.9069
      vertex -11.547 -50 0
      vertex -18.1072 -50 82.7657
    endloop
  endfacet
  facet normal 0 -1 0
    outer loop
      vertex -18.1072 -50 82.7657
      vertex -11.547 -50 0
      vertex -14.3639 -50 90.6958
    endloop
  endfacet
  facet normal 0 -1 0
    outer loop
      vertex -14.3639 -50 90.6958
      vertex -11.547 -50 0
      vertex -13.849 -50 91.8276
    endloop
  endfacet
  facet normal 0 -1 0
    outer loop
      vertex -13.849 -50 91.8276
      vertex -11.547 -50 0
      vertex -11.547 -50 96.9348
    endloop
  endfacet
  facet normal -1 0 0
    outer loop
      vertex -60 17.3205 0
      vertex -60 16.4862 10.2653
      vertex -60 17.3205 10.197
    endloop
  endfacet
  facet normal -1 0 0
    outer loop
      vertex -60 17.3205 0
      vertex -60 1.79587 11.6197
      vertex -60 16.4862 10.2653
    endloop
  endfacet
  facet normal -1 0 0
    outer loop
      vertex -60 -17.3205 0
      vertex -60 1.79587 11.6197
      vertex -60 17.3205 0
    endloop
  endfacet
  facet normal -1 -0 0
    outer loop
      vertex -60 1.79587 11.6197
      vertex -60 -17.3205 0
      vertex -60 -9.0231 12.6336
    endloop
  endfacet
  facet normal -1 -0 0
    outer loop
      vertex -60 -9.0231 12.6336
      vertex -60 -17.3205 0
      vertex -60 -17.3205 13.4885
    endloop
  endfacet
  facet normal 0.5 0.866025 -0
    outer loop
      vertex -50 11.547 0
      vertex -53.4874 13.5604 16.855
      vertex -50 11.547 20.9354
    endloop
  endfacet
  facet normal 0.500006 0.866022 1.65505e-06
    outer loop
      vertex -50 11.547 0
      vertex -53.5412 13.5915 16.7971
      vertex -53.4874 13.5604 16.855
    endloop
  endfacet
  facet normal 0.5 0.866026 -1.18755e-07
    outer loop
      vertex -50 11.547 0
      vertex -56.6036 15.3596 13.5361
      vertex -53.5412 13.5915 16.7971
    endloop
  endfacet
  facet normal 0.5 0.866025 1.48702e-07
    outer loop
      vertex -50 11.547 0
      vertex -57.4387 15.8418 12.6492
      vertex -56.6036 15.3596 13.5361
    endloop
  endfacet
  facet normal 0.500012 0.866019 9.20736e-06
    outer loop
      vertex -50 11.547 0
      vertex -57.4535 15.8503 12.6336
      vertex -57.4387 15.8418 12.6492
    endloop
  endfacet
  facet normal 0.5 0.866025 -6.80327e-08
    outer loop
      vertex -50 11.547 0
      vertex -60 17.3205 10.197
      vertex -57.4535 15.8503 12.6336
    endloop
  endfacet
  facet normal 0.5 0.866025 0
    outer loop
      vertex -60 17.3205 10.197
      vertex -50 11.547 0
      vertex -60 17.3205 0
    endloop
  endfacet
  facet normal 0.5 -0.866025 0
    outer loop
      vertex -50 -11.547 0
      vertex -60 -17.3205 13.4885
      vertex -60 -17.3205 0
    endloop
  endfacet
  facet normal 0.5 -0.866026 -4.05747e-07
    outer loop
      vertex -60 -17.3205 13.4885
      vertex -50 -11.547 0
      vertex -59.0921 -16.7963 14.3473
    endloop
  endfacet
  facet normal 0.5 -0.866025 8.43995e-09
    outer loop
      vertex -59.0921 -16.7963 14.3473
      vertex -50 -11.547 0
      vertex -56.464 -15.279 16.855
    endloop
  endfacet
  facet normal 0.5 -0.866025 -6.73279e-08
    outer loop
      vertex -56.464 -15.279 16.855
      vertex -50 -11.547 0
      vertex -54.2863 -14.0217 19.1164
    endloop
  endfacet
  facet normal 0.5 -0.866025 1.23861e-07
    outer loop
      vertex -54.2863 -14.0217 19.1164
      vertex -50 -11.547 0
      vertex -52.019 -12.7127 21.4917
    endloop
  endfacet
  facet normal 0.499999 -0.866026 0
    outer loop
      vertex -52.019 -12.7127 21.4917
      vertex -50 -11.547 0
      vertex -50 -11.547 23.7756
    endloop
  endfacet
  facet normal 0 -1 0
    outer loop
      vertex -11.4675 -60 99.6336
      vertex 17.3205 -60 99.8
      vertex -11.3931 -60 99.8
    endloop
  endfacet
  facet normal 0 -1 0
    outer loop
      vertex -15.5111 -60 90.6958
      vertex 17.3205 -60 99.8
      vertex -11.4675 -60 99.6336
    endloop
  endfacet
  facet normal 0 -1 0
    outer loop
      vertex -15.7395 -60 90.2083
      vertex 17.3205 -60 99.8
      vertex -15.5111 -60 90.6958
    endloop
  endfacet
  facet normal 0 -1 0
    outer loop
      vertex -17.3205 -60 86.8719
      vertex 17.3205 -60 99.8
      vertex -15.7395 -60 90.2083
    endloop
  endfacet
  facet normal 0 -1 0
    outer loop
      vertex 17.3205 -60 0
      vertex -17.3205 -60 86.8719
      vertex -17.3205 -60 0
    endloop
  endfacet
  facet normal 0 -1 0
    outer loop
      vertex -17.3205 -60 86.8719
      vertex 17.3205 -60 0
      vertex 17.3205 -60 99.8
    endloop
  endfacet
  facet normal -0.866025 0.5 0
    outer loop
      vertex -11.547 -50 0
      vertex -14.9348 -55.8678 90.8742
      vertex -11.547 -50 96.9348
    endloop
  endfacet
  facet normal -0.866023 0.500003 2.96268e-07
    outer loop
      vertex -11.547 -50 0
      vertex -15.0353 -56.0419 90.6958
      vertex -14.9348 -55.8678 90.8742
    endloop
  endfacet
  facet normal -0.866025 0.500001 6.39917e-08
    outer loop
      vertex -11.547 -50 0
      vertex -15.4935 -56.8354 89.912
      vertex -15.0353 -56.0419 90.6958
    endloop
  endfacet
  facet normal -0.866025 0.5 0
    outer loop
      vertex -17.3205 -60 86.8719
      vertex -11.547 -50 0
      vertex -17.3205 -60 0
    endloop
  endfacet
  facet normal -0.866026 0.5 -5.71292e-08
    outer loop
      vertex -11.547 -50 0
      vertex -17.3205 -60 86.8719
      vertex -15.4935 -56.8354 89.912
    endloop
  endfacet
  facet normal 0.866025 0.5 0
    outer loop
      vertex 17.3205 -60 99.8
      vertex 11.547 -50 0
      vertex 11.547 -50 99.8
    endloop
  endfacet
  facet normal 0.866025 0.5 0
    outer loop
      vertex 11.547 -50 0
      vertex 17.3205 -60 99.8
      vertex 17.3205 -60 0
    endloop
  endfacet
  facet normal 0 1 0
    outer loop
      vertex 18.1865 39.5 99.8
      vertex -2.17022 39.5 96.8275
      vertex -0.82276 39.5 99.8
    endloop
  endfacet
  facet normal 0 1 0
    outer loop
      vertex 18.1865 39.5 99.8
      vertex -4.97066 39.5 90.6958
      vertex -2.17022 39.5 96.8275
    endloop
  endfacet
  facet normal 0 1 0
    outer loop
      vertex 18.1865 39.5 99.8
      vertex -6.4275 39.5 87.6277
      vertex -4.97066 39.5 90.6958
    endloop
  endfacet
  facet normal 0 1 0
    outer loop
      vertex 18.1865 39.5 99.8
      vertex -9.16389 39.5 81.9069
      vertex -6.4275 39.5 87.6277
    endloop
  endfacet
  facet normal 0 1 0
    outer loop
      vertex 18.1865 39.5 99.8
      vertex -10.687 39.5 78.8516
      vertex -9.16389 39.5 81.9069
    endloop
  endfacet
  facet normal 0 1 0
    outer loop
      vertex 18.1865 39.5 99.8
      vertex -13.3584 39.5 73.5332
      vertex -10.687 39.5 78.8516
    endloop
  endfacet
  facet normal 0 1 -0
    outer loop
      vertex 18.1865 39.5 0
      vertex -13.3584 39.5 73.5332
      vertex 18.1865 39.5 99.8
    endloop
  endfacet
  facet normal 0 1 0
    outer loop
      vertex -13.3584 39.5 73.5332
      vertex 18.1865 39.5 0
      vertex -14.9497 39.5 70.5
    endloop
  endfacet
  facet normal 0 1 0
    outer loop
      vertex -14.9497 39.5 70.5
      vertex 18.1865 39.5 0
      vertex -17.5534 39.5 65.5747
    endloop
  endfacet
  facet normal 0 1 0
    outer loop
      vertex -17.5534 39.5 65.5747
      vertex 18.1865 39.5 0
      vertex -18.1865 39.5 64.4309
    endloop
  endfacet
  facet normal 0 1 0
    outer loop
      vertex -18.1865 39.5 64.4309
      vertex 18.1865 39.5 0
      vertex -18.1865 39.5 0
    endloop
  endfacet
  facet normal 0.866026 -0.499999 0
    outer loop
      vertex -12.3983 49.5255 73.5332
      vertex -12.1244 50 0
      vertex -12.1244 50 73.9881
    endloop
  endfacet
  facet normal 0.866025 -0.5 -7.76386e-09
    outer loop
      vertex -13.6088 47.4289 71.6086
      vertex -12.1244 50 0
      vertex -12.3983 49.5255 73.5332
    endloop
  endfacet
  facet normal 0.866025 -0.5 1.65982e-09
    outer loop
      vertex -17.4283 40.8132 65.5747
      vertex -12.1244 50 0
      vertex -13.6088 47.4289 71.6086
    endloop
  endfacet
  facet normal 0.866025 -0.5 2.03549e-08
    outer loop
      vertex -18.1865 39.5 64.4309
      vertex -12.1244 50 0
      vertex -17.4283 40.8132 65.5747
    endloop
  endfacet
  facet normal 0.866025 -0.5 0
    outer loop
      vertex -12.1244 50 0
      vertex -18.1865 39.5 64.4309
      vertex -18.1865 39.5 0
    endloop
  endfacet
  facet normal -0.866025 -0.5 0
    outer loop
      vertex 18.1865 39.5 0
      vertex 12.1244 50 99.8
      vertex 12.1244 50 0
    endloop
  endfacet
  facet normal -0.866025 -0.5 0
    outer loop
      vertex 12.1244 50 99.8
      vertex 18.1865 39.5 0
      vertex 18.1865 39.5 99.8
    endloop
  endfacet
  facet normal 0 0 1
    outer loop
      vertex 50 50 99.8
      vertex 18.1865 39.5 99.8
      vertex 50 -50 99.8
    endloop
  endfacet
  facet normal 0 -0 1
    outer loop
      vertex 18.1865 39.5 99.8
      vertex 50 50 99.8
      vertex 12.1244 50 99.8
    endloop
  endfacet
  facet normal -0 0 1
    outer loop
      vertex -4.699 -0.302999 99.8
      vertex 50 -50 99.8
      vertex 18.1865 39.5 99.8
    endloop
  endfacet
  facet normal 0 0 1
    outer loop
      vertex -4.699 -0.302999 99.8
      vertex 18.1865 39.5 99.8
      vertex -0.82276 39.5 99.8
    endloop
  endfacet
  facet normal 0 0 1
    outer loop
      vertex 50 -50 99.8
      vertex -4.699 -0.302999 99.8
      vertex -4.769 -0.931 99.8
    endloop
  endfacet
  facet normal 0 0 1
    outer loop
      vertex 50 -50 99.8
      vertex -4.769 -0.931 99.8
      vertex 11.547 -50 99.8
    endloop
  endfacet
  facet normal 0 0 1
    outer loop
      vertex -11.194 -58.393 99.8
      vertex 11.547 -50 99.8
      vertex -4.769 -0.931 99.8
    endloop
  endfacet
  facet normal 0 0 1
    outer loop
      vertex -11.27 -59.006 99.8
      vertex 11.547 -50 99.8
      vertex -11.194 -58.393 99.8
    endloop
  endfacet
  facet normal 0 0 1
    outer loop
      vertex -11.3931 -60 99.8
      vertex 11.547 -50 99.8
      vertex -11.27 -59.006 99.8
    endloop
  endfacet
  facet normal 0 0 1
    outer loop
      vertex 11.547 -50 99.8
      vertex -11.3931 -60 99.8
      vertex 17.3205 -60 99.8
    endloop
  endfacet
  facet normal 0 0 -1
    outer loop
      vertex 17.3205 -60 0
      vertex -11.547 -50 0
      vertex 11.547 -50 0
    endloop
  endfacet
  facet normal 0 -0 -1
    outer loop
      vertex -11.547 -50 0
      vertex 17.3205 -60 0
      vertex -17.3205 -60 0
    endloop
  endfacet
  facet normal 0 0 -1
    outer loop
      vertex 50 -50 0
      vertex 18.1865 39.5 0
      vertex 50 50 0
    endloop
  endfacet
  facet normal 0 0 -1
    outer loop
      vertex 11.547 -50 0
      vertex 18.1865 39.5 0
      vertex 50 -50 0
    endloop
  endfacet
  facet normal 0 0 -1
    outer loop
      vertex -11.547 -50 0
      vertex 18.1865 39.5 0
      vertex 11.547 -50 0
    endloop
  endfacet
  facet normal 0 0 -1
    outer loop
      vertex -11.547 -50 0
      vertex -18.1865 39.5 0
      vertex 18.1865 39.5 0
    endloop
  endfacet
  facet normal 0 0 -1
    outer loop
      vertex -50 -11.547 0
      vertex -11.547 -50 0
      vertex -50 -50 0
    endloop
  endfacet
  facet normal -0 0 -1
    outer loop
      vertex 50 50 0
      vertex 18.1865 39.5 0
      vertex 12.1244 50 0
    endloop
  endfacet
  facet normal 0 0 -1
    outer loop
      vertex -11.547 -50 0
      vertex -50 -11.547 0
      vertex -18.1865 39.5 0
    endloop
  endfacet
  facet normal 0 0 -1
    outer loop
      vertex -50 11.547 0
      vertex -18.1865 39.5 0
      vertex -50 -11.547 0
    endloop
  endfacet
  facet normal 0 0 -1
    outer loop
      vertex -50 50 0
      vertex -18.1865 39.5 0
      vertex -50 11.547 0
    endloop
  endfacet
  facet normal 0 0 -1
    outer loop
      vertex -18.1865 39.5 0
      vertex -50 50 0
      vertex -12.1244 50 0
    endloop
  endfacet
  facet normal 0 0 -1
    outer loop
      vertex -60 -17.3205 0
      vertex -50 11.547 0
      vertex -50 -11.547 0
    endloop
  endfacet
  facet normal -0 0 -1
    outer loop
      vertex -50 11.547 0
      vertex -60 -17.3205 0
      vertex -60 17.3205 0
    endloop
  endfacet
  facet normal -0.905263 0.112235 0.409758
    outer loop
      vertex -11.27 -59.006 99.8
      vertex -11.194 -58.393 99.8
      vertex -15.138 -56.966 90.6958
    endloop
  endfacet
  facet normal -0.905432 0.111342 0.409629
    outer loop
      vertex -15.5111 -60 90.6958
      vertex -11.27 -59.006 99.8
      vertex -15.138 -56.966 90.6958
    endloop
  endfacet
  facet normal -0.905432 0.111342 0.409629
    outer loop
      vertex -11.27 -59.006 99.8
      vertex -15.5111 -60 90.6958
      vertex -11.4675 -60 99.6336
    endloop
  endfacet
  facet normal -0.907075 0.112325 0.405706
    outer loop
      vertex -11.3931 -60 99.8
      vertex -11.27 -59.006 99.8
      vertex -11.4675 -60 99.6336
    endloop
  endfacet
  facet normal -0.905554 0.100937 0.412047
    outer loop
      vertex -4.769 -0.931 99.8
      vertex -4.699 -0.302999 99.8
      vertex -8.718 0.806 90.6958
    endloop
  endfacet
  facet normal -0.905604 0.100637 0.412012
    outer loop
      vertex -14.3639 -50 90.6958
      vertex -4.769 -0.931 99.8
      vertex -8.718 0.806 90.6958
    endloop
  endfacet
  facet normal -0.905604 0.100636 0.412012
    outer loop
      vertex -4.769 -0.931 99.8
      vertex -14.3639 -50 90.6958
      vertex -13.849 -50 91.8276
    endloop
  endfacet
  facet normal -0.905605 0.100637 0.41201
    outer loop
      vertex -14.9348 -55.8678 90.8742
      vertex -15.0353 -56.0419 90.6958
      vertex -15.138 -56.966 90.6958
    endloop
  endfacet
  facet normal -0.906971 0.101411 0.408801
    outer loop
      vertex -11.547 -50 96.9348
      vertex -4.769 -0.931 99.8
      vertex -13.849 -50 91.8276
    endloop
  endfacet
  facet normal -0.906972 0.101411 0.408801
    outer loop
      vertex -11.194 -58.393 99.8
      vertex -14.9348 -55.8678 90.8742
      vertex -15.138 -56.966 90.6958
    endloop
  endfacet
  facet normal -0.906972 0.101411 0.408801
    outer loop
      vertex -11.547 -50 96.9348
      vertex -11.194 -58.393 99.8
      vertex -4.769 -0.931 99.8
    endloop
  endfacet
  facet normal -0.906971 0.101411 0.408801
    outer loop
      vertex -14.9348 -55.8678 90.8742
      vertex -11.194 -58.393 99.8
      vertex -11.547 -50 96.9348
    endloop
  endfacet
  facet normal -0.906112 0.0877529 0.413836
    outer loop
      vertex -2.17022 39.5 96.8275
      vertex -4.97066 39.5 90.6958
      vertex -8.718 0.806 90.6958
    endloop
  endfacet
  facet normal -0.907229 0.0883511 0.411254
    outer loop
      vertex -4.699 -0.302999 99.8
      vertex -2.17022 39.5 96.8275
      vertex -8.718 0.806 90.6958
    endloop
  endfacet
  facet normal -0.907229 0.0883511 0.411253
    outer loop
      vertex -2.17022 39.5 96.8275
      vertex -4.699 -0.302999 99.8
      vertex -0.82276 39.5 99.8
    endloop
  endfacet
  facet normal -0.898222 0.109682 0.425638
    outer loop
      vertex -15.7395 -60 90.2083
      vertex -15.4935 -56.8354 89.912
      vertex -17.3205 -60 86.8719
    endloop
  endfacet
  facet normal -0.898221 0.109683 0.425639
    outer loop
      vertex -15.4935 -56.8354 89.912
      vertex -15.7395 -60 90.2083
      vertex -15.138 -56.966 90.6958
    endloop
  endfacet
  facet normal -0.899978 0.110671 0.421653
    outer loop
      vertex -15.5111 -60 90.6958
      vertex -15.138 -56.966 90.6958
      vertex -15.7395 -60 90.2083
    endloop
  endfacet
  facet normal -0.898271 0.0991842 0.428102
    outer loop
      vertex -18.1072 -50 82.7657
      vertex -12.781 1.944 81.9069
      vertex -18.5165 -50 81.9069
    endloop
  endfacet
  facet normal -0.898271 0.0991842 0.428102
    outer loop
      vertex -12.781 1.944 81.9069
      vertex -18.1072 -50 82.7657
      vertex -8.718 0.806 90.6958
    endloop
  endfacet
  facet normal -0.899781 0.0999895 0.424731
    outer loop
      vertex -15.138 -56.966 90.6958
      vertex -15.0353 -56.0419 90.6958
      vertex -15.4935 -56.8354 89.912
    endloop
  endfacet
  facet normal -0.899781 0.0999895 0.42473
    outer loop
      vertex -14.3639 -50 90.6958
      vertex -8.718 0.806 90.6958
      vertex -18.1072 -50 82.7657
    endloop
  endfacet
  facet normal -0.898725 0.0865584 0.429884
    outer loop
      vertex -6.4275 39.5 87.6277
      vertex -9.16389 39.5 81.9069
      vertex -12.781 1.944 81.9069
    endloop
  endfacet
  facet normal -0.899901 0.0871513 0.427297
    outer loop
      vertex -8.718 0.806 90.6958
      vertex -6.4275 39.5 87.6277
      vertex -12.781 1.944 81.9069
    endloop
  endfacet
  facet normal -0.899901 0.0871513 0.427298
    outer loop
      vertex -6.4275 39.5 87.6277
      vertex -8.718 0.806 90.6958
      vertex -4.97066 39.5 90.6958
    endloop
  endfacet
  facet normal -0.890023 0.0976362 0.445339
    outer loop
      vertex -22.3684 -50 74.1344
      vertex -16.844 3.101 73.5332
      vertex -22.6692 -50 73.5332
    endloop
  endfacet
  facet normal -0.890023 0.0976362 0.445338
    outer loop
      vertex -16.844 3.101 73.5332
      vertex -22.3684 -50 74.1344
      vertex -12.781 1.944 81.9069
    endloop
  endfacet
  facet normal -0.891652 0.0984533 0.441887
    outer loop
      vertex -18.5165 -50 81.9069
      vertex -12.781 1.944 81.9069
      vertex -22.3684 -50 74.1344
    endloop
  endfacet
  facet normal -0.890355 0.0852621 0.447212
    outer loop
      vertex -10.687 39.5 78.8516
      vertex -13.3584 39.5 73.5332
      vertex -16.844 3.101 73.5332
    endloop
  endfacet
  facet normal -0.890354 0.085262 0.447213
    outer loop
      vertex -12.1244 50 73.9881
      vertex -12.3529 50 73.5332
      vertex -12.3983 49.5255 73.5332
    endloop
  endfacet
  facet normal -0.891651 0.085877 0.444504
    outer loop
      vertex -16.844 3.101 73.5332
      vertex -9.16389 39.5 81.9069
      vertex -10.687 39.5 78.8516
    endloop
  endfacet
  facet normal -0.891651 0.085877 0.444504
    outer loop
      vertex -9.16389 39.5 81.9069
      vertex -16.844 3.101 73.5332
      vertex -12.781 1.944 81.9069
    endloop
  endfacet
  facet normal -0.880727 0.0959992 0.463793
    outer loop
      vertex -26.823 -50 65.5747
      vertex -16.844 3.101 73.5332
      vertex -20.907 4.275 65.5747
    endloop
  endfacet
  facet normal -0.880728 0.0959998 0.463791
    outer loop
      vertex -16.844 3.101 73.5332
      vertex -26.823 -50 65.5747
      vertex -26.6335 -50 65.9345
    endloop
  endfacet
  facet normal -0.882433 0.0968036 0.46037
    outer loop
      vertex -22.6692 -50 73.5332
      vertex -16.844 3.101 73.5332
      vertex -26.6335 -50 65.9345
    endloop
  endfacet
  facet normal -0.88096 0.0838726 0.465698
    outer loop
      vertex -14.9497 39.5 70.5
      vertex -17.5534 39.5 65.5747
      vertex -20.907 4.275 65.5747
    endloop
  endfacet
  facet normal -0.88096 0.0838728 0.465699
    outer loop
      vertex -16.5537 50 65.5747
      vertex -13.6088 47.4289 71.6086
      vertex -13.174 50 71.9681
    endloop
  endfacet
  facet normal -0.88096 0.0838726 0.465698
    outer loop
      vertex -13.6088 47.4289 71.6086
      vertex -16.5537 50 65.5747
      vertex -17.4283 40.8132 65.5747
    endloop
  endfacet
  facet normal -0.882359 0.0844964 0.462929
    outer loop
      vertex -20.907 4.275 65.5747
      vertex -13.3584 39.5 73.5332
      vertex -14.9497 39.5 70.5
    endloop
  endfacet
  facet normal -0.882359 0.0844964 0.462929
    outer loop
      vertex -13.3584 39.5 73.5332
      vertex -20.907 4.275 65.5747
      vertex -16.844 3.101 73.5332
    endloop
  endfacet
  facet normal -0.88236 0.0844964 0.462927
    outer loop
      vertex -13.174 50 71.9681
      vertex -12.3983 49.5255 73.5332
      vertex -12.3529 50 73.5332
    endloop
  endfacet
  facet normal -0.88236 0.084497 0.462928
    outer loop
      vertex -12.3983 49.5255 73.5332
      vertex -13.174 50 71.9681
      vertex -13.6088 47.4289 71.6086
    endloop
  endfacet
  facet normal -0.870246 0.0942447 0.483519
    outer loop
      vertex -30.9759 -50 58.0315
      vertex -20.907 4.275 65.5747
      vertex -24.969 5.467 58.0315
    endloop
  endfacet
  facet normal -0.870245 0.0942444 0.48352
    outer loop
      vertex -20.907 4.275 65.5747
      vertex -30.9759 -50 58.0315
      vertex -30.9009 -50 58.1665
    endloop
  endfacet
  facet normal -0.872079 0.0950566 0.480044
    outer loop
      vertex -26.823 -50 65.5747
      vertex -20.907 4.275 65.5747
      vertex -30.9009 -50 58.1665
    endloop
  endfacet
  facet normal -0.870378 0.0823778 0.485444
    outer loop
      vertex -17.4396 50 63.9744
      vertex -20.7541 50 58.0315
      vertex -24.969 5.467 58.0315
    endloop
  endfacet
  facet normal -0.871884 0.0830085 0.482625
    outer loop
      vertex -17.4396 50 63.9744
      vertex -17.4283 40.8132 65.5747
      vertex -16.5537 50 65.5747
    endloop
  endfacet
  facet normal -0.871885 0.0830085 0.482625
    outer loop
      vertex -17.4396 50 63.9744
      vertex -18.1865 39.5 64.4309
      vertex -17.4283 40.8132 65.5747
    endloop
  endfacet
  facet normal -0.871884 0.0830085 0.482626
    outer loop
      vertex -24.969 5.467 58.0315
      vertex -18.1865 39.5 64.4309
      vertex -17.4396 50 63.9744
    endloop
  endfacet
  facet normal -0.871884 0.0830086 0.482626
    outer loop
      vertex -20.907 4.275 65.5747
      vertex -18.1865 39.5 64.4309
      vertex -24.969 5.467 58.0315
    endloop
  endfacet
  facet normal -0.871885 0.0830086 0.482625
    outer loop
      vertex -18.1865 39.5 64.4309
      vertex -20.907 4.275 65.5747
      vertex -17.5534 39.5 65.5747
    endloop
  endfacet
  facet normal -0.858646 0.101834 0.502351
    outer loop
      vertex -33.6352 -50 53.4687
      vertex -35.07 -49.444 50.9035
      vertex -35.1359 -50 50.9035
    endloop
  endfacet
  facet normal -0.858239 0.0923371 0.504876
    outer loop
      vertex -24.969 5.467 58.0315
      vertex -29.032 6.677 50.9035
      vertex -35.07 -49.444 50.9035
    endloop
  endfacet
  facet normal -0.860216 0.0931537 0.501348
    outer loop
      vertex -30.9759 -50 58.0315
      vertex -35.07 -49.444 50.9035
      vertex -33.6352 -50 53.4687
    endloop
  endfacet
  facet normal -0.860216 0.0931585 0.501348
    outer loop
      vertex -35.07 -49.444 50.9035
      vertex -30.9759 -50 58.0315
      vertex -24.969 5.467 58.0315
    endloop
  endfacet
  facet normal -0.858273 0.0807508 0.5068
    outer loop
      vertex -21.7073 50 56.4051
      vertex -24.9559 50 50.9035
      vertex -29.032 6.677 50.9035
    endloop
  endfacet
  facet normal -0.859887 0.0813849 0.503955
    outer loop
      vertex -29.032 6.677 50.9035
      vertex -20.7541 50 58.0315
      vertex -21.7073 50 56.4051
    endloop
  endfacet
  facet normal -0.859887 0.0813848 0.503955
    outer loop
      vertex -20.7541 50 58.0315
      vertex -29.032 6.677 50.9035
      vertex -24.969 5.467 58.0315
    endloop
  endfacet
  facet normal -0.845209 0.099504 0.525091
    outer loop
      vertex -39.3058 -50 44.1907
      vertex -35.07 -49.444 50.9035
      vertex -39.056 -47.878 44.1907
    endloop
  endfacet
  facet normal -0.845209 0.0995051 0.52509
    outer loop
      vertex -35.07 -49.444 50.9035
      vertex -39.3058 -50 44.1907
      vertex -35.1791 -50 50.8333
    endloop
  endfacet
  facet normal -0.84773 0.10054 0.520812
    outer loop
      vertex -35.1359 -50 50.9035
      vertex -35.07 -49.444 50.9035
      vertex -35.1791 -50 50.8333
    endloop
  endfacet
  facet normal -0.844609 0.0902554 0.527721
    outer loop
      vertex -29.032 6.677 50.9035
      vertex -33.095 7.905 44.1907
      vertex -39.056 -47.878 44.1907
    endloop
  endfacet
  facet normal -0.846789 0.0911051 0.524069
    outer loop
      vertex -35.07 -49.444 50.9035
      vertex -29.032 6.677 50.9035
      vertex -39.056 -47.878 44.1907
    endloop
  endfacet
  facet normal -0.844527 0.0789804 0.529657
    outer loop
      vertex -25.9783 50 49.261
      vertex -29.1583 50 44.1907
      vertex -33.095 7.905 44.1907
    endloop
  endfacet
  facet normal -0.846266 0.0796211 0.526778
    outer loop
      vertex -33.095 7.905 44.1907
      vertex -24.9559 50 50.9035
      vertex -25.9783 50 49.261
    endloop
  endfacet
  facet normal -0.846266 0.0796211 0.526778
    outer loop
      vertex -24.9559 50 50.9035
      vertex -33.095 7.905 44.1907
      vertex -29.032 6.677 50.9035
    endloop
  endfacet
  facet normal -0.829715 0.0969397 0.549705
    outer loop
      vertex -43.4762 -50 37.8931
      vertex -39.056 -47.878 44.1907
      vertex -43.043 -46.292 37.8931
    endloop
  endfacet
  facet normal -0.829715 0.0969395 0.549705
    outer loop
      vertex -39.056 -47.878 44.1907
      vertex -43.4762 -50 37.8931
      vertex -39.4714 -50 43.9379
    endloop
  endfacet
  facet normal -0.832488 0.0980063 0.545306
    outer loop
      vertex -39.3058 -50 44.1907
      vertex -39.056 -47.878 44.1907
      vertex -39.4714 -50 43.9379
    endloop
  endfacet
  facet normal -0.82902 0.0879979 0.552252
    outer loop
      vertex -33.095 7.905 44.1907
      vertex -37.158 9.15 37.8931
      vertex -43.043 -46.292 37.8931
    endloop
  endfacet
  facet normal -0.831306 0.0888338 0.54867
    outer loop
      vertex -39.056 -47.878 44.1907
      vertex -33.095 7.905 44.1907
      vertex -43.043 -46.292 37.8931
    endloop
  endfacet
  facet normal -0.82881 0.0770372 0.554202
    outer loop
      vertex -30.2521 50 42.5425
      vertex -33.361 50 37.8931
      vertex -37.158 9.15 37.8931
    endloop
  endfacet
  facet normal -0.830689 0.0776862 0.551291
    outer loop
      vertex -37.158 9.15 37.8931
      vertex -29.1583 50 44.1907
      vertex -30.2521 50 42.5425
    endloop
  endfacet
  facet normal -0.830689 0.0776862 0.551291
    outer loop
      vertex -29.1583 50 44.1907
      vertex -37.158 9.15 37.8931
      vertex -33.095 7.905 44.1907
    endloop
  endfacet
  facet normal -0.812035 0.0941445 0.575966
    outer loop
      vertex -47.6452 -50 32.0107
      vertex -43.043 -46.292 37.8931
      vertex -47.029 -44.685 32.0107
    endloop
  endfacet
  facet normal -0.812035 0.0941444 0.575966
    outer loop
      vertex -43.043 -46.292 37.8931
      vertex -47.6452 -50 32.0107
      vertex -43.7673 -50 37.478
    endloop
  endfacet
  facet normal -0.815026 0.0952235 0.571546
    outer loop
      vertex -43.4762 -50 37.8931
      vertex -43.043 -46.292 37.8931
      vertex -43.7673 -50 37.478
    endloop
  endfacet
  facet normal -0.811117 0.0855016 0.5786
    outer loop
      vertex -37.158 9.15 37.8931
      vertex -41.221 10.413 32.0107
      vertex -47.029 -44.685 32.0107
    endloop
  endfacet
  facet normal -0.813635 0.0863649 0.574925
    outer loop
      vertex -43.043 -46.292 37.8931
      vertex -37.158 9.15 37.8931
      vertex -47.029 -44.685 32.0107
    endloop
  endfacet
  facet normal -0.810845 0.0749166 0.580446
    outer loop
      vertex -34.5286 50 36.2501
      vertex -37.5634 50 32.0107
      vertex -41.221 10.413 32.0107
    endloop
  endfacet
  facet normal -0.8128 0.0755493 0.577624
    outer loop
      vertex -41.221 10.413 32.0107
      vertex -33.361 50 37.8931
      vertex -34.5286 50 36.2501
    endloop
  endfacet
  facet normal -0.812799 0.075549 0.577625
    outer loop
      vertex -33.361 50 37.8931
      vertex -41.221 10.413 32.0107
      vertex -37.158 9.15 37.8931
    endloop
  endfacet
  facet normal -0.791516 0.0910536 0.604327
    outer loop
      vertex -50 -50 28.9202
      vertex -47.029 -44.685 32.0107
      vertex -50 -43.4726 27.9368
    endloop
  endfacet
  facet normal -0.791516 0.0910528 0.604328
    outer loop
      vertex -47.029 -44.685 32.0107
      vertex -50 -50 28.9202
      vertex -48.0652 -50 31.4544
    endloop
  endfacet
  facet normal -0.794722 0.0921374 0.599939
    outer loop
      vertex -47.6452 -50 32.0107
      vertex -47.029 -44.685 32.0107
      vertex -48.0652 -50 31.4544
    endloop
  endfacet
  facet normal -0.790482 0.0827542 0.606869
    outer loop
      vertex -50 -33.353 26.5436
      vertex -41.221 10.413 32.0107
      vertex -45.284 11.695 26.5436
    endloop
  endfacet
  facet normal -0.790482 0.0827543 0.606869
    outer loop
      vertex -41.221 10.413 32.0107
      vertex -50 -33.353 26.5436
      vertex -50 -37.5116 27.1107
    endloop
  endfacet
  facet normal -0.79313 0.0836054 0.603287
    outer loop
      vertex -47.029 -44.685 32.0107
      vertex -50 -37.5116 27.1107
      vertex -50 -43.4726 27.9368
    endloop
  endfacet
  facet normal -0.793129 0.0836055 0.603287
    outer loop
      vertex -50 -37.5116 27.1107
      vertex -47.029 -44.685 32.0107
      vertex -41.221 10.413 32.0107
    endloop
  endfacet
  facet normal -0.790022 0.0725382 0.608772
    outer loop
      vertex -38.8072 50 30.3845
      vertex -41.7669 50 26.5436
      vertex -45.284 11.695 26.5436
    endloop
  endfacet
  facet normal -0.792177 0.0731918 0.605887
    outer loop
      vertex -45.284 11.695 26.5436
      vertex -37.5634 50 32.0107
      vertex -38.8072 50 30.3845
    endloop
  endfacet
  facet normal -0.792177 0.0731917 0.605887
    outer loop
      vertex -37.5634 50 32.0107
      vertex -45.284 11.695 26.5436
      vertex -41.221 10.413 32.0107
    endloop
  endfacet
  facet normal -0.766672 0.0796929 0.637073
    outer loop
      vertex -49.347 12.993 21.4917
      vertex -50 -11.547 23.7756
      vertex -45.284 11.695 26.5436
    endloop
  endfacet
  facet normal -0.766672 0.0796929 0.637074
    outer loop
      vertex -50 -11.547 23.7756
      vertex -49.347 12.993 21.4917
      vertex -52.019 -12.7127 21.4917
    endloop
  endfacet
  facet normal -0.766673 0.079693 0.637073
    outer loop
      vertex -45.284 11.695 26.5436
      vertex -50 -11.547 23.7756
      vertex -50 -14.0761 24.092
    endloop
  endfacet
  facet normal -0.76956 0.080564 0.633472
    outer loop
      vertex -45.284 11.695 26.5436
      vertex -50 -14.0761 24.092
      vertex -50 -33.353 26.5436
    endloop
  endfacet
  facet normal -0.766064 0.0698928 0.638954
    outer loop
      vertex -43.0891 50 24.9464
      vertex -45.9706 50 21.4917
      vertex -49.347 12.993 21.4917
    endloop
  endfacet
  facet normal -0.768378 0.0705509 0.636096
    outer loop
      vertex -49.347 12.993 21.4917
      vertex -41.7669 50 26.5436
      vertex -43.0891 50 24.9464
    endloop
  endfacet
  facet normal -0.768378 0.0705509 0.636096
    outer loop
      vertex -41.7669 50 26.5436
      vertex -49.347 12.993 21.4917
      vertex -45.284 11.695 26.5436
    endloop
  endfacet
  facet normal -0.739072 0.0762835 0.669294
    outer loop
      vertex -53.4874 13.5604 16.855
      vertex -54.2863 -14.0217 19.1164
      vertex -50 11.547 20.9354
    endloop
  endfacet
  facet normal -0.739071 0.0762835 0.669294
    outer loop
      vertex -54.2863 -14.0217 19.1164
      vertex -53.4874 13.5604 16.855
      vertex -56.464 -15.279 16.855
    endloop
  endfacet
  facet normal -0.739072 0.0762837 0.669293
    outer loop
      vertex -50 11.547 20.9354
      vertex -49.347 12.993 21.4917
      vertex -50 13.2047 20.7465
    endloop
  endfacet
  facet normal -0.739072 0.0762835 0.669293
    outer loop
      vertex -49.347 12.993 21.4917
      vertex -50 11.547 20.9354
      vertex -54.2863 -14.0217 19.1164
    endloop
  endfacet
  facet normal -0.742086 0.0771372 0.665852
    outer loop
      vertex -52.019 -12.7127 21.4917
      vertex -49.347 12.993 21.4917
      vertex -54.2863 -14.0217 19.1164
    endloop
  endfacet
  facet normal -0.738328 0.0669303 0.671112
    outer loop
      vertex -47.3738 50 19.9363
      vertex -50 50 17.0472
      vertex -50 34.4723 18.5957
    endloop
  endfacet
  facet normal -0.740789 0.0675869 0.668329
    outer loop
      vertex -50 34.4723 18.5957
      vertex -45.9706 50 21.4917
      vertex -47.3738 50 19.9363
    endloop
  endfacet
  facet normal -0.74079 0.0675868 0.668328
    outer loop
      vertex -49.347 12.993 21.4917
      vertex -50 34.4723 18.5957
      vertex -50 13.2047 20.7465
    endloop
  endfacet
  facet normal -0.740789 0.0675869 0.668329
    outer loop
      vertex -50 34.4723 18.5957
      vertex -49.347 12.993 21.4917
      vertex -45.9706 50 21.4917
    endloop
  endfacet
  facet normal -0.707139 0.072462 0.703352
    outer loop
      vertex -57.472 15.645 12.6336
      vertex -53.5412 13.5915 16.7971
      vertex -56.6036 15.3596 13.5361
    endloop
  endfacet
  facet normal -0.707137 0.0724677 0.703353
    outer loop
      vertex -60 -9.0231 12.6336
      vertex -53.5412 13.5915 16.7971
      vertex -57.472 15.645 12.6336
    endloop
  endfacet
  facet normal -0.707137 0.0724678 0.703353
    outer loop
      vertex -60 -9.0231 12.6336
      vertex -59.0921 -16.7963 14.3473
      vertex -53.5412 13.5915 16.7971
    endloop
  endfacet
  facet normal -0.707137 0.0724678 0.703353
    outer loop
      vertex -59.0921 -16.7963 14.3473
      vertex -60 -9.0231 12.6336
      vertex -60 -17.3205 13.4885
    endloop
  endfacet
  facet normal -0.71033 0.073317 0.70004
    outer loop
      vertex -53.5412 13.5915 16.7971
      vertex -56.464 -15.279 16.855
      vertex -53.4874 13.5604 16.855
    endloop
  endfacet
  facet normal -0.710323 0.0733163 0.700047
    outer loop
      vertex -56.464 -15.279 16.855
      vertex -53.5412 13.5915 16.7971
      vertex -59.0921 -16.7963 14.3473
    endloop
  endfacet
  facet normal -0.70627 0.063611 0.705079
    outer loop
      vertex -57.4387 15.8418 12.6492
      vertex -57.4535 15.8503 12.6336
      vertex -57.472 15.645 12.6336
    endloop
  endfacet
  facet normal -0.708861 0.0642602 0.702415
    outer loop
      vertex -56.6036 15.3596 13.5361
      vertex -57.4387 15.8418 12.6492
      vertex -57.472 15.645 12.6336
    endloop
  endfacet
  facet normal -0.673246 0.0689946 0.736193
    outer loop
      vertex -57.472 15.645 12.6336
      vertex -60 1.79587 11.6197
      vertex -60 -9.0231 12.6336
    endloop
  endfacet
  facet normal -0.66991 0.0681577 0.739307
    outer loop
      vertex -57.472 15.645 12.6336
      vertex -60 16.4862 10.2653
      vertex -60 1.79587 11.6197
    endloop
  endfacet
  facet normal -0.671627 0.0604876 0.738416
    outer loop
      vertex -60 16.4862 10.2653
      vertex -57.4535 15.8503 12.6336
      vertex -60 17.3205 10.197
    endloop
  endfacet
  facet normal -0.671627 0.0604908 0.738416
    outer loop
      vertex -57.4535 15.8503 12.6336
      vertex -60 16.4862 10.2653
      vertex -57.472 15.645 12.6336
    endloop
  endfacet
endsolid OpenSCAD_Model
