solid OpenSCAD_Model
  facet normal -1 0 0
    outer loop
      vertex -50 -11.547 0
      vertex -50 -13.8533 6.40247
      vertex -50 -11.547 6.42918
    endloop
  endfacet
  facet normal -1 0 0
    outer loop
      vertex -50 -11.547 0
      vertex -50 -31.9907 6.58525
      vertex -50 -13.8533 6.40247
    endloop
  endfacet
  facet normal -1 0 0
    outer loop
      vertex -50 -50 0
      vertex -50 -31.9907 6.58525
      vertex -50 -11.547 0
    endloop
  endfacet
  facet normal -1 -0 0
    outer loop
      vertex -50 -31.9907 6.58525
      vertex -50 -50 0
      vertex -50 -50 6.7662
    endloop
  endfacet
  facet normal -1 0 0
    outer loop
      vertex -50 50 0
      vertex -50 39.1575 7.01753
      vertex -50 50 7.4072
    endloop
  endfacet
  facet normal -1 0 0
    outer loop
      vertex -50 11.547 0
      vertex -50 39.1575 7.01753
      vertex -50 50 0
    endloop
  endfacet
  facet normal -1 0 0
    outer loop
      vertex -50 39.1575 7.01753
      vertex -50 11.547 0
      vertex -50 18.1122 6.77267
    endloop
  endfacet
  facet normal -1 0 0
    outer loop
      vertex -50 18.1122 6.77267
      vertex -50 11.547 0
      vertex -50 11.547 6.69664
    endloop
  endfacet
  facet normal 1 -0 0
    outer loop
      vertex 50 -50 99.8
      vertex 50 50 0
      vertex 50 50 99.8
    endloop
  endfacet
  facet normal 1 0 0
    outer loop
      vertex 50 50 0
      vertex 50 -50 99.8
      vertex 50 -50 0
    endloop
  endfacet
  facet normal 0 1 -0
    outer loop
      vertex 50 50 0
      vertex 12.1244 50 99.8
      vertex 50 50 99.8
    endloop
  endfacet
  facet normal 0 1 0
    outer loop
      vertex 12.1244 50 99.8
      vertex 50 50 0
      vertex 12.1244 50 0
    endloop
  endfacet
  facet normal 0 1 -0
    outer loop
      vertex -12.1244 50 0
      vertex -13.4568 50 51.198
      vertex -12.1244 50 53.4166
    endloop
  endfacet
  facet normal 0 1 0
    outer loop
      vertex -12.1244 50 0
      vertex -13.6338 50 50.9035
      vertex -13.4568 50 51.198
    endloop
  endfacet
  facet normal 0 1 0
    outer loop
      vertex -12.1244 50 0
      vertex -17.8561 50 44.2823
      vertex -13.6338 50 50.9035
    endloop
  endfacet
  facet normal 0 1 0
    outer loop
      vertex -12.1244 50 0
      vertex -17.9145 50 44.1907
      vertex -17.8561 50 44.2823
    endloop
  endfacet
  facet normal 0 1 0
    outer loop
      vertex -12.1244 50 0
      vertex -20.0035 50 41.1181
      vertex -17.9145 50 44.1907
    endloop
  endfacet
  facet normal 0 1 0
    outer loop
      vertex -12.1244 50 0
      vertex -22.2215 50 37.8931
      vertex -20.0035 50 41.1181
    endloop
  endfacet
  facet normal 0 1 0
    outer loop
      vertex -12.1244 50 0
      vertex -22.286 50 37.8053
      vertex -22.2215 50 37.8931
    endloop
  endfacet
  facet normal 0 1 0
    outer loop
      vertex -12.1244 50 0
      vertex -26.5512 50 32.0107
      vertex -22.286 50 37.8053
    endloop
  endfacet
  facet normal 0 1 0
    outer loop
      vertex -12.1244 50 0
      vertex -26.7431 50 31.7679
      vertex -26.5512 50 32.0107
    endloop
  endfacet
  facet normal 0 1 0
    outer loop
      vertex -12.1244 50 0
      vertex -30.881 50 26.5436
      vertex -26.7431 50 31.7679
    endloop
  endfacet
  facet normal 0 1 0
    outer loop
      vertex -12.1244 50 0
      vertex -31.2024 50 26.1678
      vertex -30.881 50 26.5436
    endloop
  endfacet
  facet normal 0 1 0
    outer loop
      vertex -12.1244 50 0
      vertex -35.2091 50 21.4917
      vertex -31.2024 50 26.1678
    endloop
  endfacet
  facet normal 0 1 0
    outer loop
      vertex -12.1244 50 0
      vertex -35.6621 50 21.0055
      vertex -35.2091 50 21.4917
    endloop
  endfacet
  facet normal 0 1 0
    outer loop
      vertex -12.1244 50 0
      vertex -39.5364 50 16.855
      vertex -35.6621 50 21.0055
    endloop
  endfacet
  facet normal 0 1 0
    outer loop
      vertex -12.1244 50 0
      vertex -40.1233 50 16.2814
      vertex -39.5364 50 16.855
    endloop
  endfacet
  facet normal 0 1 0
    outer loop
      vertex -12.1244 50 0
      vertex -43.8638 50 12.6336
      vertex -40.1233 50 16.2814
    endloop
  endfacet
  facet normal 0 1 0
    outer loop
      vertex -50 50 0
      vertex -43.8638 50 12.6336
      vertex -12.1244 50 0
    endloop
  endfacet
  facet normal 0 1 0
    outer loop
      vertex -43.8638 50 12.6336
      vertex -50 50 0
      vertex -44.5871 50 11.9963
    endloop
  endfacet
  facet normal 0 1 0
    outer loop
      vertex -44.5871 50 11.9963
      vertex -50 50 0
      vertex -48.1897 50 8.82734
    endloop
  endfacet
  facet normal 0 1 0
    outer loop
      vertex -48.1897 50 8.82734
      vertex -50 50 0
      vertex -49.0515 50 8.15064
    endloop
  endfacet
  facet normal 0 1 0
    outer loop
      vertex -49.0515 50 8.15064
      vertex -50 50 0
      vertex -50 50 7.4072
    endloop
  endfacet
  facet normal 0 -1 0
    outer loop
      vertex 11.547 -50 98.6498
      vertex 50 -50 99.8
      vertex 12.0786 -50 99.8
    endloop
  endfacet
  facet normal 0 -1 0
    outer loop
      vertex 50 -50 0
      vertex 11.547 -50 98.6498
      vertex 11.547 -50 0
    endloop
  endfacet
  facet normal 0 -1 0
    outer loop
      vertex 11.547 -50 98.6498
      vertex 50 -50 0
      vertex 50 -50 99.8
    endloop
  endfacet
  facet normal 0 -1 0
    outer loop
      vertex -11.547 -50 0
      vertex -14.3568 -50 49.3747
      vertex -17.6399 -50 44.1907
    endloop
  endfacet
  facet normal 0 -1 0
    outer loop
      vertex -11.547 -50 0
      vertex -18.6572 -50 42.6852
      vertex -21.893 -50 37.8931
    endloop
  endfacet
  facet normal 0 -1 0
    outer loop
      vertex -11.547 -50 0
      vertex -22.9584 -50 36.4201
      vertex -26.1461 -50 32.0107
    endloop
  endfacet
  facet normal 0 -1 0
    outer loop
      vertex -11.547 -50 0
      vertex -27.2603 -50 30.5794
      vertex -30.3996 -50 26.5436
    endloop
  endfacet
  facet normal 0 -1 0
    outer loop
      vertex -11.547 -50 0
      vertex -31.5623 -50 25.1632
      vertex -34.6523 -50 21.4917
    endloop
  endfacet
  facet normal 0 -1 0
    outer loop
      vertex -11.547 -50 0
      vertex -35.864 -50 20.1714
      vertex -38.9059 -50 16.855
    endloop
  endfacet
  facet normal 0 -1 0
    outer loop
      vertex -11.547 -50 0
      vertex -40.1671 -50 15.6042
      vertex -43.16 -50 12.6336
    endloop
  endfacet
  facet normal 0 -1 0
    outer loop
      vertex -50 -50 0
      vertex -44.4703 -50 11.4617
      vertex -47.414 -50 8.82734
    endloop
  endfacet
  facet normal 0 -1 0
    outer loop
      vertex -50 -50 0
      vertex -48.7739 -50 7.74373
      vertex -50 -50 6.7662
    endloop
  endfacet
  facet normal 0 -1 -0
    outer loop
      vertex -48.7739 -50 7.74373
      vertex -50 -50 0
      vertex -47.414 -50 8.82734
    endloop
  endfacet
  facet normal 0 -1 -0
    outer loop
      vertex -44.4703 -50 11.4617
      vertex -50 -50 0
      vertex -43.16 -50 12.6336
    endloop
  endfacet
  facet normal 0 -1 0
    outer loop
      vertex -11.547 -50 0
      vertex -43.16 -50 12.6336
      vertex -50 -50 0
    endloop
  endfacet
  facet normal 0 -1 0
    outer loop
      vertex -40.1671 -50 15.6042
      vertex -11.547 -50 0
      vertex -38.9059 -50 16.855
    endloop
  endfacet
  facet normal 0 -1 0
    outer loop
      vertex -35.864 -50 20.1714
      vertex -11.547 -50 0
      vertex -34.6523 -50 21.4917
    endloop
  endfacet
  facet normal 0 -1 0
    outer loop
      vertex -31.5623 -50 25.1632
      vertex -11.547 -50 0
      vertex -30.3996 -50 26.5436
    endloop
  endfacet
  facet normal 0 -1 0
    outer loop
      vertex -13.3879 -50 50.9035
      vertex -11.547 -50 0
      vertex -11.547 -50 53.9895
    endloop
  endfacet
  facet normal 0 -1 0
    outer loop
      vertex -14.3568 -50 49.3747
      vertex -11.547 -50 0
      vertex -13.3879 -50 50.9035
    endloop
  endfacet
  facet normal 0 -1 0
    outer loop
      vertex -18.6572 -50 42.6852
      vertex -11.547 -50 0
      vertex -17.6399 -50 44.1907
    endloop
  endfacet
  facet normal 0 -1 0
    outer loop
      vertex -22.9584 -50 36.4201
      vertex -11.547 -50 0
      vertex -21.893 -50 37.8931
    endloop
  endfacet
  facet normal 0 -1 0
    outer loop
      vertex -27.2603 -50 30.5794
      vertex -11.547 -50 0
      vertex -26.1461 -50 32.0107
    endloop
  endfacet
  facet normal -1 0 0
    outer loop
      vertex -60 17.3205 0
      vertex -60 12.5159 0
      vertex -60 17.3205 0.0416986
    endloop
  endfacet
  facet normal 0.5 0.866025 -0
    outer loop
      vertex -50 11.547 0
      vertex -51.6051 12.4737 5.43633
      vertex -50 11.547 6.69664
    endloop
  endfacet
  facet normal 0.5 0.866026 -1.5716e-07
    outer loop
      vertex -50 11.547 0
      vertex -53.969 13.8385 3.80666
      vertex -51.6051 12.4737 5.43633
    endloop
  endfacet
  facet normal 0.5 0.866025 2.01047e-07
    outer loop
      vertex -50 11.547 0
      vertex -55.9229 14.9666 2.46055
      vertex -53.969 13.8385 3.80666
    endloop
  endfacet
  facet normal 0.5 0.866025 6.8137e-08
    outer loop
      vertex -50 11.547 0
      vertex -58.623 16.5255 0.85832
      vertex -55.9229 14.9666 2.46055
    endloop
  endfacet
  facet normal 0.5 0.866025 -1.0625e-06
    outer loop
      vertex -60 17.3205 0
      vertex -58.623 16.5255 0.85832
      vertex -50 11.547 0
    endloop
  endfacet
  facet normal 0.499999 0.866026 0
    outer loop
      vertex -58.623 16.5255 0.85832
      vertex -60 17.3205 0
      vertex -60 17.3205 0.0416986
    endloop
  endfacet
  facet normal 0.5 -0.866025 0
    outer loop
      vertex -51.2433 -12.2648 5.43633
      vertex -50 -11.547 0
      vertex -50 -11.547 6.42918
    endloop
  endfacet
  facet normal 0.499995 -0.866028 -1.55157e-06
    outer loop
      vertex -51.3912 -12.3502 5.33262
      vertex -50 -11.547 0
      vertex -51.2433 -12.2648 5.43633
    endloop
  endfacet
  facet normal 0.5 -0.866025 1.40717e-07
    outer loop
      vertex -55.4905 -14.7169 2.46055
      vertex -50 -11.547 0
      vertex -51.3912 -12.3502 5.33262
    endloop
  endfacet
  facet normal 0.499995 -0.866028 -1.56608e-05
    outer loop
      vertex -55.5207 -14.7344 2.44233
      vertex -50 -11.547 0
      vertex -55.4905 -14.7169 2.46055
    endloop
  endfacet
  facet normal 0.5 -0.866026 -6.79609e-07
    outer loop
      vertex -56.5607 -15.3348 1.81515
      vertex -50 -11.547 0
      vertex -55.5207 -14.7344 2.44233
    endloop
  endfacet
  facet normal 0.5 -0.866025 6.87931e-07
    outer loop
      vertex -50 -11.547 0
      vertex -56.5607 -15.3348 1.81515
      vertex -59.5996 -17.0893 0
    endloop
  endfacet
  facet normal 0 -1 0
    outer loop
      vertex 9.09617 -60 93.6329
      vertex 17.3205 -60 99.8
      vertex 11.935 -60 99.8
    endloop
  endfacet
  facet normal 0 -1 0
    outer loop
      vertex 8.37157 -60 92.0642
      vertex 17.3205 -60 99.8
      vertex 9.09617 -60 93.6329
    endloop
  endfacet
  facet normal 0 -1 0
    outer loop
      vertex 7.73946 -60 90.6958
      vertex 17.3205 -60 99.8
      vertex 8.37157 -60 92.0642
    endloop
  endfacet
  facet normal 0 -1 0
    outer loop
      vertex 7.72621 -60 90.6684
      vertex 17.3205 -60 99.8
      vertex 7.73946 -60 90.6958
    endloop
  endfacet
  facet normal 0 -1 0
    outer loop
      vertex 3.48898 -60 81.9069
      vertex 17.3205 -60 99.8
      vertex 7.72621 -60 90.6684
    endloop
  endfacet
  facet normal 0 -1 0
    outer loop
      vertex 3.43446 -60 81.7996
      vertex 17.3205 -60 99.8
      vertex 3.48898 -60 81.9069
    endloop
  endfacet
  facet normal 0 -1 0
    outer loop
      vertex 17.3205 -60 0
      vertex 3.43446 -60 81.7996
      vertex -0.762656 -60 73.5332
    endloop
  endfacet
  facet normal 0 -1 0
    outer loop
      vertex 17.3205 -60 0
      vertex -0.762656 -60 73.5332
      vertex -0.858471 -60 73.354
    endloop
  endfacet
  facet normal 0 -1 0
    outer loop
      vertex 17.3205 -60 0
      vertex -0.858471 -60 73.354
      vertex -5.01446 -60 65.5747
    endloop
  endfacet
  facet normal 0 -1 0
    outer loop
      vertex 17.3205 -60 0
      vertex -5.01446 -60 65.5747
      vertex -5.15163 -60 65.3315
    endloop
  endfacet
  facet normal 0 -1 0
    outer loop
      vertex 17.3205 -60 0
      vertex -5.15163 -60 65.3315
      vertex -9.26648 -60 58.0315
    endloop
  endfacet
  facet normal 0 -1 0
    outer loop
      vertex 17.3205 -60 0
      vertex -9.26648 -60 58.0315
      vertex -9.44496 -60 57.7325
    endloop
  endfacet
  facet normal 0 -1 0
    outer loop
      vertex 17.3205 -60 0
      vertex -9.44496 -60 57.7325
      vertex -13.5186 -60 50.9035
    endloop
  endfacet
  facet normal 0 -1 0
    outer loop
      vertex 17.3205 -60 0
      vertex -13.7385 -60 50.5566
      vertex -17.3205 -60 44.9005
    endloop
  endfacet
  facet normal 0 -1 0
    outer loop
      vertex 17.3205 -60 0
      vertex -17.3205 -60 44.9005
      vertex -17.3205 -60 0
    endloop
  endfacet
  facet normal 0 -1 0
    outer loop
      vertex -13.7385 -60 50.5566
      vertex 17.3205 -60 0
      vertex -13.5186 -60 50.9035
    endloop
  endfacet
  facet normal 0 -1 0
    outer loop
      vertex 3.43446 -60 81.7996
      vertex 17.3205 -60 0
      vertex 17.3205 -60 99.8
    endloop
  endfacet
  facet normal -0.866025 0.5 0
    outer loop
      vertex -11.547 -50 0
      vertex -13.4306 -53.2624 50.9035
      vertex -11.547 -50 53.9895
    endloop
  endfacet
  facet normal -0.866026 0.499999 -6.93348e-08
    outer loop
      vertex -11.547 -50 0
      vertex -14.085 -54.396 49.8943
      vertex -13.4306 -53.2624 50.9035
    endloop
  endfacet
  facet normal -0.866025 0.5 0
    outer loop
      vertex -17.3205 -60 44.9005
      vertex -11.547 -50 0
      vertex -17.3205 -60 0
    endloop
  endfacet
  facet normal -0.866025 0.5 1.47993e-08
    outer loop
      vertex -11.547 -50 0
      vertex -17.3205 -60 44.9005
      vertex -14.085 -54.396 49.8943
    endloop
  endfacet
  facet normal 0.866025 0.5 1.38684e-06
    outer loop
      vertex 17.3205 -60 99.8
      vertex 11.547 -50 98.6498
      vertex 12.0666 -50.8999 99.8
    endloop
  endfacet
  facet normal 0.866025 0.5 -0
    outer loop
      vertex 17.3205 -60 0
      vertex 11.547 -50 98.6498
      vertex 17.3205 -60 99.8
    endloop
  endfacet
  facet normal 0.866025 0.5 0
    outer loop
      vertex 11.547 -50 98.6498
      vertex 17.3205 -60 0
      vertex 11.547 -50 0
    endloop
  endfacet
  facet normal 0 1 0
    outer loop
      vertex 18.1865 39.5 99.8
      vertex 9.44546 39.5 93.9358
      vertex 12.1736 39.5 99.8
    endloop
  endfacet
  facet normal 0 1 0
    outer loop
      vertex 18.1865 39.5 99.8
      vertex 7.93706 39.5 90.6958
      vertex 9.44546 39.5 93.9358
    endloop
  endfacet
  facet normal 0 1 0
    outer loop
      vertex 18.1865 39.5 99.8
      vertex 5.05818 39.5 84.7876
      vertex 7.93706 39.5 90.6958
    endloop
  endfacet
  facet normal 0 1 0
    outer loop
      vertex 18.1865 39.5 99.8
      vertex 3.65354 39.5 81.9069
      vertex 5.05818 39.5 84.7876
    endloop
  endfacet
  facet normal 0 1 -0
    outer loop
      vertex 18.1865 39.5 0
      vertex 3.65354 39.5 81.9069
      vertex 18.1865 39.5 99.8
    endloop
  endfacet
  facet normal 0 1 0
    outer loop
      vertex 3.65354 39.5 81.9069
      vertex 18.1865 39.5 0
      vertex 0.670278 39.5 76.0722
    endloop
  endfacet
  facet normal 0 1 0
    outer loop
      vertex 0.670278 39.5 76.0722
      vertex 18.1865 39.5 0
      vertex -0.628744 39.5 73.5332
    endloop
  endfacet
  facet normal 0 1 0
    outer loop
      vertex -0.628744 39.5 73.5332
      vertex 18.1865 39.5 0
      vertex -3.71843 39.5 67.7897
    endloop
  endfacet
  facet normal 0 1 0
    outer loop
      vertex -3.71843 39.5 67.7897
      vertex 18.1865 39.5 0
      vertex -4.91078 39.5 65.5747
    endloop
  endfacet
  facet normal 0 1 0
    outer loop
      vertex -4.91078 39.5 65.5747
      vertex 18.1865 39.5 0
      vertex -8.10906 39.5 59.9407
    endloop
  endfacet
  facet normal 0 1 0
    outer loop
      vertex -8.10906 39.5 59.9407
      vertex 18.1865 39.5 0
      vertex -9.19356 39.5 58.0315
    endloop
  endfacet
  facet normal 0 1 0
    outer loop
      vertex -9.19356 39.5 58.0315
      vertex 18.1865 39.5 0
      vertex -12.5004 39.5 52.5253
    endloop
  endfacet
  facet normal 0 1 0
    outer loop
      vertex -12.5004 39.5 52.5253
      vertex 18.1865 39.5 0
      vertex -13.4751 39.5 50.9035
    endloop
  endfacet
  facet normal 0 1 0
    outer loop
      vertex -13.4751 39.5 50.9035
      vertex 18.1865 39.5 0
      vertex -16.8928 39.5 45.544
    endloop
  endfacet
  facet normal 0 1 0
    outer loop
      vertex -16.8928 39.5 45.544
      vertex 18.1865 39.5 0
      vertex -17.7564 39.5 44.1907
    endloop
  endfacet
  facet normal 0 1 0
    outer loop
      vertex 18.1865 39.5 0
      vertex -18.1865 39.5 43.558
      vertex -17.7564 39.5 44.1907
    endloop
  endfacet
  facet normal 0 1 0
    outer loop
      vertex -18.1865 39.5 43.558
      vertex 18.1865 39.5 0
      vertex -18.1865 39.5 0
    endloop
  endfacet
  facet normal 0.866025 -0.5 0
    outer loop
      vertex -13.2752 48.0066 51.45
      vertex -12.1244 50 0
      vertex -12.1244 50 53.4166
    endloop
  endfacet
  facet normal 0.866027 -0.499997 1.54338e-07
    outer loop
      vertex -13.5953 47.4523 50.9035
      vertex -12.1244 50 0
      vertex -13.2752 48.0066 51.45
    endloop
  endfacet
  facet normal 0.866025 -0.5 -3.12186e-08
    outer loop
      vertex -17.0702 41.4335 45.3116
      vertex -12.1244 50 0
      vertex -13.5953 47.4523 50.9035
    endloop
  endfacet
  facet normal 0.866025 -0.500001 -1.4154e-07
    outer loop
      vertex -17.7673 40.2261 44.1907
      vertex -12.1244 50 0
      vertex -17.0702 41.4335 45.3116
    endloop
  endfacet
  facet normal 0.866026 -0.499999 3.52246e-07
    outer loop
      vertex -18.1865 39.5 43.558
      vertex -12.1244 50 0
      vertex -17.7673 40.2261 44.1907
    endloop
  endfacet
  facet normal 0.866025 -0.5 0
    outer loop
      vertex -12.1244 50 0
      vertex -18.1865 39.5 43.558
      vertex -18.1865 39.5 0
    endloop
  endfacet
  facet normal -0.866025 -0.5 0
    outer loop
      vertex 18.1865 39.5 0
      vertex 12.1244 50 99.8
      vertex 12.1244 50 0
    endloop
  endfacet
  facet normal -0.866025 -0.5 0
    outer loop
      vertex 12.1244 50 99.8
      vertex 18.1865 39.5 0
      vertex 18.1865 39.5 99.8
    endloop
  endfacet
  facet normal 0 0 1
    outer loop
      vertex 50 50 99.8
      vertex 12.753 1.91211 99.8
      vertex 12.763 1.25936 99.8
    endloop
  endfacet
  facet normal 0 -0 1
    outer loop
      vertex 12.753 1.91211 99.8
      vertex 18.1865 39.5 99.8
      vertex 12.1736 39.5 99.8
    endloop
  endfacet
  facet normal 0 0 1
    outer loop
      vertex 12.753 1.91211 99.8
      vertex 50 50 99.8
      vertex 18.1865 39.5 99.8
    endloop
  endfacet
  facet normal 0 -0 1
    outer loop
      vertex 18.1865 39.5 99.8
      vertex 50 50 99.8
      vertex 12.1244 50 99.8
    endloop
  endfacet
  facet normal 0 0 1
    outer loop
      vertex 50 50 99.8
      vertex 12.763 1.25936 99.8
      vertex 50 -50 99.8
    endloop
  endfacet
  facet normal 0 0 1
    outer loop
      vertex 50 -50 99.8
      vertex 12.763 1.25936 99.8
      vertex 12.0786 -50 99.8
    endloop
  endfacet
  facet normal -0 0 1
    outer loop
      vertex 11.959 -58.9564 99.8
      vertex 17.3205 -60 99.8
      vertex 12.0666 -50.8999 99.8
    endloop
  endfacet
  facet normal -0 0 1
    outer loop
      vertex 11.95 -59.6124 99.8
      vertex 17.3205 -60 99.8
      vertex 11.959 -58.9564 99.8
    endloop
  endfacet
  facet normal 0 0 1
    outer loop
      vertex 17.3205 -60 99.8
      vertex 11.95 -59.6124 99.8
      vertex 11.935 -60 99.8
    endloop
  endfacet
  facet normal 0 0 -1
    outer loop
      vertex 17.3205 -60 0
      vertex -11.547 -50 0
      vertex 11.547 -50 0
    endloop
  endfacet
  facet normal 0 -0 -1
    outer loop
      vertex -11.547 -50 0
      vertex 17.3205 -60 0
      vertex -17.3205 -60 0
    endloop
  endfacet
  facet normal 0 0 -1
    outer loop
      vertex 50 -50 0
      vertex 18.1865 39.5 0
      vertex 50 50 0
    endloop
  endfacet
  facet normal 0 0 -1
    outer loop
      vertex 11.547 -50 0
      vertex 18.1865 39.5 0
      vertex 50 -50 0
    endloop
  endfacet
  facet normal 0 0 -1
    outer loop
      vertex -11.547 -50 0
      vertex 18.1865 39.5 0
      vertex 11.547 -50 0
    endloop
  endfacet
  facet normal 0 0 -1
    outer loop
      vertex -11.547 -50 0
      vertex -18.1865 39.5 0
      vertex 18.1865 39.5 0
    endloop
  endfacet
  facet normal 0 0 -1
    outer loop
      vertex -50 -11.547 0
      vertex -11.547 -50 0
      vertex -50 -50 0
    endloop
  endfacet
  facet normal -0 0 -1
    outer loop
      vertex 50 50 0
      vertex 18.1865 39.5 0
      vertex 12.1244 50 0
    endloop
  endfacet
  facet normal 0 0 -1
    outer loop
      vertex -11.547 -50 0
      vertex -50 -11.547 0
      vertex -18.1865 39.5 0
    endloop
  endfacet
  facet normal 0 0 -1
    outer loop
      vertex -50 11.547 0
      vertex -18.1865 39.5 0
      vertex -50 -11.547 0
    endloop
  endfacet
  facet normal 0 0 -1
    outer loop
      vertex -50 50 0
      vertex -18.1865 39.5 0
      vertex -50 11.547 0
    endloop
  endfacet
  facet normal 0 0 -1
    outer loop
      vertex -18.1865 39.5 0
      vertex -50 50 0
      vertex -12.1244 50 0
    endloop
  endfacet
  facet normal 0 0 -1
    outer loop
      vertex -60 12.5159 0
      vertex -50 -11.547 0
      vertex -59.586 -16.0124 0
    endloop
  endfacet
  facet normal 0 -0 -1
    outer loop
      vertex -59.586 -16.0124 0
      vertex -50 -11.547 0
      vertex -59.5996 -17.0893 0
    endloop
  endfacet
  facet normal 0 0 -1
    outer loop
      vertex -50 -11.547 0
      vertex -60 12.5159 0
      vertex -50 11.547 0
    endloop
  endfacet
  facet normal 0 0 -1
    outer loop
      vertex -50 11.547 0
      vertex -60 12.5159 0
      vertex -60 17.3205 0
    endloop
  endfacet
  facet normal -0.907819 0.0351443 0.417887
    outer loop
      vertex 11.935 -60 99.8
      vertex 11.95 -59.6124 99.8
      vertex 9.09617 -60 93.6329
    endloop
  endfacet
  facet normal -0.907674 0.0121192 0.419501
    outer loop
      vertex 11.547 -50 98.6498
      vertex 11.959 -58.9564 99.8
      vertex 12.0666 -50.8999 99.8
    endloop
  endfacet
  facet normal -0.907673 0.0121195 0.419503
    outer loop
      vertex 11.959 -58.9564 99.8
      vertex 11.547 -50 98.6498
      vertex 8.541 0.189242 90.6958
    endloop
  endfacet
  facet normal -0.907674 0.0121192 0.419502
    outer loop
      vertex 11.547 -50 98.6498
      vertex 12.763 1.25936 99.8
      vertex 8.541 0.189242 90.6958
    endloop
  endfacet
  facet normal -0.907674 0.0121192 0.419502
    outer loop
      vertex 12.763 1.25936 99.8
      vertex 11.547 -50 98.6498
      vertex 12.0786 -50 99.8
    endloop
  endfacet
  facet normal -0.907752 0.0120886 0.419333
    outer loop
      vertex 8.37157 -60 92.0642
      vertex 8.541 0.189242 90.6958
      vertex 7.73946 -60 90.6958
    endloop
  endfacet
  facet normal -0.907753 0.0120885 0.419332
    outer loop
      vertex 8.541 0.189242 90.6958
      vertex 8.37157 -60 92.0642
      vertex 11.959 -58.9564 99.8
    endloop
  endfacet
  facet normal -0.907767 0.0124517 0.41929
    outer loop
      vertex 9.09617 -60 93.6329
      vertex 11.959 -58.9564 99.8
      vertex 8.37157 -60 92.0642
    endloop
  endfacet
  facet normal -0.907767 0.0124538 0.419289
    outer loop
      vertex 11.959 -58.9564 99.8
      vertex 9.09617 -60 93.6329
      vertex 11.95 -59.6124 99.8
    endloop
  endfacet
  facet normal -0.906595 -0.0139743 0.42177
    outer loop
      vertex 12.753 1.91211 99.8
      vertex 12.1736 39.5 99.8
      vertex 9.44546 39.5 93.9358
    endloop
  endfacet
  facet normal -0.906482 -0.0139263 0.422014
    outer loop
      vertex 7.93706 39.5 90.6958
      vertex 12.753 1.91211 99.8
      vertex 9.44546 39.5 93.9358
    endloop
  endfacet
  facet normal -0.906483 -0.0139265 0.422014
    outer loop
      vertex 12.753 1.91211 99.8
      vertex 7.93706 39.5 90.6958
      vertex 8.541 0.189242 90.6958
    endloop
  endfacet
  facet normal -0.906486 -0.0138875 0.422008
    outer loop
      vertex 12.763 1.25936 99.8
      vertex 12.753 1.91211 99.8
      vertex 8.541 0.189242 90.6958
    endloop
  endfacet
  facet normal -0.900014 0.0119855 0.435696
    outer loop
      vertex 7.72621 -60 90.6684
      vertex 8.541 0.189242 90.6958
      vertex 4.272 -0.884748 81.9069
    endloop
  endfacet
  facet normal -0.900012 0.0119855 0.4357
    outer loop
      vertex 8.541 0.189242 90.6958
      vertex 7.72621 -60 90.6684
      vertex 7.73946 -60 90.6958
    endloop
  endfacet
  facet normal -0.900185 0.0119235 0.435345
    outer loop
      vertex 7.72621 -60 90.6684
      vertex 4.272 -0.884748 81.9069
      vertex 3.48898 -60 81.9069
    endloop
  endfacet
  facet normal -0.898871 -0.0138095 0.437995
    outer loop
      vertex 8.541 0.189242 90.6958
      vertex 7.93706 39.5 90.6958
      vertex 5.05818 39.5 84.7876
    endloop
  endfacet
  facet normal -0.898757 -0.0137638 0.438232
    outer loop
      vertex 4.272 -0.884748 81.9069
      vertex 5.05818 39.5 84.7876
      vertex 3.65354 39.5 81.9069
    endloop
  endfacet
  facet normal -0.898757 -0.0137638 0.438232
    outer loop
      vertex 5.05818 39.5 84.7876
      vertex 4.272 -0.884748 81.9069
      vertex 8.541 0.189242 90.6958
    endloop
  endfacet
  facet normal -0.891492 0.0118084 0.452882
    outer loop
      vertex 3.43446 -60 81.7996
      vertex 4.272 -0.884748 81.9069
      vertex 0.00399971 -1.95087 73.5332
    endloop
  endfacet
  facet normal -0.891492 0.0118084 0.452882
    outer loop
      vertex 4.272 -0.884748 81.9069
      vertex 3.43446 -60 81.7996
      vertex 3.48898 -60 81.9069
    endloop
  endfacet
  facet normal -0.89159 0.0117752 0.45269
    outer loop
      vertex 3.43446 -60 81.7996
      vertex 0.00399971 -1.95087 73.5332
      vertex -0.762656 -60 73.5332
    endloop
  endfacet
  facet normal -0.890286 -0.0136341 0.455197
    outer loop
      vertex 4.272 -0.884748 81.9069
      vertex 3.65354 39.5 81.9069
      vertex 0.670278 39.5 76.0722
    endloop
  endfacet
  facet normal -0.890163 -0.0135883 0.455439
    outer loop
      vertex 0.00399971 -1.95087 73.5332
      vertex 0.670278 39.5 76.0722
      vertex -0.628744 39.5 73.5332
    endloop
  endfacet
  facet normal -0.890163 -0.0135883 0.455439
    outer loop
      vertex 0.670278 39.5 76.0722
      vertex 0.00399971 -1.95087 73.5332
      vertex 4.272 -0.884748 81.9069
    endloop
  endfacet
  facet normal -0.881856 0.0116467 0.471375
    outer loop
      vertex -0.858471 -60 73.354
      vertex 0.00399971 -1.95087 73.5332
      vertex -4.264 -3.00911 65.5747
    endloop
  endfacet
  facet normal -0.881857 0.0116467 0.471373
    outer loop
      vertex 0.00399971 -1.95087 73.5332
      vertex -0.858471 -60 73.354
      vertex -0.762656 -60 73.5332
    endloop
  endfacet
  facet normal -0.881961 0.0116138 0.471179
    outer loop
      vertex -0.858471 -60 73.354
      vertex -4.264 -3.00911 65.5747
      vertex -5.01446 -60 65.5747
    endloop
  endfacet
  facet normal -0.880581 -0.013442 0.473704
    outer loop
      vertex 0.00399971 -1.95087 73.5332
      vertex -0.628744 39.5 73.5332
      vertex -3.71843 39.5 67.7897
    endloop
  endfacet
  facet normal -0.88045 -0.013396 0.47395
    outer loop
      vertex -4.91078 39.5 65.5747
      vertex 0.00399971 -1.95087 73.5332
      vertex -3.71843 39.5 67.7897
    endloop
  endfacet
  facet normal -0.88045 -0.0133961 0.47395
    outer loop
      vertex 0.00399971 -1.95087 73.5332
      vertex -4.91078 39.5 65.5747
      vertex -4.264 -3.00911 65.5747
    endloop
  endfacet
  facet normal -0.87092 0.0114684 0.491292
    outer loop
      vertex -5.15163 -60 65.3315
      vertex -4.264 -3.00911 65.5747
      vertex -8.533 -4.05948 58.0315
    endloop
  endfacet
  facet normal -0.870921 0.0114684 0.491289
    outer loop
      vertex -4.264 -3.00911 65.5747
      vertex -5.15163 -60 65.3315
      vertex -5.01446 -60 65.5747
    endloop
  endfacet
  facet normal -0.871081 0.0114214 0.491007
    outer loop
      vertex -5.15163 -60 65.3315
      vertex -8.533 -4.05948 58.0315
      vertex -9.26648 -60 58.0315
    endloop
  endfacet
  facet normal -0.869571 -0.0132305 0.493631
    outer loop
      vertex -4.264 -3.00911 65.5747
      vertex -4.91078 39.5 65.5747
      vertex -8.10906 39.5 59.9407
    endloop
  endfacet
  facet normal -0.869429 -0.0131845 0.493881
    outer loop
      vertex -9.19356 39.5 58.0315
      vertex -4.264 -3.00911 65.5747
      vertex -8.10906 39.5 59.9407
    endloop
  endfacet
  facet normal -0.869429 -0.0131845 0.493881
    outer loop
      vertex -4.264 -3.00911 65.5747
      vertex -9.19356 39.5 58.0315
      vertex -8.533 -4.05948 58.0315
    endloop
  endfacet
  facet normal -0.858632 0.0112576 0.512468
    outer loop
      vertex -9.26648 -60 58.0315
      vertex -12.801 -5.10198 50.9035
      vertex -9.44496 -60 57.7325
    endloop
  endfacet
  facet normal -0.85863 0.0112582 0.512471
    outer loop
      vertex -12.801 -5.10198 50.9035
      vertex -9.26648 -60 58.0315
      vertex -8.533 -4.05948 58.0315
    endloop
  endfacet
  facet normal -0.858751 0.0112256 0.51227
    outer loop
      vertex -11.547 -50 53.9895
      vertex -12.801 -5.10198 50.9035
      vertex -13.3879 -50 50.9035
    endloop
  endfacet
  facet normal -0.858751 0.0112257 0.51227
    outer loop
      vertex -9.44496 -60 57.7325
      vertex -13.4306 -53.2624 50.9035
      vertex -13.5186 -60 50.9035
    endloop
  endfacet
  facet normal -0.858751 0.0112256 0.512269
    outer loop
      vertex -11.547 -50 53.9895
      vertex -9.44496 -60 57.7325
      vertex -12.801 -5.10198 50.9035
    endloop
  endfacet
  facet normal -0.858751 0.0112257 0.51227
    outer loop
      vertex -13.4306 -53.2624 50.9035
      vertex -9.44496 -60 57.7325
      vertex -11.547 -50 53.9895
    endloop
  endfacet
  facet normal -0.857204 -0.0129991 0.514813
    outer loop
      vertex -8.533 -4.05948 58.0315
      vertex -9.19356 39.5 58.0315
      vertex -12.5004 39.5 52.5253
    endloop
  endfacet
  facet normal -0.857204 -0.0129994 0.514813
    outer loop
      vertex -13.2752 48.0066 51.45
      vertex -12.1244 50 53.4166
      vertex -13.4568 50 51.198
    endloop
  endfacet
  facet normal -0.857052 -0.0129531 0.515067
    outer loop
      vertex -13.4751 39.5 50.9035
      vertex -8.533 -4.05948 58.0315
      vertex -12.5004 39.5 52.5253
    endloop
  endfacet
  facet normal -0.857052 -0.0129531 0.515067
    outer loop
      vertex -8.533 -4.05948 58.0315
      vertex -13.4751 39.5 50.9035
      vertex -12.801 -5.10198 50.9035
    endloop
  endfacet
  facet normal -0.857053 -0.0129538 0.515065
    outer loop
      vertex -13.6338 50 50.9035
      vertex -13.2752 48.0066 51.45
      vertex -13.4568 50 51.198
    endloop
  endfacet
  facet normal -0.857052 -0.0129533 0.515067
    outer loop
      vertex -13.2752 48.0066 51.45
      vertex -13.6338 50 50.9035
      vertex -13.5953 47.4523 50.9035
    endloop
  endfacet
  facet normal -0.844595 0.0110405 0.535292
    outer loop
      vertex -13.3879 -50 50.9035
      vertex -17.069 -6.13661 44.1907
      vertex -14.3568 -50 49.3747
    endloop
  endfacet
  facet normal -0.844595 0.0110406 0.535292
    outer loop
      vertex -17.069 -6.13661 44.1907
      vertex -13.3879 -50 50.9035
      vertex -12.801 -5.10198 50.9035
    endloop
  endfacet
  facet normal -0.844596 0.0110402 0.53529
    outer loop
      vertex -13.5186 -60 50.9035
      vertex -14.085 -54.396 49.8943
      vertex -13.7385 -60 50.5566
    endloop
  endfacet
  facet normal -0.844595 0.0110406 0.535291
    outer loop
      vertex -14.085 -54.396 49.8943
      vertex -13.5186 -60 50.9035
      vertex -13.4306 -53.2624 50.9035
    endloop
  endfacet
  facet normal -0.844781 0.0109944 0.534999
    outer loop
      vertex -14.3568 -50 49.3747
      vertex -17.069 -6.13661 44.1907
      vertex -17.6399 -50 44.1907
    endloop
  endfacet
  facet normal -0.844781 0.0109945 0.534999
    outer loop
      vertex -13.7385 -60 50.5566
      vertex -14.085 -54.396 49.8943
      vertex -17.3205 -60 44.9005
    endloop
  endfacet
  facet normal -0.843085 -0.012742 0.537629
    outer loop
      vertex -12.801 -5.10198 50.9035
      vertex -13.4751 39.5 50.9035
      vertex -16.8928 39.5 45.544
    endloop
  endfacet
  facet normal -0.843085 -0.0127422 0.537629
    outer loop
      vertex -17.8561 50 44.2823
      vertex -13.5953 47.4523 50.9035
      vertex -13.6338 50 50.9035
    endloop
  endfacet
  facet normal -0.843085 -0.0127419 0.537629
    outer loop
      vertex -13.5953 47.4523 50.9035
      vertex -17.8561 50 44.2823
      vertex -17.0702 41.4335 45.3116
    endloop
  endfacet
  facet normal -0.842921 -0.012696 0.537887
    outer loop
      vertex -17.7564 39.5 44.1907
      vertex -12.801 -5.10198 50.9035
      vertex -16.8928 39.5 45.544
    endloop
  endfacet
  facet normal -0.842922 -0.012696 0.537887
    outer loop
      vertex -12.801 -5.10198 50.9035
      vertex -17.7564 39.5 44.1907
      vertex -17.069 -6.13661 44.1907
    endloop
  endfacet
  facet normal -0.84292 -0.0126956 0.537889
    outer loop
      vertex -17.9145 50 44.1907
      vertex -17.0702 41.4335 45.3116
      vertex -17.8561 50 44.2823
    endloop
  endfacet
  facet normal -0.842922 -0.012696 0.537887
    outer loop
      vertex -17.0702 41.4335 45.3116
      vertex -17.9145 50 44.1907
      vertex -17.7673 40.2261 44.1907
    endloop
  endfacet
  facet normal -0.828511 0.0107825 0.55987
    outer loop
      vertex -17.6399 -50 44.1907
      vertex -21.338 -7.16335 37.8931
      vertex -18.6572 -50 42.6852
    endloop
  endfacet
  facet normal -0.82851 0.0107827 0.55987
    outer loop
      vertex -21.338 -7.16335 37.8931
      vertex -17.6399 -50 44.1907
      vertex -17.069 -6.13661 44.1907
    endloop
  endfacet
  facet normal -0.82871 0.0107371 0.559575
    outer loop
      vertex -18.6572 -50 42.6852
      vertex -21.338 -7.16335 37.8931
      vertex -21.893 -50 37.8931
    endloop
  endfacet
  facet normal -0.826914 -0.0124549 0.56219
    outer loop
      vertex -17.7673 40.2261 44.1907
      vertex -20.0035 50 41.1181
      vertex -22.184 49.2003 37.8931
    endloop
  endfacet
  facet normal -0.826914 -0.0124549 0.56219
    outer loop
      vertex -20.0035 50 41.1181
      vertex -17.7673 40.2261 44.1907
      vertex -17.9145 50 44.1907
    endloop
  endfacet
  facet normal -0.826915 -0.0124555 0.56219
    outer loop
      vertex -22.184 49.2003 37.8931
      vertex -18.1865 39.5 43.558
      vertex -17.7673 40.2261 44.1907
    endloop
  endfacet
  facet normal -0.826915 -0.0124549 0.562189
    outer loop
      vertex -18.1865 39.5 43.558
      vertex -17.069 -6.13661 44.1907
      vertex -17.7564 39.5 44.1907
    endloop
  endfacet
  facet normal -0.826914 -0.0124549 0.56219
    outer loop
      vertex -17.069 -6.13661 44.1907
      vertex -18.1865 39.5 43.558
      vertex -22.184 49.2003 37.8931
    endloop
  endfacet
  facet normal -0.826738 -0.0124091 0.56245
    outer loop
      vertex -21.338 -7.16335 37.8931
      vertex -17.069 -6.13661 44.1907
      vertex -22.184 49.2003 37.8931
    endloop
  endfacet
  facet normal -0.823326 -0.038622 0.566253
    outer loop
      vertex -22.184 49.2003 37.8931
      vertex -20.0035 50 41.1181
      vertex -22.2215 50 37.8931
    endloop
  endfacet
  facet normal -0.810216 0.0104974 0.586037
    outer loop
      vertex -21.893 -50 37.8931
      vertex -25.606 -8.18223 32.0107
      vertex -22.9584 -50 36.4201
    endloop
  endfacet
  facet normal -0.810216 0.0104974 0.586037
    outer loop
      vertex -25.606 -8.18223 32.0107
      vertex -21.893 -50 37.8931
      vertex -21.338 -7.16335 37.8931
    endloop
  endfacet
  facet normal -0.810366 0.0104661 0.58583
    outer loop
      vertex -22.9584 -50 36.4201
      vertex -25.606 -8.18223 32.0107
      vertex -26.1461 -50 32.0107
    endloop
  endfacet
  facet normal -0.80853 -0.0121358 0.588329
    outer loop
      vertex -21.338 -7.16335 37.8931
      vertex -22.184 49.2003 37.8931
      vertex -26.441 47.6451 32.0107
    endloop
  endfacet
  facet normal -0.808342 -0.0120902 0.58859
    outer loop
      vertex -25.606 -8.18223 32.0107
      vertex -21.338 -7.16335 37.8931
      vertex -26.441 47.6451 32.0107
    endloop
  endfacet
  facet normal -0.805243 -0.0377737 0.591741
    outer loop
      vertex -22.184 49.2003 37.8931
      vertex -22.2215 50 37.8931
      vertex -22.286 50 37.8053
    endloop
  endfacet
  facet normal -0.804789 -0.037647 0.592366
    outer loop
      vertex -26.5512 50 32.0107
      vertex -22.184 49.2003 37.8931
      vertex -22.286 50 37.8053
    endloop
  endfacet
  facet normal -0.804789 -0.0376475 0.592366
    outer loop
      vertex -22.184 49.2003 37.8931
      vertex -26.5512 50 32.0107
      vertex -26.441 47.6451 32.0107
    endloop
  endfacet
  facet normal -0.789049 0.0101907 0.614246
    outer loop
      vertex -26.1461 -50 32.0107
      vertex -29.875 -9.19323 26.5436
      vertex -27.2603 -50 30.5794
    endloop
  endfacet
  facet normal -0.789049 0.0101908 0.614246
    outer loop
      vertex -29.875 -9.19323 26.5436
      vertex -26.1461 -50 32.0107
      vertex -25.606 -8.18223 32.0107
    endloop
  endfacet
  facet normal -0.789279 0.0101468 0.613951
    outer loop
      vertex -27.2603 -50 30.5794
      vertex -29.875 -9.19323 26.5436
      vertex -30.3996 -50 26.5436
    endloop
  endfacet
  facet normal -0.787271 -0.0117751 0.616494
    outer loop
      vertex -25.606 -8.18223 32.0107
      vertex -26.441 47.6451 32.0107
      vertex -30.699 46.0965 26.5436
    endloop
  endfacet
  facet normal -0.787069 -0.0117299 0.616754
    outer loop
      vertex -29.875 -9.19323 26.5436
      vertex -25.606 -8.18223 32.0107
      vertex -30.699 46.0965 26.5436
    endloop
  endfacet
  facet normal -0.783991 -0.0366746 0.619688
    outer loop
      vertex -26.441 47.6451 32.0107
      vertex -26.5512 50 32.0107
      vertex -26.7431 50 31.7679
    endloop
  endfacet
  facet normal -0.783379 -0.0365155 0.62047
    outer loop
      vertex -30.881 50 26.5436
      vertex -26.441 47.6451 32.0107
      vertex -26.7431 50 31.7679
    endloop
  endfacet
  facet normal -0.783379 -0.0365152 0.620471
    outer loop
      vertex -26.441 47.6451 32.0107
      vertex -30.881 50 26.5436
      vertex -30.699 46.0965 26.5436
    endloop
  endfacet
  facet normal -0.764809 0.00983226 0.644182
    outer loop
      vertex -30.3996 -50 26.5436
      vertex -34.143 -10.1964 21.4917
      vertex -31.5623 -50 25.1632
    endloop
  endfacet
  facet normal -0.764809 0.00983218 0.644182
    outer loop
      vertex -34.143 -10.1964 21.4917
      vertex -30.3996 -50 26.5436
      vertex -29.875 -9.19323 26.5436
    endloop
  endfacet
  facet normal -0.765055 0.00978936 0.64389
    outer loop
      vertex -31.5623 -50 25.1632
      vertex -34.143 -10.1964 21.4917
      vertex -34.6523 -50 21.4917
    endloop
  endfacet
  facet normal -0.762942 -0.0113704 0.646367
    outer loop
      vertex -29.875 -9.19323 26.5436
      vertex -30.699 46.0965 26.5436
      vertex -34.956 44.5543 21.4917
    endloop
  endfacet
  facet normal -0.762726 -0.0113259 0.646623
    outer loop
      vertex -34.143 -10.1964 21.4917
      vertex -29.875 -9.19323 26.5436
      vertex -34.956 44.5543 21.4917
    endloop
  endfacet
  facet normal -0.75941 -0.0353979 0.649649
    outer loop
      vertex -30.699 46.0965 26.5436
      vertex -30.881 50 26.5436
      vertex -31.2024 50 26.1678
    endloop
  endfacet
  facet normal -0.758897 -0.0352734 0.650255
    outer loop
      vertex -35.2091 50 21.4917
      vertex -30.699 46.0965 26.5436
      vertex -31.2024 50 26.1678
    endloop
  endfacet
  facet normal -0.758897 -0.035273 0.650255
    outer loop
      vertex -30.699 46.0965 26.5436
      vertex -35.2091 50 21.4917
      vertex -34.956 44.5543 21.4917
    endloop
  endfacet
  facet normal -0.736729 0.00942676 0.676122
    outer loop
      vertex -34.6523 -50 21.4917
      vertex -38.411 -11.1916 16.855
      vertex -35.864 -50 20.1714
    endloop
  endfacet
  facet normal -0.736729 0.0094269 0.676123
    outer loop
      vertex -38.411 -11.1916 16.855
      vertex -34.6523 -50 21.4917
      vertex -34.143 -10.1964 21.4917
    endloop
  endfacet
  facet normal -0.736912 0.00939775 0.675923
    outer loop
      vertex -35.864 -50 20.1714
      vertex -38.411 -11.1916 16.855
      vertex -38.9059 -50 16.855
    endloop
  endfacet
  facet normal -0.734778 -0.0109109 0.67822
    outer loop
      vertex -34.143 -10.1964 21.4917
      vertex -34.956 44.5543 21.4917
      vertex -39.213 43.0186 16.855
    endloop
  endfacet
  facet normal -0.734547 -0.0108671 0.67847
    outer loop
      vertex -38.411 -11.1916 16.855
      vertex -34.143 -10.1964 21.4917
      vertex -39.213 43.0186 16.855
    endloop
  endfacet
  facet normal -0.731215 -0.0339864 0.6813
    outer loop
      vertex -34.956 44.5543 21.4917
      vertex -35.2091 50 21.4917
      vertex -35.6621 50 21.0055
    endloop
  endfacet
  facet normal -0.730592 -0.0338455 0.681975
    outer loop
      vertex -39.5364 50 16.855
      vertex -34.956 44.5543 21.4917
      vertex -35.6621 50 21.0055
    endloop
  endfacet
  facet normal -0.730593 -0.0338464 0.681974
    outer loop
      vertex -34.956 44.5543 21.4917
      vertex -39.5364 50 16.855
      vertex -39.213 43.0186 16.855
    endloop
  endfacet
  facet normal -0.704152 0.00897997 0.709992
    outer loop
      vertex -42.68 -12.179 12.6336
      vertex -38.9059 -50 16.855
      vertex -38.411 -11.1916 16.855
    endloop
  endfacet
  facet normal -0.704153 0.00897993 0.709992
    outer loop
      vertex -38.9059 -50 16.855
      vertex -42.68 -12.179 12.6336
      vertex -40.1671 -50 15.6042
    endloop
  endfacet
  facet normal -0.704429 0.00894008 0.709718
    outer loop
      vertex -40.1671 -50 15.6042
      vertex -42.68 -12.179 12.6336
      vertex -43.16 -50 12.6336
    endloop
  endfacet
  facet normal -0.701883 -0.0103448 0.712217
    outer loop
      vertex -42.68 -12.179 12.6336
      vertex -38.411 -11.1916 16.855
      vertex -43.471 41.4894 12.6336
    endloop
  endfacet
  facet normal -0.702126 -0.0103874 0.711977
    outer loop
      vertex -38.411 -11.1916 16.855
      vertex -39.213 43.0186 16.855
      vertex -43.471 41.4894 12.6336
    endloop
  endfacet
  facet normal -0.697826 -0.032207 0.715543
    outer loop
      vertex -43.8638 50 12.6336
      vertex -39.213 43.0186 16.855
      vertex -40.1233 50 16.2814
    endloop
  endfacet
  facet normal -0.697826 -0.0322066 0.715543
    outer loop
      vertex -39.213 43.0186 16.855
      vertex -43.8638 50 12.6336
      vertex -43.471 41.4894 12.6336
    endloop
  endfacet
  facet normal -0.698561 -0.0323624 0.714818
    outer loop
      vertex -39.213 43.0186 16.855
      vertex -39.5364 50 16.855
      vertex -40.1233 50 16.2814
    endloop
  endfacet
  facet normal -0.666639 0.00846049 0.745332
    outer loop
      vertex -46.948 -13.1585 8.82734
      vertex -43.16 -50 12.6336
      vertex -42.68 -12.179 12.6336
    endloop
  endfacet
  facet normal -0.66664 0.00846047 0.745332
    outer loop
      vertex -43.16 -50 12.6336
      vertex -46.948 -13.1585 8.82734
      vertex -44.4703 -50 11.4617
    endloop
  endfacet
  facet normal -0.666842 0.0084339 0.745151
    outer loop
      vertex -44.4703 -50 11.4617
      vertex -46.948 -13.1585 8.82734
      vertex -47.414 -50 8.82734
    endloop
  endfacet
  facet normal -0.664303 -0.00975353 0.7474
    outer loop
      vertex -46.948 -13.1585 8.82734
      vertex -42.68 -12.179 12.6336
      vertex -47.728 39.9667 8.82734
    endloop
  endfacet
  facet normal -0.664557 -0.00979469 0.747173
    outer loop
      vertex -42.68 -12.179 12.6336
      vertex -43.471 41.4894 12.6336
      vertex -47.728 39.9667 8.82734
    endloop
  endfacet
  facet normal -0.660171 -0.0303773 0.750501
    outer loop
      vertex -48.1897 50 8.82734
      vertex -43.471 41.4894 12.6336
      vertex -44.5871 50 11.9963
    endloop
  endfacet
  facet normal -0.660171 -0.0303772 0.750501
    outer loop
      vertex -43.471 41.4894 12.6336
      vertex -48.1897 50 8.82734
      vertex -47.728 39.9667 8.82734
    endloop
  endfacet
  facet normal -0.660774 -0.0304966 0.749965
    outer loop
      vertex -43.471 41.4894 12.6336
      vertex -43.8638 50 12.6336
      vertex -44.5871 50 11.9963
    endloop
  endfacet
  facet normal -0.623155 0.00788137 0.782059
    outer loop
      vertex -50 -31.9907 6.58525
      vertex -47.414 -50 8.82734
      vertex -46.948 -13.1585 8.82734
    endloop
  endfacet
  facet normal -0.623155 0.0078813 0.782059
    outer loop
      vertex -50 -31.9907 6.58525
      vertex -46.948 -13.1585 8.82734
      vertex -50 -13.8533 6.40247
    endloop
  endfacet
  facet normal -0.623155 0.00788131 0.782058
    outer loop
      vertex -47.414 -50 8.82734
      vertex -50 -31.9907 6.58525
      vertex -48.7739 -50 7.74373
    endloop
  endfacet
  facet normal -0.623365 0.00785636 0.781892
    outer loop
      vertex -48.7739 -50 7.74373
      vertex -50 -31.9907 6.58525
      vertex -50 -50 6.7662
    endloop
  endfacet
  facet normal -0.620782 -0.00907902 0.783931
    outer loop
      vertex -50 11.547 6.69664
      vertex -51.2433 -12.2648 5.43633
      vertex -50 -11.547 6.42918
    endloop
  endfacet
  facet normal -0.620782 -0.00907904 0.783931
    outer loop
      vertex -51.2433 -12.2648 5.43633
      vertex -50 11.547 6.69664
      vertex -51.6051 12.4737 5.43633
    endloop
  endfacet
  facet normal -0.620782 -0.00907908 0.783931
    outer loop
      vertex -50 11.547 6.69664
      vertex -46.948 -13.1585 8.82734
      vertex -50 18.1122 6.77267
    endloop
  endfacet
  facet normal -0.620781 -0.00907903 0.783931
    outer loop
      vertex -50 -11.547 6.42918
      vertex -46.948 -13.1585 8.82734
      vertex -50 11.547 6.69664
    endloop
  endfacet
  facet normal -0.620781 -0.00907907 0.783931
    outer loop
      vertex -46.948 -13.1585 8.82734
      vertex -50 -11.547 6.42918
      vertex -50 -13.8533 6.40247
    endloop
  endfacet
  facet normal -0.621044 -0.00911834 0.783722
    outer loop
      vertex -50 18.1122 6.77267
      vertex -47.728 39.9667 8.82734
      vertex -50 39.1575 7.01753
    endloop
  endfacet
  facet normal -0.621044 -0.00911839 0.783723
    outer loop
      vertex -47.728 39.9667 8.82734
      vertex -50 18.1122 6.77267
      vertex -46.948 -13.1585 8.82734
    endloop
  endfacet
  facet normal -0.616629 -0.028275 0.786746
    outer loop
      vertex -50 50 7.4072
      vertex -47.728 39.9667 8.82734
      vertex -49.0515 50 8.15064
    endloop
  endfacet
  facet normal -0.616629 -0.0282753 0.786746
    outer loop
      vertex -47.728 39.9667 8.82734
      vertex -50 50 7.4072
      vertex -50 39.1575 7.01753
    endloop
  endfacet
  facet normal -0.617337 -0.0284062 0.786186
    outer loop
      vertex -47.728 39.9667 8.82734
      vertex -48.1897 50 8.82734
      vertex -49.0515 50 8.15064
    endloop
  endfacet
  facet normal -0.570563 -0.00831154 0.821212
    outer loop
      vertex -53.969 13.8385 3.80666
      vertex -55.4905 -14.7169 2.46055
      vertex -51.3912 -12.3502 5.33262
    endloop
  endfacet
  facet normal -0.570563 -0.00831154 0.821211
    outer loop
      vertex -55.4905 -14.7169 2.46055
      vertex -53.969 13.8385 3.80666
      vertex -55.9229 14.9666 2.46055
    endloop
  endfacet
  facet normal -0.570827 -0.00834844 0.821028
    outer loop
      vertex -51.6051 12.4737 5.43633
      vertex -51.3912 -12.3502 5.33262
      vertex -51.2433 -12.2648 5.43633
    endloop
  endfacet
  facet normal -0.570829 -0.00834845 0.821027
    outer loop
      vertex -51.3912 -12.3502 5.33262
      vertex -51.6051 12.4737 5.43633
      vertex -53.969 13.8385 3.80666
    endloop
  endfacet
  facet normal -0.515551 0.00652117 0.856834
    outer loop
      vertex -56.5607 -15.3348 1.81515
      vertex -59.586 -16.0124 0
      vertex -59.5996 -17.0893 0
    endloop
  endfacet
  facet normal -0.513246 -0.00744819 0.858209
    outer loop
      vertex -60 12.5159 0
      vertex -55.5207 -14.7344 2.44233
      vertex -58.623 16.5255 0.85832
    endloop
  endfacet
  facet normal -0.513247 -0.00744823 0.858209
    outer loop
      vertex -59.586 -16.0124 0
      vertex -55.5207 -14.7344 2.44233
      vertex -60 12.5159 0
    endloop
  endfacet
  facet normal -0.513246 -0.00744821 0.858209
    outer loop
      vertex -60 12.5159 0
      vertex -58.623 16.5255 0.85832
      vertex -60 17.3205 0.0416986
    endloop
  endfacet
  facet normal -0.513247 -0.00744585 0.858209
    outer loop
      vertex -55.5207 -14.7344 2.44233
      vertex -59.586 -16.0124 0
      vertex -56.5607 -15.3348 1.81515
    endloop
  endfacet
  facet normal -0.513486 -0.00748008 0.858065
    outer loop
      vertex -55.9229 14.9666 2.46055
      vertex -55.5207 -14.7344 2.44233
      vertex -55.4905 -14.7169 2.46055
    endloop
  endfacet
  facet normal -0.513493 -0.00748017 0.858061
    outer loop
      vertex -55.5207 -14.7344 2.44233
      vertex -55.9229 14.9666 2.46055
      vertex -58.623 16.5255 0.85832
    endloop
  endfacet
endsolid OpenSCAD_Model
