solid OpenSCAD_Model
  facet normal 1 0 0
    outer loop
      vertex 50 -14.0761 24.092
      vertex 50 -12.1244 0
      vertex 50 -12.1244 23.8478
    endloop
  endfacet
  facet normal 1 0 0
    outer loop
      vertex 50 -33.353 26.5436
      vertex 50 -12.1244 0
      vertex 50 -14.0761 24.092
    endloop
  endfacet
  facet normal 1 0 0
    outer loop
      vertex 50 -50 0
      vertex 50 -33.353 26.5436
      vertex 50 -37.5116 27.1107
    endloop
  endfacet
  facet normal 1 0 0
    outer loop
      vertex 50 -50 0
      vertex 50 -37.5116 27.1107
      vertex 50 -43.4726 27.9368
    endloop
  endfacet
  facet normal 1 0 0
    outer loop
      vertex 50 -50 0
      vertex 50 -43.4726 27.9368
      vertex 50 -50 28.9202
    endloop
  endfacet
  facet normal 1 0 0
    outer loop
      vertex 50 -33.353 26.5436
      vertex 50 -50 0
      vertex 50 -12.1244 0
    endloop
  endfacet
  facet normal 1 0 0
    outer loop
      vertex 50 34.4723 18.5957
      vertex 50 50 0
      vertex 50 50 17.0472
    endloop
  endfacet
  facet normal 1 0 0
    outer loop
      vertex 50 12.1244 0
      vertex 50 34.4723 18.5957
      vertex 50 13.2047 20.7465
    endloop
  endfacet
  facet normal 1 0 0
    outer loop
      vertex 50 12.1244 0
      vertex 50 13.2047 20.7465
      vertex 50 12.1244 20.8696
    endloop
  endfacet
  facet normal 1 0 0
    outer loop
      vertex 50 34.4723 18.5957
      vertex 50 12.1244 0
      vertex 50 50 0
    endloop
  endfacet
  facet normal 0 -1 0
    outer loop
      vertex 48.1854 -50 26.5436
      vertex 50 -50 0
      vertex 50 -50 28.9202
    endloop
  endfacet
  facet normal 0 -1 0
    outer loop
      vertex 47.6334 -50 25.868
      vertex 50 -50 0
      vertex 48.1854 -50 26.5436
    endloop
  endfacet
  facet normal 0 -1 0
    outer loop
      vertex 44.0174 -50 21.4917
      vertex 50 -50 0
      vertex 47.6334 -50 25.868
    endloop
  endfacet
  facet normal 0 -1 0
    outer loop
      vertex 43.3299 -50 20.7196
      vertex 50 -50 0
      vertex 44.0174 -50 21.4917
    endloop
  endfacet
  facet normal 0 -1 0
    outer loop
      vertex 39.8493 -50 16.855
      vertex 50 -50 0
      vertex 43.3299 -50 20.7196
    endloop
  endfacet
  facet normal 0 -1 0
    outer loop
      vertex 39.0229 -50 16.0102
      vertex 50 -50 0
      vertex 39.8493 -50 16.855
    endloop
  endfacet
  facet normal 0 -1 0
    outer loop
      vertex 35.6827 -50 12.6336
      vertex 50 -50 0
      vertex 39.0229 -50 16.0102
    endloop
  endfacet
  facet normal 0 -1 0
    outer loop
      vertex 34.7138 -50 11.7408
      vertex 50 -50 0
      vertex 35.6827 -50 12.6336
    endloop
  endfacet
  facet normal 0 -1 0
    outer loop
      vertex 31.5163 -50 8.82734
      vertex 50 -50 0
      vertex 34.7138 -50 11.7408
    endloop
  endfacet
  facet normal 0 -1 0
    outer loop
      vertex 30.4015 -50 7.91215
      vertex 50 -50 0
      vertex 31.5163 -50 8.82734
    endloop
  endfacet
  facet normal 0 -1 0
    outer loop
      vertex 27.3517 -50 5.43633
      vertex 50 -50 0
      vertex 30.4015 -50 7.91215
    endloop
  endfacet
  facet normal 0 -1 0
    outer loop
      vertex 26.0867 -50 4.52541
      vertex 50 -50 0
      vertex 27.3517 -50 5.43633
    endloop
  endfacet
  facet normal 0 -1 0
    outer loop
      vertex 23.1878 -50 2.46055
      vertex 50 -50 0
      vertex 26.0867 -50 4.52541
    endloop
  endfacet
  facet normal 0 -1 0
    outer loop
      vertex 21.7692 -50 1.58168
      vertex 50 -50 0
      vertex 23.1878 -50 2.46055
    endloop
  endfacet
  facet normal 0 -1 0
    outer loop
      vertex 50 -50 0
      vertex 21.7692 -50 1.58168
      vertex 19.1877 -50 0
    endloop
  endfacet
  facet normal 0 1 -0
    outer loop
      vertex 50 50 0
      vertex 49.8253 50 16.855
      vertex 50 50 17.0472
    endloop
  endfacet
  facet normal 0 1 0
    outer loop
      vertex 50 50 0
      vertex 48.3389 50 15.3549
      vertex 49.8253 50 16.855
    endloop
  endfacet
  facet normal 0 1 0
    outer loop
      vertex 50 50 0
      vertex 45.622 50 12.6336
      vertex 48.3389 50 15.3549
    endloop
  endfacet
  facet normal 0 1 0
    outer loop
      vertex 50 50 0
      vertex 44.0491 50 11.203
      vertex 45.622 50 12.6336
    endloop
  endfacet
  facet normal 0 1 0
    outer loop
      vertex 50 50 0
      vertex 41.4177 50 8.82734
      vertex 44.0491 50 11.203
    endloop
  endfacet
  facet normal 0 1 0
    outer loop
      vertex 50 50 0
      vertex 39.756 50 7.48108
      vertex 41.4177 50 8.82734
    endloop
  endfacet
  facet normal 0 1 0
    outer loop
      vertex 50 50 0
      vertex 37.2131 50 5.43633
      vertex 39.756 50 7.48108
    endloop
  endfacet
  facet normal 0 1 0
    outer loop
      vertex 50 50 0
      vertex 35.4598 50 4.19004
      vertex 37.2131 50 5.43633
    endloop
  endfacet
  facet normal 0 1 0
    outer loop
      vertex 50 50 0
      vertex 33.0091 50 2.46055
      vertex 35.4598 50 4.19004
    endloop
  endfacet
  facet normal 0 1 0
    outer loop
      vertex 50 50 0
      vertex 31.1611 50 1.3306
      vertex 33.0091 50 2.46055
    endloop
  endfacet
  facet normal 0 1 0
    outer loop
      vertex 31.1611 50 1.3306
      vertex 50 50 0
      vertex 28.9687 50 0
    endloop
  endfacet
  facet normal 1 0 0
    outer loop
      vertex 39.5 16.6526 9.79694
      vertex 39.5 18.1865 0
      vertex 39.5 18.1865 9.67129
    endloop
  endfacet
  facet normal 1 0 0
    outer loop
      vertex 39.5 -0.943272 11.4191
      vertex 39.5 18.1865 0
      vertex 39.5 16.6526 9.79694
    endloop
  endfacet
  facet normal 1 0 0
    outer loop
      vertex 39.5 -18.1865 0
      vertex 39.5 -0.943272 11.4191
      vertex 39.5 -13.9021 12.6336
    endloop
  endfacet
  facet normal 1 0 0
    outer loop
      vertex 39.5 -18.1865 0
      vertex 39.5 -13.9021 12.6336
      vertex 39.5 -18.1865 13.075
    endloop
  endfacet
  facet normal 1 0 0
    outer loop
      vertex 39.5 -0.943272 11.4191
      vertex 39.5 -18.1865 0
      vertex 39.5 18.1865 0
    endloop
  endfacet
  facet normal -0.5 -0.866025 0
    outer loop
      vertex 50 12.1244 0
      vertex 39.5 18.1865 9.67129
      vertex 39.5 18.1865 0
    endloop
  endfacet
  facet normal -0.5 -0.866025 6.1966e-08
    outer loop
      vertex 39.5 18.1865 9.67129
      vertex 50 12.1244 0
      vertex 42.5959 16.3991 12.6336
    endloop
  endfacet
  facet normal -0.500011 -0.866019 -8.30341e-06
    outer loop
      vertex 42.5959 16.3991 12.6336
      vertex 50 12.1244 0
      vertex 42.6502 16.3677 12.6908
    endloop
  endfacet
  facet normal -0.5 -0.866025 -1.91737e-08
    outer loop
      vertex 42.6502 16.3677 12.6908
      vertex 50 12.1244 0
      vertex 45.7179 14.5966 15.9487
    endloop
  endfacet
  facet normal -0.5 -0.866025 -2.62864e-08
    outer loop
      vertex 45.7179 14.5966 15.9487
      vertex 50 12.1244 0
      vertex 46.5542 14.1138 16.8392
    endloop
  endfacet
  facet normal -0.499953 -0.866053 1.2771e-05
    outer loop
      vertex 46.5542 14.1138 16.8392
      vertex 50 12.1244 0
      vertex 46.5689 14.1053 16.855
    endloop
  endfacet
  facet normal -0.5 -0.866025 0
    outer loop
      vertex 46.5689 14.1053 16.855
      vertex 50 12.1244 0
      vertex 50 12.1244 20.8696
    endloop
  endfacet
  facet normal -0.5 0.866025 0
    outer loop
      vertex 50 -12.1244 0
      vertex 47.9171 -13.3269 21.4917
      vertex 50 -12.1244 23.8478
    endloop
  endfacet
  facet normal -0.5 0.866025 1.68593e-08
    outer loop
      vertex 50 -12.1244 0
      vertex 45.5956 -14.6672 19.0597
      vertex 47.9171 -13.3269 21.4917
    endloop
  endfacet
  facet normal -0.5 0.866026 6.5531e-08
    outer loop
      vertex 50 -12.1244 0
      vertex 43.4726 -15.893 16.855
      vertex 45.5956 -14.6672 19.0597
    endloop
  endfacet
  facet normal -0.5 0.866025 1.44207e-08
    outer loop
      vertex 50 -12.1244 0
      vertex 40.79 -17.4418 14.2952
      vertex 43.4726 -15.893 16.855
    endloop
  endfacet
  facet normal -0.5 0.866025 -4.10993e-07
    outer loop
      vertex 50 -12.1244 0
      vertex 39.5 -18.1865 13.075
      vertex 40.79 -17.4418 14.2952
    endloop
  endfacet
  facet normal -0.5 0.866025 0
    outer loop
      vertex 39.5 -18.1865 13.075
      vertex 50 -12.1244 0
      vertex 39.5 -18.1865 0
    endloop
  endfacet
  facet normal 0 0 -1
    outer loop
      vertex 50 -50 0
      vertex 39.5 -18.1865 0
      vertex 50 -12.1244 0
    endloop
  endfacet
  facet normal 0 0 -1
    outer loop
      vertex 26.435 21.106 0
      vertex 39.5 18.1865 0
      vertex 39.5 -18.1865 0
    endloop
  endfacet
  facet normal 0 0 -1
    outer loop
      vertex 39.5 18.1865 0
      vertex 26.617 23.176 0
      vertex 28.9687 50 0
    endloop
  endfacet
  facet normal 0 0 -1
    outer loop
      vertex 39.5 18.1865 0
      vertex 26.435 21.106 0
      vertex 26.617 23.176 0
    endloop
  endfacet
  facet normal 0 0 -1
    outer loop
      vertex 21.235 -31.163 0
      vertex 39.5 -18.1865 0
      vertex 50 -50 0
    endloop
  endfacet
  facet normal -0 0 -1
    outer loop
      vertex 39.5 -18.1865 0
      vertex 21.441 -29.108 0
      vertex 26.435 21.106 0
    endloop
  endfacet
  facet normal 0 0 -1
    outer loop
      vertex 39.5 -18.1865 0
      vertex 21.235 -31.163 0
      vertex 21.441 -29.108 0
    endloop
  endfacet
  facet normal 0 -0 -1
    outer loop
      vertex 21.235 -31.163 0
      vertex 50 -50 0
      vertex 19.1877 -50 0
    endloop
  endfacet
  facet normal 0 0 -1
    outer loop
      vertex 39.5 18.1865 0
      vertex 50 50 0
      vertex 50 12.1244 0
    endloop
  endfacet
  facet normal -0 0 -1
    outer loop
      vertex 50 50 0
      vertex 39.5 18.1865 0
      vertex 28.9687 50 0
    endloop
  endfacet
  facet normal -0.791517 0.0910538 0.604327
    outer loop
      vertex 48.1854 -50 26.5436
      vertex 50 -43.4726 27.9368
      vertex 48.984 -43.058 26.5436
    endloop
  endfacet
  facet normal -0.791516 0.0910535 0.604327
    outer loop
      vertex 50 -43.4726 27.9368
      vertex 48.1854 -50 26.5436
      vertex 50 -50 28.9202
    endloop
  endfacet
  facet normal -0.790482 0.0827541 0.606869
    outer loop
      vertex 50 -37.5116 27.1107
      vertex 50 -33.353 26.5436
      vertex 48.984 -43.058 26.5436
    endloop
  endfacet
  facet normal -0.79313 0.0836054 0.603287
    outer loop
      vertex 50 -43.4726 27.9368
      vertex 50 -37.5116 27.1107
      vertex 48.984 -43.058 26.5436
    endloop
  endfacet
  facet normal -0.767933 0.0876616 0.634503
    outer loop
      vertex 44.0174 -50 21.4917
      vertex 48.984 -43.058 26.5436
      vertex 44.998 -41.41 21.4917
    endloop
  endfacet
  facet normal -0.767933 0.0876618 0.634503
    outer loop
      vertex 48.984 -43.058 26.5436
      vertex 44.0174 -50 21.4917
      vertex 47.6334 -50 25.868
    endloop
  endfacet
  facet normal -0.77129 0.088727 0.630269
    outer loop
      vertex 48.1854 -50 26.5436
      vertex 48.984 -43.058 26.5436
      vertex 47.6334 -50 25.868
    endloop
  endfacet
  facet normal -0.766673 0.0796928 0.637073
    outer loop
      vertex 47.9171 -13.3269 21.4917
      vertex 50 -14.0761 24.092
      vertex 50 -12.1244 23.8478
    endloop
  endfacet
  facet normal -0.766673 0.0796929 0.637073
    outer loop
      vertex 50 -14.0761 24.092
      vertex 47.9171 -13.3269 21.4917
      vertex 44.998 -41.41 21.4917
    endloop
  endfacet
  facet normal -0.76956 0.0805639 0.633472
    outer loop
      vertex 44.998 -41.41 21.4917
      vertex 50 -33.353 26.5436
      vertex 50 -14.0761 24.092
    endloop
  endfacet
  facet normal -0.76956 0.0805638 0.633472
    outer loop
      vertex 50 -33.353 26.5436
      vertex 44.998 -41.41 21.4917
      vertex 48.984 -43.058 26.5436
    endloop
  endfacet
  facet normal -0.740449 0.0838527 0.666861
    outer loop
      vertex 39.8493 -50 16.855
      vertex 44.998 -41.41 21.4917
      vertex 41.011 -39.742 16.855
    endloop
  endfacet
  facet normal -0.740449 0.0838525 0.666862
    outer loop
      vertex 44.998 -41.41 21.4917
      vertex 39.8493 -50 16.855
      vertex 43.3299 -50 20.7196
    endloop
  endfacet
  facet normal -0.744104 0.0849414 0.662642
    outer loop
      vertex 44.0174 -50 21.4917
      vertex 44.998 -41.41 21.4917
      vertex 43.3299 -50 20.7196
    endloop
  endfacet
  facet normal -0.739071 0.0762835 0.669294
    outer loop
      vertex 45.5956 -14.6672 19.0597
      vertex 43.4726 -15.893 16.855
      vertex 41.011 -39.742 16.855
    endloop
  endfacet
  facet normal -0.739072 0.0762815 0.669293
    outer loop
      vertex 46.5689 14.1053 16.855
      vertex 50 13.2047 20.7465
      vertex 46.59 14.31 16.855
    endloop
  endfacet
  facet normal -0.739072 0.0762843 0.669294
    outer loop
      vertex 50 13.2047 20.7465
      vertex 46.5689 14.1053 16.855
      vertex 50 12.1244 20.8696
    endloop
  endfacet
  facet normal -0.742085 0.0771371 0.665852
    outer loop
      vertex 44.998 -41.41 21.4917
      vertex 45.5956 -14.6672 19.0597
      vertex 41.011 -39.742 16.855
    endloop
  endfacet
  facet normal -0.742085 0.0771371 0.665853
    outer loop
      vertex 45.5956 -14.6672 19.0597
      vertex 44.998 -41.41 21.4917
      vertex 47.9171 -13.3269 21.4917
    endloop
  endfacet
  facet normal -0.73833 0.0669302 0.67111
    outer loop
      vertex 49.8253 50 16.855
      vertex 50 34.4723 18.5957
      vertex 50 50 17.0472
    endloop
  endfacet
  facet normal -0.738329 0.0669304 0.671112
    outer loop
      vertex 50 34.4723 18.5957
      vertex 49.8253 50 16.855
      vertex 46.59 14.31 16.855
    endloop
  endfacet
  facet normal -0.740789 0.0675868 0.668329
    outer loop
      vertex 50 13.2047 20.7465
      vertex 50 34.4723 18.5957
      vertex 46.59 14.31 16.855
    endloop
  endfacet
  facet normal -0.708682 0.0796215 0.701021
    outer loop
      vertex 35.6827 -50 12.6336
      vertex 41.011 -39.742 16.855
      vertex 37.025 -38.053 12.6336
    endloop
  endfacet
  facet normal -0.708682 0.0796215 0.701021
    outer loop
      vertex 41.011 -39.742 16.855
      vertex 35.6827 -50 12.6336
      vertex 39.0229 -50 16.0102
    endloop
  endfacet
  facet normal -0.712479 0.0806852 0.697039
    outer loop
      vertex 39.8493 -50 16.855
      vertex 41.011 -39.742 16.855
      vertex 39.0229 -50 16.0102
    endloop
  endfacet
  facet normal -0.707135 0.0724759 0.703355
    outer loop
      vertex 46.5542 14.1138 16.8392
      vertex 46.59 14.31 16.855
      vertex 45.7179 14.5966 15.9487
    endloop
  endfacet
  facet normal -0.707137 0.0724677 0.703353
    outer loop
      vertex 39.5 -13.9021 12.6336
      vertex 37.025 -38.053 12.6336
      vertex 39.5 -18.1865 13.075
    endloop
  endfacet
  facet normal -0.707138 0.0724678 0.703353
    outer loop
      vertex 40.79 -17.4418 14.2952
      vertex 39.5 -18.1865 13.075
      vertex 37.025 -38.053 12.6336
    endloop
  endfacet
  facet normal -0.710323 0.0733162 0.700047
    outer loop
      vertex 41.011 -39.742 16.855
      vertex 40.79 -17.4418 14.2952
      vertex 37.025 -38.053 12.6336
    endloop
  endfacet
  facet normal -0.710323 0.0733162 0.700047
    outer loop
      vertex 40.79 -17.4418 14.2952
      vertex 41.011 -39.742 16.855
      vertex 43.4726 -15.893 16.855
    endloop
  endfacet
  facet normal -0.710257 0.0733074 0.700115
    outer loop
      vertex 46.5689 14.1053 16.855
      vertex 46.59 14.31 16.855
      vertex 46.5542 14.1138 16.8392
    endloop
  endfacet
  facet normal -0.706254 0.0636058 0.705096
    outer loop
      vertex 42.5959 16.3991 12.6336
      vertex 48.3389 50 15.3549
      vertex 45.622 50 12.6336
    endloop
  endfacet
  facet normal -0.706266 0.063609 0.705083
    outer loop
      vertex 48.3389 50 15.3549
      vertex 42.5959 16.3991 12.6336
      vertex 42.6502 16.3677 12.6908
    endloop
  endfacet
  facet normal -0.70886 0.064259 0.702416
    outer loop
      vertex 42.6502 16.3677 12.6908
      vertex 49.8253 50 16.855
      vertex 48.3389 50 15.3549
    endloop
  endfacet
  facet normal -0.708858 0.0642665 0.702417
    outer loop
      vertex 46.59 14.31 16.855
      vertex 42.6502 16.3677 12.6908
      vertex 45.7179 14.5966 15.9487
    endloop
  endfacet
  facet normal -0.70886 0.064259 0.702416
    outer loop
      vertex 42.6502 16.3677 12.6908
      vertex 46.59 14.31 16.855
      vertex 49.8253 50 16.855
    endloop
  endfacet
  facet normal -0.675679 0.0759135 0.733277
    outer loop
      vertex 35.6827 -50 12.6336
      vertex 37.025 -38.053 12.6336
      vertex 34.7138 -50 11.7408
    endloop
  endfacet
  facet normal -0.671615 0.0748407 0.737111
    outer loop
      vertex 31.5163 -50 8.82734
      vertex 37.025 -38.053 12.6336
      vertex 33.038 -36.344 8.82734
    endloop
  endfacet
  facet normal -0.671615 0.0748408 0.73711
    outer loop
      vertex 37.025 -38.053 12.6336
      vertex 31.5163 -50 8.82734
      vertex 34.7138 -50 11.7408
    endloop
  endfacet
  facet normal -0.673245 0.0689946 0.736193
    outer loop
      vertex 33.038 -36.344 8.82734
      vertex 39.5 -13.9021 12.6336
      vertex 39.5 -0.943272 11.4191
    endloop
  endfacet
  facet normal -0.673245 0.0689945 0.736193
    outer loop
      vertex 39.5 -13.9021 12.6336
      vertex 33.038 -36.344 8.82734
      vertex 37.025 -38.053 12.6336
    endloop
  endfacet
  facet normal -0.66991 0.0681577 0.739307
    outer loop
      vertex 38.465 16.997 8.82734
      vertex 39.5 -0.943272 11.4191
      vertex 39.5 16.6526 9.79694
    endloop
  endfacet
  facet normal -0.66991 0.0681578 0.739307
    outer loop
      vertex 39.5 -0.943272 11.4191
      vertex 38.465 16.997 8.82734
      vertex 33.038 -36.344 8.82734
    endloop
  endfacet
  facet normal -0.671628 0.0604874 0.738416
    outer loop
      vertex 39.5 18.1865 9.67129
      vertex 45.622 50 12.6336
      vertex 44.0491 50 11.203
    endloop
  endfacet
  facet normal -0.671627 0.0604873 0.738416
    outer loop
      vertex 45.622 50 12.6336
      vertex 39.5 18.1865 9.67129
      vertex 42.5959 16.3991 12.6336
    endloop
  endfacet
  facet normal -0.671628 0.0604871 0.738416
    outer loop
      vertex 39.5 18.1865 9.67129
      vertex 38.465 16.997 8.82734
      vertex 39.5 16.6526 9.79694
    endloop
  endfacet
  facet normal -0.671628 0.0604874 0.738415
    outer loop
      vertex 38.465 16.997 8.82734
      vertex 39.5 18.1865 9.67129
      vertex 44.0491 50 11.203
    endloop
  endfacet
  facet normal -0.668902 0.0598445 0.740938
    outer loop
      vertex 44.0491 50 11.203
      vertex 41.4177 50 8.82734
      vertex 38.465 16.997 8.82734
    endloop
  endfacet
  facet normal -0.632942 0.0705312 0.77098
    outer loop
      vertex 31.5163 -50 8.82734
      vertex 33.038 -36.344 8.82734
      vertex 30.4015 -50 7.91215
    endloop
  endfacet
  facet normal -0.628738 0.0694833 0.774506
    outer loop
      vertex 27.3517 -50 5.43633
      vertex 33.038 -36.344 8.82734
      vertex 29.052 -34.614 5.43633
    endloop
  endfacet
  facet normal -0.628738 0.0694833 0.774506
    outer loop
      vertex 33.038 -36.344 8.82734
      vertex 27.3517 -50 5.43633
      vertex 30.4015 -50 7.91215
    endloop
  endfacet
  facet normal -0.630343 0.0641322 0.773663
    outer loop
      vertex 33.038 -36.344 8.82734
      vertex 38.465 16.997 8.82734
      vertex 29.052 -34.614 5.43633
    endloop
  endfacet
  facet normal -0.626811 0.0632951 0.776596
    outer loop
      vertex 38.465 16.997 8.82734
      vertex 34.402 18.367 5.43633
      vertex 29.052 -34.614 5.43633
    endloop
  endfacet
  facet normal -0.628504 0.0562303 0.775771
    outer loop
      vertex 34.402 18.367 5.43633
      vertex 41.4177 50 8.82734
      vertex 39.756 50 7.48108
    endloop
  endfacet
  facet normal -0.628504 0.0562303 0.775771
    outer loop
      vertex 41.4177 50 8.82734
      vertex 34.402 18.367 5.43633
      vertex 38.465 16.997 8.82734
    endloop
  endfacet
  facet normal -0.625683 0.0556027 0.778093
    outer loop
      vertex 39.756 50 7.48108
      vertex 37.2131 50 5.43633
      vertex 34.402 18.367 5.43633
    endloop
  endfacet
  facet normal -0.583156 0.064446 0.8098
    outer loop
      vertex 27.3517 -50 5.43633
      vertex 29.052 -34.614 5.43633
      vertex 26.0867 -50 4.52541
    endloop
  endfacet
  facet normal -0.578988 0.0634612 0.812863
    outer loop
      vertex 23.1878 -50 2.46055
      vertex 29.052 -34.614 5.43633
      vertex 25.066 -32.864 2.46055
    endloop
  endfacet
  facet normal -0.578988 0.0634611 0.812863
    outer loop
      vertex 29.052 -34.614 5.43633
      vertex 23.1878 -50 2.46055
      vertex 26.0867 -50 4.52541
    endloop
  endfacet
  facet normal -0.58055 0.0586238 0.812111
    outer loop
      vertex 29.052 -34.614 5.43633
      vertex 34.402 18.367 5.43633
      vertex 25.066 -32.864 2.46055
    endloop
  endfacet
  facet normal -0.57696 0.0578177 0.814724
    outer loop
      vertex 34.402 18.367 5.43633
      vertex 30.339 19.755 2.46055
      vertex 25.066 -32.864 2.46055
    endloop
  endfacet
  facet normal -0.578605 0.051419 0.813986
    outer loop
      vertex 30.339 19.755 2.46055
      vertex 37.2131 50 5.43633
      vertex 35.4598 50 4.19004
    endloop
  endfacet
  facet normal -0.578605 0.0514191 0.813985
    outer loop
      vertex 37.2131 50 5.43633
      vertex 30.339 19.755 2.46055
      vertex 34.402 18.367 5.43633
    endloop
  endfacet
  facet normal -0.57583 0.0508347 0.815987
    outer loop
      vertex 35.4598 50 4.19004
      vertex 33.0091 50 2.46055
      vertex 30.339 19.755 2.46055
    endloop
  endfacet
  facet normal -0.52578 0.0576293 0.848666
    outer loop
      vertex 23.1878 -50 2.46055
      vertex 25.066 -32.864 2.46055
      vertex 21.7692 -50 1.58168
    endloop
  endfacet
  facet normal -0.5216 0.0566897 0.851305
    outer loop
      vertex 19.1877 -50 0
      vertex 25.066 -32.864 2.46055
      vertex 21.235 -31.163 0
    endloop
  endfacet
  facet normal -0.5216 0.0566897 0.851305
    outer loop
      vertex 25.066 -32.864 2.46055
      vertex 19.1877 -50 0
      vertex 21.7692 -50 1.58168
    endloop
  endfacet
  facet normal -0.523092 0.0524196 0.850663
    outer loop
      vertex 25.066 -32.864 2.46055
      vertex 30.339 19.755 2.46055
      vertex 21.441 -29.108 0
    endloop
  endfacet
  facet normal -0.52308 0.0524352 0.850669
    outer loop
      vertex 25.066 -32.864 2.46055
      vertex 21.441 -29.108 0
      vertex 21.235 -31.163 0
    endloop
  endfacet
  facet normal -0.519624 0.0516789 0.852831
    outer loop
      vertex 30.339 19.755 2.46055
      vertex 26.435 21.106 0
      vertex 21.441 -29.108 0
    endloop
  endfacet
  facet normal -0.521119 0.0460047 0.852243
    outer loop
      vertex 26.617 23.176 0
      vertex 33.0091 50 2.46055
      vertex 31.1611 50 1.3306
    endloop
  endfacet
  facet normal -0.521119 0.0460048 0.852243
    outer loop
      vertex 33.0091 50 2.46055
      vertex 26.617 23.176 0
      vertex 30.339 19.755 2.46055
    endloop
  endfacet
  facet normal -0.521238 0.045829 0.85218
    outer loop
      vertex 30.339 19.755 2.46055
      vertex 26.617 23.176 0
      vertex 26.435 21.106 0
    endloop
  endfacet
  facet normal -0.518302 0.045441 0.853989
    outer loop
      vertex 31.1611 50 1.3306
      vertex 28.9687 50 0
      vertex 26.617 23.176 0
    endloop
  endfacet
endsolid OpenSCAD_Model
