solid OpenSCAD_Model
  facet normal -1 0 0
    outer loop
      vertex -50 50 0
      vertex -50 32.9061 6.93796
      vertex -50 50 6.7662
    endloop
  endfacet
  facet normal -1 0 0
    outer loop
      vertex -50 11.547 0
      vertex -50 32.9061 6.93796
      vertex -50 50 0
    endloop
  endfacet
  facet normal -1 -0 0
    outer loop
      vertex -50 32.9061 6.93796
      vertex -50 11.547 0
      vertex -50 11.547 7.55968
    endloop
  endfacet
  facet normal -1 0 0
    outer loop
      vertex -50 -11.547 0
      vertex -50 -20.8777 8.50274
      vertex -50 -11.547 8.23188
    endloop
  endfacet
  facet normal -1 0 0
    outer loop
      vertex -50 -11.547 0
      vertex -50 -23.8698 8.63856
      vertex -50 -20.8777 8.50274
    endloop
  endfacet
  facet normal -1 0 0
    outer loop
      vertex -50 -11.547 0
      vertex -50 -27.9912 8.82734
      vertex -50 -23.8698 8.63856
    endloop
  endfacet
  facet normal -1 0 0
    outer loop
      vertex -50 -50 0
      vertex -50 -27.9912 8.82734
      vertex -50 -11.547 0
    endloop
  endfacet
  facet normal -1 -0 0
    outer loop
      vertex -50 -27.9912 8.82734
      vertex -50 -50 0
      vertex -50 -50 9.95478
    endloop
  endfacet
  facet normal 1 -0 0
    outer loop
      vertex 50 -50 99.8
      vertex 50 50 0
      vertex 50 50 99.8
    endloop
  endfacet
  facet normal 1 0 0
    outer loop
      vertex 50 50 0
      vertex 50 -50 99.8
      vertex 50 -50 0
    endloop
  endfacet
  facet normal 0 -1 0
    outer loop
      vertex 11.547 -50 0
      vertex 50 -50 99.8
      vertex 11.547 -50 99.8
    endloop
  endfacet
  facet normal 0 -1 -0
    outer loop
      vertex 50 -50 99.8
      vertex 11.547 -50 0
      vertex 50 -50 0
    endloop
  endfacet
  facet normal 0 -1 0
    outer loop
      vertex -50 -50 0
      vertex -49.294 -50 10.5895
      vertex -50 -50 9.95478
    endloop
  endfacet
  facet normal 0 -1 0
    outer loop
      vertex -50 -50 0
      vertex -47.0296 -50 12.6336
      vertex -49.294 -50 10.5895
    endloop
  endfacet
  facet normal 0 -1 0
    outer loop
      vertex -50 -50 0
      vertex -45.0473 -50 14.6105
      vertex -47.0296 -50 12.6336
    endloop
  endfacet
  facet normal 0 -1 0
    outer loop
      vertex -11.547 -50 0
      vertex -45.0473 -50 14.6105
      vertex -50 -50 0
    endloop
  endfacet
  facet normal 0 -1 0
    outer loop
      vertex -45.0473 -50 14.6105
      vertex -11.547 -50 0
      vertex -42.8052 -50 16.855
    endloop
  endfacet
  facet normal 0 -1 0
    outer loop
      vertex -42.8052 -50 16.855
      vertex -11.547 -50 0
      vertex -40.8019 -50 19.0497
    endloop
  endfacet
  facet normal 0 -1 0
    outer loop
      vertex -40.8019 -50 19.0497
      vertex -11.547 -50 0
      vertex -38.5814 -50 21.4917
    endloop
  endfacet
  facet normal 0 -1 0
    outer loop
      vertex -38.5814 -50 21.4917
      vertex -11.547 -50 0
      vertex -36.5585 -50 23.9067
    endloop
  endfacet
  facet normal 0 -1 0
    outer loop
      vertex -36.5585 -50 23.9067
      vertex -11.547 -50 0
      vertex -34.3586 -50 26.5436
    endloop
  endfacet
  facet normal 0 -1 0
    outer loop
      vertex -34.3586 -50 26.5436
      vertex -11.547 -50 0
      vertex -32.3173 -50 29.1814
    endloop
  endfacet
  facet normal 0 -1 0
    outer loop
      vertex -32.3173 -50 29.1814
      vertex -11.547 -50 0
      vertex -30.1359 -50 32.0107
    endloop
  endfacet
  facet normal 0 -1 0
    outer loop
      vertex -30.1359 -50 32.0107
      vertex -11.547 -50 0
      vertex -28.0769 -50 34.8731
    endloop
  endfacet
  facet normal 0 -1 0
    outer loop
      vertex -28.0769 -50 34.8731
      vertex -11.547 -50 0
      vertex -25.9138 -50 37.8931
    endloop
  endfacet
  facet normal 0 -1 0
    outer loop
      vertex -25.9138 -50 37.8931
      vertex -11.547 -50 0
      vertex -23.8394 -50 40.9817
    endloop
  endfacet
  facet normal 0 -1 0
    outer loop
      vertex -13.2515 -50 58.0315
      vertex -11.547 -50 0
      vertex -11.547 -50 61.0728
    endloop
  endfacet
  facet normal 0 -1 0
    outer loop
      vertex -15.369 -50 54.4484
      vertex -11.547 -50 0
      vertex -13.2515 -50 58.0315
    endloop
  endfacet
  facet normal 0 -1 0
    outer loop
      vertex -17.4718 -50 50.9035
      vertex -11.547 -50 0
      vertex -15.369 -50 54.4484
    endloop
  endfacet
  facet normal 0 -1 0
    outer loop
      vertex -19.6031 -50 47.507
      vertex -11.547 -50 0
      vertex -17.4718 -50 50.9035
    endloop
  endfacet
  facet normal 0 -1 0
    outer loop
      vertex -21.6923 -50 44.1907
      vertex -11.547 -50 0
      vertex -19.6031 -50 47.507
    endloop
  endfacet
  facet normal 0 -1 0
    outer loop
      vertex -23.8394 -50 40.9817
      vertex -11.547 -50 0
      vertex -21.6923 -50 44.1907
    endloop
  endfacet
  facet normal 0 1 -0
    outer loop
      vertex 50 50 0
      vertex 12.1244 50 99.8
      vertex 50 50 99.8
    endloop
  endfacet
  facet normal 0 1 0
    outer loop
      vertex 12.1244 50 99.8
      vertex 50 50 0
      vertex 12.1244 50 0
    endloop
  endfacet
  facet normal 0 1 0
    outer loop
      vertex -12.1244 50 0
      vertex -14.3568 50 49.3747
      vertex -13.3879 50 50.9035
    endloop
  endfacet
  facet normal 0 1 0
    outer loop
      vertex -12.1244 50 0
      vertex -18.6572 50 42.6852
      vertex -17.6399 50 44.1907
    endloop
  endfacet
  facet normal 0 1 0
    outer loop
      vertex -12.1244 50 0
      vertex -22.9584 50 36.4201
      vertex -21.893 50 37.8931
    endloop
  endfacet
  facet normal 0 1 0
    outer loop
      vertex -12.1244 50 0
      vertex -27.2603 50 30.5794
      vertex -26.1461 50 32.0107
    endloop
  endfacet
  facet normal 0 1 0
    outer loop
      vertex -12.1244 50 0
      vertex -31.5623 50 25.1632
      vertex -30.3996 50 26.5436
    endloop
  endfacet
  facet normal 0 1 0
    outer loop
      vertex -12.1244 50 0
      vertex -35.864 50 20.1714
      vertex -34.6523 50 21.4917
    endloop
  endfacet
  facet normal 0 1 0
    outer loop
      vertex -12.1244 50 0
      vertex -40.1671 50 15.6042
      vertex -38.9059 50 16.855
    endloop
  endfacet
  facet normal 0 1 0
    outer loop
      vertex -50 50 0
      vertex -44.4703 50 11.4617
      vertex -43.16 50 12.6336
    endloop
  endfacet
  facet normal 0 1 0
    outer loop
      vertex -50 50 0
      vertex -48.7739 50 7.74373
      vertex -47.414 50 8.82734
    endloop
  endfacet
  facet normal 0 1 -0
    outer loop
      vertex -12.1244 50 0
      vertex -13.3879 50 50.9035
      vertex -12.1244 50 53.0217
    endloop
  endfacet
  facet normal 0 1 0
    outer loop
      vertex -14.3568 50 49.3747
      vertex -12.1244 50 0
      vertex -17.6399 50 44.1907
    endloop
  endfacet
  facet normal 0 1 0
    outer loop
      vertex -18.6572 50 42.6852
      vertex -12.1244 50 0
      vertex -21.893 50 37.8931
    endloop
  endfacet
  facet normal 0 1 0
    outer loop
      vertex -22.9584 50 36.4201
      vertex -12.1244 50 0
      vertex -26.1461 50 32.0107
    endloop
  endfacet
  facet normal 0 1 0
    outer loop
      vertex -27.2603 50 30.5794
      vertex -12.1244 50 0
      vertex -30.3996 50 26.5436
    endloop
  endfacet
  facet normal 0 1 0
    outer loop
      vertex -31.5623 50 25.1632
      vertex -12.1244 50 0
      vertex -34.6523 50 21.4917
    endloop
  endfacet
  facet normal 0 1 0
    outer loop
      vertex -35.864 50 20.1714
      vertex -12.1244 50 0
      vertex -38.9059 50 16.855
    endloop
  endfacet
  facet normal 0 1 0
    outer loop
      vertex -40.1671 50 15.6042
      vertex -12.1244 50 0
      vertex -43.16 50 12.6336
    endloop
  endfacet
  facet normal 0 1 0
    outer loop
      vertex -50 50 0
      vertex -43.16 50 12.6336
      vertex -12.1244 50 0
    endloop
  endfacet
  facet normal 0 1 0
    outer loop
      vertex -44.4703 50 11.4617
      vertex -50 50 0
      vertex -47.414 50 8.82734
    endloop
  endfacet
  facet normal 0 1 0
    outer loop
      vertex -48.7739 50 7.74373
      vertex -50 50 0
      vertex -50 50 6.7662
    endloop
  endfacet
  facet normal -1 0 0
    outer loop
      vertex -60 -17.3205 0
      vertex -60 17.3205 0.458776
      vertex -60 17.3205 0
    endloop
  endfacet
  facet normal -1 -0 0
    outer loop
      vertex -60 17.3205 0.458776
      vertex -60 -17.3205 0
      vertex -60 -17.3205 1.2108
    endloop
  endfacet
  facet normal 0.499999 0.866026 -0
    outer loop
      vertex -50 11.547 0
      vertex -51.0062 12.1279 6.73857
      vertex -50 11.547 7.55968
    endloop
  endfacet
  facet normal 0.5 0.866025 -1.76103e-09
    outer loop
      vertex -50 11.547 0
      vertex -55.3748 14.6501 3.44808
      vertex -52.5985 13.0472 5.43633
    endloop
  endfacet
  facet normal 0.500001 0.866025 -1.55411e-06
    outer loop
      vertex -60 17.3205 0
      vertex -59.7485 17.1753 0.613994
      vertex -56.751 15.4447 2.46055
    endloop
  endfacet
  facet normal 0.5 0.866025 1.7247e-07
    outer loop
      vertex -51.0062 12.1279 6.73857
      vertex -50 11.547 0
      vertex -52.5985 13.0472 5.43633
    endloop
  endfacet
  facet normal 0.5 0.866026 -2.24532e-07
    outer loop
      vertex -55.3748 14.6501 3.44808
      vertex -50 11.547 0
      vertex -56.751 15.4447 2.46055
    endloop
  endfacet
  facet normal 0.5 0.866025 1.75262e-07
    outer loop
      vertex -60 17.3205 0
      vertex -56.751 15.4447 2.46055
      vertex -50 11.547 0
    endloop
  endfacet
  facet normal 0.499998 0.866027 0
    outer loop
      vertex -59.7485 17.1753 0.613994
      vertex -60 17.3205 0
      vertex -60 17.3205 0.458776
    endloop
  endfacet
  facet normal 0.5 -0.866025 1.55118e-07
    outer loop
      vertex -50 -11.547 0
      vertex -54.1271 -13.9298 5.04974
      vertex -57.8889 -16.1017 2.46055
    endloop
  endfacet
  facet normal 0.499999 -0.866026 0
    outer loop
      vertex -60 -17.3205 0
      vertex -58.2554 -16.3132 2.24401
      vertex -60 -17.3205 1.2108
    endloop
  endfacet
  facet normal 0.500003 -0.866024 -3.61136e-06
    outer loop
      vertex -58.2554 -16.3132 2.24401
      vertex -60 -17.3205 0
      vertex -57.8889 -16.1017 2.46055
    endloop
  endfacet
  facet normal 0.5 -0.866025 -2.01619e-07
    outer loop
      vertex -50 -11.547 0
      vertex -57.8889 -16.1017 2.46055
      vertex -60 -17.3205 0
    endloop
  endfacet
  facet normal 0.5 -0.866025 3.48794e-07
    outer loop
      vertex -54.1271 -13.9298 5.04974
      vertex -50 -11.547 0
      vertex -53.5643 -13.6048 5.43633
    endloop
  endfacet
  facet normal 0.5 -0.866026 0
    outer loop
      vertex -53.5643 -13.6048 5.43633
      vertex -50 -11.547 0
      vertex -50 -11.547 8.23188
    endloop
  endfacet
  facet normal 0 -1 0
    outer loop
      vertex 4.46852 -60 93.8627
      vertex 17.3205 -60 99.8
      vertex 7.18326 -60 99.8
    endloop
  endfacet
  facet normal 0 -1 0
    outer loop
      vertex 3.01501 -60 90.6958
      vertex 17.3205 -60 99.8
      vertex 4.46852 -60 93.8627
    endloop
  endfacet
  facet normal 0 -1 0
    outer loop
      vertex 0.240377 -60 84.9016
      vertex 17.3205 -60 99.8
      vertex 3.01501 -60 90.6958
    endloop
  endfacet
  facet normal 0 -1 0
    outer loop
      vertex -1.19943 -60 81.9069
      vertex 17.3205 -60 99.8
      vertex 0.240377 -60 84.9016
    endloop
  endfacet
  facet normal 0 -1 0
    outer loop
      vertex -3.9903 -60 76.3563
      vertex 17.3205 -60 99.8
      vertex -1.19943 -60 81.9069
    endloop
  endfacet
  facet normal 0 -1 0
    outer loop
      vertex 17.3205 -60 0
      vertex -3.9903 -60 76.3563
      vertex -5.41515 -60 73.5332
    endloop
  endfacet
  facet normal 0 -1 0
    outer loop
      vertex 17.3205 -60 0
      vertex -5.41515 -60 73.5332
      vertex -8.22206 -60 68.2271
    endloop
  endfacet
  facet normal 0 -1 0
    outer loop
      vertex 17.3205 -60 0
      vertex -8.22206 -60 68.2271
      vertex -9.63082 -60 65.5747
    endloop
  endfacet
  facet normal 0 -1 0
    outer loop
      vertex 17.3205 -60 0
      vertex -9.63082 -60 65.5747
      vertex -12.4563 -60 60.5143
    endloop
  endfacet
  facet normal 0 -1 0
    outer loop
      vertex 17.3205 -60 0
      vertex -12.4563 -60 60.5143
      vertex -13.8478 -60 58.0315
    endloop
  endfacet
  facet normal 0 -1 0
    outer loop
      vertex 17.3205 -60 0
      vertex -13.8478 -60 58.0315
      vertex -16.6923 -60 53.2182
    endloop
  endfacet
  facet normal 0 -1 0
    outer loop
      vertex 17.3205 -60 0
      vertex -16.6923 -60 53.2182
      vertex -17.3205 -60 52.1592
    endloop
  endfacet
  facet normal 0 -1 0
    outer loop
      vertex 17.3205 -60 0
      vertex -17.3205 -60 52.1592
      vertex -17.3205 -60 0
    endloop
  endfacet
  facet normal 0 -1 0
    outer loop
      vertex -3.9903 -60 76.3563
      vertex 17.3205 -60 0
      vertex 17.3205 -60 99.8
    endloop
  endfacet
  facet normal -0.866025 0.5 0
    outer loop
      vertex -11.547 -50 0
      vertex -13.4478 -53.2923 58.0315
      vertex -11.547 -50 61.0728
    endloop
  endfacet
  facet normal -0.866025 0.5 1.29272e-08
    outer loop
      vertex -11.547 -50 0
      vertex -16.5055 -58.5884 53.3918
      vertex -13.4478 -53.2923 58.0315
    endloop
  endfacet
  facet normal -0.866025 0.5 0
    outer loop
      vertex -17.3205 -60 52.1592
      vertex -11.547 -50 0
      vertex -17.3205 -60 0
    endloop
  endfacet
  facet normal -0.866026 0.5 -8.5715e-08
    outer loop
      vertex -11.547 -50 0
      vertex -17.3205 -60 52.1592
      vertex -16.5055 -58.5884 53.3918
    endloop
  endfacet
  facet normal 0.866025 0.5 0
    outer loop
      vertex 17.3205 -60 99.8
      vertex 11.547 -50 0
      vertex 11.547 -50 99.8
    endloop
  endfacet
  facet normal 0.866025 0.5 0
    outer loop
      vertex 11.547 -50 0
      vertex 17.3205 -60 99.8
      vertex 17.3205 -60 0
    endloop
  endfacet
  facet normal 0 1 0
    outer loop
      vertex 18.1865 39.5 99.8
      vertex 7.74695 39.5 90.7439
      vertex 11.9156 39.5 99.8
    endloop
  endfacet
  facet normal 0 1 0
    outer loop
      vertex 18.1865 39.5 99.8
      vertex 7.72484 39.5 90.6958
      vertex 7.74695 39.5 90.7439
    endloop
  endfacet
  facet normal 0 1 0
    outer loop
      vertex 18.1865 39.5 99.8
      vertex 5.37676 39.5 85.8241
      vertex 7.72484 39.5 90.6958
    endloop
  endfacet
  facet normal 0 1 0
    outer loop
      vertex 18.1865 39.5 99.8
      vertex 3.48236 39.5 81.9069
      vertex 5.37676 39.5 85.8241
    endloop
  endfacet
  facet normal 0 1 0
    outer loop
      vertex 18.1865 39.5 99.8
      vertex 3.46401 39.5 81.8708
      vertex 3.48236 39.5 81.9069
    endloop
  endfacet
  facet normal 0 1 -0
    outer loop
      vertex 18.1865 39.5 0
      vertex 3.46401 39.5 81.8708
      vertex 18.1865 39.5 99.8
    endloop
  endfacet
  facet normal 0 1 0
    outer loop
      vertex 3.46401 39.5 81.8708
      vertex 18.1865 39.5 0
      vertex -0.76926 39.5 73.5332
    endloop
  endfacet
  facet normal 0 1 0
    outer loop
      vertex -0.76926 39.5 73.5332
      vertex 18.1865 39.5 0
      vertex -0.828593 39.5 73.4222
    endloop
  endfacet
  facet normal 0 1 0
    outer loop
      vertex -0.828593 39.5 73.4222
      vertex 18.1865 39.5 0
      vertex -5.02105 39.5 65.5747
    endloop
  endfacet
  facet normal 0 1 0
    outer loop
      vertex -5.02105 39.5 65.5747
      vertex 18.1865 39.5 0
      vertex -5.12141 39.5 65.3968
    endloop
  endfacet
  facet normal 0 1 0
    outer loop
      vertex -5.12141 39.5 65.3968
      vertex 18.1865 39.5 0
      vertex -9.27304 39.5 58.0315
    endloop
  endfacet
  facet normal 0 1 0
    outer loop
      vertex -9.27304 39.5 58.0315
      vertex 18.1865 39.5 0
      vertex -9.4144 39.5 57.7947
    endloop
  endfacet
  facet normal 0 1 0
    outer loop
      vertex -9.4144 39.5 57.7947
      vertex 18.1865 39.5 0
      vertex -13.5252 39.5 50.9035
    endloop
  endfacet
  facet normal 0 1 0
    outer loop
      vertex -13.5252 39.5 50.9035
      vertex 18.1865 39.5 0
      vertex -13.7076 39.5 50.6157
    endloop
  endfacet
  facet normal 0 1 0
    outer loop
      vertex 18.1865 39.5 0
      vertex -18.0001 39.5 43.8599
      vertex -17.7765 39.5 44.1907
    endloop
  endfacet
  facet normal 0 1 0
    outer loop
      vertex -13.7076 39.5 50.6157
      vertex 18.1865 39.5 0
      vertex -17.7765 39.5 44.1907
    endloop
  endfacet
  facet normal 0 1 0
    outer loop
      vertex -18.0001 39.5 43.8599
      vertex 18.1865 39.5 0
      vertex -18.1865 39.5 43.5837
    endloop
  endfacet
  facet normal 0 1 0
    outer loop
      vertex -18.1865 39.5 43.5837
      vertex 18.1865 39.5 0
      vertex -18.1865 39.5 0
    endloop
  endfacet
  facet normal 0.866025 -0.5 0
    outer loop
      vertex -13.4172 47.7608 50.9035
      vertex -12.1244 50 0
      vertex -12.1244 50 53.0217
    endloop
  endfacet
  facet normal 0.866025 -0.5 1.16436e-09
    outer loop
      vertex -14.1409 46.5073 49.7875
      vertex -12.1244 50 0
      vertex -13.4172 47.7608 50.9035
    endloop
  endfacet
  facet normal 0.866025 -0.5 -2.04125e-08
    outer loop
      vertex -17.7671 40.2266 44.1907
      vertex -12.1244 50 0
      vertex -14.1409 46.5073 49.7875
    endloop
  endfacet
  facet normal 0.866027 -0.499996 1.04782e-06
    outer loop
      vertex -18.0183 39.7914 43.8273
      vertex -12.1244 50 0
      vertex -17.7671 40.2266 44.1907
    endloop
  endfacet
  facet normal 0.866023 -0.500004 -1.19035e-06
    outer loop
      vertex -18.1865 39.5 43.5837
      vertex -12.1244 50 0
      vertex -18.0183 39.7914 43.8273
    endloop
  endfacet
  facet normal 0.866025 -0.5 0
    outer loop
      vertex -12.1244 50 0
      vertex -18.1865 39.5 43.5837
      vertex -18.1865 39.5 0
    endloop
  endfacet
  facet normal -0.866025 -0.5 0
    outer loop
      vertex 18.1865 39.5 0
      vertex 12.1244 50 99.8
      vertex 12.1244 50 0
    endloop
  endfacet
  facet normal -0.866025 -0.5 0
    outer loop
      vertex 12.1244 50 99.8
      vertex 18.1865 39.5 0
      vertex 18.1865 39.5 99.8
    endloop
  endfacet
  facet normal 0 0 1
    outer loop
      vertex 9.619 -19.825 99.8
      vertex 50 50 99.8
      vertex 18.1865 39.5 99.8
    endloop
  endfacet
  facet normal 0 -0 1
    outer loop
      vertex 18.1865 39.5 99.8
      vertex 50 50 99.8
      vertex 12.1244 50 99.8
    endloop
  endfacet
  facet normal 0 0 1
    outer loop
      vertex 9.619 -19.825 99.8
      vertex 18.1865 39.5 99.8
      vertex 11.9156 39.5 99.8
    endloop
  endfacet
  facet normal 0 0 1
    outer loop
      vertex 50 50 99.8
      vertex 9.619 -19.825 99.8
      vertex 50 -50 99.8
    endloop
  endfacet
  facet normal -0 0 1
    outer loop
      vertex 9.594 -20.481 99.8
      vertex 50 -50 99.8
      vertex 9.619 -19.825 99.8
    endloop
  endfacet
  facet normal -0 0 1
    outer loop
      vertex 9.554 -21.135 99.8
      vertex 50 -50 99.8
      vertex 9.594 -20.481 99.8
    endloop
  endfacet
  facet normal 0 0 1
    outer loop
      vertex 50 -50 99.8
      vertex 9.554 -21.135 99.8
      vertex 11.547 -50 99.8
    endloop
  endfacet
  facet normal 0 0 1
    outer loop
      vertex 11.547 -50 99.8
      vertex 7.18326 -60 99.8
      vertex 17.3205 -60 99.8
    endloop
  endfacet
  facet normal 0 0 1
    outer loop
      vertex 7.18326 -60 99.8
      vertex 11.547 -50 99.8
      vertex 9.554 -21.135 99.8
    endloop
  endfacet
  facet normal 0 0 -1
    outer loop
      vertex 17.3205 -60 0
      vertex -11.547 -50 0
      vertex 11.547 -50 0
    endloop
  endfacet
  facet normal 0 -0 -1
    outer loop
      vertex -11.547 -50 0
      vertex 17.3205 -60 0
      vertex -17.3205 -60 0
    endloop
  endfacet
  facet normal 0 0 -1
    outer loop
      vertex 50 -50 0
      vertex 18.1865 39.5 0
      vertex 50 50 0
    endloop
  endfacet
  facet normal 0 0 -1
    outer loop
      vertex 11.547 -50 0
      vertex 18.1865 39.5 0
      vertex 50 -50 0
    endloop
  endfacet
  facet normal 0 0 -1
    outer loop
      vertex -11.547 -50 0
      vertex 18.1865 39.5 0
      vertex 11.547 -50 0
    endloop
  endfacet
  facet normal 0 0 -1
    outer loop
      vertex -11.547 -50 0
      vertex -18.1865 39.5 0
      vertex 18.1865 39.5 0
    endloop
  endfacet
  facet normal 0 0 -1
    outer loop
      vertex -50 -11.547 0
      vertex -11.547 -50 0
      vertex -50 -50 0
    endloop
  endfacet
  facet normal -0 0 -1
    outer loop
      vertex 50 50 0
      vertex 18.1865 39.5 0
      vertex 12.1244 50 0
    endloop
  endfacet
  facet normal 0 0 -1
    outer loop
      vertex -11.547 -50 0
      vertex -50 -11.547 0
      vertex -18.1865 39.5 0
    endloop
  endfacet
  facet normal 0 0 -1
    outer loop
      vertex -50 11.547 0
      vertex -18.1865 39.5 0
      vertex -50 -11.547 0
    endloop
  endfacet
  facet normal 0 0 -1
    outer loop
      vertex -50 50 0
      vertex -18.1865 39.5 0
      vertex -50 11.547 0
    endloop
  endfacet
  facet normal 0 0 -1
    outer loop
      vertex -18.1865 39.5 0
      vertex -50 50 0
      vertex -12.1244 50 0
    endloop
  endfacet
  facet normal 0 0 -1
    outer loop
      vertex -60 -17.3205 0
      vertex -50 11.547 0
      vertex -50 -11.547 0
    endloop
  endfacet
  facet normal -0 0 -1
    outer loop
      vertex -50 11.547 0
      vertex -60 -17.3205 0
      vertex -60 17.3205 0
    endloop
  endfacet
  facet normal -0.907435 0.0555006 0.416512
    outer loop
      vertex 9.554 -21.135 99.8
      vertex 9.594 -20.481 99.8
      vertex 5.409 -20.582 90.6958
    endloop
  endfacet
  facet normal -0.907463 0.0551134 0.416501
    outer loop
      vertex 4.46852 -60 93.8627
      vertex 5.409 -20.582 90.6958
      vertex 3.01501 -60 90.6958
    endloop
  endfacet
  facet normal -0.907463 0.0551134 0.416501
    outer loop
      vertex 5.409 -20.582 90.6958
      vertex 4.46852 -60 93.8627
      vertex 9.554 -21.135 99.8
    endloop
  endfacet
  facet normal -0.908047 0.0553904 0.415189
    outer loop
      vertex 7.18326 -60 99.8
      vertex 9.554 -21.135 99.8
      vertex 4.46852 -60 93.8627
    endloop
  endfacet
  facet normal -0.907819 0.0351442 0.417887
    outer loop
      vertex 9.619 -19.825 99.8
      vertex 11.9156 39.5 99.8
      vertex 7.74695 39.5 90.7439
    endloop
  endfacet
  facet normal -0.908213 0.0350068 0.417041
    outer loop
      vertex 5.409 -20.582 90.6958
      vertex 7.74695 39.5 90.7439
      vertex 7.72484 39.5 90.6958
    endloop
  endfacet
  facet normal -0.908203 0.0350064 0.417064
    outer loop
      vertex 7.74695 39.5 90.7439
      vertex 5.409 -20.582 90.6958
      vertex 9.619 -19.825 99.8
    endloop
  endfacet
  facet normal -0.908203 0.034611 0.417097
    outer loop
      vertex 9.594 -20.481 99.8
      vertex 9.619 -19.825 99.8
      vertex 5.409 -20.582 90.6958
    endloop
  endfacet
  facet normal -0.899913 0.0544009 0.432663
    outer loop
      vertex 0.240377 -60 84.9016
      vertex 1.178 -20.672 81.9069
      vertex -1.19943 -60 81.9069
    endloop
  endfacet
  facet normal -0.899913 0.0544009 0.432663
    outer loop
      vertex 1.178 -20.672 81.9069
      vertex 0.240377 -60 84.9016
      vertex 5.409 -20.582 90.6958
    endloop
  endfacet
  facet normal -0.900573 0.0546949 0.431251
    outer loop
      vertex 3.01501 -60 90.6958
      vertex 5.409 -20.582 90.6958
      vertex 0.240377 -60 84.9016
    endloop
  endfacet
  facet normal -0.900284 0.0347012 0.433918
    outer loop
      vertex 5.409 -20.582 90.6958
      vertex 5.37676 39.5 85.8241
      vertex 3.479 39.2464 81.9069
    endloop
  endfacet
  facet normal -0.900284 0.0347012 0.433918
    outer loop
      vertex 5.37676 39.5 85.8241
      vertex 5.409 -20.582 90.6958
      vertex 7.72484 39.5 90.6958
    endloop
  endfacet
  facet normal -0.900629 0.0345861 0.433211
    outer loop
      vertex 5.409 -20.582 90.6958
      vertex 3.479 39.2464 81.9069
      vertex 1.178 -20.672 81.9069
    endloop
  endfacet
  facet normal -0.900185 0.0119234 0.435345
    outer loop
      vertex 5.37676 39.5 85.8241
      vertex 3.48236 39.5 81.9069
      vertex 3.479 39.2464 81.9069
    endloop
  endfacet
  facet normal -0.891455 0.053651 0.449922
    outer loop
      vertex -3.9903 -60 76.3563
      vertex -3.053 -20.751 73.5332
      vertex -5.41515 -60 73.5332
    endloop
  endfacet
  facet normal -0.891455 0.053651 0.449922
    outer loop
      vertex -3.053 -20.751 73.5332
      vertex -3.9903 -60 76.3563
      vertex 1.178 -20.672 81.9069
    endloop
  endfacet
  facet normal -0.892121 0.0539298 0.448566
    outer loop
      vertex -1.19943 -60 81.9069
      vertex 1.178 -20.672 81.9069
      vertex -3.9903 -60 76.3563
    endloop
  endfacet
  facet normal -0.891734 0.0342446 0.451262
    outer loop
      vertex 1.178 -20.672 81.9069
      vertex 3.479 39.2464 81.9069
      vertex -0.78 38.6868 73.5332
    endloop
  endfacet
  facet normal -0.892147 0.0341172 0.450455
    outer loop
      vertex 1.178 -20.672 81.9069
      vertex -0.78 38.6868 73.5332
      vertex -3.053 -20.751 73.5332
    endloop
  endfacet
  facet normal -0.891474 0.011808 0.452918
    outer loop
      vertex 3.479 39.2464 81.9069
      vertex 3.48236 39.5 81.9069
      vertex 3.46401 39.5 81.8708
    endloop
  endfacet
  facet normal -0.89159 0.0117753 0.45269
    outer loop
      vertex -0.78 38.6868 73.5332
      vertex 3.46401 39.5 81.8708
      vertex -0.76926 39.5 73.5332
    endloop
  endfacet
  facet normal -0.89159 0.0117688 0.452691
    outer loop
      vertex 3.46401 39.5 81.8708
      vertex -0.78 38.6868 73.5332
      vertex 3.479 39.2464 81.9069
    endloop
  endfacet
  facet normal -0.88193 0.0528249 0.468411
    outer loop
      vertex -8.22206 -60 68.2271
      vertex -7.284 -20.819 65.5747
      vertex -9.63082 -60 65.5747
    endloop
  endfacet
  facet normal -0.88193 0.0528249 0.468411
    outer loop
      vertex -7.284 -20.819 65.5747
      vertex -8.22206 -60 68.2271
      vertex -3.053 -20.751 73.5332
    endloop
  endfacet
  facet normal -0.88269 0.0531235 0.466943
    outer loop
      vertex -5.41515 -60 73.5332
      vertex -3.053 -20.751 73.5332
      vertex -8.22206 -60 68.2271
    endloop
  endfacet
  facet normal -0.882153 0.033735 0.469753
    outer loop
      vertex -3.053 -20.751 73.5332
      vertex -0.78 38.6868 73.5332
      vertex -5.039 38.1367 65.5747
    endloop
  endfacet
  facet normal -0.882596 0.0336088 0.46893
    outer loop
      vertex -3.053 -20.751 73.5332
      vertex -5.039 38.1367 65.5747
      vertex -7.284 -20.819 65.5747
    endloop
  endfacet
  facet normal -0.881866 0.0116468 0.471355
    outer loop
      vertex -0.78 38.6868 73.5332
      vertex -0.76926 39.5 73.5332
      vertex -0.828593 39.5 73.4222
    endloop
  endfacet
  facet normal -0.881961 0.0116137 0.47118
    outer loop
      vertex -5.039 38.1367 65.5747
      vertex -0.828593 39.5 73.4222
      vertex -5.02105 39.5 65.5747
    endloop
  endfacet
  facet normal -0.881961 0.0116171 0.471179
    outer loop
      vertex -0.828593 39.5 73.4222
      vertex -5.039 38.1367 65.5747
      vertex -0.78 38.6868 73.5332
    endloop
  endfacet
  facet normal -0.87116 0.0519429 0.488244
    outer loop
      vertex -11.547 -50 61.0728
      vertex -11.515 -20.876 58.0315
      vertex -13.2515 -50 58.0315
    endloop
  endfacet
  facet normal -0.87116 0.0519429 0.488244
    outer loop
      vertex -11.515 -20.876 58.0315
      vertex -11.547 -50 61.0728
      vertex -7.284 -20.819 65.5747
    endloop
  endfacet
  facet normal -0.87116 0.0519428 0.488244
    outer loop
      vertex -12.4563 -60 60.5143
      vertex -13.4478 -53.2923 58.0315
      vertex -13.8478 -60 58.0315
    endloop
  endfacet
  facet normal -0.87116 0.0519428 0.488244
    outer loop
      vertex -11.547 -50 61.0728
      vertex -12.4563 -60 60.5143
      vertex -7.284 -20.819 65.5747
    endloop
  endfacet
  facet normal -0.87116 0.0519429 0.488244
    outer loop
      vertex -13.4478 -53.2923 58.0315
      vertex -12.4563 -60 60.5143
      vertex -11.547 -50 61.0728
    endloop
  endfacet
  facet normal -0.871929 0.0522259 0.486839
    outer loop
      vertex -9.63082 -60 65.5747
      vertex -7.284 -20.819 65.5747
      vertex -12.4563 -60 60.5143
    endloop
  endfacet
  facet normal -0.871324 0.0331795 0.489584
    outer loop
      vertex -7.284 -20.819 65.5747
      vertex -5.039 38.1367 65.5747
      vertex -9.298 37.596 58.0315
    endloop
  endfacet
  facet normal -0.8718 0.0330548 0.488745
    outer loop
      vertex -7.284 -20.819 65.5747
      vertex -9.298 37.596 58.0315
      vertex -11.515 -20.876 58.0315
    endloop
  endfacet
  facet normal -0.870915 0.0114682 0.4913
    outer loop
      vertex -5.039 38.1367 65.5747
      vertex -5.02105 39.5 65.5747
      vertex -5.12141 39.5 65.3968
    endloop
  endfacet
  facet normal -0.871081 0.0114212 0.491006
    outer loop
      vertex -9.298 37.596 58.0315
      vertex -5.12141 39.5 65.3968
      vertex -9.27304 39.5 58.0315
    endloop
  endfacet
  facet normal -0.871081 0.0114199 0.491007
    outer loop
      vertex -5.12141 39.5 65.3968
      vertex -9.298 37.596 58.0315
      vertex -5.039 38.1367 65.5747
    endloop
  endfacet
  facet normal -0.858947 0.0509801 0.50952
    outer loop
      vertex -15.369 -50 54.4484
      vertex -15.746 -20.922 50.9035
      vertex -17.4718 -50 50.9035
    endloop
  endfacet
  facet normal -0.858947 0.0509801 0.50952
    outer loop
      vertex -15.746 -20.922 50.9035
      vertex -15.369 -50 54.4484
      vertex -11.515 -20.876 58.0315
    endloop
  endfacet
  facet normal -0.858948 0.050981 0.509519
    outer loop
      vertex -16.6923 -60 53.2182
      vertex -16.5055 -58.5884 53.3918
      vertex -17.3205 -60 52.1592
    endloop
  endfacet
  facet normal -0.859771 0.0512639 0.5081
    outer loop
      vertex -13.2515 -50 58.0315
      vertex -11.515 -20.876 58.0315
      vertex -15.369 -50 54.4484
    endloop
  endfacet
  facet normal -0.859771 0.0512646 0.5081
    outer loop
      vertex -13.8478 -60 58.0315
      vertex -16.5055 -58.5884 53.3918
      vertex -16.6923 -60 53.2182
    endloop
  endfacet
  facet normal -0.859771 0.0512638 0.5081
    outer loop
      vertex -16.5055 -58.5884 53.3918
      vertex -13.8478 -60 58.0315
      vertex -13.4478 -53.2923 58.0315
    endloop
  endfacet
  facet normal -0.859049 0.0325713 0.510856
    outer loop
      vertex -11.515 -20.876 58.0315
      vertex -9.298 37.596 58.0315
      vertex -13.557 37.0647 50.9035
    endloop
  endfacet
  facet normal -0.85956 0.0324484 0.510003
    outer loop
      vertex -11.515 -20.876 58.0315
      vertex -13.557 37.0647 50.9035
      vertex -15.746 -20.922 50.9035
    endloop
  endfacet
  facet normal -0.858632 0.011258 0.512468
    outer loop
      vertex -9.298 37.596 58.0315
      vertex -9.27304 39.5 58.0315
      vertex -9.4144 39.5 57.7947
    endloop
  endfacet
  facet normal -0.858751 0.0112257 0.51227
    outer loop
      vertex -13.557 37.0647 50.9035
      vertex -9.4144 39.5 57.7947
      vertex -13.5252 39.5 50.9035
    endloop
  endfacet
  facet normal -0.858751 0.011226 0.512269
    outer loop
      vertex -9.4144 39.5 57.7947
      vertex -13.557 37.0647 50.9035
      vertex -9.298 37.596 58.0315
    endloop
  endfacet
  facet normal -0.858752 0.0112259 0.512269
    outer loop
      vertex -12.1244 50 53.0217
      vertex -13.3879 50 50.9035
      vertex -13.4172 47.7608 50.9035
    endloop
  endfacet
  facet normal -0.845041 0.0499065 0.532367
    outer loop
      vertex -19.6031 -50 47.507
      vertex -19.977 -20.956 44.1907
      vertex -21.6923 -50 44.1907
    endloop
  endfacet
  facet normal -0.845041 0.0499065 0.532367
    outer loop
      vertex -19.977 -20.956 44.1907
      vertex -19.6031 -50 47.507
      vertex -15.746 -20.922 50.9035
    endloop
  endfacet
  facet normal -0.845987 0.0502109 0.530835
    outer loop
      vertex -17.4718 -50 50.9035
      vertex -15.746 -20.922 50.9035
      vertex -19.6031 -50 47.507
    endloop
  endfacet
  facet normal -0.845136 0.0319039 0.533599
    outer loop
      vertex -15.746 -20.922 50.9035
      vertex -13.557 37.0647 50.9035
      vertex -17.815 36.5429 44.1907
    endloop
  endfacet
  facet normal -0.845626 0.0317962 0.532827
    outer loop
      vertex -15.746 -20.922 50.9035
      vertex -17.815 36.5429 44.1907
      vertex -19.977 -20.956 44.1907
    endloop
  endfacet
  facet normal -0.844596 0.0110407 0.535291
    outer loop
      vertex -13.557 37.0647 50.9035
      vertex -13.5252 39.5 50.9035
      vertex -13.7076 39.5 50.6157
    endloop
  endfacet
  facet normal -0.844595 0.0110408 0.535292
    outer loop
      vertex -14.3568 50 49.3747
      vertex -13.4172 47.7608 50.9035
      vertex -13.3879 50 50.9035
    endloop
  endfacet
  facet normal -0.844595 0.0110409 0.535292
    outer loop
      vertex -13.4172 47.7608 50.9035
      vertex -14.3568 50 49.3747
      vertex -14.1409 46.5073 49.7875
    endloop
  endfacet
  facet normal -0.844781 0.0109942 0.534999
    outer loop
      vertex -17.815 36.5429 44.1907
      vertex -13.7076 39.5 50.6157
      vertex -17.7765 39.5 44.1907
    endloop
  endfacet
  facet normal -0.844781 0.0109947 0.534999
    outer loop
      vertex -13.7076 39.5 50.6157
      vertex -17.815 36.5429 44.1907
      vertex -13.557 37.0647 50.9035
    endloop
  endfacet
  facet normal -0.844781 0.0109948 0.534999
    outer loop
      vertex -17.6399 50 44.1907
      vertex -14.1409 46.5073 49.7875
      vertex -14.3568 50 49.3747
    endloop
  endfacet
  facet normal -0.844781 0.0109945 0.534999
    outer loop
      vertex -14.1409 46.5073 49.7875
      vertex -17.6399 50 44.1907
      vertex -17.7671 40.2266 44.1907
    endloop
  endfacet
  facet normal -0.829161 0.0487382 0.556881
    outer loop
      vertex -23.8394 -50 40.9817
      vertex -24.208 -20.98 37.8931
      vertex -25.9138 -50 37.8931
    endloop
  endfacet
  facet normal -0.829161 0.0487382 0.556881
    outer loop
      vertex -24.208 -20.98 37.8931
      vertex -23.8394 -50 40.9817
      vertex -19.977 -20.956 44.1907
    endloop
  endfacet
  facet normal -0.830115 0.049025 0.555433
    outer loop
      vertex -21.6923 -50 44.1907
      vertex -19.977 -20.956 44.1907
      vertex -23.8394 -50 40.9817
    endloop
  endfacet
  facet normal -0.829126 0.0311757 0.558192
    outer loop
      vertex -19.977 -20.956 44.1907
      vertex -17.815 36.5429 44.1907
      vertex -22.074 36.0305 37.8931
    endloop
  endfacet
  facet normal -0.829716 0.0310577 0.557321
    outer loop
      vertex -19.977 -20.956 44.1907
      vertex -22.074 36.0305 37.8931
      vertex -24.208 -20.98 37.8931
    endloop
  endfacet
  facet normal -0.828511 0.0107825 0.559869
    outer loop
      vertex -17.815 36.5429 44.1907
      vertex -17.7765 39.5 44.1907
      vertex -18.0001 39.5 43.8599
    endloop
  endfacet
  facet normal -0.828511 0.0107827 0.55987
    outer loop
      vertex -18.6572 50 42.6852
      vertex -17.7671 40.2266 44.1907
      vertex -17.6399 50 44.1907
    endloop
  endfacet
  facet normal -0.828512 0.0107821 0.559867
    outer loop
      vertex -17.7671 40.2266 44.1907
      vertex -18.6572 50 42.6852
      vertex -18.0183 39.7914 43.8273
    endloop
  endfacet
  facet normal -0.82871 0.0107371 0.559575
    outer loop
      vertex -21.893 50 37.8931
      vertex -18.0183 39.7914 43.8273
      vertex -18.6572 50 42.6852
    endloop
  endfacet
  facet normal -0.828708 0.0107395 0.559578
    outer loop
      vertex -21.893 50 37.8931
      vertex -18.1865 39.5 43.5837
      vertex -18.0183 39.7914 43.8273
    endloop
  endfacet
  facet normal -0.828709 0.0107375 0.559577
    outer loop
      vertex -18.1865 39.5 43.5837
      vertex -17.815 36.5429 44.1907
      vertex -18.0001 39.5 43.8599
    endloop
  endfacet
  facet normal -0.828711 0.0107371 0.559574
    outer loop
      vertex -22.074 36.0305 37.8931
      vertex -18.1865 39.5 43.5837
      vertex -21.893 50 37.8931
    endloop
  endfacet
  facet normal -0.82871 0.0107367 0.559575
    outer loop
      vertex -18.1865 39.5 43.5837
      vertex -22.074 36.0305 37.8931
      vertex -17.815 36.5429 44.1907
    endloop
  endfacet
  facet normal -0.810885 0.0474071 0.583282
    outer loop
      vertex -28.0769 -50 34.8731
      vertex -28.44 -20.992 32.0107
      vertex -30.1359 -50 32.0107
    endloop
  endfacet
  facet normal -0.810885 0.0474071 0.583282
    outer loop
      vertex -28.44 -20.992 32.0107
      vertex -28.0769 -50 34.8731
      vertex -24.208 -20.98 37.8931
    endloop
  endfacet
  facet normal -0.812043 0.047732 0.581643
    outer loop
      vertex -25.9138 -50 37.8931
      vertex -24.208 -20.98 37.8931
      vertex -28.0769 -50 34.8731
    endloop
  endfacet
  facet normal -0.810843 0.0303513 0.584476
    outer loop
      vertex -24.208 -20.98 37.8931
      vertex -22.074 36.0305 37.8931
      vertex -26.333 35.5276 32.0107
    endloop
  endfacet
  facet normal -0.81141 0.0302486 0.583694
    outer loop
      vertex -24.208 -20.98 37.8931
      vertex -26.333 35.5276 32.0107
      vertex -28.44 -20.992 32.0107
    endloop
  endfacet
  facet normal -0.810216 0.0104975 0.586037
    outer loop
      vertex -22.074 36.0305 37.8931
      vertex -21.893 50 37.8931
      vertex -22.9584 50 36.4201
    endloop
  endfacet
  facet normal -0.810366 0.0104661 0.58583
    outer loop
      vertex -26.333 35.5276 32.0107
      vertex -22.9584 50 36.4201
      vertex -26.1461 50 32.0107
    endloop
  endfacet
  facet normal -0.810366 0.0104661 0.58583
    outer loop
      vertex -22.9584 50 36.4201
      vertex -26.333 35.5276 32.0107
      vertex -22.074 36.0305 37.8931
    endloop
  endfacet
  facet normal -0.79 0.0459608 0.611382
    outer loop
      vertex -32.3173 -50 29.1814
      vertex -32.671 -20.992 26.5436
      vertex -34.3586 -50 26.5436
    endloop
  endfacet
  facet normal -0.79 0.0459608 0.611382
    outer loop
      vertex -32.671 -20.992 26.5436
      vertex -32.3173 -50 29.1814
      vertex -28.44 -20.992 32.0107
    endloop
  endfacet
  facet normal -0.791108 0.0462509 0.609926
    outer loop
      vertex -30.1359 -50 32.0107
      vertex -28.44 -20.992 32.0107
      vertex -32.3173 -50 29.1814
    endloop
  endfacet
  facet normal -0.789821 0.0294438 0.612631
    outer loop
      vertex -28.44 -20.992 32.0107
      vertex -26.333 35.5276 32.0107
      vertex -30.592 35.0341 26.5436
    endloop
  endfacet
  facet normal -0.790495 0.0293334 0.611765
    outer loop
      vertex -28.44 -20.992 32.0107
      vertex -30.592 35.0341 26.5436
      vertex -32.671 -20.992 26.5436
    endloop
  endfacet
  facet normal -0.789049 0.0101908 0.614246
    outer loop
      vertex -26.333 35.5276 32.0107
      vertex -26.1461 50 32.0107
      vertex -27.2603 50 30.5794
    endloop
  endfacet
  facet normal -0.789279 0.0101468 0.613951
    outer loop
      vertex -30.3996 50 26.5436
      vertex -26.333 35.5276 32.0107
      vertex -27.2603 50 30.5794
    endloop
  endfacet
  facet normal -0.789279 0.0101468 0.613951
    outer loop
      vertex -26.333 35.5276 32.0107
      vertex -30.3996 50 26.5436
      vertex -30.592 35.0341 26.5436
    endloop
  endfacet
  facet normal -0.765849 0.0443229 0.641491
    outer loop
      vertex -36.5585 -50 23.9067
      vertex -36.902 -20.982 21.4917
      vertex -38.5814 -50 21.4917
    endloop
  endfacet
  facet normal -0.765849 0.044323 0.641492
    outer loop
      vertex -36.902 -20.982 21.4917
      vertex -36.5585 -50 23.9067
      vertex -32.671 -20.992 26.5436
    endloop
  endfacet
  facet normal -0.767099 0.0446284 0.639975
    outer loop
      vertex -34.3586 -50 26.5436
      vertex -32.671 -20.992 26.5436
      vertex -36.5585 -50 23.9067
    endloop
  endfacet
  facet normal -0.765661 0.0284119 0.642616
    outer loop
      vertex -32.671 -20.992 26.5436
      vertex -30.592 35.0341 26.5436
      vertex -34.85 34.5501 21.4917
    endloop
  endfacet
  facet normal -0.76631 0.0283164 0.641846
    outer loop
      vertex -32.671 -20.992 26.5436
      vertex -34.85 34.5501 21.4917
      vertex -36.902 -20.982 21.4917
    endloop
  endfacet
  facet normal -0.764809 0.0098322 0.644182
    outer loop
      vertex -30.592 35.0341 26.5436
      vertex -30.3996 50 26.5436
      vertex -31.5623 50 25.1632
    endloop
  endfacet
  facet normal -0.765055 0.0097893 0.64389
    outer loop
      vertex -34.6523 50 21.4917
      vertex -30.592 35.0341 26.5436
      vertex -31.5623 50 25.1632
    endloop
  endfacet
  facet normal -0.765055 0.00978926 0.64389
    outer loop
      vertex -30.592 35.0341 26.5436
      vertex -34.6523 50 21.4917
      vertex -34.85 34.5501 21.4917
    endloop
  endfacet
  facet normal -0.737917 0.0424918 0.673552
    outer loop
      vertex -40.8019 -50 19.0497
      vertex -41.133 -20.96 16.855
      vertex -42.8052 -50 16.855
    endloop
  endfacet
  facet normal -0.737917 0.0424918 0.673553
    outer loop
      vertex -41.133 -20.96 16.855
      vertex -40.8019 -50 19.0497
      vertex -36.902 -20.982 21.4917
    endloop
  endfacet
  facet normal -0.739178 0.0427793 0.67215
    outer loop
      vertex -38.5814 -50 21.4917
      vertex -36.902 -20.982 21.4917
      vertex -40.8019 -50 19.0497
    endloop
  endfacet
  facet normal -0.737581 0.0272548 0.674709
    outer loop
      vertex -36.902 -20.982 21.4917
      vertex -34.85 34.5501 21.4917
      vertex -39.109 34.0755 16.855
    endloop
  endfacet
  facet normal -0.738348 0.0271537 0.673873
    outer loop
      vertex -36.902 -20.982 21.4917
      vertex -39.109 34.0755 16.855
      vertex -41.133 -20.96 16.855
    endloop
  endfacet
  facet normal -0.736729 0.00942681 0.676122
    outer loop
      vertex -34.85 34.5501 21.4917
      vertex -34.6523 50 21.4917
      vertex -35.864 50 20.1714
    endloop
  endfacet
  facet normal -0.736912 0.0093978 0.675923
    outer loop
      vertex -38.9059 50 16.855
      vertex -34.85 34.5501 21.4917
      vertex -35.864 50 20.1714
    endloop
  endfacet
  facet normal -0.736912 0.00939775 0.675923
    outer loop
      vertex -34.85 34.5501 21.4917
      vertex -38.9059 50 16.855
      vertex -39.109 34.0755 16.855
    endloop
  endfacet
  facet normal -0.706897 0.0407055 0.706144
    outer loop
      vertex -42.8052 -50 16.855
      vertex -41.133 -20.96 16.855
      vertex -45.0473 -50 14.6105
    endloop
  endfacet
  facet normal -0.705568 0.0404225 0.707488
    outer loop
      vertex -45.364 -20.927 12.6336
      vertex -45.0473 -50 14.6105
      vertex -41.133 -20.96 16.855
    endloop
  endfacet
  facet normal -0.705568 0.0404225 0.707488
    outer loop
      vertex -45.0473 -50 14.6105
      vertex -45.364 -20.927 12.6336
      vertex -47.0296 -50 12.6336
    endloop
  endfacet
  facet normal -0.705155 0.025933 0.708579
    outer loop
      vertex -41.133 -20.96 16.855
      vertex -39.109 34.0755 16.855
      vertex -43.368 33.6104 12.6336
    endloop
  endfacet
  facet normal -0.705967 0.0258375 0.707774
    outer loop
      vertex -41.133 -20.96 16.855
      vertex -43.368 33.6104 12.6336
      vertex -45.364 -20.927 12.6336
    endloop
  endfacet
  facet normal -0.704153 0.00897997 0.709992
    outer loop
      vertex -39.109 34.0755 16.855
      vertex -38.9059 50 16.855
      vertex -40.1671 50 15.6042
    endloop
  endfacet
  facet normal -0.704429 0.00894012 0.709718
    outer loop
      vertex -43.16 50 12.6336
      vertex -39.109 34.0755 16.855
      vertex -40.1671 50 15.6042
    endloop
  endfacet
  facet normal -0.704429 0.00894006 0.709718
    outer loop
      vertex -39.109 34.0755 16.855
      vertex -43.16 50 12.6336
      vertex -43.368 33.6104 12.6336
    endloop
  endfacet
  facet normal -0.66958 0.0383607 0.741749
    outer loop
      vertex -47.0296 -50 12.6336
      vertex -45.364 -20.927 12.6336
      vertex -49.294 -50 10.5895
    endloop
  endfacet
  facet normal -0.668102 0.0380661 0.743096
    outer loop
      vertex -50 -27.9912 8.82734
      vertex -45.364 -20.927 12.6336
      vertex -49.595 -20.883 8.82734
    endloop
  endfacet
  facet normal -0.668102 0.0380663 0.743095
    outer loop
      vertex -45.364 -20.927 12.6336
      vertex -50 -27.9912 8.82734
      vertex -49.294 -50 10.5895
    endloop
  endfacet
  facet normal -0.668103 0.0380662 0.743094
    outer loop
      vertex -49.294 -50 10.5895
      vertex -50 -27.9912 8.82734
      vertex -50 -50 9.95478
    endloop
  endfacet
  facet normal -0.667618 0.024434 0.744103
    outer loop
      vertex -45.364 -20.927 12.6336
      vertex -43.368 33.6104 12.6336
      vertex -47.627 33.1547 8.82734
    endloop
  endfacet
  facet normal -0.668467 0.0243449 0.743343
    outer loop
      vertex -45.364 -20.927 12.6336
      vertex -47.627 33.1547 8.82734
      vertex -49.595 -20.883 8.82734
    endloop
  endfacet
  facet normal -0.66664 0.00846047 0.745332
    outer loop
      vertex -43.368 33.6104 12.6336
      vertex -43.16 50 12.6336
      vertex -44.4703 50 11.4617
    endloop
  endfacet
  facet normal -0.666842 0.0084339 0.745151
    outer loop
      vertex -47.414 50 8.82734
      vertex -43.368 33.6104 12.6336
      vertex -44.4703 50 11.4617
    endloop
  endfacet
  facet normal -0.666843 0.00843374 0.745151
    outer loop
      vertex -43.368 33.6104 12.6336
      vertex -47.414 50 8.82734
      vertex -47.627 33.1547 8.82734
    endloop
  endfacet
  facet normal -0.626154 0.0356761 0.778883
    outer loop
      vertex -49.595 -20.883 8.82734
      vertex -50 -23.8698 8.63856
      vertex -50 -27.9912 8.82734
    endloop
  endfacet
  facet normal -0.624722 0.0354084 0.780044
    outer loop
      vertex -49.595 -20.883 8.82734
      vertex -50 -20.8777 8.50274
      vertex -50 -23.8698 8.63856
    endloop
  endfacet
  facet normal -0.624175 0.0227318 0.780954
    outer loop
      vertex -50 11.547 7.55968
      vertex -47.627 33.1547 8.82734
      vertex -50 32.9061 6.93796
    endloop
  endfacet
  facet normal -0.624176 0.0227319 0.780953
    outer loop
      vertex -47.627 33.1547 8.82734
      vertex -50 11.547 7.55968
      vertex -49.595 -20.883 8.82734
    endloop
  endfacet
  facet normal -0.624175 0.0227319 0.780954
    outer loop
      vertex -49.595 -20.883 8.82734
      vertex -50 11.547 7.55968
      vertex -51.0062 12.1279 6.73857
    endloop
  endfacet
  facet normal -0.625133 0.0226427 0.78019
    outer loop
      vertex -51.0062 12.1279 6.73857
      vertex -50 -11.547 8.23188
      vertex -49.595 -20.883 8.82734
    endloop
  endfacet
  facet normal -0.625053 0.02265 0.780253
    outer loop
      vertex -52.5985 13.0472 5.43633
      vertex -50 -11.547 8.23188
      vertex -51.0062 12.1279 6.73857
    endloop
  endfacet
  facet normal -0.625053 0.02265 0.780253
    outer loop
      vertex -50 -11.547 8.23188
      vertex -52.5985 13.0472 5.43633
      vertex -53.5643 -13.6048 5.43633
    endloop
  endfacet
  facet normal -0.625055 0.02265 0.780252
    outer loop
      vertex -49.595 -20.883 8.82734
      vertex -50 -11.547 8.23188
      vertex -50 -20.8777 8.50274
    endloop
  endfacet
  facet normal -0.623155 0.00788121 0.782058
    outer loop
      vertex -47.627 33.1547 8.82734
      vertex -47.414 50 8.82734
      vertex -48.7739 50 7.74373
    endloop
  endfacet
  facet normal -0.623365 0.00785626 0.781892
    outer loop
      vertex -50 50 6.7662
      vertex -47.627 33.1547 8.82734
      vertex -48.7739 50 7.74373
    endloop
  endfacet
  facet normal -0.623364 0.00785634 0.781892
    outer loop
      vertex -47.627 33.1547 8.82734
      vertex -50 50 6.7662
      vertex -50 32.9061 6.93796
    endloop
  endfacet
  facet normal -0.57415 0.0208054 0.818486
    outer loop
      vertex -52.5985 13.0472 5.43633
      vertex -54.1271 -13.9298 5.04974
      vertex -53.5643 -13.6048 5.43633
    endloop
  endfacet
  facet normal -0.574149 0.0208054 0.818487
    outer loop
      vertex -54.1271 -13.9298 5.04974
      vertex -52.5985 13.0472 5.43633
      vertex -55.3748 14.6501 3.44808
    endloop
  endfacet
  facet normal -0.574948 0.0207392 0.817927
    outer loop
      vertex -56.751 15.4447 2.46055
      vertex -54.1271 -13.9298 5.04974
      vertex -55.3748 14.6501 3.44808
    endloop
  endfacet
  facet normal -0.574948 0.0207392 0.817927
    outer loop
      vertex -54.1271 -13.9298 5.04974
      vertex -56.751 15.4447 2.46055
      vertex -57.8889 -16.1017 2.46055
    endloop
  endfacet
  facet normal -0.516575 0.0186336 0.856039
    outer loop
      vertex -56.751 15.4447 2.46055
      vertex -58.2554 -16.3132 2.24401
      vertex -57.8889 -16.1017 2.46055
    endloop
  endfacet
  facet normal -0.516576 0.0186336 0.856039
    outer loop
      vertex -58.2554 -16.3132 2.24401
      vertex -56.751 15.4447 2.46055
      vertex -59.7485 17.1753 0.613994
    endloop
  endfacet
  facet normal -0.517393 0.0185732 0.855546
    outer loop
      vertex -60 -17.3205 1.2108
      vertex -59.7485 17.1753 0.613994
      vertex -60 17.3205 0.458776
    endloop
  endfacet
  facet normal -0.517393 0.0185732 0.855546
    outer loop
      vertex -59.7485 17.1753 0.613994
      vertex -60 -17.3205 1.2108
      vertex -58.2554 -16.3132 2.24401
    endloop
  endfacet
endsolid OpenSCAD_Model
