solid OpenSCAD_Model
  facet normal -1 0 0
    outer loop
      vertex -50 -50 0
      vertex -50 50 99.8
      vertex -50 50 0
    endloop
  endfacet
  facet normal -1 -0 0
    outer loop
      vertex -50 50 99.8
      vertex -50 -50 0
      vertex -50 -50 99.8
    endloop
  endfacet
  facet normal 1 0 0
    outer loop
      vertex 50 21.021 96.5071
      vertex 50 50 99.8
      vertex 50 26.2752 99.8
    endloop
  endfacet
  facet normal 1 0 0
    outer loop
      vertex 50 12.1244 90.9571
      vertex 50 50 99.8
      vertex 50 21.021 96.5071
    endloop
  endfacet
  facet normal 1 0 0
    outer loop
      vertex 50 50 99.8
      vertex 50 12.1244 90.9571
      vertex 50 50 0
    endloop
  endfacet
  facet normal 1 0 0
    outer loop
      vertex 50 50 0
      vertex 50 12.1244 90.9571
      vertex 50 12.1244 0
    endloop
  endfacet
  facet normal 1 -0 0
    outer loop
      vertex 50 -17.2159 74.7149
      vertex 50 -12.1244 0
      vertex 50 -12.1244 77.1842
    endloop
  endfacet
  facet normal 1 -0 0
    outer loop
      vertex 50 -19.6647 73.5332
      vertex 50 -12.1244 0
      vertex 50 -17.2159 74.7149
    endloop
  endfacet
  facet normal 1 -0 0
    outer loop
      vertex 50 -31.1415 68.2473
      vertex 50 -12.1244 0
      vertex 50 -19.6647 73.5332
    endloop
  endfacet
  facet normal 1 -0 0
    outer loop
      vertex 50 -36.9753 65.5747
      vertex 50 -12.1244 0
      vertex 50 -31.1415 68.2473
    endloop
  endfacet
  facet normal 1 -0 0
    outer loop
      vertex 50 -45.0289 62.0626
      vertex 50 -12.1244 0
      vertex 50 -36.9753 65.5747
    endloop
  endfacet
  facet normal 1 0 0
    outer loop
      vertex 50 -50 0
      vertex 50 -45.0289 62.0626
      vertex 50 -50 59.9058
    endloop
  endfacet
  facet normal 1 0 0
    outer loop
      vertex 50 -45.0289 62.0626
      vertex 50 -50 0
      vertex 50 -12.1244 0
    endloop
  endfacet
  facet normal 0 1 -0
    outer loop
      vertex -12.1244 50 0
      vertex -50 50 99.8
      vertex -12.1244 50 99.8
    endloop
  endfacet
  facet normal 0 1 0
    outer loop
      vertex -50 50 99.8
      vertex -12.1244 50 0
      vertex -50 50 0
    endloop
  endfacet
  facet normal 0 1 -0
    outer loop
      vertex 50 50 0
      vertex 12.1244 50 99.8
      vertex 50 50 99.8
    endloop
  endfacet
  facet normal 0 1 0
    outer loop
      vertex 12.1244 50 99.8
      vertex 50 50 0
      vertex 12.1244 50 0
    endloop
  endfacet
  facet normal 0 -1 0
    outer loop
      vertex -50 -50 0
      vertex -11.547 -50 99.8
      vertex -50 -50 99.8
    endloop
  endfacet
  facet normal 0 -1 -0
    outer loop
      vertex -11.547 -50 99.8
      vertex -50 -50 0
      vertex -11.547 -50 0
    endloop
  endfacet
  facet normal 0 -1 0
    outer loop
      vertex 11.547 -50 99.8
      vertex 27.0755 -50 97.5716
      vertex 25.9076 -50 99.8
    endloop
  endfacet
  facet normal 0 -1 0
    outer loop
      vertex 11.547 -50 99.8
      vertex 27.5189 -50 96.7714
      vertex 27.0755 -50 97.5716
    endloop
  endfacet
  facet normal 0 -1 0
    outer loop
      vertex 11.547 -50 99.8
      vertex 30.8885 -50 90.6958
      vertex 27.5189 -50 96.7714
    endloop
  endfacet
  facet normal 0 -1 0
    outer loop
      vertex 11.547 -50 99.8
      vertex 31.2383 -50 90.0909
      vertex 30.8885 -50 90.6958
    endloop
  endfacet
  facet normal 0 -1 0
    outer loop
      vertex 11.547 -50 99.8
      vertex 35.9888 -50 81.9069
      vertex 31.2383 -50 90.0909
    endloop
  endfacet
  facet normal 0 -1 0
    outer loop
      vertex 11.547 -50 99.8
      vertex 36.816 -50 80.5435
      vertex 35.9888 -50 81.9069
    endloop
  endfacet
  facet normal 0 -1 0
    outer loop
      vertex 11.547 -50 99.8
      vertex 41.0852 -50 73.5332
      vertex 36.816 -50 80.5435
    endloop
  endfacet
  facet normal 0 -1 0
    outer loop
      vertex 11.547 -50 0
      vertex 41.0852 -50 73.5332
      vertex 11.547 -50 99.8
    endloop
  endfacet
  facet normal 0 -1 -0
    outer loop
      vertex 41.0852 -50 73.5332
      vertex 11.547 -50 0
      vertex 42.4006 -50 71.4717
    endloop
  endfacet
  facet normal 0 -1 -0
    outer loop
      vertex 42.4006 -50 71.4717
      vertex 11.547 -50 0
      vertex 46.1779 -50 65.5747
    endloop
  endfacet
  facet normal 0 -1 -0
    outer loop
      vertex 46.1779 -50 65.5747
      vertex 11.547 -50 0
      vertex 47.9926 -50 62.878
    endloop
  endfacet
  facet normal 0 -1 -0
    outer loop
      vertex 47.9926 -50 62.878
      vertex 11.547 -50 0
      vertex 50 -50 59.9058
    endloop
  endfacet
  facet normal 0 -1 -0
    outer loop
      vertex 50 -50 59.9058
      vertex 11.547 -50 0
      vertex 50 -50 0
    endloop
  endfacet
  facet normal 0 -1 0
    outer loop
      vertex -17.3205 -60 0
      vertex 17.3205 -60 99.8
      vertex -17.3205 -60 99.8
    endloop
  endfacet
  facet normal 0 -1 -0
    outer loop
      vertex 17.3205 -60 99.8
      vertex -17.3205 -60 0
      vertex 17.3205 -60 0
    endloop
  endfacet
  facet normal -0.866025 0.5 0
    outer loop
      vertex -17.3205 -60 0
      vertex -11.547 -50 99.8
      vertex -11.547 -50 0
    endloop
  endfacet
  facet normal -0.866025 0.5 0
    outer loop
      vertex -11.547 -50 99.8
      vertex -17.3205 -60 0
      vertex -17.3205 -60 99.8
    endloop
  endfacet
  facet normal 0.866025 0.5 0
    outer loop
      vertex 17.3205 -60 99.8
      vertex 11.547 -50 0
      vertex 11.547 -50 99.8
    endloop
  endfacet
  facet normal 0.866025 0.5 0
    outer loop
      vertex 11.547 -50 0
      vertex 17.3205 -60 99.8
      vertex 17.3205 -60 0
    endloop
  endfacet
  facet normal 1 0 0
    outer loop
      vertex 39.5 -15.463 93.5181
      vertex 39.5 18.1865 99.8
      vertex 39.5 -3.69929 99.8
    endloop
  endfacet
  facet normal 1 0 0
    outer loop
      vertex 39.5 18.1865 99.8
      vertex 39.5 -15.463 93.5181
      vertex 39.5 18.1865 0
    endloop
  endfacet
  facet normal 1 -0 0
    outer loop
      vertex 39.5 -18.1865 92.0711
      vertex 39.5 18.1865 0
      vertex 39.5 -15.463 93.5181
    endloop
  endfacet
  facet normal 1 0 0
    outer loop
      vertex 39.5 18.1865 0
      vertex 39.5 -18.1865 92.0711
      vertex 39.5 -18.1865 0
    endloop
  endfacet
  facet normal -0.5 -0.866025 -4.0023e-07
    outer loop
      vertex 39.5 18.1865 99.8
      vertex 46.6037 14.0852 97.9115
      vertex 45.6849 14.6157 99.8
    endloop
  endfacet
  facet normal -0.5 -0.866025 -1.021e-07
    outer loop
      vertex 39.5 18.1865 99.8
      vertex 50 12.1244 90.9571
      vertex 46.6037 14.0852 97.9115
    endloop
  endfacet
  facet normal -0.5 -0.866025 0
    outer loop
      vertex 39.5 18.1865 0
      vertex 50 12.1244 90.9571
      vertex 39.5 18.1865 99.8
    endloop
  endfacet
  facet normal -0.5 -0.866025 -0
    outer loop
      vertex 50 12.1244 90.9571
      vertex 39.5 18.1865 0
      vertex 50 12.1244 0
    endloop
  endfacet
  facet normal -0.5 0.866025 0
    outer loop
      vertex 39.5 -18.1865 0
      vertex 50 -12.1244 77.1842
      vertex 50 -12.1244 0
    endloop
  endfacet
  facet normal -0.5 0.866025 1.58017e-08
    outer loop
      vertex 50 -12.1244 77.1842
      vertex 39.5 -18.1865 0
      vertex 46.5479 -14.1174 81.9069
    endloop
  endfacet
  facet normal -0.499999 0.866026 -9.94595e-08
    outer loop
      vertex 46.5479 -14.1174 81.9069
      vertex 39.5 -18.1865 0
      vertex 45.3646 -14.8006 83.5991
    endloop
  endfacet
  facet normal -0.5 0.866025 2.39019e-09
    outer loop
      vertex 45.3646 -14.8006 83.5991
      vertex 39.5 -18.1865 0
      vertex 40.4191 -17.6559 90.6958
    endloop
  endfacet
  facet normal -0.5 0.866025 0
    outer loop
      vertex 40.4191 -17.6559 90.6958
      vertex 39.5 -18.1865 0
      vertex 39.5 -18.1865 92.0711
    endloop
  endfacet
  facet normal 0 1 -0
    outer loop
      vertex 18.1865 39.5 0
      vertex -18.1865 39.5 99.8
      vertex 18.1865 39.5 99.8
    endloop
  endfacet
  facet normal 0 1 0
    outer loop
      vertex -18.1865 39.5 99.8
      vertex 18.1865 39.5 0
      vertex -18.1865 39.5 0
    endloop
  endfacet
  facet normal 0.866025 -0.5 0
    outer loop
      vertex -18.1865 39.5 99.8
      vertex -12.1244 50 0
      vertex -12.1244 50 99.8
    endloop
  endfacet
  facet normal 0.866025 -0.5 0
    outer loop
      vertex -12.1244 50 0
      vertex -18.1865 39.5 99.8
      vertex -18.1865 39.5 0
    endloop
  endfacet
  facet normal -0.866025 -0.5 0
    outer loop
      vertex 18.1865 39.5 0
      vertex 12.1244 50 99.8
      vertex 12.1244 50 0
    endloop
  endfacet
  facet normal -0.866025 -0.5 0
    outer loop
      vertex 12.1244 50 99.8
      vertex 18.1865 39.5 0
      vertex 18.1865 39.5 99.8
    endloop
  endfacet
  facet normal 0 0 1
    outer loop
      vertex -12.1244 50 99.8
      vertex -50 50 99.8
      vertex -18.1865 39.5 99.8
    endloop
  endfacet
  facet normal -0 0 1
    outer loop
      vertex 18.1865 39.5 99.8
      vertex 50 26.2752 99.8
      vertex 50 50 99.8
    endloop
  endfacet
  facet normal 0 0 1
    outer loop
      vertex 50 26.2752 99.8
      vertex 39.5 18.1865 99.8
      vertex 45.6849 14.6157 99.8
    endloop
  endfacet
  facet normal 0 0 1
    outer loop
      vertex 18.1865 39.5 99.8
      vertex 39.5 -3.69929 99.8
      vertex 39.5 18.1865 99.8
    endloop
  endfacet
  facet normal 0 0 1
    outer loop
      vertex 39.5 -3.69929 99.8
      vertex 11.547 -50 99.8
      vertex 26.321 -48.365 99.8
    endloop
  endfacet
  facet normal 0 0 1
    outer loop
      vertex 26.321 -48.365 99.8
      vertex 11.547 -50 99.8
      vertex 26.153 -48.937 99.8
    endloop
  endfacet
  facet normal 0 0 1
    outer loop
      vertex 39.5 -3.69929 99.8
      vertex 18.1865 39.5 99.8
      vertex -18.1865 39.5 99.8
    endloop
  endfacet
  facet normal 0 0 1
    outer loop
      vertex 50 26.2752 99.8
      vertex 18.1865 39.5 99.8
      vertex 39.5 18.1865 99.8
    endloop
  endfacet
  facet normal 0 -0 1
    outer loop
      vertex 18.1865 39.5 99.8
      vertex 50 50 99.8
      vertex 12.1244 50 99.8
    endloop
  endfacet
  facet normal 0 0 1
    outer loop
      vertex 26.153 -48.937 99.8
      vertex 11.547 -50 99.8
      vertex 25.9076 -50 99.8
    endloop
  endfacet
  facet normal 0 0 1
    outer loop
      vertex 39.5 -3.69929 99.8
      vertex -11.547 -50 99.8
      vertex 11.547 -50 99.8
    endloop
  endfacet
  facet normal 0 0 1
    outer loop
      vertex 39.5 -3.69929 99.8
      vertex -18.1865 39.5 99.8
      vertex -11.547 -50 99.8
    endloop
  endfacet
  facet normal 0 0 1
    outer loop
      vertex -50 -50 99.8
      vertex -18.1865 39.5 99.8
      vertex -50 50 99.8
    endloop
  endfacet
  facet normal 0 0 1
    outer loop
      vertex -18.1865 39.5 99.8
      vertex -50 -50 99.8
      vertex -11.547 -50 99.8
    endloop
  endfacet
  facet normal -0 0 1
    outer loop
      vertex -11.547 -50 99.8
      vertex 17.3205 -60 99.8
      vertex 11.547 -50 99.8
    endloop
  endfacet
  facet normal 0 0 1
    outer loop
      vertex 17.3205 -60 99.8
      vertex -11.547 -50 99.8
      vertex -17.3205 -60 99.8
    endloop
  endfacet
  facet normal 0 0 -1
    outer loop
      vertex 17.3205 -60 0
      vertex -11.547 -50 0
      vertex 11.547 -50 0
    endloop
  endfacet
  facet normal 0 -0 -1
    outer loop
      vertex -11.547 -50 0
      vertex 17.3205 -60 0
      vertex -17.3205 -60 0
    endloop
  endfacet
  facet normal 0 0 -1
    outer loop
      vertex 50 -50 0
      vertex 39.5 -18.1865 0
      vertex 50 -12.1244 0
    endloop
  endfacet
  facet normal 0 0 -1
    outer loop
      vertex 39.5 -18.1865 0
      vertex 18.1865 39.5 0
      vertex 39.5 18.1865 0
    endloop
  endfacet
  facet normal 0 0 -1
    outer loop
      vertex 11.547 -50 0
      vertex 39.5 -18.1865 0
      vertex 50 -50 0
    endloop
  endfacet
  facet normal 0 0 -1
    outer loop
      vertex -11.547 -50 0
      vertex 39.5 -18.1865 0
      vertex 11.547 -50 0
    endloop
  endfacet
  facet normal 0 0 -1
    outer loop
      vertex -18.1865 39.5 0
      vertex 39.5 -18.1865 0
      vertex -11.547 -50 0
    endloop
  endfacet
  facet normal 0 0 -1
    outer loop
      vertex 39.5 -18.1865 0
      vertex -18.1865 39.5 0
      vertex 18.1865 39.5 0
    endloop
  endfacet
  facet normal 0 -0 -1
    outer loop
      vertex -18.1865 39.5 0
      vertex -11.547 -50 0
      vertex -50 -50 0
    endloop
  endfacet
  facet normal 0 0 -1
    outer loop
      vertex 39.5 18.1865 0
      vertex 50 50 0
      vertex 50 12.1244 0
    endloop
  endfacet
  facet normal 0 0 -1
    outer loop
      vertex 18.1865 39.5 0
      vertex 50 50 0
      vertex 39.5 18.1865 0
    endloop
  endfacet
  facet normal -0 0 -1
    outer loop
      vertex 50 50 0
      vertex 18.1865 39.5 0
      vertex 12.1244 50 0
    endloop
  endfacet
  facet normal 0 0 -1
    outer loop
      vertex -18.1865 39.5 0
      vertex -50 50 0
      vertex -12.1244 50 0
    endloop
  endfacet
  facet normal 0 0 -1
    outer loop
      vertex -50 50 0
      vertex -18.1865 39.5 0
      vertex -50 -50 0
    endloop
  endfacet
  facet normal 0.820421 -0.303632 0.484477
    outer loop
      vertex 45.6849 14.6157 99.8
      vertex 50 21.021 96.5071
      vertex 50 26.2752 99.8
    endloop
  endfacet
  facet normal 0.820421 -0.303633 0.484476
    outer loop
      vertex 50 21.021 96.5071
      vertex 45.6849 14.6157 99.8
      vertex 46.6037 14.0852 97.9115
    endloop
  endfacet
  facet normal 0.819832 -0.303072 0.485822
    outer loop
      vertex 50 12.1244 90.9571
      vertex 50 21.021 96.5071
      vertex 46.6037 14.0852 97.9115
    endloop
  endfacet
  facet normal 0.84747 -0.250053 0.46826
    outer loop
      vertex 39.5 -15.463 93.5181
      vertex 39.5 -3.69929 99.8
      vertex 26.321 -48.365 99.8
    endloop
  endfacet
  facet normal 0.84719 -0.248823 0.46942
    outer loop
      vertex 27.0755 -50 97.5716
      vertex 26.321 -48.365 99.8
      vertex 26.153 -48.937 99.8
    endloop
  endfacet
  facet normal 0.847192 -0.248821 0.469419
    outer loop
      vertex 26.321 -48.365 99.8
      vertex 27.0755 -50 97.5716
      vertex 27.5189 -50 96.7714
    endloop
  endfacet
  facet normal 0.846844 -0.249534 0.469667
    outer loop
      vertex 39.5 -15.463 93.5181
      vertex 26.321 -48.365 99.8
      vertex 39.5 -18.1865 92.0711
    endloop
  endfacet
  facet normal 0.846844 -0.249534 0.469667
    outer loop
      vertex 30.8885 -50 90.6958
      vertex 39.5 -18.1865 92.0711
      vertex 26.321 -48.365 99.8
    endloop
  endfacet
  facet normal 0.846844 -0.249536 0.469668
    outer loop
      vertex 30.8885 -50 90.6958
      vertex 26.321 -48.365 99.8
      vertex 27.5189 -50 96.7714
    endloop
  endfacet
  facet normal 0.846845 -0.249534 0.469667
    outer loop
      vertex 39.5 -18.1865 92.0711
      vertex 30.8885 -50 90.6958
      vertex 40.4191 -17.6559 90.6958
    endloop
  endfacet
  facet normal 0.867761 -0.200346 0.454811
    outer loop
      vertex 27.0755 -50 97.5716
      vertex 26.153 -48.937 99.8
      vertex 25.9076 -50 99.8
    endloop
  endfacet
  facet normal 0.838804 -0.247165 0.485095
    outer loop
      vertex 31.2383 -50 90.0909
      vertex 40.4191 -17.6559 90.6958
      vertex 30.8885 -50 90.6958
    endloop
  endfacet
  facet normal 0.838803 -0.247164 0.485098
    outer loop
      vertex 40.4191 -17.6559 90.6958
      vertex 31.2383 -50 90.0909
      vertex 45.3646 -14.8006 83.5991
    endloop
  endfacet
  facet normal 0.838143 -0.24664 0.486503
    outer loop
      vertex 35.9888 -50 81.9069
      vertex 45.3646 -14.8006 83.5991
      vertex 31.2383 -50 90.0909
    endloop
  endfacet
  facet normal 0.838142 -0.24664 0.486504
    outer loop
      vertex 45.3646 -14.8006 83.5991
      vertex 35.9888 -50 81.9069
      vertex 46.5479 -14.1174 81.9069
    endloop
  endfacet
  facet normal 0.829095 -0.243978 0.503066
    outer loop
      vertex 46.5479 -14.1174 81.9069
      vertex 50 -17.2159 74.7149
      vertex 50 -12.1244 77.1842
    endloop
  endfacet
  facet normal 0.829095 -0.243978 0.503066
    outer loop
      vertex 35.9888 -50 81.9069
      vertex 50 -17.2159 74.7149
      vertex 46.5479 -14.1174 81.9069
    endloop
  endfacet
  facet normal 0.829095 -0.243978 0.503067
    outer loop
      vertex 50 -17.2159 74.7149
      vertex 35.9888 -50 81.9069
      vertex 36.816 -50 80.5435
    endloop
  endfacet
  facet normal 0.82839 -0.243442 0.504486
    outer loop
      vertex 36.816 -50 80.5435
      vertex 50 -19.6647 73.5332
      vertex 50 -17.2159 74.7149
    endloop
  endfacet
  facet normal 0.828391 -0.243443 0.504484
    outer loop
      vertex 50 -19.6647 73.5332
      vertex 36.816 -50 80.5435
      vertex 41.0852 -50 73.5332
    endloop
  endfacet
  facet normal 0.818275 -0.24047 0.522111
    outer loop
      vertex 41.0852 -50 73.5332
      vertex 50 -31.1415 68.2473
      vertex 50 -19.6647 73.5332
    endloop
  endfacet
  facet normal 0.818276 -0.240471 0.52211
    outer loop
      vertex 50 -31.1415 68.2473
      vertex 41.0852 -50 73.5332
      vertex 42.4006 -50 71.4717
    endloop
  endfacet
  facet normal 0.817475 -0.239888 0.52363
    outer loop
      vertex 42.4006 -50 71.4717
      vertex 50 -36.9753 65.5747
      vertex 50 -31.1415 68.2473
    endloop
  endfacet
  facet normal 0.817475 -0.239888 0.52363
    outer loop
      vertex 50 -36.9753 65.5747
      vertex 42.4006 -50 71.4717
      vertex 46.1779 -50 65.5747
    endloop
  endfacet
  facet normal 0.806103 -0.236551 0.54244
    outer loop
      vertex 46.1779 -50 65.5747
      vertex 50 -45.0289 62.0626
      vertex 50 -36.9753 65.5747
    endloop
  endfacet
  facet normal 0.806103 -0.236551 0.54244
    outer loop
      vertex 50 -45.0289 62.0626
      vertex 46.1779 -50 65.5747
      vertex 47.9926 -50 62.878
    endloop
  endfacet
  facet normal 0.805289 -0.235984 0.543894
    outer loop
      vertex 50 -50 59.9058
      vertex 50 -45.0289 62.0626
      vertex 47.9926 -50 62.878
    endloop
  endfacet
endsolid OpenSCAD_Model
