solid OpenSCAD_Model
  facet normal -1 0 0
    outer loop
      vertex -50 -50 0
      vertex -50 50 99.8
      vertex -50 50 0
    endloop
  endfacet
  facet normal -1 -0 0
    outer loop
      vertex -50 50 99.8
      vertex -50 -50 0
      vertex -50 -50 99.8
    endloop
  endfacet
  facet normal 1 0 0
    outer loop
      vertex 50 -13.2347 13.9529
      vertex 50 -12.1244 0
      vertex 50 -12.1244 13.8696
    endloop
  endfacet
  facet normal 1 0 0
    outer loop
      vertex 50 -30.7128 15.2789
      vertex 50 -12.1244 0
      vertex 50 -13.2347 13.9529
    endloop
  endfacet
  facet normal 1 0 0
    outer loop
      vertex 50 -50 0
      vertex 50 -30.7128 15.2789
      vertex 50 -40.1795 16.1329
    endloop
  endfacet
  facet normal 1 0 0
    outer loop
      vertex 50 -50 0
      vertex 50 -40.1795 16.1329
      vertex 50 -48.0733 16.855
    endloop
  endfacet
  facet normal 1 0 0
    outer loop
      vertex 50 -50 0
      vertex 50 -48.0733 16.855
      vertex 50 -50 17.0472
    endloop
  endfacet
  facet normal 1 0 0
    outer loop
      vertex 50 -30.7128 15.2789
      vertex 50 -50 0
      vertex 50 -12.1244 0
    endloop
  endfacet
  facet normal 1 0 0
    outer loop
      vertex 50 44.7775 10.2223
      vertex 50 50 0
      vertex 50 50 9.95478
    endloop
  endfacet
  facet normal 1 0 0
    outer loop
      vertex 50 24.6071 11.2655
      vertex 50 50 0
      vertex 50 44.7775 10.2223
    endloop
  endfacet
  facet normal 1 0 0
    outer loop
      vertex 50 12.1244 0
      vertex 50 24.6071 11.2655
      vertex 50 14.6141 11.937
    endloop
  endfacet
  facet normal 1 0 0
    outer loop
      vertex 50 12.1244 0
      vertex 50 14.6141 11.937
      vertex 50 12.1244 12.1063
    endloop
  endfacet
  facet normal 1 0 0
    outer loop
      vertex 50 24.6071 11.2655
      vertex 50 12.1244 0
      vertex 50 50 0
    endloop
  endfacet
  facet normal 0 -1 0
    outer loop
      vertex -50 -50 0
      vertex -11.547 -50 99.8
      vertex -50 -50 99.8
    endloop
  endfacet
  facet normal 0 -1 -0
    outer loop
      vertex -11.547 -50 99.8
      vertex -50 -50 0
      vertex -11.547 -50 0
    endloop
  endfacet
  facet normal 0 -1 0
    outer loop
      vertex 11.547 -50 0
      vertex 12.3529 -50 73.5332
      vertex 11.547 -50 75.1376
    endloop
  endfacet
  facet normal 0 -1 0
    outer loop
      vertex 11.547 -50 0
      vertex 13.174 -50 71.9681
      vertex 12.3529 -50 73.5332
    endloop
  endfacet
  facet normal 0 -1 0
    outer loop
      vertex 11.547 -50 0
      vertex 16.5537 -50 65.5747
      vertex 13.174 -50 71.9681
    endloop
  endfacet
  facet normal 0 -1 0
    outer loop
      vertex 11.547 -50 0
      vertex 17.4396 -50 63.9744
      vertex 16.5537 -50 65.5747
    endloop
  endfacet
  facet normal 0 -1 0
    outer loop
      vertex 11.547 -50 0
      vertex 20.7541 -50 58.0315
      vertex 17.4396 -50 63.9744
    endloop
  endfacet
  facet normal 0 -1 0
    outer loop
      vertex 11.547 -50 0
      vertex 21.7073 -50 56.4051
      vertex 20.7541 -50 58.0315
    endloop
  endfacet
  facet normal 0 -1 0
    outer loop
      vertex 11.547 -50 0
      vertex 24.9559 -50 50.9035
      vertex 21.7073 -50 56.4051
    endloop
  endfacet
  facet normal 0 -1 0
    outer loop
      vertex 11.547 -50 0
      vertex 25.9783 -50 49.261
      vertex 24.9559 -50 50.9035
    endloop
  endfacet
  facet normal 0 -1 0
    outer loop
      vertex 11.547 -50 0
      vertex 29.1583 -50 44.1907
      vertex 25.9783 -50 49.261
    endloop
  endfacet
  facet normal 0 -1 0
    outer loop
      vertex 11.547 -50 0
      vertex 30.2521 -50 42.5425
      vertex 29.1583 -50 44.1907
    endloop
  endfacet
  facet normal 0 -1 0
    outer loop
      vertex 11.547 -50 0
      vertex 33.361 -50 37.8931
      vertex 30.2521 -50 42.5425
    endloop
  endfacet
  facet normal 0 -1 0
    outer loop
      vertex 11.547 -50 0
      vertex 34.5286 -50 36.2501
      vertex 33.361 -50 37.8931
    endloop
  endfacet
  facet normal 0 -1 0
    outer loop
      vertex 11.547 -50 0
      vertex 37.5634 -50 32.0107
      vertex 34.5286 -50 36.2501
    endloop
  endfacet
  facet normal 0 -1 0
    outer loop
      vertex 11.547 -50 0
      vertex 38.8072 -50 30.3845
      vertex 37.5634 -50 32.0107
    endloop
  endfacet
  facet normal 0 -1 0
    outer loop
      vertex 11.547 -50 0
      vertex 41.7669 -50 26.5436
      vertex 38.8072 -50 30.3845
    endloop
  endfacet
  facet normal 0 -1 0
    outer loop
      vertex 11.547 -50 0
      vertex 43.0891 -50 24.9464
      vertex 41.7669 -50 26.5436
    endloop
  endfacet
  facet normal 0 -1 0
    outer loop
      vertex 11.547 -50 0
      vertex 45.9706 -50 21.4917
      vertex 43.0891 -50 24.9464
    endloop
  endfacet
  facet normal 0 -1 0
    outer loop
      vertex 50 -50 0
      vertex 45.9706 -50 21.4917
      vertex 11.547 -50 0
    endloop
  endfacet
  facet normal 0 -1 0
    outer loop
      vertex 45.9706 -50 21.4917
      vertex 50 -50 0
      vertex 47.3738 -50 19.9363
    endloop
  endfacet
  facet normal 0 -1 0
    outer loop
      vertex 47.3738 -50 19.9363
      vertex 50 -50 0
      vertex 50 -50 17.0472
    endloop
  endfacet
  facet normal 0 1 -0
    outer loop
      vertex -12.1244 50 0
      vertex -50 50 99.8
      vertex -12.1244 50 99.8
    endloop
  endfacet
  facet normal 0 1 0
    outer loop
      vertex -50 50 99.8
      vertex -12.1244 50 0
      vertex -50 50 0
    endloop
  endfacet
  facet normal 0 1 -0
    outer loop
      vertex 50 50 0
      vertex 49.294 50 10.5895
      vertex 50 50 9.95478
    endloop
  endfacet
  facet normal 0 1 0
    outer loop
      vertex 50 50 0
      vertex 47.0296 50 12.6336
      vertex 49.294 50 10.5895
    endloop
  endfacet
  facet normal 0 1 0
    outer loop
      vertex 50 50 0
      vertex 45.0473 50 14.6105
      vertex 47.0296 50 12.6336
    endloop
  endfacet
  facet normal 0 1 0
    outer loop
      vertex 12.1244 50 0
      vertex 45.0473 50 14.6105
      vertex 50 50 0
    endloop
  endfacet
  facet normal 0 1 0
    outer loop
      vertex 45.0473 50 14.6105
      vertex 12.1244 50 0
      vertex 42.8052 50 16.855
    endloop
  endfacet
  facet normal 0 1 0
    outer loop
      vertex 42.8052 50 16.855
      vertex 12.1244 50 0
      vertex 40.8019 50 19.0497
    endloop
  endfacet
  facet normal 0 1 0
    outer loop
      vertex 40.8019 50 19.0497
      vertex 12.1244 50 0
      vertex 38.5814 50 21.4917
    endloop
  endfacet
  facet normal 0 1 0
    outer loop
      vertex 38.5814 50 21.4917
      vertex 12.1244 50 0
      vertex 36.5585 50 23.9067
    endloop
  endfacet
  facet normal 0 1 0
    outer loop
      vertex 36.5585 50 23.9067
      vertex 12.1244 50 0
      vertex 34.3586 50 26.5436
    endloop
  endfacet
  facet normal 0 1 0
    outer loop
      vertex 34.3586 50 26.5436
      vertex 12.1244 50 0
      vertex 32.3173 50 29.1814
    endloop
  endfacet
  facet normal 0 1 0
    outer loop
      vertex 32.3173 50 29.1814
      vertex 12.1244 50 0
      vertex 30.1359 50 32.0107
    endloop
  endfacet
  facet normal 0 1 0
    outer loop
      vertex 30.1359 50 32.0107
      vertex 12.1244 50 0
      vertex 28.0769 50 34.8731
    endloop
  endfacet
  facet normal 0 1 0
    outer loop
      vertex 28.0769 50 34.8731
      vertex 12.1244 50 0
      vertex 25.9138 50 37.8931
    endloop
  endfacet
  facet normal 0 1 0
    outer loop
      vertex 25.9138 50 37.8931
      vertex 12.1244 50 0
      vertex 23.8394 50 40.9817
    endloop
  endfacet
  facet normal 0 1 0
    outer loop
      vertex 13.2515 50 58.0315
      vertex 12.1244 50 0
      vertex 12.1244 50 60.0427
    endloop
  endfacet
  facet normal 0 1 0
    outer loop
      vertex 15.369 50 54.4484
      vertex 12.1244 50 0
      vertex 13.2515 50 58.0315
    endloop
  endfacet
  facet normal 0 1 0
    outer loop
      vertex 17.4718 50 50.9035
      vertex 12.1244 50 0
      vertex 15.369 50 54.4484
    endloop
  endfacet
  facet normal 0 1 0
    outer loop
      vertex 19.6031 50 47.507
      vertex 12.1244 50 0
      vertex 17.4718 50 50.9035
    endloop
  endfacet
  facet normal 0 1 0
    outer loop
      vertex 21.6923 50 44.1907
      vertex 12.1244 50 0
      vertex 19.6031 50 47.507
    endloop
  endfacet
  facet normal 0 1 0
    outer loop
      vertex 23.8394 50 40.9817
      vertex 12.1244 50 0
      vertex 21.6923 50 44.1907
    endloop
  endfacet
  facet normal 0 -1 0
    outer loop
      vertex -17.3205 -60 99.8
      vertex 2.08561 -60 96.9067
      vertex 0.774067 -60 99.8
    endloop
  endfacet
  facet normal 0 -1 0
    outer loop
      vertex -17.3205 -60 99.8
      vertex 4.92224 -60 90.6958
      vertex 2.08561 -60 96.9067
    endloop
  endfacet
  facet normal 0 -1 0
    outer loop
      vertex -17.3205 -60 99.8
      vertex 6.34291 -60 87.7038
      vertex 4.92224 -60 90.6958
    endloop
  endfacet
  facet normal 0 -1 0
    outer loop
      vertex -17.3205 -60 99.8
      vertex 9.11574 -60 81.9069
      vertex 6.34291 -60 87.7038
    endloop
  endfacet
  facet normal 0 -1 0
    outer loop
      vertex -17.3205 -60 99.8
      vertex 10.6024 -60 78.9247
      vertex 9.11574 -60 81.9069
    endloop
  endfacet
  facet normal 0 -1 0
    outer loop
      vertex -17.3205 -60 99.8
      vertex 13.3105 -60 73.5332
      vertex 10.6024 -60 78.9247
    endloop
  endfacet
  facet normal 0 -1 0
    outer loop
      vertex -17.3205 -60 0
      vertex 13.3105 -60 73.5332
      vertex -17.3205 -60 99.8
    endloop
  endfacet
  facet normal 0 -1 -0
    outer loop
      vertex 13.3105 -60 73.5332
      vertex -17.3205 -60 0
      vertex 14.8652 -60 70.5699
    endloop
  endfacet
  facet normal 0 -1 -0
    outer loop
      vertex 14.8652 -60 70.5699
      vertex -17.3205 -60 0
      vertex 17.3205 -60 65.9252
    endloop
  endfacet
  facet normal 0 -1 -0
    outer loop
      vertex 17.3205 -60 65.9252
      vertex -17.3205 -60 0
      vertex 17.3205 -60 0
    endloop
  endfacet
  facet normal -0.866025 0.5 0
    outer loop
      vertex -17.3205 -60 0
      vertex -11.547 -50 99.8
      vertex -11.547 -50 0
    endloop
  endfacet
  facet normal -0.866025 0.5 0
    outer loop
      vertex -11.547 -50 99.8
      vertex -17.3205 -60 0
      vertex -17.3205 -60 99.8
    endloop
  endfacet
  facet normal 0.866026 0.5 0
    outer loop
      vertex 12.5131 -51.6733 73.5332
      vertex 11.547 -50 0
      vertex 11.547 -50 75.1376
    endloop
  endfacet
  facet normal 0.866025 0.5 2.35979e-08
    outer loop
      vertex 13.848 -53.9854 71.4109
      vertex 11.547 -50 0
      vertex 12.5131 -51.6733 73.5332
    endloop
  endfacet
  facet normal 0.866026 0.5 -1.96872e-08
    outer loop
      vertex 17.3205 -60 65.9252
      vertex 11.547 -50 0
      vertex 13.848 -53.9854 71.4109
    endloop
  endfacet
  facet normal 0.866025 0.5 0
    outer loop
      vertex 11.547 -50 0
      vertex 17.3205 -60 65.9252
      vertex 17.3205 -60 0
    endloop
  endfacet
  facet normal 1 0 0
    outer loop
      vertex 39.5 -0.394744 24.3965
      vertex 39.5 18.1865 0
      vertex 39.5 18.1865 22.7086
    endloop
  endfacet
  facet normal 1 0 0
    outer loop
      vertex 39.5 -18.1865 0
      vertex 39.5 -0.394744 24.3965
      vertex 39.5 -18.1865 26.0304
    endloop
  endfacet
  facet normal 1 0 0
    outer loop
      vertex 39.5 -0.394744 24.3965
      vertex 39.5 -18.1865 0
      vertex 39.5 18.1865 0
    endloop
  endfacet
  facet normal -0.5 -0.866026 0
    outer loop
      vertex 39.5 18.1865 0
      vertex 40.5639 17.5723 21.4917
      vertex 39.5 18.1865 22.7086
    endloop
  endfacet
  facet normal -0.500001 -0.866025 9.16528e-08
    outer loop
      vertex 39.5 18.1865 0
      vertex 41.0595 17.2862 20.9688
      vertex 40.5639 17.5723 21.4917
    endloop
  endfacet
  facet normal -0.5 -0.866026 -4.01481e-08
    outer loop
      vertex 39.5 18.1865 0
      vertex 44.9787 15.0234 16.855
      vertex 41.0595 17.2862 20.9688
    endloop
  endfacet
  facet normal -0.500001 -0.866025 5.80007e-07
    outer loop
      vertex 39.5 18.1865 0
      vertex 45.7373 14.5854 16.1259
      vertex 44.9787 15.0234 16.855
    endloop
  endfacet
  facet normal -0.5 -0.866025 -1.35207e-07
    outer loop
      vertex 39.5 18.1865 0
      vertex 49.3914 12.4757 12.6336
      vertex 45.7373 14.5854 16.1259
    endloop
  endfacet
  facet normal -0.5 -0.866025 1.09165e-07
    outer loop
      vertex 39.5 18.1865 0
      vertex 50 12.1244 12.1063
      vertex 49.3914 12.4757 12.6336
    endloop
  endfacet
  facet normal -0.5 -0.866025 -0
    outer loop
      vertex 50 12.1244 12.1063
      vertex 39.5 18.1865 0
      vertex 50 12.1244 0
    endloop
  endfacet
  facet normal -0.5 0.866025 0
    outer loop
      vertex 39.5 -18.1865 0
      vertex 50 -12.1244 13.8696
      vertex 50 -12.1244 0
    endloop
  endfacet
  facet normal -0.499998 0.866026 -1.57965e-06
    outer loop
      vertex 50 -12.1244 13.8696
      vertex 39.5 -18.1865 0
      vertex 49.8437 -12.2146 14.0326
    endloop
  endfacet
  facet normal -0.5 0.866025 -4.25149e-08
    outer loop
      vertex 49.8437 -12.2146 14.0326
      vertex 39.5 -18.1865 0
      vertex 47.1523 -13.7685 16.855
    endloop
  endfacet
  facet normal -0.5 0.866026 -2.39255e-07
    outer loop
      vertex 47.1523 -13.7685 16.855
      vertex 39.5 -18.1865 0
      vertex 45.9204 -14.4797 18.266
    endloop
  endfacet
  facet normal -0.5 0.866025 2.41869e-09
    outer loop
      vertex 45.9204 -14.4797 18.266
      vertex 39.5 -18.1865 0
      vertex 43.1205 -16.0962 21.4917
    endloop
  endfacet
  facet normal -0.5 0.866025 -2.7444e-08
    outer loop
      vertex 43.1205 -16.0962 21.4917
      vertex 39.5 -18.1865 0
      vertex 41.9982 -16.7442 22.8931
    endloop
  endfacet
  facet normal -0.5 0.866025 0
    outer loop
      vertex 41.9982 -16.7442 22.8931
      vertex 39.5 -18.1865 0
      vertex 39.5 -18.1865 26.0304
    endloop
  endfacet
  facet normal 0 1 0
    outer loop
      vertex -4.40309 39.5 93.7863
      vertex -18.1865 39.5 99.8
      vertex -7.15276 39.5 99.8
    endloop
  endfacet
  facet normal 0 1 0
    outer loop
      vertex -2.98464 39.5 90.6958
      vertex -18.1865 39.5 99.8
      vertex -4.40309 39.5 93.7863
    endloop
  endfacet
  facet normal 0 1 0
    outer loop
      vertex -0.174816 39.5 84.8281
      vertex -18.1865 39.5 99.8
      vertex -2.98464 39.5 90.6958
    endloop
  endfacet
  facet normal 0 1 0
    outer loop
      vertex 1.22965 39.5 81.9069
      vertex -18.1865 39.5 99.8
      vertex -0.174816 39.5 84.8281
    endloop
  endfacet
  facet normal 0 1 0
    outer loop
      vertex 4.05601 39.5 76.2858
      vertex -18.1865 39.5 99.8
      vertex 1.22965 39.5 81.9069
    endloop
  endfacet
  facet normal 0 1 0
    outer loop
      vertex -18.1865 39.5 0
      vertex 4.05601 39.5 76.2858
      vertex 5.44524 39.5 73.5332
    endloop
  endfacet
  facet normal 0 1 0
    outer loop
      vertex -18.1865 39.5 0
      vertex 5.44524 39.5 73.5332
      vertex 8.28791 39.5 68.1595
    endloop
  endfacet
  facet normal 0 1 0
    outer loop
      vertex -18.1865 39.5 0
      vertex 8.28791 39.5 68.1595
      vertex 9.66077 39.5 65.5747
    endloop
  endfacet
  facet normal 0 1 0
    outer loop
      vertex -18.1865 39.5 0
      vertex 9.66077 39.5 65.5747
      vertex 12.5223 39.5 60.4498
    endloop
  endfacet
  facet normal 0 1 0
    outer loop
      vertex -18.1865 39.5 0
      vertex 12.5223 39.5 60.4498
      vertex 13.8776 39.5 58.0315
    endloop
  endfacet
  facet normal 0 1 0
    outer loop
      vertex -18.1865 39.5 0
      vertex 13.8776 39.5 58.0315
      vertex 16.7585 39.5 53.1566
    endloop
  endfacet
  facet normal 0 1 0
    outer loop
      vertex -18.1865 39.5 0
      vertex 16.7585 39.5 53.1566
      vertex 18.095 39.5 50.9035
    endloop
  endfacet
  facet normal 0 1 0
    outer loop
      vertex -18.1865 39.5 0
      vertex 18.095 39.5 50.9035
      vertex 18.1865 39.5 50.7577
    endloop
  endfacet
  facet normal 0 1 0
    outer loop
      vertex -18.1865 39.5 0
      vertex 18.1865 39.5 50.7577
      vertex 18.1865 39.5 0
    endloop
  endfacet
  facet normal 0 1 0
    outer loop
      vertex 4.05601 39.5 76.2858
      vertex -18.1865 39.5 0
      vertex -18.1865 39.5 99.8
    endloop
  endfacet
  facet normal 0.866025 -0.5 0
    outer loop
      vertex -18.1865 39.5 99.8
      vertex -12.1244 50 0
      vertex -12.1244 50 99.8
    endloop
  endfacet
  facet normal 0.866025 -0.5 0
    outer loop
      vertex -12.1244 50 0
      vertex -18.1865 39.5 99.8
      vertex -18.1865 39.5 0
    endloop
  endfacet
  facet normal -0.866026 -0.5 0
    outer loop
      vertex 12.1244 50 0
      vertex 13.3813 47.8229 58.0315
      vertex 12.1244 50 60.0427
    endloop
  endfacet
  facet normal -0.866025 -0.5 -2.71808e-08
    outer loop
      vertex 12.1244 50 0
      vertex 16.3338 42.709 53.5514
      vertex 13.3813 47.8229 58.0315
    endloop
  endfacet
  facet normal -0.866026 -0.499999 1.13573e-07
    outer loop
      vertex 12.1244 50 0
      vertex 18.0845 39.6766 50.9035
      vertex 16.3338 42.709 53.5514
    endloop
  endfacet
  facet normal -0.866025 -0.5 -0
    outer loop
      vertex 18.1865 39.5 50.7577
      vertex 12.1244 50 0
      vertex 18.1865 39.5 0
    endloop
  endfacet
  facet normal -0.866021 -0.500008 -2.12087e-06
    outer loop
      vertex 12.1244 50 0
      vertex 18.1865 39.5 50.7577
      vertex 18.0845 39.6766 50.9035
    endloop
  endfacet
  facet normal 0 0 1
    outer loop
      vertex -12.1244 50 99.8
      vertex -50 50 99.8
      vertex -18.1865 39.5 99.8
    endloop
  endfacet
  facet normal 0 0 1
    outer loop
      vertex -50 50 99.8
      vertex -5.846 18.282 99.8
      vertex -18.1865 39.5 99.8
    endloop
  endfacet
  facet normal 0 0 1
    outer loop
      vertex -5.846 18.282 99.8
      vertex -50 50 99.8
      vertex -50 -50 99.8
    endloop
  endfacet
  facet normal 0 0 1
    outer loop
      vertex -5.846 18.282 99.8
      vertex -50 -50 99.8
      vertex -11.547 -50 99.8
    endloop
  endfacet
  facet normal -0 0 1
    outer loop
      vertex -18.1865 39.5 99.8
      vertex -5.898 18.93 99.8
      vertex -7.15276 39.5 99.8
    endloop
  endfacet
  facet normal 0 0 1
    outer loop
      vertex -18.1865 39.5 99.8
      vertex -5.846 18.282 99.8
      vertex -5.898 18.93 99.8
    endloop
  endfacet
  facet normal 0 0 1
    outer loop
      vertex -11.547 -50 99.8
      vertex -1.066 -41.103 99.8
      vertex -5.846 18.282 99.8
    endloop
  endfacet
  facet normal 0 0 1
    outer loop
      vertex -11.547 -50 99.8
      vertex -1.004 -41.742 99.8
      vertex -1.066 -41.103 99.8
    endloop
  endfacet
  facet normal -0 0 1
    outer loop
      vertex -11.547 -50 99.8
      vertex 0.774067 -60 99.8
      vertex -1.004 -41.742 99.8
    endloop
  endfacet
  facet normal 0 0 1
    outer loop
      vertex 0.774067 -60 99.8
      vertex -11.547 -50 99.8
      vertex -17.3205 -60 99.8
    endloop
  endfacet
  facet normal 0 0 -1
    outer loop
      vertex 17.3205 -60 0
      vertex -11.547 -50 0
      vertex 11.547 -50 0
    endloop
  endfacet
  facet normal 0 -0 -1
    outer loop
      vertex -11.547 -50 0
      vertex 17.3205 -60 0
      vertex -17.3205 -60 0
    endloop
  endfacet
  facet normal 0 0 -1
    outer loop
      vertex 50 -50 0
      vertex 39.5 -18.1865 0
      vertex 50 -12.1244 0
    endloop
  endfacet
  facet normal 0 0 -1
    outer loop
      vertex 39.5 -18.1865 0
      vertex 18.1865 39.5 0
      vertex 39.5 18.1865 0
    endloop
  endfacet
  facet normal 0 0 -1
    outer loop
      vertex 11.547 -50 0
      vertex 39.5 -18.1865 0
      vertex 50 -50 0
    endloop
  endfacet
  facet normal 0 0 -1
    outer loop
      vertex -11.547 -50 0
      vertex 39.5 -18.1865 0
      vertex 11.547 -50 0
    endloop
  endfacet
  facet normal 0 0 -1
    outer loop
      vertex -18.1865 39.5 0
      vertex 39.5 -18.1865 0
      vertex -11.547 -50 0
    endloop
  endfacet
  facet normal 0 0 -1
    outer loop
      vertex 39.5 -18.1865 0
      vertex -18.1865 39.5 0
      vertex 18.1865 39.5 0
    endloop
  endfacet
  facet normal 0 -0 -1
    outer loop
      vertex -18.1865 39.5 0
      vertex -11.547 -50 0
      vertex -50 -50 0
    endloop
  endfacet
  facet normal 0 0 -1
    outer loop
      vertex 39.5 18.1865 0
      vertex 50 50 0
      vertex 50 12.1244 0
    endloop
  endfacet
  facet normal 0 0 -1
    outer loop
      vertex 18.1865 39.5 0
      vertex 50 50 0
      vertex 39.5 18.1865 0
    endloop
  endfacet
  facet normal -0 0 -1
    outer loop
      vertex 50 50 0
      vertex 18.1865 39.5 0
      vertex 12.1244 50 0
    endloop
  endfacet
  facet normal 0 0 -1
    outer loop
      vertex -18.1865 39.5 0
      vertex -50 50 0
      vertex -12.1244 50 0
    endloop
  endfacet
  facet normal 0 0 -1
    outer loop
      vertex -50 50 0
      vertex -18.1865 39.5 0
      vertex -50 -50 0
    endloop
  endfacet
  facet normal 0.907463 0.0551134 0.416502
    outer loop
      vertex -1.756 19.27 90.6958
      vertex -2.98464 39.5 90.6958
      vertex -4.40309 39.5 93.7863
    endloop
  endfacet
  facet normal 0.908047 0.0553904 0.415189
    outer loop
      vertex -5.898 18.93 99.8
      vertex -4.40309 39.5 93.7863
      vertex -7.15276 39.5 99.8
    endloop
  endfacet
  facet normal 0.908047 0.0553904 0.415189
    outer loop
      vertex -4.40309 39.5 93.7863
      vertex -5.898 18.93 99.8
      vertex -1.756 19.27 90.6958
    endloop
  endfacet
  facet normal 0.906786 0.0727668 0.415264
    outer loop
      vertex -5.846 18.282 99.8
      vertex -1.756 19.27 90.6958
      vertex -5.898 18.93 99.8
    endloop
  endfacet
  facet normal 0.9068 0.0726316 0.415256
    outer loop
      vertex 3.02 -40.358 90.6958
      vertex -1.756 19.27 90.6958
      vertex -5.846 18.282 99.8
    endloop
  endfacet
  facet normal 0.907645 0.0730579 0.413333
    outer loop
      vertex -1.066 -41.103 99.8
      vertex 3.02 -40.358 90.6958
      vertex -5.846 18.282 99.8
    endloop
  endfacet
  facet normal 0.90609 0.0879152 0.413851
    outer loop
      vertex -1.004 -41.742 99.8
      vertex 3.02 -40.358 90.6958
      vertex -1.066 -41.103 99.8
    endloop
  endfacet
  facet normal 0.906112 0.0877528 0.413836
    outer loop
      vertex 2.08561 -60 96.9067
      vertex 3.02 -40.358 90.6958
      vertex -1.004 -41.742 99.8
    endloop
  endfacet
  facet normal 0.906112 0.0877529 0.413836
    outer loop
      vertex 3.02 -40.358 90.6958
      vertex 2.08561 -60 96.9067
      vertex 4.92224 -60 90.6958
    endloop
  endfacet
  facet normal 0.907229 0.0883511 0.411253
    outer loop
      vertex 0.774067 -60 99.8
      vertex 2.08561 -60 96.9067
      vertex -1.004 -41.742 99.8
    endloop
  endfacet
  facet normal 0.899913 0.0544008 0.432664
    outer loop
      vertex 2.431 19.627 81.9069
      vertex 1.22965 39.5 81.9069
      vertex -0.174816 39.5 84.8281
    endloop
  endfacet
  facet normal 0.900573 0.054695 0.431251
    outer loop
      vertex -1.756 19.27 90.6958
      vertex -0.174816 39.5 84.8281
      vertex -2.98464 39.5 90.6958
    endloop
  endfacet
  facet normal 0.900573 0.054695 0.431251
    outer loop
      vertex -0.174816 39.5 84.8281
      vertex -1.756 19.27 90.6958
      vertex 2.431 19.627 81.9069
    endloop
  endfacet
  facet normal 0.899334 0.0716678 0.43135
    outer loop
      vertex 7.15 -39.59 81.9069
      vertex 2.431 19.627 81.9069
      vertex -1.756 19.27 90.6958
    endloop
  endfacet
  facet normal 0.900259 0.0721076 0.429342
    outer loop
      vertex 3.02 -40.358 90.6958
      vertex 7.15 -39.59 81.9069
      vertex -1.756 19.27 90.6958
    endloop
  endfacet
  facet normal 0.898725 0.0865583 0.429884
    outer loop
      vertex 6.34291 -60 87.7038
      vertex 7.15 -39.59 81.9069
      vertex 3.02 -40.358 90.6958
    endloop
  endfacet
  facet normal 0.898725 0.0865583 0.429885
    outer loop
      vertex 7.15 -39.59 81.9069
      vertex 6.34291 -60 87.7038
      vertex 9.11574 -60 81.9069
    endloop
  endfacet
  facet normal 0.899901 0.0871514 0.427297
    outer loop
      vertex 4.92224 -60 90.6958
      vertex 6.34291 -60 87.7038
      vertex 3.02 -40.358 90.6958
    endloop
  endfacet
  facet normal 0.891455 0.053651 0.449922
    outer loop
      vertex 6.619 19.997 73.5332
      vertex 5.44524 39.5 73.5332
      vertex 4.05601 39.5 76.2858
    endloop
  endfacet
  facet normal 0.892121 0.0539298 0.448566
    outer loop
      vertex 2.431 19.627 81.9069
      vertex 4.05601 39.5 76.2858
      vertex 1.22965 39.5 81.9069
    endloop
  endfacet
  facet normal 0.892121 0.0539299 0.448566
    outer loop
      vertex 4.05601 39.5 76.2858
      vertex 2.431 19.627 81.9069
      vertex 6.619 19.997 73.5332
    endloop
  endfacet
  facet normal 0.890892 0.0706302 0.44869
    outer loop
      vertex 11.281 -38.807 73.5332
      vertex 6.619 19.997 73.5332
      vertex 2.431 19.627 81.9069
    endloop
  endfacet
  facet normal 0.891886 0.0710744 0.446641
    outer loop
      vertex 7.15 -39.59 81.9069
      vertex 11.281 -38.807 73.5332
      vertex 2.431 19.627 81.9069
    endloop
  endfacet
  facet normal 0.890355 0.085262 0.447212
    outer loop
      vertex 10.6024 -60 78.9247
      vertex 11.547 -50 75.1376
      vertex 7.15 -39.59 81.9069
    endloop
  endfacet
  facet normal 0.890355 0.0852623 0.447212
    outer loop
      vertex 10.6024 -60 78.9247
      vertex 12.5131 -51.6733 73.5332
      vertex 11.547 -50 75.1376
    endloop
  endfacet
  facet normal 0.890355 0.0852621 0.447212
    outer loop
      vertex 12.5131 -51.6733 73.5332
      vertex 10.6024 -60 78.9247
      vertex 13.3105 -60 73.5332
    endloop
  endfacet
  facet normal 0.890355 0.0852619 0.447212
    outer loop
      vertex 11.547 -50 75.1376
      vertex 11.281 -38.807 73.5332
      vertex 7.15 -39.59 81.9069
    endloop
  endfacet
  facet normal 0.890355 0.0852621 0.447213
    outer loop
      vertex 11.281 -38.807 73.5332
      vertex 11.547 -50 75.1376
      vertex 12.3529 -50 73.5332
    endloop
  endfacet
  facet normal 0.891651 0.085877 0.444503
    outer loop
      vertex 9.11574 -60 81.9069
      vertex 10.6024 -60 78.9247
      vertex 7.15 -39.59 81.9069
    endloop
  endfacet
  facet normal 0.88193 0.0528249 0.468412
    outer loop
      vertex 10.806 20.38 65.5747
      vertex 9.66077 39.5 65.5747
      vertex 8.28791 39.5 68.1595
    endloop
  endfacet
  facet normal 0.88269 0.0531235 0.466943
    outer loop
      vertex 6.619 19.997 73.5332
      vertex 8.28791 39.5 68.1595
      vertex 5.44524 39.5 73.5332
    endloop
  endfacet
  facet normal 0.88269 0.0531235 0.466943
    outer loop
      vertex 8.28791 39.5 68.1595
      vertex 6.619 19.997 73.5332
      vertex 10.806 20.38 65.5747
    endloop
  endfacet
  facet normal 0.881471 0.0695357 0.467092
    outer loop
      vertex 15.412 -38.008 65.5747
      vertex 10.806 20.38 65.5747
      vertex 6.619 19.997 73.5332
    endloop
  endfacet
  facet normal 0.882491 0.0699642 0.465096
    outer loop
      vertex 11.281 -38.807 73.5332
      vertex 15.412 -38.008 65.5747
      vertex 6.619 19.997 73.5332
    endloop
  endfacet
  facet normal 0.88096 0.0838724 0.465698
    outer loop
      vertex 13.174 -50 71.9681
      vertex 15.412 -38.008 65.5747
      vertex 11.281 -38.807 73.5332
    endloop
  endfacet
  facet normal 0.88096 0.0838726 0.465698
    outer loop
      vertex 15.412 -38.008 65.5747
      vertex 13.174 -50 71.9681
      vertex 16.5537 -50 65.5747
    endloop
  endfacet
  facet normal 0.88096 0.0838722 0.465698
    outer loop
      vertex 14.8652 -60 70.5699
      vertex 17.3205 -60 65.9252
      vertex 13.848 -53.9854 71.4109
    endloop
  endfacet
  facet normal 0.882359 0.0844964 0.462928
    outer loop
      vertex 12.3529 -50 73.5332
      vertex 13.174 -50 71.9681
      vertex 11.281 -38.807 73.5332
    endloop
  endfacet
  facet normal 0.882359 0.0844964 0.462929
    outer loop
      vertex 13.3105 -60 73.5332
      vertex 13.848 -53.9854 71.4109
      vertex 12.5131 -51.6733 73.5332
    endloop
  endfacet
  facet normal 0.882359 0.0844961 0.462928
    outer loop
      vertex 13.848 -53.9854 71.4109
      vertex 13.3105 -60 73.5332
      vertex 14.8652 -60 70.5699
    endloop
  endfacet
  facet normal 0.87116 0.0519429 0.488243
    outer loop
      vertex 14.994 20.776 58.0315
      vertex 13.8776 39.5 58.0315
      vertex 12.5223 39.5 60.4498
    endloop
  endfacet
  facet normal 0.87116 0.0519429 0.488244
    outer loop
      vertex 13.3813 47.8229 58.0315
      vertex 13.2515 50 58.0315
      vertex 12.1244 50 60.0427
    endloop
  endfacet
  facet normal 0.871929 0.0522259 0.486839
    outer loop
      vertex 10.806 20.38 65.5747
      vertex 12.5223 39.5 60.4498
      vertex 9.66077 39.5 65.5747
    endloop
  endfacet
  facet normal 0.871929 0.0522259 0.486839
    outer loop
      vertex 12.5223 39.5 60.4498
      vertex 10.806 20.38 65.5747
      vertex 14.994 20.776 58.0315
    endloop
  endfacet
  facet normal 0.87072 0.068313 0.487012
    outer loop
      vertex 19.542 -37.193 58.0315
      vertex 14.994 20.776 58.0315
      vertex 10.806 20.38 65.5747
    endloop
  endfacet
  facet normal 0.871909 0.0687815 0.484813
    outer loop
      vertex 15.412 -38.008 65.5747
      vertex 19.542 -37.193 58.0315
      vertex 10.806 20.38 65.5747
    endloop
  endfacet
  facet normal 0.870378 0.0823777 0.485444
    outer loop
      vertex 17.4396 -50 63.9744
      vertex 19.542 -37.193 58.0315
      vertex 15.412 -38.008 65.5747
    endloop
  endfacet
  facet normal 0.870378 0.0823778 0.485444
    outer loop
      vertex 19.542 -37.193 58.0315
      vertex 17.4396 -50 63.9744
      vertex 20.7541 -50 58.0315
    endloop
  endfacet
  facet normal 0.871884 0.0830085 0.482625
    outer loop
      vertex 16.5537 -50 65.5747
      vertex 17.4396 -50 63.9744
      vertex 15.412 -38.008 65.5747
    endloop
  endfacet
  facet normal 0.858947 0.0509802 0.50952
    outer loop
      vertex 19.182 21.186 50.9035
      vertex 18.095 39.5 50.9035
      vertex 16.7585 39.5 53.1566
    endloop
  endfacet
  facet normal 0.858947 0.0509801 0.50952
    outer loop
      vertex 16.3338 42.709 53.5514
      vertex 17.4718 50 50.9035
      vertex 15.369 50 54.4484
    endloop
  endfacet
  facet normal 0.858947 0.05098 0.50952
    outer loop
      vertex 17.4718 50 50.9035
      vertex 16.3338 42.709 53.5514
      vertex 18.0845 39.6766 50.9035
    endloop
  endfacet
  facet normal 0.859771 0.0512639 0.5081
    outer loop
      vertex 14.994 20.776 58.0315
      vertex 16.7585 39.5 53.1566
      vertex 13.8776 39.5 58.0315
    endloop
  endfacet
  facet normal 0.859771 0.0512639 0.5081
    outer loop
      vertex 16.7585 39.5 53.1566
      vertex 14.994 20.776 58.0315
      vertex 19.182 21.186 50.9035
    endloop
  endfacet
  facet normal 0.859771 0.0512638 0.5081
    outer loop
      vertex 13.3813 47.8229 58.0315
      vertex 15.369 50 54.4484
      vertex 13.2515 50 58.0315
    endloop
  endfacet
  facet normal 0.859771 0.0512639 0.5081
    outer loop
      vertex 15.369 50 54.4484
      vertex 13.3813 47.8229 58.0315
      vertex 16.3338 42.709 53.5514
    endloop
  endfacet
  facet normal 0.85857 0.0669998 0.5083
    outer loop
      vertex 23.673 -36.364 50.9035
      vertex 19.182 21.186 50.9035
      vertex 14.994 20.776 58.0315
    endloop
  endfacet
  facet normal 0.859808 0.0674568 0.506143
    outer loop
      vertex 19.542 -37.193 58.0315
      vertex 23.673 -36.364 50.9035
      vertex 14.994 20.776 58.0315
    endloop
  endfacet
  facet normal 0.858273 0.0807508 0.5068
    outer loop
      vertex 21.7073 -50 56.4051
      vertex 23.673 -36.364 50.9035
      vertex 19.542 -37.193 58.0315
    endloop
  endfacet
  facet normal 0.858273 0.0807508 0.5068
    outer loop
      vertex 23.673 -36.364 50.9035
      vertex 21.7073 -50 56.4051
      vertex 24.9559 -50 50.9035
    endloop
  endfacet
  facet normal 0.859887 0.0813849 0.503955
    outer loop
      vertex 20.7541 -50 58.0315
      vertex 21.7073 -50 56.4051
      vertex 19.542 -37.193 58.0315
    endloop
  endfacet
  facet normal 0.845041 0.0499065 0.532367
    outer loop
      vertex 23.369 21.609 44.1907
      vertex 21.6923 50 44.1907
      vertex 19.6031 50 47.507
    endloop
  endfacet
  facet normal 0.845982 0.0502107 0.530841
    outer loop
      vertex 19.182 21.186 50.9035
      vertex 18.1865 39.5 50.7577
      vertex 18.095 39.5 50.9035
    endloop
  endfacet
  facet normal 0.845987 0.0502109 0.530835
    outer loop
      vertex 18.1865 39.5 50.7577
      vertex 19.182 21.186 50.9035
      vertex 23.369 21.609 44.1907
    endloop
  endfacet
  facet normal 0.845987 0.0502108 0.530835
    outer loop
      vertex 18.0845 39.6766 50.9035
      vertex 19.6031 50 47.507
      vertex 17.4718 50 50.9035
    endloop
  endfacet
  facet normal 0.845983 0.0502133 0.530841
    outer loop
      vertex 18.1865 39.5 50.7577
      vertex 19.6031 50 47.507
      vertex 18.0845 39.6766 50.9035
    endloop
  endfacet
  facet normal 0.845987 0.0502109 0.530834
    outer loop
      vertex 19.6031 50 47.507
      vertex 18.1865 39.5 50.7577
      vertex 23.369 21.609 44.1907
    endloop
  endfacet
  facet normal 0.844793 0.0655836 0.531059
    outer loop
      vertex 27.804 -35.519 44.1907
      vertex 23.369 21.609 44.1907
      vertex 19.182 21.186 50.9035
    endloop
  endfacet
  facet normal 0.846066 0.0660241 0.528973
    outer loop
      vertex 23.673 -36.364 50.9035
      vertex 27.804 -35.519 44.1907
      vertex 19.182 21.186 50.9035
    endloop
  endfacet
  facet normal 0.844527 0.0789803 0.529657
    outer loop
      vertex 25.9783 -50 49.261
      vertex 27.804 -35.519 44.1907
      vertex 23.673 -36.364 50.9035
    endloop
  endfacet
  facet normal 0.844527 0.0789803 0.529657
    outer loop
      vertex 27.804 -35.519 44.1907
      vertex 25.9783 -50 49.261
      vertex 29.1583 -50 44.1907
    endloop
  endfacet
  facet normal 0.846266 0.0796211 0.526778
    outer loop
      vertex 24.9559 -50 50.9035
      vertex 25.9783 -50 49.261
      vertex 23.673 -36.364 50.9035
    endloop
  endfacet
  facet normal 0.829161 0.0487382 0.556881
    outer loop
      vertex 27.557 22.045 37.8931
      vertex 25.9138 50 37.8931
      vertex 23.8394 50 40.9817
    endloop
  endfacet
  facet normal 0.830115 0.049025 0.555433
    outer loop
      vertex 23.369 21.609 44.1907
      vertex 23.8394 50 40.9817
      vertex 21.6923 50 44.1907
    endloop
  endfacet
  facet normal 0.830115 0.049025 0.555433
    outer loop
      vertex 23.8394 50 40.9817
      vertex 23.369 21.609 44.1907
      vertex 27.557 22.045 37.8931
    endloop
  endfacet
  facet normal 0.828929 0.064001 0.555681
    outer loop
      vertex 31.935 -34.658 37.8931
      vertex 27.557 22.045 37.8931
      vertex 23.369 21.609 44.1907
    endloop
  endfacet
  facet normal 0.830354 0.0644626 0.553495
    outer loop
      vertex 27.804 -35.519 44.1907
      vertex 31.935 -34.658 37.8931
      vertex 23.369 21.609 44.1907
    endloop
  endfacet
  facet normal 0.82881 0.0770371 0.554202
    outer loop
      vertex 33.361 -50 37.8931
      vertex 27.804 -35.519 44.1907
      vertex 30.2521 -50 42.5425
    endloop
  endfacet
  facet normal 0.82881 0.0770372 0.554202
    outer loop
      vertex 27.804 -35.519 44.1907
      vertex 33.361 -50 37.8931
      vertex 31.935 -34.658 37.8931
    endloop
  endfacet
  facet normal 0.830689 0.0776861 0.551291
    outer loop
      vertex 29.1583 -50 44.1907
      vertex 30.2521 -50 42.5425
      vertex 27.804 -35.519 44.1907
    endloop
  endfacet
  facet normal 0.810885 0.0474071 0.583282
    outer loop
      vertex 31.744 22.494 32.0107
      vertex 30.1359 50 32.0107
      vertex 28.0769 50 34.8731
    endloop
  endfacet
  facet normal 0.812043 0.047732 0.581643
    outer loop
      vertex 27.557 22.045 37.8931
      vertex 28.0769 50 34.8731
      vertex 25.9138 50 37.8931
    endloop
  endfacet
  facet normal 0.812043 0.047732 0.581643
    outer loop
      vertex 28.0769 50 34.8731
      vertex 27.557 22.045 37.8931
      vertex 31.744 22.494 32.0107
    endloop
  endfacet
  facet normal 0.810864 0.06226 0.581913
    outer loop
      vertex 36.065 -33.782 32.0107
      vertex 31.744 22.494 32.0107
      vertex 27.557 22.045 37.8931
    endloop
  endfacet
  facet normal 0.812398 0.0627247 0.57972
    outer loop
      vertex 31.935 -34.658 37.8931
      vertex 36.065 -33.782 32.0107
      vertex 27.557 22.045 37.8931
    endloop
  endfacet
  facet normal 0.810845 0.0749167 0.580446
    outer loop
      vertex 37.5634 -50 32.0107
      vertex 31.935 -34.658 37.8931
      vertex 34.5286 -50 36.2501
    endloop
  endfacet
  facet normal 0.810845 0.0749165 0.580446
    outer loop
      vertex 31.935 -34.658 37.8931
      vertex 37.5634 -50 32.0107
      vertex 36.065 -33.782 32.0107
    endloop
  endfacet
  facet normal 0.812799 0.075549 0.577625
    outer loop
      vertex 33.361 -50 37.8931
      vertex 34.5286 -50 36.2501
      vertex 31.935 -34.658 37.8931
    endloop
  endfacet
  facet normal 0.789999 0.0459606 0.611383
    outer loop
      vertex 35.932 22.956 26.5436
      vertex 34.3586 50 26.5436
      vertex 32.3173 50 29.1814
    endloop
  endfacet
  facet normal 0.791108 0.0462508 0.609925
    outer loop
      vertex 31.744 22.494 32.0107
      vertex 32.3173 50 29.1814
      vertex 30.1359 50 32.0107
    endloop
  endfacet
  facet normal 0.791108 0.0462509 0.609926
    outer loop
      vertex 32.3173 50 29.1814
      vertex 31.744 22.494 32.0107
      vertex 35.932 22.956 26.5436
    endloop
  endfacet
  facet normal 0.789936 0.0603127 0.610216
    outer loop
      vertex 40.196 -32.891 26.5436
      vertex 35.932 22.956 26.5436
      vertex 31.744 22.494 32.0107
    endloop
  endfacet
  facet normal 0.791582 0.0607794 0.608033
    outer loop
      vertex 36.065 -33.782 32.0107
      vertex 40.196 -32.891 26.5436
      vertex 31.744 22.494 32.0107
    endloop
  endfacet
  facet normal 0.790022 0.0725381 0.608772
    outer loop
      vertex 41.7669 -50 26.5436
      vertex 36.065 -33.782 32.0107
      vertex 38.8072 -50 30.3845
    endloop
  endfacet
  facet normal 0.790023 0.0725383 0.608771
    outer loop
      vertex 36.065 -33.782 32.0107
      vertex 41.7669 -50 26.5436
      vertex 40.196 -32.891 26.5436
    endloop
  endfacet
  facet normal 0.792177 0.0731917 0.605887
    outer loop
      vertex 37.5634 -50 32.0107
      vertex 38.8072 -50 30.3845
      vertex 36.065 -33.782 32.0107
    endloop
  endfacet
  facet normal 0.765849 0.044323 0.641491
    outer loop
      vertex 40.119 23.432 21.4917
      vertex 38.5814 50 21.4917
      vertex 36.5585 50 23.9067
    endloop
  endfacet
  facet normal 0.767099 0.0446283 0.639975
    outer loop
      vertex 34.3586 50 26.5436
      vertex 40.119 23.432 21.4917
      vertex 36.5585 50 23.9067
    endloop
  endfacet
  facet normal 0.767099 0.0446283 0.639975
    outer loop
      vertex 40.119 23.432 21.4917
      vertex 34.3586 50 26.5436
      vertex 35.932 22.956 26.5436
    endloop
  endfacet
  facet normal 0.765934 0.05816 0.640284
    outer loop
      vertex 35.932 22.956 26.5436
      vertex 39.5 -0.394744 24.3965
      vertex 39.5 18.1865 22.7086
    endloop
  endfacet
  facet normal 0.765934 0.0581601 0.640284
    outer loop
      vertex 39.5 18.1865 22.7086
      vertex 40.119 23.432 21.4917
      vertex 35.932 22.956 26.5436
    endloop
  endfacet
  facet normal 0.765934 0.05816 0.640283
    outer loop
      vertex 40.119 23.432 21.4917
      vertex 39.5 18.1865 22.7086
      vertex 40.5639 17.5723 21.4917
    endloop
  endfacet
  facet normal 0.765934 0.05816 0.640283
    outer loop
      vertex 44.327 -31.985 21.4917
      vertex 43.1205 -16.0962 21.4917
      vertex 41.9982 -16.7442 22.8931
    endloop
  endfacet
  facet normal 0.767628 0.0586096 0.63821
    outer loop
      vertex 35.932 22.956 26.5436
      vertex 39.5 -18.1865 26.0304
      vertex 39.5 -0.394744 24.3965
    endloop
  endfacet
  facet normal 0.767628 0.0586094 0.63821
    outer loop
      vertex 39.5 -18.1865 26.0304
      vertex 40.196 -32.891 26.5436
      vertex 44.327 -31.985 21.4917
    endloop
  endfacet
  facet normal 0.767627 0.0586094 0.638212
    outer loop
      vertex 40.196 -32.891 26.5436
      vertex 39.5 -18.1865 26.0304
      vertex 35.932 22.956 26.5436
    endloop
  endfacet
  facet normal 0.767628 0.0586096 0.63821
    outer loop
      vertex 41.9982 -16.7442 22.8931
      vertex 39.5 -18.1865 26.0304
      vertex 44.327 -31.985 21.4917
    endloop
  endfacet
  facet normal 0.766064 0.0698929 0.638954
    outer loop
      vertex 45.9706 -50 21.4917
      vertex 40.196 -32.891 26.5436
      vertex 43.0891 -50 24.9464
    endloop
  endfacet
  facet normal 0.766063 0.0698927 0.638954
    outer loop
      vertex 40.196 -32.891 26.5436
      vertex 45.9706 -50 21.4917
      vertex 44.327 -31.985 21.4917
    endloop
  endfacet
  facet normal 0.768378 0.0705509 0.636096
    outer loop
      vertex 41.7669 -50 26.5436
      vertex 43.0891 -50 24.9464
      vertex 40.196 -32.891 26.5436
    endloop
  endfacet
  facet normal 0.737917 0.0424919 0.673552
    outer loop
      vertex 44.307 23.92 16.855
      vertex 42.8052 50 16.855
      vertex 40.8019 50 19.0497
    endloop
  endfacet
  facet normal 0.739178 0.0427793 0.67215
    outer loop
      vertex 38.5814 50 21.4917
      vertex 44.307 23.92 16.855
      vertex 40.8019 50 19.0497
    endloop
  endfacet
  facet normal 0.739179 0.0427795 0.67215
    outer loop
      vertex 44.307 23.92 16.855
      vertex 38.5814 50 21.4917
      vertex 40.119 23.432 21.4917
    endloop
  endfacet
  facet normal 0.738025 0.0557179 0.672469
    outer loop
      vertex 41.0595 17.2862 20.9688
      vertex 44.307 23.92 16.855
      vertex 40.119 23.432 21.4917
    endloop
  endfacet
  facet normal 0.738025 0.0557181 0.672469
    outer loop
      vertex 44.307 23.92 16.855
      vertex 41.0595 17.2862 20.9688
      vertex 44.9787 15.0234 16.855
    endloop
  endfacet
  facet normal 0.738025 0.055718 0.672469
    outer loop
      vertex 48.458 -31.063 16.855
      vertex 47.1523 -13.7685 16.855
      vertex 45.9204 -14.4797 18.266
    endloop
  endfacet
  facet normal 0.739897 0.0561829 0.67037
    outer loop
      vertex 40.5639 17.5723 21.4917
      vertex 41.0595 17.2862 20.9688
      vertex 40.119 23.432 21.4917
    endloop
  endfacet
  facet normal 0.739896 0.0561829 0.670371
    outer loop
      vertex 43.1205 -16.0962 21.4917
      vertex 48.458 -31.063 16.855
      vertex 45.9204 -14.4797 18.266
    endloop
  endfacet
  facet normal 0.739896 0.0561829 0.670371
    outer loop
      vertex 48.458 -31.063 16.855
      vertex 43.1205 -16.0962 21.4917
      vertex 44.327 -31.985 21.4917
    endloop
  endfacet
  facet normal 0.738328 0.0669303 0.671112
    outer loop
      vertex 44.327 -31.985 21.4917
      vertex 50 -48.0733 16.855
      vertex 48.458 -31.063 16.855
    endloop
  endfacet
  facet normal 0.738328 0.0669302 0.671112
    outer loop
      vertex 47.3738 -50 19.9363
      vertex 50 -48.0733 16.855
      vertex 44.327 -31.985 21.4917
    endloop
  endfacet
  facet normal 0.738328 0.0669305 0.671112
    outer loop
      vertex 50 -48.0733 16.855
      vertex 47.3738 -50 19.9363
      vertex 50 -50 17.0472
    endloop
  endfacet
  facet normal 0.740789 0.0675868 0.668329
    outer loop
      vertex 45.9706 -50 21.4917
      vertex 47.3738 -50 19.9363
      vertex 44.327 -31.985 21.4917
    endloop
  endfacet
  facet normal 0.706897 0.0407056 0.706144
    outer loop
      vertex 42.8052 50 16.855
      vertex 48.495 24.422 12.6336
      vertex 45.0473 50 14.6105
    endloop
  endfacet
  facet normal 0.706897 0.0407056 0.706144
    outer loop
      vertex 48.495 24.422 12.6336
      vertex 42.8052 50 16.855
      vertex 44.307 23.92 16.855
    endloop
  endfacet
  facet normal 0.705568 0.0404226 0.707488
    outer loop
      vertex 48.495 24.422 12.6336
      vertex 47.0296 50 12.6336
      vertex 45.0473 50 14.6105
    endloop
  endfacet
  facet normal 0.707821 0.0534379 0.704367
    outer loop
      vertex 44.9787 15.0234 16.855
      vertex 45.7373 14.5854 16.1259
      vertex 44.307 23.92 16.855
    endloop
  endfacet
  facet normal 0.70782 0.0534378 0.704369
    outer loop
      vertex 47.1523 -13.7685 16.855
      vertex 50 -13.2347 13.9529
      vertex 49.8437 -12.2146 14.0326
    endloop
  endfacet
  facet normal 0.70782 0.0534377 0.704369
    outer loop
      vertex 47.1523 -13.7685 16.855
      vertex 50 -30.7128 15.2789
      vertex 50 -13.2347 13.9529
    endloop
  endfacet
  facet normal 0.70782 0.0534377 0.704368
    outer loop
      vertex 50 -30.7128 15.2789
      vertex 47.1523 -13.7685 16.855
      vertex 48.458 -31.063 16.855
    endloop
  endfacet
  facet normal 0.705757 0.0529574 0.706471
    outer loop
      vertex 48.495 24.422 12.6336
      vertex 45.7373 14.5854 16.1259
      vertex 49.3914 12.4757 12.6336
    endloop
  endfacet
  facet normal 0.705758 0.0529573 0.706471
    outer loop
      vertex 45.7373 14.5854 16.1259
      vertex 48.495 24.422 12.6336
      vertex 44.307 23.92 16.855
    endloop
  endfacet
  facet normal 0.705756 0.0529572 0.706473
    outer loop
      vertex 50 -13.2347 13.9529
      vertex 50 -12.1244 13.8696
      vertex 49.8437 -12.2146 14.0326
    endloop
  endfacet
  facet normal 0.706254 0.0636058 0.705095
    outer loop
      vertex 50 -40.1795 16.1329
      vertex 50 -30.7128 15.2789
      vertex 48.458 -31.063 16.855
    endloop
  endfacet
  facet normal 0.708861 0.064259 0.702415
    outer loop
      vertex 50 -48.0733 16.855
      vertex 50 -40.1795 16.1329
      vertex 48.458 -31.063 16.855
    endloop
  endfacet
  facet normal 0.66958 0.0383605 0.741749
    outer loop
      vertex 47.0296 50 12.6336
      vertex 50 44.7775 10.2223
      vertex 49.294 50 10.5895
    endloop
  endfacet
  facet normal 0.66958 0.0383608 0.741749
    outer loop
      vertex 48.495 24.422 12.6336
      vertex 50 44.7775 10.2223
      vertex 47.0296 50 12.6336
    endloop
  endfacet
  facet normal 0.66958 0.0383608 0.741749
    outer loop
      vertex 50 44.7775 10.2223
      vertex 48.495 24.422 12.6336
      vertex 50 24.6071 11.2655
    endloop
  endfacet
  facet normal 0.668103 0.0380663 0.743094
    outer loop
      vertex 50 44.7775 10.2223
      vertex 50 50 9.95478
      vertex 49.294 50 10.5895
    endloop
  endfacet
  facet normal 0.670457 0.0503086 0.740241
    outer loop
      vertex 50 14.6141 11.937
      vertex 49.3914 12.4757 12.6336
      vertex 50 12.1244 12.1063
    endloop
  endfacet
  facet normal 0.670457 0.0503086 0.740241
    outer loop
      vertex 49.3914 12.4757 12.6336
      vertex 50 14.6141 11.937
      vertex 48.495 24.422 12.6336
    endloop
  endfacet
  facet normal 0.66846 0.049872 0.742074
    outer loop
      vertex 50 14.6141 11.937
      vertex 50 24.6071 11.2655
      vertex 48.495 24.422 12.6336
    endloop
  endfacet
endsolid OpenSCAD_Model
