solid OpenSCAD_Model
  facet normal -1 0 0
    outer loop
      vertex -50 -11.547 0
      vertex -50 -42.809 7.66564
      vertex -50 -11.547 8.79519
    endloop
  endfacet
  facet normal -1 0 0
    outer loop
      vertex -50 -50 0
      vertex -50 -42.809 7.66564
      vertex -50 -11.547 0
    endloop
  endfacet
  facet normal -1 0 0
    outer loop
      vertex -50 -42.809 7.66564
      vertex -50 -50 0
      vertex -50 -50 7.4072
    endloop
  endfacet
  facet normal -1 0 0
    outer loop
      vertex -50 50 0
      vertex -50 46.4547 12.8161
      vertex -50 50 13.2273
    endloop
  endfacet
  facet normal -1 0 0
    outer loop
      vertex -50 50 0
      vertex -50 45.283 12.7231
      vertex -50 46.4547 12.8161
    endloop
  endfacet
  facet normal -1 0 0
    outer loop
      vertex -50 50 0
      vertex -50 44.149 12.6336
      vertex -50 45.283 12.7231
    endloop
  endfacet
  facet normal -1 0 0
    outer loop
      vertex -50 50 0
      vertex -50 18.2946 10.7885
      vertex -50 44.149 12.6336
    endloop
  endfacet
  facet normal -1 0 0
    outer loop
      vertex -50 11.547 0
      vertex -50 18.2946 10.7885
      vertex -50 50 0
    endloop
  endfacet
  facet normal -1 0 0
    outer loop
      vertex -50 18.2946 10.7885
      vertex -50 11.547 0
      vertex -50 11.547 10.3098
    endloop
  endfacet
  facet normal 0 1 0
    outer loop
      vertex -49.3683 50 12.6336
      vertex -50 50 0
      vertex -50 50 13.2273
    endloop
  endfacet
  facet normal 0 1 0
    outer loop
      vertex -49.0238 50 12.3405
      vertex -50 50 0
      vertex -49.3683 50 12.6336
    endloop
  endfacet
  facet normal 0 1 0
    outer loop
      vertex -44.8795 50 8.82734
      vertex -50 50 0
      vertex -49.0238 50 12.3405
    endloop
  endfacet
  facet normal 0 1 0
    outer loop
      vertex -44.2784 50 8.37176
      vertex -50 50 0
      vertex -44.8795 50 8.82734
    endloop
  endfacet
  facet normal 0 1 0
    outer loop
      vertex -40.392 50 5.43633
      vertex -50 50 0
      vertex -44.2784 50 8.37176
    endloop
  endfacet
  facet normal 0 1 0
    outer loop
      vertex -39.529 50 4.86201
      vertex -50 50 0
      vertex -40.392 50 5.43633
    endloop
  endfacet
  facet normal 0 1 0
    outer loop
      vertex -35.9078 50 2.46055
      vertex -50 50 0
      vertex -39.529 50 4.86201
    endloop
  endfacet
  facet normal 0 1 0
    outer loop
      vertex -34.7768 50 1.81266
      vertex -50 50 0
      vertex -35.9078 50 2.46055
    endloop
  endfacet
  facet normal 0 1 0
    outer loop
      vertex -50 50 0
      vertex -34.7768 50 1.81266
      vertex -31.6015 50 0
    endloop
  endfacet
  facet normal 0 -1 0
    outer loop
      vertex -50 -50 0
      vertex -47.4854 -50 5.43633
      vertex -50 -50 7.4072
    endloop
  endfacet
  facet normal 0 -1 0
    outer loop
      vertex -50 -50 0
      vertex -46.4822 -50 4.74514
      vertex -47.4854 -50 5.43633
    endloop
  endfacet
  facet normal 0 -1 0
    outer loop
      vertex -50 -50 0
      vertex -43.1603 -50 2.46055
      vertex -46.4822 -50 4.74514
    endloop
  endfacet
  facet normal 0 -1 0
    outer loop
      vertex -50 -50 0
      vertex -42.0135 -50 1.78047
      vertex -43.1603 -50 2.46055
    endloop
  endfacet
  facet normal 0 -1 -0
    outer loop
      vertex -42.0135 -50 1.78047
      vertex -50 -50 0
      vertex -39.0056 -50 0
    endloop
  endfacet
  facet normal -1 0 0
    outer loop
      vertex -60 17.3205 0
      vertex -60 13.5153 20.1179
      vertex -60 17.3205 20.4504
    endloop
  endfacet
  facet normal -1 0 0
    outer loop
      vertex -60 17.3205 0
      vertex -60 -2.67656 18.7106
      vertex -60 13.5153 20.1179
    endloop
  endfacet
  facet normal -1 0 0
    outer loop
      vertex -60 -17.3205 0
      vertex -60 -2.67656 18.7106
      vertex -60 17.3205 0
    endloop
  endfacet
  facet normal -1 0 0
    outer loop
      vertex -60 -2.67656 18.7106
      vertex -60 -17.3205 0
      vertex -60 -16.5466 18.0187
    endloop
  endfacet
  facet normal -1 0 0
    outer loop
      vertex -60 -16.5466 18.0187
      vertex -60 -17.3205 0
      vertex -60 -17.3205 17.9802
    endloop
  endfacet
  facet normal 0.5 0.866025 0
    outer loop
      vertex -60 17.3205 0
      vertex -50 11.547 10.3098
      vertex -50 11.547 0
    endloop
  endfacet
  facet normal 0.5 0.866026 1.89042e-07
    outer loop
      vertex -50 11.547 10.3098
      vertex -60 17.3205 0
      vertex -51.0504 12.1535 11.2627
    endloop
  endfacet
  facet normal 0.5 0.866025 -1.94048e-07
    outer loop
      vertex -51.0504 12.1535 11.2627
      vertex -60 17.3205 0
      vertex -52.5571 13.0233 12.6336
    endloop
  endfacet
  facet normal 0.5 0.866025 7.8512e-09
    outer loop
      vertex -52.5571 13.0233 12.6336
      vertex -60 17.3205 0
      vertex -55.2309 14.5671 15.324
    endloop
  endfacet
  facet normal 0.5 0.866025 -1.48167e-07
    outer loop
      vertex -55.2309 14.5671 15.324
      vertex -60 17.3205 0
      vertex -56.7482 15.4431 16.855
    endloop
  endfacet
  facet normal 0.5 0.866026 3.6561e-08
    outer loop
      vertex -56.7482 15.4431 16.855
      vertex -60 17.3205 0
      vertex -59.4123 16.9812 19.7991
    endloop
  endfacet
  facet normal 0.5 0.866025 0
    outer loop
      vertex -59.4123 16.9812 19.7991
      vertex -60 17.3205 0
      vertex -60 17.3205 20.4504
    endloop
  endfacet
  facet normal 0.499999 -0.866026 0
    outer loop
      vertex -60 -17.3205 0
      vertex -58.9208 -16.6974 16.855
      vertex -60 -17.3205 17.9802
    endloop
  endfacet
  facet normal 0.5 -0.866025 -8.81666e-08
    outer loop
      vertex -60 -17.3205 0
      vertex -55.2584 -14.583 13.3717
      vertex -58.9208 -16.6974 16.855
    endloop
  endfacet
  facet normal 0.5 -0.866025 -2.01754e-07
    outer loop
      vertex -60 -17.3205 0
      vertex -54.4809 -14.1341 12.6336
      vertex -55.2584 -14.583 13.3717
    endloop
  endfacet
  facet normal 0.5 -0.866025 9.87486e-08
    outer loop
      vertex -60 -17.3205 0
      vertex -50.4004 -11.7782 9.13422
      vertex -54.4809 -14.1341 12.6336
    endloop
  endfacet
  facet normal 0.5 -0.866025 1.28621e-09
    outer loop
      vertex -50 -11.547 0
      vertex -50.4004 -11.7782 9.13422
      vertex -60 -17.3205 0
    endloop
  endfacet
  facet normal 0.5 -0.866026 -1.78172e-08
    outer loop
      vertex -50.4004 -11.7782 9.13422
      vertex -50 -11.547 0
      vertex -50.0421 -11.5713 8.82734
    endloop
  endfacet
  facet normal 0.500002 -0.866024 0
    outer loop
      vertex -50.0421 -11.5713 8.82734
      vertex -50 -11.547 0
      vertex -50 -11.547 8.79519
    endloop
  endfacet
  facet normal 0 0 -1
    outer loop
      vertex -60 -17.3205 0
      vertex -50 11.547 0
      vertex -50 -11.547 0
    endloop
  endfacet
  facet normal -0 0 -1
    outer loop
      vertex -50 11.547 0
      vertex -60 -17.3205 0
      vertex -60 17.3205 0
    endloop
  endfacet
  facet normal 0 0 -1
    outer loop
      vertex -50 11.547 0
      vertex -33.485 33.912 0
      vertex -37.358 -13.8096 0
    endloop
  endfacet
  facet normal 0 0 -1
    outer loop
      vertex -50 -50 0
      vertex -37.449 -15.8105 0
      vertex -39.0056 -50 0
    endloop
  endfacet
  facet normal 0 0 -1
    outer loop
      vertex -50 -11.547 0
      vertex -37.449 -15.8105 0
      vertex -50 -50 0
    endloop
  endfacet
  facet normal 0 0 -1
    outer loop
      vertex -37.449 -15.8105 0
      vertex -50 -11.547 0
      vertex -37.358 -13.8096 0
    endloop
  endfacet
  facet normal 0 0 -1
    outer loop
      vertex -50 11.547 0
      vertex -37.358 -13.8096 0
      vertex -50 -11.547 0
    endloop
  endfacet
  facet normal 0 0 -1
    outer loop
      vertex -50 50 0
      vertex -33.485 33.912 0
      vertex -50 11.547 0
    endloop
  endfacet
  facet normal 0 0 -1
    outer loop
      vertex -33.485 33.912 0
      vertex -50 50 0
      vertex -33.326 35.874 0
    endloop
  endfacet
  facet normal 0 0 -1
    outer loop
      vertex -33.326 35.874 0
      vertex -50 50 0
      vertex -31.6015 50 0
    endloop
  endfacet
  facet normal 0.725361 -0.0599315 0.685754
    outer loop
      vertex -59.4123 16.9812 19.7991
      vertex -60 17.3205 20.4504
      vertex -60 13.5153 20.1179
    endloop
  endfacet
  facet normal 0.724454 -0.0596874 0.686735
    outer loop
      vertex -60 13.5153 20.1179
      vertex -56.7482 15.4431 16.855
      vertex -59.4123 16.9812 19.7991
    endloop
  endfacet
  facet normal 0.724453 -0.0596877 0.686735
    outer loop
      vertex -58.31 -3.5134 16.855
      vertex -60 13.5153 20.1179
      vertex -60 -2.67656 18.7106
    endloop
  endfacet
  facet normal 0.724454 -0.0596876 0.686735
    outer loop
      vertex -60 13.5153 20.1179
      vertex -58.31 -3.5134 16.855
      vertex -56.7482 15.4431 16.855
    endloop
  endfacet
  facet normal 0.731214 -0.0339868 0.681301
    outer loop
      vertex -58.31 -3.5134 16.855
      vertex -60 -2.67656 18.7106
      vertex -60 -16.5466 18.0187
    endloop
  endfacet
  facet normal 0.730593 -0.0338461 0.681974
    outer loop
      vertex -60 -16.5466 18.0187
      vertex -58.9208 -16.6974 16.855
      vertex -58.31 -3.5134 16.855
    endloop
  endfacet
  facet normal 0.730593 -0.033846 0.681974
    outer loop
      vertex -58.9208 -16.6974 16.855
      vertex -60 -16.5466 18.0187
      vertex -60 -17.3205 17.9802
    endloop
  endfacet
  facet normal 0.682432 -0.084215 0.726081
    outer loop
      vertex -50 46.4547 12.8161
      vertex -49.3683 50 12.6336
      vertex -50 50 13.2273
    endloop
  endfacet
  facet normal 0.682434 -0.0842154 0.72608
    outer loop
      vertex -49.3683 50 12.6336
      vertex -50 46.4547 12.8161
      vertex -49.82 46.34 12.6336
    endloop
  endfacet
  facet normal 0.691653 -0.0568217 0.719992
    outer loop
      vertex -58.31 -3.5134 16.855
      vertex -52.5571 13.0233 12.6336
      vertex -55.2309 14.5671 15.324
    endloop
  endfacet
  facet normal 0.691653 -0.0568217 0.719992
    outer loop
      vertex -52.5571 13.0233 12.6336
      vertex -58.31 -3.5134 16.855
      vertex -54.087 -5.5993 12.6336
    endloop
  endfacet
  facet normal 0.691652 -0.0568217 0.719993
    outer loop
      vertex -49.82 46.34 12.6336
      vertex -50 45.283 12.7231
      vertex -50 44.149 12.6336
    endloop
  endfacet
  facet normal 0.692608 -0.0570639 0.719053
    outer loop
      vertex -55.2309 14.5671 15.324
      vertex -56.7482 15.4431 16.855
      vertex -58.31 -3.5134 16.855
    endloop
  endfacet
  facet normal 0.692609 -0.0570643 0.719053
    outer loop
      vertex -49.82 46.34 12.6336
      vertex -50 46.4547 12.8161
      vertex -50 45.283 12.7231
    endloop
  endfacet
  facet normal 0.697826 -0.0322069 0.715543
    outer loop
      vertex -54.4809 -14.1341 12.6336
      vertex -54.087 -5.5993 12.6336
      vertex -55.2584 -14.583 13.3717
    endloop
  endfacet
  facet normal 0.698562 -0.0323623 0.714818
    outer loop
      vertex -58.31 -3.5134 16.855
      vertex -55.2584 -14.583 13.3717
      vertex -54.087 -5.5993 12.6336
    endloop
  endfacet
  facet normal 0.698562 -0.0323622 0.714817
    outer loop
      vertex -55.2584 -14.583 13.3717
      vertex -58.31 -3.5134 16.855
      vertex -58.9208 -16.6974 16.855
    endloop
  endfacet
  facet normal 0.644596 -0.0793367 0.760395
    outer loop
      vertex -49.82 46.34 12.6336
      vertex -44.8795 50 8.82734
      vertex -49.0238 50 12.3405
    endloop
  endfacet
  facet normal 0.644596 -0.0793366 0.760395
    outer loop
      vertex -44.8795 50 8.82734
      vertex -49.82 46.34 12.6336
      vertex -45.656 43.691 8.82734
    endloop
  endfacet
  facet normal 0.645869 -0.079703 0.759277
    outer loop
      vertex -49.0238 50 12.3405
      vertex -49.3683 50 12.6336
      vertex -49.82 46.34 12.6336
    endloop
  endfacet
  facet normal 0.653773 -0.0535404 0.754794
    outer loop
      vertex -50 11.547 10.3098
      vertex -45.656 43.691 8.82734
      vertex -50 18.2946 10.7885
    endloop
  endfacet
  facet normal 0.653773 -0.0535404 0.754794
    outer loop
      vertex -45.656 43.691 8.82734
      vertex -50 11.547 10.3098
      vertex -49.863 -7.68 8.82734
    endloop
  endfacet
  facet normal 0.653773 -0.0535404 0.754794
    outer loop
      vertex -54.087 -5.5993 12.6336
      vertex -50 11.547 10.3098
      vertex -51.0504 12.1535 11.2627
    endloop
  endfacet
  facet normal 0.653774 -0.0535404 0.754794
    outer loop
      vertex -50 11.547 10.3098
      vertex -54.087 -5.5993 12.6336
      vertex -49.863 -7.68 8.82734
    endloop
  endfacet
  facet normal 0.654851 -0.0537984 0.753841
    outer loop
      vertex -50 44.149 12.6336
      vertex -45.656 43.691 8.82734
      vertex -49.82 46.34 12.6336
    endloop
  endfacet
  facet normal 0.654851 -0.0537984 0.753841
    outer loop
      vertex -45.656 43.691 8.82734
      vertex -50 44.149 12.6336
      vertex -50 18.2946 10.7885
    endloop
  endfacet
  facet normal 0.654851 -0.0537983 0.753841
    outer loop
      vertex -51.0504 12.1535 11.2627
      vertex -52.5571 13.0233 12.6336
      vertex -54.087 -5.5993 12.6336
    endloop
  endfacet
  facet normal 0.66017 -0.0303772 0.750502
    outer loop
      vertex -50.0421 -11.5713 8.82734
      vertex -49.863 -7.68 8.82734
      vertex -50.4004 -11.7782 9.13422
    endloop
  endfacet
  facet normal 0.660774 -0.0304966 0.749965
    outer loop
      vertex -54.087 -5.5993 12.6336
      vertex -50.4004 -11.7782 9.13422
      vertex -49.863 -7.68 8.82734
    endloop
  endfacet
  facet normal 0.660774 -0.0304968 0.749965
    outer loop
      vertex -50.4004 -11.7782 9.13422
      vertex -54.087 -5.5993 12.6336
      vertex -54.4809 -14.1341 12.6336
    endloop
  endfacet
  facet normal 0.601066 -0.0737818 0.795787
    outer loop
      vertex -45.656 43.691 8.82734
      vertex -40.392 50 5.43633
      vertex -44.2784 50 8.37176
    endloop
  endfacet
  facet normal 0.601066 -0.0737821 0.795786
    outer loop
      vertex -40.392 50 5.43633
      vertex -45.656 43.691 8.82734
      vertex -41.491 41.047 5.43633
    endloop
  endfacet
  facet normal 0.602364 -0.0741387 0.794771
    outer loop
      vertex -44.2784 50 8.37176
      vertex -44.8795 50 8.82734
      vertex -45.656 43.691 8.82734
    endloop
  endfacet
  facet normal 0.610328 -0.0498453 0.790579
    outer loop
      vertex -45.64 -9.7553 5.43633
      vertex -41.491 41.047 5.43633
      vertex -49.863 -7.68 8.82734
    endloop
  endfacet
  facet normal 0.611277 -0.0500602 0.789832
    outer loop
      vertex -41.491 41.047 5.43633
      vertex -45.656 43.691 8.82734
      vertex -49.863 -7.68 8.82734
    endloop
  endfacet
  facet normal 0.616629 -0.0282752 0.786746
    outer loop
      vertex -50 -42.809 7.66564
      vertex -47.4854 -50 5.43633
      vertex -45.64 -9.7553 5.43633
    endloop
  endfacet
  facet normal 0.616629 -0.0282753 0.786746
    outer loop
      vertex -47.4854 -50 5.43633
      vertex -50 -42.809 7.66564
      vertex -50 -50 7.4072
    endloop
  endfacet
  facet normal 0.617352 -0.028407 0.786174
    outer loop
      vertex -49.863 -7.68 8.82734
      vertex -50.0421 -11.5713 8.82734
      vertex -50 -11.547 8.79519
    endloop
  endfacet
  facet normal 0.617337 -0.0284065 0.786186
    outer loop
      vertex -50 -11.547 8.79519
      vertex -45.64 -9.7553 5.43633
      vertex -49.863 -7.68 8.82734
    endloop
  endfacet
  facet normal 0.617337 -0.0284063 0.786186
    outer loop
      vertex -45.64 -9.7553 5.43633
      vertex -50 -11.547 8.79519
      vertex -50 -42.809 7.66564
    endloop
  endfacet
  facet normal 0.551423 -0.0675037 0.83149
    outer loop
      vertex -41.491 41.047 5.43633
      vertex -35.9078 50 2.46055
      vertex -39.529 50 4.86201
    endloop
  endfacet
  facet normal 0.551423 -0.0675038 0.83149
    outer loop
      vertex -35.9078 50 2.46055
      vertex -41.491 41.047 5.43633
      vertex -37.327 38.407 2.46055
    endloop
  endfacet
  facet normal 0.552737 -0.0678496 0.830589
    outer loop
      vertex -39.529 50 4.86201
      vertex -40.392 50 5.43633
      vertex -41.491 41.047 5.43633
    endloop
  endfacet
  facet normal 0.560292 -0.0456087 0.827039
    outer loop
      vertex -41.416 -11.8254 2.46055
      vertex -37.327 38.407 2.46055
      vertex -45.64 -9.7553 5.43633
    endloop
  endfacet
  facet normal 0.561415 -0.0458505 0.826263
    outer loop
      vertex -37.327 38.407 2.46055
      vertex -41.491 41.047 5.43633
      vertex -45.64 -9.7553 5.43633
    endloop
  endfacet
  facet normal 0.566466 -0.0258832 0.823679
    outer loop
      vertex -43.1603 -50 2.46055
      vertex -41.416 -11.8254 2.46055
      vertex -46.4822 -50 4.74514
    endloop
  endfacet
  facet normal 0.567181 -0.0260078 0.823182
    outer loop
      vertex -47.4854 -50 5.43633
      vertex -41.416 -11.8254 2.46055
      vertex -45.64 -9.7553 5.43633
    endloop
  endfacet
  facet normal 0.567181 -0.0260079 0.823182
    outer loop
      vertex -41.416 -11.8254 2.46055
      vertex -47.4854 -50 5.43633
      vertex -46.4822 -50 4.74514
    endloop
  endfacet
  facet normal 0.494864 -0.0604112 0.866868
    outer loop
      vertex -37.327 38.407 2.46055
      vertex -31.6015 50 0
      vertex -34.7768 50 1.81266
    endloop
  endfacet
  facet normal 0.494864 -0.0604113 0.866868
    outer loop
      vertex -31.6015 50 0
      vertex -37.327 38.407 2.46055
      vertex -33.326 35.874 0
    endloop
  endfacet
  facet normal 0.496157 -0.0607382 0.866106
    outer loop
      vertex -34.7768 50 1.81266
      vertex -35.9078 50 2.46055
      vertex -37.327 38.407 2.46055
    endloop
  endfacet
  facet normal 0.503366 -0.0408523 0.863107
    outer loop
      vertex -37.358 -13.8096 0
      vertex -33.485 33.912 0
      vertex -41.416 -11.8254 2.46055
    endloop
  endfacet
  facet normal 0.504503 -0.0408849 0.862441
    outer loop
      vertex -33.485 33.912 0
      vertex -33.326 35.874 0
      vertex -37.327 38.407 2.46055
    endloop
  endfacet
  facet normal 0.504355 -0.0410553 0.86252
    outer loop
      vertex -33.485 33.912 0
      vertex -37.327 38.407 2.46055
      vertex -41.416 -11.8254 2.46055
    endloop
  endfacet
  facet normal 0.509248 -0.023186 0.860307
    outer loop
      vertex -39.0056 -50 0
      vertex -37.449 -15.8105 0
      vertex -42.0135 -50 1.78047
    endloop
  endfacet
  facet normal 0.510024 -0.0231946 0.859848
    outer loop
      vertex -37.449 -15.8105 0
      vertex -37.358 -13.8096 0
      vertex -41.416 -11.8254 2.46055
    endloop
  endfacet
  facet normal 0.509944 -0.0233006 0.859892
    outer loop
      vertex -43.1603 -50 2.46055
      vertex -37.449 -15.8105 0
      vertex -41.416 -11.8254 2.46055
    endloop
  endfacet
  facet normal 0.509944 -0.0233006 0.859892
    outer loop
      vertex -37.449 -15.8105 0
      vertex -43.1603 -50 2.46055
      vertex -42.0135 -50 1.78047
    endloop
  endfacet
endsolid OpenSCAD_Model
