solid OpenSCAD_Model
  facet normal -1 0 0
    outer loop
      vertex -50 -50 0
      vertex -50 -11.547 99.8
      vertex -50 -11.547 0
    endloop
  endfacet
  facet normal -1 -0 0
    outer loop
      vertex -50 -11.547 99.8
      vertex -50 -50 0
      vertex -50 -50 99.8
    endloop
  endfacet
  facet normal -1 0 0
    outer loop
      vertex -50 11.547 0
      vertex -50 50 99.8
      vertex -50 50 0
    endloop
  endfacet
  facet normal -1 -0 0
    outer loop
      vertex -50 50 99.8
      vertex -50 11.547 0
      vertex -50 11.547 99.8
    endloop
  endfacet
  facet normal 1 -0 0
    outer loop
      vertex 50 -50 99.8
      vertex 50 -48.209 90.6958
      vertex 50 -49.981 99.8
    endloop
  endfacet
  facet normal 1 0 0
    outer loop
      vertex 50 -15.121 2.46055
      vertex 50 -50 0
      vertex 50 -12.602 0
    endloop
  endfacet
  facet normal 1 0 0
    outer loop
      vertex 50 -17.69 5.43633
      vertex 50 -50 0
      vertex 50 -15.121 2.46055
    endloop
  endfacet
  facet normal 1 0 0
    outer loop
      vertex 50 -20.208 8.82734
      vertex 50 -50 0
      vertex 50 -17.69 5.43633
    endloop
  endfacet
  facet normal 1 0 0
    outer loop
      vertex 50 -22.673 12.6336
      vertex 50 -50 0
      vertex 50 -20.208 8.82734
    endloop
  endfacet
  facet normal 1 0 0
    outer loop
      vertex 50 -25.086 16.855
      vertex 50 -50 0
      vertex 50 -22.673 12.6336
    endloop
  endfacet
  facet normal 1 0 0
    outer loop
      vertex 50 -27.448 21.4917
      vertex 50 -50 0
      vertex 50 -25.086 16.855
    endloop
  endfacet
  facet normal 1 0 0
    outer loop
      vertex 50 -29.758 26.5436
      vertex 50 -50 0
      vertex 50 -27.448 21.4917
    endloop
  endfacet
  facet normal 1 0 0
    outer loop
      vertex 50 -32.016 32.0107
      vertex 50 -50 0
      vertex 50 -29.758 26.5436
    endloop
  endfacet
  facet normal 1 0 0
    outer loop
      vertex 50 -34.221 37.8931
      vertex 50 -50 0
      vertex 50 -32.016 32.0107
    endloop
  endfacet
  facet normal 1 0 0
    outer loop
      vertex 50 -36.375 44.1907
      vertex 50 -50 0
      vertex 50 -34.221 37.8931
    endloop
  endfacet
  facet normal 1 0 0
    outer loop
      vertex 50 -38.478 50.9035
      vertex 50 -50 0
      vertex 50 -36.375 44.1907
    endloop
  endfacet
  facet normal 1 0 0
    outer loop
      vertex 50 -40.528 58.0315
      vertex 50 -50 0
      vertex 50 -38.478 50.9035
    endloop
  endfacet
  facet normal 1 0 0
    outer loop
      vertex 50 -42.526 65.5747
      vertex 50 -50 0
      vertex 50 -40.528 58.0315
    endloop
  endfacet
  facet normal 1 0 0
    outer loop
      vertex 50 -44.472 73.5332
      vertex 50 -50 0
      vertex 50 -42.526 65.5747
    endloop
  endfacet
  facet normal 1 0 0
    outer loop
      vertex 50 -46.367 81.9069
      vertex 50 -50 0
      vertex 50 -44.472 73.5332
    endloop
  endfacet
  facet normal 1 0 0
    outer loop
      vertex 50 -48.209 90.6958
      vertex 50 -50 0
      vertex 50 -46.367 81.9069
    endloop
  endfacet
  facet normal 1 0 0
    outer loop
      vertex 50 -50 0
      vertex 50 -48.209 90.6958
      vertex 50 -50 99.8
    endloop
  endfacet
  facet normal 0 1 0
    outer loop
      vertex -46.165 50 94.0882
      vertex -50 50 99.8
      vertex -48.5183 50 99.8
    endloop
  endfacet
  facet normal 0 1 0
    outer loop
      vertex -44.7377 50 90.6958
      vertex -50 50 99.8
      vertex -46.165 50 94.0882
    endloop
  endfacet
  facet normal 0 1 0
    outer loop
      vertex -42.1515 50 84.7038
      vertex -50 50 99.8
      vertex -44.7377 50 90.6958
    endloop
  endfacet
  facet normal 0 1 0
    outer loop
      vertex -50 50 0
      vertex -42.1515 50 84.7038
      vertex -40.9186 50 81.9069
    endloop
  endfacet
  facet normal 0 1 0
    outer loop
      vertex -50 50 0
      vertex -40.9186 50 81.9069
      vertex -38.1359 50 75.7688
    endloop
  endfacet
  facet normal 0 1 0
    outer loop
      vertex -50 50 0
      vertex -38.1359 50 75.7688
      vertex -37.101 50 73.5332
    endloop
  endfacet
  facet normal 0 1 0
    outer loop
      vertex -50 50 0
      vertex -37.101 50 73.5332
      vertex -34.1195 50 67.2841
    endloop
  endfacet
  facet normal 0 1 0
    outer loop
      vertex -50 50 0
      vertex -34.1195 50 67.2841
      vertex -33.2869 50 65.5747
    endloop
  endfacet
  facet normal 0 1 0
    outer loop
      vertex -50 50 0
      vertex -18.2983 50 38.2935
      vertex -18.0579 50 37.8931
    endloop
  endfacet
  facet normal 0 1 0
    outer loop
      vertex -50 50 0
      vertex -12.1244 50 28.8941
      vertex -12.1244 50 0
    endloop
  endfacet
  facet normal 0 1 0
    outer loop
      vertex -12.1244 50 28.8941
      vertex -50 50 0
      vertex -14.0383 50 31.6608
    endloop
  endfacet
  facet normal 0 1 0
    outer loop
      vertex -14.0383 50 31.6608
      vertex -50 50 0
      vertex -14.2755 50 32.0107
    endloop
  endfacet
  facet normal 0 1 0
    outer loop
      vertex -14.2755 50 32.0107
      vertex -50 50 0
      vertex -18.044 50 37.8709
    endloop
  endfacet
  facet normal 0 1 0
    outer loop
      vertex -18.044 50 37.8709
      vertex -50 50 0
      vertex -18.0579 50 37.8931
    endloop
  endfacet
  facet normal 0 1 0
    outer loop
      vertex -18.2983 50 38.2935
      vertex -50 50 0
      vertex -21.8594 50 44.1907
    endloop
  endfacet
  facet normal 0 1 0
    outer loop
      vertex -21.8594 50 44.1907
      vertex -50 50 0
      vertex -22.0631 50 44.5431
    endloop
  endfacet
  facet normal 0 1 0
    outer loop
      vertex -22.0631 50 44.5431
      vertex -50 50 0
      vertex -25.6661 50 50.9035
    endloop
  endfacet
  facet normal 0 1 0
    outer loop
      vertex -25.6661 50 50.9035
      vertex -50 50 0
      vertex -26.0833 50 51.6702
    endloop
  endfacet
  facet normal 0 1 0
    outer loop
      vertex -26.0833 50 51.6702
      vertex -50 50 0
      vertex -29.4747 50 58.0315
    endloop
  endfacet
  facet normal 0 1 0
    outer loop
      vertex -29.4747 50 58.0315
      vertex -50 50 0
      vertex -30.1016 50 59.251
    endloop
  endfacet
  facet normal 0 1 0
    outer loop
      vertex -30.1016 50 59.251
      vertex -50 50 0
      vertex -33.2869 50 65.5747
    endloop
  endfacet
  facet normal 0 1 0
    outer loop
      vertex -42.1515 50 84.7038
      vertex -50 50 0
      vertex -50 50 99.8
    endloop
  endfacet
  facet normal 0 1 0
    outer loop
      vertex 13.9763 50 1.15052
      vertex 12.1244 50 0
      vertex 12.1244 50 2.42811
    endloop
  endfacet
  facet normal 0 1 0
    outer loop
      vertex 12.1244 50 0
      vertex 13.9763 50 1.15052
      vertex 15.6763 50 0
    endloop
  endfacet
  facet normal 0 -1 0
    outer loop
      vertex -50 -50 0
      vertex 50 -50 99.8
      vertex -50 -50 99.8
    endloop
  endfacet
  facet normal 0 -1 -0
    outer loop
      vertex 50 -50 99.8
      vertex -50 -50 0
      vertex 50 -50 0
    endloop
  endfacet
  facet normal -1 0 0
    outer loop
      vertex -60 -17.3205 0
      vertex -60 17.3205 99.8
      vertex -60 17.3205 0
    endloop
  endfacet
  facet normal -1 -0 0
    outer loop
      vertex -60 17.3205 99.8
      vertex -60 -17.3205 0
      vertex -60 -17.3205 99.8
    endloop
  endfacet
  facet normal 0.5 0.866025 -0
    outer loop
      vertex -50 11.547 0
      vertex -60 17.3205 99.8
      vertex -50 11.547 99.8
    endloop
  endfacet
  facet normal 0.5 0.866025 0
    outer loop
      vertex -60 17.3205 99.8
      vertex -50 11.547 0
      vertex -60 17.3205 0
    endloop
  endfacet
  facet normal 0.5 -0.866025 0
    outer loop
      vertex -60 -17.3205 0
      vertex -50 -11.547 99.8
      vertex -60 -17.3205 99.8
    endloop
  endfacet
  facet normal 0.5 -0.866025 0
    outer loop
      vertex -50 -11.547 99.8
      vertex -60 -17.3205 0
      vertex -50 -11.547 0
    endloop
  endfacet
  facet normal 1 0 0
    outer loop
      vertex 39.5 -15.121 2.46055
      vertex 39.5 -18.1865 0
      vertex 39.5 -12.602 0
    endloop
  endfacet
  facet normal 1 0 0
    outer loop
      vertex 39.5 -17.69 5.43633
      vertex 39.5 -18.1865 0
      vertex 39.5 -15.121 2.46055
    endloop
  endfacet
  facet normal 1 0 0
    outer loop
      vertex 39.5 -18.1865 0
      vertex 39.5 -17.69 5.43633
      vertex 39.5 -18.1865 6.10502
    endloop
  endfacet
  facet normal -0.500001 0.866025 0
    outer loop
      vertex 40.36 -17.69 5.43633
      vertex 39.5 -18.1865 0
      vertex 39.5 -18.1865 6.10502
    endloop
  endfacet
  facet normal -0.5 0.866025 -2.6955e-07
    outer loop
      vertex 44.8097 -15.121 2.46055
      vertex 39.5 -18.1865 0
      vertex 40.36 -17.69 5.43633
    endloop
  endfacet
  facet normal -0.5 0.866025 -2.95093e-07
    outer loop
      vertex 39.5 -18.1865 0
      vertex 44.8097 -15.121 2.46055
      vertex 49.1727 -12.602 0
    endloop
  endfacet
  facet normal 0 1 0
    outer loop
      vertex -16.7654 39.5 37.8931
      vertex -18.1865 39.5 0
      vertex -18.1865 39.5 40.2601
    endloop
  endfacet
  facet normal 0 1 0
    outer loop
      vertex -15.8058 39.5 36.3693
      vertex -18.1865 39.5 0
      vertex -16.7654 39.5 37.8931
    endloop
  endfacet
  facet normal 0 1 0
    outer loop
      vertex -13.0029 39.5 32.0107
      vertex -18.1865 39.5 0
      vertex -15.8058 39.5 36.3693
    endloop
  endfacet
  facet normal 0 1 0
    outer loop
      vertex -11.8206 39.5 30.2669
      vertex -18.1865 39.5 0
      vertex -13.0029 39.5 32.0107
    endloop
  endfacet
  facet normal 0 1 0
    outer loop
      vertex -9.24493 39.5 26.5436
      vertex -18.1865 39.5 0
      vertex -11.8206 39.5 30.2669
    endloop
  endfacet
  facet normal 0 1 0
    outer loop
      vertex -7.83671 39.5 24.6249
      vertex -18.1865 39.5 0
      vertex -9.24493 39.5 26.5436
    endloop
  endfacet
  facet normal 0 1 0
    outer loop
      vertex -5.4902 39.5 21.4917
      vertex -18.1865 39.5 0
      vertex -7.83671 39.5 24.6249
    endloop
  endfacet
  facet normal 0 1 0
    outer loop
      vertex -3.85245 39.5 19.4442
      vertex -18.1865 39.5 0
      vertex -5.4902 39.5 21.4917
    endloop
  endfacet
  facet normal 0 1 0
    outer loop
      vertex -1.74012 39.5 16.855
      vertex -18.1865 39.5 0
      vertex -3.85245 39.5 19.4442
    endloop
  endfacet
  facet normal 0 1 0
    outer loop
      vertex 0.130692 39.5 14.7261
      vertex -18.1865 39.5 0
      vertex -1.74012 39.5 16.855
    endloop
  endfacet
  facet normal 0 1 0
    outer loop
      vertex 2.00626 39.5 12.6336
      vertex -18.1865 39.5 0
      vertex 0.130692 39.5 14.7261
    endloop
  endfacet
  facet normal 0 1 0
    outer loop
      vertex 4.11394 39.5 10.4715
      vertex -18.1865 39.5 0
      vertex 2.00626 39.5 12.6336
    endloop
  endfacet
  facet normal 0 1 0
    outer loop
      vertex 5.74803 39.5 8.82734
      vertex -18.1865 39.5 0
      vertex 4.11394 39.5 10.4715
    endloop
  endfacet
  facet normal 0 1 0
    outer loop
      vertex 8.09619 39.5 6.68164
      vertex -18.1865 39.5 0
      vertex 5.74803 39.5 8.82734
    endloop
  endfacet
  facet normal 0 1 0
    outer loop
      vertex 9.48574 39.5 5.43633
      vertex -18.1865 39.5 0
      vertex 8.09619 39.5 6.68164
    endloop
  endfacet
  facet normal 0 1 0
    outer loop
      vertex 12.0782 39.5 3.35779
      vertex -18.1865 39.5 0
      vertex 9.48574 39.5 5.43633
    endloop
  endfacet
  facet normal 0 1 0
    outer loop
      vertex 13.2187 39.5 2.46055
      vertex -18.1865 39.5 0
      vertex 12.0782 39.5 3.35779
    endloop
  endfacet
  facet normal 0 1 0
    outer loop
      vertex 16.0591 39.5 0.501066
      vertex -18.1865 39.5 0
      vertex 13.2187 39.5 2.46055
    endloop
  endfacet
  facet normal 0 1 0
    outer loop
      vertex -18.1865 39.5 0
      vertex 16.0591 39.5 0.501066
      vertex 16.7994 39.5 0
    endloop
  endfacet
  facet normal 0.866025 -0.5 -5.72008e-08
    outer loop
      vertex -18.1865 39.5 0
      vertex -12.1244 50 28.8941
      vertex -13.5257 47.5729 31.3386
    endloop
  endfacet
  facet normal 0.866025 -0.5 7.26219e-08
    outer loop
      vertex -18.1865 39.5 0
      vertex -13.5257 47.5729 31.3386
      vertex -13.9023 46.9205 32.0107
    endloop
  endfacet
  facet normal 0.866025 -0.5 3.41076e-08
    outer loop
      vertex -18.1865 39.5 0
      vertex -13.9023 46.9205 32.0107
      vertex -16.4477 42.5117 36.8
    endloop
  endfacet
  facet normal 0.866025 -0.5 2.47346e-08
    outer loop
      vertex -18.1865 39.5 0
      vertex -16.4477 42.5117 36.8
      vertex -17.0151 41.5289 37.8931
    endloop
  endfacet
  facet normal 0.866026 -0.5 0
    outer loop
      vertex -18.1865 39.5 0
      vertex -17.0151 41.5289 37.8931
      vertex -18.1865 39.5 40.2601
    endloop
  endfacet
  facet normal 0.866025 -0.5 0
    outer loop
      vertex -12.1244 50 28.8941
      vertex -18.1865 39.5 0
      vertex -12.1244 50 0
    endloop
  endfacet
  facet normal -0.866026 -0.5 0
    outer loop
      vertex 12.1244 50 0
      vertex 14.9456 45.1135 0.848274
      vertex 12.1244 50 2.42811
    endloop
  endfacet
  facet normal -0.866025 -0.5 -6.39822e-07
    outer loop
      vertex 14.9456 45.1135 0.848274
      vertex 12.1244 50 0
      vertex 16.484 42.4489 0
    endloop
  endfacet
  facet normal 0 0 1
    outer loop
      vertex -60 17.3205 99.8
      vertex -50 -11.547 99.8
      vertex -50 11.547 99.8
    endloop
  endfacet
  facet normal 0 0 1
    outer loop
      vertex -50 -11.547 99.8
      vertex -60 17.3205 99.8
      vertex -60 -17.3205 99.8
    endloop
  endfacet
  facet normal -0 0 1
    outer loop
      vertex -34.964 -49.981 99.8
      vertex 50 -50 99.8
      vertex 50 -49.981 99.8
    endloop
  endfacet
  facet normal -0 0 1
    outer loop
      vertex -50 11.547 99.8
      vertex -39.979 -10.724 99.8
      vertex -45.828 31.39 99.8
    endloop
  endfacet
  facet normal 0 0 1
    outer loop
      vertex -50 -11.547 99.8
      vertex -39.979 -10.724 99.8
      vertex -50 11.547 99.8
    endloop
  endfacet
  facet normal 0 0 1
    outer loop
      vertex -50 11.547 99.8
      vertex -45.828 31.39 99.8
      vertex -45.891 31.854 99.8
    endloop
  endfacet
  facet normal -0 0 1
    outer loop
      vertex -50 50 99.8
      vertex -45.891 31.854 99.8
      vertex -48.5183 50 99.8
    endloop
  endfacet
  facet normal 0 0 1
    outer loop
      vertex -45.891 31.854 99.8
      vertex -50 50 99.8
      vertex -50 11.547 99.8
    endloop
  endfacet
  facet normal 0 0 1
    outer loop
      vertex -39.979 -10.724 99.8
      vertex -50 -11.547 99.8
      vertex -39.925 -11.153 99.8
    endloop
  endfacet
  facet normal 0 0 1
    outer loop
      vertex -50 -50 99.8
      vertex -39.925 -11.153 99.8
      vertex -50 -11.547 99.8
    endloop
  endfacet
  facet normal 0 0 1
    outer loop
      vertex -34.964 -49.981 99.8
      vertex -50 -50 99.8
      vertex 50 -50 99.8
    endloop
  endfacet
  facet normal 0 0 1
    outer loop
      vertex -39.925 -11.153 99.8
      vertex -50 -50 99.8
      vertex -34.964 -49.981 99.8
    endloop
  endfacet
  facet normal 0 0 -1
    outer loop
      vertex 39.5 -18.1865 0
      vertex 50 -12.602 0
      vertex 50 -50 0
    endloop
  endfacet
  facet normal -0 0 -1
    outer loop
      vertex 50 -12.602 0
      vertex 39.5 -18.1865 0
      vertex 49.1727 -12.602 0
    endloop
  endfacet
  facet normal 0 0 -1
    outer loop
      vertex 39.5 -18.1865 0
      vertex 21.869 -12.602 0
      vertex 39.5 -12.602 0
    endloop
  endfacet
  facet normal 0 0 -1
    outer loop
      vertex 50 -50 0
      vertex 21.869 -12.602 0
      vertex 39.5 -18.1865 0
    endloop
  endfacet
  facet normal 0 0 -1
    outer loop
      vertex -18.1865 39.5 0
      vertex 17.854 29.675 0
      vertex 21.71 -10.956 0
    endloop
  endfacet
  facet normal 0 0 -1
    outer loop
      vertex 17.854 29.675 0
      vertex -18.1865 39.5 0
      vertex 17.666 31.399 0
    endloop
  endfacet
  facet normal 0 0 -1
    outer loop
      vertex -50 -11.547 0
      vertex 21.71 -10.956 0
      vertex 21.869 -12.602 0
    endloop
  endfacet
  facet normal 0 0 -1
    outer loop
      vertex 17.666 31.399 0
      vertex -18.1865 39.5 0
      vertex 16.7994 39.5 0
    endloop
  endfacet
  facet normal 0 0 -1
    outer loop
      vertex -50 -50 0
      vertex 21.869 -12.602 0
      vertex 50 -50 0
    endloop
  endfacet
  facet normal -0 0 -1
    outer loop
      vertex 21.869 -12.602 0
      vertex -50 -50 0
      vertex -50 -11.547 0
    endloop
  endfacet
  facet normal -0 0 -1
    outer loop
      vertex 21.71 -10.956 0
      vertex -50 -11.547 0
      vertex -50 11.547 0
    endloop
  endfacet
  facet normal 0 0 -1
    outer loop
      vertex 21.71 -10.956 0
      vertex -50 11.547 0
      vertex -18.1865 39.5 0
    endloop
  endfacet
  facet normal 0 0 -1
    outer loop
      vertex -50 50 0
      vertex -18.1865 39.5 0
      vertex -50 11.547 0
    endloop
  endfacet
  facet normal 0 0 -1
    outer loop
      vertex -18.1865 39.5 0
      vertex -50 50 0
      vertex -12.1244 50 0
    endloop
  endfacet
  facet normal 0 0 -1
    outer loop
      vertex -60 -17.3205 0
      vertex -50 11.547 0
      vertex -50 -11.547 0
    endloop
  endfacet
  facet normal -0 0 -1
    outer loop
      vertex -50 11.547 0
      vertex -60 -17.3205 0
      vertex -60 17.3205 0
    endloop
  endfacet
  facet normal -0 -0 -1
    outer loop
      vertex 15.6763 50 0
      vertex 16.484 42.4489 0
      vertex 12.1244 50 0
    endloop
  endfacet
  facet normal 0.913842 0.13062 0.384489
    outer loop
      vertex -42.447 33.974 90.6958
      vertex -44.7377 50 90.6958
      vertex -46.165 50 94.0882
    endloop
  endfacet
  facet normal 0.916426 0.132685 0.377569
    outer loop
      vertex -48.5183 50 99.8
      vertex -42.447 33.974 90.6958
      vertex -46.165 50 94.0882
    endloop
  endfacet
  facet normal 0.916426 0.132685 0.377569
    outer loop
      vertex -42.447 33.974 90.6958
      vertex -48.5183 50 99.8
      vertex -45.891 31.854 99.8
    endloop
  endfacet
  facet normal 0.918067 0.124651 0.376319
    outer loop
      vertex -45.828 31.39 99.8
      vertex -42.447 33.974 90.6958
      vertex -45.891 31.854 99.8
    endloop
  endfacet
  facet normal 0.917866 0.125567 0.376504
    outer loop
      vertex -36.604 -8.737 90.6958
      vertex -42.447 33.974 90.6958
      vertex -45.828 31.39 99.8
    endloop
  endfacet
  facet normal 0.920533 0.127848 0.369152
    outer loop
      vertex -39.979 -10.724 99.8
      vertex -36.604 -8.737 90.6958
      vertex -45.828 31.39 99.8
    endloop
  endfacet
  facet normal 0.92277 0.116155 0.367429
    outer loop
      vertex -39.925 -11.153 99.8
      vertex -36.604 -8.737 90.6958
      vertex -39.979 -10.724 99.8
    endloop
  endfacet
  facet normal 0.922823 0.115891 0.367378
    outer loop
      vertex -31.647 -48.209 90.6958
      vertex -36.604 -8.737 90.6958
      vertex -39.925 -11.153 99.8
    endloop
  endfacet
  facet normal 0.925368 0.118233 0.360159
    outer loop
      vertex -34.964 -49.981 99.8
      vertex -31.647 -48.209 90.6958
      vertex -39.925 -11.153 99.8
    endloop
  endfacet
  facet normal -0 0.98158 0.19105
    outer loop
      vertex -31.647 -48.209 90.6958
      vertex 50 -49.981 99.8
      vertex 50 -48.209 90.6958
    endloop
  endfacet
  facet normal 0 0.98158 0.19105
    outer loop
      vertex 50 -49.981 99.8
      vertex -31.647 -48.209 90.6958
      vertex -34.964 -49.981 99.8
    endloop
  endfacet
  facet normal 0.907509 0.128025 0.400047
    outer loop
      vertex -38.966 36.159 81.9069
      vertex -40.9186 50 81.9069
      vertex -42.1515 50 84.7038
    endloop
  endfacet
  facet normal 0.910329 0.130118 0.3929
    outer loop
      vertex -44.7377 50 90.6958
      vertex -38.966 36.159 81.9069
      vertex -42.1515 50 84.7038
    endloop
  endfacet
  facet normal 0.910329 0.130118 0.3929
    outer loop
      vertex -38.966 36.159 81.9069
      vertex -44.7377 50 90.6958
      vertex -42.447 33.974 90.6958
    endloop
  endfacet
  facet normal 0.911845 0.122899 0.391706
    outer loop
      vertex -33.192 -6.681 81.9069
      vertex -38.966 36.159 81.9069
      vertex -42.447 33.974 90.6958
    endloop
  endfacet
  facet normal 0.914664 0.125129 0.384359
    outer loop
      vertex -36.604 -8.737 90.6958
      vertex -33.192 -6.681 81.9069
      vertex -42.447 33.974 90.6958
    endloop
  endfacet
  facet normal 0.917009 0.113176 0.382474
    outer loop
      vertex -28.294 -46.367 81.9069
      vertex -33.192 -6.681 81.9069
      vertex -36.604 -8.737 90.6958
    endloop
  endfacet
  facet normal 0.91976 0.115506 0.3751
    outer loop
      vertex -31.647 -48.209 90.6958
      vertex -28.294 -46.367 81.9069
      vertex -36.604 -8.737 90.6958
    endloop
  endfacet
  facet normal -0 0.978736 0.205126
    outer loop
      vertex -28.294 -46.367 81.9069
      vertex 50 -48.209 90.6958
      vertex 50 -46.367 81.9069
    endloop
  endfacet
  facet normal 0 0.978736 0.205126
    outer loop
      vertex 50 -48.209 90.6958
      vertex -28.294 -46.367 81.9069
      vertex -31.647 -48.209 90.6958
    endloop
  endfacet
  facet normal 0.900319 0.125349 0.416789
    outer loop
      vertex -35.484 38.386 73.5332
      vertex -37.101 50 73.5332
      vertex -38.1359 50 75.7688
    endloop
  endfacet
  facet normal 0.903352 0.127439 0.409529
    outer loop
      vertex -40.9186 50 81.9069
      vertex -35.484 38.386 73.5332
      vertex -38.1359 50 75.7688
    endloop
  endfacet
  facet normal 0.903352 0.127439 0.40953
    outer loop
      vertex -35.484 38.386 73.5332
      vertex -40.9186 50 81.9069
      vertex -38.966 36.159 81.9069
    endloop
  endfacet
  facet normal 0.904932 0.120138 0.408245
    outer loop
      vertex -29.78 -4.579 73.5332
      vertex -35.484 38.386 73.5332
      vertex -38.966 36.159 81.9069
    endloop
  endfacet
  facet normal 0.907999 0.122381 0.4007
    outer loop
      vertex -33.192 -6.681 81.9069
      vertex -29.78 -4.579 73.5332
      vertex -38.966 36.159 81.9069
    endloop
  endfacet
  facet normal 0.910415 0.110433 0.398685
    outer loop
      vertex -24.941 -44.472 73.5332
      vertex -29.78 -4.579 73.5332
      vertex -33.192 -6.681 81.9069
    endloop
  endfacet
  facet normal 0.91336 0.112726 0.391238
    outer loop
      vertex -28.294 -46.367 81.9069
      vertex -24.941 -44.472 73.5332
      vertex -33.192 -6.681 81.9069
    endloop
  endfacet
  facet normal -0 0.975337 0.220723
    outer loop
      vertex -24.941 -44.472 73.5332
      vertex 50 -46.367 81.9069
      vertex 50 -44.472 73.5332
    endloop
  endfacet
  facet normal 0 0.975337 0.220723
    outer loop
      vertex 50 -46.367 81.9069
      vertex -24.941 -44.472 73.5332
      vertex -28.294 -46.367 81.9069
    endloop
  endfacet
  facet normal 0.892244 0.122597 0.434591
    outer loop
      vertex -32.003 40.656 65.5747
      vertex -33.2869 50 65.5747
      vertex -34.1195 50 67.2841
    endloop
  endfacet
  facet normal 0.895497 0.124678 0.427247
    outer loop
      vertex -37.101 50 73.5332
      vertex -32.003 40.656 65.5747
      vertex -34.1195 50 67.2841
    endloop
  endfacet
  facet normal 0.895497 0.124678 0.427247
    outer loop
      vertex -32.003 40.656 65.5747
      vertex -37.101 50 73.5332
      vertex -35.484 38.386 73.5332
    endloop
  endfacet
  facet normal 0.897143 0.117335 0.425872
    outer loop
      vertex -26.368 -2.429 65.5747
      vertex -32.003 40.656 65.5747
      vertex -35.484 38.386 73.5332
    endloop
  endfacet
  facet normal 0.900401 0.119537 0.418316
    outer loop
      vertex -29.78 -4.579 73.5332
      vertex -26.368 -2.429 65.5747
      vertex -35.484 38.386 73.5332
    endloop
  endfacet
  facet normal 0.902894 0.107635 0.41617
    outer loop
      vertex -21.588 -42.526 65.5747
      vertex -26.368 -2.429 65.5747
      vertex -29.78 -4.579 73.5332
    endloop
  endfacet
  facet normal 0.906068 0.109906 0.40861
    outer loop
      vertex -24.941 -44.472 73.5332
      vertex -21.588 -42.526 65.5747
      vertex -29.78 -4.579 73.5332
    endloop
  endfacet
  facet normal -0 0.971382 0.237521
    outer loop
      vertex -21.588 -42.526 65.5747
      vertex 50 -44.472 73.5332
      vertex 50 -42.526 65.5747
    endloop
  endfacet
  facet normal 0 0.971382 0.237521
    outer loop
      vertex 50 -44.472 73.5332
      vertex -21.588 -42.526 65.5747
      vertex -24.941 -44.472 73.5332
    endloop
  endfacet
  facet normal 0.882976 0.119741 0.45389
    outer loop
      vertex -28.521 42.967 58.0315
      vertex -29.4747 50 58.0315
      vertex -30.1016 50 59.251
    endloop
  endfacet
  facet normal 0.886451 0.121801 0.446509
    outer loop
      vertex -33.2869 50 65.5747
      vertex -28.521 42.967 58.0315
      vertex -30.1016 50 59.251
    endloop
  endfacet
  facet normal 0.886451 0.121801 0.446509
    outer loop
      vertex -28.521 42.967 58.0315
      vertex -33.2869 50 65.5747
      vertex -32.003 40.656 65.5747
    endloop
  endfacet
  facet normal 0.888172 0.114414 0.44504
    outer loop
      vertex -22.956 -0.233 58.0315
      vertex -28.521 42.967 58.0315
      vertex -32.003 40.656 65.5747
    endloop
  endfacet
  facet normal 0.89172 0.116626 0.437303
    outer loop
      vertex -26.368 -2.429 65.5747
      vertex -22.956 -0.233 58.0315
      vertex -32.003 40.656 65.5747
    endloop
  endfacet
  facet normal 0.894303 0.104777 0.435022
    outer loop
      vertex -18.235 -40.528 58.0315
      vertex -22.956 -0.233 58.0315
      vertex -26.368 -2.429 65.5747
    endloop
  endfacet
  facet normal 0.897713 0.107017 0.427385
    outer loop
      vertex -21.588 -42.526 65.5747
      vertex -18.235 -40.528 58.0315
      vertex -26.368 -2.429 65.5747
    endloop
  endfacet
  facet normal -0 0.966665 0.256045
    outer loop
      vertex -18.235 -40.528 58.0315
      vertex 50 -42.526 65.5747
      vertex 50 -40.528 58.0315
    endloop
  endfacet
  facet normal 0 0.966665 0.256045
    outer loop
      vertex 50 -42.526 65.5747
      vertex -18.235 -40.528 58.0315
      vertex -21.588 -42.526 65.5747
    endloop
  endfacet
  facet normal 0.872393 0.11674 0.47466
    outer loop
      vertex -25.04 45.321 50.9035
      vertex -25.6661 50 50.9035
      vertex -26.0833 50 51.6702
    endloop
  endfacet
  facet normal 0.876173 0.118818 0.467123
    outer loop
      vertex -29.4747 50 58.0315
      vertex -25.04 45.321 50.9035
      vertex -26.0833 50 51.6702
    endloop
  endfacet
  facet normal 0.876173 0.118818 0.467123
    outer loop
      vertex -25.04 45.321 50.9035
      vertex -29.4747 50 58.0315
      vertex -28.521 42.967 58.0315
    endloop
  endfacet
  facet normal 0.877976 0.111414 0.465559
    outer loop
      vertex -19.544 2.011 50.9035
      vertex -25.04 45.321 50.9035
      vertex -28.521 42.967 58.0315
    endloop
  endfacet
  facet normal 0.881753 0.113587 0.457832
    outer loop
      vertex -22.956 -0.233 58.0315
      vertex -19.544 2.011 50.9035
      vertex -28.521 42.967 58.0315
    endloop
  endfacet
  facet normal 0.884435 0.101836 0.455417
    outer loop
      vertex -14.882 -38.478 50.9035
      vertex -19.544 2.011 50.9035
      vertex -22.956 -0.233 58.0315
    endloop
  endfacet
  facet normal 0.888113 0.104052 0.447692
    outer loop
      vertex -18.235 -40.528 58.0315
      vertex -14.882 -38.478 50.9035
      vertex -22.956 -0.233 58.0315
    endloop
  endfacet
  facet normal -0 0.961044 0.276394
    outer loop
      vertex -14.882 -38.478 50.9035
      vertex 50 -40.528 58.0315
      vertex 50 -38.478 50.9035
    endloop
  endfacet
  facet normal 0 0.961044 0.276394
    outer loop
      vertex 50 -40.528 58.0315
      vertex -14.882 -38.478 50.9035
      vertex -18.235 -40.528 58.0315
    endloop
  endfacet
  facet normal 0.860176 0.113574 0.49719
    outer loop
      vertex -21.558 47.717 44.1907
      vertex -21.8594 50 44.1907
      vertex -22.0631 50 44.5431
    endloop
  endfacet
  facet normal 0.864256 0.115651 0.489578
    outer loop
      vertex -25.6661 50 50.9035
      vertex -21.558 47.717 44.1907
      vertex -22.0631 50 44.5431
    endloop
  endfacet
  facet normal 0.864256 0.115651 0.489578
    outer loop
      vertex -21.558 47.717 44.1907
      vertex -25.6661 50 50.9035
      vertex -25.04 45.321 50.9035
    endloop
  endfacet
  facet normal 0.866151 0.108249 0.487919
    outer loop
      vertex -16.132 4.301 44.1907
      vertex -21.558 47.717 44.1907
      vertex -25.04 45.321 50.9035
    endloop
  endfacet
  facet normal 0.870278 0.110437 0.480021
    outer loop
      vertex -19.544 2.011 50.9035
      vertex -16.132 4.301 44.1907
      vertex -25.04 45.321 50.9035
    endloop
  endfacet
  facet normal 0.873074 0.0987993 0.477473
    outer loop
      vertex -11.529 -36.375 44.1907
      vertex -16.132 4.301 44.1907
      vertex -19.544 2.011 50.9035
    endloop
  endfacet
  facet normal 0.877028 0.100983 0.469706
    outer loop
      vertex -14.882 -38.478 50.9035
      vertex -11.529 -36.375 44.1907
      vertex -19.544 2.011 50.9035
    endloop
  endfacet
  facet normal -0 0.954267 0.298955
    outer loop
      vertex -11.529 -36.375 44.1907
      vertex 50 -38.478 50.9035
      vertex 50 -36.375 44.1907
    endloop
  endfacet
  facet normal 0 0.954267 0.298955
    outer loop
      vertex 50 -38.478 50.9035
      vertex -11.529 -36.375 44.1907
      vertex -14.882 -38.478 50.9035
    endloop
  endfacet
  facet normal 0.850614 0.112311 0.513656
    outer loop
      vertex -21.558 47.717 44.1907
      vertex -18.2983 50 38.2935
      vertex -21.8594 50 44.1907
    endloop
  endfacet
  facet normal 0.852604 0.104957 0.511909
    outer loop
      vertex -17.0151 41.5289 37.8931
      vertex -18.2983 50 38.2935
      vertex -21.558 47.717 44.1907
    endloop
  endfacet
  facet normal 0.852603 0.104957 0.51191
    outer loop
      vertex -18.2983 50 38.2935
      vertex -17.0151 41.5289 37.8931
      vertex -18.0579 50 37.8931
    endloop
  endfacet
  facet normal 0.852604 0.104956 0.511909
    outer loop
      vertex -21.558 47.717 44.1907
      vertex -18.1865 39.5 40.2601
      vertex -17.0151 41.5289 37.8931
    endloop
  endfacet
  facet normal 0.852603 0.104957 0.51191
    outer loop
      vertex -18.1865 39.5 40.2601
      vertex -12.72 6.638 37.8931
      vertex -16.7654 39.5 37.8931
    endloop
  endfacet
  facet normal 0.852604 0.104957 0.511909
    outer loop
      vertex -12.72 6.638 37.8931
      vertex -18.1865 39.5 40.2601
      vertex -21.558 47.717 44.1907
    endloop
  endfacet
  facet normal 0.857 0.107105 0.504063
    outer loop
      vertex -16.132 4.301 44.1907
      vertex -12.72 6.638 37.8931
      vertex -21.558 47.717 44.1907
    endloop
  endfacet
  facet normal 0.859921 0.0956333 0.501389
    outer loop
      vertex -8.176 -34.221 37.8931
      vertex -12.72 6.638 37.8931
      vertex -16.132 4.301 44.1907
    endloop
  endfacet
  facet normal 0.864192 0.0977942 0.493567
    outer loop
      vertex -11.529 -36.375 44.1907
      vertex -8.176 -34.221 37.8931
      vertex -16.132 4.301 44.1907
    endloop
  endfacet
  facet normal -0 0.946184 0.323628
    outer loop
      vertex -8.176 -34.221 37.8931
      vertex 50 -36.375 44.1907
      vertex 50 -34.221 37.8931
    endloop
  endfacet
  facet normal 0 0.946184 0.323628
    outer loop
      vertex 50 -36.375 44.1907
      vertex -8.176 -34.221 37.8931
      vertex -11.529 -36.375 44.1907
    endloop
  endfacet
  facet normal 0.836767 0.101416 0.538086
    outer loop
      vertex -9.309 9.022 32.0107
      vertex -13.0029 39.5 32.0107
      vertex -15.8058 39.5 36.3693
    endloop
  endfacet
  facet normal 0.836767 0.101416 0.538086
    outer loop
      vertex -18.044 50 37.8709
      vertex -13.9023 46.9205 32.0107
      vertex -14.2755 50 32.0107
    endloop
  endfacet
  facet normal 0.836767 0.101416 0.538086
    outer loop
      vertex -13.9023 46.9205 32.0107
      vertex -18.044 50 37.8709
      vertex -16.4477 42.5117 36.8
    endloop
  endfacet
  facet normal 0.841632 0.103606 0.530021
    outer loop
      vertex -16.7654 39.5 37.8931
      vertex -9.309 9.022 32.0107
      vertex -15.8058 39.5 36.3693
    endloop
  endfacet
  facet normal 0.841631 0.103606 0.530022
    outer loop
      vertex -9.309 9.022 32.0107
      vertex -16.7654 39.5 37.8931
      vertex -12.72 6.638 37.8931
    endloop
  endfacet
  facet normal 0.841632 0.103606 0.530021
    outer loop
      vertex -18.0579 50 37.8931
      vertex -16.4477 42.5117 36.8
      vertex -18.044 50 37.8709
    endloop
  endfacet
  facet normal 0.841632 0.103606 0.530021
    outer loop
      vertex -16.4477 42.5117 36.8
      vertex -18.0579 50 37.8931
      vertex -17.0151 41.5289 37.8931
    endloop
  endfacet
  facet normal 0.844697 0.092316 0.527224
    outer loop
      vertex -4.824 -32.016 32.0107
      vertex -9.309 9.022 32.0107
      vertex -12.72 6.638 37.8931
    endloop
  endfacet
  facet normal 0.849311 0.0944534 0.519373
    outer loop
      vertex -8.176 -34.221 37.8931
      vertex -4.824 -32.016 32.0107
      vertex -12.72 6.638 37.8931
    endloop
  endfacet
  facet normal -0 0.936376 0.350998
    outer loop
      vertex -4.824 -32.016 32.0107
      vertex 50 -34.221 37.8931
      vertex 50 -32.016 32.0107
    endloop
  endfacet
  facet normal 0 0.936376 0.350998
    outer loop
      vertex 50 -34.221 37.8931
      vertex -4.824 -32.016 32.0107
      vertex -8.176 -34.221 37.8931
    endloop
  endfacet
  facet normal 0.81846 0.0976983 0.566197
    outer loop
      vertex -5.897 11.453 26.5436
      vertex -9.24493 39.5 26.5436
      vertex -11.8206 39.5 30.2669
    endloop
  endfacet
  facet normal 0.81846 0.0976982 0.566197
    outer loop
      vertex -13.5257 47.5729 31.3386
      vertex -12.1244 50 28.8941
      vertex -14.0383 50 31.6608
    endloop
  endfacet
  facet normal 0.823566 0.099816 0.558369
    outer loop
      vertex -13.0029 39.5 32.0107
      vertex -5.897 11.453 26.5436
      vertex -11.8206 39.5 30.2669
    endloop
  endfacet
  facet normal 0.823566 0.0998159 0.558369
    outer loop
      vertex -5.897 11.453 26.5436
      vertex -13.0029 39.5 32.0107
      vertex -9.309 9.022 32.0107
    endloop
  endfacet
  facet normal 0.823566 0.0998158 0.558369
    outer loop
      vertex -14.2755 50 32.0107
      vertex -13.5257 47.5729 31.3386
      vertex -14.0383 50 31.6608
    endloop
  endfacet
  facet normal 0.823566 0.0998161 0.558368
    outer loop
      vertex -13.5257 47.5729 31.3386
      vertex -14.2755 50 32.0107
      vertex -13.9023 46.9205 32.0107
    endloop
  endfacet
  facet normal 0.82678 0.0887949 0.555474
    outer loop
      vertex -1.471 -29.758 26.5436
      vertex -5.897 11.453 26.5436
      vertex -9.309 9.022 32.0107
    endloop
  endfacet
  facet normal 0.831749 0.090901 0.547659
    outer loop
      vertex -4.824 -32.016 32.0107
      vertex -1.471 -29.758 26.5436
      vertex -9.309 9.022 32.0107
    endloop
  endfacet
  facet normal -0 0.92427 0.381738
    outer loop
      vertex -1.471 -29.758 26.5436
      vertex 50 -32.016 32.0107
      vertex 50 -29.758 26.5436
    endloop
  endfacet
  facet normal 0 0.92427 0.381738
    outer loop
      vertex 50 -32.016 32.0107
      vertex -1.471 -29.758 26.5436
      vertex -4.824 -32.016 32.0107
    endloop
  endfacet
  facet normal 0.796896 0.0936615 0.596812
    outer loop
      vertex -2.485 13.931 21.4917
      vertex -5.4902 39.5 21.4917
      vertex -7.83671 39.5 24.6249
    endloop
  endfacet
  facet normal 0.802464 0.0957889 0.588962
    outer loop
      vertex -9.24493 39.5 26.5436
      vertex -2.485 13.931 21.4917
      vertex -7.83671 39.5 24.6249
    endloop
  endfacet
  facet normal 0.802464 0.095789 0.588961
    outer loop
      vertex -2.485 13.931 21.4917
      vertex -9.24493 39.5 26.5436
      vertex -5.897 11.453 26.5436
    endloop
  endfacet
  facet normal 0.805851 0.0850468 0.585979
    outer loop
      vertex 1.882 -27.448 21.4917
      vertex -2.485 13.931 21.4917
      vertex -5.897 11.453 26.5436
    endloop
  endfacet
  facet normal 0.811202 0.0871218 0.57824
    outer loop
      vertex -1.471 -29.758 26.5436
      vertex 1.882 -27.448 21.4917
      vertex -5.897 11.453 26.5436
    endloop
  endfacet
  facet normal -0 0.909436 0.415843
    outer loop
      vertex 1.882 -27.448 21.4917
      vertex 50 -29.758 26.5436
      vertex 50 -27.448 21.4917
    endloop
  endfacet
  facet normal 0 0.909436 0.415843
    outer loop
      vertex 50 -29.758 26.5436
      vertex 1.882 -27.448 21.4917
      vertex -1.471 -29.758 26.5436
    endloop
  endfacet
  facet normal 0.771754 0.0893232 0.629617
    outer loop
      vertex 0.926999 16.456 16.855
      vertex -1.74012 39.5 16.855
      vertex -3.85245 39.5 19.4442
    endloop
  endfacet
  facet normal 0.777649 0.0913993 0.62202
    outer loop
      vertex -5.4902 39.5 21.4917
      vertex 0.926999 16.456 16.855
      vertex -3.85245 39.5 19.4442
    endloop
  endfacet
  facet normal 0.777649 0.0913993 0.62202
    outer loop
      vertex 0.926999 16.456 16.855
      vertex -5.4902 39.5 21.4917
      vertex -2.485 13.931 21.4917
    endloop
  endfacet
  facet normal 0.781212 0.0810135 0.618986
    outer loop
      vertex 5.235 -25.086 16.855
      vertex 0.926999 16.456 16.855
      vertex -2.485 13.931 21.4917
    endloop
  endfacet
  facet normal 0.786958 0.0830529 0.611392
    outer loop
      vertex 1.882 -27.448 21.4917
      vertex 5.235 -25.086 16.855
      vertex -2.485 13.931 21.4917
    endloop
  endfacet
  facet normal -0 0.891047 0.453912
    outer loop
      vertex 5.235 -25.086 16.855
      vertex 50 -27.448 21.4917
      vertex 50 -25.086 16.855
    endloop
  endfacet
  facet normal 0 0.891047 0.453912
    outer loop
      vertex 50 -27.448 21.4917
      vertex 5.235 -25.086 16.855
      vertex 1.882 -27.448 21.4917
    endloop
  endfacet
  facet normal 0.74198 0.084543 0.66507
    outer loop
      vertex 4.339 19.027 12.6336
      vertex 2.00626 39.5 12.6336
      vertex 0.130692 39.5 14.7261
    endloop
  endfacet
  facet normal 0.748355 0.0866149 0.657619
    outer loop
      vertex -1.74012 39.5 16.855
      vertex 4.339 19.027 12.6336
      vertex 0.130692 39.5 14.7261
    endloop
  endfacet
  facet normal 0.748355 0.0866149 0.657619
    outer loop
      vertex 4.339 19.027 12.6336
      vertex -1.74012 39.5 16.855
      vertex 0.926999 16.456 16.855
    endloop
  endfacet
  facet normal 0.752105 0.0766353 0.654572
    outer loop
      vertex 8.588 -22.673 12.6336
      vertex 4.339 19.027 12.6336
      vertex 0.926999 16.456 16.855
    endloop
  endfacet
  facet normal 0.758245 0.0786318 0.64721
    outer loop
      vertex 5.235 -25.086 16.855
      vertex 8.588 -22.673 12.6336
      vertex 0.926999 16.456 16.855
    endloop
  endfacet
  facet normal -0 0.868175 0.496258
    outer loop
      vertex 8.588 -22.673 12.6336
      vertex 50 -25.086 16.855
      vertex 50 -22.673 12.6336
    endloop
  endfacet
  facet normal 0 0.868175 0.496258
    outer loop
      vertex 50 -25.086 16.855
      vertex 8.588 -22.673 12.6336
      vertex 5.235 -25.086 16.855
    endloop
  endfacet
  facet normal 0.707036 0.0793197 0.702716
    outer loop
      vertex 7.751 21.646 8.82734
      vertex 5.74803 39.5 8.82734
      vertex 4.11394 39.5 10.4715
    endloop
  endfacet
  facet normal 0.713693 0.08132 0.695722
    outer loop
      vertex 2.00626 39.5 12.6336
      vertex 7.751 21.646 8.82734
      vertex 4.11394 39.5 10.4715
    endloop
  endfacet
  facet normal 0.713693 0.08132 0.695722
    outer loop
      vertex 7.751 21.646 8.82734
      vertex 2.00626 39.5 12.6336
      vertex 4.339 19.027 12.6336
    endloop
  endfacet
  facet normal 0.71762 0.0718409 0.69272
    outer loop
      vertex 11.941 -20.208 8.82734
      vertex 7.751 21.646 8.82734
      vertex 4.339 19.027 12.6336
    endloop
  endfacet
  facet normal 0.724141 0.073786 0.685693
    outer loop
      vertex 8.588 -22.673 12.6336
      vertex 11.941 -20.208 8.82734
      vertex 4.339 19.027 12.6336
    endloop
  endfacet
  facet normal -0 0.839356 0.543582
    outer loop
      vertex 11.941 -20.208 8.82734
      vertex 50 -22.673 12.6336
      vertex 50 -20.208 8.82734
    endloop
  endfacet
  facet normal 0 0.839356 0.543582
    outer loop
      vertex 50 -22.673 12.6336
      vertex 11.941 -20.208 8.82734
      vertex 8.588 -22.673 12.6336
    endloop
  endfacet
  facet normal 0.672642 0.0754612 0.736111
    outer loop
      vertex 5.74803 39.5 8.82734
      vertex 11.163 24.311 5.43633
      vertex 8.09619 39.5 6.68164
    endloop
  endfacet
  facet normal 0.672642 0.0754612 0.736111
    outer loop
      vertex 11.163 24.311 5.43633
      vertex 5.74803 39.5 8.82734
      vertex 7.751 21.646 8.82734
    endloop
  endfacet
  facet normal 0.665592 0.0734984 0.742688
    outer loop
      vertex 11.163 24.311 5.43633
      vertex 9.48574 39.5 5.43633
      vertex 8.09619 39.5 6.68164
    endloop
  endfacet
  facet normal 0.683544 0.0684295 0.726695
    outer loop
      vertex 11.941 -20.208 8.82734
      vertex 15.294 -17.69 5.43633
      vertex 7.751 21.646 8.82734
    endloop
  endfacet
  facet normal 0.676724 0.0665591 0.733222
    outer loop
      vertex 15.294 -17.69 5.43633
      vertex 11.163 24.311 5.43633
      vertex 7.751 21.646 8.82734
    endloop
  endfacet
  facet normal 0 0.802861 0.596166
    outer loop
      vertex 50 -20.208 8.82734
      vertex 39.5 -18.1865 6.10502
      vertex 11.941 -20.208 8.82734
    endloop
  endfacet
  facet normal -0 0.802861 0.596166
    outer loop
      vertex 40.36 -17.69 5.43633
      vertex 50 -20.208 8.82734
      vertex 50 -17.69 5.43633
    endloop
  endfacet
  facet normal -1.40319e-07 0.802861 0.596166
    outer loop
      vertex 50 -20.208 8.82734
      vertex 40.36 -17.69 5.43633
      vertex 39.5 -18.1865 6.10502
    endloop
  endfacet
  facet normal -0 0.802861 0.596167
    outer loop
      vertex 15.294 -17.69 5.43633
      vertex 39.5 -18.1865 6.10502
      vertex 39.5 -17.69 5.43633
    endloop
  endfacet
  facet normal 1.55794e-08 0.802861 0.596166
    outer loop
      vertex 39.5 -18.1865 6.10502
      vertex 15.294 -17.69 5.43633
      vertex 11.941 -20.208 8.82734
    endloop
  endfacet
  facet normal 0.624054 0.0689115 0.778337
    outer loop
      vertex 9.48574 39.5 5.43633
      vertex 14.575 27.023 2.46055
      vertex 12.0782 39.5 3.35779
    endloop
  endfacet
  facet normal 0.624054 0.0689116 0.778337
    outer loop
      vertex 14.575 27.023 2.46055
      vertex 9.48574 39.5 5.43633
      vertex 11.163 24.311 5.43633
    endloop
  endfacet
  facet normal 0.616894 0.0670582 0.784184
    outer loop
      vertex 14.575 27.023 2.46055
      vertex 13.2187 39.5 2.46055
      vertex 12.0782 39.5 3.35779
    endloop
  endfacet
  facet normal 0.635279 0.0624828 0.769751
    outer loop
      vertex 15.294 -17.69 5.43633
      vertex 18.647 -15.121 2.46055
      vertex 11.163 24.311 5.43633
    endloop
  endfacet
  facet normal 0.628237 0.0607009 0.775651
    outer loop
      vertex 18.647 -15.121 2.46055
      vertex 14.575 27.023 2.46055
      vertex 11.163 24.311 5.43633
    endloop
  endfacet
  facet normal -0 0.756948 0.653475
    outer loop
      vertex 18.647 -15.121 2.46055
      vertex 39.5 -17.69 5.43633
      vertex 39.5 -15.121 2.46055
    endloop
  endfacet
  facet normal 0 0.756948 0.653475
    outer loop
      vertex 39.5 -17.69 5.43633
      vertex 18.647 -15.121 2.46055
      vertex 15.294 -17.69 5.43633
    endloop
  endfacet
  facet normal -0 0.756948 0.653475
    outer loop
      vertex 44.8097 -15.121 2.46055
      vertex 50 -17.69 5.43633
      vertex 50 -15.121 2.46055
    endloop
  endfacet
  facet normal 0 0.756948 0.653475
    outer loop
      vertex 50 -17.69 5.43633
      vertex 44.8097 -15.121 2.46055
      vertex 40.36 -17.69 5.43633
    endloop
  endfacet
  facet normal 0.566605 0.0617875 0.82167
    outer loop
      vertex 17.854 29.675 0
      vertex 17.666 31.399 0
      vertex 14.575 27.023 2.46055
    endloop
  endfacet
  facet normal 0.566774 0.0616102 0.821566
    outer loop
      vertex 13.2187 39.5 2.46055
      vertex 17.666 31.399 0
      vertex 16.0591 39.5 0.501066
    endloop
  endfacet
  facet normal 0.566774 0.0616101 0.821566
    outer loop
      vertex 17.666 31.399 0
      vertex 13.2187 39.5 2.46055
      vertex 14.575 27.023 2.46055
    endloop
  endfacet
  facet normal 0.566774 0.06161 0.821566
    outer loop
      vertex 14.9456 45.1135 0.848274
      vertex 13.9763 50 1.15052
      vertex 12.1244 50 2.42811
    endloop
  endfacet
  facet normal 0.55948 0.0598471 0.82668
    outer loop
      vertex 17.666 31.399 0
      vertex 16.7994 39.5 0
      vertex 16.0591 39.5 0.501066
    endloop
  endfacet
  facet normal 0.55948 0.059847 0.82668
    outer loop
      vertex 15.6763 50 0
      vertex 14.9456 45.1135 0.848274
      vertex 16.484 42.4489 0
    endloop
  endfacet
  facet normal 0.55948 0.0598469 0.82668
    outer loop
      vertex 14.9456 45.1135 0.848274
      vertex 15.6763 50 0
      vertex 13.9763 50 1.15052
    endloop
  endfacet
  facet normal 0.578044 0.055838 0.814093
    outer loop
      vertex 21.869 -12.602 0
      vertex 21.71 -10.956 0
      vertex 18.647 -15.121 2.46055
    endloop
  endfacet
  facet normal 0.578033 0.0558502 0.8141
    outer loop
      vertex 18.647 -15.121 2.46055
      vertex 21.71 -10.956 0
      vertex 14.575 27.023 2.46055
    endloop
  endfacet
  facet normal 0.570917 0.0541817 0.819218
    outer loop
      vertex 21.71 -10.956 0
      vertex 17.854 29.675 0
      vertex 14.575 27.023 2.46055
    endloop
  endfacet
  facet normal -0 0.698759 0.715358
    outer loop
      vertex 21.869 -12.602 0
      vertex 39.5 -15.121 2.46055
      vertex 39.5 -12.602 0
    endloop
  endfacet
  facet normal 0 0.698759 0.715358
    outer loop
      vertex 39.5 -15.121 2.46055
      vertex 21.869 -12.602 0
      vertex 18.647 -15.121 2.46055
    endloop
  endfacet
  facet normal -0 0.698759 0.715358
    outer loop
      vertex 49.1727 -12.602 0
      vertex 50 -15.121 2.46055
      vertex 50 -12.602 0
    endloop
  endfacet
  facet normal 0 0.698759 0.715358
    outer loop
      vertex 50 -15.121 2.46055
      vertex 49.1727 -12.602 0
      vertex 44.8097 -15.121 2.46055
    endloop
  endfacet
endsolid OpenSCAD_Model
