solid OpenSCAD_Model
  facet normal -1 0 0
    outer loop
      vertex -50 -50 0
      vertex -50 50 99.8
      vertex -50 50 0
    endloop
  endfacet
  facet normal -1 -0 0
    outer loop
      vertex -50 50 99.8
      vertex -50 -50 0
      vertex -50 -50 99.8
    endloop
  endfacet
  facet normal 1 0 0
    outer loop
      vertex 50 -20.8781 8.5026
      vertex 50 -12.1244 0
      vertex 50 -12.1244 8.24845
    endloop
  endfacet
  facet normal 1 0 0
    outer loop
      vertex 50 -23.8716 8.63847
      vertex 50 -12.1244 0
      vertex 50 -20.8781 8.5026
    endloop
  endfacet
  facet normal 1 0 0
    outer loop
      vertex 50 -27.9939 8.82734
      vertex 50 -12.1244 0
      vertex 50 -23.8716 8.63847
    endloop
  endfacet
  facet normal 1 0 0
    outer loop
      vertex 50 -50 0
      vertex 50 -27.9939 8.82734
      vertex 50 -50 9.95475
    endloop
  endfacet
  facet normal 1 0 0
    outer loop
      vertex 50 -27.9939 8.82734
      vertex 50 -50 0
      vertex 50 -12.1244 0
    endloop
  endfacet
  facet normal 1 0 0
    outer loop
      vertex 50 32.906 6.93768
      vertex 50 50 0
      vertex 50 50 6.76609
    endloop
  endfacet
  facet normal 1 0 0
    outer loop
      vertex 50 12.1244 0
      vertex 50 32.906 6.93768
      vertex 50 12.1244 7.54263
    endloop
  endfacet
  facet normal 1 0 0
    outer loop
      vertex 50 32.906 6.93768
      vertex 50 12.1244 0
      vertex 50 50 0
    endloop
  endfacet
  facet normal 0 0 -1
    outer loop
      vertex 17.3205 -60 0
      vertex -11.547 -50 0
      vertex 11.547 -50 0
    endloop
  endfacet
  facet normal 0 -0 -1
    outer loop
      vertex -11.547 -50 0
      vertex 17.3205 -60 0
      vertex -17.3205 -60 0
    endloop
  endfacet
  facet normal 0 0 -1
    outer loop
      vertex 50 -50 0
      vertex 39.5 -18.1865 0
      vertex 50 -12.1244 0
    endloop
  endfacet
  facet normal 0 0 -1
    outer loop
      vertex 39.5 -18.1865 0
      vertex 18.1865 39.5 0
      vertex 39.5 18.1865 0
    endloop
  endfacet
  facet normal 0 0 -1
    outer loop
      vertex 11.547 -50 0
      vertex 39.5 -18.1865 0
      vertex 50 -50 0
    endloop
  endfacet
  facet normal 0 0 -1
    outer loop
      vertex -11.547 -50 0
      vertex 39.5 -18.1865 0
      vertex 11.547 -50 0
    endloop
  endfacet
  facet normal 0 0 -1
    outer loop
      vertex -18.1865 39.5 0
      vertex 39.5 -18.1865 0
      vertex -11.547 -50 0
    endloop
  endfacet
  facet normal 0 0 -1
    outer loop
      vertex 39.5 -18.1865 0
      vertex -18.1865 39.5 0
      vertex 18.1865 39.5 0
    endloop
  endfacet
  facet normal 0 -0 -1
    outer loop
      vertex -18.1865 39.5 0
      vertex -11.547 -50 0
      vertex -50 -50 0
    endloop
  endfacet
  facet normal 0 0 -1
    outer loop
      vertex 39.5 18.1865 0
      vertex 50 50 0
      vertex 50 12.1244 0
    endloop
  endfacet
  facet normal 0 0 -1
    outer loop
      vertex 18.1865 39.5 0
      vertex 50 50 0
      vertex 39.5 18.1865 0
    endloop
  endfacet
  facet normal -0 0 -1
    outer loop
      vertex 50 50 0
      vertex 18.1865 39.5 0
      vertex 12.1244 50 0
    endloop
  endfacet
  facet normal 0 0 -1
    outer loop
      vertex -18.1865 39.5 0
      vertex -50 50 0
      vertex -12.1244 50 0
    endloop
  endfacet
  facet normal 0 0 -1
    outer loop
      vertex -50 50 0
      vertex -18.1865 39.5 0
      vertex -50 -50 0
    endloop
  endfacet
  facet normal 0 -1 0
    outer loop
      vertex -50 -50 0
      vertex -11.547 -50 99.8
      vertex -50 -50 99.8
    endloop
  endfacet
  facet normal 0 -1 -0
    outer loop
      vertex -11.547 -50 99.8
      vertex -50 -50 0
      vertex -11.547 -50 0
    endloop
  endfacet
  facet normal 0 -1 0
    outer loop
      vertex 11.547 -50 0
      vertex 13.2517 -50 58.0315
      vertex 11.547 -50 61.073
    endloop
  endfacet
  facet normal 0 -1 0
    outer loop
      vertex 11.547 -50 0
      vertex 15.3689 -50 54.4484
      vertex 13.2517 -50 58.0315
    endloop
  endfacet
  facet normal 0 -1 0
    outer loop
      vertex 11.547 -50 0
      vertex 17.4718 -50 50.9035
      vertex 15.3689 -50 54.4484
    endloop
  endfacet
  facet normal 0 -1 0
    outer loop
      vertex 11.547 -50 0
      vertex 19.6033 -50 47.507
      vertex 17.4718 -50 50.9035
    endloop
  endfacet
  facet normal 0 -1 0
    outer loop
      vertex 11.547 -50 0
      vertex 21.6925 -50 44.1907
      vertex 19.6033 -50 47.507
    endloop
  endfacet
  facet normal 0 -1 0
    outer loop
      vertex 11.547 -50 0
      vertex 23.8394 -50 40.9818
      vertex 21.6925 -50 44.1907
    endloop
  endfacet
  facet normal 0 -1 0
    outer loop
      vertex 11.547 -50 0
      vertex 25.9139 -50 37.8931
      vertex 23.8394 -50 40.9818
    endloop
  endfacet
  facet normal 0 -1 0
    outer loop
      vertex 11.547 -50 0
      vertex 28.0773 -50 34.8731
      vertex 25.9139 -50 37.8931
    endloop
  endfacet
  facet normal 0 -1 0
    outer loop
      vertex 11.547 -50 0
      vertex 30.1358 -50 32.0107
      vertex 28.0773 -50 34.8731
    endloop
  endfacet
  facet normal 0 -1 0
    outer loop
      vertex 11.547 -50 0
      vertex 32.317 -50 29.1814
      vertex 30.1358 -50 32.0107
    endloop
  endfacet
  facet normal 0 -1 0
    outer loop
      vertex 11.547 -50 0
      vertex 34.3584 -50 26.5436
      vertex 32.317 -50 29.1814
    endloop
  endfacet
  facet normal 0 -1 0
    outer loop
      vertex 11.547 -50 0
      vertex 36.5585 -50 23.9068
      vertex 34.3584 -50 26.5436
    endloop
  endfacet
  facet normal 0 -1 0
    outer loop
      vertex 11.547 -50 0
      vertex 38.5814 -50 21.4917
      vertex 36.5585 -50 23.9068
    endloop
  endfacet
  facet normal 0 -1 0
    outer loop
      vertex 11.547 -50 0
      vertex 40.8018 -50 19.0497
      vertex 38.5814 -50 21.4917
    endloop
  endfacet
  facet normal 0 -1 0
    outer loop
      vertex 11.547 -50 0
      vertex 42.8051 -50 16.855
      vertex 40.8018 -50 19.0497
    endloop
  endfacet
  facet normal 0 -1 0
    outer loop
      vertex 11.547 -50 0
      vertex 45.047 -50 14.6105
      vertex 42.8051 -50 16.855
    endloop
  endfacet
  facet normal 0 -1 0
    outer loop
      vertex 50 -50 0
      vertex 45.047 -50 14.6105
      vertex 11.547 -50 0
    endloop
  endfacet
  facet normal 0 -1 0
    outer loop
      vertex 45.047 -50 14.6105
      vertex 50 -50 0
      vertex 47.0293 -50 12.6336
    endloop
  endfacet
  facet normal 0 -1 0
    outer loop
      vertex 47.0293 -50 12.6336
      vertex 50 -50 0
      vertex 49.294 -50 10.5895
    endloop
  endfacet
  facet normal 0 -1 0
    outer loop
      vertex 49.294 -50 10.5895
      vertex 50 -50 0
      vertex 50 -50 9.95475
    endloop
  endfacet
  facet normal 0 1 0
    outer loop
      vertex 12.1244 50 0
      vertex 14.3566 50 49.3747
      vertex 17.6402 50 44.1907
    endloop
  endfacet
  facet normal 0 1 0
    outer loop
      vertex 12.1244 50 0
      vertex 18.6574 50 42.6852
      vertex 21.893 50 37.8931
    endloop
  endfacet
  facet normal 0 1 0
    outer loop
      vertex 12.1244 50 0
      vertex 22.9585 50 36.4201
      vertex 26.146 50 32.0107
    endloop
  endfacet
  facet normal 0 1 0
    outer loop
      vertex 12.1244 50 0
      vertex 27.2601 50 30.5794
      vertex 30.3992 50 26.5436
    endloop
  endfacet
  facet normal 0 1 0
    outer loop
      vertex 12.1244 50 0
      vertex 31.562 50 25.1632
      vertex 34.6526 50 21.4917
    endloop
  endfacet
  facet normal 0 1 0
    outer loop
      vertex 12.1244 50 0
      vertex 35.8643 50 20.1714
      vertex 38.9061 50 16.855
    endloop
  endfacet
  facet normal 0 1 0
    outer loop
      vertex 12.1244 50 0
      vertex 40.1671 50 15.6042
      vertex 43.1599 50 12.6336
    endloop
  endfacet
  facet normal 0 1 0
    outer loop
      vertex 50 50 0
      vertex 44.4702 50 11.4616
      vertex 47.4138 50 8.82734
    endloop
  endfacet
  facet normal 0 1 -0
    outer loop
      vertex 50 50 0
      vertex 48.7738 50 7.74373
      vertex 50 50 6.76609
    endloop
  endfacet
  facet normal 0 1 0
    outer loop
      vertex 48.7738 50 7.74373
      vertex 50 50 0
      vertex 47.4138 50 8.82734
    endloop
  endfacet
  facet normal 0 1 0
    outer loop
      vertex 44.4702 50 11.4616
      vertex 50 50 0
      vertex 43.1599 50 12.6336
    endloop
  endfacet
  facet normal 0 1 0
    outer loop
      vertex 12.1244 50 0
      vertex 43.1599 50 12.6336
      vertex 50 50 0
    endloop
  endfacet
  facet normal 0 1 0
    outer loop
      vertex 40.1671 50 15.6042
      vertex 12.1244 50 0
      vertex 38.9061 50 16.855
    endloop
  endfacet
  facet normal 0 1 0
    outer loop
      vertex 35.8643 50 20.1714
      vertex 12.1244 50 0
      vertex 34.6526 50 21.4917
    endloop
  endfacet
  facet normal 0 1 0
    outer loop
      vertex 31.562 50 25.1632
      vertex 12.1244 50 0
      vertex 30.3992 50 26.5436
    endloop
  endfacet
  facet normal 0 1 0
    outer loop
      vertex 13.3876 50 50.9035
      vertex 12.1244 50 0
      vertex 12.1244 50 53.0212
    endloop
  endfacet
  facet normal 0 1 0
    outer loop
      vertex 14.3566 50 49.3747
      vertex 12.1244 50 0
      vertex 13.3876 50 50.9035
    endloop
  endfacet
  facet normal 0 1 0
    outer loop
      vertex 18.6574 50 42.6852
      vertex 12.1244 50 0
      vertex 17.6402 50 44.1907
    endloop
  endfacet
  facet normal 0 1 0
    outer loop
      vertex 22.9585 50 36.4201
      vertex 12.1244 50 0
      vertex 21.893 50 37.8931
    endloop
  endfacet
  facet normal 0 1 0
    outer loop
      vertex 27.2601 50 30.5794
      vertex 12.1244 50 0
      vertex 26.146 50 32.0107
    endloop
  endfacet
  facet normal 0 1 -0
    outer loop
      vertex -12.1244 50 0
      vertex -50 50 99.8
      vertex -12.1244 50 99.8
    endloop
  endfacet
  facet normal 0 1 0
    outer loop
      vertex -50 50 99.8
      vertex -12.1244 50 0
      vertex -50 50 0
    endloop
  endfacet
  facet normal 0 -1 0
    outer loop
      vertex -17.3205 -60 99.8
      vertex -4.46885 -60 93.8627
      vertex -7.18363 -60 99.8
    endloop
  endfacet
  facet normal 0 -1 0
    outer loop
      vertex -17.3205 -60 99.8
      vertex -3.01519 -60 90.6958
      vertex -4.46885 -60 93.8627
    endloop
  endfacet
  facet normal 0 -1 0
    outer loop
      vertex -17.3205 -60 99.8
      vertex -0.240192 -60 84.9016
      vertex -3.01519 -60 90.6958
    endloop
  endfacet
  facet normal 0 -1 0
    outer loop
      vertex -17.3205 -60 99.8
      vertex 1.19963 -60 81.9069
      vertex -0.240192 -60 84.9016
    endloop
  endfacet
  facet normal 0 -1 0
    outer loop
      vertex -17.3205 -60 99.8
      vertex 3.99019 -60 76.3564
      vertex 1.19963 -60 81.9069
    endloop
  endfacet
  facet normal 0 -1 0
    outer loop
      vertex -17.3205 -60 0
      vertex 3.99019 -60 76.3564
      vertex -17.3205 -60 99.8
    endloop
  endfacet
  facet normal 0 -1 -0
    outer loop
      vertex 3.99019 -60 76.3564
      vertex -17.3205 -60 0
      vertex 5.41507 -60 73.5332
    endloop
  endfacet
  facet normal 0 -1 -0
    outer loop
      vertex 5.41507 -60 73.5332
      vertex -17.3205 -60 0
      vertex 8.22237 -60 68.2272
    endloop
  endfacet
  facet normal 0 -1 -0
    outer loop
      vertex 8.22237 -60 68.2272
      vertex -17.3205 -60 0
      vertex 9.63117 -60 65.5747
    endloop
  endfacet
  facet normal 0 -1 -0
    outer loop
      vertex 9.63117 -60 65.5747
      vertex -17.3205 -60 0
      vertex 12.4563 -60 60.5143
    endloop
  endfacet
  facet normal 0 -1 -0
    outer loop
      vertex 12.4563 -60 60.5143
      vertex -17.3205 -60 0
      vertex 13.8479 -60 58.0315
    endloop
  endfacet
  facet normal 0 -1 -0
    outer loop
      vertex 13.8479 -60 58.0315
      vertex -17.3205 -60 0
      vertex 16.6921 -60 53.2181
    endloop
  endfacet
  facet normal 0 -1 -0
    outer loop
      vertex 16.6921 -60 53.2181
      vertex -17.3205 -60 0
      vertex 17.3205 -60 52.1588
    endloop
  endfacet
  facet normal 0 -1 -0
    outer loop
      vertex 17.3205 -60 52.1588
      vertex -17.3205 -60 0
      vertex 17.3205 -60 0
    endloop
  endfacet
  facet normal -0.866025 0.5 0
    outer loop
      vertex -17.3205 -60 0
      vertex -11.547 -50 99.8
      vertex -11.547 -50 0
    endloop
  endfacet
  facet normal -0.866025 0.5 0
    outer loop
      vertex -11.547 -50 99.8
      vertex -17.3205 -60 0
      vertex -17.3205 -60 99.8
    endloop
  endfacet
  facet normal 0.866026 0.5 0
    outer loop
      vertex 13.448 -53.2926 58.0315
      vertex 11.547 -50 0
      vertex 11.547 -50 61.073
    endloop
  endfacet
  facet normal 0.866025 0.5 1.51914e-08
    outer loop
      vertex 16.5052 -58.5879 53.3919
      vertex 11.547 -50 0
      vertex 13.448 -53.2926 58.0315
    endloop
  endfacet
  facet normal 0.866025 0.5 1.18601e-08
    outer loop
      vertex 17.3205 -60 52.1588
      vertex 11.547 -50 0
      vertex 16.5052 -58.5879 53.3919
    endloop
  endfacet
  facet normal 0.866025 0.5 0
    outer loop
      vertex 11.547 -50 0
      vertex 17.3205 -60 52.1588
      vertex 17.3205 -60 0
    endloop
  endfacet
  facet normal 1 0 0
    outer loop
      vertex 39.5 -18.1865 0
      vertex 39.5 18.1865 17.0669
      vertex 39.5 -18.1865 18.5322
    endloop
  endfacet
  facet normal 1 0 0
    outer loop
      vertex 39.5 18.1865 17.0669
      vertex 39.5 -18.1865 0
      vertex 39.5 18.1865 0
    endloop
  endfacet
  facet normal -0.5 -0.866026 -3.99344e-08
    outer loop
      vertex 39.5 18.1865 0
      vertex 42.6615 16.3613 13.9679
      vertex 39.6976 18.0724 16.855
    endloop
  endfacet
  facet normal -0.5 -0.866025 -1.1289e-07
    outer loop
      vertex 39.5 18.1865 0
      vertex 46.8235 13.9583 10.1784
      vertex 44.0281 15.5722 12.6336
    endloop
  endfacet
  facet normal -0.500002 -0.866024 0
    outer loop
      vertex 39.5 18.1865 0
      vertex 39.6976 18.0724 16.855
      vertex 39.5 18.1865 17.0669
    endloop
  endfacet
  facet normal -0.500001 -0.866025 2.14863e-07
    outer loop
      vertex 42.6615 16.3613 13.9679
      vertex 39.5 18.1865 0
      vertex 44.0281 15.5722 12.6336
    endloop
  endfacet
  facet normal -0.5 -0.866025 -8.07709e-08
    outer loop
      vertex 46.8235 13.9583 10.1784
      vertex 39.5 18.1865 0
      vertex 48.3582 13.0723 8.82734
    endloop
  endfacet
  facet normal -0.5 -0.866025 6.85231e-08
    outer loop
      vertex 50 12.1244 0
      vertex 48.3582 13.0723 8.82734
      vertex 39.5 18.1865 0
    endloop
  endfacet
  facet normal -0.5 -0.866025 0
    outer loop
      vertex 48.3582 13.0723 8.82734
      vertex 50 12.1244 0
      vertex 50 12.1244 7.54263
    endloop
  endfacet
  facet normal -0.5 0.866025 3.52038e-08
    outer loop
      vertex 39.5 -18.1865 0
      vertex 41.2886 -17.1539 16.5606
      vertex 45.1442 -14.9278 12.6336
    endloop
  endfacet
  facet normal -0.5 0.866025 5.40065e-08
    outer loop
      vertex 39.5 -18.1865 0
      vertex 45.6265 -14.6494 12.1917
      vertex 49.2907 -12.5339 8.82734
    endloop
  endfacet
  facet normal -0.499981 0.866037 0
    outer loop
      vertex 50 -12.1244 0
      vertex 49.9684 -12.1426 8.27426
      vertex 50 -12.1244 8.24845
    endloop
  endfacet
  facet normal -0.500001 0.866025 -1.01995e-07
    outer loop
      vertex 49.9684 -12.1426 8.27426
      vertex 50 -12.1244 0
      vertex 49.2907 -12.5339 8.82734
    endloop
  endfacet
  facet normal -0.5 0.866025 -2.24245e-08
    outer loop
      vertex 39.5 -18.1865 0
      vertex 49.2907 -12.5339 8.82734
      vertex 50 -12.1244 0
    endloop
  endfacet
  facet normal -0.499999 0.866026 -6.74206e-07
    outer loop
      vertex 45.6265 -14.6494 12.1917
      vertex 39.5 -18.1865 0
      vertex 45.1442 -14.9278 12.6336
    endloop
  endfacet
  facet normal -0.499999 0.866026 -9.61628e-08
    outer loop
      vertex 41.2886 -17.1539 16.5606
      vertex 39.5 -18.1865 0
      vertex 40.9989 -17.3211 16.855
    endloop
  endfacet
  facet normal -0.5 0.866025 0
    outer loop
      vertex 40.9989 -17.3211 16.855
      vertex 39.5 -18.1865 0
      vertex 39.5 -18.1865 18.5322
    endloop
  endfacet
  facet normal 0 1 0
    outer loop
      vertex -7.74729 39.5 90.744
      vertex -18.1865 39.5 99.8
      vertex -11.9155 39.5 99.8
    endloop
  endfacet
  facet normal 0 1 0
    outer loop
      vertex -7.72518 39.5 90.6958
      vertex -18.1865 39.5 99.8
      vertex -7.74729 39.5 90.744
    endloop
  endfacet
  facet normal 0 1 0
    outer loop
      vertex -5.37667 39.5 85.8241
      vertex -18.1865 39.5 99.8
      vertex -7.72518 39.5 90.6958
    endloop
  endfacet
  facet normal 0 1 0
    outer loop
      vertex -3.48191 39.5 81.9069
      vertex -18.1865 39.5 99.8
      vertex -5.37667 39.5 85.8241
    endloop
  endfacet
  facet normal 0 1 0
    outer loop
      vertex -3.46356 39.5 81.8708
      vertex -18.1865 39.5 99.8
      vertex -3.48191 39.5 81.9069
    endloop
  endfacet
  facet normal 0 1 0
    outer loop
      vertex -18.1865 39.5 0
      vertex -3.46356 39.5 81.8708
      vertex 0.769471 39.5 73.5332
    endloop
  endfacet
  facet normal 0 1 0
    outer loop
      vertex -18.1865 39.5 0
      vertex 0.769471 39.5 73.5332
      vertex 0.828809 39.5 73.4222
    endloop
  endfacet
  facet normal 0 1 0
    outer loop
      vertex -18.1865 39.5 0
      vertex 0.828809 39.5 73.4222
      vertex 5.02106 39.5 65.5747
    endloop
  endfacet
  facet normal 0 1 0
    outer loop
      vertex -18.1865 39.5 0
      vertex 5.02106 39.5 65.5747
      vertex 5.12141 39.5 65.3968
    endloop
  endfacet
  facet normal 0 1 0
    outer loop
      vertex -18.1865 39.5 0
      vertex 5.12141 39.5 65.3968
      vertex 9.27283 39.5 58.0315
    endloop
  endfacet
  facet normal 0 1 0
    outer loop
      vertex -18.1865 39.5 0
      vertex 9.27283 39.5 58.0315
      vertex 9.4142 39.5 57.7946
    endloop
  endfacet
  facet normal 0 1 0
    outer loop
      vertex -18.1865 39.5 0
      vertex 9.4142 39.5 57.7946
      vertex 13.5247 39.5 50.9035
    endloop
  endfacet
  facet normal 0 1 0
    outer loop
      vertex -18.1865 39.5 0
      vertex 13.5247 39.5 50.9035
      vertex 13.7072 39.5 50.6156
    endloop
  endfacet
  facet normal 0 1 0
    outer loop
      vertex -18.1865 39.5 0
      vertex 13.7072 39.5 50.6156
      vertex 17.7769 39.5 44.1907
    endloop
  endfacet
  facet normal 0 1 0
    outer loop
      vertex -18.1865 39.5 0
      vertex 18.0004 39.5 43.8598
      vertex 18.1865 39.5 43.5841
    endloop
  endfacet
  facet normal 0 1 0
    outer loop
      vertex -18.1865 39.5 0
      vertex 18.1865 39.5 43.5841
      vertex 18.1865 39.5 0
    endloop
  endfacet
  facet normal 0 1 0
    outer loop
      vertex 18.0004 39.5 43.8598
      vertex -18.1865 39.5 0
      vertex 17.7769 39.5 44.1907
    endloop
  endfacet
  facet normal 0 1 0
    outer loop
      vertex -3.46356 39.5 81.8708
      vertex -18.1865 39.5 0
      vertex -18.1865 39.5 99.8
    endloop
  endfacet
  facet normal 0.866025 -0.5 0
    outer loop
      vertex -18.1865 39.5 99.8
      vertex -12.1244 50 0
      vertex -12.1244 50 99.8
    endloop
  endfacet
  facet normal 0.866025 -0.5 0
    outer loop
      vertex -12.1244 50 0
      vertex -18.1865 39.5 99.8
      vertex -18.1865 39.5 0
    endloop
  endfacet
  facet normal -0.866025 -0.5 0
    outer loop
      vertex 12.1244 50 0
      vertex 13.4168 47.7614 50.9035
      vertex 12.1244 50 53.0212
    endloop
  endfacet
  facet normal -0.866026 -0.5 2.74726e-08
    outer loop
      vertex 12.1244 50 0
      vertex 14.1406 46.5078 49.7874
      vertex 13.4168 47.7614 50.9035
    endloop
  endfacet
  facet normal -0.866025 -0.5 8.64578e-09
    outer loop
      vertex 12.1244 50 0
      vertex 17.7674 40.2259 44.1907
      vertex 14.1406 46.5078 49.7874
    endloop
  endfacet
  facet normal -0.866025 -0.5 -9.76961e-08
    outer loop
      vertex 12.1244 50 0
      vertex 18.0186 39.7909 43.8273
      vertex 17.7674 40.2259 44.1907
    endloop
  endfacet
  facet normal -0.866025 -0.5 -0
    outer loop
      vertex 18.1865 39.5 43.5841
      vertex 12.1244 50 0
      vertex 18.1865 39.5 0
    endloop
  endfacet
  facet normal -0.866024 -0.500002 -6.14168e-07
    outer loop
      vertex 12.1244 50 0
      vertex 18.1865 39.5 43.5841
      vertex 18.0186 39.7909 43.8273
    endloop
  endfacet
  facet normal 0 0 1
    outer loop
      vertex -12.1244 50 99.8
      vertex -50 50 99.8
      vertex -18.1865 39.5 99.8
    endloop
  endfacet
  facet normal -0 0 1
    outer loop
      vertex -18.1865 39.5 99.8
      vertex -9.61934 -19.8249 99.8
      vertex -11.9155 39.5 99.8
    endloop
  endfacet
  facet normal 0 0 1
    outer loop
      vertex -50 50 99.8
      vertex -9.61934 -19.8249 99.8
      vertex -18.1865 39.5 99.8
    endloop
  endfacet
  facet normal 0 0 1
    outer loop
      vertex -9.61934 -19.8249 99.8
      vertex -50 50 99.8
      vertex -50 -50 99.8
    endloop
  endfacet
  facet normal 0 0 1
    outer loop
      vertex -9.61934 -19.8249 99.8
      vertex -50 -50 99.8
      vertex -11.547 -50 99.8
    endloop
  endfacet
  facet normal 0 0 1
    outer loop
      vertex -11.547 -50 99.8
      vertex -9.59404 -20.4811 99.8
      vertex -9.61934 -19.8249 99.8
    endloop
  endfacet
  facet normal 0 0 1
    outer loop
      vertex -11.547 -50 99.8
      vertex -9.55436 -21.1346 99.8
      vertex -9.59404 -20.4811 99.8
    endloop
  endfacet
  facet normal -0 0 1
    outer loop
      vertex -11.547 -50 99.8
      vertex -7.18363 -60 99.8
      vertex -9.55436 -21.1346 99.8
    endloop
  endfacet
  facet normal 0 0 1
    outer loop
      vertex -7.18363 -60 99.8
      vertex -11.547 -50 99.8
      vertex -17.3205 -60 99.8
    endloop
  endfacet
  facet normal 0.907836 0.0351376 0.41785
    outer loop
      vertex -7.74729 39.5 90.744
      vertex -11.9155 39.5 99.8
      vertex -9.61934 -19.8249 99.8
    endloop
  endfacet
  facet normal 0.908186 0.0350119 0.417099
    outer loop
      vertex -5.40894 -20.5817 90.6958
      vertex -7.74729 39.5 90.744
      vertex -9.61934 -19.8249 99.8
    endloop
  endfacet
  facet normal 0.908186 0.0350111 0.417099
    outer loop
      vertex -5.40894 -20.5817 90.6958
      vertex -9.61934 -19.8249 99.8
      vertex -9.59404 -20.4811 99.8
    endloop
  endfacet
  facet normal 0.908189 0.0350121 0.417093
    outer loop
      vertex -7.74729 39.5 90.744
      vertex -5.40894 -20.5817 90.6958
      vertex -7.72518 39.5 90.6958
    endloop
  endfacet
  facet normal 0.907447 0.055106 0.416537
    outer loop
      vertex -9.55436 -21.1346 99.8
      vertex -5.40894 -20.5817 90.6958
      vertex -9.59404 -20.4811 99.8
    endloop
  endfacet
  facet normal 0.907447 0.0551062 0.416537
    outer loop
      vertex -4.46885 -60 93.8627
      vertex -5.40894 -20.5817 90.6958
      vertex -9.55436 -21.1346 99.8
    endloop
  endfacet
  facet normal 0.907447 0.0551062 0.416538
    outer loop
      vertex -5.40894 -20.5817 90.6958
      vertex -4.46885 -60 93.8627
      vertex -3.01519 -60 90.6958
    endloop
  endfacet
  facet normal 0.908044 0.0553894 0.415196
    outer loop
      vertex -4.46885 -60 93.8627
      vertex -9.55436 -21.1346 99.8
      vertex -7.18363 -60 99.8
    endloop
  endfacet
  facet normal 0.900154 0.0119335 0.435409
    outer loop
      vertex -3.48191 39.5 81.9069
      vertex -5.37667 39.5 85.8241
      vertex -3.47855 39.2464 81.9069
    endloop
  endfacet
  facet normal 0.900253 0.0347061 0.433982
    outer loop
      vertex -5.40894 -20.5817 90.6958
      vertex -5.37667 39.5 85.8241
      vertex -7.72518 39.5 90.6958
    endloop
  endfacet
  facet normal 0.900253 0.0347061 0.433982
    outer loop
      vertex -5.37667 39.5 85.8241
      vertex -5.40894 -20.5817 90.6958
      vertex -3.47855 39.2464 81.9069
    endloop
  endfacet
  facet normal 0.900628 0.0345809 0.433213
    outer loop
      vertex -3.47855 39.2464 81.9069
      vertex -5.40894 -20.5817 90.6958
      vertex -1.17789 -20.6722 81.9069
    endloop
  endfacet
  facet normal 0.899912 0.054403 0.432664
    outer loop
      vertex -0.240192 -60 84.9016
      vertex -1.17789 -20.6722 81.9069
      vertex -5.40894 -20.5817 90.6958
    endloop
  endfacet
  facet normal 0.899912 0.0544031 0.432664
    outer loop
      vertex -1.17789 -20.6722 81.9069
      vertex -0.240192 -60 84.9016
      vertex 1.19963 -60 81.9069
    endloop
  endfacet
  facet normal 0.90055 0.0546874 0.431299
    outer loop
      vertex -0.240192 -60 84.9016
      vertex -5.40894 -20.5817 90.6958
      vertex -3.01519 -60 90.6958
    endloop
  endfacet
  facet normal 0.891489 0.0118186 0.452889
    outer loop
      vertex -3.46356 39.5 81.8708
      vertex -3.48191 39.5 81.9069
      vertex -3.47855 39.2464 81.9069
    endloop
  endfacet
  facet normal 0.891601 0.0117808 0.452669
    outer loop
      vertex 0.780212 38.6868 73.5332
      vertex -3.46356 39.5 81.8708
      vertex -3.47855 39.2464 81.9069
    endloop
  endfacet
  facet normal 0.8916 0.0117767 0.45267
    outer loop
      vertex -3.46356 39.5 81.8708
      vertex 0.780212 38.6868 73.5332
      vertex 0.769471 39.5 73.5332
    endloop
  endfacet
  facet normal 0.891745 0.0342398 0.451242
    outer loop
      vertex 0.780212 38.6868 73.5332
      vertex -3.47855 39.2464 81.9069
      vertex -1.17789 -20.6722 81.9069
    endloop
  endfacet
  facet normal 0.892145 0.0341161 0.450459
    outer loop
      vertex 0.780212 38.6868 73.5332
      vertex -1.17789 -20.6722 81.9069
      vertex 3.05316 -20.7514 73.5332
    endloop
  endfacet
  facet normal 0.891454 0.0536461 0.449924
    outer loop
      vertex 3.99019 -60 76.3564
      vertex 3.05316 -20.7514 73.5332
      vertex -1.17789 -20.6722 81.9069
    endloop
  endfacet
  facet normal 0.891454 0.0536461 0.449925
    outer loop
      vertex 3.05316 -20.7514 73.5332
      vertex 3.99019 -60 76.3564
      vertex 5.41507 -60 73.5332
    endloop
  endfacet
  facet normal 0.89214 0.0539332 0.448529
    outer loop
      vertex 3.99019 -60 76.3564
      vertex -1.17789 -20.6722 81.9069
      vertex 1.19963 -60 81.9069
    endloop
  endfacet
  facet normal 0.881838 0.0116477 0.471408
    outer loop
      vertex 0.828809 39.5 73.4222
      vertex 0.769471 39.5 73.5332
      vertex 0.780212 38.6868 73.5332
    endloop
  endfacet
  facet normal 0.88197 0.0116064 0.471163
    outer loop
      vertex 5.039 38.1367 65.5747
      vertex 0.828809 39.5 73.4222
      vertex 0.780212 38.6868 73.5332
    endloop
  endfacet
  facet normal 0.88197 0.011607 0.471163
    outer loop
      vertex 0.828809 39.5 73.4222
      vertex 5.039 38.1367 65.5747
      vertex 5.02106 39.5 65.5747
    endloop
  endfacet
  facet normal 0.882162 0.0337343 0.469736
    outer loop
      vertex 5.039 38.1367 65.5747
      vertex 0.780212 38.6868 73.5332
      vertex 3.05316 -20.7514 73.5332
    endloop
  endfacet
  facet normal 0.882592 0.0336119 0.468937
    outer loop
      vertex 5.039 38.1367 65.5747
      vertex 3.05316 -20.7514 73.5332
      vertex 7.28424 -20.8195 65.5747
    endloop
  endfacet
  facet normal 0.881926 0.0528278 0.468419
    outer loop
      vertex 8.22237 -60 68.2272
      vertex 7.28424 -20.8195 65.5747
      vertex 3.05316 -20.7514 73.5332
    endloop
  endfacet
  facet normal 0.881926 0.0528278 0.468419
    outer loop
      vertex 7.28424 -20.8195 65.5747
      vertex 8.22237 -60 68.2272
      vertex 9.63117 -60 65.5747
    endloop
  endfacet
  facet normal 0.882662 0.053117 0.466997
    outer loop
      vertex 8.22237 -60 68.2272
      vertex 3.05316 -20.7514 73.5332
      vertex 5.41507 -60 73.5332
    endloop
  endfacet
  facet normal 0.87095 0.011462 0.491238
    outer loop
      vertex 5.12141 39.5 65.3968
      vertex 5.02106 39.5 65.5747
      vertex 5.039 38.1367 65.5747
    endloop
  endfacet
  facet normal 0.871093 0.0114204 0.490985
    outer loop
      vertex 9.29779 37.596 58.0315
      vertex 5.12141 39.5 65.3968
      vertex 5.039 38.1367 65.5747
    endloop
  endfacet
  facet normal 0.871093 0.0114211 0.490985
    outer loop
      vertex 5.12141 39.5 65.3968
      vertex 9.29779 37.596 58.0315
      vertex 9.27283 39.5 58.0315
    endloop
  endfacet
  facet normal 0.871336 0.0331833 0.489563
    outer loop
      vertex 9.29779 37.596 58.0315
      vertex 5.039 38.1367 65.5747
      vertex 7.28424 -20.8195 65.5747
    endloop
  endfacet
  facet normal 0.871799 0.033062 0.488747
    outer loop
      vertex 9.29779 37.596 58.0315
      vertex 7.28424 -20.8195 65.5747
      vertex 11.5153 -20.8763 58.0315
    endloop
  endfacet
  facet normal 0.871159 0.051939 0.488246
    outer loop
      vertex 7.28424 -20.8195 65.5747
      vertex 11.547 -50 61.073
      vertex 11.5153 -20.8763 58.0315
    endloop
  endfacet
  facet normal 0.871159 0.0519389 0.488247
    outer loop
      vertex 12.4563 -60 60.5143
      vertex 11.547 -50 61.073
      vertex 7.28424 -20.8195 65.5747
    endloop
  endfacet
  facet normal 0.871159 0.0519389 0.488246
    outer loop
      vertex 12.4563 -60 60.5143
      vertex 13.448 -53.2926 58.0315
      vertex 11.547 -50 61.073
    endloop
  endfacet
  facet normal 0.871159 0.0519389 0.488246
    outer loop
      vertex 13.448 -53.2926 58.0315
      vertex 12.4563 -60 60.5143
      vertex 13.8479 -60 58.0315
    endloop
  endfacet
  facet normal 0.871159 0.0519389 0.488246
    outer loop
      vertex 11.5153 -20.8763 58.0315
      vertex 11.547 -50 61.073
      vertex 13.2517 -50 58.0315
    endloop
  endfacet
  facet normal 0.871951 0.0522303 0.4868
    outer loop
      vertex 12.4563 -60 60.5143
      vertex 7.28424 -20.8195 65.5747
      vertex 9.63117 -60 65.5747
    endloop
  endfacet
  facet normal 0.858613 0.0112575 0.5125
    outer loop
      vertex 9.4142 39.5 57.7946
      vertex 9.27283 39.5 58.0315
      vertex 9.29779 37.596 58.0315
    endloop
  endfacet
  facet normal 0.858765 0.0112167 0.512247
    outer loop
      vertex 13.5565 37.0647 50.9035
      vertex 9.4142 39.5 57.7946
      vertex 9.29779 37.596 58.0315
    endloop
  endfacet
  facet normal 0.858765 0.0112169 0.512247
    outer loop
      vertex 9.4142 39.5 57.7946
      vertex 13.5565 37.0647 50.9035
      vertex 13.5247 39.5 50.9035
    endloop
  endfacet
  facet normal 0.858765 0.011217 0.512247
    outer loop
      vertex 13.3876 50 50.9035
      vertex 12.1244 50 53.0212
      vertex 13.4168 47.7614 50.9035
    endloop
  endfacet
  facet normal 0.859062 0.032579 0.510833
    outer loop
      vertex 13.5565 37.0647 50.9035
      vertex 9.29779 37.596 58.0315
      vertex 11.5153 -20.8763 58.0315
    endloop
  endfacet
  facet normal 0.859557 0.03246 0.510007
    outer loop
      vertex 13.5565 37.0647 50.9035
      vertex 11.5153 -20.8763 58.0315
      vertex 15.7463 -20.922 50.9035
    endloop
  endfacet
  facet normal 0.858945 0.0509682 0.509525
    outer loop
      vertex 15.3689 -50 54.4484
      vertex 15.7463 -20.922 50.9035
      vertex 11.5153 -20.8763 58.0315
    endloop
  endfacet
  facet normal 0.858945 0.0509682 0.509525
    outer loop
      vertex 15.7463 -20.922 50.9035
      vertex 15.3689 -50 54.4484
      vertex 17.4718 -50 50.9035
    endloop
  endfacet
  facet normal 0.858945 0.0509682 0.509525
    outer loop
      vertex 17.3205 -60 52.1588
      vertex 16.5052 -58.5879 53.3919
      vertex 16.6921 -60 53.2181
    endloop
  endfacet
  facet normal 0.859796 0.0512615 0.508057
    outer loop
      vertex 15.3689 -50 54.4484
      vertex 11.5153 -20.8763 58.0315
      vertex 13.2517 -50 58.0315
    endloop
  endfacet
  facet normal 0.859797 0.0512615 0.508057
    outer loop
      vertex 13.8479 -60 58.0315
      vertex 16.5052 -58.5879 53.3919
      vertex 13.448 -53.2926 58.0315
    endloop
  endfacet
  facet normal 0.859797 0.0512615 0.508057
    outer loop
      vertex 16.5052 -58.5879 53.3919
      vertex 13.8479 -60 58.0315
      vertex 16.6921 -60 53.2181
    endloop
  endfacet
  facet normal 0.844575 0.0110315 0.535324
    outer loop
      vertex 13.7072 39.5 50.6156
      vertex 13.5247 39.5 50.9035
      vertex 13.5565 37.0647 50.9035
    endloop
  endfacet
  facet normal 0.844575 0.0110317 0.535324
    outer loop
      vertex 13.4168 47.7614 50.9035
      vertex 14.3566 50 49.3747
      vertex 13.3876 50 50.9035
    endloop
  endfacet
  facet normal 0.844575 0.0110314 0.535324
    outer loop
      vertex 14.3566 50 49.3747
      vertex 13.4168 47.7614 50.9035
      vertex 14.1406 46.5078 49.7874
    endloop
  endfacet
  facet normal 0.844736 0.0109915 0.53507
    outer loop
      vertex 17.8153 36.5429 44.1907
      vertex 13.7072 39.5 50.6156
      vertex 13.5565 37.0647 50.9035
    endloop
  endfacet
  facet normal 0.844736 0.0109915 0.53507
    outer loop
      vertex 13.7072 39.5 50.6156
      vertex 17.8153 36.5429 44.1907
      vertex 17.7769 39.5 44.1907
    endloop
  endfacet
  facet normal 0.844736 0.0109914 0.53507
    outer loop
      vertex 14.1406 46.5078 49.7874
      vertex 17.6402 50 44.1907
      vertex 14.3566 50 49.3747
    endloop
  endfacet
  facet normal 0.844736 0.0109915 0.53507
    outer loop
      vertex 17.6402 50 44.1907
      vertex 14.1406 46.5078 49.7874
      vertex 17.7674 40.2259 44.1907
    endloop
  endfacet
  facet normal 0.845091 0.0319137 0.533669
    outer loop
      vertex 17.8153 36.5429 44.1907
      vertex 13.5565 37.0647 50.9035
      vertex 15.7463 -20.922 50.9035
    endloop
  endfacet
  facet normal 0.845623 0.031797 0.532833
    outer loop
      vertex 17.8153 36.5429 44.1907
      vertex 15.7463 -20.922 50.9035
      vertex 19.9774 -20.9564 44.1907
    endloop
  endfacet
  facet normal 0.845038 0.0499024 0.532372
    outer loop
      vertex 19.6033 -50 47.507
      vertex 19.9774 -20.9564 44.1907
      vertex 15.7463 -20.922 50.9035
    endloop
  endfacet
  facet normal 0.845038 0.0499023 0.532372
    outer loop
      vertex 19.9774 -20.9564 44.1907
      vertex 19.6033 -50 47.507
      vertex 21.6925 -50 44.1907
    endloop
  endfacet
  facet normal 0.845955 0.0501974 0.530887
    outer loop
      vertex 19.6033 -50 47.507
      vertex 15.7463 -20.922 50.9035
      vertex 17.4718 -50 50.9035
    endloop
  endfacet
  facet normal 0.82855 0.0107809 0.559811
    outer loop
      vertex 18.0004 39.5 43.8598
      vertex 17.7769 39.5 44.1907
      vertex 17.8153 36.5429 44.1907
    endloop
  endfacet
  facet normal 0.828549 0.0107809 0.559812
    outer loop
      vertex 17.7674 40.2259 44.1907
      vertex 18.6574 50 42.6852
      vertex 17.6402 50 44.1907
    endloop
  endfacet
  facet normal 0.828549 0.0107809 0.559812
    outer loop
      vertex 18.6574 50 42.6852
      vertex 17.7674 40.2259 44.1907
      vertex 18.0186 39.7909 43.8273
    endloop
  endfacet
  facet normal 0.828725 0.010741 0.559552
    outer loop
      vertex 18.0004 39.5 43.8598
      vertex 17.8153 36.5429 44.1907
      vertex 18.1865 39.5 43.5841
    endloop
  endfacet
  facet normal 0.828725 0.010741 0.559554
    outer loop
      vertex 18.0186 39.7909 43.8273
      vertex 21.893 50 37.8931
      vertex 18.6574 50 42.6852
    endloop
  endfacet
  facet normal 0.828724 0.0107413 0.559554
    outer loop
      vertex 18.1865 39.5 43.5841
      vertex 21.893 50 37.8931
      vertex 18.0186 39.7909 43.8273
    endloop
  endfacet
  facet normal 0.828725 0.0107413 0.559554
    outer loop
      vertex 22.0741 36.0305 37.8931
      vertex 18.1865 39.5 43.5841
      vertex 17.8153 36.5429 44.1907
    endloop
  endfacet
  facet normal 0.828724 0.0107411 0.559554
    outer loop
      vertex 18.1865 39.5 43.5841
      vertex 22.0741 36.0305 37.8931
      vertex 21.893 50 37.8931
    endloop
  endfacet
  facet normal 0.82914 0.0311772 0.558172
    outer loop
      vertex 22.0741 36.0305 37.8931
      vertex 17.8153 36.5429 44.1907
      vertex 19.9774 -20.9564 44.1907
    endloop
  endfacet
  facet normal 0.82971 0.031063 0.557329
    outer loop
      vertex 22.0741 36.0305 37.8931
      vertex 19.9774 -20.9564 44.1907
      vertex 24.2085 -20.9796 37.8931
    endloop
  endfacet
  facet normal 0.829155 0.0487262 0.556891
    outer loop
      vertex 23.8394 -50 40.9818
      vertex 24.2085 -20.9796 37.8931
      vertex 19.9774 -20.9564 44.1907
    endloop
  endfacet
  facet normal 0.829155 0.0487261 0.55689
    outer loop
      vertex 24.2085 -20.9796 37.8931
      vertex 23.8394 -50 40.9818
      vertex 25.9139 -50 37.8931
    endloop
  endfacet
  facet normal 0.830141 0.0490226 0.555394
    outer loop
      vertex 23.8394 -50 40.9818
      vertex 19.9774 -20.9564 44.1907
      vertex 21.6925 -50 44.1907
    endloop
  endfacet
  facet normal 0.810192 0.0105009 0.586071
    outer loop
      vertex 22.9585 50 36.4201
      vertex 21.893 50 37.8931
      vertex 22.0741 36.0305 37.8931
    endloop
  endfacet
  facet normal 0.810378 0.0104621 0.585814
    outer loop
      vertex 26.3329 35.5276 32.0107
      vertex 22.9585 50 36.4201
      vertex 22.0741 36.0305 37.8931
    endloop
  endfacet
  facet normal 0.810378 0.0104621 0.585815
    outer loop
      vertex 22.9585 50 36.4201
      vertex 26.3329 35.5276 32.0107
      vertex 26.146 50 32.0107
    endloop
  endfacet
  facet normal 0.810855 0.0303571 0.584459
    outer loop
      vertex 26.3329 35.5276 32.0107
      vertex 22.0741 36.0305 37.8931
      vertex 24.2085 -20.9796 37.8931
    endloop
  endfacet
  facet normal 0.81147 0.0302457 0.583611
    outer loop
      vertex 26.3329 35.5276 32.0107
      vertex 24.2085 -20.9796 37.8931
      vertex 28.4395 -20.9916 32.0107
    endloop
  endfacet
  facet normal 0.810945 0.0474212 0.583198
    outer loop
      vertex 28.0773 -50 34.8731
      vertex 28.4395 -20.9916 32.0107
      vertex 24.2085 -20.9796 37.8931
    endloop
  endfacet
  facet normal 0.810944 0.0474213 0.583198
    outer loop
      vertex 28.4395 -20.9916 32.0107
      vertex 28.0773 -50 34.8731
      vertex 30.1358 -50 32.0107
    endloop
  endfacet
  facet normal 0.812002 0.0477181 0.581701
    outer loop
      vertex 28.0773 -50 34.8731
      vertex 24.2085 -20.9796 37.8931
      vertex 25.9139 -50 37.8931
    endloop
  endfacet
  facet normal 0.789096 0.0101873 0.614185
    outer loop
      vertex 27.2601 50 30.5794
      vertex 26.146 50 32.0107
      vertex 26.3329 35.5276 32.0107
    endloop
  endfacet
  facet normal 0.789295 0.0101493 0.61393
    outer loop
      vertex 26.3329 35.5276 32.0107
      vertex 30.3992 50 26.5436
      vertex 27.2601 50 30.5794
    endloop
  endfacet
  facet normal 0.789295 0.0101493 0.61393
    outer loop
      vertex 30.3992 50 26.5436
      vertex 26.3329 35.5276 32.0107
      vertex 30.5917 35.0341 26.5436
    endloop
  endfacet
  facet normal 0.789837 0.0294394 0.61261
    outer loop
      vertex 30.5917 35.0341 26.5436
      vertex 26.3329 35.5276 32.0107
      vertex 28.4395 -20.9916 32.0107
    endloop
  endfacet
  facet normal 0.790493 0.029332 0.611768
    outer loop
      vertex 30.5917 35.0341 26.5436
      vertex 28.4395 -20.9916 32.0107
      vertex 32.6706 -20.9924 26.5436
    endloop
  endfacet
  facet normal 0.789999 0.0459647 0.611383
    outer loop
      vertex 32.317 -50 29.1814
      vertex 32.6706 -20.9924 26.5436
      vertex 28.4395 -20.9916 32.0107
    endloop
  endfacet
  facet normal 0.789999 0.0459647 0.611383
    outer loop
      vertex 32.6706 -20.9924 26.5436
      vertex 32.317 -50 29.1814
      vertex 34.3584 -50 26.5436
    endloop
  endfacet
  facet normal 0.791138 0.046263 0.609886
    outer loop
      vertex 32.317 -50 29.1814
      vertex 28.4395 -20.9916 32.0107
      vertex 30.1358 -50 32.0107
    endloop
  endfacet
  facet normal 0.764784 0.00983415 0.644212
    outer loop
      vertex 31.562 50 25.1632
      vertex 30.3992 50 26.5436
      vertex 30.5917 35.0341 26.5436
    endloop
  endfacet
  facet normal 0.765 0.00979655 0.643956
    outer loop
      vertex 30.5917 35.0341 26.5436
      vertex 34.6526 50 21.4917
      vertex 31.562 50 25.1632
    endloop
  endfacet
  facet normal 0.764999 0.00979668 0.643957
    outer loop
      vertex 34.6526 50 21.4917
      vertex 30.5917 35.0341 26.5436
      vertex 34.8504 34.5501 21.4917
    endloop
  endfacet
  facet normal 0.766306 0.0283053 0.641852
    outer loop
      vertex 34.8504 34.5501 21.4917
      vertex 32.6706 -20.9924 26.5436
      vertex 36.9016 -20.982 21.4917
    endloop
  endfacet
  facet normal 0.765605 0.0284085 0.642684
    outer loop
      vertex 34.8504 34.5501 21.4917
      vertex 30.5917 35.0341 26.5436
      vertex 32.6706 -20.9924 26.5436
    endloop
  endfacet
  facet normal 0.765843 0.0443335 0.641497
    outer loop
      vertex 36.5585 -50 23.9068
      vertex 36.9016 -20.982 21.4917
      vertex 32.6706 -20.9924 26.5436
    endloop
  endfacet
  facet normal 0.765844 0.0443334 0.641497
    outer loop
      vertex 36.9016 -20.982 21.4917
      vertex 36.5585 -50 23.9068
      vertex 38.5814 -50 21.4917
    endloop
  endfacet
  facet normal 0.767057 0.0446299 0.640025
    outer loop
      vertex 36.5585 -50 23.9068
      vertex 32.6706 -20.9924 26.5436
      vertex 34.3584 -50 26.5436
    endloop
  endfacet
  facet normal 0.736701 0.00943429 0.676153
    outer loop
      vertex 35.8643 50 20.1714
      vertex 34.6526 50 21.4917
      vertex 34.8504 34.5501 21.4917
    endloop
  endfacet
  facet normal 0.736928 0.00939829 0.675906
    outer loop
      vertex 34.8504 34.5501 21.4917
      vertex 38.9061 50 16.855
      vertex 35.8643 50 20.1714
    endloop
  endfacet
  facet normal 0.736928 0.00939832 0.675906
    outer loop
      vertex 38.9061 50 16.855
      vertex 34.8504 34.5501 21.4917
      vertex 39.1092 34.0755 16.855
    endloop
  endfacet
  facet normal 0.738342 0.0271465 0.67388
    outer loop
      vertex 36.9016 -20.982 21.4917
      vertex 39.5 18.1865 17.0669
      vertex 39.1092 34.0755 16.855
    endloop
  endfacet
  facet normal 0.738341 0.0271463 0.673881
    outer loop
      vertex 39.5 -18.1865 18.5322
      vertex 36.9016 -20.982 21.4917
      vertex 41.1327 -20.9603 16.855
    endloop
  endfacet
  facet normal 0.738341 0.0271466 0.673881
    outer loop
      vertex 39.5 18.1865 17.0669
      vertex 36.9016 -20.982 21.4917
      vertex 39.5 -18.1865 18.5322
    endloop
  endfacet
  facet normal 0.738343 0.0271465 0.673879
    outer loop
      vertex 39.1092 34.0755 16.855
      vertex 39.5 18.1865 17.0669
      vertex 39.6976 18.0724 16.855
    endloop
  endfacet
  facet normal 0.738341 0.0271462 0.673881
    outer loop
      vertex 40.9989 -17.3211 16.855
      vertex 39.5 -18.1865 18.5322
      vertex 41.1327 -20.9603 16.855
    endloop
  endfacet
  facet normal 0.737596 0.0272448 0.674693
    outer loop
      vertex 39.1092 34.0755 16.855
      vertex 34.8504 34.5501 21.4917
      vertex 36.9016 -20.982 21.4917
    endloop
  endfacet
  facet normal 0.737911 0.0424958 0.673559
    outer loop
      vertex 40.8018 -50 19.0497
      vertex 41.1327 -20.9603 16.855
      vertex 36.9016 -20.982 21.4917
    endloop
  endfacet
  facet normal 0.73791 0.0424958 0.67356
    outer loop
      vertex 41.1327 -20.9603 16.855
      vertex 40.8018 -50 19.0497
      vertex 42.8051 -50 16.855
    endloop
  endfacet
  facet normal 0.739208 0.0427915 0.672117
    outer loop
      vertex 40.8018 -50 19.0497
      vertex 36.9016 -20.982 21.4917
      vertex 38.5814 -50 21.4917
    endloop
  endfacet
  facet normal 0.704451 0.00894662 0.709696
    outer loop
      vertex 39.1092 34.0755 16.855
      vertex 43.1599 50 12.6336
      vertex 40.1671 50 15.6042
    endloop
  endfacet
  facet normal 0.704451 0.00894657 0.709696
    outer loop
      vertex 43.1599 50 12.6336
      vertex 39.1092 34.0755 16.855
      vertex 43.368 33.6104 12.6336
    endloop
  endfacet
  facet normal 0.704212 0.00898108 0.709933
    outer loop
      vertex 40.1671 50 15.6042
      vertex 38.9061 50 16.855
      vertex 39.1092 34.0755 16.855
    endloop
  endfacet
  facet normal 0.705967 0.0258342 0.707773
    outer loop
      vertex 41.2886 -17.1539 16.5606
      vertex 45.3638 -20.9275 12.6336
      vertex 45.1442 -14.9278 12.6336
    endloop
  endfacet
  facet normal 0.705967 0.0258341 0.707773
    outer loop
      vertex 45.3638 -20.9275 12.6336
      vertex 41.2886 -17.1539 16.5606
      vertex 41.1327 -20.9603 16.855
    endloop
  endfacet
  facet normal 0.705968 0.0258341 0.707773
    outer loop
      vertex 43.368 33.6104 12.6336
      vertex 42.6615 16.3613 13.9679
      vertex 44.0281 15.5722 12.6336
    endloop
  endfacet
  facet normal 0.705177 0.0259273 0.708557
    outer loop
      vertex 43.368 33.6104 12.6336
      vertex 39.6976 18.0724 16.855
      vertex 42.6615 16.3613 13.9679
    endloop
  endfacet
  facet normal 0.705177 0.0259271 0.708557
    outer loop
      vertex 39.6976 18.0724 16.855
      vertex 43.368 33.6104 12.6336
      vertex 39.1092 34.0755 16.855
    endloop
  endfacet
  facet normal 0.705179 0.0259269 0.708556
    outer loop
      vertex 41.2886 -17.1539 16.5606
      vertex 40.9989 -17.3211 16.855
      vertex 41.1327 -20.9603 16.855
    endloop
  endfacet
  facet normal 0.706936 0.040712 0.706105
    outer loop
      vertex 45.047 -50 14.6105
      vertex 41.1327 -20.9603 16.855
      vertex 42.8051 -50 16.855
    endloop
  endfacet
  facet normal 0.705569 0.040421 0.707487
    outer loop
      vertex 45.3638 -20.9275 12.6336
      vertex 45.047 -50 14.6105
      vertex 47.0293 -50 12.6336
    endloop
  endfacet
  facet normal 0.705569 0.040421 0.707487
    outer loop
      vertex 45.047 -50 14.6105
      vertex 45.3638 -20.9275 12.6336
      vertex 41.1327 -20.9603 16.855
    endloop
  endfacet
  facet normal 0.66686 0.00843281 0.745135
    outer loop
      vertex 43.368 33.6104 12.6336
      vertex 47.4138 50 8.82734
      vertex 44.4702 50 11.4616
    endloop
  endfacet
  facet normal 0.66686 0.00843275 0.745135
    outer loop
      vertex 47.4138 50 8.82734
      vertex 43.368 33.6104 12.6336
      vertex 47.6268 33.1547 8.82734
    endloop
  endfacet
  facet normal 0.666607 0.00846595 0.745361
    outer loop
      vertex 44.4702 50 11.4616
      vertex 43.1599 50 12.6336
      vertex 43.368 33.6104 12.6336
    endloop
  endfacet
  facet normal 0.66846 0.0243451 0.74335
    outer loop
      vertex 45.6265 -14.6494 12.1917
      vertex 49.5948 -20.8834 8.82734
      vertex 49.2907 -12.5339 8.82734
    endloop
  endfacet
  facet normal 0.66846 0.0243449 0.74335
    outer loop
      vertex 49.5948 -20.8834 8.82734
      vertex 45.6265 -14.6494 12.1917
      vertex 45.3638 -20.9275 12.6336
    endloop
  endfacet
  facet normal 0.66846 0.0243451 0.74335
    outer loop
      vertex 47.6268 33.1547 8.82734
      vertex 46.8235 13.9583 10.1784
      vertex 48.3582 13.0723 8.82734
    endloop
  endfacet
  facet normal 0.667636 0.0244314 0.744087
    outer loop
      vertex 47.6268 33.1547 8.82734
      vertex 44.0281 15.5722 12.6336
      vertex 46.8235 13.9583 10.1784
    endloop
  endfacet
  facet normal 0.667636 0.0244314 0.744087
    outer loop
      vertex 44.0281 15.5722 12.6336
      vertex 47.6268 33.1547 8.82734
      vertex 43.368 33.6104 12.6336
    endloop
  endfacet
  facet normal 0.667635 0.0244314 0.744088
    outer loop
      vertex 45.6265 -14.6494 12.1917
      vertex 45.1442 -14.9278 12.6336
      vertex 45.3638 -20.9275 12.6336
    endloop
  endfacet
  facet normal 0.669528 0.0383562 0.741796
    outer loop
      vertex 49.294 -50 10.5895
      vertex 45.3638 -20.9275 12.6336
      vertex 47.0293 -50 12.6336
    endloop
  endfacet
  facet normal 0.668094 0.0380706 0.743102
    outer loop
      vertex 45.3638 -20.9275 12.6336
      vertex 50 -27.9939 8.82734
      vertex 49.5948 -20.8834 8.82734
    endloop
  endfacet
  facet normal 0.668094 0.0380706 0.743103
    outer loop
      vertex 50 -27.9939 8.82734
      vertex 49.294 -50 10.5895
      vertex 50 -50 9.95475
    endloop
  endfacet
  facet normal 0.668094 0.0380706 0.743102
    outer loop
      vertex 50 -27.9939 8.82734
      vertex 45.3638 -20.9275 12.6336
      vertex 49.294 -50 10.5895
    endloop
  endfacet
  facet normal 0.623382 0.00784888 0.781878
    outer loop
      vertex 47.6268 33.1547 8.82734
      vertex 50 50 6.76609
      vertex 48.7738 50 7.74373
    endloop
  endfacet
  facet normal 0.623382 0.00784884 0.781878
    outer loop
      vertex 50 50 6.76609
      vertex 47.6268 33.1547 8.82734
      vertex 50 32.906 6.93768
    endloop
  endfacet
  facet normal 0.623124 0.00787969 0.782083
    outer loop
      vertex 48.7738 50 7.74373
      vertex 47.4138 50 8.82734
      vertex 47.6268 33.1547 8.82734
    endloop
  endfacet
  facet normal 0.62503 0.022654 0.780272
    outer loop
      vertex 49.9684 -12.1426 8.27426
      vertex 50 -20.8781 8.5026
      vertex 50 -12.1244 8.24845
    endloop
  endfacet
  facet normal 0.625045 0.0226537 0.78026
    outer loop
      vertex 50 -20.8781 8.5026
      vertex 49.9684 -12.1426 8.27426
      vertex 49.5948 -20.8834 8.82734
    endloop
  endfacet
  facet normal 0.624194 0.0227329 0.780938
    outer loop
      vertex 50 32.906 6.93768
      vertex 48.3582 13.0723 8.82734
      vertex 50 12.1244 7.54263
    endloop
  endfacet
  facet normal 0.624194 0.0227329 0.780939
    outer loop
      vertex 48.3582 13.0723 8.82734
      vertex 50 32.906 6.93768
      vertex 47.6268 33.1547 8.82734
    endloop
  endfacet
  facet normal 0.624195 0.0227329 0.780938
    outer loop
      vertex 49.9684 -12.1426 8.27426
      vertex 49.2907 -12.5339 8.82734
      vertex 49.5948 -20.8834 8.82734
    endloop
  endfacet
  facet normal 0.626192 0.0356828 0.778852
    outer loop
      vertex 50 -23.8716 8.63847
      vertex 49.5948 -20.8834 8.82734
      vertex 50 -27.9939 8.82734
    endloop
  endfacet
  facet normal 0.624712 0.0354063 0.780052
    outer loop
      vertex 50 -20.8781 8.5026
      vertex 49.5948 -20.8834 8.82734
      vertex 50 -23.8716 8.63847
    endloop
  endfacet
endsolid OpenSCAD_Model
