solid OpenSCAD_Model
  facet normal -1 0 0
    outer loop
      vertex -50 -11.547 0
      vertex -50 -14.0593 81.9069
      vertex -50 -11.547 84.133
    endloop
  endfacet
  facet normal -1 0 0
    outer loop
      vertex -50 -11.547 0
      vertex -50 -15.9773 80.2851
      vertex -50 -14.0593 81.9069
    endloop
  endfacet
  facet normal -1 0 0
    outer loop
      vertex -50 -11.547 0
      vertex -50 -23.9759 73.5332
      vertex -50 -15.9773 80.2851
    endloop
  endfacet
  facet normal -1 0 0
    outer loop
      vertex -50 -11.547 0
      vertex -50 -25.2004 72.5492
      vertex -50 -23.9759 73.5332
    endloop
  endfacet
  facet normal -1 0 0
    outer loop
      vertex -50 -11.547 0
      vertex -50 -33.8939 65.5747
      vertex -50 -25.2004 72.5492
    endloop
  endfacet
  facet normal -1 0 0
    outer loop
      vertex -50 -11.547 0
      vertex -50 -34.4089 65.1825
      vertex -50 -33.8939 65.5747
    endloop
  endfacet
  facet normal -1 0 0
    outer loop
      vertex -50 -11.547 0
      vertex -50 -40.9514 60.2088
      vertex -50 -34.4089 65.1825
    endloop
  endfacet
  facet normal -1 0 0
    outer loop
      vertex -50 -11.547 0
      vertex -50 -43.7617 58.2083
      vertex -50 -40.9514 60.2088
    endloop
  endfacet
  facet normal -1 0 0
    outer loop
      vertex -50 -11.547 0
      vertex -50 -44.0106 58.0315
      vertex -50 -43.7617 58.2083
    endloop
  endfacet
  facet normal -1 0 0
    outer loop
      vertex -50 -50 54.0031
      vertex -50 -11.547 0
      vertex -50 -50 0
    endloop
  endfacet
  facet normal -1 0 0
    outer loop
      vertex -50 -11.547 0
      vertex -50 -50 54.0031
      vertex -50 -44.0106 58.0315
    endloop
  endfacet
  facet normal -1 0 0
    outer loop
      vertex -50 11.547 0
      vertex -50 50 99.8
      vertex -50 50 0
    endloop
  endfacet
  facet normal -1 -0 0
    outer loop
      vertex -50 50 99.8
      vertex -50 11.547 0
      vertex -50 11.547 99.8
    endloop
  endfacet
  facet normal 1 -0 0
    outer loop
      vertex 50 -16.5754 14.5277
      vertex 50 -12.1244 0
      vertex 50 -12.1244 16.5922
    endloop
  endfacet
  facet normal 1 -0 0
    outer loop
      vertex 50 -20.6617 12.6336
      vertex 50 -12.1244 0
      vertex 50 -16.5754 14.5277
    endloop
  endfacet
  facet normal 1 -0 0
    outer loop
      vertex 50 -25.339 10.6775
      vertex 50 -12.1244 0
      vertex 50 -20.6617 12.6336
    endloop
  endfacet
  facet normal 1 -0 0
    outer loop
      vertex 50 -29.7656 8.82734
      vertex 50 -12.1244 0
      vertex 50 -25.339 10.6775
    endloop
  endfacet
  facet normal 1 -0 0
    outer loop
      vertex 50 -34.0932 7.21497
      vertex 50 -12.1244 0
      vertex 50 -29.7656 8.82734
    endloop
  endfacet
  facet normal 1 -0 0
    outer loop
      vertex 50 -38.8704 5.43633
      vertex 50 -12.1244 0
      vertex 50 -34.0932 7.21497
    endloop
  endfacet
  facet normal 1 -0 0
    outer loop
      vertex 50 -42.8387 4.13891
      vertex 50 -12.1244 0
      vertex 50 -38.8704 5.43633
    endloop
  endfacet
  facet normal 1 0 0
    outer loop
      vertex 50 -50 0
      vertex 50 -42.8387 4.13891
      vertex 50 -47.9752 2.46055
    endloop
  endfacet
  facet normal 1 0 0
    outer loop
      vertex 50 -50 0
      vertex 50 -47.9752 2.46055
      vertex 50 -50 1.89091
    endloop
  endfacet
  facet normal 1 0 0
    outer loop
      vertex 50 -42.8387 4.13891
      vertex 50 -50 0
      vertex 50 -12.1244 0
    endloop
  endfacet
  facet normal 1 -0 0
    outer loop
      vertex 50 44.9904 52.4167
      vertex 50 50 0
      vertex 50 50 56.3406
    endloop
  endfacet
  facet normal 1 -0 0
    outer loop
      vertex 50 43.0576 50.9035
      vertex 50 50 0
      vertex 50 44.9904 52.4167
    endloop
  endfacet
  facet normal 1 -0 0
    outer loop
      vertex 50 36.1731 45.8257
      vertex 50 50 0
      vertex 50 43.0576 50.9035
    endloop
  endfacet
  facet normal 1 -0 0
    outer loop
      vertex 50 33.9552 44.1907
      vertex 50 50 0
      vertex 50 36.1731 45.8257
    endloop
  endfacet
  facet normal 1 -0 0
    outer loop
      vertex 50 27.3631 39.6289
      vertex 50 50 0
      vertex 50 33.9552 44.1907
    endloop
  endfacet
  facet normal 1 -0 0
    outer loop
      vertex 50 24.8533 37.8931
      vertex 50 50 0
      vertex 50 27.3631 39.6289
    endloop
  endfacet
  facet normal 1 -0 0
    outer loop
      vertex 50 18.5601 33.8254
      vertex 50 50 0
      vertex 50 24.8533 37.8931
    endloop
  endfacet
  facet normal 1 0 0
    outer loop
      vertex 50 12.1244 0
      vertex 50 18.5601 33.8254
      vertex 50 15.7511 32.0107
    endloop
  endfacet
  facet normal 1 0 0
    outer loop
      vertex 50 12.1244 0
      vertex 50 15.7511 32.0107
      vertex 50 12.1244 29.832
    endloop
  endfacet
  facet normal 1 0 0
    outer loop
      vertex 50 18.5601 33.8254
      vertex 50 12.1244 0
      vertex 50 50 0
    endloop
  endfacet
  facet normal 0 1 -0
    outer loop
      vertex -12.1244 50 0
      vertex -50 50 99.8
      vertex -12.1244 50 99.8
    endloop
  endfacet
  facet normal 0 1 0
    outer loop
      vertex -50 50 99.8
      vertex -12.1244 50 0
      vertex -50 50 0
    endloop
  endfacet
  facet normal 0 1 -0
    outer loop
      vertex 50 50 0
      vertex 47.1482 50 58.0315
      vertex 50 50 56.3406
    endloop
  endfacet
  facet normal 0 1 0
    outer loop
      vertex 12.1244 50 0
      vertex 47.1482 50 58.0315
      vertex 50 50 0
    endloop
  endfacet
  facet normal 0 1 0
    outer loop
      vertex 47.1482 50 58.0315
      vertex 12.1244 50 0
      vertex 42.8925 50 60.7001
    endloop
  endfacet
  facet normal 0 1 0
    outer loop
      vertex 42.8925 50 60.7001
      vertex 12.1244 50 0
      vertex 35.1223 50 65.5747
    endloop
  endfacet
  facet normal 0 1 0
    outer loop
      vertex 35.1223 50 65.5747
      vertex 12.1244 50 0
      vertex 26.5441 50 71.2486
    endloop
  endfacet
  facet normal 0 1 0
    outer loop
      vertex 26.5441 50 71.2486
      vertex 12.1244 50 0
      vertex 23.0917 50 73.5332
    endloop
  endfacet
  facet normal 0 1 0
    outer loop
      vertex 23.0917 50 73.5332
      vertex 12.1244 50 0
      vertex 13.1803 50 80.4304
    endloop
  endfacet
  facet normal 0 1 0
    outer loop
      vertex 13.1803 50 80.4304
      vertex 12.1244 50 0
      vertex 12.1244 50 81.3196
    endloop
  endfacet
  facet normal 0 -1 0
    outer loop
      vertex -50 -50 0
      vertex -46.8201 -50 50.9106
      vertex -50 -50 54.0031
    endloop
  endfacet
  facet normal 0 -1 0
    outer loop
      vertex -50 -50 0
      vertex -46.8128 -50 50.9035
      vertex -46.8201 -50 50.9106
    endloop
  endfacet
  facet normal 0 -1 0
    outer loop
      vertex -50 -50 0
      vertex -46.7782 -50 50.8718
      vertex -46.8128 -50 50.9035
    endloop
  endfacet
  facet normal 0 -1 0
    outer loop
      vertex -50 -50 0
      vertex -38.3751 -50 44.1907
      vertex -46.7782 -50 50.8718
    endloop
  endfacet
  facet normal 0 -1 0
    outer loop
      vertex -50 -50 0
      vertex -36.3348 -50 42.6662
      vertex -38.3751 -50 44.1907
    endloop
  endfacet
  facet normal 0 -1 0
    outer loop
      vertex -50 -50 0
      vertex -29.9378 -50 37.8931
      vertex -36.3348 -50 42.6662
    endloop
  endfacet
  facet normal 0 -1 0
    outer loop
      vertex -50 -50 0
      vertex -25.7844 -50 34.9932
      vertex -29.9378 -50 37.8931
    endloop
  endfacet
  facet normal 0 -1 0
    outer loop
      vertex -50 -50 0
      vertex -21.5069 -50 32.0107
      vertex -25.7844 -50 34.9932
    endloop
  endfacet
  facet normal 0 -1 0
    outer loop
      vertex -11.547 -50 0
      vertex -21.5069 -50 32.0107
      vertex -50 -50 0
    endloop
  endfacet
  facet normal 0 -1 0
    outer loop
      vertex -21.5069 -50 32.0107
      vertex -11.547 -50 0
      vertex -15.1733 -50 27.8998
    endloop
  endfacet
  facet normal 0 -1 0
    outer loop
      vertex -15.1733 -50 27.8998
      vertex -11.547 -50 0
      vertex -13.081 -50 26.5436
    endloop
  endfacet
  facet normal 0 -1 0
    outer loop
      vertex -13.081 -50 26.5436
      vertex -11.547 -50 0
      vertex -11.547 -50 25.6232
    endloop
  endfacet
  facet normal 0 -1 0
    outer loop
      vertex 11.547 -50 0
      vertex 15.2988 -50 12.6336
      vertex 11.547 -50 14.2291
    endloop
  endfacet
  facet normal 0 -1 0
    outer loop
      vertex 11.547 -50 0
      vertex 22.0792 -50 10.0307
      vertex 15.2988 -50 12.6336
    endloop
  endfacet
  facet normal 0 -1 0
    outer loop
      vertex 11.547 -50 0
      vertex 25.2166 -50 8.82734
      vertex 22.0792 -50 10.0307
    endloop
  endfacet
  facet normal 0 -1 0
    outer loop
      vertex 11.547 -50 0
      vertex 34.2109 -50 5.75061
      vertex 25.2166 -50 8.82734
    endloop
  endfacet
  facet normal 0 -1 0
    outer loop
      vertex 11.547 -50 0
      vertex 35.324 -50 5.43633
      vertex 34.2109 -50 5.75061
    endloop
  endfacet
  facet normal 0 -1 0
    outer loop
      vertex 11.547 -50 0
      vertex 35.8068 -50 5.31661
      vertex 35.324 -50 5.43633
    endloop
  endfacet
  facet normal 0 -1 0
    outer loop
      vertex 50 -50 0
      vertex 35.8068 -50 5.31661
      vertex 11.547 -50 0
    endloop
  endfacet
  facet normal 0 -1 0
    outer loop
      vertex 35.8068 -50 5.31661
      vertex 50 -50 0
      vertex 47.3305 -50 2.46055
    endloop
  endfacet
  facet normal 0 -1 0
    outer loop
      vertex 47.3305 -50 2.46055
      vertex 50 -50 0
      vertex 50 -50 1.89091
    endloop
  endfacet
  facet normal -1 0 0
    outer loop
      vertex -60 -17.3205 89.6606
      vertex -60 17.3205 99.8
      vertex -60 17.3205 0
    endloop
  endfacet
  facet normal -1 -0 0
    outer loop
      vertex -60 17.3205 99.8
      vertex -60 -6.4336 99.4518
      vertex -60 -6.05913 99.8
    endloop
  endfacet
  facet normal -1 0 0
    outer loop
      vertex -60 17.3205 99.8
      vertex -60 -12.3487 93.9628
      vertex -60 -6.4336 99.4518
    endloop
  endfacet
  facet normal -1 0 0
    outer loop
      vertex -60 17.3205 99.8
      vertex -60 -12.863 93.4854
      vertex -60 -12.3487 93.9628
    endloop
  endfacet
  facet normal -1 0 0
    outer loop
      vertex -60 17.3205 99.8
      vertex -60 -15.8233 90.9125
      vertex -60 -12.863 93.4854
    endloop
  endfacet
  facet normal -1 0 0
    outer loop
      vertex -60 17.3205 99.8
      vertex -60 -16.0731 90.6958
      vertex -60 -15.8233 90.9125
    endloop
  endfacet
  facet normal -1 0 0
    outer loop
      vertex -60 -17.3205 89.6606
      vertex -60 17.3205 0
      vertex -60 -17.3205 0
    endloop
  endfacet
  facet normal -1 0 0
    outer loop
      vertex -60 17.3205 99.8
      vertex -60 -17.3205 89.6606
      vertex -60 -16.0731 90.6958
    endloop
  endfacet
  facet normal 0.5 0.866025 -0
    outer loop
      vertex -50 11.547 0
      vertex -60 17.3205 99.8
      vertex -50 11.547 99.8
    endloop
  endfacet
  facet normal 0.5 0.866025 0
    outer loop
      vertex -60 17.3205 99.8
      vertex -50 11.547 0
      vertex -60 17.3205 0
    endloop
  endfacet
  facet normal 0.5 -0.866025 0
    outer loop
      vertex -60 -17.3205 0
      vertex -58.6837 -16.5606 88.7155
      vertex -60 -17.3205 89.6606
    endloop
  endfacet
  facet normal 0.5 -0.866025 7.64299e-09
    outer loop
      vertex -60 -17.3205 0
      vertex -50 -11.547 84.133
      vertex -58.6837 -16.5606 88.7155
    endloop
  endfacet
  facet normal 0.5 -0.866025 0
    outer loop
      vertex -50 -11.547 84.133
      vertex -60 -17.3205 0
      vertex -50 -11.547 0
    endloop
  endfacet
  facet normal 0 -1 0
    outer loop
      vertex -17.3205 -60 0
      vertex -16.065 -60 23.2365
      vertex -17.3205 -60 23.9898
    endloop
  endfacet
  facet normal 0 -1 0
    outer loop
      vertex -17.3205 -60 0
      vertex -13.1533 -60 21.4917
      vertex -16.065 -60 23.2365
    endloop
  endfacet
  facet normal 0 -1 0
    outer loop
      vertex -17.3205 -60 0
      vertex -5.36969 -60 17.2035
      vertex -13.1533 -60 21.4917
    endloop
  endfacet
  facet normal 0 -1 0
    outer loop
      vertex -17.3205 -60 0
      vertex -4.73638 -60 16.855
      vertex -5.36969 -60 17.2035
    endloop
  endfacet
  facet normal 0 -1 0
    outer loop
      vertex -17.3205 -60 0
      vertex -2.44518 -60 15.7054
      vertex -4.73638 -60 16.855
    endloop
  endfacet
  facet normal 0 -1 0
    outer loop
      vertex -17.3205 -60 0
      vertex 4.77805 -60 12.6336
      vertex -2.44518 -60 15.7054
    endloop
  endfacet
  facet normal 0 -1 0
    outer loop
      vertex -17.3205 -60 0
      vertex 7.16015 -60 11.7191
      vertex 4.77805 -60 12.6336
    endloop
  endfacet
  facet normal 0 -1 0
    outer loop
      vertex 17.3205 -60 0
      vertex 7.16015 -60 11.7191
      vertex -17.3205 -60 0
    endloop
  endfacet
  facet normal 0 -1 0
    outer loop
      vertex 7.16015 -60 11.7191
      vertex 17.3205 -60 0
      vertex 14.6997 -60 8.82734
    endloop
  endfacet
  facet normal 0 -1 0
    outer loop
      vertex 14.6997 -60 8.82734
      vertex 17.3205 -60 0
      vertex 17.3205 -60 7.93081
    endloop
  endfacet
  facet normal -0.866025 0.5 0
    outer loop
      vertex -17.3205 -60 23.9898
      vertex -11.547 -50 0
      vertex -17.3205 -60 0
    endloop
  endfacet
  facet normal -0.866025 0.5 0
    outer loop
      vertex -11.547 -50 0
      vertex -17.3205 -60 23.9898
      vertex -11.547 -50 25.6232
    endloop
  endfacet
  facet normal 0.866025 0.5 0
    outer loop
      vertex 12.8764 -52.3025 12.6336
      vertex 11.547 -50 0
      vertex 11.547 -50 14.2291
    endloop
  endfacet
  facet normal 0.866025 0.5 3.58166e-08
    outer loop
      vertex 14.4856 -55.0898 10.8901
      vertex 11.547 -50 0
      vertex 12.8764 -52.3025 12.6336
    endloop
  endfacet
  facet normal 0.866025 0.5 -4.36088e-08
    outer loop
      vertex 16.3917 -58.3912 8.82734
      vertex 11.547 -50 0
      vertex 14.4856 -55.0898 10.8901
    endloop
  endfacet
  facet normal 0.866025 0.5 -0
    outer loop
      vertex 17.3205 -60 0
      vertex 16.3917 -58.3912 8.82734
      vertex 17.3205 -60 7.93081
    endloop
  endfacet
  facet normal 0.866025 0.5 1.59868e-08
    outer loop
      vertex 16.3917 -58.3912 8.82734
      vertex 17.3205 -60 0
      vertex 11.547 -50 0
    endloop
  endfacet
  facet normal 1 -0 0
    outer loop
      vertex 39.5 16.9014 37.8931
      vertex 39.5 18.1865 0
      vertex 39.5 18.1865 38.7819
    endloop
  endfacet
  facet normal 1 -0 0
    outer loop
      vertex 39.5 13.0377 35.3957
      vertex 39.5 18.1865 0
      vertex 39.5 16.9014 37.8931
    endloop
  endfacet
  facet normal 1 -0 0
    outer loop
      vertex 39.5 7.79799 32.0107
      vertex 39.5 18.1865 0
      vertex 39.5 13.0377 35.3957
    endloop
  endfacet
  facet normal 1 -0 0
    outer loop
      vertex 39.5 4.27189 29.8925
      vertex 39.5 18.1865 0
      vertex 39.5 7.79799 32.0107
    endloop
  endfacet
  facet normal 1 -0 0
    outer loop
      vertex 39.5 -1.30629 26.5436
      vertex 39.5 18.1865 0
      vertex 39.5 4.27189 29.8925
    endloop
  endfacet
  facet normal 1 -0 0
    outer loop
      vertex 39.5 -4.48593 24.7786
      vertex 39.5 18.1865 0
      vertex 39.5 -1.30629 26.5436
    endloop
  endfacet
  facet normal 1 -0 0
    outer loop
      vertex 39.5 -10.4103 21.4917
      vertex 39.5 18.1865 0
      vertex 39.5 -4.48593 24.7786
    endloop
  endfacet
  facet normal 1 0 0
    outer loop
      vertex 39.5 -18.1865 0
      vertex 39.5 -10.4103 21.4917
      vertex 39.5 -13.2344 20.0529
    endloop
  endfacet
  facet normal 1 0 0
    outer loop
      vertex 39.5 -18.1865 0
      vertex 39.5 -13.2344 20.0529
      vertex 39.5 -18.1865 17.5316
    endloop
  endfacet
  facet normal 1 0 0
    outer loop
      vertex 39.5 -10.4103 21.4917
      vertex 39.5 -18.1865 0
      vertex 39.5 18.1865 0
    endloop
  endfacet
  facet normal -0.5 -0.866025 0
    outer loop
      vertex 39.5 18.1865 0
      vertex 40.4629 17.6306 37.8931
      vertex 39.5 18.1865 38.7819
    endloop
  endfacet
  facet normal -0.5 -0.866026 -1.70213e-08
    outer loop
      vertex 39.5 18.1865 0
      vertex 44.1668 15.4922 34.6978
      vertex 40.4629 17.6306 37.8931
    endloop
  endfacet
  facet normal -0.5 -0.866025 9.18549e-08
    outer loop
      vertex 39.5 18.1865 0
      vertex 47.2829 13.6931 32.0107
      vertex 44.1668 15.4922 34.6978
    endloop
  endfacet
  facet normal -0.5 -0.866026 -8.23911e-08
    outer loop
      vertex 39.5 18.1865 0
      vertex 50 12.1244 29.832
      vertex 47.2829 13.6931 32.0107
    endloop
  endfacet
  facet normal -0.5 -0.866025 -0
    outer loop
      vertex 50 12.1244 29.832
      vertex 39.5 18.1865 0
      vertex 50 12.1244 0
    endloop
  endfacet
  facet normal -0.5 0.866025 0
    outer loop
      vertex 50 -12.1244 0
      vertex 46.8616 -13.9363 16.855
      vertex 50 -12.1244 16.5922
    endloop
  endfacet
  facet normal -0.5 0.866025 -2.31717e-08
    outer loop
      vertex 39.5 -18.1865 0
      vertex 46.8616 -13.9363 16.855
      vertex 50 -12.1244 0
    endloop
  endfacet
  facet normal -0.5 0.866025 0
    outer loop
      vertex 46.8616 -13.9363 16.855
      vertex 39.5 -18.1865 0
      vertex 39.5 -18.1865 17.5316
    endloop
  endfacet
  facet normal 0 1 0
    outer loop
      vertex -18.1865 39.5 0
      vertex 18.1865 39.5 67.5999
      vertex 18.1865 39.5 0
    endloop
  endfacet
  facet normal 0 1 0
    outer loop
      vertex 18.1865 39.5 67.5999
      vertex -18.1865 39.5 0
      vertex 15.3884 39.5 69.4506
    endloop
  endfacet
  facet normal 0 1 0
    outer loop
      vertex 15.3884 39.5 69.4506
      vertex -18.1865 39.5 0
      vertex 10.288 39.5 73.5332
    endloop
  endfacet
  facet normal 0 1 0
    outer loop
      vertex 10.288 39.5 73.5332
      vertex -18.1865 39.5 0
      vertex 8.80606 39.5 74.78
    endloop
  endfacet
  facet normal 0 1 0
    outer loop
      vertex 8.80606 39.5 74.78
      vertex -18.1865 39.5 0
      vertex 0.342399 39.5 81.9069
    endloop
  endfacet
  facet normal 0 1 0
    outer loop
      vertex 0.342399 39.5 81.9069
      vertex -18.1865 39.5 0
      vertex -3.96315 39.5 85.7083
    endloop
  endfacet
  facet normal 0 1 0
    outer loop
      vertex -3.96315 39.5 85.7083
      vertex -18.1865 39.5 0
      vertex -9.60752 39.5 90.6958
    endloop
  endfacet
  facet normal 0 1 0
    outer loop
      vertex -9.60752 39.5 90.6958
      vertex -18.1865 39.5 0
      vertex -16.6549 39.5 97.2106
    endloop
  endfacet
  facet normal 0 1 0
    outer loop
      vertex -16.6549 39.5 97.2106
      vertex -18.1865 39.5 0
      vertex -18.1865 39.5 98.6276
    endloop
  endfacet
  facet normal 0.866025 -0.5 8.76147e-07
    outer loop
      vertex -18.1865 39.5 98.6276
      vertex -12.1244 50 99.8
      vertex -16.6586 42.1464 99.8
    endloop
  endfacet
  facet normal 0.866025 -0.5 0
    outer loop
      vertex -12.1244 50 99.8
      vertex -18.1865 39.5 98.6276
      vertex -12.1244 50 0
    endloop
  endfacet
  facet normal 0.866025 -0.5 0
    outer loop
      vertex -12.1244 50 0
      vertex -18.1865 39.5 98.6276
      vertex -18.1865 39.5 0
    endloop
  endfacet
  facet normal -0.866026 -0.5 0
    outer loop
      vertex 12.1244 50 0
      vertex 13.7853 47.1231 77.3636
      vertex 12.1244 50 81.3196
    endloop
  endfacet
  facet normal -0.866025 -0.5 -1.05282e-08
    outer loop
      vertex 12.1244 50 0
      vertex 15.4588 44.2245 73.5332
      vertex 13.7853 47.1231 77.3636
    endloop
  endfacet
  facet normal -0.866026 -0.499999 7.75901e-08
    outer loop
      vertex 12.1244 50 0
      vertex 15.5468 44.0722 73.3418
      vertex 15.4588 44.2245 73.5332
    endloop
  endfacet
  facet normal -0.866025 -0.5 -0
    outer loop
      vertex 18.1865 39.5 67.5999
      vertex 12.1244 50 0
      vertex 18.1865 39.5 0
    endloop
  endfacet
  facet normal -0.866025 -0.5 -3.99957e-08
    outer loop
      vertex 12.1244 50 0
      vertex 18.1865 39.5 67.5999
      vertex 15.5468 44.0722 73.3418
    endloop
  endfacet
  facet normal -0 0 1
    outer loop
      vertex -50 50 99.8
      vertex -16.6586 42.1464 99.8
      vertex -12.1244 50 99.8
    endloop
  endfacet
  facet normal 0 0 1
    outer loop
      vertex -16.6586 42.1464 99.8
      vertex -50 50 99.8
      vertex -27.741 31.654 99.8
    endloop
  endfacet
  facet normal 0 0 1
    outer loop
      vertex -27.741 31.654 99.8
      vertex -50 50 99.8
      vertex -28.146 31.27 99.8
    endloop
  endfacet
  facet normal 0 0 1
    outer loop
      vertex -50 11.547 99.8
      vertex -28.146 31.27 99.8
      vertex -50 50 99.8
    endloop
  endfacet
  facet normal -0 0 1
    outer loop
      vertex -50 11.547 99.8
      vertex -60 -6.05913 99.8
      vertex -28.146 31.27 99.8
    endloop
  endfacet
  facet normal 0 0 1
    outer loop
      vertex -60 -6.05913 99.8
      vertex -50 11.547 99.8
      vertex -60 17.3205 99.8
    endloop
  endfacet
  facet normal 0 0 -1
    outer loop
      vertex 17.3205 -60 0
      vertex -11.547 -50 0
      vertex 11.547 -50 0
    endloop
  endfacet
  facet normal 0 -0 -1
    outer loop
      vertex -11.547 -50 0
      vertex 17.3205 -60 0
      vertex -17.3205 -60 0
    endloop
  endfacet
  facet normal 0 0 -1
    outer loop
      vertex 50 -50 0
      vertex 39.5 -18.1865 0
      vertex 50 -12.1244 0
    endloop
  endfacet
  facet normal 0 0 -1
    outer loop
      vertex 39.5 -18.1865 0
      vertex 18.1865 39.5 0
      vertex 39.5 18.1865 0
    endloop
  endfacet
  facet normal 0 0 -1
    outer loop
      vertex 11.547 -50 0
      vertex 39.5 -18.1865 0
      vertex 50 -50 0
    endloop
  endfacet
  facet normal 0 0 -1
    outer loop
      vertex -11.547 -50 0
      vertex 39.5 -18.1865 0
      vertex 11.547 -50 0
    endloop
  endfacet
  facet normal 0 0 -1
    outer loop
      vertex -18.1865 39.5 0
      vertex 39.5 -18.1865 0
      vertex -11.547 -50 0
    endloop
  endfacet
  facet normal 0 0 -1
    outer loop
      vertex 39.5 -18.1865 0
      vertex -18.1865 39.5 0
      vertex 18.1865 39.5 0
    endloop
  endfacet
  facet normal 0 0 -1
    outer loop
      vertex -50 -11.547 0
      vertex -11.547 -50 0
      vertex -50 -50 0
    endloop
  endfacet
  facet normal 0 0 -1
    outer loop
      vertex 39.5 18.1865 0
      vertex 50 50 0
      vertex 50 12.1244 0
    endloop
  endfacet
  facet normal 0 0 -1
    outer loop
      vertex 18.1865 39.5 0
      vertex 50 50 0
      vertex 39.5 18.1865 0
    endloop
  endfacet
  facet normal -0 0 -1
    outer loop
      vertex 50 50 0
      vertex 18.1865 39.5 0
      vertex 12.1244 50 0
    endloop
  endfacet
  facet normal 0 0 -1
    outer loop
      vertex -11.547 -50 0
      vertex -50 -11.547 0
      vertex -18.1865 39.5 0
    endloop
  endfacet
  facet normal 0 0 -1
    outer loop
      vertex -50 11.547 0
      vertex -18.1865 39.5 0
      vertex -50 -11.547 0
    endloop
  endfacet
  facet normal 0 0 -1
    outer loop
      vertex -50 50 0
      vertex -18.1865 39.5 0
      vertex -50 11.547 0
    endloop
  endfacet
  facet normal 0 0 -1
    outer loop
      vertex -18.1865 39.5 0
      vertex -50 50 0
      vertex -12.1244 50 0
    endloop
  endfacet
  facet normal 0 0 -1
    outer loop
      vertex -60 -17.3205 0
      vertex -50 11.547 0
      vertex -50 -11.547 0
    endloop
  endfacet
  facet normal -0 0 -1
    outer loop
      vertex -50 11.547 0
      vertex -60 -17.3205 0
      vertex -60 17.3205 0
    endloop
  endfacet
  facet normal 0.551719 -0.582589 0.596822
    outer loop
      vertex -16.6549 39.5 97.2106
      vertex -26.073 23.907 90.6958
      vertex -9.60752 39.5 90.6958
    endloop
  endfacet
  facet normal 0.551719 -0.582589 0.596822
    outer loop
      vertex -26.073 23.907 90.6958
      vertex -16.6549 39.5 97.2106
      vertex -27.741 31.654 99.8
    endloop
  endfacet
  facet normal 0.552138 -0.582335 0.596682
    outer loop
      vertex -26.073 23.907 90.6958
      vertex -27.741 31.654 99.8
      vertex -28.146 31.27 99.8
    endloop
  endfacet
  facet normal 0.551821 -0.582849 0.596473
    outer loop
      vertex -16.6586 42.1464 99.8
      vertex -27.741 31.654 99.8
      vertex -18.1865 39.5 98.6276
    endloop
  endfacet
  facet normal 0.551821 -0.582849 0.596473
    outer loop
      vertex -16.6549 39.5 97.2106
      vertex -18.1865 39.5 98.6276
      vertex -27.741 31.654 99.8
    endloop
  endfacet
  facet normal 0.623714 -0.532232 0.572459
    outer loop
      vertex -60 -6.05913 99.8
      vertex -26.073 23.907 90.6958
      vertex -28.146 31.27 99.8
    endloop
  endfacet
  facet normal 0.623715 -0.532235 0.572456
    outer loop
      vertex -26.073 23.907 90.6958
      vertex -60 -6.05913 99.8
      vertex -60 -6.4336 99.4518
    endloop
  endfacet
  facet normal 0.623458 -0.531843 0.5731
    outer loop
      vertex -59.245 -14.984 90.6958
      vertex -60 -12.3487 93.9628
      vertex -60 -12.863 93.4854
    endloop
  endfacet
  facet normal 0.623499 -0.531812 0.573084
    outer loop
      vertex -60 -12.3487 93.9628
      vertex -26.073 23.907 90.6958
      vertex -60 -6.4336 99.4518
    endloop
  endfacet
  facet normal 0.623499 -0.531812 0.573084
    outer loop
      vertex -26.073 23.907 90.6958
      vertex -60 -12.3487 93.9628
      vertex -59.245 -14.984 90.6958
    endloop
  endfacet
  facet normal 0.687154 -0.476599 0.548336
    outer loop
      vertex -59.245 -14.984 90.6958
      vertex -60 -12.863 93.4854
      vertex -60 -15.8233 90.9125
    endloop
  endfacet
  facet normal 0.686861 -0.476137 0.549104
    outer loop
      vertex -59.245 -14.984 90.6958
      vertex -60 -15.8233 90.9125
      vertex -60 -16.0731 90.6958
    endloop
  endfacet
  facet normal 0.542547 -0.572749 0.614493
    outer loop
      vertex -3.96315 39.5 85.7083
      vertex -23.977 16.463 81.9069
      vertex 0.342399 39.5 81.9069
    endloop
  endfacet
  facet normal 0.542547 -0.572749 0.614493
    outer loop
      vertex -23.977 16.463 81.9069
      vertex -3.96315 39.5 85.7083
      vertex -26.073 23.907 90.6958
    endloop
  endfacet
  facet normal 0.54266 -0.573024 0.614136
    outer loop
      vertex -3.96315 39.5 85.7083
      vertex -9.60752 39.5 90.6958
      vertex -26.073 23.907 90.6958
    endloop
  endfacet
  facet normal 0.614194 -0.523876 0.590186
    outer loop
      vertex -23.977 16.463 81.9069
      vertex -26.073 23.907 90.6958
      vertex -59.245 -14.984 90.6958
    endloop
  endfacet
  facet normal 0.61398 -0.523474 0.590765
    outer loop
      vertex -59.245 -14.984 90.6958
      vertex -50 -11.547 84.133
      vertex -23.977 16.463 81.9069
    endloop
  endfacet
  facet normal 0.61398 -0.523475 0.590764
    outer loop
      vertex -50 -11.547 84.133
      vertex -59.245 -14.984 90.6958
      vertex -58.6837 -16.5606 88.7155
    endloop
  endfacet
  facet normal 0.613981 -0.523474 0.590764
    outer loop
      vertex -23.977 16.463 81.9069
      vertex -50 -11.547 84.133
      vertex -50 -14.0593 81.9069
    endloop
  endfacet
  facet normal 0.677556 -0.469687 0.565962
    outer loop
      vertex -60 -16.0731 90.6958
      vertex -58.6837 -16.5606 88.7155
      vertex -59.245 -14.984 90.6958
    endloop
  endfacet
  facet normal 0.677555 -0.469687 0.565962
    outer loop
      vertex -58.6837 -16.5606 88.7155
      vertex -60 -16.0731 90.6958
      vertex -60 -17.3205 89.6606
    endloop
  endfacet
  facet normal 0.455883 -0.602494 0.655112
    outer loop
      vertex 23.0917 50 73.5332
      vertex 13.7853 47.1231 77.3636
      vertex 15.4588 44.2245 73.5332
    endloop
  endfacet
  facet normal 0.455883 -0.602494 0.655112
    outer loop
      vertex 13.7853 47.1231 77.3636
      vertex 23.0917 50 73.5332
      vertex 13.1803 50 80.4304
    endloop
  endfacet
  facet normal 0.532508 -0.561978 0.632942
    outer loop
      vertex 8.80606 39.5 74.78
      vertex -21.881 9.018 73.5332
      vertex 10.288 39.5 73.5332
    endloop
  endfacet
  facet normal 0.532508 -0.561978 0.632942
    outer loop
      vertex -21.881 9.018 73.5332
      vertex 8.80606 39.5 74.78
      vertex -23.977 16.463 81.9069
    endloop
  endfacet
  facet normal 0.532644 -0.562295 0.632546
    outer loop
      vertex 8.80606 39.5 74.78
      vertex 0.342399 39.5 81.9069
      vertex -23.977 16.463 81.9069
    endloop
  endfacet
  facet normal 0.532646 -0.562294 0.632546
    outer loop
      vertex 13.7853 47.1231 77.3636
      vertex 13.1803 50 80.4304
      vertex 12.1244 50 81.3196
    endloop
  endfacet
  facet normal 0.603501 -0.514333 0.609301
    outer loop
      vertex -21.881 9.018 73.5332
      vertex -50 -15.9773 80.2851
      vertex -50 -23.9759 73.5332
    endloop
  endfacet
  facet normal 0.603719 -0.514725 0.608754
    outer loop
      vertex -50 -14.0593 81.9069
      vertex -21.881 9.018 73.5332
      vertex -23.977 16.463 81.9069
    endloop
  endfacet
  facet normal 0.603719 -0.514725 0.608755
    outer loop
      vertex -21.881 9.018 73.5332
      vertex -50 -14.0593 81.9069
      vertex -50 -15.9773 80.2851
    endloop
  endfacet
  facet normal 0.445803 -0.589051 0.674002
    outer loop
      vertex 26.5441 50 71.2486
      vertex 15.5468 44.0722 73.3418
      vertex 18.1865 39.5 67.5999
    endloop
  endfacet
  facet normal 0.445803 -0.589051 0.674002
    outer loop
      vertex 18.1865 39.5 67.5999
      vertex 35.1223 50 65.5747
      vertex 26.5441 50 71.2486
    endloop
  endfacet
  facet normal 0.445802 -0.58905 0.674003
    outer loop
      vertex 18.1865 39.5 67.5999
      vertex 16.193 35.674 65.5747
      vertex 35.1223 50 65.5747
    endloop
  endfacet
  facet normal 0.445802 -0.58905 0.674003
    outer loop
      vertex 16.193 35.674 65.5747
      vertex 18.1865 39.5 67.5999
      vertex 15.3884 39.5 69.4506
    endloop
  endfacet
  facet normal 0.445874 -0.589266 0.673768
    outer loop
      vertex 23.0917 50 73.5332
      vertex 15.5468 44.0722 73.3418
      vertex 26.5441 50 71.2486
    endloop
  endfacet
  facet normal 0.445875 -0.589268 0.673765
    outer loop
      vertex 15.5468 44.0722 73.3418
      vertex 23.0917 50 73.5332
      vertex 15.4588 44.2245 73.5332
    endloop
  endfacet
  facet normal 0.521552 -0.550277 0.652058
    outer loop
      vertex -19.784 1.575 65.5747
      vertex 16.193 35.674 65.5747
      vertex -21.881 9.018 73.5332
    endloop
  endfacet
  facet normal 0.521672 -0.550541 0.651738
    outer loop
      vertex 10.288 39.5 73.5332
      vertex 16.193 35.674 65.5747
      vertex 15.3884 39.5 69.4506
    endloop
  endfacet
  facet normal 0.521671 -0.550542 0.651738
    outer loop
      vertex 16.193 35.674 65.5747
      vertex 10.288 39.5 73.5332
      vertex -21.881 9.018 73.5332
    endloop
  endfacet
  facet normal 0.592006 -0.50433 0.628633
    outer loop
      vertex -19.784 1.575 65.5747
      vertex -50 -25.2004 72.5492
      vertex -50 -33.8939 65.5747
    endloop
  endfacet
  facet normal 0.592239 -0.504734 0.62809
    outer loop
      vertex -50 -23.9759 73.5332
      vertex -19.784 1.575 65.5747
      vertex -21.881 9.018 73.5332
    endloop
  endfacet
  facet normal 0.592239 -0.504734 0.62809
    outer loop
      vertex -19.784 1.575 65.5747
      vertex -50 -23.9759 73.5332
      vertex -50 -25.2004 72.5492
    endloop
  endfacet
  facet normal 0.434849 -0.574476 0.693457
    outer loop
      vertex 42.8925 50 60.7001
      vertex 17.845 27.819 58.0315
      vertex 47.1482 50 58.0315
    endloop
  endfacet
  facet normal 0.434849 -0.574477 0.693457
    outer loop
      vertex 17.845 27.819 58.0315
      vertex 42.8925 50 60.7001
      vertex 16.193 35.674 65.5747
    endloop
  endfacet
  facet normal 0.434914 -0.574664 0.693261
    outer loop
      vertex 42.8925 50 60.7001
      vertex 35.1223 50 65.5747
      vertex 16.193 35.674 65.5747
    endloop
  endfacet
  facet normal 0.509537 -0.537443 0.671958
    outer loop
      vertex -17.688 -5.869 58.0315
      vertex 17.845 27.819 58.0315
      vertex -19.784 1.575 65.5747
    endloop
  endfacet
  facet normal 0.509681 -0.537751 0.671602
    outer loop
      vertex 17.845 27.819 58.0315
      vertex 16.193 35.674 65.5747
      vertex -19.784 1.575 65.5747
    endloop
  endfacet
  facet normal 0.579315 -0.493297 0.648886
    outer loop
      vertex -50 -34.4089 65.1825
      vertex -49.281 -42.971 58.0315
      vertex -17.688 -5.869 58.0315
    endloop
  endfacet
  facet normal 0.579312 -0.493298 0.648887
    outer loop
      vertex -49.281 -42.971 58.0315
      vertex -50 -34.4089 65.1825
      vertex -50 -40.9514 60.2088
    endloop
  endfacet
  facet normal 0.579584 -0.493748 0.648302
    outer loop
      vertex -50 -33.8939 65.5747
      vertex -17.688 -5.869 58.0315
      vertex -19.784 1.575 65.5747
    endloop
  endfacet
  facet normal 0.579584 -0.493748 0.648302
    outer loop
      vertex -17.688 -5.869 58.0315
      vertex -50 -33.8939 65.5747
      vertex -50 -34.4089 65.1825
    endloop
  endfacet
  facet normal 0.642314 -0.444472 0.624402
    outer loop
      vertex -49.281 -42.971 58.0315
      vertex -50 -40.9514 60.2088
      vertex -50 -43.7617 58.2083
    endloop
  endfacet
  facet normal 0.641929 -0.443951 0.625168
    outer loop
      vertex -49.281 -42.971 58.0315
      vertex -50 -43.7617 58.2083
      vertex -50 -44.0106 58.0315
    endloop
  endfacet
  facet normal 0.422901 -0.55861 0.713519
    outer loop
      vertex 17.845 27.819 58.0315
      vertex 50 43.0576 50.9035
      vertex 50 44.9904 52.4167
    endloop
  endfacet
  facet normal 0.422901 -0.558611 0.713519
    outer loop
      vertex 50 43.0576 50.9035
      vertex 17.845 27.819 58.0315
      vertex 19.497 19.965 50.9035
    endloop
  endfacet
  facet normal 0.422957 -0.558765 0.713365
    outer loop
      vertex 47.1482 50 58.0315
      vertex 50 44.9904 52.4167
      vertex 50 50 56.3406
    endloop
  endfacet
  facet normal 0.422957 -0.558765 0.713365
    outer loop
      vertex 50 44.9904 52.4167
      vertex 47.1482 50 58.0315
      vertex 17.845 27.819 58.0315
    endloop
  endfacet
  facet normal 0.496388 -0.523401 0.692568
    outer loop
      vertex -15.592 -13.313 50.9035
      vertex 19.497 19.965 50.9035
      vertex -17.688 -5.869 58.0315
    endloop
  endfacet
  facet normal 0.496557 -0.523752 0.692181
    outer loop
      vertex 19.497 19.965 50.9035
      vertex 17.845 27.819 58.0315
      vertex -17.688 -5.869 58.0315
    endloop
  endfacet
  facet normal 0.565384 -0.481226 0.669897
    outer loop
      vertex -46.79 -49.967 50.9035
      vertex -15.592 -13.313 50.9035
      vertex -49.281 -42.971 58.0315
    endloop
  endfacet
  facet normal 0.565656 -0.481666 0.669351
    outer loop
      vertex -15.592 -13.313 50.9035
      vertex -17.688 -5.869 58.0315
      vertex -49.281 -42.971 58.0315
    endloop
  endfacet
  facet normal 0.627581 -0.433742 0.646537
    outer loop
      vertex -46.8128 -50 50.9035
      vertex -46.79 -49.967 50.9035
      vertex -46.8201 -50 50.9106
    endloop
  endfacet
  facet normal 0.628002 -0.434319 0.645741
    outer loop
      vertex -50 -44.0106 58.0315
      vertex -46.79 -49.967 50.9035
      vertex -49.281 -42.971 58.0315
    endloop
  endfacet
  facet normal 0.628002 -0.434319 0.645741
    outer loop
      vertex -50 -50 54.0031
      vertex -46.79 -49.967 50.9035
      vertex -50 -44.0106 58.0315
    endloop
  endfacet
  facet normal 0.628008 -0.434301 0.645747
    outer loop
      vertex -46.79 -49.967 50.9035
      vertex -50 -50 54.0031
      vertex -46.8201 -50 50.9106
    endloop
  endfacet
  facet normal 0.409829 -0.541262 0.734218
    outer loop
      vertex 19.497 19.965 50.9035
      vertex 50 33.9552 44.1907
      vertex 50 36.1731 45.8257
    endloop
  endfacet
  facet normal 0.409829 -0.541262 0.734217
    outer loop
      vertex 50 33.9552 44.1907
      vertex 19.497 19.965 50.9035
      vertex 21.149 12.11 44.1907
    endloop
  endfacet
  facet normal 0.40989 -0.541424 0.734064
    outer loop
      vertex 50 36.1731 45.8257
      vertex 50 43.0576 50.9035
      vertex 19.497 19.965 50.9035
    endloop
  endfacet
  facet normal 0.481966 -0.508039 0.713866
    outer loop
      vertex -13.496 -20.757 44.1907
      vertex 21.149 12.11 44.1907
      vertex -15.592 -13.313 50.9035
    endloop
  endfacet
  facet normal 0.482131 -0.508369 0.71352
    outer loop
      vertex 21.149 12.11 44.1907
      vertex 19.497 19.965 50.9035
      vertex -15.592 -13.313 50.9035
    endloop
  endfacet
  facet normal 0.550004 -0.467927 0.691765
    outer loop
      vertex -46.79 -49.967 50.9035
      vertex -38.3751 -50 44.1907
      vertex -13.496 -20.757 44.1907
    endloop
  endfacet
  facet normal 0.550012 -0.467904 0.691775
    outer loop
      vertex -38.3751 -50 44.1907
      vertex -46.79 -49.967 50.9035
      vertex -46.7782 -50 50.8718
    endloop
  endfacet
  facet normal 0.550295 -0.468383 0.691226
    outer loop
      vertex -13.496 -20.757 44.1907
      vertex -15.592 -13.313 50.9035
      vertex -46.79 -49.967 50.9035
    endloop
  endfacet
  facet normal 0.612117 -0.423055 0.668085
    outer loop
      vertex -46.7782 -50 50.8718
      vertex -46.79 -49.967 50.9035
      vertex -46.8128 -50 50.9035
    endloop
  endfacet
  facet normal 0.395621 -0.522399 0.75537
    outer loop
      vertex 39.5 18.1865 38.7819
      vertex 50 24.8533 37.8931
      vertex 50 27.3631 39.6289
    endloop
  endfacet
  facet normal 0.395621 -0.522399 0.75537
    outer loop
      vertex 50 24.8533 37.8931
      vertex 39.5 18.1865 38.7819
      vertex 40.4629 17.6306 37.8931
    endloop
  endfacet
  facet normal 0.395622 -0.522399 0.75537
    outer loop
      vertex 21.149 12.11 44.1907
      vertex 39.5 16.9014 37.8931
      vertex 39.5 18.1865 38.7819
    endloop
  endfacet
  facet normal 0.395622 -0.522399 0.755369
    outer loop
      vertex 21.149 12.11 44.1907
      vertex 39.5 18.1865 38.7819
      vertex 50 27.3631 39.6289
    endloop
  endfacet
  facet normal 0.395622 -0.522399 0.755369
    outer loop
      vertex 39.5 16.9014 37.8931
      vertex 21.149 12.11 44.1907
      vertex 22.801 4.255 37.8931
    endloop
  endfacet
  facet normal 0.3957 -0.522602 0.755188
    outer loop
      vertex 50 27.3631 39.6289
      vertex 50 33.9552 44.1907
      vertex 21.149 12.11 44.1907
    endloop
  endfacet
  facet normal 0.466178 -0.491257 0.735762
    outer loop
      vertex -11.4 -28.2 37.8931
      vertex 22.801 4.255 37.8931
      vertex -13.496 -20.757 44.1907
    endloop
  endfacet
  facet normal 0.466336 -0.491563 0.735457
    outer loop
      vertex 22.801 4.255 37.8931
      vertex 21.149 12.11 44.1907
      vertex -13.496 -20.757 44.1907
    endloop
  endfacet
  facet normal 0.533056 -0.453289 0.714409
    outer loop
      vertex -29.9378 -50 37.8931
      vertex -11.4 -28.2 37.8931
      vertex -36.3348 -50 42.6662
    endloop
  endfacet
  facet normal 0.533385 -0.453788 0.713847
    outer loop
      vertex -13.496 -20.757 44.1907
      vertex -36.3348 -50 42.6662
      vertex -11.4 -28.2 37.8931
    endloop
  endfacet
  facet normal 0.533385 -0.453789 0.713846
    outer loop
      vertex -36.3348 -50 42.6662
      vertex -13.496 -20.757 44.1907
      vertex -38.3751 -50 44.1907
    endloop
  endfacet
  facet normal 0.380159 -0.501898 0.776903
    outer loop
      vertex 22.801 4.255 37.8931
      vertex 39.5 7.79799 32.0107
      vertex 39.5 13.0377 35.3957
    endloop
  endfacet
  facet normal 0.380159 -0.501898 0.776903
    outer loop
      vertex 39.5 7.79799 32.0107
      vertex 22.801 4.255 37.8931
      vertex 24.452 -3.6 32.0107
    endloop
  endfacet
  facet normal 0.380158 -0.501898 0.776903
    outer loop
      vertex 44.1668 15.4922 34.6978
      vertex 50 15.7511 32.0107
      vertex 50 18.5601 33.8254
    endloop
  endfacet
  facet normal 0.380158 -0.501898 0.776903
    outer loop
      vertex 50 15.7511 32.0107
      vertex 44.1668 15.4922 34.6978
      vertex 47.2829 13.6931 32.0107
    endloop
  endfacet
  facet normal 0.380229 -0.502074 0.776754
    outer loop
      vertex 39.5 13.0377 35.3957
      vertex 39.5 16.9014 37.8931
      vertex 22.801 4.255 37.8931
    endloop
  endfacet
  facet normal 0.380229 -0.502074 0.776755
    outer loop
      vertex 40.4629 17.6306 37.8931
      vertex 50 18.5601 33.8254
      vertex 50 24.8533 37.8931
    endloop
  endfacet
  facet normal 0.380229 -0.502075 0.776754
    outer loop
      vertex 50 18.5601 33.8254
      vertex 40.4629 17.6306 37.8931
      vertex 44.1668 15.4922 34.6978
    endloop
  endfacet
  facet normal 0.448861 -0.472857 0.758242
    outer loop
      vertex -9.304 -35.643 32.0107
      vertex 24.452 -3.6 32.0107
      vertex -11.4 -28.2 37.8931
    endloop
  endfacet
  facet normal 0.449045 -0.473202 0.757917
    outer loop
      vertex 24.452 -3.6 32.0107
      vertex 22.801 4.255 37.8931
      vertex -11.4 -28.2 37.8931
    endloop
  endfacet
  facet normal 0.514389 -0.437211 0.737733
    outer loop
      vertex -21.5069 -50 32.0107
      vertex -9.304 -35.643 32.0107
      vertex -25.7844 -50 34.9932
    endloop
  endfacet
  facet normal 0.514717 -0.437695 0.737217
    outer loop
      vertex -11.4 -28.2 37.8931
      vertex -25.7844 -50 34.9932
      vertex -9.304 -35.643 32.0107
    endloop
  endfacet
  facet normal 0.514717 -0.437695 0.737217
    outer loop
      vertex -25.7844 -50 34.9932
      vertex -11.4 -28.2 37.8931
      vertex -29.9378 -50 37.8931
    endloop
  endfacet
  facet normal 0.363301 -0.479546 0.798779
    outer loop
      vertex 24.452 -3.6 32.0107
      vertex 39.5 -1.30629 26.5436
      vertex 39.5 4.27189 29.8925
    endloop
  endfacet
  facet normal 0.363301 -0.479546 0.798779
    outer loop
      vertex 39.5 -1.30629 26.5436
      vertex 24.452 -3.6 32.0107
      vertex 26.104 -11.455 26.5436
    endloop
  endfacet
  facet normal 0.363387 -0.479756 0.798614
    outer loop
      vertex 39.5 4.27189 29.8925
      vertex 39.5 7.79799 32.0107
      vertex 24.452 -3.6 32.0107
    endloop
  endfacet
  facet normal 0.363387 -0.479756 0.798614
    outer loop
      vertex 50 12.1244 29.832
      vertex 50 15.7511 32.0107
      vertex 47.2829 13.6931 32.0107
    endloop
  endfacet
  facet normal 0.429869 -0.4527 0.781201
    outer loop
      vertex -7.208 -43.087 26.5436
      vertex 26.104 -11.455 26.5436
      vertex -9.304 -35.643 32.0107
    endloop
  endfacet
  facet normal 0.430063 -0.453054 0.780889
    outer loop
      vertex 26.104 -11.455 26.5436
      vertex 24.452 -3.6 32.0107
      vertex -9.304 -35.643 32.0107
    endloop
  endfacet
  facet normal 0.493752 -0.419469 0.761745
    outer loop
      vertex -13.081 -50 26.5436
      vertex -7.208 -43.087 26.5436
      vertex -15.1733 -50 27.8998
    endloop
  endfacet
  facet normal 0.494096 -0.419963 0.761249
    outer loop
      vertex -9.304 -35.643 32.0107
      vertex -15.1733 -50 27.8998
      vertex -7.208 -43.087 26.5436
    endloop
  endfacet
  facet normal 0.494096 -0.419963 0.761249
    outer loop
      vertex -15.1733 -50 27.8998
      vertex -9.304 -35.643 32.0107
      vertex -21.5069 -50 32.0107
    endloop
  endfacet
  facet normal 0.345027 -0.455349 0.82074
    outer loop
      vertex 26.104 -11.455 26.5436
      vertex 39.5 -10.4103 21.4917
      vertex 39.5 -4.48593 24.7786
    endloop
  endfacet
  facet normal 0.345027 -0.455349 0.82074
    outer loop
      vertex 39.5 -10.4103 21.4917
      vertex 26.104 -11.455 26.5436
      vertex 27.756 -19.309 21.4917
    endloop
  endfacet
  facet normal 0.345101 -0.455523 0.820612
    outer loop
      vertex 39.5 -4.48593 24.7786
      vertex 39.5 -1.30629 26.5436
      vertex 26.104 -11.455 26.5436
    endloop
  endfacet
  facet normal 0.409165 -0.43075 0.804387
    outer loop
      vertex -5.112 -50.53 21.4917
      vertex 27.756 -19.309 21.4917
      vertex -7.208 -43.087 26.5436
    endloop
  endfacet
  facet normal 0.409366 -0.431108 0.804093
    outer loop
      vertex 27.756 -19.309 21.4917
      vertex 26.104 -11.455 26.5436
      vertex -7.208 -43.087 26.5436
    endloop
  endfacet
  facet normal 0.471091 -0.40002 0.786166
    outer loop
      vertex -13.1533 -60 21.4917
      vertex -5.112 -50.53 21.4917
      vertex -16.065 -60 23.2365
    endloop
  endfacet
  facet normal 0.47145 -0.400522 0.785695
    outer loop
      vertex -7.208 -43.087 26.5436
      vertex -13.081 -50 26.5436
      vertex -11.547 -50 25.6232
    endloop
  endfacet
  facet normal 0.471451 -0.400522 0.785695
    outer loop
      vertex -11.547 -50 25.6232
      vertex -5.112 -50.53 21.4917
      vertex -7.208 -43.087 26.5436
    endloop
  endfacet
  facet normal 0.471451 -0.400523 0.785695
    outer loop
      vertex -11.547 -50 25.6232
      vertex -16.065 -60 23.2365
      vertex -5.112 -50.53 21.4917
    endloop
  endfacet
  facet normal 0.471451 -0.400523 0.785694
    outer loop
      vertex -16.065 -60 23.2365
      vertex -11.547 -50 25.6232
      vertex -17.3205 -60 23.9898
    endloop
  endfacet
  facet normal 0.325173 -0.429057 0.842718
    outer loop
      vertex 27.756 -19.309 21.4917
      vertex 39.5 -18.1865 17.5316
      vertex 39.5 -13.2344 20.0529
    endloop
  endfacet
  facet normal 0.325173 -0.429057 0.842718
    outer loop
      vertex 39.5 -18.1865 17.5316
      vertex 27.756 -19.309 21.4917
      vertex 29.408 -27.164 16.855
    endloop
  endfacet
  facet normal 0.325173 -0.429057 0.842717
    outer loop
      vertex 46.8616 -13.9363 16.855
      vertex 39.5 -18.1865 17.5316
      vertex 29.408 -27.164 16.855
    endloop
  endfacet
  facet normal 0.325263 -0.429265 0.842577
    outer loop
      vertex 39.5 -13.2344 20.0529
      vertex 39.5 -10.4103 21.4917
      vertex 27.756 -19.309 21.4917
    endloop
  endfacet
  facet normal 0.386527 -0.406789 0.82772
    outer loop
      vertex -3.016 -57.973 16.855
      vertex 29.408 -27.164 16.855
      vertex -5.112 -50.53 21.4917
    endloop
  endfacet
  facet normal 0.386714 -0.407115 0.827472
    outer loop
      vertex 29.408 -27.164 16.855
      vertex 27.756 -19.309 21.4917
      vertex -5.112 -50.53 21.4917
    endloop
  endfacet
  facet normal 0.446166 -0.378675 0.810889
    outer loop
      vertex -4.73638 -60 16.855
      vertex -3.016 -57.973 16.855
      vertex -5.36969 -60 17.2035
    endloop
  endfacet
  facet normal 0.446515 -0.379152 0.810474
    outer loop
      vertex -5.112 -50.53 21.4917
      vertex -5.36969 -60 17.2035
      vertex -3.016 -57.973 16.855
    endloop
  endfacet
  facet normal 0.446515 -0.379152 0.810474
    outer loop
      vertex -5.36969 -60 17.2035
      vertex -5.112 -50.53 21.4917
      vertex -13.1533 -60 21.4917
    endloop
  endfacet
  facet normal 0.303726 -0.400672 0.864414
    outer loop
      vertex 29.408 -27.164 16.855
      vertex 50 -20.6617 12.6336
      vertex 50 -16.5754 14.5277
    endloop
  endfacet
  facet normal 0.303726 -0.400673 0.864414
    outer loop
      vertex 50 -20.6617 12.6336
      vertex 29.408 -27.164 16.855
      vertex 31.06 -35.019 12.6336
    endloop
  endfacet
  facet normal 0.303819 -0.400881 0.864285
    outer loop
      vertex 46.8616 -13.9363 16.855
      vertex 50 -16.5754 14.5277
      vertex 50 -12.1244 16.5922
    endloop
  endfacet
  facet normal 0.303819 -0.400881 0.864285
    outer loop
      vertex 50 -16.5754 14.5277
      vertex 46.8616 -13.9363 16.855
      vertex 29.408 -27.164 16.855
    endloop
  endfacet
  facet normal 0.361872 -0.380718 0.850942
    outer loop
      vertex 31.06 -35.019 12.6336
      vertex 11.547 -50 14.2291
      vertex 15.2988 -50 12.6336
    endloop
  endfacet
  facet normal 0.361872 -0.380718 0.850942
    outer loop
      vertex -3.016 -57.973 16.855
      vertex 4.77805 -60 12.6336
      vertex 11.547 -50 14.2291
    endloop
  endfacet
  facet normal 0.361872 -0.380718 0.850942
    outer loop
      vertex -3.016 -57.973 16.855
      vertex 11.547 -50 14.2291
      vertex 31.06 -35.019 12.6336
    endloop
  endfacet
  facet normal 0.361872 -0.380718 0.850942
    outer loop
      vertex 4.77805 -60 12.6336
      vertex -3.016 -57.973 16.855
      vertex -2.44518 -60 15.7054
    endloop
  endfacet
  facet normal 0.361872 -0.380718 0.850942
    outer loop
      vertex 12.8764 -52.3025 12.6336
      vertex 11.547 -50 14.2291
      vertex 4.77805 -60 12.6336
    endloop
  endfacet
  facet normal 0.362063 -0.381042 0.850716
    outer loop
      vertex 31.06 -35.019 12.6336
      vertex 29.408 -27.164 16.855
      vertex -3.016 -57.973 16.855
    endloop
  endfacet
  facet normal 0.419139 -0.355736 0.835329
    outer loop
      vertex -2.44518 -60 15.7054
      vertex -3.016 -57.973 16.855
      vertex -4.73638 -60 16.855
    endloop
  endfacet
  facet normal 0.280635 -0.370143 0.885572
    outer loop
      vertex 31.06 -35.019 12.6336
      vertex 50 -29.7656 8.82734
      vertex 50 -25.339 10.6775
    endloop
  endfacet
  facet normal 0.280635 -0.370143 0.885572
    outer loop
      vertex 50 -29.7656 8.82734
      vertex 31.06 -35.019 12.6336
      vertex 32.712 -42.873 8.82734
    endloop
  endfacet
  facet normal 0.280712 -0.370313 0.885477
    outer loop
      vertex 50 -25.339 10.6775
      vertex 50 -20.6617 12.6336
      vertex 31.06 -35.019 12.6336
    endloop
  endfacet
  facet normal 0.335134 -0.352458 0.873761
    outer loop
      vertex 25.2166 -50 8.82734
      vertex 32.712 -42.873 8.82734
      vertex 22.0792 -50 10.0307
    endloop
  endfacet
  facet normal 0.335134 -0.352457 0.873762
    outer loop
      vertex 14.4856 -55.0898 10.8901
      vertex 14.6997 -60 8.82734
      vertex 16.3917 -58.3912 8.82734
    endloop
  endfacet
  facet normal 0.335134 -0.352457 0.873762
    outer loop
      vertex 14.6997 -60 8.82734
      vertex 14.4856 -55.0898 10.8901
      vertex 7.16015 -60 11.7191
    endloop
  endfacet
  facet normal 0.335342 -0.352806 0.873541
    outer loop
      vertex 31.06 -35.019 12.6336
      vertex 22.0792 -50 10.0307
      vertex 32.712 -42.873 8.82734
    endloop
  endfacet
  facet normal 0.335342 -0.352806 0.873541
    outer loop
      vertex 22.0792 -50 10.0307
      vertex 31.06 -35.019 12.6336
      vertex 15.2988 -50 12.6336
    endloop
  endfacet
  facet normal 0.335342 -0.352806 0.873541
    outer loop
      vertex 12.8764 -52.3025 12.6336
      vertex 7.16015 -60 11.7191
      vertex 14.4856 -55.0898 10.8901
    endloop
  endfacet
  facet normal 0.335342 -0.352806 0.873541
    outer loop
      vertex 7.16015 -60 11.7191
      vertex 12.8764 -52.3025 12.6336
      vertex 4.77805 -60 12.6336
    endloop
  endfacet
  facet normal 0.255801 -0.337311 0.905973
    outer loop
      vertex 32.712 -42.873 8.82734
      vertex 50 -38.8704 5.43633
      vertex 50 -34.0932 7.21497
    endloop
  endfacet
  facet normal 0.255801 -0.337311 0.905973
    outer loop
      vertex 50 -38.8704 5.43633
      vertex 32.712 -42.873 8.82734
      vertex 35.324 -50 5.43633
    endloop
  endfacet
  facet normal 0.255801 -0.337311 0.905973
    outer loop
      vertex 35.324 -50 5.43633
      vertex 32.712 -42.873 8.82734
      vertex 34.2109 -50 5.75061
    endloop
  endfacet
  facet normal 0.255891 -0.337507 0.905875
    outer loop
      vertex 50 -34.0932 7.21497
      vertex 50 -29.7656 8.82734
      vertex 32.712 -42.873 8.82734
    endloop
  endfacet
  facet normal 0.306398 -0.322237 0.895703
    outer loop
      vertex 34.2109 -50 5.75061
      vertex 32.712 -42.873 8.82734
      vertex 25.2166 -50 8.82734
    endloop
  endfacet
  facet normal 0.306398 -0.322237 0.895703
    outer loop
      vertex 17.3205 -60 7.93081
      vertex 16.3917 -58.3912 8.82734
      vertex 14.6997 -60 8.82734
    endloop
  endfacet
  facet normal 0.229309 -0.302319 0.925214
    outer loop
      vertex 50 -42.8387 4.13891
      vertex 47.3305 -50 2.46055
      vertex 50 -47.9752 2.46055
    endloop
  endfacet
  facet normal 0.229309 -0.302319 0.925214
    outer loop
      vertex 47.3305 -50 2.46055
      vertex 50 -42.8387 4.13891
      vertex 35.8068 -50 5.31661
    endloop
  endfacet
  facet normal 0.22938 -0.302471 0.925147
    outer loop
      vertex 50 -38.8704 5.43633
      vertex 35.8068 -50 5.31661
      vertex 50 -42.8387 4.13891
    endloop
  endfacet
  facet normal 0.22938 -0.302471 0.925146
    outer loop
      vertex 35.8068 -50 5.31661
      vertex 50 -38.8704 5.43633
      vertex 35.324 -50 5.43633
    endloop
  endfacet
  facet normal 0.20121 -0.265275 0.942944
    outer loop
      vertex 50 -50 1.89091
      vertex 50 -47.9752 2.46055
      vertex 47.3305 -50 2.46055
    endloop
  endfacet
endsolid OpenSCAD_Model
