solid OpenSCAD_Model
  facet normal -1 0 0
    outer loop
      vertex -50 -50 0
      vertex -50 50 99.8
      vertex -50 50 0
    endloop
  endfacet
  facet normal -1 -0 0
    outer loop
      vertex -50 50 99.8
      vertex -50 -50 0
      vertex -50 -50 99.8
    endloop
  endfacet
  facet normal 1 0 0
    outer loop
      vertex 50 -13.2838 90.6958
      vertex 50 -12.1244 0
      vertex 50 -12.1244 90.3154
    endloop
  endfacet
  facet normal 1 0 0
    outer loop
      vertex 50 -15.9081 91.5804
      vertex 50 -12.1244 0
      vertex 50 -13.2838 90.6958
    endloop
  endfacet
  facet normal 1 0 0
    outer loop
      vertex 50 -50 0
      vertex 50 -15.9081 91.5804
      vertex 50 -20.9801 93.3443
    endloop
  endfacet
  facet normal 1 0 0
    outer loop
      vertex 50 -50 0
      vertex 50 -20.9801 93.3443
      vertex 50 -21.1404 93.3988
    endloop
  endfacet
  facet normal 1 0 0
    outer loop
      vertex 50 -50 0
      vertex 50 -21.1404 93.3988
      vertex 50 -33.4697 97.5874
    endloop
  endfacet
  facet normal 1 -0 0
    outer loop
      vertex 50 -50 99.8
      vertex 50 -33.4697 97.5874
      vertex 50 -39.766 99.8
    endloop
  endfacet
  facet normal 1 0 0
    outer loop
      vertex 50 -33.4697 97.5874
      vertex 50 -50 99.8
      vertex 50 -50 0
    endloop
  endfacet
  facet normal 1 0 0
    outer loop
      vertex 50 -15.9081 91.5804
      vertex 50 -50 0
      vertex 50 -12.1244 0
    endloop
  endfacet
  facet normal 1 0 0
    outer loop
      vertex 50 41.6958 73.5332
      vertex 50 50 0
      vertex 50 50 71.1865
    endloop
  endfacet
  facet normal 1 0 0
    outer loop
      vertex 50 12.1244 0
      vertex 50 41.6958 73.5332
      vertex 50 38.2716 74.534
    endloop
  endfacet
  facet normal 1 0 0
    outer loop
      vertex 50 12.1244 0
      vertex 50 38.2716 74.534
      vertex 50 31.6811 76.5145
    endloop
  endfacet
  facet normal 1 0 0
    outer loop
      vertex 50 12.1244 0
      vertex 50 31.6811 76.5145
      vertex 50 19.9305 80.034
    endloop
  endfacet
  facet normal 1 0 0
    outer loop
      vertex 50 12.1244 0
      vertex 50 19.9305 80.034
      vertex 50 13.8661 81.9069
    endloop
  endfacet
  facet normal 1 0 0
    outer loop
      vertex 50 12.1244 0
      vertex 50 13.8661 81.9069
      vertex 50 12.1244 82.4611
    endloop
  endfacet
  facet normal 1 0 0
    outer loop
      vertex 50 41.6958 73.5332
      vertex 50 12.1244 0
      vertex 50 50 0
    endloop
  endfacet
  facet normal 0 1 -0
    outer loop
      vertex -12.1244 50 0
      vertex -50 50 99.8
      vertex -12.1244 50 99.8
    endloop
  endfacet
  facet normal 0 1 0
    outer loop
      vertex -50 50 99.8
      vertex -12.1244 50 0
      vertex -50 50 0
    endloop
  endfacet
  facet normal 0 1 0
    outer loop
      vertex 39.038 50 94.8481
      vertex 12.1244 50 99.8
      vertex 36.9078 50 99.8
    endloop
  endfacet
  facet normal 0 1 0
    outer loop
      vertex 40.8557 50 90.6958
      vertex 12.1244 50 99.8
      vertex 39.038 50 94.8481
    endloop
  endfacet
  facet normal 0 1 0
    outer loop
      vertex 43.2046 50 85.4821
      vertex 12.1244 50 99.8
      vertex 40.8557 50 90.6958
    endloop
  endfacet
  facet normal 0 1 0
    outer loop
      vertex 44.8439 50 81.9069
      vertex 12.1244 50 99.8
      vertex 43.2046 50 85.4821
    endloop
  endfacet
  facet normal 0 1 0
    outer loop
      vertex 47.3735 50 76.5607
      vertex 12.1244 50 99.8
      vertex 44.8439 50 81.9069
    endloop
  endfacet
  facet normal 0 1 0
    outer loop
      vertex 48.8313 50 73.5332
      vertex 12.1244 50 99.8
      vertex 47.3735 50 76.5607
    endloop
  endfacet
  facet normal 0 1 0
    outer loop
      vertex 50 50 71.1865
      vertex 12.1244 50 99.8
      vertex 48.8313 50 73.5332
    endloop
  endfacet
  facet normal 0 1 0
    outer loop
      vertex 12.1244 50 0
      vertex 50 50 71.1865
      vertex 50 50 0
    endloop
  endfacet
  facet normal 0 1 0
    outer loop
      vertex 50 50 71.1865
      vertex 12.1244 50 0
      vertex 12.1244 50 99.8
    endloop
  endfacet
  facet normal 0 -1 0
    outer loop
      vertex -50 -50 0
      vertex -11.547 -50 99.8
      vertex -50 -50 99.8
    endloop
  endfacet
  facet normal 0 -1 -0
    outer loop
      vertex -11.547 -50 99.8
      vertex -50 -50 0
      vertex -11.547 -50 0
    endloop
  endfacet
  facet normal 0 -1 0
    outer loop
      vertex 11.547 -50 0
      vertex 50 -50 99.8
      vertex 11.547 -50 99.8
    endloop
  endfacet
  facet normal 0 -1 -0
    outer loop
      vertex 50 -50 99.8
      vertex 11.547 -50 0
      vertex 50 -50 0
    endloop
  endfacet
  facet normal 0 -1 0
    outer loop
      vertex -17.3205 -60 0
      vertex 17.3205 -60 99.8
      vertex -17.3205 -60 99.8
    endloop
  endfacet
  facet normal 0 -1 -0
    outer loop
      vertex 17.3205 -60 99.8
      vertex -17.3205 -60 0
      vertex 17.3205 -60 0
    endloop
  endfacet
  facet normal -0.866025 0.5 0
    outer loop
      vertex -17.3205 -60 0
      vertex -11.547 -50 99.8
      vertex -11.547 -50 0
    endloop
  endfacet
  facet normal -0.866025 0.5 0
    outer loop
      vertex -11.547 -50 99.8
      vertex -17.3205 -60 0
      vertex -17.3205 -60 99.8
    endloop
  endfacet
  facet normal 0.866025 0.5 0
    outer loop
      vertex 17.3205 -60 99.8
      vertex 11.547 -50 0
      vertex 11.547 -50 99.8
    endloop
  endfacet
  facet normal 0.866025 0.5 0
    outer loop
      vertex 11.547 -50 0
      vertex 17.3205 -60 99.8
      vertex 17.3205 -60 0
    endloop
  endfacet
  facet normal 1 -0 0
    outer loop
      vertex 39.5 -18.1865 99.8
      vertex 39.5 18.1865 0
      vertex 39.5 18.1865 99.8
    endloop
  endfacet
  facet normal 1 0 0
    outer loop
      vertex 39.5 18.1865 0
      vertex 39.5 -18.1865 99.8
      vertex 39.5 -18.1865 0
    endloop
  endfacet
  facet normal -0.5 -0.866025 -6.22871e-07
    outer loop
      vertex 39.5 18.1865 99.8
      vertex 42.5415 16.4305 98.0235
      vertex 41.7232 16.903 99.8
    endloop
  endfacet
  facet normal -0.5 -0.866026 4.86612e-08
    outer loop
      vertex 39.5 18.1865 99.8
      vertex 45.9805 14.445 90.6958
      vertex 42.5415 16.4305 98.0235
    endloop
  endfacet
  facet normal -0.499999 -0.866026 4.50022e-07
    outer loop
      vertex 39.5 18.1865 99.8
      vertex 47.2976 13.6846 87.9641
      vertex 45.9805 14.445 90.6958
    endloop
  endfacet
  facet normal -0.499999 -0.866026 6.72674e-07
    outer loop
      vertex 39.5 18.1865 99.8
      vertex 50 12.1244 82.4611
      vertex 47.2976 13.6846 87.9641
    endloop
  endfacet
  facet normal -0.5 -0.866025 0
    outer loop
      vertex 39.5 18.1865 0
      vertex 50 12.1244 82.4611
      vertex 39.5 18.1865 99.8
    endloop
  endfacet
  facet normal -0.5 -0.866025 -0
    outer loop
      vertex 50 12.1244 82.4611
      vertex 39.5 18.1865 0
      vertex 50 12.1244 0
    endloop
  endfacet
  facet normal -0.5 0.866025 -7.97766e-08
    outer loop
      vertex 49.2299 -12.569 92.2457
      vertex 39.5 -18.1865 99.8
      vertex 46.2933 -14.2644 99.8
    endloop
  endfacet
  facet normal -0.5 0.866026 4.629e-07
    outer loop
      vertex 49.8449 -12.2139 90.6958
      vertex 39.5 -18.1865 99.8
      vertex 49.2299 -12.569 92.2457
    endloop
  endfacet
  facet normal -0.500001 0.866025 -1.08925e-06
    outer loop
      vertex 50 -12.1244 90.3154
      vertex 39.5 -18.1865 99.8
      vertex 49.8449 -12.2139 90.6958
    endloop
  endfacet
  facet normal -0.5 0.866025 0
    outer loop
      vertex 39.5 -18.1865 0
      vertex 50 -12.1244 90.3154
      vertex 50 -12.1244 0
    endloop
  endfacet
  facet normal -0.5 0.866025 0
    outer loop
      vertex 50 -12.1244 90.3154
      vertex 39.5 -18.1865 0
      vertex 39.5 -18.1865 99.8
    endloop
  endfacet
  facet normal 0 1 -0
    outer loop
      vertex 18.1865 39.5 0
      vertex -18.1865 39.5 99.8
      vertex 18.1865 39.5 99.8
    endloop
  endfacet
  facet normal 0 1 0
    outer loop
      vertex -18.1865 39.5 99.8
      vertex 18.1865 39.5 0
      vertex -18.1865 39.5 0
    endloop
  endfacet
  facet normal 0.866025 -0.5 0
    outer loop
      vertex -18.1865 39.5 99.8
      vertex -12.1244 50 0
      vertex -12.1244 50 99.8
    endloop
  endfacet
  facet normal 0.866025 -0.5 0
    outer loop
      vertex -12.1244 50 0
      vertex -18.1865 39.5 99.8
      vertex -18.1865 39.5 0
    endloop
  endfacet
  facet normal -0.866025 -0.5 0
    outer loop
      vertex 18.1865 39.5 0
      vertex 12.1244 50 99.8
      vertex 12.1244 50 0
    endloop
  endfacet
  facet normal -0.866025 -0.5 0
    outer loop
      vertex 12.1244 50 99.8
      vertex 18.1865 39.5 0
      vertex 18.1865 39.5 99.8
    endloop
  endfacet
  facet normal 0 0 1
    outer loop
      vertex -12.1244 50 99.8
      vertex -50 50 99.8
      vertex -18.1865 39.5 99.8
    endloop
  endfacet
  facet normal 0 0 1
    outer loop
      vertex 39.5 18.1865 99.8
      vertex 40.485 25.347 99.8
      vertex 40.408 25.872 99.8
    endloop
  endfacet
  facet normal 0 0 1
    outer loop
      vertex 40.485 25.347 99.8
      vertex 39.5 18.1865 99.8
      vertex 41.7232 16.903 99.8
    endloop
  endfacet
  facet normal 0 0 1
    outer loop
      vertex 40.408 25.872 99.8
      vertex 18.1865 39.5 99.8
      vertex 39.5 18.1865 99.8
    endloop
  endfacet
  facet normal -0 0 1
    outer loop
      vertex 18.1865 39.5 99.8
      vertex 40.408 25.872 99.8
      vertex 36.9078 50 99.8
    endloop
  endfacet
  facet normal 0 0 1
    outer loop
      vertex 39.5 -18.1865 99.8
      vertex 50 -39.766 99.8
      vertex 47.575 -23.017 99.8
    endloop
  endfacet
  facet normal 0 0 1
    outer loop
      vertex 39.5 -18.1865 99.8
      vertex 47.575 -23.017 99.8
      vertex 47.504 -22.521 99.8
    endloop
  endfacet
  facet normal -0 0 1
    outer loop
      vertex 39.5 -18.1865 99.8
      vertex 47.504 -22.521 99.8
      vertex 46.2933 -14.2644 99.8
    endloop
  endfacet
  facet normal 0 0 1
    outer loop
      vertex 11.547 -50 99.8
      vertex 50 -39.766 99.8
      vertex 39.5 -18.1865 99.8
    endloop
  endfacet
  facet normal 0 0 1
    outer loop
      vertex 39.5 18.1865 99.8
      vertex 18.1865 39.5 99.8
      vertex 39.5 -18.1865 99.8
    endloop
  endfacet
  facet normal -0 0 1
    outer loop
      vertex -18.1865 39.5 99.8
      vertex 39.5 -18.1865 99.8
      vertex 18.1865 39.5 99.8
    endloop
  endfacet
  facet normal 0 0 1
    outer loop
      vertex 50 -39.766 99.8
      vertex 11.547 -50 99.8
      vertex 50 -50 99.8
    endloop
  endfacet
  facet normal 0 0 1
    outer loop
      vertex 39.5 -18.1865 99.8
      vertex -11.547 -50 99.8
      vertex 11.547 -50 99.8
    endloop
  endfacet
  facet normal 0 0 1
    outer loop
      vertex 39.5 -18.1865 99.8
      vertex -18.1865 39.5 99.8
      vertex -11.547 -50 99.8
    endloop
  endfacet
  facet normal 0 0 1
    outer loop
      vertex -50 -50 99.8
      vertex -18.1865 39.5 99.8
      vertex -50 50 99.8
    endloop
  endfacet
  facet normal 0 0 1
    outer loop
      vertex -18.1865 39.5 99.8
      vertex -50 -50 99.8
      vertex -11.547 -50 99.8
    endloop
  endfacet
  facet normal 0 0 1
    outer loop
      vertex 36.9078 50 99.8
      vertex 12.1244 50 99.8
      vertex 18.1865 39.5 99.8
    endloop
  endfacet
  facet normal -0 0 1
    outer loop
      vertex -11.547 -50 99.8
      vertex 17.3205 -60 99.8
      vertex 11.547 -50 99.8
    endloop
  endfacet
  facet normal 0 0 1
    outer loop
      vertex 17.3205 -60 99.8
      vertex -11.547 -50 99.8
      vertex -17.3205 -60 99.8
    endloop
  endfacet
  facet normal 0 0 -1
    outer loop
      vertex 17.3205 -60 0
      vertex -11.547 -50 0
      vertex 11.547 -50 0
    endloop
  endfacet
  facet normal 0 -0 -1
    outer loop
      vertex -11.547 -50 0
      vertex 17.3205 -60 0
      vertex -17.3205 -60 0
    endloop
  endfacet
  facet normal 0 0 -1
    outer loop
      vertex 50 -50 0
      vertex 39.5 -18.1865 0
      vertex 50 -12.1244 0
    endloop
  endfacet
  facet normal 0 0 -1
    outer loop
      vertex 39.5 -18.1865 0
      vertex 18.1865 39.5 0
      vertex 39.5 18.1865 0
    endloop
  endfacet
  facet normal 0 0 -1
    outer loop
      vertex 11.547 -50 0
      vertex 39.5 -18.1865 0
      vertex 50 -50 0
    endloop
  endfacet
  facet normal 0 0 -1
    outer loop
      vertex -11.547 -50 0
      vertex 39.5 -18.1865 0
      vertex 11.547 -50 0
    endloop
  endfacet
  facet normal 0 0 -1
    outer loop
      vertex -18.1865 39.5 0
      vertex 39.5 -18.1865 0
      vertex -11.547 -50 0
    endloop
  endfacet
  facet normal 0 0 -1
    outer loop
      vertex 39.5 -18.1865 0
      vertex -18.1865 39.5 0
      vertex 18.1865 39.5 0
    endloop
  endfacet
  facet normal 0 -0 -1
    outer loop
      vertex -18.1865 39.5 0
      vertex -11.547 -50 0
      vertex -50 -50 0
    endloop
  endfacet
  facet normal 0 0 -1
    outer loop
      vertex 39.5 18.1865 0
      vertex 50 50 0
      vertex 50 12.1244 0
    endloop
  endfacet
  facet normal 0 0 -1
    outer loop
      vertex 18.1865 39.5 0
      vertex 50 50 0
      vertex 39.5 18.1865 0
    endloop
  endfacet
  facet normal -0 0 -1
    outer loop
      vertex 50 50 0
      vertex 18.1865 39.5 0
      vertex 12.1244 50 0
    endloop
  endfacet
  facet normal 0 0 -1
    outer loop
      vertex -18.1865 39.5 0
      vertex -50 50 0
      vertex -12.1244 50 0
    endloop
  endfacet
  facet normal 0 0 -1
    outer loop
      vertex -50 50 0
      vertex -18.1865 39.5 0
      vertex -50 -50 0
    endloop
  endfacet
  facet normal 0.908237 0.130451 0.397603
    outer loop
      vertex 44.012 28.025 90.6958
      vertex 40.8557 50 90.6958
      vertex 39.038 50 94.8481
    endloop
  endfacet
  facet normal 0.910564 0.132094 0.391695
    outer loop
      vertex 36.9078 50 99.8
      vertex 44.012 28.025 90.6958
      vertex 39.038 50 94.8481
    endloop
  endfacet
  facet normal 0.910564 0.132094 0.391695
    outer loop
      vertex 44.012 28.025 90.6958
      vertex 36.9078 50 99.8
      vertex 40.408 25.872 99.8
    endloop
  endfacet
  facet normal 0.910265 0.133505 0.39191
    outer loop
      vertex 40.485 25.347 99.8
      vertex 44.012 28.025 90.6958
      vertex 40.408 25.872 99.8
    endloop
  endfacet
  facet normal 0.910617 0.132 0.391604
    outer loop
      vertex 42.5415 16.4305 98.0235
      vertex 44.012 28.025 90.6958
      vertex 40.485 25.347 99.8
    endloop
  endfacet
  facet normal 0.910616 0.132 0.391604
    outer loop
      vertex 44.012 28.025 90.6958
      vertex 42.5415 16.4305 98.0235
      vertex 45.9805 14.445 90.6958
    endloop
  endfacet
  facet normal 0.910616 0.132 0.391605
    outer loop
      vertex 49.2299 -12.569 92.2457
      vertex 50 -13.2838 90.6958
      vertex 49.8449 -12.2139 90.6958
    endloop
  endfacet
  facet normal 0.910616 0.132 0.391604
    outer loop
      vertex 50 -13.2838 90.6958
      vertex 49.2299 -12.569 92.2457
      vertex 50 -15.9081 91.5804
    endloop
  endfacet
  facet normal 0.913147 0.133897 0.385013
    outer loop
      vertex 46.2933 -14.2644 99.8
      vertex 50 -15.9081 91.5804
      vertex 49.2299 -12.569 92.2457
    endloop
  endfacet
  facet normal 0.913147 0.133897 0.385013
    outer loop
      vertex 46.2933 -14.2644 99.8
      vertex 50 -20.9801 93.3443
      vertex 50 -15.9081 91.5804
    endloop
  endfacet
  facet normal 0.913147 0.133897 0.385013
    outer loop
      vertex 50 -20.9801 93.3443
      vertex 46.2933 -14.2644 99.8
      vertex 47.504 -22.521 99.8
    endloop
  endfacet
  facet normal 0.913147 0.133897 0.385013
    outer loop
      vertex 41.7232 16.903 99.8
      vertex 42.5415 16.4305 98.0235
      vertex 40.485 25.347 99.8
    endloop
  endfacet
  facet normal 0.9138 0.130802 0.384527
    outer loop
      vertex 47.504 -22.521 99.8
      vertex 50 -21.1404 93.3988
      vertex 50 -20.9801 93.3443
    endloop
  endfacet
  facet normal 0.913798 0.130812 0.384528
    outer loop
      vertex 50 -21.1404 93.3988
      vertex 47.504 -22.521 99.8
      vertex 47.575 -23.017 99.8
    endloop
  endfacet
  facet normal 0.913842 0.13062 0.384489
    outer loop
      vertex 50 -33.4697 97.5874
      vertex 50 -21.1404 93.3988
      vertex 47.575 -23.017 99.8
    endloop
  endfacet
  facet normal 0.916426 0.132685 0.377568
    outer loop
      vertex 50 -39.766 99.8
      vertex 50 -33.4697 97.5874
      vertex 47.575 -23.017 99.8
    endloop
  endfacet
  facet normal 0.901503 0.128179 0.413355
    outer loop
      vertex 47.654 30.236 81.9069
      vertex 44.8439 50 81.9069
      vertex 43.2046 50 85.4821
    endloop
  endfacet
  facet normal 0.904026 0.129846 0.407281
    outer loop
      vertex 40.8557 50 90.6958
      vertex 47.654 30.236 81.9069
      vertex 43.2046 50 85.4821
    endloop
  endfacet
  facet normal 0.904026 0.129846 0.407281
    outer loop
      vertex 47.654 30.236 81.9069
      vertex 40.8557 50 90.6958
      vertex 44.012 28.025 90.6958
    endloop
  endfacet
  facet normal 0.904086 0.129567 0.407235
    outer loop
      vertex 44.012 28.025 90.6958
      vertex 50 13.8661 81.9069
      vertex 47.654 30.236 81.9069
    endloop
  endfacet
  facet normal 0.904086 0.129566 0.407236
    outer loop
      vertex 47.2976 13.6846 87.9641
      vertex 50 13.8661 81.9069
      vertex 44.012 28.025 90.6958
    endloop
  endfacet
  facet normal 0.904086 0.129567 0.407235
    outer loop
      vertex 50 13.8661 81.9069
      vertex 47.2976 13.6846 87.9641
      vertex 50 12.1244 82.4611
    endloop
  endfacet
  facet normal 0.906769 0.131442 0.400615
    outer loop
      vertex 45.9805 14.445 90.6958
      vertex 47.2976 13.6846 87.9641
      vertex 44.012 28.025 90.6958
    endloop
  endfacet
  facet normal 0.906772 0.131442 0.40061
    outer loop
      vertex 50 -13.2838 90.6958
      vertex 50 -12.1244 90.3154
      vertex 49.8449 -12.2139 90.6958
    endloop
  endfacet
  facet normal 0.893828 0.125795 0.430403
    outer loop
      vertex 47.3735 50 76.5607
      vertex 50 41.6958 73.5332
      vertex 48.8313 50 73.5332
    endloop
  endfacet
  facet normal 0.893828 0.125794 0.430404
    outer loop
      vertex 50 41.6958 73.5332
      vertex 47.3735 50 76.5607
      vertex 50 38.2716 74.534
    endloop
  endfacet
  facet normal 0.896548 0.127475 0.424207
    outer loop
      vertex 44.8439 50 81.9069
      vertex 50 38.2716 74.534
      vertex 47.3735 50 76.5607
    endloop
  endfacet
  facet normal 0.896548 0.127475 0.424207
    outer loop
      vertex 47.654 30.236 81.9069
      vertex 50 38.2716 74.534
      vertex 44.8439 50 81.9069
    endloop
  endfacet
  facet normal 0.896548 0.127475 0.424207
    outer loop
      vertex 50 38.2716 74.534
      vertex 47.654 30.236 81.9069
      vertex 50 31.6811 76.5145
    endloop
  endfacet
  facet normal 0.896646 0.127037 0.424132
    outer loop
      vertex 50 19.9305 80.034
      vertex 50 31.6811 76.5145
      vertex 47.654 30.236 81.9069
    endloop
  endfacet
  facet normal 0.899525 0.128913 0.417417
    outer loop
      vertex 50 13.8661 81.9069
      vertex 50 19.9305 80.034
      vertex 47.654 30.236 81.9069
    endloop
  endfacet
  facet normal 0.888111 0.12499 0.442307
    outer loop
      vertex 50 41.6958 73.5332
      vertex 50 50 71.1865
      vertex 48.8313 50 73.5332
    endloop
  endfacet
endsolid OpenSCAD_Model
