solid OpenSCAD_Model
  facet normal -1 0 0
    outer loop
      vertex -50 -50 0
      vertex -50 -11.547 99.8
      vertex -50 -11.547 0
    endloop
  endfacet
  facet normal -1 -0 0
    outer loop
      vertex -50 -11.547 99.8
      vertex -50 -50 0
      vertex -50 -50 99.8
    endloop
  endfacet
  facet normal -1 0 0
    outer loop
      vertex -50 11.547 0
      vertex -50 50 99.8
      vertex -50 50 0
    endloop
  endfacet
  facet normal -1 -0 0
    outer loop
      vertex -50 50 99.8
      vertex -50 11.547 0
      vertex -50 11.547 99.8
    endloop
  endfacet
  facet normal 1 -0 0
    outer loop
      vertex 50 -50 99.8
      vertex 50 50 0
      vertex 50 50 99.8
    endloop
  endfacet
  facet normal 1 0 0
    outer loop
      vertex 50 50 0
      vertex 50 -50 99.8
      vertex 50 -50 0
    endloop
  endfacet
  facet normal 0 1 -0
    outer loop
      vertex 50 50 0
      vertex -50 50 99.8
      vertex 50 50 99.8
    endloop
  endfacet
  facet normal 0 1 0
    outer loop
      vertex -50 50 99.8
      vertex 50 50 0
      vertex -50 50 0
    endloop
  endfacet
  facet normal 0 -1 0
    outer loop
      vertex 11.547 -50 0
      vertex 50 -50 99.8
      vertex 11.547 -50 99.8
    endloop
  endfacet
  facet normal 0 -1 -0
    outer loop
      vertex 50 -50 99.8
      vertex 11.547 -50 0
      vertex 50 -50 0
    endloop
  endfacet
  facet normal 0 -1 0
    outer loop
      vertex -50 -50 0
      vertex -11.547 -50 99.8
      vertex -50 -50 99.8
    endloop
  endfacet
  facet normal 0 -1 -0
    outer loop
      vertex -11.547 -50 99.8
      vertex -50 -50 0
      vertex -11.547 -50 0
    endloop
  endfacet
  facet normal -1 0 0
    outer loop
      vertex -60 -17.3205 0
      vertex -60 17.3205 99.8
      vertex -60 17.3205 0
    endloop
  endfacet
  facet normal -1 -0 0
    outer loop
      vertex -60 17.3205 99.8
      vertex -60 -17.3205 0
      vertex -60 -17.3205 99.8
    endloop
  endfacet
  facet normal 0.5 0.866025 -0
    outer loop
      vertex -50 11.547 0
      vertex -60 17.3205 99.8
      vertex -50 11.547 99.8
    endloop
  endfacet
  facet normal 0.5 0.866025 0
    outer loop
      vertex -60 17.3205 99.8
      vertex -50 11.547 0
      vertex -60 17.3205 0
    endloop
  endfacet
  facet normal 0.5 -0.866025 0
    outer loop
      vertex -60 -17.3205 0
      vertex -50 -11.547 99.8
      vertex -60 -17.3205 99.8
    endloop
  endfacet
  facet normal 0.5 -0.866025 0
    outer loop
      vertex -50 -11.547 99.8
      vertex -60 -17.3205 0
      vertex -50 -11.547 0
    endloop
  endfacet
  facet normal 0 -1 0
    outer loop
      vertex -17.3205 -60 0
      vertex 17.3205 -60 99.8
      vertex -17.3205 -60 99.8
    endloop
  endfacet
  facet normal 0 -1 -0
    outer loop
      vertex 17.3205 -60 99.8
      vertex -17.3205 -60 0
      vertex 17.3205 -60 0
    endloop
  endfacet
  facet normal -0.866025 0.5 0
    outer loop
      vertex -17.3205 -60 0
      vertex -11.547 -50 99.8
      vertex -11.547 -50 0
    endloop
  endfacet
  facet normal -0.866025 0.5 0
    outer loop
      vertex -11.547 -50 99.8
      vertex -17.3205 -60 0
      vertex -17.3205 -60 99.8
    endloop
  endfacet
  facet normal 0.866025 0.5 0
    outer loop
      vertex 17.3205 -60 99.8
      vertex 11.547 -50 0
      vertex 11.547 -50 99.8
    endloop
  endfacet
  facet normal 0.866025 0.5 0
    outer loop
      vertex 11.547 -50 0
      vertex 17.3205 -60 99.8
      vertex 17.3205 -60 0
    endloop
  endfacet
  facet normal 0 0 1
    outer loop
      vertex -60 17.3205 99.8
      vertex -50 -11.547 99.8
      vertex -50 11.547 99.8
    endloop
  endfacet
  facet normal 0 0 1
    outer loop
      vertex -50 -11.547 99.8
      vertex -60 17.3205 99.8
      vertex -60 -17.3205 99.8
    endloop
  endfacet
  facet normal 0 0 1
    outer loop
      vertex 50 50 99.8
      vertex 11.547 -50 99.8
      vertex 50 -50 99.8
    endloop
  endfacet
  facet normal -0 0 1
    outer loop
      vertex -50 11.547 99.8
      vertex 11.547 -50 99.8
      vertex 50 50 99.8
    endloop
  endfacet
  facet normal 0 0 1
    outer loop
      vertex -50 11.547 99.8
      vertex 50 50 99.8
      vertex -50 50 99.8
    endloop
  endfacet
  facet normal 0 0 1
    outer loop
      vertex 11.547 -50 99.8
      vertex -50 11.547 99.8
      vertex -11.547 -50 99.8
    endloop
  endfacet
  facet normal -0 0 1
    outer loop
      vertex -50 -11.547 99.8
      vertex -11.547 -50 99.8
      vertex -50 11.547 99.8
    endloop
  endfacet
  facet normal 0 0 1
    outer loop
      vertex -11.547 -50 99.8
      vertex -50 -11.547 99.8
      vertex -50 -50 99.8
    endloop
  endfacet
  facet normal -0 0 1
    outer loop
      vertex -11.547 -50 99.8
      vertex 17.3205 -60 99.8
      vertex 11.547 -50 99.8
    endloop
  endfacet
  facet normal 0 0 1
    outer loop
      vertex 17.3205 -60 99.8
      vertex -11.547 -50 99.8
      vertex -17.3205 -60 99.8
    endloop
  endfacet
  facet normal 0 0 -1
    outer loop
      vertex -60 -17.3205 0
      vertex -50 11.547 0
      vertex -50 -11.547 0
    endloop
  endfacet
  facet normal -0 0 -1
    outer loop
      vertex -50 11.547 0
      vertex -60 -17.3205 0
      vertex -60 17.3205 0
    endloop
  endfacet
  facet normal 0 0 -1
    outer loop
      vertex 17.3205 -60 0
      vertex -11.547 -50 0
      vertex 11.547 -50 0
    endloop
  endfacet
  facet normal 0 -0 -1
    outer loop
      vertex -11.547 -50 0
      vertex 17.3205 -60 0
      vertex -17.3205 -60 0
    endloop
  endfacet
  facet normal 0 0 -1
    outer loop
      vertex 11.547 -50 0
      vertex 50 50 0
      vertex 50 -50 0
    endloop
  endfacet
  facet normal 0 0 -1
    outer loop
      vertex -50 11.547 0
      vertex 11.547 -50 0
      vertex -11.547 -50 0
    endloop
  endfacet
  facet normal 0 0 -1
    outer loop
      vertex -50 -11.547 0
      vertex -11.547 -50 0
      vertex -50 -50 0
    endloop
  endfacet
  facet normal 0 0 -1
    outer loop
      vertex -50 11.547 0
      vertex -11.547 -50 0
      vertex -50 -11.547 0
    endloop
  endfacet
  facet normal 0 0 -1
    outer loop
      vertex 11.547 -50 0
      vertex -50 11.547 0
      vertex 50 50 0
    endloop
  endfacet
  facet normal -0 0 -1
    outer loop
      vertex 50 50 0
      vertex -50 11.547 0
      vertex -50 50 0
    endloop
  endfacet
endsolid OpenSCAD_Model
