solid OpenSCAD_Model
  facet normal 1 -0 0
    outer loop
      vertex 50 -18.8062 16.855
      vertex 50 -12.1244 0
      vertex 50 -12.1244 17.7082
    endloop
  endfacet
  facet normal 1 -0 0
    outer loop
      vertex 50 -32.6291 15.2421
      vertex 50 -12.1244 0
      vertex 50 -18.8062 16.855
    endloop
  endfacet
  facet normal 1 0 0
    outer loop
      vertex 50 -50 0
      vertex 50 -32.6291 15.2421
      vertex 50 -50 13.2273
    endloop
  endfacet
  facet normal 1 0 0
    outer loop
      vertex 50 -32.6291 15.2421
      vertex 50 -50 0
      vertex 50 -12.1244 0
    endloop
  endfacet
  facet normal 1 -0 0
    outer loop
      vertex 50 46.706 27.8168
      vertex 50 50 0
      vertex 50 50 28.4892
    endloop
  endfacet
  facet normal 1 -0 0
    outer loop
      vertex 50 40.4318 26.5436
      vertex 50 50 0
      vertex 50 46.706 27.8168
    endloop
  endfacet
  facet normal 1 -0 0
    outer loop
      vertex 50 28.2458 24.249
      vertex 50 50 0
      vertex 50 40.4318 26.5436
    endloop
  endfacet
  facet normal 1 0 0
    outer loop
      vertex 50 12.1244 0
      vertex 50 28.2458 24.249
      vertex 50 13.5158 21.4917
    endloop
  endfacet
  facet normal 1 0 0
    outer loop
      vertex 50 12.1244 0
      vertex 50 13.5158 21.4917
      vertex 50 12.1244 21.2516
    endloop
  endfacet
  facet normal 1 0 0
    outer loop
      vertex 50 28.2458 24.249
      vertex 50 12.1244 0
      vertex 50 50 0
    endloop
  endfacet
  facet normal 0 1 -0
    outer loop
      vertex 50 50 0
      vertex 49.1144 50 27.4404
      vertex 50 50 28.4892
    endloop
  endfacet
  facet normal 0 1 0
    outer loop
      vertex 50 50 0
      vertex 48.3544 50 26.5436
      vertex 49.1144 50 27.4404
    endloop
  endfacet
  facet normal 0 1 0
    outer loop
      vertex 50 50 0
      vertex 44.1348 50 21.9237
      vertex 48.3544 50 26.5436
    endloop
  endfacet
  facet normal 0 1 0
    outer loop
      vertex 50 50 0
      vertex 43.7387 50 21.4917
      vertex 44.1348 50 21.9237
    endloop
  endfacet
  facet normal 0 1 0
    outer loop
      vertex 50 50 0
      vertex 39.1502 50 16.8789
      vertex 43.7387 50 21.4917
    endloop
  endfacet
  facet normal 0 1 0
    outer loop
      vertex 50 50 0
      vertex 39.1263 50 16.855
      vertex 39.1502 50 16.8789
    endloop
  endfacet
  facet normal 0 1 0
    outer loop
      vertex 50 50 0
      vertex 38.8338 50 16.5872
      vertex 39.1263 50 16.855
    endloop
  endfacet
  facet normal 0 1 0
    outer loop
      vertex 50 50 0
      vertex 34.3221 50 12.6336
      vertex 38.8338 50 16.5872
    endloop
  endfacet
  facet normal 0 1 0
    outer loop
      vertex 50 50 0
      vertex 33.9286 50 12.3213
      vertex 34.3221 50 12.6336
    endloop
  endfacet
  facet normal 0 1 0
    outer loop
      vertex 50 50 0
      vertex 29.5086 50 8.82734
      vertex 33.9286 50 12.3213
    endloop
  endfacet
  facet normal 0 1 0
    outer loop
      vertex 50 50 0
      vertex 28.685 50 8.24467
      vertex 29.5086 50 8.82734
    endloop
  endfacet
  facet normal 0 1 0
    outer loop
      vertex 50 50 0
      vertex 24.6994 50 5.43633
      vertex 28.685 50 8.24467
    endloop
  endfacet
  facet normal 0 1 0
    outer loop
      vertex 50 50 0
      vertex 23.4349 50 4.65085
      vertex 24.6994 50 5.43633
    endloop
  endfacet
  facet normal 0 1 0
    outer loop
      vertex 50 50 0
      vertex 19.8942 50 2.46055
      vertex 23.4349 50 4.65085
    endloop
  endfacet
  facet normal 0 1 0
    outer loop
      vertex 50 50 0
      vertex 18.177 50 1.54241
      vertex 19.8942 50 2.46055
    endloop
  endfacet
  facet normal 0 1 0
    outer loop
      vertex 18.177 50 1.54241
      vertex 50 50 0
      vertex 15.2808 50 0
    endloop
  endfacet
  facet normal 0 -1 0
    outer loop
      vertex 49.3683 -50 12.6336
      vertex 50 -50 0
      vertex 50 -50 13.2273
    endloop
  endfacet
  facet normal 0 -1 0
    outer loop
      vertex 49.0238 -50 12.3405
      vertex 50 -50 0
      vertex 49.3683 -50 12.6336
    endloop
  endfacet
  facet normal 0 -1 0
    outer loop
      vertex 44.8795 -50 8.82734
      vertex 50 -50 0
      vertex 49.0238 -50 12.3405
    endloop
  endfacet
  facet normal 0 -1 0
    outer loop
      vertex 44.2784 -50 8.37176
      vertex 50 -50 0
      vertex 44.8795 -50 8.82734
    endloop
  endfacet
  facet normal 0 -1 0
    outer loop
      vertex 40.392 -50 5.43633
      vertex 50 -50 0
      vertex 44.2784 -50 8.37176
    endloop
  endfacet
  facet normal 0 -1 0
    outer loop
      vertex 39.529 -50 4.86201
      vertex 50 -50 0
      vertex 40.392 -50 5.43633
    endloop
  endfacet
  facet normal 0 -1 0
    outer loop
      vertex 35.9078 -50 2.46055
      vertex 50 -50 0
      vertex 39.529 -50 4.86201
    endloop
  endfacet
  facet normal 0 -1 0
    outer loop
      vertex 34.7768 -50 1.81266
      vertex 50 -50 0
      vertex 35.9078 -50 2.46055
    endloop
  endfacet
  facet normal 0 -1 0
    outer loop
      vertex 50 -50 0
      vertex 34.7768 -50 1.81266
      vertex 31.6015 -50 0
    endloop
  endfacet
  facet normal 1 -0 0
    outer loop
      vertex 39.5 12.0059 11.3875
      vertex 39.5 18.1865 0
      vertex 39.5 18.1865 12.2597
    endloop
  endfacet
  facet normal 1 -0 0
    outer loop
      vertex 39.5 -6.11419 8.84601
      vertex 39.5 18.1865 0
      vertex 39.5 12.0059 11.3875
    endloop
  endfacet
  facet normal 1 0 0
    outer loop
      vertex 39.5 -18.1865 0
      vertex 39.5 -6.11419 8.84601
      vertex 39.5 -6.22193 8.8347
    endloop
  endfacet
  facet normal 1 0 0
    outer loop
      vertex 39.5 -18.1865 0
      vertex 39.5 -6.22193 8.8347
      vertex 39.5 -6.29249 8.82734
    endloop
  endfacet
  facet normal 1 0 0
    outer loop
      vertex 39.5 -18.1865 0
      vertex 39.5 -6.29249 8.82734
      vertex 39.5 -18.1865 7.71783
    endloop
  endfacet
  facet normal 1 0 0
    outer loop
      vertex 39.5 -6.11419 8.84601
      vertex 39.5 -18.1865 0
      vertex 39.5 18.1865 0
    endloop
  endfacet
  facet normal -0.499998 -0.866027 0
    outer loop
      vertex 39.5 18.1865 0
      vertex 40.0023 17.8965 12.6336
      vertex 39.5 18.1865 12.2597
    endloop
  endfacet
  facet normal -0.5 -0.866025 1.0564e-07
    outer loop
      vertex 50 12.1244 0
      vertex 40.0023 17.8965 12.6336
      vertex 39.5 18.1865 0
    endloop
  endfacet
  facet normal -0.5 -0.866025 -2.11434e-07
    outer loop
      vertex 40.0023 17.8965 12.6336
      vertex 50 12.1244 0
      vertex 43.3982 15.9359 15.4255
    endloop
  endfacet
  facet normal -0.5 -0.866026 1.73797e-07
    outer loop
      vertex 43.3982 15.9359 15.4255
      vertex 50 12.1244 0
      vertex 45.1307 14.9356 16.855
    endloop
  endfacet
  facet normal -0.5 -0.866025 9.97326e-09
    outer loop
      vertex 45.1307 14.9356 16.855
      vertex 50 12.1244 0
      vertex 49.2789 12.5407 20.5985
    endloop
  endfacet
  facet normal -0.5 -0.866025 0
    outer loop
      vertex 49.2789 12.5407 20.5985
      vertex 50 12.1244 0
      vertex 50 12.1244 21.2516
    endloop
  endfacet
  facet normal -0.5 0.866025 0
    outer loop
      vertex 50 -12.1244 0
      vertex 49.2284 -12.5698 16.855
      vertex 50 -12.1244 17.7082
    endloop
  endfacet
  facet normal -0.5 0.866026 1.97896e-08
    outer loop
      vertex 50 -12.1244 0
      vertex 46.0494 -14.4052 13.6427
      vertex 49.2284 -12.5698 16.855
    endloop
  endfacet
  facet normal -0.5 0.866025 -8.0766e-08
    outer loop
      vertex 50 -12.1244 0
      vertex 45.0472 -14.9839 12.6336
      vertex 46.0494 -14.4052 13.6427
    endloop
  endfacet
  facet normal -0.5 0.866025 -2.17615e-07
    outer loop
      vertex 50 -12.1244 0
      vertex 41.8124 -16.8515 9.68593
      vertex 45.0472 -14.9839 12.6336
    endloop
  endfacet
  facet normal -0.499999 0.866026 8.92409e-07
    outer loop
      vertex 50 -12.1244 0
      vertex 40.8668 -17.3974 8.82734
      vertex 41.8124 -16.8515 9.68593
    endloop
  endfacet
  facet normal -0.5 0.866025 -1.08924e-07
    outer loop
      vertex 39.5 -18.1865 0
      vertex 40.8668 -17.3974 8.82734
      vertex 50 -12.1244 0
    endloop
  endfacet
  facet normal -0.500001 0.866025 0
    outer loop
      vertex 40.8668 -17.3974 8.82734
      vertex 39.5 -18.1865 0
      vertex 39.5 -18.1865 7.71783
    endloop
  endfacet
  facet normal 0 1 0
    outer loop
      vertex 18.1865 39.5 0.295646
      vertex 18.1865 39.5 0
      vertex 17.6314 39.5 0
    endloop
  endfacet
  facet normal -0.866025 -0.5 0
    outer loop
      vertex 18.1865 39.5 0
      vertex 18.1865 39.5 0.295646
      vertex 17.2799 41.0704 0
    endloop
  endfacet
  facet normal 0 0 -1
    outer loop
      vertex 50 -50 0
      vertex 39.5 -18.1865 0
      vertex 50 -12.1244 0
    endloop
  endfacet
  facet normal 0 0 -1
    outer loop
      vertex 27.642 -17.565 0
      vertex 39.5 -18.1865 0
      vertex 31.6015 -50 0
    endloop
  endfacet
  facet normal 0 0 -1
    outer loop
      vertex 31.6015 -50 0
      vertex 39.5 -18.1865 0
      vertex 50 -50 0
    endloop
  endfacet
  facet normal 0 0 -1
    outer loop
      vertex 39.5 18.1865 0
      vertex 50 50 0
      vertex 50 12.1244 0
    endloop
  endfacet
  facet normal 0 0 -1
    outer loop
      vertex 27.407 -15.651 0
      vertex 39.5 -18.1865 0
      vertex 27.642 -17.565 0
    endloop
  endfacet
  facet normal 0 0 -1
    outer loop
      vertex 39.5 -18.1865 0
      vertex 27.407 -15.651 0
      vertex 39.5 18.1865 0
    endloop
  endfacet
  facet normal 0 0 -1
    outer loop
      vertex 19.755 29.561 0
      vertex 39.5 18.1865 0
      vertex 27.407 -15.651 0
    endloop
  endfacet
  facet normal 0 0 -1
    outer loop
      vertex 19.44 31.421 0
      vertex 39.5 18.1865 0
      vertex 19.755 29.561 0
    endloop
  endfacet
  facet normal 0 0 -1
    outer loop
      vertex 39.5 18.1865 0
      vertex 19.44 31.421 0
      vertex 50 50 0
    endloop
  endfacet
  facet normal 0 0 -1
    outer loop
      vertex 18.1865 39.5 0
      vertex 50 50 0
      vertex 19.44 31.421 0
    endloop
  endfacet
  facet normal 0 0 -1
    outer loop
      vertex 17.2799 41.0704 0
      vertex 50 50 0
      vertex 18.1865 39.5 0
    endloop
  endfacet
  facet normal -0 0 -1
    outer loop
      vertex 50 50 0
      vertex 17.2799 41.0704 0
      vertex 15.2808 50 0
    endloop
  endfacet
  facet normal 0 0 -1
    outer loop
      vertex 19.44 31.421 0
      vertex 17.6314 39.5 0
      vertex 18.1865 39.5 0
    endloop
  endfacet
  facet normal -0.757538 -0.130562 0.639601
    outer loop
      vertex 50 46.706 27.8168
      vertex 50 50 28.4892
      vertex 49.1144 50 27.4404
    endloop
  endfacet
  facet normal -0.756396 -0.13009 0.641047
    outer loop
      vertex 48.3544 50 26.5436
      vertex 50 46.706 27.8168
      vertex 49.1144 50 27.4404
    endloop
  endfacet
  facet normal -0.756397 -0.13009 0.641047
    outer loop
      vertex 50 46.706 27.8168
      vertex 48.3544 50 26.5436
      vertex 50 40.4318 26.5436
    endloop
  endfacet
  facet normal -0.732484 -0.125977 0.669027
    outer loop
      vertex 44.1348 50 21.9237
      vertex 50 40.4318 26.5436
      vertex 48.3544 50 26.5436
    endloop
  endfacet
  facet normal -0.732484 -0.125977 0.669027
    outer loop
      vertex 50 40.4318 26.5436
      vertex 44.1348 50 21.9237
      vertex 50 28.2458 24.249
    endloop
  endfacet
  facet normal -0.731271 -0.125499 0.670442
    outer loop
      vertex 43.7387 50 21.4917
      vertex 50 28.2458 24.249
      vertex 44.1348 50 21.9237
    endloop
  endfacet
  facet normal -0.731271 -0.125499 0.670442
    outer loop
      vertex 50 28.2458 24.249
      vertex 43.7387 50 21.4917
      vertex 50 13.5158 21.4917
    endloop
  endfacet
  facet normal -0.71535 -0.0885057 0.693139
    outer loop
      vertex 50 -18.8062 16.855
      vertex 50 -12.1244 17.7082
      vertex 49.2284 -12.5698 16.855
    endloop
  endfacet
  facet normal -0.703778 -0.120781 0.700078
    outer loop
      vertex 39.1502 50 16.8789
      vertex 50 13.5158 21.4917
      vertex 43.7387 50 21.4917
    endloop
  endfacet
  facet normal -0.703778 -0.120781 0.700077
    outer loop
      vertex 49.2789 12.5407 20.5985
      vertex 50 13.5158 21.4917
      vertex 39.1502 50 16.8789
    endloop
  endfacet
  facet normal -0.703778 -0.12078 0.700077
    outer loop
      vertex 50 13.5158 21.4917
      vertex 49.2789 12.5407 20.5985
      vertex 50 12.1244 21.2516
    endloop
  endfacet
  facet normal -0.702503 -0.120297 0.70144
    outer loop
      vertex 45.1307 14.9356 16.855
      vertex 39.1502 50 16.8789
      vertex 39.1263 50 16.855
    endloop
  endfacet
  facet normal -0.702484 -0.120294 0.701459
    outer loop
      vertex 39.1502 50 16.8789
      vertex 45.1307 14.9356 16.855
      vertex 49.2789 12.5407 20.5985
    endloop
  endfacet
  facet normal -0.682432 -0.0842151 0.726081
    outer loop
      vertex 50 -32.6291 15.2421
      vertex 49.3683 -50 12.6336
      vertex 50 -50 13.2273
    endloop
  endfacet
  facet normal -0.682434 -0.0842152 0.72608
    outer loop
      vertex 45.0472 -14.9839 12.6336
      vertex 50 -32.6291 15.2421
      vertex 46.0494 -14.4052 13.6427
    endloop
  endfacet
  facet normal -0.682433 -0.084215 0.72608
    outer loop
      vertex 50 -32.6291 15.2421
      vertex 45.0472 -14.9839 12.6336
      vertex 49.3683 -50 12.6336
    endloop
  endfacet
  facet normal -0.683654 -0.0845841 0.724888
    outer loop
      vertex 46.0494 -14.4052 13.6427
      vertex 50 -18.8062 16.855
      vertex 49.2284 -12.5698 16.855
    endloop
  endfacet
  facet normal -0.683654 -0.0845843 0.724888
    outer loop
      vertex 50 -18.8062 16.855
      vertex 46.0494 -14.4052 13.6427
      vertex 50 -32.6291 15.2421
    endloop
  endfacet
  facet normal -0.669481 -0.114388 0.733969
    outer loop
      vertex 40.0023 17.8965 12.6336
      vertex 43.3982 15.9359 15.4255
      vertex 35.125 46.442 12.6336
    endloop
  endfacet
  facet normal -0.670825 -0.114872 0.732665
    outer loop
      vertex 39.1263 50 16.855
      vertex 43.3982 15.9359 15.4255
      vertex 45.1307 14.9356 16.855
    endloop
  endfacet
  facet normal -0.670828 -0.114869 0.732663
    outer loop
      vertex 35.125 46.442 12.6336
      vertex 39.1263 50 16.855
      vertex 38.8338 50 16.5872
    endloop
  endfacet
  facet normal -0.670826 -0.114872 0.732664
    outer loop
      vertex 39.1263 50 16.855
      vertex 35.125 46.442 12.6336
      vertex 43.3982 15.9359 15.4255
    endloop
  endfacet
  facet normal -0.651887 -0.14711 0.74391
    outer loop
      vertex 35.125 46.442 12.6336
      vertex 38.8338 50 16.5872
      vertex 34.3221 50 12.6336
    endloop
  endfacet
  facet normal -0.644596 -0.079339 0.760396
    outer loop
      vertex 39.5 -6.29249 8.82734
      vertex 39.5 -6.22193 8.8347
      vertex 39.48 -6.13 8.82734
    endloop
  endfacet
  facet normal -0.644596 -0.0793364 0.760396
    outer loop
      vertex 40.8668 -17.3974 8.82734
      vertex 49.0238 -50 12.3405
      vertex 41.8124 -16.8515 9.68593
    endloop
  endfacet
  facet normal -0.644596 -0.0793365 0.760395
    outer loop
      vertex 49.0238 -50 12.3405
      vertex 40.8668 -17.3974 8.82734
      vertex 44.8795 -50 8.82734
    endloop
  endfacet
  facet normal -0.645862 -0.0797037 0.759282
    outer loop
      vertex 39.5 -6.22193 8.8347
      vertex 39.5 -6.11419 8.84601
      vertex 39.48 -6.13 8.82734
    endloop
  endfacet
  facet normal -0.645868 -0.0797027 0.759277
    outer loop
      vertex 41.8124 -16.8515 9.68593
      vertex 49.3683 -50 12.6336
      vertex 45.0472 -14.9839 12.6336
    endloop
  endfacet
  facet normal -0.645869 -0.0797028 0.759277
    outer loop
      vertex 49.3683 -50 12.6336
      vertex 41.8124 -16.8515 9.68593
      vertex 49.0238 -50 12.3405
    endloop
  endfacet
  facet normal -0.631649 -0.107681 0.76774
    outer loop
      vertex 39.5 12.0059 11.3875
      vertex 39.48 -6.13 8.82734
      vertex 39.5 -6.11419 8.84601
    endloop
  endfacet
  facet normal -0.631655 -0.10768 0.767735
    outer loop
      vertex 39.48 -6.13 8.82734
      vertex 39.5 12.0059 11.3875
      vertex 31.165 42.646 8.82734
    endloop
  endfacet
  facet normal -0.633061 -0.108166 0.766507
    outer loop
      vertex 35.125 46.442 12.6336
      vertex 39.5 18.1865 12.2597
      vertex 40.0023 17.8965 12.6336
    endloop
  endfacet
  facet normal -0.633062 -0.108166 0.766507
    outer loop
      vertex 31.165 42.646 8.82734
      vertex 39.5 18.1865 12.2597
      vertex 35.125 46.442 12.6336
    endloop
  endfacet
  facet normal -0.633062 -0.108166 0.766507
    outer loop
      vertex 39.5 18.1865 12.2597
      vertex 31.165 42.646 8.82734
      vertex 39.5 12.0059 11.3875
    endloop
  endfacet
  facet normal -0.614177 -0.138337 0.776949
    outer loop
      vertex 29.5086 50 8.82734
      vertex 35.125 46.442 12.6336
      vertex 33.9286 50 12.3213
    endloop
  endfacet
  facet normal -0.614177 -0.138337 0.776949
    outer loop
      vertex 35.125 46.442 12.6336
      vertex 29.5086 50 8.82734
      vertex 31.165 42.646 8.82734
    endloop
  endfacet
  facet normal -0.615585 -0.138918 0.77573
    outer loop
      vertex 35.125 46.442 12.6336
      vertex 34.3221 50 12.6336
      vertex 33.9286 50 12.3213
    endloop
  endfacet
  facet normal -0.601066 -0.0737821 0.795787
    outer loop
      vertex 40.392 -50 5.43633
      vertex 44.2784 -50 8.37176
      vertex 35.402 -9.349 5.43633
    endloop
  endfacet
  facet normal -0.602361 -0.0741406 0.794774
    outer loop
      vertex 35.402 -9.349 5.43633
      vertex 39.5 -6.29249 8.82734
      vertex 39.48 -6.13 8.82734
    endloop
  endfacet
  facet normal -0.602362 -0.0741383 0.794773
    outer loop
      vertex 39.5 -18.1865 7.71783
      vertex 44.8795 -50 8.82734
      vertex 40.8668 -17.3974 8.82734
    endloop
  endfacet
  facet normal -0.602364 -0.0741387 0.794771
    outer loop
      vertex 44.8795 -50 8.82734
      vertex 39.5 -18.1865 7.71783
      vertex 44.2784 -50 8.37176
    endloop
  endfacet
  facet normal -0.602362 -0.0741383 0.794773
    outer loop
      vertex 39.5 -18.1865 7.71783
      vertex 35.402 -9.349 5.43633
      vertex 44.2784 -50 8.37176
    endloop
  endfacet
  facet normal -0.602362 -0.0741383 0.794773
    outer loop
      vertex 39.5 -6.29249 8.82734
      vertex 35.402 -9.349 5.43633
      vertex 39.5 -18.1865 7.71783
    endloop
  endfacet
  facet normal -0.588289 -0.100042 0.802439
    outer loop
      vertex 35.402 -9.349 5.43633
      vertex 39.48 -6.13 8.82734
      vertex 27.205 38.853 5.43633
    endloop
  endfacet
  facet normal -0.589817 -0.100548 0.801253
    outer loop
      vertex 39.48 -6.13 8.82734
      vertex 31.165 42.646 8.82734
      vertex 27.205 38.853 5.43633
    endloop
  endfacet
  facet normal -0.571222 -0.1284 0.81069
    outer loop
      vertex 24.6994 50 5.43633
      vertex 31.165 42.646 8.82734
      vertex 28.685 50 8.24467
    endloop
  endfacet
  facet normal -0.571222 -0.1284 0.810691
    outer loop
      vertex 31.165 42.646 8.82734
      vertex 24.6994 50 5.43633
      vertex 27.205 38.853 5.43633
    endloop
  endfacet
  facet normal -0.572738 -0.129004 0.809524
    outer loop
      vertex 31.165 42.646 8.82734
      vertex 29.5086 50 8.82734
      vertex 28.685 50 8.24467
    endloop
  endfacet
  facet normal -0.551422 -0.0675036 0.831491
    outer loop
      vertex 35.9078 -50 2.46055
      vertex 39.529 -50 4.86201
      vertex 31.325 -12.564 2.46055
    endloop
  endfacet
  facet normal -0.552738 -0.0678498 0.830588
    outer loop
      vertex 31.325 -12.564 2.46055
      vertex 40.392 -50 5.43633
      vertex 35.402 -9.349 5.43633
    endloop
  endfacet
  facet normal -0.552739 -0.0678501 0.830588
    outer loop
      vertex 40.392 -50 5.43633
      vertex 31.325 -12.564 2.46055
      vertex 39.529 -50 4.86201
    endloop
  endfacet
  facet normal -0.539031 -0.0914495 0.837307
    outer loop
      vertex 31.325 -12.564 2.46055
      vertex 35.402 -9.349 5.43633
      vertex 23.245 35.062 2.46055
    endloop
  endfacet
  facet normal -0.540476 -0.0919107 0.836324
    outer loop
      vertex 35.402 -9.349 5.43633
      vertex 27.205 38.853 5.43633
      vertex 23.245 35.062 2.46055
    endloop
  endfacet
  facet normal -0.522466 -0.117195 0.844568
    outer loop
      vertex 19.8942 50 2.46055
      vertex 27.205 38.853 5.43633
      vertex 23.4349 50 4.65085
    endloop
  endfacet
  facet normal -0.522466 -0.117195 0.844568
    outer loop
      vertex 27.205 38.853 5.43633
      vertex 19.8942 50 2.46055
      vertex 23.245 35.062 2.46055
    endloop
  endfacet
  facet normal -0.523993 -0.117784 0.843539
    outer loop
      vertex 27.205 38.853 5.43633
      vertex 24.6994 50 5.43633
      vertex 23.4349 50 4.65085
    endloop
  endfacet
  facet normal -0.494864 -0.0604112 0.866868
    outer loop
      vertex 31.6015 -50 0
      vertex 34.7768 -50 1.81266
      vertex 27.642 -17.565 0
    endloop
  endfacet
  facet normal -0.496156 -0.0607381 0.866106
    outer loop
      vertex 27.642 -17.565 0
      vertex 35.9078 -50 2.46055
      vertex 31.325 -12.564 2.46055
    endloop
  endfacet
  facet normal -0.496157 -0.0607382 0.866106
    outer loop
      vertex 35.9078 -50 2.46055
      vertex 27.642 -17.565 0
      vertex 34.7768 -50 1.81266
    endloop
  endfacet
  facet normal -0.495994 -0.0608976 0.866188
    outer loop
      vertex 27.642 -17.565 0
      vertex 31.325 -12.564 2.46055
      vertex 27.407 -15.651 0
    endloop
  endfacet
  facet normal -0.48306 -0.0817565 0.871762
    outer loop
      vertex 27.407 -15.651 0
      vertex 31.325 -12.564 2.46055
      vertex 19.755 29.561 0
    endloop
  endfacet
  facet normal -0.484477 -0.0821941 0.870934
    outer loop
      vertex 31.325 -12.564 2.46055
      vertex 23.245 35.062 2.46055
      vertex 19.755 29.561 0
    endloop
  endfacet
  facet normal -0.48462 -0.082073 0.870866
    outer loop
      vertex 19.755 29.561 0
      vertex 23.245 35.062 2.46055
      vertex 19.44 31.421 0
    endloop
  endfacet
  facet normal -0.467487 -0.104653 0.877783
    outer loop
      vertex 23.245 35.062 2.46055
      vertex 18.1865 39.5 0.295646
      vertex 19.44 31.421 0
    endloop
  endfacet
  facet normal -0.467487 -0.104653 0.877783
    outer loop
      vertex 18.177 50 1.54241
      vertex 18.1865 39.5 0.295646
      vertex 23.245 35.062 2.46055
    endloop
  endfacet
  facet normal -0.467487 -0.104653 0.877783
    outer loop
      vertex 18.177 50 1.54241
      vertex 17.2799 41.0704 0
      vertex 18.1865 39.5 0.295646
    endloop
  endfacet
  facet normal -0.467487 -0.104653 0.877783
    outer loop
      vertex 17.2799 41.0704 0
      vertex 18.177 50 1.54241
      vertex 15.2808 50 0
    endloop
  endfacet
  facet normal -0.467487 -0.104653 0.877784
    outer loop
      vertex 19.44 31.421 0
      vertex 18.1865 39.5 0.295646
      vertex 17.6314 39.5 0
    endloop
  endfacet
  facet normal -0.468877 -0.105174 0.876979
    outer loop
      vertex 23.245 35.062 2.46055
      vertex 19.8942 50 2.46055
      vertex 18.177 50 1.54241
    endloop
  endfacet
endsolid OpenSCAD_Model
