<?xml version="1.0" standalone="no"?>
<!DOCTYPE svg PUBLIC "-//W3C//DTD SVG 1.1//EN" "http://www.w3.org/Graphics/SVG/1.1/DTD/svg11.dtd">
<svg width="116mm" height="116mm" viewBox="0 0 116 116" xmlns="http://www.w3.org/2000/svg" version="1.1">
<title>OpenSCAD Model</title>
<path d="
M 59.0122,115.991 L 60.0242,115.965 L 61.0355,115.921 L 62.0459,115.859 L 63.055,115.779 L 64.0626,115.682
 L 65.0684,115.568 L 66.072,115.436 L 67.0732,115.286 L 68.0716,115.119 L 69.0669,114.934 L 70.0589,114.733
 L 71.0471,114.513 L 72.0315,114.277 L 73.0115,114.024 L 73.987,113.753 L 74.9576,113.466 L 75.923,113.161
 L 76.8829,112.84 L 77.8372,112.502 L 78.7853,112.148 L 79.7272,111.777 L 80.6624,111.389 L 81.5907,110.986
 L 82.5119,110.566 L 83.4255,110.13 L 84.3314,109.678 L 85.2293,109.211 L 86.119,108.728 L 87,108.229
 L 87.8722,107.716 L 88.7353,107.187 L 89.5891,106.643 L 90.4332,106.084 L 91.2674,105.511 L 92.0915,104.923
 L 92.9053,104.321 L 93.7084,103.705 L 94.5006,103.074 L 95.2817,102.431 L 96.0514,101.773 L 96.8096,101.102
 L 97.5559,100.419 L 98.2902,99.7217 L 99.0122,99.0122 L 99.7217,98.2902 L 100.419,97.5559 L 101.102,96.8096
 L 101.773,96.0514 L 102.431,95.2817 L 103.074,94.5006 L 103.705,93.7084 L 104.321,92.9053 L 104.923,92.0915
 L 105.511,91.2674 L 106.084,90.4332 L 106.643,89.5891 L 107.187,88.7353 L 107.716,87.8722 L 108.229,87
 L 108.728,86.119 L 109.211,85.2293 L 109.678,84.3314 L 110.13,83.4255 L 110.566,82.5119 L 110.986,81.5907
 L 111.389,80.6624 L 111.777,79.7272 L 112.148,78.7853 L 112.502,77.8372 L 112.84,76.8829 L 113.161,75.923
 L 113.466,74.9576 L 113.753,73.987 L 114.024,73.0115 L 114.277,72.0315 L 114.513,71.0471 L 114.733,70.0589
 L 114.934,69.0669 L 115.119,68.0716 L 115.131,67.9994 L 101.93,67.9994 L 101.791,67.9945 L 101.651,67.9848
 L 101.513,67.9702 L 101.374,67.9507 L 101.237,67.9265 L 101.1,67.8975 L 100.965,67.8637 L 100.831,67.8252
 L 100.698,67.7821 L 100.567,67.7343 L 100.437,67.682 L 100.31,67.6252 L 100.184,67.564 L 100.061,67.4985
 L 99.9398,67.4287 L 99.8215,67.3547 L 99.7057,67.2766 L 99.5927,67.1945 L 99.4827,67.1086 L 99.3758,67.0188
 L 99.272,66.9254 L 99.1716,66.8284 L 99.0746,66.728 L 98.9812,66.6242 L 98.8914,66.5173 L 98.8055,66.4073
 L 98.7234,66.2943 L 98.6453,66.1785 L 98.5713,66.0602 L 98.5015,65.9392 L 98.436,65.8159 L 98.3748,65.6905
 L 98.318,65.5629 L 98.2657,65.4335 L 98.2179,65.3023 L 98.1748,65.1695 L 98.1363,65.0353 L 98.1025,64.8998
 L 98.0735,64.7632 L 98.0493,64.6257 L 98.0298,64.4875 L 98.0152,64.3486 L 98.0055,64.2093 L 98.0006,64.0698
 L 98.0006,51.9302 L 98.0024,51.8604 L 98.0098,51.721 L 98.0219,51.5819 L 98.0389,51.4433 L 98.0608,51.3054
 L 98.0874,51.1684 L 98.1188,51.0323 L 98.155,50.8975 L 98.1958,50.7639 L 98.2412,50.6319 L 98.2913,50.5016
 L 98.3458,50.3731 L 98.4048,50.2465 L 98.4682,50.1221 L 98.5359,50 L 98.6078,49.8803 L 98.6839,49.7632
 L 98.7639,49.6489 L 98.848,49.5374 L 98.9358,49.4289 L 99.0274,49.3235 L 99.1227,49.2214 L 99.2214,49.1227
 L 99.3235,49.0274 L 99.4289,48.9358 L 99.5374,48.848 L 99.6489,48.7639 L 99.7632,48.6839 L 99.8803,48.6078
 L 100,48.5359 L 100.122,48.4682 L 100.247,48.4048 L 100.373,48.3458 L 100.502,48.2913 L 100.632,48.2412
 L 100.764,48.1958 L 100.897,48.155 L 101.032,48.1188 L 101.168,48.0874 L 101.305,48.0608 L 101.443,48.0389
 L 101.582,48.0219 L 101.721,48.0098 L 101.86,48.0024 L 102,48 L 115.131,48.0002 L 115.119,47.9284
 L 114.934,46.9331 L 114.733,45.9411 L 114.513,44.9529 L 114.277,43.9685 L 114.024,42.9885 L 113.753,42.013
 L 113.466,41.0424 L 113.161,40.077 L 112.84,39.1171 L 112.502,38.1628 L 112.148,37.2147 L 111.777,36.2728
 L 111.389,35.3376 L 110.986,34.4093 L 110.566,33.4881 L 110.13,32.5745 L 109.678,31.6686 L 109.211,30.7707
 L 108.728,29.881 L 108.229,29 L 107.716,28.1278 L 107.187,27.2647 L 106.643,26.4109 L 106.084,25.5668
 L 105.511,24.7326 L 104.923,23.9085 L 104.321,23.0947 L 103.705,22.2916 L 103.074,21.4994 L 102.431,20.7183
 L 101.773,19.9486 L 101.102,19.1904 L 100.419,18.4441 L 99.7217,17.7098 L 99.0122,16.9878 L 98.2902,16.2783
 L 97.5559,15.5815 L 96.8096,14.8976 L 96.0514,14.2269 L 95.2817,13.5694 L 94.5006,12.9255 L 93.7084,12.2954
 L 92.9053,11.6792 L 92.0915,11.077 L 91.2674,10.4892 L 90.4332,9.91583 L 89.5891,9.35712 L 88.7353,8.81322
 L 87.8722,8.2843 L 87,7.77054 L 86.119,7.27206 L 85.2293,6.78905 L 84.3314,6.32162 L 83.4255,5.86995
 L 82.5119,5.43416 L 81.5907,5.01437 L 80.6624,4.61073 L 79.7272,4.22334 L 78.7853,3.85234 L 77.8372,3.49783
 L 76.8829,3.15993 L 75.923,2.83873 L 74.9576,2.53433 L 73.987,2.24683 L 73.0115,1.9763 L 72.0315,1.72285
 L 71.0471,1.48654 L 70.0589,1.26744 L 69.0669,1.06563 L 68.0716,0.881165 L 67.0732,0.714081 L 66.072,0.564453
 L 65.0684,0.432327 L 64.0626,0.317734 L 63.055,0.220718 L 62.0459,0.141296 L 61.0355,0.0794983 L 60.0242,0.0353394
 L 59.0122,0.00883484 L 58,-0 L 56.9878,0.00883484 L 55.9758,0.0353394 L 54.9645,0.0794983 L 53.9541,0.141296
 L 52.945,0.220718 L 51.9374,0.317734 L 50.9316,0.432327 L 49.928,0.564453 L 48.9268,0.714081 L 47.9284,0.881165
 L 46.9331,1.06563 L 45.9411,1.26744 L 44.9529,1.48654 L 43.9685,1.72285 L 42.9885,1.9763 L 42.013,2.24683
 L 41.0424,2.53433 L 40.077,2.83873 L 39.1171,3.15993 L 38.1628,3.49783 L 37.2147,3.85234 L 36.2728,4.22334
 L 35.3376,4.61073 L 34.4093,5.01437 L 33.4881,5.43416 L 32.5745,5.86995 L 31.6686,6.32162 L 30.7707,6.78905
 L 29.881,7.27206 L 29,7.77054 L 28.1278,8.2843 L 27.2647,8.81322 L 26.4109,9.35712 L 25.5668,9.91583
 L 24.7326,10.4892 L 23.9085,11.077 L 23.0947,11.6792 L 22.2916,12.2954 L 21.4994,12.9255 L 20.7183,13.5694
 L 19.9486,14.2269 L 19.1904,14.8976 L 18.4441,15.5815 L 17.7098,16.2783 L 16.9878,16.9878 L 16.2783,17.7098
 L 15.5815,18.4441 L 14.8976,19.1904 L 14.2269,19.9486 L 13.5694,20.7183 L 12.9255,21.4994 L 12.2954,22.2916
 L 11.6792,23.0947 L 11.077,23.9085 L 10.4892,24.7326 L 9.91583,25.5668 L 9.35712,26.4109 L 8.81322,27.2647
 L 8.2843,28.1278 L 7.77054,29 L 7.27206,29.881 L 6.78905,30.7707 L 6.32162,31.6686 L 5.86995,32.5745
 L 5.43416,33.4881 L 5.01437,34.4093 L 4.61073,35.3376 L 4.22334,36.2728 L 3.85234,37.2147 L 3.49783,38.1628
 L 3.15993,39.1171 L 2.83873,40.077 L 2.53433,41.0424 L 2.24683,42.013 L 1.9763,42.9885 L 1.72285,43.9685
 L 1.48654,44.9529 L 1.26744,45.9411 L 1.06563,46.9331 L 0.881165,47.9284 L 0.869156,48.0002 L 14,48
 L 14.1396,48.0024 L 14.279,48.0098 L 14.4181,48.0219 L 14.5567,48.0389 L 14.6946,48.0608 L 14.8316,48.0874
 L 14.9677,48.1188 L 15.1025,48.155 L 15.2361,48.1958 L 15.3681,48.2412 L 15.4984,48.2913 L 15.6269,48.3458
 L 15.7535,48.4048 L 15.8779,48.4682 L 16,48.5359 L 16.1197,48.6078 L 16.2368,48.6839 L 16.3511,48.7639
 L 16.4626,48.848 L 16.5711,48.9358 L 16.6765,49.0274 L 16.7786,49.1227 L 16.8773,49.2214 L 16.9726,49.3235
 L 17.0642,49.4289 L 17.152,49.5374 L 17.2361,49.6489 L 17.3161,49.7632 L 17.3922,49.8803 L 17.4641,50
 L 17.5318,50.1221 L 17.5952,50.2465 L 17.6542,50.3731 L 17.7087,50.5016 L 17.7588,50.6319 L 17.8042,50.7639
 L 17.845,50.8975 L 17.8812,51.0323 L 17.9126,51.1684 L 17.9392,51.3054 L 17.9611,51.4433 L 17.9781,51.5819
 L 17.9902,51.721 L 17.9976,51.8604 L 17.9994,51.9302 L 17.9994,64.0698 L 17.9945,64.2093 L 17.9848,64.3486
 L 17.9702,64.4875 L 17.9507,64.6257 L 17.9265,64.7632 L 17.8975,64.8998 L 17.8637,65.0353 L 17.8252,65.1695
 L 17.7821,65.3023 L 17.7343,65.4335 L 17.682,65.5629 L 17.6252,65.6905 L 17.564,65.8159 L 17.4985,65.9392
 L 17.4287,66.0602 L 17.3547,66.1785 L 17.2766,66.2943 L 17.1945,66.4073 L 17.1086,66.5173 L 17.0188,66.6242
 L 16.9254,66.728 L 16.8284,66.8284 L 16.728,66.9254 L 16.6242,67.0188 L 16.5173,67.1086 L 16.4073,67.1945
 L 16.2943,67.2766 L 16.1785,67.3547 L 16.0602,67.4287 L 15.9392,67.4985 L 15.8159,67.564 L 15.6905,67.6252
 L 15.5629,67.682 L 15.4335,67.7343 L 15.3023,67.7821 L 15.1695,67.8252 L 15.0353,67.8637 L 14.8998,67.8975
 L 14.7632,67.9265 L 14.6257,67.9507 L 14.4875,67.9702 L 14.3486,67.9848 L 14.2093,67.9945 L 14.0698,67.9994
 L 0.86908,67.9994 L 0.881165,68.0716 L 1.06563,69.0669 L 1.26744,70.0589 L 1.48654,71.0471 L 1.72285,72.0315
 L 1.9763,73.0115 L 2.24683,73.987 L 2.53433,74.9576 L 2.83873,75.923 L 3.15993,76.8829 L 3.49783,77.8372
 L 3.85234,78.7853 L 4.22334,79.7272 L 4.61073,80.6624 L 5.01437,81.5907 L 5.43416,82.5119 L 5.86995,83.4255
 L 6.32162,84.3314 L 6.78905,85.2293 L 7.27206,86.119 L 7.77054,87 L 8.2843,87.8722 L 8.81322,88.7353
 L 9.35712,89.5891 L 9.91583,90.4332 L 10.4892,91.2674 L 11.077,92.0915 L 11.6792,92.9053 L 12.2954,93.7084
 L 12.9255,94.5006 L 13.5694,95.2817 L 14.2269,96.0514 L 14.8976,96.8096 L 15.5815,97.5559 L 16.2783,98.2902
 L 16.9878,99.0122 L 17.7098,99.7217 L 18.4441,100.419 L 19.1904,101.102 L 19.9486,101.773 L 20.7183,102.431
 L 21.4994,103.074 L 22.2916,103.705 L 23.0947,104.321 L 23.9085,104.923 L 24.7326,105.511 L 25.5668,106.084
 L 26.4109,106.643 L 27.2647,107.187 L 28.1278,107.716 L 29,108.229 L 29.881,108.728 L 30.7707,109.211
 L 31.6686,109.678 L 32.5745,110.13 L 33.4881,110.566 L 34.4093,110.986 L 35.3376,111.389 L 36.2728,111.777
 L 37.2147,112.148 L 38.1628,112.502 L 39.1171,112.84 L 40.077,113.161 L 41.0424,113.466 L 42.013,113.753
 L 42.9885,114.024 L 43.9685,114.277 L 44.9529,114.513 L 45.9411,114.733 L 46.9331,114.934 L 47.9284,115.119
 L 48.9268,115.286 L 49.928,115.436 L 50.9316,115.568 L 51.9374,115.682 L 52.945,115.779 L 53.9541,115.859
 L 54.9645,115.921 L 55.9758,115.965 L 56.9878,115.991 L 58,116 z
M 54.9861,105.905 L 51.984,105.621 L 49.0057,105.15 L 46.0629,104.492 L 43.1672,103.651 L 40.33,102.629
 L 37.5626,101.432 L 34.8758,100.063 L 32.2803,98.5277 L 29.7863,96.8328 L 27.8681,95.3449 L 27.7267,95.2202
 L 27.5935,95.087 L 27.4688,94.9456 L 27.3533,94.7967 L 27.2474,94.6408 L 27.1515,94.4786 L 27.0659,94.3107
 L 26.991,94.1377 L 26.9272,93.9604 L 26.8746,93.7794 L 26.8335,93.5955 L 26.804,93.4093 L 26.7863,93.2217
 L 26.7804,93.0333 L 26.7863,92.845 L 26.804,92.6573 L 26.8335,92.4712 L 26.8746,92.2873 L 26.9272,92.1063
 L 26.991,91.929 L 27.0659,91.756 L 27.1515,91.5881 L 27.2474,91.4259 L 27.3533,91.27 L 27.4688,91.1211
 L 27.5935,90.9797 L 32.5376,86.0355 L 32.5349,86.0327 L 32.6449,85.9227 L 32.8526,85.6871 L 33.0451,85.4389
 L 33.2216,85.1791 L 33.3815,84.9088 L 33.5241,84.6289 L 33.6489,84.3406 L 33.7553,84.0451 L 33.8429,83.7434
 L 33.9114,83.4369 L 33.9606,83.1267 L 33.9901,82.8139 L 34,82.5 L 33.9901,82.186 L 33.9606,81.8733
 L 33.9114,81.5631 L 33.8429,81.2565 L 33.7553,80.9549 L 33.6489,80.6594 L 33.5241,80.3711 L 33.3815,80.0912
 L 33.2216,79.8209 L 33.0451,79.5611 L 32.8526,79.3129 L 32.6449,79.0773 L 32.4227,78.8551 L 32.1871,78.6474
 L 31.9389,78.4549 L 31.6791,78.2784 L 31.4088,78.1185 L 31.1289,77.9759 L 30.8406,77.8511 L 30.5451,77.7447
 L 30.2435,77.6571 L 29.9369,77.5886 L 29.6267,77.5394 L 29.314,77.5099 L 29,77.5 L 28.6861,77.5099
 L 28.3733,77.5394 L 28.0631,77.5886 L 27.7566,77.6571 L 27.4549,77.7447 L 27.1594,77.8511 L 26.8711,77.9759
 L 26.5912,78.1185 L 26.3209,78.2784 L 26.0611,78.4549 L 25.8129,78.6474 L 25.5773,78.8551 L 25.4673,78.9651
 L 25.4645,78.9624 L 21.3412,83.0856 L 21.1999,83.2102 L 21.0509,83.3257 L 20.8951,83.4317 L 20.7328,83.5276
 L 20.5649,83.6132 L 20.392,83.688 L 20.2146,83.7519 L 20.0337,83.8044 L 19.8497,83.8456 L 19.6636,83.875
 L 19.476,83.8928 L 19.2876,83.8987 L 19.0992,83.8928 L 18.9116,83.875 L 18.7255,83.8456 L 18.5415,83.8044
 L 18.3605,83.7519 L 18.1832,83.688 L 18.0103,83.6132 L 17.8423,83.5276 L 17.6801,83.4317 L 17.5242,83.3257
 L 17.3753,83.2102 L 17.234,83.0856 L 17.1007,82.9523 L 16.9761,82.811 L 16.8605,82.662 L 16.7546,82.5062
 L 15.9373,81.1242 L 14.5683,78.4374 L 13.8511,76.78 L 13.7873,76.6027 L 13.7347,76.4217 L 13.6936,76.2378
 L 13.6641,76.0517 L 13.6464,75.864 L 13.6404,75.6757 L 13.6464,75.4873 L 13.6641,75.2997 L 13.6936,75.1135
 L 13.7347,74.9296 L 13.7873,74.7486 L 13.8511,74.5713 L 13.926,74.3983 L 14.0115,74.2304 L 14.1075,74.0682
 L 14.2134,73.9123 L 14.3289,73.7634 L 14.4535,73.622 L 14.5868,73.4888 L 14.7282,73.3641 L 14.8771,73.2486
 L 15.033,73.1427 L 15.1952,73.0468 L 15.3631,72.9612 L 15.5361,72.8864 L 15.7134,72.8225 L 15.8944,72.7699
 L 15.9895,72.7487 L 16.4721,72.6084 L 16.945,72.4382 L 17.4062,72.2386 L 17.8541,72.0104 L 18.2865,71.7547
 L 18.7023,71.4721 L 19.0994,71.1641 L 19.4764,70.8317 L 19.8317,70.4764 L 20.1641,70.0994 L 20.4721,69.7023
 L 20.7547,69.2865 L 21.0063,68.861 L 21.2386,68.4062 L 21.4382,67.945 L 21.6084,67.4721 L 21.7487,66.9895
 L 21.8583,66.4991 L 21.9369,66.0028 L 21.9842,65.5023 L 21.9998,65.0076 L 22,51 L 21.9842,50.4977
 L 21.9369,49.9972 L 21.8583,49.5009 L 21.7487,49.0105 L 21.6084,48.5279 L 21.4382,48.055 L 21.2386,47.5938
 L 21.0104,47.1459 L 20.7547,46.7135 L 20.4721,46.2977 L 20.1641,45.9006 L 19.8317,45.5236 L 19.4764,45.1683
 L 19.0994,44.8359 L 18.7107,44.5344 L 18.2865,44.2453 L 17.8541,43.9896 L 17.4062,43.7614 L 16.945,43.5618
 L 16.4721,43.3916 L 15.9895,43.2513 L 15.8944,43.2301 L 15.7134,43.1775 L 15.5361,43.1136 L 15.3631,43.0388
 L 15.1952,42.9532 L 15.033,42.8573 L 14.8771,42.7514 L 14.7282,42.6359 L 14.5868,42.5112 L 14.4535,42.378
 L 14.3289,42.2366 L 14.2134,42.0877 L 14.1075,41.9318 L 14.0115,41.7696 L 13.926,41.6017 L 13.8511,41.4287
 L 13.7873,41.2514 L 13.7347,41.0704 L 13.6936,40.8865 L 13.6641,40.7003 L 13.6464,40.5127 L 13.6404,40.3243
 L 13.6464,40.136 L 13.6641,39.9483 L 13.6936,39.7622 L 13.7347,39.5783 L 13.7873,39.3973 L 13.8511,39.22
 L 14.5683,37.5626 L 15.9373,34.8758 L 16.7546,33.4938 L 16.8605,33.338 L 16.9761,33.189 L 17.1007,33.0477
 L 17.234,32.9144 L 17.3753,32.7898 L 17.5242,32.6743 L 17.6801,32.5683 L 17.8423,32.4724 L 18.0103,32.3868
 L 18.1832,32.312 L 18.3605,32.2481 L 18.5415,32.1956 L 18.7255,32.1544 L 18.9116,32.125 L 19.0992,32.1072
 L 19.2876,32.1013 L 19.476,32.1072 L 19.6636,32.125 L 19.8497,32.1544 L 20.0337,32.1956 L 20.2146,32.2481
 L 20.392,32.312 L 20.5649,32.3868 L 20.7328,32.4724 L 20.8951,32.5683 L 21.0509,32.6743 L 21.1999,32.7898
 L 21.3412,32.9144 L 25.4645,37.0376 L 25.4673,37.0349 L 25.5773,37.1449 L 25.8129,37.3526 L 26.0611,37.5451
 L 26.3209,37.7216 L 26.5912,37.8815 L 26.8711,38.0241 L 27.1594,38.1489 L 27.4549,38.2553 L 27.7566,38.3429
 L 28.0631,38.4114 L 28.3733,38.4606 L 28.6861,38.4901 L 29,38.5 L 29.314,38.4901 L 29.6267,38.4606
 L 29.9369,38.4114 L 30.2435,38.3429 L 30.5451,38.2553 L 30.8406,38.1489 L 31.1289,38.0241 L 31.4088,37.8815
 L 31.6791,37.7216 L 31.9389,37.5451 L 32.1871,37.3526 L 32.4227,37.1449 L 32.6449,36.9227 L 32.8526,36.6871
 L 33.0451,36.4389 L 33.2216,36.1791 L 33.3815,35.9088 L 33.5241,35.6289 L 33.6489,35.3406 L 33.7553,35.0451
 L 33.8429,34.7435 L 33.9114,34.4369 L 33.9606,34.1267 L 33.9901,33.814 L 34,33.5 L 33.9901,33.1861
 L 33.9606,32.8733 L 33.9114,32.5631 L 33.8429,32.2566 L 33.7553,31.9549 L 33.6489,31.6594 L 33.5241,31.3711
 L 33.3815,31.0912 L 33.2216,30.8209 L 33.0451,30.5611 L 32.8526,30.3129 L 32.6449,30.0773 L 32.5349,29.9673
 L 32.5376,29.9645 L 27.5935,25.0203 L 27.4688,24.8789 L 27.3533,24.73 L 27.2474,24.5741 L 27.1515,24.4119
 L 27.0659,24.244 L 26.991,24.071 L 26.9272,23.8937 L 26.8746,23.7127 L 26.8335,23.5288 L 26.804,23.3427
 L 26.7863,23.155 L 26.7804,22.9667 L 26.7863,22.7783 L 26.804,22.5907 L 26.8335,22.4045 L 26.8746,22.2206
 L 26.9272,22.0396 L 26.991,21.8623 L 27.0659,21.6893 L 27.1515,21.5214 L 27.2474,21.3592 L 27.3533,21.2033
 L 27.4688,21.0544 L 27.5935,20.913 L 27.7267,20.7798 L 27.8681,20.6551 L 29.7863,19.1672 L 32.2803,17.4723
 L 34.8758,15.9373 L 37.5626,14.5683 L 40.33,13.3707 L 43.1672,12.3493 L 46.0629,11.508 L 49.0057,10.8502
 L 51.984,10.3785 L 54.9861,10.0947 L 58,10 L 61.0139,10.0947 L 64.016,10.3785 L 66.9943,10.8502
 L 69.9371,11.508 L 72.8328,12.3493 L 75.67,13.3707 L 78.4374,14.5683 L 81.1242,15.9373 L 83.7197,17.4723
 L 86.2137,19.1672 L 88.1319,20.6551 L 88.2733,20.7798 L 88.4065,20.913 L 88.5312,21.0544 L 88.6467,21.2033
 L 88.7526,21.3592 L 88.8485,21.5214 L 88.9341,21.6893 L 89.009,21.8623 L 89.0728,22.0396 L 89.1254,22.2206
 L 89.1665,22.4045 L 89.196,22.5907 L 89.2137,22.7783 L 89.2196,22.9667 L 89.2137,23.155 L 89.196,23.3427
 L 89.1665,23.5288 L 89.1254,23.7127 L 89.0728,23.8937 L 89.009,24.071 L 88.9341,24.244 L 88.8485,24.4119
 L 88.7526,24.5741 L 88.6467,24.73 L 88.5312,24.8789 L 88.4065,25.0203 L 83.4624,29.9645 L 83.4651,29.9673
 L 83.3551,30.0773 L 83.1474,30.3129 L 82.9549,30.5611 L 82.7784,30.8209 L 82.6185,31.0912 L 82.4759,31.3711
 L 82.3511,31.6594 L 82.2447,31.9549 L 82.1571,32.2566 L 82.0886,32.5631 L 82.0394,32.8733 L 82.0099,33.1861
 L 82,33.5 L 82.0099,33.814 L 82.0394,34.1267 L 82.0886,34.4369 L 82.1571,34.7435 L 82.2447,35.0451
 L 82.3511,35.3406 L 82.4759,35.6289 L 82.6185,35.9088 L 82.7784,36.1791 L 82.9549,36.4389 L 83.1474,36.6871
 L 83.3551,36.9227 L 83.5773,37.1449 L 83.8129,37.3526 L 84.0611,37.5451 L 84.3209,37.7216 L 84.5912,37.8815
 L 84.8711,38.0241 L 85.1594,38.1489 L 85.4549,38.2553 L 85.7565,38.3429 L 86.0631,38.4114 L 86.3733,38.4606
 L 86.686,38.4901 L 87,38.5 L 87.3139,38.4901 L 87.6267,38.4606 L 87.9369,38.4114 L 88.2434,38.3429
 L 88.5451,38.2553 L 88.8406,38.1489 L 89.1289,38.0241 L 89.4088,37.8815 L 89.6791,37.7216 L 89.9389,37.5451
 L 90.1871,37.3526 L 90.4227,37.1449 L 90.5327,37.0349 L 90.5355,37.0376 L 94.6588,32.9144 L 94.8001,32.7898
 L 94.9491,32.6743 L 95.1049,32.5683 L 95.2672,32.4724 L 95.4351,32.3868 L 95.608,32.312 L 95.7854,32.2481
 L 95.9663,32.1956 L 96.1503,32.1544 L 96.3364,32.125 L 96.524,32.1072 L 96.7124,32.1013 L 96.9008,32.1072
 L 97.0884,32.125 L 97.2745,32.1544 L 97.4585,32.1956 L 97.6395,32.2481 L 97.8168,32.312 L 97.9897,32.3868
 L 98.1577,32.4724 L 98.3199,32.5683 L 98.4758,32.6743 L 98.6247,32.7898 L 98.766,32.9144 L 98.8993,33.0477
 L 99.0239,33.189 L 99.1395,33.338 L 99.2454,33.4938 L 100.063,34.8758 L 101.432,37.5626 L 102.149,39.22
 L 102.213,39.3973 L 102.265,39.5783 L 102.306,39.7622 L 102.336,39.9483 L 102.354,40.136 L 102.36,40.3243
 L 102.354,40.5127 L 102.336,40.7003 L 102.306,40.8865 L 102.265,41.0704 L 102.213,41.2514 L 102.149,41.4287
 L 102.074,41.6017 L 101.988,41.7696 L 101.893,41.9318 L 101.787,42.0877 L 101.671,42.2366 L 101.546,42.378
 L 101.413,42.5112 L 101.272,42.6359 L 101.123,42.7514 L 100.967,42.8573 L 100.805,42.9532 L 100.637,43.0388
 L 100.464,43.1136 L 100.287,43.1775 L 100.106,43.2301 L 100.01,43.2513 L 99.5279,43.3916 L 99.055,43.5618
 L 98.5938,43.7614 L 98.1459,43.9896 L 97.7135,44.2453 L 97.2977,44.5279 L 96.9006,44.8359 L 96.5236,45.1683
 L 96.1683,45.5236 L 95.8359,45.9006 L 95.5279,46.2977 L 95.2453,46.7135 L 94.9896,47.1459 L 94.7614,47.5938
 L 94.5618,48.055 L 94.3916,48.5279 L 94.2513,49.0105 L 94.1417,49.5009 L 94.0631,49.9972 L 94.0158,50.4977
 L 94,51 L 94,65 L 94.0158,65.5023 L 94.0631,66.0028 L 94.1417,66.4991 L 94.2513,66.9895
 L 94.3916,67.4721 L 94.5618,67.945 L 94.7614,68.4062 L 94.9896,68.8541 L 95.2453,69.2865 L 95.5279,69.7023
 L 95.8359,70.0994 L 96.1683,70.4764 L 96.5236,70.8317 L 96.9006,71.1641 L 97.2977,71.4721 L 97.7135,71.7547
 L 98.1459,72.0104 L 98.5938,72.2386 L 99.055,72.4382 L 99.5279,72.6084 L 100.01,72.7487 L 100.106,72.7699
 L 100.287,72.8225 L 100.464,72.8864 L 100.637,72.9612 L 100.805,73.0468 L 100.967,73.1427 L 101.123,73.2486
 L 101.272,73.3641 L 101.413,73.4888 L 101.546,73.622 L 101.671,73.7634 L 101.787,73.9123 L 101.893,74.0682
 L 101.988,74.2304 L 102.074,74.3983 L 102.149,74.5713 L 102.213,74.7486 L 102.265,74.9296 L 102.306,75.1135
 L 102.336,75.2997 L 102.354,75.4873 L 102.36,75.6757 L 102.354,75.864 L 102.336,76.0517 L 102.306,76.2378
 L 102.265,76.4217 L 102.213,76.6027 L 102.149,76.78 L 101.432,78.4374 L 100.063,81.1242 L 99.2454,82.5062
 L 99.1395,82.662 L 99.0239,82.811 L 98.8993,82.9523 L 98.766,83.0856 L 98.6247,83.2102 L 98.4758,83.3257
 L 98.3199,83.4317 L 98.1577,83.5276 L 97.9897,83.6132 L 97.8168,83.688 L 97.6395,83.7519 L 97.4585,83.8044
 L 97.2745,83.8456 L 97.0884,83.875 L 96.9008,83.8928 L 96.7124,83.8987 L 96.524,83.8928 L 96.3364,83.875
 L 96.1503,83.8456 L 95.9663,83.8044 L 95.7854,83.7519 L 95.608,83.688 L 95.4351,83.6132 L 95.2672,83.5276
 L 95.1049,83.4317 L 94.9491,83.3257 L 94.8001,83.2102 L 94.6588,83.0856 L 90.5355,78.9624 L 90.5327,78.9651
 L 90.4227,78.8551 L 90.1871,78.6474 L 89.9389,78.4549 L 89.6791,78.2784 L 89.4088,78.1185 L 89.1289,77.9759
 L 88.8406,77.8511 L 88.5451,77.7447 L 88.2434,77.6571 L 87.9369,77.5886 L 87.6267,77.5394 L 87.3139,77.5099
 L 87,77.5 L 86.686,77.5099 L 86.3733,77.5394 L 86.0631,77.5886 L 85.7565,77.6571 L 85.4549,77.7447
 L 85.1594,77.8511 L 84.8711,77.9759 L 84.5912,78.1185 L 84.3209,78.2784 L 84.0611,78.4549 L 83.8129,78.6474
 L 83.5773,78.8551 L 83.3551,79.0773 L 83.1474,79.3129 L 82.9549,79.5611 L 82.7784,79.8209 L 82.6185,80.0912
 L 82.4759,80.3711 L 82.3511,80.6594 L 82.2447,80.9549 L 82.1571,81.2565 L 82.0886,81.5631 L 82.0394,81.8733
 L 82.0099,82.186 L 82,82.5 L 82.0099,82.8139 L 82.0394,83.1267 L 82.0886,83.4369 L 82.1571,83.7434
 L 82.2447,84.0451 L 82.3511,84.3406 L 82.4759,84.6289 L 82.6185,84.9088 L 82.7784,85.1791 L 82.9549,85.4389
 L 83.1474,85.6871 L 83.3551,85.9227 L 83.4651,86.0327 L 83.4624,86.0355 L 88.4065,90.9797 L 88.5312,91.1211
 L 88.6467,91.27 L 88.7526,91.4259 L 88.8485,91.5881 L 88.9341,91.756 L 89.009,91.929 L 89.0728,92.1063
 L 89.1254,92.2873 L 89.1665,92.4712 L 89.196,92.6573 L 89.2137,92.845 L 89.2196,93.0333 L 89.2137,93.2217
 L 89.196,93.4093 L 89.1665,93.5955 L 89.1254,93.7794 L 89.0728,93.9604 L 89.009,94.1377 L 88.9341,94.3107
 L 88.8485,94.4786 L 88.7526,94.6408 L 88.6467,94.7967 L 88.5312,94.9456 L 88.4065,95.087 L 88.2733,95.2202
 L 88.1319,95.3449 L 86.2137,96.8328 L 83.7197,98.5277 L 81.1242,100.063 L 78.4374,101.432 L 75.67,102.629
 L 72.8328,103.651 L 69.9371,104.492 L 66.9943,105.15 L 64.016,105.621 L 61.0139,105.905 L 58,106
 z
M 28.9389,35.2489 L 28.8171,35.2404 L 28.6961,35.2234 L 28.5766,35.198 L 28.4592,35.1644 L 28.3445,35.1226
 L 28.2329,35.0729 L 28.125,35.0155 L 28.0214,34.9508 L 27.9226,34.879 L 27.829,34.8005 L 27.7412,34.7157
 L 27.6594,34.6249 L 27.5842,34.5286 L 27.5159,34.4274 L 27.4548,34.3216 L 27.4013,34.2118 L 27.3555,34.0985
 L 27.3178,33.9824 L 27.2883,33.8638 L 27.267,33.7436 L 27.2543,33.6221 L 27.25,33.5 L 27.2543,33.3779
 L 27.267,33.2565 L 27.2883,33.1362 L 27.3178,33.0176 L 27.3555,32.9015 L 27.4013,32.7882 L 27.4548,32.6784
 L 27.5159,32.5726 L 27.5842,32.4714 L 27.6594,32.3751 L 27.7412,32.2844 L 27.829,32.1995 L 27.9226,32.121
 L 28.0214,32.0492 L 28.125,31.9845 L 28.2329,31.9271 L 28.3445,31.8774 L 28.4592,31.8357 L 28.5766,31.802
 L 28.6961,31.7766 L 28.8171,31.7596 L 28.9389,31.7511 L 29.0611,31.7511 L 29.1829,31.7596 L 29.3039,31.7766
 L 29.4234,31.802 L 29.5408,31.8357 L 29.6556,31.8774 L 29.7672,31.9271 L 29.875,31.9845 L 29.9786,32.0492
 L 30.0774,32.121 L 30.171,32.1995 L 30.2589,32.2844 L 30.3406,32.3751 L 30.4158,32.4714 L 30.4841,32.5726
 L 30.5452,32.6784 L 30.5987,32.7882 L 30.6445,32.9015 L 30.6822,33.0176 L 30.7118,33.1362 L 30.733,33.2565
 L 30.7457,33.3779 L 30.75,33.5 L 30.7457,33.6221 L 30.733,33.7436 L 30.7118,33.8638 L 30.6822,33.9824
 L 30.6445,34.0985 L 30.5987,34.2118 L 30.5452,34.3216 L 30.4841,34.4274 L 30.4158,34.5286 L 30.3406,34.6249
 L 30.2589,34.7157 L 30.171,34.8005 L 30.0774,34.879 L 29.9786,34.9508 L 29.875,35.0155 L 29.7672,35.0729
 L 29.6556,35.1226 L 29.5408,35.1644 L 29.4234,35.198 L 29.3039,35.2234 L 29.1829,35.2404 L 29.0611,35.2489
 z
M 86.9389,35.2489 L 86.8171,35.2404 L 86.6961,35.2234 L 86.5766,35.198 L 86.4592,35.1644 L 86.3444,35.1226
 L 86.2328,35.0729 L 86.125,35.0155 L 86.0214,34.9508 L 85.9226,34.879 L 85.829,34.8005 L 85.7411,34.7157
 L 85.6594,34.6249 L 85.5842,34.5286 L 85.5159,34.4274 L 85.4548,34.3216 L 85.4013,34.2118 L 85.3555,34.0985
 L 85.3178,33.9824 L 85.2882,33.8638 L 85.267,33.7436 L 85.2543,33.6221 L 85.25,33.5 L 85.2543,33.3779
 L 85.267,33.2565 L 85.2882,33.1362 L 85.3178,33.0176 L 85.3555,32.9015 L 85.4013,32.7882 L 85.4548,32.6784
 L 85.5159,32.5726 L 85.5842,32.4714 L 85.6594,32.3751 L 85.7411,32.2844 L 85.829,32.1995 L 85.9226,32.121
 L 86.0214,32.0492 L 86.125,31.9845 L 86.2328,31.9271 L 86.3444,31.8774 L 86.4592,31.8357 L 86.5766,31.802
 L 86.6961,31.7766 L 86.8171,31.7596 L 86.9389,31.7511 L 87.0611,31.7511 L 87.1829,31.7596 L 87.3039,31.7766
 L 87.4234,31.802 L 87.5408,31.8357 L 87.6555,31.8774 L 87.7671,31.9271 L 87.875,31.9845 L 87.9786,32.0492
 L 88.0774,32.121 L 88.171,32.1995 L 88.2588,32.2844 L 88.3406,32.3751 L 88.4158,32.4714 L 88.4841,32.5726
 L 88.5452,32.6784 L 88.5987,32.7882 L 88.6445,32.9015 L 88.6822,33.0176 L 88.7117,33.1362 L 88.733,33.2565
 L 88.7457,33.3779 L 88.75,33.5 L 88.7457,33.6221 L 88.733,33.7436 L 88.7117,33.8638 L 88.6822,33.9824
 L 88.6445,34.0985 L 88.5987,34.2118 L 88.5452,34.3216 L 88.4841,34.4274 L 88.4158,34.5286 L 88.3406,34.6249
 L 88.2588,34.7157 L 88.171,34.8005 L 88.0774,34.879 L 87.9786,34.9508 L 87.875,35.0155 L 87.7671,35.0729
 L 87.6555,35.1226 L 87.5408,35.1644 L 87.4234,35.198 L 87.3039,35.2234 L 87.1829,35.2404 L 87.0611,35.2489
 z
M 28.9389,84.2489 L 28.8171,84.2404 L 28.6961,84.2234 L 28.5766,84.198 L 28.4592,84.1643 L 28.3445,84.1226
 L 28.2329,84.0729 L 28.125,84.0155 L 28.0214,83.9508 L 27.9226,83.879 L 27.829,83.8005 L 27.7412,83.7156
 L 27.6594,83.6249 L 27.5842,83.5286 L 27.5159,83.4274 L 27.4548,83.3216 L 27.4013,83.2118 L 27.3555,83.0985
 L 27.3178,82.9824 L 27.2883,82.8638 L 27.267,82.7435 L 27.2543,82.6221 L 27.25,82.5 L 27.2543,82.3779
 L 27.267,82.2564 L 27.2883,82.1362 L 27.3178,82.0176 L 27.3555,81.9015 L 27.4013,81.7882 L 27.4548,81.6784
 L 27.5159,81.5726 L 27.5842,81.4714 L 27.6594,81.3751 L 27.7412,81.2843 L 27.829,81.1995 L 27.9226,81.121
 L 28.0214,81.0492 L 28.125,80.9845 L 28.2329,80.9271 L 28.3445,80.8774 L 28.4592,80.8356 L 28.5766,80.802
 L 28.6961,80.7766 L 28.8171,80.7596 L 28.9389,80.7511 L 29.0611,80.7511 L 29.1829,80.7596 L 29.3039,80.7766
 L 29.4234,80.802 L 29.5408,80.8356 L 29.6556,80.8774 L 29.7672,80.9271 L 29.875,80.9845 L 29.9786,81.0492
 L 30.0774,81.121 L 30.171,81.1995 L 30.2589,81.2843 L 30.3406,81.3751 L 30.4158,81.4714 L 30.4841,81.5726
 L 30.5452,81.6784 L 30.5987,81.7882 L 30.6445,81.9015 L 30.6822,82.0176 L 30.7118,82.1362 L 30.733,82.2564
 L 30.7457,82.3779 L 30.75,82.5 L 30.7457,82.6221 L 30.733,82.7435 L 30.7118,82.8638 L 30.6822,82.9824
 L 30.6445,83.0985 L 30.5987,83.2118 L 30.5452,83.3216 L 30.4841,83.4274 L 30.4158,83.5286 L 30.3406,83.6249
 L 30.2589,83.7156 L 30.171,83.8005 L 30.0774,83.879 L 29.9786,83.9508 L 29.875,84.0155 L 29.7672,84.0729
 L 29.6556,84.1226 L 29.5408,84.1643 L 29.4234,84.198 L 29.3039,84.2234 L 29.1829,84.2404 L 29.0611,84.2489
 z
M 86.9389,84.2489 L 86.8171,84.2404 L 86.6961,84.2234 L 86.5766,84.198 L 86.4592,84.1643 L 86.3444,84.1226
 L 86.2328,84.0729 L 86.125,84.0155 L 86.0214,83.9508 L 85.9226,83.879 L 85.829,83.8005 L 85.7411,83.7156
 L 85.6594,83.6249 L 85.5842,83.5286 L 85.5159,83.4274 L 85.4548,83.3216 L 85.4013,83.2118 L 85.3555,83.0985
 L 85.3178,82.9824 L 85.2882,82.8638 L 85.267,82.7435 L 85.2543,82.6221 L 85.25,82.5 L 85.2543,82.3779
 L 85.267,82.2564 L 85.2882,82.1362 L 85.3178,82.0176 L 85.3555,81.9015 L 85.4013,81.7882 L 85.4548,81.6784
 L 85.5159,81.5726 L 85.5842,81.4714 L 85.6594,81.3751 L 85.7411,81.2843 L 85.829,81.1995 L 85.9226,81.121
 L 86.0214,81.0492 L 86.125,80.9845 L 86.2328,80.9271 L 86.3444,80.8774 L 86.4592,80.8356 L 86.5766,80.802
 L 86.6961,80.7766 L 86.8171,80.7596 L 86.9389,80.7511 L 87.0611,80.7511 L 87.1829,80.7596 L 87.3039,80.7766
 L 87.4234,80.802 L 87.5408,80.8356 L 87.6555,80.8774 L 87.7671,80.9271 L 87.875,80.9845 L 87.9786,81.0492
 L 88.0774,81.121 L 88.171,81.1995 L 88.2588,81.2843 L 88.3406,81.3751 L 88.4158,81.4714 L 88.4841,81.5726
 L 88.5452,81.6784 L 88.5987,81.7882 L 88.6445,81.9015 L 88.6822,82.0176 L 88.7117,82.1362 L 88.733,82.2564
 L 88.7457,82.3779 L 88.75,82.5 L 88.7457,82.6221 L 88.733,82.7435 L 88.7117,82.8638 L 88.6822,82.9824
 L 88.6445,83.0985 L 88.5987,83.2118 L 88.5452,83.3216 L 88.4841,83.4274 L 88.4158,83.5286 L 88.3406,83.6249
 L 88.2588,83.7156 L 88.171,83.8005 L 88.0774,83.879 L 87.9786,83.9508 L 87.875,84.0155 L 87.7671,84.0729
 L 87.6555,84.1226 L 87.5408,84.1643 L 87.4234,84.198 L 87.3039,84.2234 L 87.1829,84.2404 L 87.0611,84.2489
 z
" stroke="black" fill="lightgray" stroke-width="0.5"/></svg>
