<?xml version="1.0" standalone="no"?>
<!DOCTYPE svg PUBLIC "-//W3C//DTD SVG 1.1//EN" "http://www.w3.org/Graphics/SVG/1.1/DTD/svg11.dtd">
<svg width="65mm" height="56mm" viewBox="0 0 65 56" xmlns="http://www.w3.org/2000/svg" version="1.1">
<title>OpenSCAD Model</title>
<path d="
M 63.1256,55.996 L 63.2507,55.9842 L 63.3748,55.9646 L 63.4974,55.9372 L 63.618,55.9021 L 63.7362,55.8595
 L 63.8515,55.8096 L 63.9635,55.7526 L 64.0716,55.6886 L 64.1756,55.618 L 64.2748,55.541 L 64.3691,55.4579
 L 64.4579,55.3691 L 64.541,55.2748 L 64.618,55.1756 L 64.6886,55.0716 L 64.7526,54.9635 L 64.8096,54.8515
 L 64.8595,54.7362 L 64.9021,54.618 L 64.9372,54.4974 L 64.9646,54.3748 L 64.9842,54.2507 L 64.996,54.1256
 L 65,54 L 65,2 L 64.996,1.87442 L 64.9842,1.74934 L 64.9646,1.62524 L 64.9372,1.50262
 L 64.9021,1.38197 L 64.8595,1.26376 L 64.8096,1.14845 L 64.7526,1.0365 L 64.6886,0.92836 L 64.618,0.824432
 L 64.541,0.725159 L 64.4579,0.63092 L 64.3691,0.542068 L 64.2748,0.458984 L 64.1756,0.381973 L 64.0716,0.311356
 L 63.9635,0.247391 L 63.8515,0.190353 L 63.7362,0.140457 L 63.618,0.0979004 L 63.4974,0.0628357 L 63.3748,0.0354309
 L 63.2507,0.0157776 L 63.1256,0.00395203 L 63,-0 L 2,-0 L 1.87442,0.00395203 L 1.74934,0.0157776
 L 1.62524,0.0354309 L 1.50262,0.0628357 L 1.38197,0.0979004 L 1.26376,0.140457 L 1.14845,0.190353 L 1.0365,0.247391
 L 0.92836,0.311356 L 0.824432,0.381973 L 0.725159,0.458984 L 0.63092,0.542068 L 0.542068,0.63092 L 0.458984,0.725159
 L 0.381973,0.824432 L 0.311356,0.92836 L 0.247391,1.0365 L 0.190353,1.14845 L 0.140457,1.26376 L 0.0979004,1.38197
 L 0.0628357,1.50262 L 0.0354309,1.62524 L 0.0157776,1.74934 L 0.00395203,1.87442 L 0,2 L 0,54
 L 0.00395203,54.1256 L 0.0157776,54.2507 L 0.0354309,54.3748 L 0.0628357,54.4974 L 0.0979004,54.618 L 0.140457,54.7362
 L 0.190353,54.8515 L 0.247391,54.9635 L 0.311356,55.0716 L 0.381973,55.1756 L 0.458984,55.2748 L 0.542068,55.3691
 L 0.63092,55.4579 L 0.725159,55.541 L 0.824432,55.618 L 0.92836,55.6886 L 1.0365,55.7526 L 1.14845,55.8096
 L 1.26376,55.8595 L 1.38197,55.9021 L 1.50262,55.9372 L 1.62524,55.9646 L 1.74934,55.9842 L 1.87442,55.996
 L 2,56 L 6.5,56 L 6.5,50.5 L 6.50198,50.4372 L 6.50789,50.3747 L 6.51772,50.3126
 L 6.53142,50.2513 L 6.54895,50.191 L 6.57024,50.1319 L 6.59518,50.0742 L 6.6237,50.0182 L 6.65569,49.9642
 L 6.69099,49.9122 L 6.72949,49.8626 L 6.77104,49.8155 L 6.81546,49.771 L 6.86258,49.7295 L 6.91222,49.691
 L 6.96419,49.6557 L 7.01825,49.6237 L 7.07423,49.5952 L 7.13188,49.5702 L 7.19099,49.549 L 7.25131,49.5314
 L 7.31262,49.5177 L 7.37468,49.5079 L 7.43721,49.502 L 7.5,49.5 L 57.5,49.5 L 57.5628,49.502
 L 57.6253,49.5079 L 57.6874,49.5177 L 57.7487,49.5314 L 57.809,49.549 L 57.8681,49.5702 L 57.9258,49.5952
 L 57.9818,49.6237 L 58.0358,49.6557 L 58.0878,49.691 L 58.1374,49.7295 L 58.1845,49.771 L 58.229,49.8155
 L 58.2705,49.8626 L 58.309,49.9122 L 58.3443,49.9642 L 58.3763,50.0182 L 58.4048,50.0742 L 58.4298,50.1319
 L 58.451,50.191 L 58.4686,50.2513 L 58.4823,50.3126 L 58.4921,50.3747 L 58.498,50.4372 L 58.5,50.5
 L 58.5,56 L 63,56 z
M 3.57065,4.84816 L 3.45288,4.84918 L 3.33546,4.83995 L 3.21931,4.82051 L 3.10529,4.79102 L 2.99428,4.75171
 L 2.8871,4.70287 L 2.78461,4.64487 L 2.68755,4.57817 L 2.59666,4.50325 L 2.51266,4.4207 L 2.43617,4.33115
 L 2.36778,4.23528 L 2.30801,4.13379 L 2.25731,4.0275 L 2.21606,3.91718 L 2.18459,3.8037 L 2.16313,3.6879
 L 2.15184,3.57066 L 2.15082,3.4529 L 2.16005,3.33548 L 2.17949,3.21933 L 2.20898,3.1053 L 2.24829,2.99429
 L 2.29713,2.88712 L 2.35513,2.78462 L 2.42183,2.68756 L 2.49675,2.59668 L 2.5793,2.51268 L 2.66885,2.43619
 L 2.76472,2.3678 L 2.86621,2.30803 L 2.9725,2.25732 L 3.08282,2.21608 L 3.1963,2.1846 L 3.3121,2.16315
 L 3.42934,2.15186 L 3.5471,2.15083 L 3.66452,2.16006 L 3.78067,2.1795 L 3.8947,2.209 L 4.00571,2.24831
 L 4.11288,2.29715 L 4.21538,2.35515 L 4.31244,2.42184 L 4.40332,2.49677 L 4.48732,2.57932 L 4.56381,2.66887
 L 4.6322,2.76474 L 4.69197,2.86623 L 4.74268,2.97252 L 4.78392,3.08284 L 4.8154,3.19632 L 4.83685,3.31212
 L 4.84814,3.42935 L 4.84917,3.54712 L 4.83994,3.66454 L 4.8205,3.78069 L 4.791,3.89471 L 4.75169,4.00572
 L 4.70285,4.1129 L 4.64485,4.21539 L 4.57816,4.31245 L 4.50323,4.40334 L 4.42068,4.48734 L 4.33113,4.56383
 L 4.23526,4.63222 L 4.13377,4.69199 L 4.02748,4.74269 L 3.91716,4.78394 L 3.80368,4.81541 L 3.68788,4.83687
 z
M 61.5706,4.84816 L 61.4529,4.84918 L 61.3355,4.83995 L 61.2193,4.82051 L 61.1053,4.79102 L 60.9943,4.75171
 L 60.8871,4.70287 L 60.7846,4.64487 L 60.6875,4.57817 L 60.5967,4.50325 L 60.5127,4.4207 L 60.4362,4.33115
 L 60.3678,4.23528 L 60.308,4.13379 L 60.2573,4.0275 L 60.2161,3.91718 L 60.1846,3.8037 L 60.1631,3.6879
 L 60.1518,3.57066 L 60.1508,3.4529 L 60.16,3.33548 L 60.1795,3.21933 L 60.209,3.1053 L 60.2483,2.99429
 L 60.2971,2.88712 L 60.3551,2.78462 L 60.4218,2.68756 L 60.4967,2.59668 L 60.5793,2.51268 L 60.6689,2.43619
 L 60.7647,2.3678 L 60.8662,2.30803 L 60.9725,2.25732 L 61.0828,2.21608 L 61.1963,2.1846 L 61.3121,2.16315
 L 61.4293,2.15186 L 61.5471,2.15083 L 61.6645,2.16006 L 61.7807,2.1795 L 61.8947,2.209 L 62.0057,2.24831
 L 62.1129,2.29715 L 62.2154,2.35515 L 62.3124,2.42184 L 62.4033,2.49677 L 62.4873,2.57932 L 62.5638,2.66887
 L 62.6322,2.76474 L 62.692,2.86623 L 62.7427,2.97252 L 62.7839,3.08284 L 62.8154,3.19632 L 62.8369,3.31212
 L 62.8481,3.42935 L 62.8492,3.54712 L 62.8399,3.66454 L 62.8205,3.78069 L 62.791,3.89471 L 62.7517,4.00572
 L 62.7029,4.1129 L 62.6449,4.21539 L 62.5782,4.31245 L 62.5032,4.40334 L 62.4207,4.48734 L 62.3311,4.56383
 L 62.2353,4.63222 L 62.1338,4.69199 L 62.0275,4.74269 L 61.9172,4.78394 L 61.8037,4.81541 L 61.6879,4.83687
 z
M 21.5,44 L 21.4372,43.998 L 21.3747,43.9921 L 21.3126,43.9823 L 21.2513,43.9686 L 21.191,43.951
 L 21.1319,43.9298 L 21.0742,43.9048 L 21.0182,43.8763 L 20.9642,43.8443 L 20.9122,43.809 L 20.8626,43.7705
 L 20.8155,43.729 L 20.771,43.6845 L 20.7295,43.6374 L 20.691,43.5878 L 20.6557,43.5358 L 20.6237,43.4818
 L 20.5952,43.4258 L 20.5702,43.3681 L 20.549,43.309 L 20.5314,43.2487 L 20.5177,43.1874 L 20.5079,43.1253
 L 20.502,43.0628 L 20.5,43 L 20.5,37 L 14.5,37 L 14.4372,36.998 L 14.3747,36.9921
 L 14.3126,36.9823 L 14.2513,36.9686 L 14.191,36.951 L 14.1319,36.9298 L 14.0742,36.9048 L 14.0182,36.8763
 L 13.9642,36.8443 L 13.9122,36.809 L 13.8626,36.7705 L 13.8155,36.729 L 13.771,36.6845 L 13.7295,36.6374
 L 13.691,36.5878 L 13.6557,36.5358 L 13.6237,36.4818 L 13.5952,36.4258 L 13.5702,36.3681 L 13.549,36.309
 L 13.5314,36.2487 L 13.5177,36.1874 L 13.5079,36.1253 L 13.502,36.0628 L 13.5,36 L 13.5,14
 L 13.502,13.9372 L 13.5079,13.8747 L 13.5177,13.8126 L 13.5314,13.7513 L 13.549,13.691 L 13.5702,13.6319
 L 13.5952,13.5742 L 13.6237,13.5182 L 13.6557,13.4642 L 13.691,13.4122 L 13.7295,13.3626 L 13.771,13.3155
 L 13.8155,13.271 L 13.8626,13.2295 L 13.9122,13.191 L 13.9642,13.1557 L 14.0182,13.1237 L 14.0742,13.0952
 L 14.1319,13.0702 L 14.191,13.049 L 14.2513,13.0314 L 14.3126,13.0177 L 14.3747,13.0079 L 14.4372,13.002
 L 14.5,13 L 20.5,13 L 20.5,7 L 20.502,6.93721 L 20.5079,6.87468 L 20.5177,6.81262
 L 20.5314,6.75131 L 20.549,6.69099 L 20.5702,6.63188 L 20.5952,6.57423 L 20.6237,6.51825 L 20.6557,6.46419
 L 20.691,6.41222 L 20.7295,6.36258 L 20.771,6.31546 L 20.8155,6.27104 L 20.8626,6.22949 L 20.9122,6.19099
 L 20.9642,6.15569 L 21.0182,6.1237 L 21.0742,6.09518 L 21.1319,6.07024 L 21.191,6.04895 L 21.2513,6.03142
 L 21.3126,6.01772 L 21.3747,6.00789 L 21.4372,6.00198 L 21.5,6 L 43.5,6 L 43.5628,6.00198
 L 43.6253,6.00789 L 43.6874,6.01772 L 43.7487,6.03142 L 43.809,6.04895 L 43.8681,6.07024 L 43.9258,6.09518
 L 43.9818,6.1237 L 44.0358,6.15569 L 44.0878,6.19099 L 44.1374,6.22949 L 44.1845,6.27104 L 44.229,6.31546
 L 44.2705,6.36258 L 44.309,6.41222 L 44.3443,6.46419 L 44.3763,6.51825 L 44.4048,6.57423 L 44.4298,6.63188
 L 44.451,6.69099 L 44.4686,6.75131 L 44.4823,6.81262 L 44.4921,6.87468 L 44.498,6.93721 L 44.5,7
 L 44.5,13 L 50.5,13 L 50.5628,13.002 L 50.6253,13.0079 L 50.6874,13.0177 L 50.7487,13.0314
 L 50.809,13.049 L 50.8681,13.0702 L 50.9258,13.0952 L 50.9818,13.1237 L 51.0358,13.1557 L 51.0878,13.191
 L 51.1374,13.2295 L 51.1845,13.271 L 51.229,13.3155 L 51.2705,13.3626 L 51.309,13.4122 L 51.3443,13.4642
 L 51.3763,13.5182 L 51.4048,13.5742 L 51.4298,13.6319 L 51.451,13.691 L 51.4686,13.7513 L 51.4823,13.8126
 L 51.4921,13.8747 L 51.498,13.9372 L 51.5,14 L 51.5,36 L 51.498,36.0628 L 51.4921,36.1253
 L 51.4823,36.1874 L 51.4686,36.2487 L 51.451,36.309 L 51.4298,36.3681 L 51.4048,36.4258 L 51.3763,36.4818
 L 51.3443,36.5358 L 51.309,36.5878 L 51.2705,36.6374 L 51.229,36.6845 L 51.1845,36.729 L 51.1374,36.7705
 L 51.0878,36.809 L 51.0358,36.8443 L 50.9818,36.8763 L 50.9258,36.9048 L 50.8681,36.9298 L 50.809,36.951
 L 50.7487,36.9686 L 50.6874,36.9823 L 50.6253,36.9921 L 50.5628,36.998 L 50.5,37 L 44.5,37
 L 44.5,43 L 44.498,43.0628 L 44.4921,43.1253 L 44.4823,43.1874 L 44.4686,43.2487 L 44.451,43.309
 L 44.4298,43.3681 L 44.4048,43.4258 L 44.3763,43.4818 L 44.3443,43.5358 L 44.309,43.5878 L 44.2705,43.6374
 L 44.229,43.6845 L 44.1845,43.729 L 44.1374,43.7705 L 44.0878,43.809 L 44.0358,43.8443 L 43.9818,43.8763
 L 43.9258,43.9048 L 43.8681,43.9298 L 43.809,43.951 L 43.7487,43.9686 L 43.6874,43.9823 L 43.6253,43.9921
 L 43.5628,43.998 L 43.5,44 z
M 49.4293,9.34816 L 49.3121,9.33687 L 49.1963,9.31541 L 49.0828,9.28394 L 48.9725,9.24269 L 48.8662,9.19199
 L 48.7647,9.13222 L 48.6689,9.06383 L 48.5793,8.98734 L 48.4967,8.90334 L 48.4218,8.81245 L 48.3551,8.71539
 L 48.2971,8.6129 L 48.2483,8.50572 L 48.209,8.39471 L 48.1795,8.28069 L 48.16,8.16454 L 48.1508,8.04712
 L 48.1518,7.92935 L 48.1631,7.81212 L 48.1846,7.69632 L 48.2161,7.58284 L 48.2573,7.47252 L 48.308,7.36623
 L 48.3678,7.26474 L 48.4362,7.16887 L 48.5127,7.07932 L 48.5967,6.99677 L 48.6875,6.92184 L 48.7846,6.85515
 L 48.8871,6.79715 L 48.9943,6.74831 L 49.1053,6.709 L 49.2193,6.6795 L 49.3355,6.66006 L 49.4529,6.65083
 L 49.5706,6.65186 L 49.6879,6.66315 L 49.8037,6.6846 L 49.9172,6.71608 L 50.0275,6.75732 L 50.1338,6.80803
 L 50.2353,6.8678 L 50.3311,6.93619 L 50.4207,7.01268 L 50.5032,7.09668 L 50.5782,7.18756 L 50.6449,7.28462
 L 50.7029,7.38712 L 50.7517,7.49429 L 50.791,7.6053 L 50.8205,7.71933 L 50.8399,7.83548 L 50.8492,7.9529
 L 50.8481,8.07066 L 50.8369,8.1879 L 50.8154,8.3037 L 50.7839,8.41718 L 50.7427,8.5275 L 50.692,8.63379
 L 50.6322,8.73528 L 50.5638,8.83115 L 50.4873,8.9207 L 50.4033,9.00325 L 50.3124,9.07817 L 50.2154,9.14487
 L 50.1129,9.20287 L 50.0057,9.25171 L 49.8947,9.29102 L 49.7807,9.32051 L 49.6645,9.33995 L 49.5471,9.34918
 z
M 15.3355,9.33995 L 15.2193,9.32051 L 15.1053,9.29102 L 14.9943,9.25171 L 14.8871,9.20287 L 14.7846,9.14487
 L 14.6876,9.07817 L 14.5967,9.00325 L 14.5127,8.9207 L 14.4362,8.83115 L 14.3678,8.73528 L 14.308,8.63379
 L 14.2573,8.5275 L 14.2161,8.41718 L 14.1846,8.3037 L 14.1631,8.1879 L 14.1519,8.07066 L 14.1508,7.9529
 L 14.1601,7.83548 L 14.1795,7.71933 L 14.209,7.6053 L 14.2483,7.49429 L 14.2971,7.38712 L 14.3551,7.28462
 L 14.4218,7.18756 L 14.4968,7.09668 L 14.5793,7.01268 L 14.6689,6.93619 L 14.7647,6.8678 L 14.8662,6.80803
 L 14.9725,6.75732 L 15.0828,6.71608 L 15.1963,6.6846 L 15.3121,6.66315 L 15.4294,6.65186 L 15.5471,6.65083
 L 15.6645,6.66006 L 15.7807,6.6795 L 15.8947,6.709 L 16.0057,6.74831 L 16.1129,6.79715 L 16.2154,6.85515
 L 16.3125,6.92184 L 16.4033,6.99677 L 16.4873,7.07932 L 16.5638,7.16887 L 16.6322,7.26474 L 16.692,7.36623
 L 16.7427,7.47252 L 16.7839,7.58284 L 16.8154,7.69632 L 16.8369,7.81212 L 16.8482,7.92935 L 16.8492,8.04712
 L 16.84,8.16454 L 16.8205,8.28069 L 16.791,8.39471 L 16.7517,8.50572 L 16.7029,8.6129 L 16.6449,8.71539
 L 16.5782,8.81245 L 16.5033,8.90334 L 16.4207,8.98734 L 16.3311,9.06383 L 16.2353,9.13222 L 16.1338,9.19199
 L 16.0275,9.24269 L 15.9172,9.28394 L 15.8037,9.31541 L 15.6879,9.33687 L 15.5707,9.34816 L 15.4529,9.34918
 z
M 49.4293,43.3481 L 49.3121,43.3369 L 49.1963,43.3154 L 49.0828,43.2839 L 48.9725,43.2427 L 48.8662,43.192
 L 48.7647,43.1322 L 48.6689,43.0638 L 48.5793,42.9873 L 48.4967,42.9033 L 48.4218,42.8124 L 48.3551,42.7154
 L 48.2971,42.6129 L 48.2483,42.5057 L 48.209,42.3947 L 48.1795,42.2807 L 48.16,42.1645 L 48.1508,42.0471
 L 48.1518,41.9293 L 48.1631,41.8121 L 48.1846,41.6963 L 48.2161,41.5828 L 48.2573,41.4725 L 48.308,41.3662
 L 48.3678,41.2647 L 48.4362,41.1689 L 48.5127,41.0793 L 48.5967,40.9967 L 48.6875,40.9218 L 48.7846,40.8551
 L 48.8871,40.7971 L 48.9943,40.7483 L 49.1053,40.709 L 49.2193,40.6795 L 49.3355,40.66 L 49.4529,40.6508
 L 49.5706,40.6518 L 49.6879,40.6631 L 49.8037,40.6846 L 49.9172,40.7161 L 50.0275,40.7573 L 50.1338,40.808
 L 50.2353,40.8678 L 50.3311,40.9362 L 50.4207,41.0127 L 50.5032,41.0967 L 50.5782,41.1875 L 50.6449,41.2846
 L 50.7029,41.3871 L 50.7517,41.4943 L 50.791,41.6053 L 50.8205,41.7193 L 50.8399,41.8355 L 50.8492,41.9529
 L 50.8481,42.0706 L 50.8369,42.1879 L 50.8154,42.3037 L 50.7839,42.4172 L 50.7427,42.5275 L 50.692,42.6338
 L 50.6322,42.7353 L 50.5638,42.8311 L 50.4873,42.9207 L 50.4033,43.0032 L 50.3124,43.0782 L 50.2154,43.1449
 L 50.1129,43.2029 L 50.0057,43.2517 L 49.8947,43.291 L 49.7807,43.3205 L 49.6645,43.3399 L 49.5471,43.3492
 z
M 15.3355,43.3399 L 15.2193,43.3205 L 15.1053,43.291 L 14.9943,43.2517 L 14.8871,43.2029 L 14.7846,43.1449
 L 14.6876,43.0782 L 14.5967,43.0032 L 14.5127,42.9207 L 14.4362,42.8311 L 14.3678,42.7353 L 14.308,42.6338
 L 14.2573,42.5275 L 14.2161,42.4172 L 14.1846,42.3037 L 14.1631,42.1879 L 14.1519,42.0706 L 14.1508,41.9529
 L 14.1601,41.8355 L 14.1795,41.7193 L 14.209,41.6053 L 14.2483,41.4943 L 14.2971,41.3871 L 14.3551,41.2846
 L 14.4218,41.1875 L 14.4968,41.0967 L 14.5793,41.0127 L 14.6689,40.9362 L 14.7647,40.8678 L 14.8662,40.808
 L 14.9725,40.7573 L 15.0828,40.7161 L 15.1963,40.6846 L 15.3121,40.6631 L 15.4294,40.6518 L 15.5471,40.6508
 L 15.6645,40.66 L 15.7807,40.6795 L 15.8947,40.709 L 16.0057,40.7483 L 16.1129,40.7971 L 16.2154,40.8551
 L 16.3125,40.9218 L 16.4033,40.9967 L 16.4873,41.0793 L 16.5638,41.1689 L 16.6322,41.2647 L 16.692,41.3662
 L 16.7427,41.4725 L 16.7839,41.5828 L 16.8154,41.6963 L 16.8369,41.8121 L 16.8482,41.9293 L 16.8492,42.0471
 L 16.84,42.1645 L 16.8205,42.2807 L 16.791,42.3947 L 16.7517,42.5057 L 16.7029,42.6129 L 16.6449,42.7154
 L 16.5782,42.8124 L 16.5033,42.9033 L 16.4207,42.9873 L 16.3311,43.0638 L 16.2353,43.1322 L 16.1338,43.192
 L 16.0275,43.2427 L 15.9172,43.2839 L 15.8037,43.3154 L 15.6879,43.3369 L 15.5707,43.3481 L 15.4529,43.3492
 z
M 3.57065,53.8482 L 3.45288,53.8492 L 3.33546,53.84 L 3.21931,53.8205 L 3.10529,53.791 L 2.99428,53.7517
 L 2.8871,53.7029 L 2.78461,53.6449 L 2.68755,53.5782 L 2.59666,53.5033 L 2.51266,53.4207 L 2.43617,53.3311
 L 2.36778,53.2353 L 2.30801,53.1338 L 2.25731,53.0275 L 2.21606,52.9172 L 2.18459,52.8037 L 2.16313,52.6879
 L 2.15184,52.5707 L 2.15082,52.4529 L 2.16005,52.3355 L 2.17949,52.2193 L 2.20898,52.1053 L 2.24829,51.9943
 L 2.29713,51.8871 L 2.35513,51.7846 L 2.42183,51.6876 L 2.49675,51.5967 L 2.5793,51.5127 L 2.66885,51.4362
 L 2.76472,51.3678 L 2.86621,51.308 L 2.9725,51.2573 L 3.08282,51.2161 L 3.1963,51.1846 L 3.3121,51.1631
 L 3.42934,51.1519 L 3.5471,51.1508 L 3.66452,51.1601 L 3.78067,51.1795 L 3.8947,51.209 L 4.00571,51.2483
 L 4.11288,51.2971 L 4.21538,51.3551 L 4.31244,51.4218 L 4.40332,51.4968 L 4.48732,51.5793 L 4.56381,51.6689
 L 4.6322,51.7647 L 4.69197,51.8662 L 4.74268,51.9725 L 4.78392,52.0828 L 4.8154,52.1963 L 4.83685,52.3121
 L 4.84814,52.4294 L 4.84917,52.5471 L 4.83994,52.6645 L 4.8205,52.7807 L 4.791,52.8947 L 4.75169,53.0057
 L 4.70285,53.1129 L 4.64485,53.2154 L 4.57816,53.3125 L 4.50323,53.4033 L 4.42068,53.4873 L 4.33113,53.5638
 L 4.23526,53.6322 L 4.13377,53.692 L 4.02748,53.7427 L 3.91716,53.7839 L 3.80368,53.8154 L 3.68788,53.8369
 z
M 61.5706,53.8482 L 61.4529,53.8492 L 61.3355,53.84 L 61.2193,53.8205 L 61.1053,53.791 L 60.9943,53.7517
 L 60.8871,53.7029 L 60.7846,53.6449 L 60.6875,53.5782 L 60.5967,53.5033 L 60.5127,53.4207 L 60.4362,53.3311
 L 60.3678,53.2353 L 60.308,53.1338 L 60.2573,53.0275 L 60.2161,52.9172 L 60.1846,52.8037 L 60.1631,52.6879
 L 60.1518,52.5707 L 60.1508,52.4529 L 60.16,52.3355 L 60.1795,52.2193 L 60.209,52.1053 L 60.2483,51.9943
 L 60.2971,51.8871 L 60.3551,51.7846 L 60.4218,51.6876 L 60.4967,51.5967 L 60.5793,51.5127 L 60.6689,51.4362
 L 60.7647,51.3678 L 60.8662,51.308 L 60.9725,51.2573 L 61.0828,51.2161 L 61.1963,51.1846 L 61.3121,51.1631
 L 61.4293,51.1519 L 61.5471,51.1508 L 61.6645,51.1601 L 61.7807,51.1795 L 61.8947,51.209 L 62.0057,51.2483
 L 62.1129,51.2971 L 62.2154,51.3551 L 62.3124,51.4218 L 62.4033,51.4968 L 62.4873,51.5793 L 62.5638,51.6689
 L 62.6322,51.7647 L 62.692,51.8662 L 62.7427,51.9725 L 62.7839,52.0828 L 62.8154,52.1963 L 62.8369,52.3121
 L 62.8481,52.4294 L 62.8492,52.5471 L 62.8399,52.6645 L 62.8205,52.7807 L 62.791,52.8947 L 62.7517,53.0057
 L 62.7029,53.1129 L 62.6449,53.2154 L 62.5782,53.3125 L 62.5032,53.4033 L 62.4207,53.4873 L 62.3311,53.5638
 L 62.2353,53.6322 L 62.1338,53.692 L 62.0275,53.7427 L 61.9172,53.7839 L 61.8037,53.8154 L 61.6879,53.8369
 z
" stroke="black" fill="lightgray" stroke-width="0.5"/>
</svg>
