<?xml version="1.0" standalone="no"?>
<!DOCTYPE svg PUBLIC "-//W3C//DTD SVG 1.1//EN" "http://www.w3.org/Graphics/SVG/1.1/DTD/svg11.dtd">
<svg width="100mm" height="56mm" viewBox="0 0 100 56" xmlns="http://www.w3.org/2000/svg" version="1.1">
<title>OpenSCAD Model</title>
<path d="
M 92.2164,54.7914 L 93.8153,52.0877 L 95.2413,49.289 L 96.4888,46.4062 L 97.5528,43.4509 L 98.4292,40.4345
 L 99.1143,37.3691 L 99.6057,34.2667 L 99.9013,31.1395 L 100,28 L 99.9013,24.8605 L 99.6057,21.7334
 L 99.1143,18.6309 L 98.4292,15.5655 L 97.5528,12.5492 L 96.4888,9.59378 L 95.2413,6.71104 L 93.8153,3.91232
 L 92.2164,1.20866 L 91.395,-0 L 8.60501,-0 L 7.7836,1.20866 L 6.18468,3.91232 L 4.75865,6.71104
 L 3.51118,9.59378 L 2.44719,12.5492 L 1.57085,15.5655 L 0.885651,18.6309 L 0.394272,21.7334 L 0.0986786,24.8605
 L 0,28 L 0.0986786,31.1395 L 0.394272,34.2667 L 0.885651,37.3691 L 1.57085,40.4345 L 2.44719,43.4509
 L 3.51118,46.4062 L 4.75865,49.289 L 6.18468,52.0877 L 7.7836,54.7914 L 8.60501,56 L 91.395,56
 z
M 10.9152,4.84735 L 10.8308,4.83936 L 10.747,4.8261 L 10.6643,4.8076 L 10.5828,4.78394 L 10.503,4.7552
 L 10.4252,4.72153 L 10.3496,4.68303 L 10.2766,4.63985 L 10.2065,4.59218 L 10.1395,4.54021 L 10.0759,4.48412
 L 10.0159,4.42415 L 9.95979,4.36053 L 9.90782,4.29352 L 9.86015,4.22337 L 9.81697,4.15038 L 9.77847,4.07481
 L 9.7448,3.99698 L 9.71606,3.91718 L 9.6924,3.83574 L 9.6739,3.75298 L 9.66064,3.6692 L 9.65265,3.58478
 L 9.64999,3.5 L 9.65265,3.41524 L 9.66064,3.33081 L 9.6739,3.24704 L 9.6924,3.16428 L 9.71606,3.08284
 L 9.7448,3.00304 L 9.77847,2.9252 L 9.81697,2.84964 L 9.86015,2.77664 L 9.90782,2.7065 L 9.95979,2.63948
 L 10.0159,2.57587 L 10.0759,2.5159 L 10.1395,2.45981 L 10.2065,2.40784 L 10.2766,2.36017 L 10.3496,2.31699
 L 10.4252,2.27849 L 10.503,2.24481 L 10.5828,2.21608 L 10.6643,2.19241 L 10.747,2.17392 L 10.8308,2.16066
 L 10.9152,2.15266 L 11,2.15001 L 11.0848,2.15266 L 11.1692,2.16066 L 11.253,2.17392 L 11.3357,2.19241
 L 11.4172,2.21608 L 11.497,2.24481 L 11.5748,2.27849 L 11.6504,2.31699 L 11.7234,2.36017 L 11.7935,2.40784
 L 11.8605,2.45981 L 11.9241,2.5159 L 11.9841,2.57587 L 12.0402,2.63948 L 12.0922,2.7065 L 12.1398,2.77664
 L 12.183,2.84964 L 12.2215,2.9252 L 12.2552,3.00304 L 12.2839,3.08284 L 12.3076,3.16428 L 12.3261,3.24704
 L 12.3393,3.33081 L 12.3473,3.41524 L 12.35,3.5 L 12.3473,3.58478 L 12.3393,3.6692 L 12.3261,3.75298
 L 12.3076,3.83574 L 12.2839,3.91718 L 12.2552,3.99698 L 12.2215,4.07481 L 12.183,4.15038 L 12.1398,4.22337
 L 12.0922,4.29352 L 12.0402,4.36053 L 11.9841,4.42415 L 11.9241,4.48412 L 11.8605,4.54021 L 11.7935,4.59218
 L 11.7234,4.63985 L 11.6504,4.68303 L 11.5748,4.72153 L 11.497,4.7552 L 11.4172,4.78394 L 11.3357,4.8076
 L 11.253,4.8261 L 11.1692,4.83936 L 11.0848,4.84735 L 11,4.85001 z
M 68.9152,4.84735 L 68.8308,4.83936 L 68.747,4.8261 L 68.6643,4.8076 L 68.5828,4.78394 L 68.503,4.7552
 L 68.4252,4.72153 L 68.3496,4.68303 L 68.2766,4.63985 L 68.2065,4.59218 L 68.1395,4.54021 L 68.0759,4.48412
 L 68.0159,4.42415 L 67.9598,4.36053 L 67.9078,4.29352 L 67.8602,4.22337 L 67.817,4.15038 L 67.7785,4.07481
 L 67.7448,3.99698 L 67.7161,3.91718 L 67.6924,3.83574 L 67.6739,3.75298 L 67.6606,3.6692 L 67.6526,3.58478
 L 67.65,3.5 L 67.6526,3.41524 L 67.6606,3.33081 L 67.6739,3.24704 L 67.6924,3.16428 L 67.7161,3.08284
 L 67.7448,3.00304 L 67.7785,2.9252 L 67.817,2.84964 L 67.8602,2.77664 L 67.9078,2.7065 L 67.9598,2.63948
 L 68.0159,2.57587 L 68.0759,2.5159 L 68.1395,2.45981 L 68.2065,2.40784 L 68.2766,2.36017 L 68.3496,2.31699
 L 68.4252,2.27849 L 68.503,2.24481 L 68.5828,2.21608 L 68.6643,2.19241 L 68.747,2.17392 L 68.8308,2.16066
 L 68.9152,2.15266 L 69,2.15001 L 69.0848,2.15266 L 69.1692,2.16066 L 69.253,2.17392 L 69.3357,2.19241
 L 69.4172,2.21608 L 69.497,2.24481 L 69.5748,2.27849 L 69.6504,2.31699 L 69.7234,2.36017 L 69.7935,2.40784
 L 69.8605,2.45981 L 69.9241,2.5159 L 69.9841,2.57587 L 70.0402,2.63948 L 70.0922,2.7065 L 70.1398,2.77664
 L 70.183,2.84964 L 70.2215,2.9252 L 70.2552,3.00304 L 70.2839,3.08284 L 70.3076,3.16428 L 70.3261,3.24704
 L 70.3393,3.33081 L 70.3473,3.41524 L 70.35,3.5 L 70.3473,3.58478 L 70.3393,3.6692 L 70.3261,3.75298
 L 70.3076,3.83574 L 70.2839,3.91718 L 70.2552,3.99698 L 70.2215,4.07481 L 70.183,4.15038 L 70.1398,4.22337
 L 70.0922,4.29352 L 70.0402,4.36053 L 69.9841,4.42415 L 69.9241,4.48412 L 69.8605,4.54021 L 69.7935,4.59218
 L 69.7234,4.63985 L 69.6504,4.68303 L 69.5748,4.72153 L 69.497,4.7552 L 69.4172,4.78394 L 69.3357,4.8076
 L 69.253,4.8261 L 69.1692,4.83936 L 69.0848,4.84735 L 69,4.85001 z
M 17.9309,8.19783 L 17.8621,8.19133 L 17.7939,8.18053 L 17.7265,8.16545 L 17.6601,8.14616 L 17.5951,8.12276
 L 17.5316,8.09532 L 17.4701,8.06395 L 17.4106,8.02876 L 17.3534,7.98993 L 17.2988,7.94757 L 17.247,7.90187
 L 17.1981,7.85301 L 17.1525,7.80118 L 17.1101,7.74657 L 17.0712,7.68942 L 17.0361,7.62994 L 17.0047,7.56836
 L 16.9772,7.50494 L 16.9538,7.43993 L 16.9346,7.37357 L 16.9195,7.30612 L 16.9087,7.23787 L 16.9022,7.16908
 L 16.9,7.10001 L 16.9022,7.03094 L 16.9087,6.96214 L 16.9195,6.89389 L 16.9346,6.82645 L 16.9538,6.76009
 L 16.9772,6.69507 L 17.0047,6.63165 L 17.0361,6.57008 L 17.0712,6.5106 L 17.1101,6.45345 L 17.1525,6.39883
 L 17.1981,6.347 L 17.247,6.29814 L 17.2988,6.25244 L 17.3534,6.21008 L 17.4106,6.17125 L 17.4701,6.13608
 L 17.5316,6.10469 L 17.5951,6.07726 L 17.6601,6.05385 L 17.7265,6.03456 L 17.7939,6.01949 L 17.8621,6.00868
 L 17.9309,6.00218 L 18,6 L 18.0691,6.00218 L 18.1379,6.00868 L 18.2061,6.01949 L 18.2735,6.03456
 L 18.3399,6.05385 L 18.4049,6.07726 L 18.4684,6.10469 L 18.5299,6.13608 L 18.5894,6.17125 L 18.6466,6.21008
 L 18.7012,6.25244 L 18.753,6.29814 L 18.8019,6.347 L 18.8475,6.39883 L 18.8899,6.45345 L 18.9288,6.5106
 L 18.9639,6.57008 L 18.9953,6.63165 L 19.0228,6.69507 L 19.0462,6.76009 L 19.0654,6.82645 L 19.0805,6.89389
 L 19.0913,6.96214 L 19.0978,7.03094 L 19.1,7.10001 L 19.0978,7.16908 L 19.0913,7.23787 L 19.0805,7.30612
 L 19.0654,7.37357 L 19.0462,7.43993 L 19.0228,7.50494 L 18.9953,7.56836 L 18.9639,7.62994 L 18.9288,7.68942
 L 18.8899,7.74657 L 18.8475,7.80118 L 18.8019,7.85301 L 18.753,7.90187 L 18.7012,7.94757 L 18.6466,7.98993
 L 18.5894,8.02876 L 18.5299,8.06395 L 18.4684,8.09532 L 18.4049,8.12276 L 18.3399,8.14616 L 18.2735,8.16545
 L 18.2061,8.18053 L 18.1379,8.19133 L 18.0691,8.19783 L 18,8.20001 z
M 81.9309,8.19783 L 81.8621,8.19133 L 81.7939,8.18053 L 81.7265,8.16545 L 81.6601,8.14616 L 81.5951,8.12276
 L 81.5316,8.09532 L 81.4701,8.06395 L 81.4106,8.02876 L 81.3534,7.98993 L 81.2988,7.94757 L 81.247,7.90187
 L 81.1981,7.85301 L 81.1525,7.80118 L 81.1101,7.74657 L 81.0712,7.68942 L 81.0361,7.62994 L 81.0047,7.56836
 L 80.9772,7.50494 L 80.9538,7.43993 L 80.9346,7.37357 L 80.9195,7.30612 L 80.9087,7.23787 L 80.9022,7.16908
 L 80.9,7.10001 L 80.9022,7.03094 L 80.9087,6.96214 L 80.9195,6.89389 L 80.9346,6.82645 L 80.9538,6.76009
 L 80.9772,6.69507 L 81.0047,6.63165 L 81.0361,6.57008 L 81.0712,6.5106 L 81.1101,6.45345 L 81.1525,6.39883
 L 81.1981,6.347 L 81.247,6.29814 L 81.2988,6.25244 L 81.3534,6.21008 L 81.4106,6.17125 L 81.4701,6.13608
 L 81.5316,6.10469 L 81.5951,6.07726 L 81.6601,6.05385 L 81.7265,6.03456 L 81.7939,6.01949 L 81.8621,6.00868
 L 81.9309,6.00218 L 82,6 L 82.0691,6.00218 L 82.1379,6.00868 L 82.2061,6.01949 L 82.2735,6.03456
 L 82.3399,6.05385 L 82.4049,6.07726 L 82.4684,6.10469 L 82.5299,6.13608 L 82.5894,6.17125 L 82.6466,6.21008
 L 82.7012,6.25244 L 82.753,6.29814 L 82.8019,6.347 L 82.8475,6.39883 L 82.8899,6.45345 L 82.9288,6.5106
 L 82.9639,6.57008 L 82.9953,6.63165 L 83.0228,6.69507 L 83.0462,6.76009 L 83.0654,6.82645 L 83.0805,6.89389
 L 83.0913,6.96214 L 83.0978,7.03094 L 83.1,7.10001 L 83.0978,7.16908 L 83.0913,7.23787 L 83.0805,7.30612
 L 83.0654,7.37357 L 83.0462,7.43993 L 83.0228,7.50494 L 82.9953,7.56836 L 82.9639,7.62994 L 82.9288,7.68942
 L 82.8899,7.74657 L 82.8475,7.80118 L 82.8019,7.85301 L 82.753,7.90187 L 82.7012,7.94757 L 82.6466,7.98993
 L 82.5894,8.02876 L 82.5299,8.06395 L 82.4684,8.09532 L 82.4049,8.12276 L 82.3399,8.14616 L 82.2735,8.16545
 L 82.2061,8.18053 L 82.1379,8.19133 L 82.0691,8.19783 L 82,8.20001 z
M 49,36 L 49,34.0146 L 48.857,33.9919 L 48.483,33.9084 L 48.115,33.8014 L 47.7544,33.6716
 L 47.4028,33.5194 L 47.0613,33.3455 L 46.7315,33.1504 L 46.4145,32.935 L 46.1117,32.7001 L 45.8243,32.4467
 L 45.5533,32.1757 L 45.2999,31.8883 L 45.065,31.5855 L 44.8496,31.2685 L 44.6545,30.9387 L 44.4806,30.5972
 L 44.3284,30.2456 L 44.1986,29.885 L 44.0916,29.517 L 44.0081,29.143 L 43.9481,28.7645 L 43.912,28.383
 L 43.9,28 L 43.912,27.617 L 43.9481,27.2355 L 44.0081,26.857 L 44.0916,26.483 L 44.1986,26.115
 L 44.3284,25.7544 L 44.4806,25.4028 L 44.6545,25.0613 L 44.8496,24.7315 L 45.065,24.4145 L 45.2999,24.1117
 L 45.5533,23.8243 L 45.8243,23.5533 L 46.1117,23.2999 L 46.4145,23.065 L 46.7315,22.8496 L 47.0613,22.6545
 L 47.4028,22.4806 L 47.7544,22.3284 L 48.115,22.1986 L 48.483,22.0916 L 48.857,22.0081 L 49,21.9854
 L 49,20 L 51,20 L 51,21.9854 L 51.143,22.0081 L 51.517,22.0916 L 51.885,22.1986
 L 52.2456,22.3284 L 52.5972,22.4806 L 52.9387,22.6545 L 53.2685,22.8496 L 53.5855,23.065 L 53.8883,23.2999
 L 54.1757,23.5533 L 54.4467,23.8243 L 54.7001,24.1117 L 54.935,24.4145 L 55.1504,24.7315 L 55.3455,25.0613
 L 55.5194,25.4028 L 55.6716,25.7544 L 55.8014,26.115 L 55.9084,26.483 L 55.9919,26.857 L 56.0519,27.2355
 L 56.088,27.617 L 56.1,28 L 56.088,28.383 L 56.0519,28.7645 L 55.9919,29.143 L 55.9084,29.517
 L 55.8014,29.885 L 55.6716,30.2456 L 55.5194,30.5972 L 55.3455,30.9387 L 55.1504,31.2685 L 54.935,31.5855
 L 54.7001,31.8883 L 54.4467,32.1757 L 54.1757,32.4467 L 53.8883,32.7001 L 53.5855,32.935 L 53.2685,33.1504
 L 52.9387,33.3455 L 52.5972,33.5194 L 52.2456,33.6716 L 51.885,33.8014 L 51.517,33.9084 L 51.143,33.9919
 L 51,34.0146 L 51,36 z
M 17.6735,33.1897 L 17.3483,33.159 L 17.0256,33.1079 L 16.7068,33.0366 L 16.3931,32.9455 L 16.0858,32.8348
 L 15.7859,32.7051 L 15.4949,32.5568 L 15.2137,32.3905 L 14.9435,32.2069 L 14.6854,32.0067 L 14.4404,31.7906
 L 14.2094,31.5596 L 13.9933,31.3146 L 13.7931,31.0565 L 13.6095,30.7863 L 13.4432,30.5051 L 13.2949,30.2141
 L 13.1652,29.9142 L 13.0545,29.6069 L 12.9634,29.2932 L 12.8921,28.9744 L 12.841,28.6517 L 12.8103,28.3265
 L 12.8,28 L 12.8103,27.6735 L 12.841,27.3483 L 12.8921,27.0256 L 12.9634,26.7068 L 13.0545,26.3931
 L 13.1652,26.0858 L 13.2949,25.7859 L 13.4432,25.4949 L 13.6095,25.2137 L 13.7931,24.9435 L 13.9933,24.6854
 L 14.2094,24.4404 L 14.4404,24.2094 L 14.6854,23.9933 L 14.9435,23.7931 L 15.2137,23.6095 L 15.4949,23.4432
 L 15.7859,23.2949 L 16.0858,23.1652 L 16.3931,23.0545 L 16.7068,22.9634 L 17.0256,22.8921 L 17.3483,22.841
 L 17.6735,22.8103 L 18,22.8 L 18.3265,22.8103 L 18.6517,22.841 L 18.9744,22.8921 L 19.2932,22.9634
 L 19.6069,23.0545 L 19.9142,23.1652 L 20.2141,23.2949 L 20.5051,23.4432 L 20.7863,23.6095 L 21.0565,23.7931
 L 21.3146,23.9933 L 21.5596,24.2094 L 21.7906,24.4404 L 22.0067,24.6854 L 22.2069,24.9435 L 22.3905,25.2137
 L 22.5568,25.4949 L 22.7051,25.7859 L 22.8348,26.0858 L 22.9455,26.3931 L 23.0366,26.7068 L 23.1079,27.0256
 L 23.159,27.3483 L 23.1897,27.6735 L 23.2,28 L 23.1897,28.3265 L 23.159,28.6517 L 23.1079,28.9744
 L 23.0366,29.2932 L 22.9455,29.6069 L 22.8348,29.9142 L 22.7051,30.2141 L 22.5568,30.5051 L 22.3905,30.7863
 L 22.2069,31.0565 L 22.0067,31.3146 L 21.7906,31.5596 L 21.5596,31.7906 L 21.3146,32.0067 L 21.0565,32.2069
 L 20.7863,32.3905 L 20.5051,32.5568 L 20.2141,32.7051 L 19.9142,32.8348 L 19.6069,32.9455 L 19.2932,33.0366
 L 18.9744,33.1079 L 18.6517,33.159 L 18.3265,33.1897 L 18,33.2 z
M 81.6735,33.1897 L 81.3483,33.159 L 81.0256,33.1079 L 80.7068,33.0366 L 80.3931,32.9455 L 80.0858,32.8348
 L 79.7859,32.7051 L 79.4949,32.5568 L 79.2137,32.3905 L 78.9435,32.2069 L 78.6854,32.0067 L 78.4404,31.7906
 L 78.2094,31.5596 L 77.9933,31.3146 L 77.7931,31.0565 L 77.6095,30.7863 L 77.4432,30.5051 L 77.2949,30.2141
 L 77.1652,29.9142 L 77.0545,29.6069 L 76.9634,29.2932 L 76.8921,28.9744 L 76.841,28.6517 L 76.8103,28.3265
 L 76.8,28 L 76.8103,27.6735 L 76.841,27.3483 L 76.8921,27.0256 L 76.9634,26.7068 L 77.0545,26.3931
 L 77.1652,26.0858 L 77.2949,25.7859 L 77.4432,25.4949 L 77.6095,25.2137 L 77.7931,24.9435 L 77.9933,24.6854
 L 78.2094,24.4404 L 78.4404,24.2094 L 78.6854,23.9933 L 78.9435,23.7931 L 79.2137,23.6095 L 79.4949,23.4432
 L 79.7859,23.2949 L 80.0858,23.1652 L 80.3931,23.0545 L 80.7068,22.9634 L 81.0256,22.8921 L 81.3483,22.841
 L 81.6735,22.8103 L 82,22.8 L 82.3265,22.8103 L 82.6517,22.841 L 82.9744,22.8921 L 83.2932,22.9634
 L 83.6069,23.0545 L 83.9142,23.1652 L 84.2141,23.2949 L 84.5051,23.4432 L 84.7863,23.6095 L 85.0565,23.7931
 L 85.3146,23.9933 L 85.5596,24.2094 L 85.7906,24.4404 L 86.0067,24.6854 L 86.2069,24.9435 L 86.3905,25.2137
 L 86.5568,25.4949 L 86.7051,25.7859 L 86.8348,26.0858 L 86.9455,26.3931 L 87.0366,26.7068 L 87.1079,27.0256
 L 87.159,27.3483 L 87.1897,27.6735 L 87.2,28 L 87.1897,28.3265 L 87.159,28.6517 L 87.1079,28.9744
 L 87.0366,29.2932 L 86.9455,29.6069 L 86.8348,29.9142 L 86.7051,30.2141 L 86.5568,30.5051 L 86.3905,30.7863
 L 86.2069,31.0565 L 86.0067,31.3146 L 85.7906,31.5596 L 85.5596,31.7906 L 85.3146,32.0067 L 85.0565,32.2069
 L 84.7863,32.3905 L 84.5051,32.5568 L 84.2141,32.7051 L 83.9142,32.8348 L 83.6069,32.9455 L 83.2932,33.0366
 L 82.9744,33.1079 L 82.6517,33.159 L 82.3265,33.1897 L 82,33.2 z
M 17.9309,49.9978 L 17.8621,49.9913 L 17.7939,49.9805 L 17.7265,49.9654 L 17.6601,49.9462 L 17.5951,49.9227
 L 17.5316,49.8953 L 17.4701,49.8639 L 17.4106,49.8288 L 17.3534,49.7899 L 17.2988,49.7476 L 17.247,49.7019
 L 17.1981,49.653 L 17.1525,49.6012 L 17.1101,49.5466 L 17.0712,49.4894 L 17.0361,49.4299 L 17.0047,49.3683
 L 16.9772,49.3049 L 16.9538,49.2399 L 16.9346,49.1736 L 16.9195,49.1061 L 16.9087,49.0379 L 16.9022,48.9691
 L 16.9,48.9 L 16.9022,48.8309 L 16.9087,48.7621 L 16.9195,48.6939 L 16.9346,48.6264 L 16.9538,48.5601
 L 16.9772,48.4951 L 17.0047,48.4316 L 17.0361,48.3701 L 17.0712,48.3106 L 17.1101,48.2534 L 17.1525,48.1988
 L 17.1981,48.147 L 17.247,48.0981 L 17.2988,48.0524 L 17.3534,48.0101 L 17.4106,47.9712 L 17.4701,47.9361
 L 17.5316,47.9047 L 17.5951,47.8772 L 17.6601,47.8538 L 17.7265,47.8345 L 17.7939,47.8195 L 17.8621,47.8087
 L 17.9309,47.8022 L 18,47.8 L 18.0691,47.8022 L 18.1379,47.8087 L 18.2061,47.8195 L 18.2735,47.8345
 L 18.3399,47.8538 L 18.4049,47.8772 L 18.4684,47.9047 L 18.5299,47.9361 L 18.5894,47.9712 L 18.6466,48.0101
 L 18.7012,48.0524 L 18.753,48.0981 L 18.8019,48.147 L 18.8475,48.1988 L 18.8899,48.2534 L 18.9288,48.3106
 L 18.9639,48.3701 L 18.9953,48.4316 L 19.0228,48.4951 L 19.0462,48.5601 L 19.0654,48.6264 L 19.0805,48.6939
 L 19.0913,48.7621 L 19.0978,48.8309 L 19.1,48.9 L 19.0978,48.9691 L 19.0913,49.0379 L 19.0805,49.1061
 L 19.0654,49.1736 L 19.0462,49.2399 L 19.0228,49.3049 L 18.9953,49.3683 L 18.9639,49.4299 L 18.9288,49.4894
 L 18.8899,49.5466 L 18.8475,49.6012 L 18.8019,49.653 L 18.753,49.7019 L 18.7012,49.7476 L 18.6466,49.7899
 L 18.5894,49.8288 L 18.5299,49.8639 L 18.4684,49.8953 L 18.4049,49.9227 L 18.3399,49.9462 L 18.2735,49.9654
 L 18.2061,49.9805 L 18.1379,49.9913 L 18.0691,49.9978 L 18,50 z
M 81.9309,49.9978 L 81.8621,49.9913 L 81.7939,49.9805 L 81.7265,49.9654 L 81.6601,49.9462 L 81.5951,49.9227
 L 81.5316,49.8953 L 81.4701,49.8639 L 81.4106,49.8288 L 81.3534,49.7899 L 81.2988,49.7476 L 81.247,49.7019
 L 81.1981,49.653 L 81.1525,49.6012 L 81.1101,49.5466 L 81.0712,49.4894 L 81.0361,49.4299 L 81.0047,49.3683
 L 80.9772,49.3049 L 80.9538,49.2399 L 80.9346,49.1736 L 80.9195,49.1061 L 80.9087,49.0379 L 80.9022,48.9691
 L 80.9,48.9 L 80.9022,48.8309 L 80.9087,48.7621 L 80.9195,48.6939 L 80.9346,48.6264 L 80.9538,48.5601
 L 80.9772,48.4951 L 81.0047,48.4316 L 81.0361,48.3701 L 81.0712,48.3106 L 81.1101,48.2534 L 81.1525,48.1988
 L 81.1981,48.147 L 81.247,48.0981 L 81.2988,48.0524 L 81.3534,48.0101 L 81.4106,47.9712 L 81.4701,47.9361
 L 81.5316,47.9047 L 81.5951,47.8772 L 81.6601,47.8538 L 81.7265,47.8345 L 81.7939,47.8195 L 81.8621,47.8087
 L 81.9309,47.8022 L 82,47.8 L 82.0691,47.8022 L 82.1379,47.8087 L 82.2061,47.8195 L 82.2735,47.8345
 L 82.3399,47.8538 L 82.4049,47.8772 L 82.4684,47.9047 L 82.5299,47.9361 L 82.5894,47.9712 L 82.6466,48.0101
 L 82.7012,48.0524 L 82.753,48.0981 L 82.8019,48.147 L 82.8475,48.1988 L 82.8899,48.2534 L 82.9288,48.3106
 L 82.9639,48.3701 L 82.9953,48.4316 L 83.0228,48.4951 L 83.0462,48.5601 L 83.0654,48.6264 L 83.0805,48.6939
 L 83.0913,48.7621 L 83.0978,48.8309 L 83.1,48.9 L 83.0978,48.9691 L 83.0913,49.0379 L 83.0805,49.1061
 L 83.0654,49.1736 L 83.0462,49.2399 L 83.0228,49.3049 L 82.9953,49.3683 L 82.9639,49.4299 L 82.9288,49.4894
 L 82.8899,49.5466 L 82.8475,49.6012 L 82.8019,49.653 L 82.753,49.7019 L 82.7012,49.7476 L 82.6466,49.7899
 L 82.5894,49.8288 L 82.5299,49.8639 L 82.4684,49.8953 L 82.4049,49.9227 L 82.3399,49.9462 L 82.2735,49.9654
 L 82.2061,49.9805 L 82.1379,49.9913 L 82.0691,49.9978 L 82,50 z
M 10.9152,53.8474 L 10.8308,53.8394 L 10.747,53.8261 L 10.6643,53.8076 L 10.5828,53.7839 L 10.503,53.7552
 L 10.4252,53.7215 L 10.3496,53.683 L 10.2766,53.6398 L 10.2065,53.5922 L 10.1395,53.5402 L 10.0759,53.4841
 L 10.0159,53.4241 L 9.95979,53.3605 L 9.90782,53.2935 L 9.86015,53.2234 L 9.81697,53.1504 L 9.77847,53.0748
 L 9.7448,52.997 L 9.71606,52.9172 L 9.6924,52.8357 L 9.6739,52.753 L 9.66064,52.6692 L 9.65265,52.5848
 L 9.64999,52.5 L 9.65265,52.4152 L 9.66064,52.3308 L 9.6739,52.247 L 9.6924,52.1643 L 9.71606,52.0828
 L 9.7448,52.003 L 9.77847,51.9252 L 9.81697,51.8496 L 9.86015,51.7766 L 9.90782,51.7065 L 9.95979,51.6395
 L 10.0159,51.5759 L 10.0759,51.5159 L 10.1395,51.4598 L 10.2065,51.4078 L 10.2766,51.3602 L 10.3496,51.317
 L 10.4252,51.2785 L 10.503,51.2448 L 10.5828,51.2161 L 10.6643,51.1924 L 10.747,51.1739 L 10.8308,51.1607
 L 10.9152,51.1527 L 11,51.15 L 11.0848,51.1527 L 11.1692,51.1607 L 11.253,51.1739 L 11.3357,51.1924
 L 11.4172,51.2161 L 11.497,51.2448 L 11.5748,51.2785 L 11.6504,51.317 L 11.7234,51.3602 L 11.7935,51.4078
 L 11.8605,51.4598 L 11.9241,51.5159 L 11.9841,51.5759 L 12.0402,51.6395 L 12.0922,51.7065 L 12.1398,51.7766
 L 12.183,51.8496 L 12.2215,51.9252 L 12.2552,52.003 L 12.2839,52.0828 L 12.3076,52.1643 L 12.3261,52.247
 L 12.3393,52.3308 L 12.3473,52.4152 L 12.35,52.5 L 12.3473,52.5848 L 12.3393,52.6692 L 12.3261,52.753
 L 12.3076,52.8357 L 12.2839,52.9172 L 12.2552,52.997 L 12.2215,53.0748 L 12.183,53.1504 L 12.1398,53.2234
 L 12.0922,53.2935 L 12.0402,53.3605 L 11.9841,53.4241 L 11.9241,53.4841 L 11.8605,53.5402 L 11.7935,53.5922
 L 11.7234,53.6398 L 11.6504,53.683 L 11.5748,53.7215 L 11.497,53.7552 L 11.4172,53.7839 L 11.3357,53.8076
 L 11.253,53.8261 L 11.1692,53.8394 L 11.0848,53.8474 L 11,53.85 z
M 68.9152,53.8474 L 68.8308,53.8394 L 68.747,53.8261 L 68.6643,53.8076 L 68.5828,53.7839 L 68.503,53.7552
 L 68.4252,53.7215 L 68.3496,53.683 L 68.2766,53.6398 L 68.2065,53.5922 L 68.1395,53.5402 L 68.0759,53.4841
 L 68.0159,53.4241 L 67.9598,53.3605 L 67.9078,53.2935 L 67.8602,53.2234 L 67.817,53.1504 L 67.7785,53.0748
 L 67.7448,52.997 L 67.7161,52.9172 L 67.6924,52.8357 L 67.6739,52.753 L 67.6606,52.6692 L 67.6526,52.5848
 L 67.65,52.5 L 67.6526,52.4152 L 67.6606,52.3308 L 67.6739,52.247 L 67.6924,52.1643 L 67.7161,52.0828
 L 67.7448,52.003 L 67.7785,51.9252 L 67.817,51.8496 L 67.8602,51.7766 L 67.9078,51.7065 L 67.9598,51.6395
 L 68.0159,51.5759 L 68.0759,51.5159 L 68.1395,51.4598 L 68.2065,51.4078 L 68.2766,51.3602 L 68.3496,51.317
 L 68.4252,51.2785 L 68.503,51.2448 L 68.5828,51.2161 L 68.6643,51.1924 L 68.747,51.1739 L 68.8308,51.1607
 L 68.9152,51.1527 L 69,51.15 L 69.0848,51.1527 L 69.1692,51.1607 L 69.253,51.1739 L 69.3357,51.1924
 L 69.4172,51.2161 L 69.497,51.2448 L 69.5748,51.2785 L 69.6504,51.317 L 69.7234,51.3602 L 69.7935,51.4078
 L 69.8605,51.4598 L 69.9241,51.5159 L 69.9841,51.5759 L 70.0402,51.6395 L 70.0922,51.7065 L 70.1398,51.7766
 L 70.183,51.8496 L 70.2215,51.9252 L 70.2552,52.003 L 70.2839,52.0828 L 70.3076,52.1643 L 70.3261,52.247
 L 70.3393,52.3308 L 70.3473,52.4152 L 70.35,52.5 L 70.3473,52.5848 L 70.3393,52.6692 L 70.3261,52.753
 L 70.3076,52.8357 L 70.2839,52.9172 L 70.2552,52.997 L 70.2215,53.0748 L 70.183,53.1504 L 70.1398,53.2234
 L 70.0922,53.2935 L 70.0402,53.3605 L 69.9841,53.4241 L 69.9241,53.4841 L 69.8605,53.5402 L 69.7935,53.5922
 L 69.7234,53.6398 L 69.6504,53.683 L 69.5748,53.7215 L 69.497,53.7552 L 69.4172,53.7839 L 69.3357,53.8076
 L 69.253,53.8261 L 69.1692,53.8394 L 69.0848,53.8474 L 69,53.85 z
" stroke="black" fill="lightgray" stroke-width="0.5"/>
</svg>
